<?xml version="1.0" standalone="no"?>
<!DOCTYPE svg PUBLIC "-//W3C//DTD SVG 1.1//EN" "http://www.w3.org/Graphics/SVG/1.1/DTD/svg11.dtd" >
<svg xmlns="http://www.w3.org/2000/svg" xmlns:xlink="http://www.w3.org/1999/xlink" version="1.1">
<metadata></metadata>
<defs>
<font id="libertin100" horiz-adv-x="0" >
<font-face units-per-em="2048" ascent="1760" descent="-288" />
<missing-glyph horiz-adv-x="256" />
<glyph />
<glyph horiz-adv-x="682" />
<glyph unicode=" "  horiz-adv-x="256" />
<glyph unicode="&#x09;" horiz-adv-x="256" />
<glyph unicode="&#xa0;" horiz-adv-x="256" />
<glyph unicode="!" horiz-adv-x="173" d="M60 698l1 33v154l2 291l-1 274q0 11 7.5 18.5t17.5 7.5q11 0 18 -7t7 -18l1 -275l-2 -292v-153v-1l-1 -34q-1 -11 -8.5 -18t-17.5 -6q-11 1 -18 8.5t-6 17.5zM61 365v1q0 10 7 17t18 7t18 -7t7 -17v-1q0 -11 -7.5 -18t-17.5 -7t-17.5 7t-7.5 18z" />
<glyph unicode="&#x22;" horiz-adv-x="449" d="M64 1170q0 33 2 101q0 15 -0.5 47.5t0.5 49.5t1 52q0 28 1 33q3 14 17 42q5 9 14.5 12.5t18.5 -0.5q9 -5 12.5 -15t-0.5 -19q-13 -27 -13 -30v-23q0 -36 -1 -54v-48t-1 -48q-1 -33 -1 -100q0 -10 -7 -17t-18 -7t-18 7t-7 17zM317 1172q0 32 1.5 94t1.5 92v60q0 32 1 37 q4 15 17 42q4 9 14.5 12.5t19.5 -1.5q9 -4 12.5 -14t-1.5 -19q-12 -25 -13 -29v-28v-60q0 -32 -1.5 -94t-1.5 -92q0 -10 -7 -17t-18 -7t-18 7t-7 17z" />
<glyph unicode="#" horiz-adv-x="754" d="M24 698q0 10 7.5 17t18.5 7h141l1 1v1q1 6 2 28.5t3 35.5q11 64 17 104q8 55 11 98h-125q-10 0 -17 7t-7 17q0 11 7 18.5t17 7.5h141v2l7 69v1l43 265q1 10 10 16.5t19 4.5q10 -1 16 -10t4 -19l-43 -264l-6 -65h237q2 34 15 121q14 84 20 126l9 60q4 24 4 27q0 10 7.5 17 t18.5 7q10 0 17 -7.5t7 -18.5q0 -8 -2.5 -19.5t-2.5 -12.5q-1 -10 -4 -30.5t-5 -30.5q-14 -84 -20 -126q-12 -79 -14 -113h125q10 0 17.5 -7.5t7.5 -18.5q0 -10 -7 -17t-18 -7h-141q-2 -48 -17 -137t-17 -131h126q10 0 17 -7t7 -17q0 -11 -7 -18.5t-17 -7.5h-142 q-2 -34 -15 -121q-3 -23 -11 -69t-11 -69q-3 -20 -9 -58q-1 -5 -2 -11.5t-1 -7.5q-1 -11 -8.5 -18t-17.5 -6q-11 1 -18 8.5t-6 17.5q0 4 4 24q6 40 9 59q3 23 11 69t11 69q12 79 14 113h-237q-1 -26 -13 -107q-23 -146 -24 -154q-2 -9 -4.5 -25t-3.5 -25q-4 -20 -4 -25 q-1 -11 -8.5 -17.5t-17.5 -5.5q-11 1 -18 8.5t-6 17.5q1 7 3 17.5t2 12.5q6 34 8 50q4 23 8 48.5t8.5 56.5t7.5 48q10 69 12 100h-125q-10 0 -18 8t-8 18zM242 722h236q2 48 17 137t17 131h-237q-2 -39 -12 -106q-4 -29 -17 -104q-2 -10 -2.5 -30t-1.5 -28z" />
<glyph unicode="$" horiz-adv-x="742" d="M43 544q-3 10 1.5 19t14.5 12t19 -2t12 -15q8 -27 12 -48q14 -54 28 -95l6 -18t5 -16q0 -1 1 -3q1 0 2.5 -1t2.5 -1q44 -13 45 -14q68 -27 80 -30q38 -11 85 -13v487v13q0 9 7 16l9 10l5 5q-10 4 -16 7q-7 0 -15 7q-9 8 -13 17q-4 1 -11 2t-11 2q-17 3 -24 6 q-14 5 -50 27q-96 60 -128 129q-14 29 -19 67q-5 24 -4 38q0 8 1.5 15.5t3 16.5t2.5 13q6 37 15 58q19 51 67 92q64 55 142 68q13 2 39 4v84q0 11 7.5 18t17.5 7t17.5 -7t7.5 -18v-82q27 0 54 -3q38 -4 88 -18q2 -1 18.5 -5.5t24.5 -7.5q10 0 21 -10q6 -5 9.5 -11.5 t3.5 -9.5v-4q3 -8 15 -41q16 -49 31 -111q1 -3 5 -20.5t6 -28.5q2 -10 -4.5 -19t-16.5 -10q-10 -2 -19 4.5t-10 16.5q-1 7 -10 45q-14 56 -30 107q-6 18 -14 40q-1 2 -1 4q-2 0 -4 1q-5 2 -38 12q-48 12 -79 16q-24 3 -50 3v-425v-14q0 -9 -7 -16l-9 -10l-5 -5q6 -3 16 -7 q7 -1 16 -8t12 -16q44 -7 50 -10q65 -28 117 -71q33 -27 50 -50q40 -53 51 -122q4 -28 4 -30q0 -25 -9 -74q-19 -112 -77 -166q-19 -18 -59 -40q-58 -30 -125 -36q-18 -2 -25 -2v-113q0 -10 -7 -17t-18 -7t-18 7t-7 17v113q-49 1 -99 15q-31 9 -85 31q-7 3 -21 7.5t-20 6.5 q-14 -2 -28 13q-5 5 -7.5 11t-2.5 9v3q-8 22 -12 34q-18 52 -29 98q-2 7 -5 23.5t-5 23.5zM137 1150q0 -11 3 -29q5 -33 15 -53q26 -57 110 -107q36 -22 40 -23q1 0 3.5 -1t6.5 -1.5t7 -1.5q4 -1 11 -2t11 -2l11 11l2 2v4v422q-30 -3 -31 -3q-67 -13 -118 -57 q-37 -32 -53 -73q-7 -17 -12 -47q-6 -28 -6 -39zM407 319q15 0 21 1q59 6 105 31q36 20 48 32q47 45 63 138q8 46 8 66q0 7 -3 22q-9 56 -42 101q-12 17 -42 41q-46 39 -104 63q-4 2 -18 3.5t-23 3.5l-11 -11l-2 -2v-3v-486z" />
<glyph unicode="%" horiz-adv-x="1145" d="M60 1110q3 120 83 218q64 79 133 88q12 1 44 -1q56 -6 86 -28q5 -4 34 -30q2 -2 4 -5l2 -2q1 0 3.5 -0.5t4.5 -0.5q25 -2 39 -6q7 -1 18 -7q5 -2 15.5 -5t15.5 -4q30 -7 87 -13q10 -1 37 1q50 3 91 13q4 1 13.5 4t19.5 5.5t20 3.5q15 1 40 5h2q1 1 3 1.5t4.5 1t6.5 0.5 t8 -1q41 34 58 56q6 8 16.5 9.5t18.5 -4.5t9.5 -16.5t-4.5 -18.5q-22 -29 -73 -70q-1 -6 -4 -15.5t-3 -11.5q-4 -16 -8 -25q-4 -10 -14 -22l-9 -12q-7 -10 -21.5 -30t-21.5 -30q-21 -30 -63.5 -89t-63.5 -88q-54 -76 -162 -226.5t-163 -226.5q-19 -25 -55.5 -76.5 t-54.5 -77.5q-53 -72 -55 -76q-5 -9 -15 -11t-19 3t-11 15t3 19q10 16 56 80q18 25 54.5 76t55.5 77q55 76 163 227t162 227q21 30 63.5 88t63.5 88q7 10 21.5 30.5t21.5 30.5q4 6 10.5 14.5t8.5 11.5l1 2q0 2 1 6l2 8q0 1 1 2.5t1 2.5q-5 -1 -14.5 -2t-14.5 -2 q-2 0 -47 -12q-40 -9 -100 -13q-36 -3 -44 -2q-64 6 -96 15q-22 6 -34 10l-13 5l-9 2q-9 1 -14 2v-29q3 -34 2 -46q-8 -118 -65 -210q-44 -71 -96 -98q-30 -16 -68 -19q-25 -3 -49 2q-56 12 -87 63q-19 32 -29 91q-1 5 -3 16.5t-3 22t-1 19.5zM110 1108q0 -12 6 -48 q7 -47 23 -74q19 -32 55 -40q8 -2 33 0q33 3 50 13q41 22 77 80q51 82 57 187q1 10 -1 40v16.5t-1 14.5q0 3 -2 19v2l-2 2q-16 16 -29 26q-22 15 -61 20q-24 2 -32 1q-48 -6 -101 -71q-69 -84 -72 -188zM706 453q-5 47 8 99q21 86 82 157q40 46 85 65q24 10 49 13 q10 1 41 -2q22 -2 35 -6q54 -17 80 -71q10 -21 18 -88q2 -11 -1 -32q-2 -32 -7 -58q-25 -125 -95 -200q-52 -55 -111 -63q-41 -5 -61 -1q-15 2 -37 14q-19 11 -35 27q-18 20 -29.5 49t-14.5 47t-7 50zM756 459q12 -91 37 -118q9 -10 23 -18q11 -6 22 -8q16 -2 45 1 q40 5 81 48q61 65 83 175q6 34 7 52q2 21 1 24q-6 54 -14 72q-16 33 -50 44q-6 2 -27 4q-23 4 -27 3q-22 -3 -37 -10q-29 -12 -66 -53q-50 -56 -71 -136q-11 -44 -7 -80z" />
<glyph unicode="&#x26;" horiz-adv-x="1267" d="M46 590q0 17 4 39q16 110 60 177q58 90 193 176q45 28 54 32q11 5 21 5q1 1 3 3.5t4 4.5l7 7q-4 8 -4 16l-2 12l-1.5 9t-1.5 5q-3 8 -15 30q-22 44 -29 64q-14 36 -18 53q-7 24 -10 53q-5 40 -2 55q11 60 22 88q39 95 141 131q25 9 72 11q103 4 161 -50q42 -39 56 -106 q5 -26 6 -38t-3 -27q-7 -36 -13 -53q-17 -46 -78 -114q-49 -55 -143 -117q-13 -8 -33 -13l-6 -1q-1 -1 -2.5 -3t-2.5 -3l-5 -5q1 -1 1 -2q5 -11 7.5 -21.5t2.5 -16.5t1 -7q54 -87 110 -166q89 -126 122 -170q4 -6 12 -16l2 -2l5 -2q4 -1 8 -3q11 11 17 16q3 3 14 8 q3 4 8.5 13.5t8.5 14.5q4 6 18 28t21 34q69 113 112 200q25 50 36 95q2 6 4.5 17t3.5 16q-2 2 -6 4q-9 4 -31 4q-43 0 -56 2q-25 4 -22 28q2 11 10 17t18 4q7 -1 50 -1q35 0 52 -8q7 -4 19 -13q14 5 25 8q42 12 68 13q16 1 28 0.5t25 -0.5t22 2q10 2 18.5 -4t10.5 -16 t-4 -18.5t-16 -10.5q-14 -3 -28.5 -3.5t-29.5 0t-23 0.5q-27 -1 -57 -11q-3 -1 -8 -2.5t-8.5 -3t-7.5 -2.5q-1 -5 -3.5 -16.5t-4.5 -17.5q-11 -47 -41 -105q-50 -100 -113 -204q-7 -11 -20.5 -32t-19.5 -31q-18 -30 -23 -36q-7 -8 -19 -12l-19 -19v-31v-3q1 -1 2 -1h3 q12 -1 23 -14q6 -7 15 -19t11 -15q5 -7 17.5 -23.5t19.5 -25.5t17.5 -22t20 -23.5t19.5 -19.5q46 -42 89 -45q4 2 12 3q18 3 40 9q32 8 50 25q27 24 43 53q2 3 7.5 15.5t11.5 21.5q6 8 16.5 10t18.5 -4q20 -15 6 -34q-2 -3 -7.5 -14.5t-9.5 -18.5q-24 -41 -53 -66 q-28 -24 -69 -36q-26 -7 -45 -11q-12 -3 -25 -2q-62 4 -119 57q-14 13 -28.5 30t-24 28.5t-24.5 32t-22 29.5q-21 29 -22 30q-1 0 -7 2q-1 1 -4 2t-5 2q-9 -11 -19 -19q-8 -5 -11 -5q-3 -4 -8.5 -12t-8.5 -12q-30 -38 -63 -71q-71 -69 -134 -95q-43 -17 -113 -21 q-87 -6 -166.5 20.5t-127.5 92.5q-34 48 -52 124q-2 9 -4 23.5t-2 17.5q-3 18 -3 42zM96 589q0 -15 3 -34q1 -5 2.5 -18.5t2.5 -19.5q15 -67 43 -105q39 -53 106.5 -75.5t144.5 -17.5q62 4 97 18q59 24 119 84q24 24 58 67q2 3 6 8.5t7.5 10.5t7.5 9q7 8 17 11q1 1 6 6.5 t9 9.5q1 1 3 2.5t3 2.5v4v27q-13 4 -20 9q-5 3 -8.5 6.5t-4.5 5.5l-1 2q-4 6 -12 16q-36 48 -123 172q-45 63 -111 168q-6 10 -9 20.5t-4 18.5t-1 9l-1 1l-15 -16q-13 -13 -16 -15q-12 -8 -28 -8q-16 -8 -47 -28q-125 -79 -178 -161q-37 -57 -52 -157q-4 -24 -4 -33z M359 1322q-2 -9 2 -40q4 -32 8 -46q2 -9 8.5 -26t8.5 -23q10 -27 26 -59q15 -27 17 -32q4 -11 8 -36v-2l13 14q12 12 18 15q10 5 17 5q13 3 17 5q87 57 134 109q55 61 68 97q5 14 11 46q3 13 3 16q0 6 -6 30q-11 51 -41 80q-42 39 -125 36q-41 -2 -58 -8q-81 -28 -111 -103 q-7 -19 -18 -78z" />
<glyph unicode="'" horiz-adv-x="176" d="M54 1170q0 32 1 95t1 94q0 9 0.5 28t0.5 29q0 32 1 37q5 21 17 43q4 9 14.5 12t19.5 -2q9 -4 12.5 -14.5t-1.5 -19.5q-12 -22 -13 -28v-28q0 -10 -0.5 -29t-0.5 -28q0 -32 -1 -95t-1 -94q0 -10 -7 -17t-18 -7t-18 7t-7 17z" />
<glyph unicode="(" horiz-adv-x="462" d="M45 785q0 18 2 48q2 58 13 139q11 90 42 195q61 205 177 369q56 80 118 142q7 8 17 8t18 -8t8 -18t-8 -17q-49 -50 -112 -137q-110 -155 -170 -354q-30 -103 -41 -187q-9 -67 -12 -135q-2 -32 -2 -45q0 -11 5 -79q15 -230 104 -434q61 -139 147 -248q49 -62 82 -94 q17 -18 0 -35q-18 -18 -35 -1q-32 31 -86 99q-92 115 -154 258q-91 206 -108 451q-5 65 -5 83z" />
<glyph unicode=")" horiz-adv-x="463" d="M22 1661q-1 10 6 18t17 9t18 -6q7 -6 16 -16t10 -11q26 -29 52 -61q102 -123 171 -289q85 -203 100 -422q6 -99 6 -105q0 -16 -5 -81q-24 -355 -212 -633q-69 -102 -135 -168q-8 -8 -18 -8t-17 8q-17 18 0 35q63 63 129 161q180 267 204 608q4 54 4 79q0 13 -5 100 q-15 212 -97 407q-69 163 -163 276q-8 10 -25 29.5t-26 29.5q-19 21 -21 23q-8 7 -9 17z" />
<glyph unicode="*" horiz-adv-x="627" d="M78 1488.5q-4 9.5 0 19.5q9 22 33 13q4 -2 7.5 -4t5.5 -3.5t3 -1.5q12 -6 27 -12q26 -11 93 -29q25 -6 31 -7q3 1 9 1q0 3 -0.5 8.5t-0.5 8.5q0 24 -1.5 74t-1.5 76q0 5 1 10v5q0 11 7 18t18 7t18 -7t7 -18v-7.5v-5.5l-1 -2q0 -24 1.5 -74t1.5 -76q0 -3 0.5 -9.5 t0.5 -10.5h1q2 0 7.5 1.5t6.5 1.5q15 4 47 12q79 22 107 42q8 6 18.5 4.5t16.5 -9.5t4 -18.5t-10 -16.5q-35 -25 -123 -50q-7 -2 -23.5 -6.5t-25.5 -6.5q-2 0 -5.5 -1t-5.5 -1v-3q3 -5 10 -13.5t10 -13.5q26 -34 54 -69q37 -45 40 -48q8 -7 8 -17t-8 -18t-18 -8t-17 8 q-9 9 -44 52q-30 37 -55 71l-10.5 14t-11.5 16v-1l-1 -1q-1 -1 -1 -2l-29 -39l-89 -109q-7 -8 -17 -9.5t-18 5.5t-9.5 17t5.5 18l88 109l28 37l2 5q-8 1 -20.5 4.5t-13.5 3.5q-73 20 -100 31q-23 9 -31 14q-3 2 -6 3.5t-4 2.5l-2 1q-10 4 -14 13.5z" />
<glyph unicode="+" horiz-adv-x="878" d="M68 746q0 11 7 18.5t17 7.5h323v322q0 11 7.5 18.5t17.5 7.5t17.5 -7.5t7.5 -18.5v-322h321q10 0 17.5 -7.5t7.5 -18.5q0 -10 -7 -17t-18 -7h-321v-321q0 -11 -7.5 -18t-17.5 -7t-17.5 7t-7.5 18v321h-323q-10 0 -17 7t-7 17z" />
<glyph unicode="," horiz-adv-x="313" d="M54 68q-9 24 13 33q9 4 23 8.5t17 5.5q72 31 92 76q6 13 10 53q4 25 3 31q-2 12 -9 23q-6 10 -33.5 27t-42.5 32q-7 7 -7.5 18t6.5 18t18 7.5t18 -6.5q2 -2 36 -24t48 -46q12 -21 15 -44q1 -9 -2 -42q-5 -44 -15 -67q-28 -63 -118 -102q-9 -4 -22 -8t-17 -6 q-24 -9 -33 13z" />
<glyph unicode="-" horiz-adv-x="490" d="M35 797q-3 10 1.5 19t14.5 12q18 6 54 6h277q4 0 14 -1t14 0q1 0 7 1.5t12 2.5q10 1 18 -5t10 -16q1 -10 -5 -18t-16 -10q-13 -3 -22 -4h-32h-277q-28 0 -38 -3t-19.5 1.5t-12.5 14.5z" />
<glyph unicode="." horiz-adv-x="166" d="M58 365v1q0 10 7 17t18 7t18 -7t7 -17v-1q0 -11 -7 -18t-18 -7t-18 7t-7 18z" />
<glyph unicode="/" horiz-adv-x="516" d="M5 277q1 5 8 25l16 48l48 144q24 72 73 216.5t73 216.5q27 80 81 240.5t81 240.5q8 24 24.5 72t24.5 72q19 58 25 73q5 9 14.5 13t18.5 0q9 -5 12.5 -14.5t-0.5 -18.5q-3 -7 -23 -69l-48 -144q-28 -80 -81.5 -240.5t-80.5 -240.5q-25 -72 -73.5 -217t-72.5 -217 q-8 -24 -24.5 -71.5t-24.5 -71.5l-16 -47q-1 -3 -2 -6.5t-2 -5.5t-2 -4.5t-1 -4.5q-2 -10 -11 -15.5t-19 -3.5t-15 11t-3 19z" />
<glyph unicode="0" horiz-adv-x="698" d="M37 847q0 23 7 105q12 129 45 227q33 101 88 165q38 46 81 65q20 10 51 15q6 1 12 1.5t12 1.5t8 1q7 1 41 -3q112 -13 188 -155q8 -14 22 -46q10 -25 17 -46q34 -98 43 -229q5 -75 5 -92q1 -27 -9 -126q-12 -131 -48 -232q-52 -147 -150 -202q-39 -22 -72 -26 q-54 -7 -94 4q-50 13 -101 64q-67 68 -104 202q-15 52 -23 94q-10 57 -15 140q-4 46 -4 72zM87 846q0 -32 3 -68q5 -80 15 -134q3 -20 22 -90q33 -119 92 -180q40 -40 77 -50q32 -8 76 -3q24 3 53 19q81 45 128 176q35 97 46 219q8 82 8 122q0 14 -5 89q-9 127 -40 216 q-5 15 -17 43q-3 7 -20 41q-64 119 -149 129q-25 4 -29 3q-7 -1 -17 -2t-12 -1q-24 -3 -39 -11q-33 -16 -64 -52q-48 -56 -79 -149q-32 -95 -43 -215q-6 -68 -6 -102z" />
<glyph unicode="1" horiz-adv-x="709" d="M95 1217q-9 23 14 32q86 35 107 42q17 5 47.5 11.5t34.5 7.5q40 9 61 8q22 0 36 -10q10 -7 13.5 -15.5t1.5 -12.5l-1 -5q2 -28 2 -43v-167v-693v-5q4 -3 16 -11q27 -19 94 -19q10 0 28 -0.5t27 -0.5q1 0 13.5 1t22.5 0t20 -4t14.5 -12t1.5 -19t-12.5 -14.5t-19.5 -1.5 h-40q-10 0 -28 0.5t-27 0.5q-84 0 -123 28q-1 1 -3 2.5t-4.5 3t-4.5 2.5q-27 -21 -49 -28q-21 -7 -68 -7q-52 0 -77 -1q-11 -1 -19.5 -0.5t-16.5 0.5t-12 -1q-10 -3 -19 2t-12 15t2.5 19t15.5 12q11 3 22 3.5t23 -0.5t15 -1q26 1 78 1q36 0 52 6q21 7 39 24l1 5v693v167 q0 8 -2 36h-1q-13 1 -49 -7q-78 -17 -79 -17q-13 -4 -102 -41q-10 -4 -19.5 0t-13.5 14z" />
<glyph unicode="2" horiz-adv-x="715" d="M59 343q-1 11 3 29q2 7 4.5 20.5t3.5 19.5q11 49 16 61q26 65 109 158q18 20 84 86q118 116 152 154q76 84 105 164q9 25 17 79q5 37 5 39q0 1 -5 36q-8 46 -16 67q-20 48 -64 80.5t-99 42.5q-30 5 -72 2q-59 -3 -99 -22q-50 -23 -69 -65q-6 -13 -17 -63q-3 -10 -7 -37 q0 -2 -1 -3t-1 -2q3 -8 0 -18t-11 -14q-9 -5 -19.5 -1.5t-14.5 12.5q-8 15 -3 36q2 10 8 38q12 52 21 73q26 58 93 89q49 22 116 27q47 4 85 -3q67 -12 121 -52t79 -102q10 -25 19 -78q6 -36 6 -43q0 -15 -5 -45q-8 -57 -20 -90q-33 -90 -115 -181q-43 -48 -154 -155 q-55 -55 -81 -84q-79 -88 -101 -144q-5 -13 -13 -52q-3 -12 -7 -36h380h17.5h20h16.5h10q7 7 19 31t28 86q1 4 3.5 17t5.5 21q3 10 12.5 14.5t19.5 1.5t14.5 -12.5t1.5 -19.5q-1 -4 -8 -35q-17 -66 -32 -96q-17 -36 -36 -51q-8 -6 -17 -8t-14 -1l-5 2h-17.5h-21h-17.5h-398 h-8.5t-15 6.5t-11.5 20.5z" />
<glyph unicode="3" horiz-adv-x="693" d="M45.5 384q-0.5 11 6.5 18t18 7.5t18 -6.5q50 -48 63 -56q12 -7 35 -16q46 -18 101 -16q45 2 54 4q60 11 113 45q89 56 123 168q9 28 14 73q0 4 3 25t3 31q0 29 -8 63q-24 108 -105 149q-44 21 -73 27q-12 0 -25 5q-1 1 -2 1q-2 0 -2 1l-71 -13l-32 -4l-19 -2 q-11 -1 -19 5.5t-9 16.5q-1 11 5.5 19t16.5 9l19 2l31 4l69 12q2 4 6 14q2 4 4.5 11.5t4.5 11.5q0 8 8 19q4 6 9.5 10.5t10.5 7.5l4 2q25 20 42 37q41 41 59 82q6 16 13 45q7 35 7 39q0 2 -1 6t-2 9.5t-2 9.5q-4 23 -16 45q-18 33 -54 53.5t-77 24.5q-13 1 -46 -1 q-49 -3 -89 -16q-50 -17 -69 -32q-28 -21 -42 -47l-17 -46q-4 -11 -12 -27.5t-10 -22.5q-9 -23 -32 -14q-10 4 -14 13.5t0 19.5q19 42 21 49q15 42 21 53q21 37 55 62q28 22 83 40q41 13 101 17q41 2 55 1q52 -5 98 -31.5t71 -71.5q16 -31 22 -59q6 -24 6 -36q0 -9 -9 -48 q-10 -44 -15 -55q-19 -46 -70 -97q-7 -7 -45 -40q-4 -3 -9 -6.5t-6 -4.5q0 -1 -2 -7q-1 -4 -5 -12.5t-5 -12.5q0 -1 -0.5 -1t-0.5 -1q35 -8 83 -32q102 -51 131 -182q9 -41 9 -75q0 -6 -6 -60q-5 -41 -17 -83q-39 -128 -143 -195q-63 -40 -131 -52q-6 -1 -61 -4 q-66 -3 -121 18q-22 8 -44 21q-21 14 -71 61q-7 7 -7.5 18z" />
<glyph unicode="4" horiz-adv-x="722" d="M33 662l3 16q4 16 6 23q2 15 9 28q2 5 11 18q4 5 10.5 15t9.5 15q30 48 44 72q108 179 204 371q36 72 60 125q13 30 16 37q7 14 8 17q3 10 12 15t19 2t15 -12t2 -19q-1 -5 -3 -9.5l-4 -9t-3 -5.5q-2 -6 -8 -18t-8 -18q-23 -52 -61 -128q-95 -188 -206 -374 q-33 -55 -45 -73q-3 -5 -9.5 -15.5t-10.5 -15.5q-4 -7 -8 -11q-2 -3 -5 -20q-2 -8 -6 -22q-2 -4 -2 -5h18h367v225q0 47 1 57q0 4 4 26q1 10 10 16.5t19 4.5t16 -10t5 -18q-1 -7 -3 -16l-2 -8v-52v-225h146q10 0 17.5 -7.5t7.5 -17.5t-7.5 -17.5t-17.5 -7.5h-146v-246 q1 -1 1 -2q15 -13 29 -19q21 -8 47 -8h43q26 0 33 -3q10 -4 14.5 -13t0.5 -19q-9 -23 -32 -15h-16q-8 0 -22 0.5t-22 0.5q-38 0 -65 11q-22 9 -36 21q-1 -1 -2 -1t-2 -1q-23 -18 -45 -24q-23 -7 -73 -7h-33h-9q-21 -8 -32 12q-5 9 -1.5 18.5t12.5 14.5q11 5 30 5h33 q42 0 58 5q15 5 30 15q2 1 4.5 4t4.5 4v1v246h-367q-18 0 -28 1q-16 -5 -29 13q-7 10 -7 17l-1 2q-1 3 -2 8t-1 10z" />
<glyph unicode="5" horiz-adv-x="729" d="M52 883.5q-2 10.5 4 18.5q29 41 50 65v2q0 10 1 18q1 11 2.5 33t2.5 33q1 15 24 208q1 10 3.5 31t4.5 32q0 23 5 34q3 6 7 10.5t6 5.5l3 1q11 11 20 14q6 2 12 2.5t9.5 0t7.5 -1.5h3q6 0 22 0.5t25 -0.5q4 0 21.5 -1.5t25.5 -1.5q21 0 58.5 -2t47.5 -2q12 0 81 2 q9 1 26.5 2t26.5 1h15q1 0 3 2l5.5 5.5t6.5 5.5q34 26 46 38q7 7 18 7t18 -7t7 -18t-7 -18q-15 -15 -51 -42l-4 -5q-4 -4 -10.5 -8t-14.5 -7t-29 -3l-54 -3q-68 -3 -84 -2q-15 0 -51 2.5t-55 2.5q-4 0 -49 3q-7 0 -22.5 -0.5t-24.5 0.5q-3 0 -6.5 0.5t-4.5 0.5l-6 -6l-2 -1 q0 -10 -1 -17q-1 -10 -3.5 -31.5t-4.5 -32.5q-1 -7 -10.5 -86t-13.5 -119q-1 -11 -2.5 -33.5t-2.5 -33.5q3 0 8 0.5t7 0.5q6 0 16.5 0.5t15.5 1.5q3 0 13.5 2.5t16.5 3.5q12 2 68 7q61 4 95 -2q61 -11 112.5 -49.5t83.5 -93.5q39 -69 49 -157q0 -2 2 -17t2 -25q0 -13 -2 -25 q0 -3 -2 -23t-4 -31q-13 -86 -43 -139q-37 -68 -99.5 -113.5t-137.5 -51.5q-63 -4 -97 2q-64 11 -130 66q-8 7 -23 21t-22 20q-19 16 -3 35q7 8 17 9.5t18 -5.5q9 -8 25 -22t21 -19q56 -47 105 -56q26 -5 85 -1q60 4 112.5 43t84.5 97q27 50 37 122q1 8 3 24.5t3 25.5 q2 18 2 20q0 9 -4 37q-10 83 -42 139q-26 45 -69.5 77t-92.5 41q-25 5 -82 1q-23 -1 -65 -7q-4 0 -14 -2.5t-17 -3.5t-19 -1.5t-15 -0.5q-5 0 -15 -0.5t-15 -1.5q-3 -2 -8 -3q-12 -15 -41 -56q-6 -8 -16.5 -9.5t-18.5 4.5t-10 16.5z" />
<glyph unicode="6" horiz-adv-x="707" d="M47 726q-2 30 5 104q3 36 9 51l2 8q2 24 5 38q16 76 51 151q44 94 116.5 172t162.5 124q102 52 237 62q11 1 18.5 -6t8.5 -17t-5.5 -17.5t-17.5 -8.5q-125 -10 -219 -57q-82 -41 -148.5 -113t-106.5 -160q-36 -77 -48 -140q-1 -6 -2.5 -18t-2.5 -16l6 -6q4 -3 11 -10 q1 1 3 1.5t3 0.5q9 3 13 3q1 1 8 7.5t14 11.5q20 13 39 24q48 26 126 34q39 5 55 4q36 -1 81 -17q66 -23 108 -68q70 -76 86 -197q5 -35 5 -47q0 -3 -3 -36q-3 -39 -10 -71q-16 -78 -49 -131q-47 -76 -128 -106q-29 -11 -76 -15q-62 -5 -113 11q-60 19 -112 67 q-73 69 -99.5 164t-32.5 219zM97 728q5 -116 30 -203t87 -146q43 -41 92 -56q38 -11 95 -8q41 4 61 11q66 25 104 87q27 43 42 115q6 32 9 64q0 4 1.5 15.5t1.5 16.5q0 10 -4 40q-14 106 -73 169q-33 36 -88 56q-34 13 -68 14q-13 1 -47 -3q-68 -7 -108 -29q-12 -6 -32 -20 q-2 -1 -10.5 -9t-16.5 -13q-4 -2 -8.5 -4t-7 -2.5l-5 -1t-3.5 -0.5l-1 -1l-4 -2t-5.5 -2.5t-7.5 -2t-10 0.5t-19 9q-6 -64 -5 -95z" />
<glyph unicode="7" horiz-adv-x="770" d="M48 1196q4 12 11.5 34t8.5 25q25 71 46 100q-12 12 -20 27q-2 5 -9 31q-2 10 4 19t16 11t18.5 -4t10.5 -16q4 -17 5 -18q4 -8 18 -22q21 1 120 1h349q2 0 4 -0.5t3 -0.5q44 25 58 35q8 6 18.5 4.5t16.5 -9.5t4.5 -18.5t-9.5 -16.5q-9 -7 -44 -27q1 -5 1 -9.5t-0.5 -7.5 t-1 -5t-0.5 -3l-1 -2q-8 -42 -8 -43l-1 -9q-1 -8 -3 -14q-3 -11 -26 -65q-9 -23 -26 -65.5l-21 -52.5q-40 -98 -199 -509q-58 -149 -73 -187q-4 -10 -19 -49q-6 -23 -13 -32q-5 -6 -11 -10t-11 -6l-5 -2q-18 -10 -28 -16q-4 -2 -8.5 -5.5t-5.5 -3.5q-8 -7 -18 -5.5t-17 9.5 q-16 19 3 35q1 1 21 13q18 10 28 16q10 5 13 7q5 13 6 17q12 34 19 51l72 186q132 340 200 509q9 22 25 63t22 56q23 56 24 60t3 17q1 8 3.5 23l3.5 21v1h-348q-98 0 -117 -1q-21 -28 -45 -95q-11 -30 -18 -55q-3 -10 -12 -15.5t-19 -2.5t-15.5 12t-2.5 19z" />
<glyph unicode="8" horiz-adv-x="716" d="M46 556q0 5 3 35q8 63 40 118q38 65 116 134q13 12 41 34q4 4 11 9l7 4v3q1 3 2.5 6t4.5 7t15 16q0 1 -0.5 3t-1.5 3q-9 7 -33 22.5t-38 25.5q-119 92 -120 200q0 18 7 51q9 48 18 69q36 81 125 120q41 17 82 21q8 1 18.5 1.5t13.5 0.5q14 2 45 -1q62 -3 108 -29 q55 -30 87.5 -83.5t35.5 -116.5q1 -7 -3 -28q0 -1 -2 -14t-4 -20q-13 -50 -60 -102q-36 -40 -86 -80q-5 -4 -14.5 -11.5t-11.5 -8.5q-2 -2 -9 -5q-4 -12 -6 -16q-6 -10 -16 -18q1 -1 1 -2.5t1 -2.5l1 -2l4 -2q7 -4 23 -14q38 -23 68 -45q123 -88 147 -197q6 -28 6 -47 q0 -9 -3 -30q-2 -20 -10 -60q-19 -100 -80 -158q-82 -78 -214 -83q-148 -7 -241 88q-50 51 -69 127q-1 6 -7 48q-2 14 -2 30zM96 555q0 -4 2 -24q5 -36 6 -41q16 -62 56 -104q76 -79 203 -74q113 5 182 71q50 47 65 130q6 29 9 57q0 4 1.5 12.5t1.5 11.5q0 14 -5 36 q-19 89 -127 167q-13 9 -66 43q-4 3 -12 7.5t-12 7.5q-7 2 -14 10q-4 4 -6 8t-2 6v2q-1 2 -2.5 4.5t-1.5 3.5h-37l-2 -1h-5h-7q-8 -6 -11 -11v-3q-1 -2 -2 -5t-3.5 -7t-6.5 -7q-5 -5 -14 -11l-9 -6q-13 -10 -39 -32q-71 -63 -106 -122q-25 -43 -33 -100q0 -3 -1.5 -13.5 t-1.5 -15.5zM143 1176q1 -84 100 -161q11 -8 35.5 -23.5t37.5 -24.5q10 -7 17 -28h4h41h4l4.5 4.5l4.5 4.5l2 1q0 9 10 21q9 11 19 16l24 18q52 41 81 74q37 40 48 81q2 9 6 31q1 5 2 10.5t1 6.5q-2 49 -28.5 91.5t-70.5 66.5q-39 21 -87 24q-27 2 -35 1t-18.5 -1.5 t-13.5 -0.5q-37 -5 -68 -18q-32 -14 -59 -39.5t-40 -55.5q-7 -17 -15 -57q-6 -32 -6 -42z" />
<glyph unicode="9" horiz-adv-x="707" d="M33 1073q0 6 3 33q7 63 11 80q24 111 83 171q58 58 129 72q3 1 50 4q48 3 87 -6q42 -11 85 -39q36 -24 66 -57q69 -77 92 -204q24 -130 13 -234q-1 -7 -1.5 -25.5t-2.5 -28.5q0 -4 -2 -10q-1 -9 -5 -13q-1 -4 -3.5 -24.5t-5.5 -33.5q-41 -170 -151 -295 q-78 -90 -169 -136q-49 -24 -105 -40q-31 -9 -93 -19q-23 -4 -31 -5l-10 -1q-10 -3 -19 2t-12 15t2 19t15 12t18 3q5 1 15 2t15 2q61 10 87 18q46 13 95 37q84 43 154 123q103 118 140 274q4 16 7 46l-16 17l-1 -1q-17 -5 -18 -5q-6 -6 -15 -13q-41 -32 -92 -49 q-29 -9 -76 -15q-43 -5 -61 -4q-79 3 -149 52q-101 71 -123 222q-6 48 -6 54zM83 1073q0 -18 5 -46q9 -59 35 -109.5t68 -79.5q58 -40 123 -43q9 -1 52 4q37 3 66 13q46 15 77 40q13 13 22 18q7 4 26 9q1 1 3 2t9.5 3.5t15.5 -0.5q6 -2 16 -8q0 7 2 21q10 102 -13 221 q-20 113 -80 179q-25 28 -58 50q-30 22 -68 31q-34 9 -72 6q-29 -2 -43 -4q-60 -12 -104 -58q-50 -51 -69 -146q-8 -40 -11 -74q-2 -22 -2 -29z" />
<glyph unicode=":" horiz-adv-x="50" />
<glyph unicode=";" horiz-adv-x="313" d="M55 68q-4 9 0 18.5t13 14.5q9 4 24 9t20 7q69 29 89 77q2 5 9 51q3 24 2 33q-2 10 -9 22q-6 10 -32.5 26.5t-42.5 31.5q-8 8 -8 18t8 17q18 17 35 0l35 -22q34 -22 48 -46q11 -21 15 -39q3 -22 -1 -48q-5 -46 -13 -64q-28 -65 -115 -103q-9 -4 -24 -9t-20 -7 q-9 -4 -18.5 0t-14.5 13z" />
<glyph unicode="&#x3c;" horiz-adv-x="846" d="M50 761q0 11 7 18t18 7h27q1 2 4 7.5t5 8.5q2 10 16 18q10 5 27 10l16 6q7 3 34.5 13t42.5 15q63 22 177 64t155 57q43 15 127 47q8 3 27.5 9t26.5 10q9 5 19.5 2t14.5 -12q5 -9 1.5 -19.5t-12.5 -14.5q-9 -5 -20 -9t-22.5 -7.5t-16.5 -5.5q-86 -32 -129 -47 q-63 -22 -177 -64t-155 -57q-10 -3 -35.5 -13t-40.5 -15q-5 -2 -16.5 -5t-15.5 -5q-1 -1 -1 -2q-2 -3 -5 -8.5t-4 -7.5l7 -12l3 -5l4 -1l566 -207l55 -20q23 -9 14 -32t-32 -14l-55 19l-565 207l-13 5q-9 4 -12 10l-8 13l-7 12h-27q-11 0 -18 7t-7 18z" />
<glyph unicode="=" horiz-adv-x="878" d="M68 620q0 10 7 17t17 7h694q11 0 18 -7t7 -17q0 -11 -7.5 -18.5t-17.5 -7.5h-694q-10 0 -17 7.5t-7 18.5zM68 870q0 11 7 18.5t17 7.5h694q10 0 17.5 -7.5t7.5 -18.5q0 -10 -7 -17t-18 -7h-694q-10 0 -17 7t-7 17z" />
<glyph unicode="&#x3e;" horiz-adv-x="846" d="M51 482q-2 10 3 19t15 11q3 1 50 18l99 36q56 20 158 57.5t140 51.5q21 7 63.5 23t63.5 23q12 4 38 14q3 1 6.5 2t4.5 1q1 3 2 4l7 14q-2 2 -4 7t-4 8l-1 1v1q-5 2 -16.5 6t-17.5 6q-12 5 -38 14t-38 13q-58 21 -173.5 63.5t-173.5 63.5q-19 7 -57 20.5t-57 20.5 q-48 17 -57 21q-9 5 -12.5 15t0.5 19q5 9 15 12.5t19 -0.5t52 -20q19 -7 57 -20.5t57 -20.5q58 -21 173.5 -63.5t173.5 -63.5l75 -27q35 -12 45 -17q7 -4 11.5 -9t5.5 -8v-3l9 -15h24q11 1 18.5 -6t8.5 -17t-5.5 -17.5t-17.5 -8.5t-28 -1q-2 -4 -8 -14q-2 -8 -13 -17 q-5 -4 -27 -11q-4 -2 -37 -14q-21 -7 -63 -22.5t-63 -23.5q-58 -21 -164 -59.5t-135 -49.5l-99 -36q-43 -16 -55 -19q-10 -2 -19 3t-11 15z" />
<glyph unicode="?" horiz-adv-x="644" d="M30 1346q-2 12 3 26q6 26 9 38q17 62 25 77q27 49 103 82q45 20 114 25q68 4 104 -4q111 -24 174 -128q29 -47 39 -115q5 -30 5 -44q-1 -18 -8 -56q-7 -48 -22 -81q-17 -40 -51 -77q-25 -28 -89.5 -85t-88.5 -93q-15 -22 -25 -57q-4 -14 -7 -31t-4.5 -29.5t-2.5 -34.5 t-1 -30v-35v-33q0 -11 -7.5 -18t-17.5 -7t-17.5 7t-7.5 18v32.5v35.5t0.5 33t2.5 37t5.5 34t8.5 36q13 44 31 70q30 45 97.5 104.5t84.5 78.5q29 32 43 65q13 30 19 68q7 42 7 50q0 6 -4 34q-8 57 -33 97q-52 85 -142 105q-31 7 -89 3q-58 -3 -99 -21q-58 -25 -79 -61 q-7 -13 -20 -64q-6 -26 -8 -35q-2 -8 -2 -9l1 -2l2 -4q5 -9 2 -19.5t-12 -14.5q-9 -5 -19.5 -1.5t-14.5 12.5q0 1 -2 4t-4 7.5t-3 9.5zM257 365v1q0 10 7 17t18 7t18 -7t7 -17v-1q0 -11 -7.5 -18t-17.5 -7t-17.5 7t-7.5 18z" />
<glyph unicode="@" horiz-adv-x="1564" d="M60 721q0 17 2 41q2 27 8 81q29 253 188 423q152 163 380 215t436 -28q185 -70 298 -214q112 -143 131 -335q4 -32 4 -52q0 -8 -3 -38q-2 -27 -10 -81q-19 -114 -63 -191q-22 -39 -55 -74q-65 -67 -167 -96q-27 -8 -83 -16q-42 -6 -86 -6q-35 0 -51 18q-10 12 -14 25 q-8 22 -9 34q-1 14 2 26q3 23 6 42q1 6 2 23t3 28q1 4 1 14h-1q-4 -2 -13 -6t-14 -7l-5 -2.5t-4 -1.5q0 -1 -2 -3.5t-3 -4.5q-4 -6 -11 -16t-8 -12q-43 -61 -87 -95q-36 -28 -67 -36q-27 -7 -60 -12q-25 -5 -41 -3q-40 4 -77 25t-59 54q-27 40 -37 99q-7 41 -8 57q-1 9 2 28 q1 8 3 24.5t3 24.5q18 131 83 229q63 95 151 145q28 16 76 33q99 32 176 -1q33 -14 58 -43l6 -8t5 -7.5t2 -4.5q1 0 2.5 -1t2.5 -1q14 -8 22 -14t10 -8q1 6 3 14q0 9 5 17q3 6 15 18l21 21q7 8 18 8t18 -8q17 -18 0 -35q-3 -3 -10 -10.5t-11 -11.5q-2 -2 -3.5 -3t-2.5 -2v-2 q-1 -2 -1 -3q-5 -22 -5 -23q1 -9 -7 -21q-5 -7 -12 -11q0 -7 -6 -52q-3 -35 -9 -70q-16 -87 -65 -238l-2 -14q-1 -9 -3 -26q-1 -8 -2 -25t-2 -26q-3 -23 -6 -42l-3 -16l7 -19l4 -10q4 -2 14 -2q27 0 79 6q47 5 77 14q88 24 143 82q28 29 48 65q42 74 58 175q6 37 9 76 q0 5 1.5 16.5t1.5 16.5q0 15 -4 49q-18 178 -120 309q-104 132 -276 197q-194 74 -408 25.5t-355 -200.5q-148 -158 -175 -394q-3 -26 -7 -78q-2 -28 -2 -37q3 -128 46 -251t122 -217q34 -41 82 -81q145 -122 356 -143q43 -5 76 -5q34 0 52 1q126 5 230 48q43 17 81 41 q44 26 58 38q21 15 35 -4q15 -21 -4 -35q-24 -19 -64 -42q-56 -32 -86 -45q-103 -43 -247 -50q-34 -2 -55 -2q-38 0 -81 5q-224 23 -383 155q-50 42 -88 87q-85 101 -131 232t-49 267zM533 599q1 -13 7 -52q8 -47 30 -79q35 -51 98 -58q6 -1 30 3q16 2 54 11q23 6 49 27 q41 32 77 85q3 5 9 13.5t9 12.5l2 3q1 3 4 7.5t7 8.5q2 2 22 12q4 2 13.5 6t14.5 7l8 4t12 5q5 4 14 4q44 138 56 208q4 23 8 65q1 5 3 23.5t3 27.5v1q-3 3 -18 15q-6 5 -17 11q-6 1 -15 10q-10 10 -17 24q-17 20 -39 29q-63 26 -141 0q-37 -12 -66 -29q-76 -43 -134 -129 q-60 -89 -76 -209q-1 -8 -2.5 -23t-2.5 -23q-2 -18 -2 -21z" />
<glyph unicode="A" horiz-adv-x="1234" d="M3 309q-1 11 4.5 19t16.5 9h26q14 0 40 2q31 3 61 12q5 1 15 5l5 8q2 8 4.5 27.5t5.5 30.5q4 18 21 62q7 19 21.5 57t21.5 57q1 2 4 10.5t4.5 12.5t5 12t6.5 13t7.5 12t9.5 12.5t11 10.5l2 3q1 6 2.5 17t2.5 17l2 17q3 17 5 27q2 9 7.5 23t6.5 17q4 11 12 32t12 32 q84 222 125 333q38 102 41 112q8 24 13 36q1 11 10 22q3 4 6.5 6.5t5.5 2.5l2 1q6 4 16 9q34 20 38 22v2l1 2v28q0 19 0.5 55t0.5 54q0 11 7 18t18 7t18 -7t7 -18q0 -18 -0.5 -54.5t-0.5 -54.5v-29l-1 -3q19 -11 23 -22q3 -7 6.5 -18t5.5 -16q7 -19 46 -128 q40 -111 143 -406q4 -12 12 -34q6 -16 8 -26q1 -8 3.5 -23.5t3.5 -21.5v-8q1 -1 4 -2t5 -3q7 -5 10.5 -11.5t3.5 -10.5v-3q9 -25 24 -69.5t21 -61.5q25 -71 26 -77q3 -15 6.5 -40.5t4.5 -32.5q0 -2 1 -7t1 -8l1 -1h1q20 -11 25 -13q51 -23 109 -28q6 -1 19.5 -1.5t20.5 -0.5 q19 0 28 -4q9 -5 12.5 -14.5t-0.5 -18.5t-13 -13t-19 0q-4 1 -11 1q-6 1 -19.5 1.5t-20.5 0.5q-67 5 -126 31q-5 2 -14 7.5t-12 6.5q-20 -22 -39 -31q-15 -8 -58 -13q-23 -3 -63 -3t-55 -1q-10 -1 -17.5 5.5t-8.5 17.5q-1 10 5.5 17.5t17.5 8.5q18 1 57 2t59 3q30 4 41 9 q15 7 31 25q-1 2 -1 6.5t-1 6.5q-1 5 -4.5 32t-6.5 39q-1 5 -24 71q-7 21 -22 63.5t-22 63.5l-6 -7q-4 -9 -19 -15q-5 -2 -10 -2.5t-7 -0.5l-3 1h-444q-37 0 -45 1q-16 2 -25 5q-11 -12 -29 -59q-7 -19 -21.5 -56.5t-21.5 -56.5q-18 -51 -19 -56q-2 -8 -4.5 -28t-5.5 -31 q0 -1 -0.5 -2.5t-0.5 -2.5q9 -4 31 -6q21 -2 63 -3t61 -2q11 -1 17.5 -8.5t5.5 -17.5t-8.5 -17t-18.5 -6q-18 1 -60 1.5t-65 2.5q-44 6 -60 18q-12 -4 -19 -6q-31 -10 -71 -13q-1 0 -18.5 -1.5t-25.5 -1.5h-20q-24 -3 -28 22zM345 685q1 0 3.5 -0.5t4.5 -0.5q11 -1 38 -1 h445l3 3l14 14v7l-6 45q0 1 -1 3.5t-2.5 6t-2.5 7.5q-8 24 -12 35q-101 291 -143 405q-9 25 -25 70.5t-20 56.5q-1 3 -5 14t-6 16h-1q-1 0 -2 1q-2 -1 -16 -9t-22 -13q-10 -6 -16 -9l-2 -6q-1 -3 -6 -15.5t-7 -19.5q-7 -19 -20.5 -57t-20.5 -57q-22 -60 -64 -171t-61 -162 q-4 -10 -12 -31.5t-12 -32.5q-7 -18 -12 -35q-3 -12 -7 -38q-1 -5 -2 -13t-2 -13z" />
<glyph unicode="B" horiz-adv-x="1042" d="M17 1550q1 10 9 16t19 5q7 -1 76 -1q93 -2 142 -38l10 11q14 14 20 17t11.5 4t7.5 0h3h24q45 0 92 -3q171 -12 249 -109q20 -25 33 -52q16 -34 22 -72q7 -51 7 -56q0 -18 -7 -51q-14 -76 -48 -125q-12 -18 -22 -29q-3 -3 -5.5 -5t-4.5 -4l-2 -1l-8 -24q-1 -1 -2.5 -5 t-1.5 -5q1 -1 2.5 -2t2.5 -2t1 -2q6 0 10 -1q24 -4 35 -6q43 -9 93 -31q119 -52 173 -162q17 -33 28 -85q4 -21 10 -65q0 -2 1.5 -8t2 -11.5t0.5 -11.5q0 -5 -0.5 -11t-2 -12t-1.5 -8q-12 -82 -43 -140q-15 -27 -34 -49q-60 -70 -147.5 -95t-202.5 -30q-12 -1 -31.5 0 t-24.5 1q-77 0 -115 2q-43 2 -63 5q-29 5 -42 11q-18 8 -29 18q-14 -11 -30 -20q-44 -22 -140 -22q-41 0 -48 -1q-24 -3 -28 22q-2 11 4.5 19t16.5 9q7 1 55 1q84 0 117 17q13 6 28 20v1115q-37 31 -118 33q-75 0 -82 1q-25 4 -22 28zM289 373q12 -12 24 -18q4 -2 30 -6 q20 -3 57 -5q38 -2 113 -2q7 0 25.5 -1t27.5 0q106 5 185.5 27.5t129.5 80.5q16 19 28 40q26 48 38 123q3 14 3 24q0 3 -1.5 12t-1.5 14q-2 22 -10 61q-8 42 -23 71q-48 94 -149 139q-43 19 -84 28q-4 1 -14 3t-16 3q-15 0 -22 2q-6 2 -10.5 5t-6.5 6l-1 2q-6 6 -8 9 q-73 -14 -114 -18q-57 -6 -200 -6v-594zM289 1017q143 0 196 5q34 4 109 18q0 2 2 5t2 5q0 1 2 7t4.5 13t6.5 13q3 5 17 19q8 8 18 23q29 43 40 105q6 32 6 44q0 4 -7 46q-7 37 -17 58t-27 43q-63 79 -213 90q-44 3 -89 3h-24h-1l-2 -2q-2 -3 -3 -4l-20 -20v-471z" />
<glyph unicode="C" horiz-adv-x="1137" d="M38 906v5q0 25 7 97q17 159 87 285q24 44 68 95q130 151 310 188q34 6 78 8q15 1 30 1q69 0 130 -12q86 -16 155 -48q10 -4 30 -14q24 -14 31 -31q3 -8 3 -15t-1 -10l-2 -3q-7 -31 -8 -36q-16 -74 -19 -85t-10 -31t-9 -30q-3 -10 -12 -15.5t-19 -2.5t-15 12t-2 19 q3 11 9.5 31t9.5 30q3 12 18 81q1 6 4 18t4 18v3l-6 3q-9 5 -27 13q-65 30 -144 44q-63 12 -122 12q-13 0 -26 -1q-42 -2 -70 -8q-80 -16 -153.5 -61.5t-129.5 -110.5q-37 -43 -61 -86q-66 -121 -81 -266q-7 -59 -7 -88v-7q3 -153 66 -285q73 -155 195 -230q54 -33 125 -52 q57 -16 127 -16q23 0 48 2q101 7 197 50q103 47 212 165q7 8 17.5 8.5t18.5 -6.5q7 -7 7.5 -17.5t-6.5 -17.5q-119 -128 -228 -178q-102 -46 -215 -54q-26 -2 -50 -2q-80 0 -142 18q-77 21 -137 57q-133 81 -214 252q-66 140 -71 304z" />
<glyph unicode="D" horiz-adv-x="1043" d="M19 304q-1 10 5.5 17.5t17.5 8.5q20 2 56 2t61 3t46 11q21 9 36 24l4 4v8v1090v7l-2 2q-13 13 -20 17q-13 8 -30.5 12.5t-28.5 5.5t-37.5 2.5t-36.5 2.5q-4 1 -15 0t-16 -1q-19 0 -28 5t-12 14.5t1 18.5t14 13t18 0l2 -1h5h9.5h12.5h12q5 0 34.5 -1.5t43 -3t37 -8 t41.5 -17.5q16 -10 21 -15q20 17 44 27q18 8 52 10q21 2 92 2h29q92 0 144 -11q74 -16 137.5 -60t105.5 -107q67 -100 96 -225q9 -39 19 -113q3 -22 7 -71q3 -51 3 -55q0 -26 -7 -94q-31 -288 -206 -431q-105 -86 -239 -103q-30 -4 -111 -4h-17.5h-20t-18.5 0.5t-21.5 2 t-19 3.5t-21.5 5.5t-20 8.5q-15 7 -28 18q-19 -17 -47 -28t-58 -14.5t-67.5 -3.5t-51.5 -1q-11 -1 -18.5 6t-8.5 17zM295 382q2 -5 2 -11q12 -11 23 -16q29 -15 116 -15q71 0 105 4q117 14 213 92q161 132 189 398q6 60 6 87q0 9 -1.5 29t-1.5 24q-5 61 -6 66q-8 60 -19 110 q-26 114 -89 207q-38 55 -93.5 94t-118.5 53q-51 11 -135 11h-27q-59 0 -87 -3q-34 -4 -38 -6q-17 -7 -36 -24l-2 -10v-1090z" />
<glyph unicode="E" horiz-adv-x="1081" d="M13 1552q2 10 11 15.5t19 3.5q4 -1 18 -1h56q73 0 123 -27q12 -6 27 -19q11 9 23 16q35 18 104 18h48h120q57 0 69 -1q52 -4 88 -11q7 -1 23 -5q9 1 19 -9q5 -4 8 -9.5t4 -9t1 -6.5l1 -3q2 -7 7.5 -21.5t6.5 -17.5q16 -44 45 -170q2 -10 -3 -19t-15 -11t-19 3t-11 15 q-27 115 -44 166q-2 7 -7 19.5t-7 18.5q0 1 -1 3t-1 3q-14 3 -17 4q-45 8 -81 11h-20h-24.5h-21.5h-120h-48q-55 0 -81 -13q-6 -3 -19 -14l-2 -11v-450h350q0 2 1 5.5t2 5.5q7 32 12 68q4 32 7 48q4 26 11 35q6 8 16.5 10t18.5 -4t10 -16.5t-4 -18.5q-1 -4 -3 -14 q-3 -15 -7 -47q-5 -39 -12 -72q0 -1 -2 -9t-4 -13l-2 -4q0 -1 2.5 -6.5t3.5 -10.5q10 -39 12 -62q1 -7 3.5 -26.5t3.5 -30.5q1 -6 2 -10.5t1 -7.5l1 -2q6 -8 4 -18.5t-10 -16.5t-18.5 -4t-16.5 10q-8 11 -12 43q-1 8 -4 27.5t-4 30.5q-3 30 -10 54l-1 2l-2 4h-349v-588 q2 -4 2 -9q13 -13 20 -16q19 -9 53 -11q11 -1 23 -1t28 0.5t25 0.5q57 0 170.5 -0.5t170.5 -0.5q60 0 117 12q18 4 28 6h2q0 1 2 7q3 8 8 22t8 21q12 34 31 103.5t21 77.5q3 10 12 15t19 2t15.5 -12t2.5 -19q-46 -163 -54 -184q-5 -15 -17 -45q0 -14 -15 -27q-6 -5 -11.5 -7 t-8.5 -2h-2q-5 -1 -15 -4t-16 -4q-63 -12 -127 -12q-57 0 -170.5 0.5t-170.5 0.5q-66 0 -80 1q-44 2 -70 15q-12 6 -26 18q-22 -17 -28 -20q-18 -10 -41.5 -16t-35 -7t-42.5 -2t-34 -1q-10 -1 -17.5 -0.5t-14 0.5t-9.5 -1q-10 -2 -19.5 3t-11.5 15t3 19t15 11q10 3 19.5 3.5 t19.5 -0.5t12 -1q5 0 21 0.5t21.5 1t18.5 1.5t20 2t17 3.5t18 5.5t16 7q13 8 25 19l2 2v7v1088v8q-1 2 -2 3q-10 11 -24 18q-39 21 -99 21h-58q-15 0 -27 2q-10 2 -15.5 11t-3.5 19z" />
<glyph unicode="F" horiz-adv-x="965" d="M13 1553q4 25 28 22q2 0 79 -3q40 0 67 -10q24 -9 46 -29l4 -4q1 1 3 3.5t3 3.5l2 2q2 3 4 5.5t6 6t9 5.5q6 3 12 4t8 0l3 -1h441h73q22 -2 55 -12q4 -1 13 -3.5t13 -4.5q9 -1 20 -11q7 -6 10.5 -13.5t3.5 -11.5v-5q4 -11 9 -31l6 -24q10 -40 27 -130q13 -72 14 -89 q1 -11 -6 -18.5t-17 -8.5t-17.5 5.5t-8.5 17.5q0 3 -14 83q-16 86 -27 127l-6.5 26t-7.5 27q-1 2 -2 4.5t-1 3.5q-4 1 -11.5 4.5t-11.5 4.5q-28 9 -46 10q-4 1 -32.5 0t-35.5 -1h-442l-1 1l-2 -3l-3 -3q-2 -3 -8 -9t-8 -9l-2 -12v-451h351q1 1 1 4.5t1 4.5q7 31 12 69 q2 16 8 48q4 25 8 32q13 22 34 10q22 -13 10 -34l-3 -15q-3 -14 -7 -49q-3 -22 -13 -71q-1 -3 -3 -11t-3 -11v-2v-2q4 -12 6 -19q5 -18 11 -59q3 -17 7 -58q3 -17 4 -20q6 -8 4 -18.5t-9.5 -16.5t-18 -4t-16.5 10q-10 14 -13 43q-2 19 -8 57q-3 28 -9 53l-3 9h-351v-584 q2 -5 2 -12q21 -21 37 -29q13 -6 40 -8q13 -1 45 -1t51 -2q11 -1 17.5 -8.5t5.5 -17.5t-8.5 -17t-18.5 -6q-15 1 -47 1.5t-49 1.5q-37 2 -57 11q-17 8 -43 32l-6 -6q-23 -21 -47 -30q-25 -9 -92 -9h-28q-16 0 -19 -1q-10 -2 -19 3t-11 15t3 19t15 11q13 3 31 3h28q58 0 74 6 q11 4 32 21q12 10 15 13q0 1 -0.5 4.5t-0.5 5.5v1086q0 2 0.5 4.5t0.5 3.5l-14 14q-13 12 -29 19q-20 7 -51 7q-1 0 -34 0.5t-51 2.5q-11 1 -17 9.5t-4 18.5z" />
<glyph unicode="G" horiz-adv-x="1179" d="M33 926q9 136 37 229q32 105 97.5 192.5t155.5 147.5t200 80q27 5 85 9q22 1 44 1q131 0 255 -50q11 -5 94 -46q4 -2 12.5 -6t12.5 -6q9 0 21 -12q4 -4 7.5 -9.5t4.5 -9t1 -6.5l1 -3q10 -28 15 -43q26 -80 45 -162q2 -10 -3 -19t-15 -11t-19 3.5t-11 15.5q-15 66 -45 158 q-2 7 -7.5 21t-7.5 21q-1 1 -1 3.5t-1 4.5l-4 2q-6 2 -15.5 7t-12.5 6l-90 45q-118 48 -236 48l-42 -2q-53 -4 -79 -9q-99 -19 -181 -73q-83 -56 -143.5 -136.5t-89.5 -176.5q-26 -88 -35 -218q-1 -25 2 -58q8 -82 31 -145q52 -146 156 -246q37 -37 97 -73q131 -79 277 -79 h17q120 4 188 23q43 13 59 20q3 1 10.5 5t15.5 7t16 5q36 8 53 13q3 0 7 2t7 2l16 3v404q-6 6 -22 16q-31 19 -93 19q-5 0 -12 0.5t-9.5 0.5h-6.5q-10 -2 -19 4.5t-10 16.5t5 18t16 10h36q74 0 119 -27q30 -16 41 -33q4 -6 5 -12t1 -9l-1 -3v-416v-23q0 -5 -1 -13l-1 -15 q0 -27 -1 -40q-2 -44 -4 -64q-4 -54 -7 -81q-16 -156 -65 -258q-39 -85 -105 -116q-33 -15 -83 -19q-10 -1 -19 -1q-45 0 -78 17q-20 10 -34.5 27t-26 35.5t-17.5 24.5q-7 7 -6.5 18t7.5 18t17.5 6.5t17.5 -7.5q14 -14 33 -42.5t32 -35.5q20 -11 51 -11q9 0 19 1q43 4 65 14 q50 24 82 92q46 97 60 243q6 56 8 79q0 2 1 26.5t2 37.5q1 12 1 37v3l-5 5q-2 0 -5 -0.5t-5 -1.5q-43 -11 -55 -14q-4 -1 -15.5 -6.5t-18.5 -8.5q-19 -8 -64 -21q-75 -21 -200 -25h-18q-161 0 -304 87q-61 36 -105 79q-115 110 -169 265q-26 74 -34 157q-3 29 -3 49 q0 10 1 18z" />
<glyph unicode="H" horiz-adv-x="1352" d="M18 295q-3 10 2.5 19t15.5 12t34 3h43q93 2 131 41v583v15v368q0 14 -0.5 41t-0.5 40v24v1q-13 9 -24 15q-22 12 -38 13q-4 0 -52 -2q-6 0 -17.5 -0.5t-16.5 -1.5h-7q-9 -2 -18 3t-12 14q-3 10 2 19t15 12l14 2q14 2 38 2q47 3 58 2q29 -3 58 -18q11 -6 29 -19 q12 -3 19 -20q2 -5 2 -20v-26q0 -13 0.5 -40t0.5 -41v-348h699q34 0 46 1h19v419q0 38 1 47q1 11 6 18t9 9l5 1q13 10 30 19q34 18 68 19q5 0 48 -3q24 0 37 -2q6 0 14 -2q10 -3 15 -12t2 -19q-7 -22 -29 -17h-7q-5 1 -17 1.5t-18 0.5t-21 1.5t-22 1.5q-22 0 -46 -13 q-12 -7 -25 -16v-34v-434q4 -5 0 -15v-589q0 -20 46 -30.5t79 -10.5h46q29 0 37 -2q10 -2 15 -11t3 -19t-11 -15.5t-19 -3.5q-4 1 -25 1q-8 0 -24 0.5t-23 0.5q-99 2 -149 44q-10 -8 -16 -12q-45 -29 -137 -33h-46q-16 0 -20 -1q-10 -3 -19 2t-12 15t2 19t15 12t34 3h44 q78 4 113 26q9 6 17 14v1v569h-13q-9 -1 -52 -1h-699v-568l1 -1q18 -16 24 -19q36 -19 99 -21h40.5t43.5 -2q10 -2 16 -10t5 -18q-2 -10 -10 -16.5t-18 -5.5q-3 0 -78 3q-77 2 -122 26q-12 6 -26 18q-51 -43 -155 -45h-44q-17 0 -21 -1q-10 -3 -19 2t-12 15z" />
<glyph unicode="I" horiz-adv-x="540" d="M18 306q-1 10 5.5 17.5t17.5 8.5q19 2 56 2.5t62 3t46 11.5t35 23l2 1l2 2q0 1 -0.5 4t-0.5 5v1082q0 3 0.5 6.5t0.5 5.5l-12 12q-24 24 -37 27q-10 2 -37 2q-23 0 -33 5q-9 4 -12 14t1 19q10 21 32 12h12q30 0 47 -3q27 -6 62 -40l1 -1q7 7 21 19q15 15 28 20q18 6 43 6 t27 1q10 2 18.5 -4t10.5 -16t-4 -19t-16 -11q-16 -3 -37 -2.5t-24 -1.5t-14 -11q-9 -8 -26 -25q0 -3 -0.5 -5.5t-0.5 -4.5v-3l-1 -2v-1081q3 -6 3 -13q11 -11 20 -16q30 -18 111 -22h24t27 -1q21 0 29 -3q23 -9 14 -32t-32 -15q-3 1 -13 1q-7 0 -24 -0.5t-27 0.5 q-32 2 -46 3t-41.5 7.5t-47.5 18.5q-16 10 -22 16q-19 -16 -45 -26q-28 -12 -58.5 -15.5t-68.5 -3.5t-52 -1q-10 -1 -17.5 5.5t-8.5 17.5z" />
<glyph unicode="J" horiz-adv-x="919" d="M-5 608q-2 10 4 19t16 11t19 -4t11 -16q20 -104 44 -185q12 -39 15 -46q0 -1 1 -2.5t1 -2.5q2 -1 8 -2.5t8 -2.5q6 -2 32 -9.5t40 -12.5q49 -17 94 -23q18 -2 58 -4q13 -1 26 -1q44 0 83 8q101 20 156 89q17 21 25 36q21 39 34 127q11 73 11 244v648q-14 11 -42 21 q-47 18 -97 21q-13 1 -46.5 0.5t-50.5 1.5q-10 1 -17 8.5t-6 18.5t8.5 17.5t17.5 5.5q14 -1 46.5 -1t50.5 -1q63 -5 112 -24q29 -11 47 -23q12 10 19 15q39 26 120 32q12 1 36.5 0.5t29.5 1.5q10 2 19 -3.5t11 -15.5t-3.5 -19t-15.5 -11q-13 -3 -26.5 -3.5t-27.5 0t-20 0.5 q-64 -4 -95 -24q-12 -8 -20 -16v-650q0 -174 -11 -252q-13 -90 -40 -141q-15 -28 -30 -46q-65 -82 -185 -106q-41 -8 -90 -8q-15 0 -31 1q-1 0 -25 0.5t-37 2.5q-47 5 -106 26q-12 5 -36 11.5t-33 9.5q-4 1 -11 3.5t-9 3.5q-8 0 -17 8q-7 6 -10 12.5t-3 9.5v4q-6 17 -16 49 q-28 93 -46 189z" />
<glyph unicode="K" horiz-adv-x="1305" d="M18 302q-2 10 4 18.5t16 10.5q6 1 28 1q8 0 22 0.5t21 0.5q63 2 101 18q17 7 31 21l1 1l2 2v3q-1 3 -1 5v49v186q0 101 -0.5 303t-0.5 303v168q0 7 -0.5 22.5t-0.5 23.5v8q-14 10 -23 15q-26 13 -41 14q-6 0 -13.5 -0.5t-17.5 -1.5t-17 -1q-5 0 -21.5 -0.5t-23.5 -1.5 q-10 -2 -18 4t-10 17t4 19t17 9t28.5 2t20.5 1q45 3 56 2q26 -2 59 -19q19 -10 30 -19q8 0 17 -16q3 -5 3.5 -10t0.5 -7l-1 -2v-13q0 -7 0.5 -22.5t0.5 -23.5v-168q0 -76 0.5 -229t-0.5 -229q1 1 3 1q1 0 1.5 0.5t1.5 0.5l39 15q4 1 11 4t10 4l3 1l4 6q7 8 21 26 q40 52 60 77q3 4 9 11.5t9 11.5q12 16 16 20q7 7 32 15l39 15q0 2 0.5 4t0.5 3q1 10 9 35q1 4 3.5 13.5t4.5 14.5q0 1 0.5 3.5t2 6.5t3.5 8q3 6 22 29q7 8 20 25t18 23l81 102q39 48 43 57l8 26l5.5 16.5t4.5 14.5q-9 5 -22 6q-18 3 -55 3.5t-52 1.5q-11 1 -17.5 8.5 t-5.5 17.5q1 11 8.5 17.5t17.5 5.5q11 -1 50 -1t62 -4q24 -4 40 -12q1 0 8 -5l9 3q25 7 43 11q26 5 61 7h29q5 0 14 1q10 1 17.5 -5.5t8.5 -17.5q1 -10 -5.5 -17.5t-17.5 -8.5h-2q-2 -1 -5.5 -1.5t-7.5 -0.5h-11.5h-10.5h-7q-36 -2 -54 -6q-26 -6 -38 -10h-1q-1 -1 -3 -2 l-4 -2q-2 -6 -6 -17.5t-6 -17.5q-9 -30 -11 -35q-11 -21 -48 -65l-81 -102q-6 -8 -18.5 -23.5t-19.5 -23.5q-3 -4 -7 -8.5t-6.5 -7.5t-3.5 -4q0 -5 -2 -10q-1 -4 -3.5 -13.5t-3.5 -14.5t-3.5 -10.5t-3.5 -8.5t-1 -4q0 -3 -0.5 -7t-0.5 -5q1 -1 4 -4.5t5 -5.5l30 -36 q20 -24 61 -73.5t61 -74.5q18 -21 65.5 -79.5t73.5 -90.5q3 -4 31 -37t42 -51q11 -13 25 -31q32 -42 46 -80q2 -5 3.5 -10t3.5 -11l3 -9h2q2 -1 4.5 -2t3.5 -1q5 -2 13.5 -5t15.5 -5t13 -4q60 -18 102 -25q10 -2 32.5 -2.5t31.5 -1.5l14 -3q10 -2 16.5 -10t5.5 -18 q-2 -10 -10 -16.5t-18 -5.5l-13 3q-7 1 -29.5 1.5t-37.5 2.5q-46 7 -108 27q-24 7 -45 15q-22 7 -28 12q-7 5 -10 11t-3 9v4l-9 27q-13 33 -38 66q-4 5 -12.5 15.5t-12.5 14.5q-12 14 -36 44t-36 44q-132 160 -140 170q-6 8 -52 64t-70 85l-30 36q-1 0 -2 1l-39 -15 q-5 -2 -11 -4l-6 -1q-1 -1 -9 -13q-3 -4 -9.5 -12t-9.5 -12q-20 -26 -60 -76l-8 -11q-8 -11 -13 -16l-2 -2q-1 -2 -3.5 -5.5t-5.5 -6.5q-4 -4 -8 -6t-7 -2h-2q-4 -1 -10.5 -3.5t-9.5 -4.5q-6 -3 -19.5 -8.5t-20.5 -7.5q-12 -6 -24 -9v-94v-186v-49q3 -4 4 -10q12 -12 18 -16 q30 -19 95 -23q17 -1 53 -1q31 0 41 -3t15.5 -12t2.5 -19t-12 -15t-19 -2q-5 1 -28 1q-37 0 -55 1q-78 4 -120 31q-14 10 -19 15q-18 -16 -38 -25q-45 -20 -120 -22h-43q-17 0 -20 -1q-10 -2 -18.5 4t-10.5 16z" />
<glyph unicode="L" horiz-adv-x="927" d="M18.5 1543q-2.5 10 2.5 19q11 19 32 10h11h43q99 0 148 -33q9 -6 17 -12q15 13 27 19q46 24 128 26h31.5t37.5 2q10 1 18 -5t10 -16q1 -10 -5 -18t-16 -10q-8 -2 -39 -2h-35q-71 -2 -106 -21q-12 -7 -25 -18l-2 -10v-1092v-7q2 -2 6.5 -4t6.5 -3q21 -12 85 -16 q14 -1 39 -1.5t42 -0.5q37 -1 219 0h37q28 3 49 12q3 1 9 3.5t9 3.5q0 1 1 3.5t2 4.5q9 31 14 53q19 81 29 140q11 67 11 70q1 10 8.5 17t18.5 6t17.5 -8.5t5.5 -17.5q-1 -11 -12 -75q-9 -55 -30 -144q-5 -23 -15 -55q2 -17 -14 -32q-4 -4 -8.5 -6.5t-6.5 -2.5h-2 q-4 -1 -11 -3.5t-10 -3.5q-38 -12 -60 -14q-15 -1 -42 -1q-147 0 -221 2q-11 0 -40 -0.5t-43 0.5q-3 0 -15.5 0.5t-18 1t-17 2t-19 3.5t-17.5 6t-19 9q-2 1 -6 3.5t-6 3.5q-24 -22 -45 -31q-12 -5 -25 -8.5t-28.5 -4.5t-24 -1.5t-27 0t-22.5 0.5q-35 0 -44 -2 q-10 -3 -19 2.5t-12 15.5t2.5 19t15.5 12q11 3 57 3q81 0 108 11q15 6 37 26l1 9v1092q0 2 0.5 4.5t0.5 3.5q-9 8 -19 16q-35 24 -121 24h-43q-23 0 -34 6q-9 5 -11.5 15z" />
<glyph unicode="M" horiz-adv-x="1486" d="M19 297q-3 10 1.5 19t14.5 12q13 4 57 4q38 0 65 8q15 5 17 6v1q2 21 3 45q1 15 1 186v766q0 23 2 28t4.5 9.5t5.5 7.5t5 4.5t4 2.5l2 2l29 29l-9 53q-1 4 -1 10l-2 2q-3 2 -5 4q-17 14 -36 20q-13 4 -46 6q-13 1 -40.5 1.5t-41.5 0.5q-11 1 -18 8.5t-6 17.5 q1 11 8.5 17.5t17.5 5.5q13 -1 40.5 -1h42.5q37 -2 58 -8q27 -8 53 -29q12 -8 19 -20t7 -26l9 -55q8 -4 22 -12q10 -2 19 -15q3 -5 5.5 -10t3.5 -9.5t2 -5.5q3 -7 8.5 -21t8.5 -21q48 -122 52 -131l165 -411q20 -50 101 -251q7 -18 23 -54l4 2q8 4 22.5 12.5t20.5 11.5 q3 2 6 3t5 2l2 1q1 2 16 34l26 61q14 33 42 98.5t42 98.5q32 73 89.5 208.5t77.5 183.5q34 78 50 117q3 6 8 18.5t8 19.5q5 16 12 24q4 6 9.5 10t9 5.5t6.5 2.5l4 1q5 3 14.5 8.5t17.5 10t16 8.5l12 6v4t1 4q8 44 11 57q-3 21 17 36q40 29 101 31q15 1 26.5 0.5t23.5 -0.5 t20 2q10 2 19 -3.5t11 -15.5t-3.5 -19t-15.5 -11q-8 -4 -43 -3t-37 1q-40 -2 -69 -20l-2 -10q-2 -9 -4.5 -27t-4.5 -27q-2 -8 -3 -13q1 -4 1.5 -7.5t0.5 -6.5t-0.5 -5t-1.5 -3v-2v-230v-294t1 -294v-164v-46q1 -2 2 -5q8 -7 13 -9q29 -18 61 -23q19 -3 62 -3q37 0 50 -4 q10 -3 14.5 -12.5t1.5 -19.5t-12.5 -14.5t-19.5 -1.5q-7 2 -34 2q-52 0 -70 3q-36 5 -79 30q-2 2 -6 4.5t-6 3.5q-3 -2 -8.5 -5.5t-8.5 -5.5q-47 -29 -92 -30h-45h-8.5h-5.5l-2 -1q-10 -4 -19 0.5t-13 14.5q-9 23 14 32q8 3 34 3q29 0 42 1q35 1 68 22l7 4q7 5 11 8v2 q-1 3 -1 4v46v164q0 98 -0.5 294t-0.5 294v210q-6 -3 -17.5 -9.5t-17.5 -9.5q-3 -1 -7 -3l-6 -3q-2 -4 -5 -13q-3 -8 -9 -22t-7 -16q-9 -20 -25.5 -59t-24.5 -58q-28 -65 -83.5 -195.5t-83.5 -195.5l-84 -198l-26 -61q-16 -35 -20 -41t-9 -10.5t-9 -6.5t-8.5 -4t-5.5 -3 q-8 -4 -24.5 -13t-18.5 -10q-7 -5 -8 -5l-1 -139q0 -11 -7 -18t-18 -7q-10 0 -17.5 7.5t-7.5 18.5l1 138q-14 13 -14 23l-24 60q-20 50 -101 251l-165 411q-36 86 -53 130q-3 7 -8.5 21t-8.5 21q-2 6 -4 14q-2 0 -3 1q-6 3 -16 9l-25 -25q-2 -2 -5.5 -4.5t-4.5 -3.5 q0 -1 0.5 -4.5t0.5 -5.5v-766q0 -157 -2 -189q-1 -7 -1.5 -22t-0.5 -23q26 -11 53 -12q7 0 24 0.5t27 -0.5q24 -3 33 -7q4 -2 8 -4.5t6.5 -5t3.5 -2.5q8 -6 9.5 -17t-4.5 -19t-17 -9t-19 5q-2 1 -3.5 3t-2.5 3l-2 1q-1 0 -16 2h-23.5t-25.5 1q-41 1 -77 18q-16 -6 -28 -10 q-30 -9 -78 -9q-39 0 -42 -1q-10 -3 -19 1.5t-12 14.5z" />
<glyph unicode="N" horiz-adv-x="1268" d="M9 305q0 11 7 18.5t17 7.5q1 0 3.5 0.5t7.5 1t10 0.5q91 2 117 8q11 2 40 15l1 3v46v169v690q0 13 2 41q0 21 6 33q2 4 17 19l16 16q-1 4 -3 10t-3 10q-15 52 -22 89q-2 10 4 19t16 11t18.5 -4t10.5 -16q3 -15 22 -85q1 -3 2 -8t2 -9t2 -7q2 -1 4 -1t4 -1q3 -1 15 -6.5 t18 -7.5q1 -1 5 -2t9 -3.5t10 -5.5q7 -4 11.5 -10l7.5 -10l2 -5q22 -29 42 -57q47 -67 143 -201l246 -345q62 -86 93 -130q24 -32 29 -39q12 -18 13 -19l2 -1q3 -1 8 -2.5t9 -3.5q6 -2 16.5 -7t15.5 -7l19 19l2 2l2 1q3 13 3 53q0 15 0.5 44.5t0.5 43.5v817l-9 3 q-22 9 -45 14q-19 4 -61 4.5t-65 3.5q-10 2 -16 10t-5 18q2 10 10 16t18 5q15 -2 58.5 -2.5t69.5 -5.5q30 -6 55 -16l14 -7q10 4 14 6q23 10 54 17q23 5 80 5q30 0 40 2t18.5 -3.5t10.5 -15.5t-3.5 -19t-15.5 -11q-14 -3 -50 -3q-53 0 -70 -4q-22 -4 -45 -14q-3 -1 -7 -3 v-817q0 -15 -0.5 -45t-0.5 -44q0 -49 -6 -68q-3 -11 -15 -23l-20 -19q-1 -1 5 -20q20 -73 22 -86q3 -24 -22 -28q-24 -3 -28 22q-1 12 -20 79q-1 4 -3 10.5t-3 9.5q-8 3 -23 10l-14 7q-1 1 -6 2.5t-11 4t-12 6.5q-10 7 -25 30q-24 32 -29 39q-16 23 -47.5 66.5t-45.5 63.5 q-41 57 -123 172.5t-123 173.5q-21 30 -69.5 96.5t-73.5 103.5q-26 38 -40 55q-6 7 -10 15l-2 1q-2 1 -5.5 2t-6.5 2q-6 3 -17.5 7.5t-17.5 6.5q-2 0 -5 1l-13 -13l-7 -7q0 -1 -1 -5t-1 -8q-1 -13 -1 -38v-690v-169v-47v-2q15 -7 25 -10q19 -6 41 -8.5t54 -3.5t48 -2 q11 -1 17.5 -8.5t5.5 -17.5t-8.5 -17t-18.5 -6q-14 1 -45 1.5t-57.5 3t-51.5 10.5q-26 9 -35 14h-2q-32 -14 -52 -19q-16 -4 -34 -6t-30.5 -2.5t-33 -0.5h-29.5q-1 0 -3.5 -1t-7.5 -1.5t-10 -0.5q-11 0 -18.5 7t-7.5 17z" />
<glyph unicode="O" horiz-adv-x="1223" d="M38 932q0 18 2 40q3 46 9 88q21 163 97 283q50 80 128 139.5t168 87.5q63 20 101 24q9 1 25.5 2t23.5 2q5 2 22 0.5t18 -1.5q44 -2 68 -5q143 -21 256.5 -118t170.5 -235q42 -105 53 -222q6 -54 6 -81v-7q-9 -196 -111.5 -367t-276.5 -241q-50 -20 -110 -28 q-36 -5 -74 -5q-50 0 -100 9q-148 28 -260 136q-41 39 -90 109q-99 142 -120 322q-6 59 -6 68zM88 933q0 -22 5 -64q19 -165 112 -298q48 -68 83 -102q99 -98 235 -123q48 -8 94 -8q33 0 65 4q45 5 98 26q158 64 253 222t103 341v5q0 20 -6 77q-11 114 -49 208 q-52 126 -155.5 214t-232.5 107q-30 4 -64 6q-19 2 -30 0q-9 -1 -25.5 -2t-23.5 -2q-48 -6 -93 -21q-82 -26 -152.5 -80t-115.5 -126q-70 -113 -91 -264q-4 -28 -8 -84q-2 -28 -2 -36z" />
<glyph unicode="P" horiz-adv-x="926" d="M18 305q-2 11 4.5 19t16.5 9q9 2 44 2h40q48 2 84 16q21 8 34 20l5 5q0 1 -0.5 3.5t-0.5 4.5v236q0 106 -0.5 318t-0.5 318v216q0 2 0.5 4t0.5 3q-1 2 -4 4t-7 5t-6 5q-36 27 -131 27q-53 0 -59 1q-10 2 -16 11t-4 19t10.5 16t18.5 4q7 -1 50 -1q36 0 55 -1t51 -9.5 t55 -26.5q1 -1 3.5 -2.5t4.5 -3t4 -2.5q17 15 32 22q23 11 74 13q66 4 98 4q62 0 93.5 -1.5t86.5 -9.5t97.5 -30t76.5 -57q39 -42 57 -94q6 -18 12 -54q6 -39 6 -48q0 -22 -9 -65q-15 -79 -62 -131q-64 -70 -187 -96q-55 -11 -175 -11h-176v-347v-236q2 -4 3 -10 q16 -14 20 -16q32 -19 111 -23q8 -1 25 -1h27q22 0 29 -3q10 -4 14 -13.5t0 -19.5q-4 -9 -13.5 -13.5t-19.5 -0.5h-1q-1 0 -2.5 0.5t-4 0.5h-5.5q-8 0 -25 -0.5t-27 0.5q-91 4 -134 30q-7 4 -21 16q-22 -17 -44 -27q-40 -17 -101 -19h-36.5t-42.5 -2q-24 -3 -28 22z M294 1256q0 -40 0.5 -119.5t-0.5 -119.5h176q118 0 166 10q107 21 159 80q37 41 50 108q8 40 8 56q0 14 -5 39q-7 38 -10 47q-13 40 -46 75q-36 37 -94 56.5t-103 22.5t-121 3q-48 0 -95 -3q-41 -4 -56 -10q-13 -6 -27 -20l-2 -10v-215z" />
<glyph unicode="Q" horiz-adv-x="1173" d="M38 895v5q0 18 5 72q10 97 24 155q57 224 205 342q73 59 157 85q57 18 127 21q16 1 31 1q74 0 144 -20q123 -35 217 -123q123 -114 175 -319q14 -54 23 -143q0 -4 2 -21t2 -27q0 -7 -6 -79q-8 -80 -23 -144q-28 -120 -94 -219t-167 -161q-59 -37 -136 -53q-18 -3 -45 -7 q-5 -1 -11 -1l-4 -4l-22 -22l4 -7q2 -3 4 -7l1 -4q6 -2 16 -7q40 -20 61 -28q46 -16 68 -21q18 -4 21 -4q1 0 3 0.5t6 1t8 0.5q13 1 39 5q80 14 124 44q19 14 44 39q18 18 35 1q18 -18 1 -35q-26 -28 -52 -46q-54 -37 -144 -52l-42 -6q-15 -3 -26 -2q-15 1 -28 5 q-31 7 -74 24q-35 12 -67 29q-24 12 -29 17q-10 11 -14 23l-6 12q-7 1 -12 3q-25 4 -51 12q-137 37 -267 157q-103 95 -161 222q-60 131 -66 286zM88 898q6 -146 62 -268q53 -118 149 -207q119 -111 246 -145q34 -9 48 -11q2 0 5 -0.5t5 -1.5l3 2l23 23q5 10 20 16q7 3 24 3 q28 4 41 7q66 14 120 47q91 55 151.5 146.5t86.5 202.5q13 54 22 137q6 52 6 74q0 7 -2 22t-2 21q-7 78 -21 135q-47 189 -161 296q-87 81 -197 111q-65 17 -137 17h-22q-69 -3 -114 -18q-72 -23 -141 -77q-134 -107 -187 -316q-16 -62 -24 -147q-4 -47 -4 -64v-5z" />
<glyph unicode="R" horiz-adv-x="1221" d="M18 300q-3 10 2.5 19t15.5 12q12 3 36 3h49q85 2 123 41v6v1102q-1 3 -2 7q-23 21 -38 27q-14 5 -49 5h-21q-50 -2 -62 -5q-10 -2 -19 3t-11 15t3 19t15 11q16 4 71 7q14 1 26 0q44 0 65 -8q24 -10 44 -28l18 18q10 15 24 22q10 5 27 5q24 2 37 3q77 5 123 5h15t31 -0.5 t38 -1.5q96 -8 165 -45q99 -52 140 -165q10 -28 18 -73q9 -49 8 -63q0 -8 -3 -29q-3 -28 -9 -56q-29 -123 -122 -201q-28 -23 -70 -44q-11 -5 -23 -10l-4 -1l-1 -2l-12 -18q-2 -2 -5 -7t-5 -8q2 -9 6 -25q2 -2 4 -5l15 -21q16 -22 46 -64q23 -31 74.5 -103.5t79.5 -110.5 q13 -17 37 -51q23 -33 30 -48q4 -9 7.5 -23t3.5 -15l5 -15l4 -2l27 -9q48 -16 101 -28q29 -6 61 -9q29 0 39 -4q22 -9 13 -33q-4 -9 -13.5 -13t-19.5 0q-8 0 -23 1q-46 4 -68 9q-49 11 -105 29q-20 6 -29 10l-2 1q-3 -3 -9 -9.5t-10 -10.5q-16 -16 -22 -19q-11 -6 -44 -9 q-20 -2 -59 -2q-19 0 -22 -1q-10 -2 -19 3.5t-11 15.5t3 19t15 11q7 2 34 2q47 0 55 1q16 1 25 5l10 10l20 20q0 1 -1.5 6t-2.5 8q-2 5 -3.5 12t-3 11.5l-2.5 7.5q-3 7 -25 38q-4 6 -11.5 16.5t-13.5 19t-11 15.5q-29 39 -80 111.5t-74 103.5q-16 22 -46 64q-2 3 -7.5 10 t-8.5 11q-7 7 -10 19q-1 5 -3.5 13.5t-3.5 12.5q-25 8 -31 9q-9 1 -102 4q-60 1 -181 1v-484q2 -4 2 -9q12 -12 22 -17q30 -17 110 -21h24.5t27.5 -1q21 0 31 -5q9 -5 12 -14.5t-1 -18.5q-11 -22 -33 -12l-2 1h-5h-6q-7 0 -24 -0.5t-27 0.5q-31 2 -44.5 3t-40 7t-46.5 18 q-11 6 -25 18q-51 -44 -148 -46h-49q-20 0 -23 -1q-10 -3 -19 2t-12 15zM294 915q122 0 183 -1q19 -1 34.5 -0.5t36 0.5t37.5 -4q15 -2 34 -10l6 9q2 3 11 16q1 7 11 15q4 4 9 6t8 2h2q7 2 19 8q36 18 59 37q80 66 105 174q4 15 8 51q0 4 1.5 13t1.5 12q0 6 -7 53 q-6 36 -16 64q-36 96 -116 138q-60 31 -147 39q-11 1 -35 1.5t-31 0.5h-19q-48 0 -113 -4q-5 0 -17.5 -1.5t-18.5 -2.5h-10q-1 -1 -4 -5t-5 -6q-5 -6 -14.5 -15.5t-12.5 -13.5v-8v-568z" />
<glyph unicode="S" horiz-adv-x="809" d="M34 296q0 10 8 18q12 12 18 16l3 2l1 6q1 7 3 12q10 31 35 53q1 2 2 3q-1 3 -2.5 9t-1.5 8q-3 17 -6 36q-8 55 -11 100q-1 14 0 37.5t1 29.5q0 11 7.5 18.5t17.5 7.5t17.5 -7.5t7.5 -18.5q0 -8 -1 -30.5t0 -33.5q1 -40 10 -96q1 -5 3.5 -16.5t3.5 -17.5q2 -12 3 -17 q5 -2 13.5 -5.5t11.5 -4.5l10.5 -3.5t14.5 -5t13 -6.5q9 -5 36.5 -21t41.5 -22q40 -16 106 -21q15 -1 29 -1q43 0 83 11q61 18 109 63q48 43 70 108q6 18 14 60q6 31 9 64q0 5 1.5 13.5t1.5 11.5q0 4 -1 9t-2 11.5t-2 11.5q-11 60 -34 95q-22 32 -56 60q-23 20 -58 38.5 t-54 26t-69 27.5q-139 55 -213 110q-94 69 -119 163q-8 30 -8 52q0 14 5 47q5 45 15 76q10 38 32 72q19 30 45 54q46 43 104 64q41 15 93 18q34 3 45 2q69 -3 136 -31q39 -16 69 -34q6 -4 16 -10q6 0 16 -11q5 -6 7 -12t2 -9v-3q2 -8 4 -21.5t2 -15.5q12 -74 12 -149 q0 -11 -7 -18t-18 -7t-18 7t-7 18q0 78 -11 141q-2 12 -6 34v3q-12 6 -17 9q-36 20 -64 32q-60 25 -118 28q-9 0 -39 -2q-47 -3 -79 -15q-50 -19 -88 -55q-23 -21 -37 -44q-17 -27 -26 -58q-8 -26 -13 -70q-5 -38 -5 -39q0 -15 7 -39q21 -78 100 -137q72 -54 201 -104 q139 -53 195 -100q44 -36 66 -70q32 -48 42 -114q5 -27 5 -41q0 -10 -3 -31q-2 -21 -10 -66q-9 -46 -16 -67q-24 -74 -83 -130q-59 -54 -129 -74q-44 -12 -97 -12q-16 0 -33 1q-78 6 -121 23q-19 8 -48 25.5t-35 20.5l-31 12l-24 9q-1 0 -2 -1q-15 -12 -20 -31l-1 -5 q0 -4 -1.5 -10.5t-5.5 -12.5q-9 -16 -16 -16q-6 -4 -14 -12q-17 -17 -35 0q-8 7 -8 17z" />
<glyph unicode="T" horiz-adv-x="1200" d="M8 1262q3 26 13 69q9 40 29 118q5 17 15 49q-2 16 13 30q5 4 9.5 6.5t6.5 2.5h2q8 3 22 7q53 15 91 17q14 1 121 1q116 0 174 -1q70 -2 107 -27q1 -1 4 -2.5t4 -2.5q12 9 31 18q35 15 122 15h134q70 0 84 -1q38 -2 91 -17q3 -1 11 -3.5t11 -3.5q8 0 18 -9 q7 -6 10.5 -13.5t3.5 -12.5v-4q2 -9 6.5 -24t7.5 -24q15 -53 30 -120q2 -10 6 -32.5t7 -33.5q2 -10 -3.5 -19t-15.5 -11t-19 3.5t-11 15.5q-1 3 -13 67q-10 48 -29 116q-6 22 -14 48l-2 6l-18 6q-40 12 -80 15q-13 1 -81 1h-134q-77 0 -103 -11q-13 -7 -23 -15l-3 -9v-1091 q2 -3 2 -9q16 -14 20 -16q31 -19 109 -23h24.5t25.5 -1q22 0 31 -3q10 -3 14.5 -12.5t1.5 -19.5t-12.5 -14t-19.5 -1l-2 1h-6h-9q-7 0 -24.5 -0.5t-26.5 0.5q-90 4 -132 30q-7 4 -21 16q-20 -15 -27 -19q-46 -25 -146 -27q-43 0 -47 -1q-10 -2 -19 3t-11 15t3 19t15 11 q11 3 21.5 3.5t22.5 -0.5t14 -1q87 2 123 22q13 7 24 18l1 1q2 0 2 1v3q-1 2 -1 4v1092q0 2 0.5 4t0.5 3q-1 1 -5 3.5t-6 3.5q-27 18 -81 20h-53.5h-64h-54.5q-104 0 -117 -1q-41 -3 -81 -15l-7 -2q-7 -3 -11 -4q0 -3 -1 -6q-10 -32 -14 -48q-26 -102 -29 -116 q-11 -50 -13 -65q-1 -11 -9.5 -17t-18.5 -4t-16.5 10t-4.5 18z" />
<glyph unicode="U" horiz-adv-x="1296" d="M0 1553q1 10 8.5 17t18.5 6q13 -1 57 -1t77.5 -5.5t63.5 -21.5q16 -8 26 -18q18 16 48 28q40 15 110 17h30.5t36.5 2q10 1 18 -5t10 -16q1 -10 -5 -18t-16 -10q-8 -2 -38.5 -2h-34.5q-61 -2 -93 -15q-22 -9 -35 -20q-1 -1 -3 -2.5t-3 -2.5v-564q0 -136 5 -186 q15 -150 62 -225q53 -84 163 -134q49 -22 117 -25q5 0 12 0.5t16 1.5t14 1q103 9 189 66q33 23 64 49q30 26 31 27q5 4 10 5.5t9 2.5l4 1q6 2 16.5 4.5t14.5 4.5l1 2l3 3l20 20q7 7 10 9v7v930q-6 6 -15 12q-32 23 -104 27h-24q-25 0 -40 3q-10 2 -15.5 11t-3.5 19t11 15.5 t19 3.5q6 -1 15.5 -1.5t19 0t21.5 -0.5q87 -4 130 -37q3 -2 11 -8q6 6 18 14q39 26 100 30q11 1 38 1t38 2q10 2 19 -3.5t11 -15.5t-3.5 -19t-15.5 -11q-13 -4 -45 -3t-38 0q-47 -3 -77 -23q-7 -4 -20 -17v-929l1 -12q2 -4 3 -8t1.5 -8t0 -7.5t-0.5 -6.5t-0.5 -5t-1.5 -3v-2 v-65q0 -4 -0.5 -10t-0.5 -8l1 -1h1q4 -3 11 -8t10 -7q17 -9 57 -6q36 2 56 4q2 0 8 1l12 2t12 1q10 1 17.5 -6t8.5 -18q1 -10 -6 -17.5t-18 -8.5q-4 0 -14 -1.5t-15 -1.5q-37 -4 -58 -5q-10 -1 -20 -1q-38 0 -63 13q-9 4 -17 11q-2 -4 -8.5 -14t-9.5 -15q-2 -4 -7.5 -14.5 t-10.5 -19t-12 -16.5t-17 -9t-18 6t-9 17t6 18q1 1 25 42q10 17 28 47q-1 7 -0.5 11t1 8.5t0.5 5.5v42q-2 -3 -14 -10q-6 -3 -40 -13q-2 0 -4 -1t-4 -1l-1 -1q-4 -3 -13 -11t-14 -12q-46 -38 -69 -53q-95 -63 -212 -74q-45 -3 -48 -3q-76 3 -135 30q-126 58 -186 153 q-52 82 -68 246q-6 64 -6 191v563q-15 13 -24 19q-22 12 -48 16t-70.5 5t-60.5 2q-11 1 -17.5 8.5t-5.5 17.5z" />
<glyph unicode="V" horiz-adv-x="1213" d="M0 1557q2 10 11 16t19 4q8 -2 30 -2q30 0 46 -2q60 -6 116 -31q10 -4 30 -14q18 20 36 29q18 10 51 14q35 5 83 5q36 0 42 1q10 2 19 -3.5t11 -15.5t-3.5 -19t-15.5 -11t-53 -2q-46 0 -76 -5q-26 -4 -35 -9q-8 -4 -26 -22l-1 -4q1 -8 3.5 -21.5t3.5 -19.5q1 -7 3 -22.5 t4 -22.5q3 -10 30 -82q20 -53 92 -244t110 -296q52 -143 67 -181q5 -13 17 -43.5t18 -47.5q6 -16 18 -50q2 -4 3.5 -10t2.5 -8l4 2q23 11 40 22q4 3 7 3q8 18 12 29t13 32.5t14 32.5q13 30 38 89t37 89q166 392 248 588q35 80 43 106q2 7 9 45q4 24 6 35q-15 7 -28 9 q-4 1 -99 6q-33 0 -38 1q-10 2 -16 11t-4 19t10.5 16t18.5 4q4 -1 15.5 -1t16.5 -1q86 -3 104 -6q26 -6 43 -14q16 -7 24 -19q5 -8 5.5 -16t-1.5 -12l-2 -4l-6 -36q-4 -33 -10 -51q-7 -23 -45 -112q-82 -196 -248 -588l-75 -177q-4 -11 -13 -32.5t-14 -32.5q-8 -22 -16 -37 q-4 -8 -10 -13t-10 -6l-4 -1q-8 -5 -22.5 -12t-19.5 -10l-3 -3l-1 -70q0 -11 -7.5 -18t-17.5 -7t-17.5 7.5t-7.5 18.5l1 69q-9 5 -15 14q-3 5 -12 32q-2 4 -9 22t-10 28q-8 23 -34 91q-23 60 -67 180q-38 103 -109 291.5t-93 248.5q-28 75 -31 88q-4 15 -9 49q-1 7 -3 20.5 t-3 20.5l-1 1v2q-1 0 -3 2q-2 1 -29 13q-52 23 -101 27q-42 3 -43 3q-28 0 -38 2t-16 10.5t-4 18.5z" />
<glyph unicode="W" horiz-adv-x="1603" d="M0 1554q2 10 10 16.5t18 5.5q13 -2 51 -2.5t61 -4.5q34 -5 68 -25q19 -11 22 -13q44 35 93 41q18 2 47.5 2t38.5 1q11 1 18.5 -6t8.5 -17q1 -11 -6 -18.5t-17 -8.5q-13 -1 -42 -1t-42 -2q-39 -5 -72 -33v-2q1 -15 1 -42q2 -69 6 -138q6 -90 18 -269.5t18 -269.5 q3 -40 8.5 -123.5t8.5 -126.5q0 -7 0.5 -20.5t1.5 -20.5q7 4 19 10q5 3 14 7t13 7l2 2t2 1q1 1 2 3.5t1 3.5q2 6 7.5 18.5t8.5 18.5l53 126q34 80 102.5 239.5t102.5 239.5l61 143l18 42q13 27 17 31q5 6 11.5 10t12.5 6l5 2q8 5 24 13t17 9q2 1 4 2.5t3 1.5q0 1 1 3v1v31 v59q0 30 1 47q1 10 8.5 17t18.5 6q10 -1 17 -8.5t6 -18.5q-1 -13 -1 -43v-59v-32v-4q3 -3 4.5 -5.5t2.5 -5t2 -3.5q7 -14 21 -48q6 -15 35.5 -89t45.5 -113q13 -30 219 -545q6 -14 17.5 -43t17.5 -43l11 -28q2 -6 2 -7h2q3 -2 7.5 -4.5t6.5 -3.5q5 4 14.5 12t14.5 12 q3 2 6.5 4.5t4.5 3.5q0 8 1 15q1 9 2.5 27t2.5 27q3 32 8.5 94.5t8.5 92.5q9 91 26 274t26 275q6 66 9 132q0 10 1 29t1 28v10l-1 1q-1 1 -2 1q-20 9 -38 10t-56 1q-30 0 -43 8q-9 5 -11 15t3 19t15.5 12t18.5 -3h6q6 -1 11 -1q39 0 59 -1q23 -1 54 -14q1 -1 3 -2t3.5 -1.5 t3 -1.5t2.5 -1l4 2q17 7 40 13q25 7 80 7h24q10 4 19.5 1t14.5 -12t2 -19.5t-12 -14.5q-7 -4 -15 -5.5t-13.5 -1t-12 1t-7.5 0.5q-50 0 -67 -5q-24 -7 -33 -11l-1 -1q0 -1 -0.5 -4.5t-0.5 -5.5q-1 -9 -1.5 -28t-0.5 -28q-3 -66 -9 -134q-9 -91 -26 -274t-26 -275 q-6 -62 -18 -188q-1 -9 -2.5 -27t-2.5 -27q0 -22 -5 -33q-8 -16 -23 -23q-5 -4 -15.5 -12.5t-15.5 -13.5v-11q1 -7 3 -23t3 -23q0 -4 0.5 -11t1.5 -10q2 -10 -3 -19t-15 -11t-19 3t-11 15l-2 10t-1.5 10.5t-0.5 7.5q-1 8 -3 22t-3 22v11q-3 1 -9.5 5t-9.5 6q-10 1 -18 14 q-3 4 -5 8t-3 8l-1 3l-11 27q-5 15 -17 43.5t-17 42.5q-206 515 -219 545q-17 40 -82 202q-13 34 -14 36q-1 -1 -2 -1q-2 0 -2 -1q-8 -4 -22 -12t-18 -10q-5 -2 -11 -5l-6 -3q-4 -8 -7 -16q-3 -7 -9 -21.5t-9 -21.5l-61 -143q-34 -80 -102.5 -239.5t-102.5 -239.5l-53 -125 q-3 -6 -8.5 -18.5t-7.5 -18.5q0 -11 -12 -23q-4 -4 -8.5 -7t-7.5 -4l-2 -1q-3 -2 -12 -6.5t-14 -7.5q-6 -4 -18 -10.5t-19 -9.5l-4 -4l-2 -13l-7 -52l-3 -24q-2 -10 -10 -16t-18 -5q-10 2 -16.5 10t-5.5 18l4 24l7 51l3 20l-1 7q-1 8 -1 14q-1 8 -4 61q-3 41 -8 125t-8 126 q-6 90 -18 269.5t-18 269.5q-5 71 -6 140q0 15 -2 39v3h-1q-19 13 -22 15q-24 14 -53 19q-15 2 -51.5 2.5t-57.5 3.5q-10 2 -16.5 10t-5.5 18z" />
<glyph unicode="X" horiz-adv-x="1305" d="M4 300q-3 10 2 19t15 12t21.5 3.5t19 0t14.5 0.5q55 5 106 18q5 1 14.5 3.5t14.5 4.5q1 0 3 1q0 3 1 6q2 5 7.5 22.5t8.5 27.5q4 13 11 26t12.5 21t15.5 20.5t13 16.5q24 32 86.5 118t97.5 133q40 54 60 82q0 1 11.5 17.5t19.5 24.5q3 4 6.5 6.5t5.5 4t3 2.5l39 39l1 2 v17l-16 16q-11 3 -22 15q-15 16 -45 63q-8 13 -24.5 36t-20.5 29q-104 150 -155 226q-28 41 -34 50q-19 30 -23 41q-3 9 -7 24.5t-5 20.5q0 1 -0.5 2t-0.5 2q-2 1 -8 3q-28 10 -42 14q-100 30 -163 32q-11 1 -18 8.5t-6 17.5t8.5 17t18.5 6q78 -4 174 -33q5 -2 14.5 -5 t17 -5.5l13.5 -4.5q3 0 6 -1l18 18q14 14 23 19q11 6 49 9q17 1 51 1q20 0 26 1q24 3 28 -22q3 -24 -22 -28q-6 -1 -11.5 -1t-11.5 0.5t-8 0.5q-33 0 -49 -1q-24 -2 -30 -4q-4 -5 -10 -11l-18 -18v-4q10 -39 11 -43q4 -9 16 -29q2 -4 15 -21.5t19 -27.5q23 -33 49 -70.5 t58 -83.5t49 -71l45 -66q28 -43 41 -57l2 -1q2 -1 5.5 -3.5t7.5 -5.5q8 -6 11 -9q23 21 37 38q4 5 13 20t15 23q14 20 44.5 60t44.5 60l117 159q7 10 22.5 30t26 35t18.5 29q4 7 7 16.5t6.5 22.5t6.5 22l-3 3l-2 1q-4 3 -17 5q-16 2 -55 2q-30 0 -43 3q-10 2 -15 11t-3 19 t11 15t19 3q4 -1 31 -1q39 0 60 -2q27 -2 44 -16l9 -9q4 2 7 3q17 5 49 11q38 7 94 11q6 0 14.5 0.5t13.5 0.5t9 1q10 2 19 -3t11 -15t-3.5 -19t-15.5 -11q-11 -2 -27 -2.5t-17 -0.5q-41 -3 -89 -11q-33 -7 -44 -10q-3 -3 -9 -5q-1 -4 -5 -19t-8.5 -27t-10.5 -23 q-9 -17 -20 -33.5t-28 -38.5t-22 -28q-19 -27 -58.5 -80t-59.5 -79q-15 -20 -44 -59.5t-44 -59.5q-29 -44 -31 -46q-4 -5 -51 -52v-17v-1l2 -2l13 -13l3 -1q3 -2 7 -4.5t8 -6.5q9 -9 17.5 -21t17 -25t12.5 -19q78 -106 232 -320q42 -61 58 -99q7 -17 12 -36l1 -1q1 0 2.5 -1 t2.5 -1q24 -10 36 -14q57 -20 105 -27q16 -2 46 -4h21q5 -1 11.5 -2.5t8.5 -1.5q10 -2 16.5 -10t5.5 -18q-2 -10 -10 -16t-18 -5q-5 1 -11 2t-7 1h-19q-19 1 -52 5q-57 9 -113 29q-8 2 -38 14l-3 1q-4 1 -9 3.5t-9 5.5q-8 6 -12 13t-4 11l1 4q-2 9 -10 29q-15 35 -53 88 q-26 36 -72.5 101.5t-85 119t-73.5 100.5q-39 54 -43 58q-4 3 -11 8q-8 6 -11 9l-29 -29q-2 -2 -5 -4.5t-4.5 -4t-3.5 -2.5l-1 -1q-3 -3 -27 -37q-48 -65 -61 -83q-24 -32 -86.5 -118t-97.5 -133q-4 -5 -13.5 -17.5t-13.5 -19t-9.5 -16t-7.5 -16.5q-8 -28 -16 -50v-6 q2 -2 6 -4q11 -5 25.5 -7t38 -2.5t37.5 -1.5q10 -1 16.5 -8.5t5.5 -18.5q-1 -10 -8.5 -16.5t-18.5 -5.5q-18 2 -35 0.5t-41.5 2t-43.5 13.5q-12 6 -20 14l-14 -3.5t-16 -4.5q-43 -13 -114 -20q-8 -1 -18.5 -1t-17 -0.5t-10.5 -1.5q-10 -3 -19 2.5t-12 15.5z" />
<glyph unicode="Y" horiz-adv-x="1154" d="M22 1555q2 10 10.5 15.5t18.5 3.5q3 -1 46 -3q49 -2 80 -12q38 -13 71 -27q2 -1 6.5 -3t6.5 -3l9 10q8 9 16 16t19 11q19 8 51 8h37t35 1q10 1 17.5 -5.5t8.5 -17.5q1 -10 -5.5 -17.5t-17.5 -8.5q-15 -1 -40 -1.5t-33 -0.5q-26 0 -35 -4q-5 -3 -27 -26q0 -2 -2 -5 q1 -4 3.5 -13.5t3.5 -15.5q3 -18 6 -25q5 -12 24 -46q15 -27 47 -81q22 -39 73 -124t77 -131q40 -70 61 -105q2 -2 4.5 -7l3.5 -7q3 2 5 3q13 6 37 18q3 1 8 3t7 3q0 1 4 7q2 4 6.5 14t7.5 14q9 17 25 46.5t21 38.5q22 41 66 122.5t66 122.5l45 84q22 41 25 48q4 9 8.5 31 t7.5 31q-4 2 -8 2q-2 0 -67 3q-28 0 -39 2q-10 2 -15.5 10.5t-3.5 18.5t11 15.5t19 3.5q6 -1 29 -1h31.5t40.5 -2q20 -2 35 -13l1 -2q8 3 17 5q32 9 56 11q20 2 58 2h21q24 9 33 -13q9 -24 -13 -33q-9 -4 -41 -4q-37 0 -53 -2q-24 -3 -48 -9q-5 -1 -15 -5q-16 -63 -19 -71 q-7 -16 -27 -52q-8 -14 -23 -41.5t-22 -41.5l-132 -246q-7 -14 -23 -42.5t-23 -42.5q-2 -4 -7 -13t-7 -14q0 -7 -12 -19q-10 -10 -28 -16q-26 -12 -38 -18q-1 0 -2 -1l-1.5 -1.5t-1.5 -0.5q1 -21 0 -44q0 -3 -8 -38q-5 -30 -9 -43q-2 -7 -5.5 -13t-6.5 -12t-4 -7 q-6 -11 -17 -31.5t-16 -30.5q-88 -164 -104 -194q-33 -63 -34 -66q-1 -2 -2 -5.5t-2.5 -9t-2.5 -9.5q-5 -18 -10 -32q9 -7 10 -7q10 -5 24.5 -6t36 -1t37.5 -2q25 -4 22 -28q-2 -11 -9.5 -17t-18.5 -4q-16 2 -32 0.5t-39.5 1t-42.5 11.5q-14 7 -24 17q-12 -4 -24 -7 q-58 -16 -121 -21h-19t-17 -1l-9 -1q-22 -10 -33 11q-5 9 -1.5 19.5t12.5 14.5q9 5 27 5q6 0 18 0.5t18 1.5q62 5 112 19q5 1 13 4t12 4q8 22 11 33l8 28q5 12 35 70q15 29 32.5 61.5t39 72t33.5 61.5q6 11 17 31t16 31q2 4 5.5 9.5t5.5 8.5t2 5q1 2 8 39q5 19 6 30v12v16 v14q-4 3 -6.5 6.5t-4.5 6.5l-1 2q-1 3 -5 8.5t-6 8.5q-42 70 -62 106q-49 85 -149 255q-32 54 -48 82q-21 38 -27 52l-8 32q-1 5 -4 15.5t-4 16.5q-5 2 -17 8q-29 13 -66 26q-24 8 -66 10q-1 0 -21 0.5t-33 2.5q-10 2 -15.5 11t-3.5 19z" />
<glyph unicode="Z" horiz-adv-x="1010" d="M42 1351q11 60 32 125q6 21 13 38q0 1 1 3q0 1 -2 3t-2 3q-17 25 -18 49q-1 10 5.5 17.5t17.5 8.5q10 1 17.5 -5.5t8.5 -17.5q0 -9 11 -25q1 0 45 7q26 3 73 3h524q1 0 7.5 0.5t11.5 0t12 -1.5t13.5 -4t12.5 -8l25 -25q3 1 8 3.5t8 3.5q42 17 86 42q9 5 19.5 2.5 t15.5 -11.5t2.5 -19.5t-11.5 -15.5q-35 -21 -94 -45q-12 -4 -20 -8q-2 -7 -5 -22t-7 -29t-10 -27q-8 -15 -29 -43q-6 -9 -19 -26.5t-19 -26.5q-22 -31 -66.5 -92.5t-66.5 -91.5q-28 -39 -138 -192.5t-170 -236.5q-48 -65 -142 -197q-27 -38 -30 -45q-2 -3 -13 -47l-6 -24 l14 -14l6 -7q6 -4 37 -7h87h409h24h27h22q9 0 59 9q5 1 17 2.5t17 2.5h2l2 4q7 16 17 48q24 77 33 125q3 15 7 43t5 31q3 10 12 15t19 2t14.5 -12t1.5 -19q0 -2 -0.5 -5t-1 -8.5t-0.5 -9.5q-2 -16 -8 -46q-11 -61 -34 -132q-11 -33 -19 -51q1 -17 -20 -29q-10 -5 -20 -5 q-7 -2 -20.5 -3.5t-16.5 -2.5q-40 -6 -62 -7q-13 -1 -77 -1h-409q-58 0 -89 1q-2 0 -11.5 0.5t-16 1t-16 3t-17.5 7.5q-6 4 -16 14l-17 18q-13 2 -14 23q0 6 1 11t2 8l1 2q5 20 7 26q1 4 3.5 14.5t5 20t6.5 18.5q2 5 35 54q47 66 143 198q62 84 178.5 247t129.5 181 q22 31 66 92.5t66 91.5l39 54q20 26 24 35q5 10 11 35t8 33q-20 19 -23 22q-2 2 -25 2h-524q-53 0 -67 -2q-28 -4 -39 -7l-4 -5q-2 -4 -12 -35q-20 -65 -31 -120q-2 -10 -10.5 -16t-18.5 -4t-16 11t-4 19z" />
<glyph unicode="[" horiz-adv-x="491" d="M90 -44l1 3v1627q-4 10 6 23q2 3 19 20q9 10 16 12q5 2 30 2h271q11 0 18 -7.5t7 -17.5t-7 -17.5t-18 -7.5h-271h-11q-2 -2 -5.5 -5t-4.5 -4v-1623q1 -1 5 -4.5t6 -5.5q1 0 4 0.5t5 0.5h272q10 0 17.5 -7.5t7.5 -18.5q0 -10 -7 -17t-18 -7h-272h-1q-2 -1 -4.5 -1.5 t-6 -0.5t-8 0.5t-8.5 2.5q-6 2 -10 5.5t-5 5.5l-2 2q-16 16 -20 22t-5 11t-1 7z" />
<glyph unicode="\" horiz-adv-x="502" d="M13 1638q-3 10 1.5 19t14.5 12t19 -2t12 -15l10 -30l422 -1370l7 -24q3 -10 -1.5 -19t-14.5 -12t-19 1.5t-12 14.5l-8 25l-422 1370z" />
<glyph unicode="]" horiz-adv-x="491" d="M32 -74q0 10 8 18t18 8h272q2 0 5 -0.5t4 -0.5q2 2 6 5.5t5 4.5v1623q-1 1 -4.5 4t-5.5 5v1q-1 0 -4.5 -0.5t-6.5 -0.5h-271q-11 0 -18.5 7.5t-7.5 17.5t7.5 17.5t18.5 7.5h271q25 0 30 -2q6 -2 10 -5t5 -5l1 -2q17 -17 19 -20q4 -6 5.5 -12t0.5 -9v-2v-1627q3 -9 -5 -21 q-4 -6 -20 -22l-1 -1q-5 -8 -16 -12q-4 -2 -8.5 -2.5t-8 -0.5t-6 0.5t-3.5 1.5h-2h-272q-11 0 -18.5 7t-7.5 17z" />
<glyph unicode="^" horiz-adv-x="752" d="M116 998.5q-4 9.5 0 19.5l18 43l183 439l5 11q3 7 10 11l12 7l8 4v8q0 11 7 18t18 7t18 -7t7 -18v-8l11 -6l1 -1q2 0 2 -1l7 -5q4 -3 8 -11l150 -358l37 -89l18 -43q9 -24 -13 -33q-24 -9 -33 13l-18 44l-37 89l-147 352l-11 6l-9 -5l-4 -2l-1 -2l-183 -440l-17 -43 q-9 -22 -33 -13q-10 4 -14 13.5z" />
<glyph unicode="_" horiz-adv-x="927" d="M5 18q0 11 7.5 18.5t17.5 7.5h868q10 0 17 -7.5t7 -18.5q0 -10 -7 -17t-17 -7h-868q-11 0 -18 7t-7 17z" />
<glyph unicode="`" horiz-adv-x="545" d="M98 1624q0 10 7.5 17.5t18.5 7.5q24 0 64 -6q20 0 31 -7q15 -9 23 -26q6 -7 17 -22t17 -23q85 -110 92 -119q4 -5 15 -18t17 -21t4 -18.5t-10 -16.5t-18.5 -4.5t-16.5 9.5q-5 7 -17 21.5t-14 17.5q-12 15 -43 56t-48 63q-33 41 -35 44l-5 7.5t-4 5.5q-7 0 -13 1 q-40 6 -57 6q-11 0 -18 7.5t-7 17.5z" />
<glyph unicode="a" horiz-adv-x="885" d="M25 698v5q0 22 7 81q8 73 27 129q48 142 155 204q63 37 155 40h16q89 0 165 -52q18 -12 41 -33l9 -9l1 -2q0 -1 11 -4q25 -10 31 -13q4 -2 7 -3h1l4 4q0 1 1 4t1.5 8t1.5 9q6 26 9 40q1 3 2 8.5t2 8.5t1 5q1 11 8.5 17.5t17.5 5.5q11 -1 18 -8.5t6 -17.5q-1 -11 -6 -29 l-3 -17q-4 -17 -6 -25q-5 -26 -9 -33q-3 -5 -13 -15l-9 -9v-4v-563v-36v-1q2 -1 5 -4q5 -3 11 -5.5t11 -4t13.5 -2t13 -1t16 0.5t15.5 1.5t17 2t17 1.5q5 0 24 1.5t28 3.5q10 2 19 -4t10 -16q2 -10 -4 -19t-16 -10q-12 -2 -31.5 -3t-24.5 -2t-23.5 -3.5t-29.5 -3t-28 -0.5 t-32 4.5t-29 13.5l-24 -42l-13 -30q-5 -9 -14.5 -12.5t-18.5 0.5q-9 5 -13 14.5t0 18.5l15 31v1l2 3q-2 0 -5 -1t-5 -2q-4 -1 -8.5 -1.5t-7 -1t-3.5 -0.5t-8 -4.5t-14 -7.5q-26 -11 -57 -18q-33 -7 -80 -11q-27 -3 -38 -2q-130 6 -224 103q-43 46 -73 112q-42 96 -45 204z M75 700q3 -99 41 -185q27 -61 63 -98q80 -83 190 -88q7 0 33 2q41 3 72 10q32 8 48 15q1 1 9.5 5.5t16.5 7.5q5 2 10 3t9 1.5t5 0.5q29 7 34 8q1 1 10 0h8l3 4v8v36v564v2q-1 0 -3 1l-2 1q-5 2 -14.5 6.5t-14.5 6.5l-3 1q-4 1 -8.5 3t-8.5 5q-3 2 -6 5l-5 5t-3 3.5t-2 1.5 q-23 21 -35 29q-64 43 -140 43h-10q-81 -3 -133 -33q-91 -53 -132 -176q-19 -55 -25 -119q-7 -69 -7 -79z" />
<glyph unicode="b" horiz-adv-x="950" d="M5 1594q-2 10 4 19.5t16 10.5q8 2 28 2h22q21 1 39 1q40 0 63 -6q19 -5 35 -12q10 0 20 -13q4 -6 6 -12t2 -8l-1 -3q2 -20 3 -31q3 -51 3 -103q0 -65 -0.5 -193t-0.5 -193v-134q8 7 37 26q2 1 5 3q4 2 5 3q3 5 10 22t13 28q35 65 84 102q56 43 147 52q26 3 48 2 q29 0 50 -4q98 -20 162 -98q79 -96 100 -252q7 -51 7 -70q0 -22 -10 -97q-25 -167 -119 -263q-68 -69 -160 -94q-19 -5 -72 -10q-35 -3 -46 -2q-80 5 -138 51q-86 68 -124 207q-16 60 -24 170q-5 90 -5 110q0 12 0.5 35t0.5 34q-9 7 -16 18q-4 7 -5.5 13t-0.5 9l1 3v136 q0 65 0.5 193t0.5 193q0 66 -2 100q0 4 -0.5 8t-1.5 9t-1 8q-12 6 -26 9q-19 5 -50 5q-16 0 -35 -1q-40 -2 -44 -3q-10 -2 -19.5 4t-10.5 16zM264 806q0 -35 4 -107q7 -99 24 -160q33 -126 105 -182q45 -36 112 -41q4 0 39 2q42 4 63 9q76 20 136 81q83 84 105 235 q10 78 10 90q0 19 -6 63q-18 138 -90 227q-53 65 -132 81q-22 4 -47 4q-18 0 -38 -2q-72 -6 -120 -43q-45 -34 -71 -85q-3 -6 -11 -24t-14 -29q-4 -8 -10.5 -13.5t-10.5 -7.5l-4 -1q-22 -14 -36 -25q-1 -1 -3.5 -2.5t-3.5 -2.5q0 -12 -0.5 -34.5t-0.5 -32.5z" />
<glyph unicode="c" horiz-adv-x="692" d="M38 697v7q0 27 6 85q12 115 54 198q20 39 48 72q20 23 40 38q24 19 51 32q58 27 139 26q25 0 53 -2q68 -7 117 -38q30 -20 37 -30l7 -18q1 -3 4.5 -13t4.5 -15q9 -38 15 -71q6 -27 6 -37q0 -11 -7 -18t-18 -7t-18 7t-7 18q0 3 -1 7t-2 9.5t-2 10.5q-7 39 -15 69 q-4 16 -7 24q-1 1 -1 2.5v2.5q-3 3 -23 17q-39 26 -95 31q-24 2 -46 2q-68 0 -120 -23q-14 -6 -42 -26q-15 -11 -32 -30q-27 -32 -42 -62q-38 -75 -48 -180q-6 -59 -6 -81v-5q3 -142 74 -245q78 -113 199 -125q4 0 9 -1q21 0 61 7q46 6 77 22q42 21 89 77q21 24 29 38 q5 9 15 11t19 -3t11 -15t-3 -19q-12 -19 -33 -44q-54 -64 -104 -89q-35 -19 -93 -28q-36 -6 -63 -6q-10 0 -19 1q-71 7 -132 45.5t-103 99.5q-80 116 -83 272z" />
<glyph unicode="d" horiz-adv-x="877" d="M35 728q4 97 36.5 185t98.5 147q41 37 101 62q47 21 104 24q17 1 60 -4q35 -3 71 -12q24 -6 49 -17q3 -2 6.5 -3.5t5.5 -3t4 -2.5t3 -1t4 -1t8 -1.5t9 -1.5q7 -2 16 -4.5t11 -2.5h15v422q-7 8 -15 12q-31 20 -82 22q-8 0 -24.5 -0.5t-32 0t-30.5 3.5q-10 2 -15.5 11 t-3.5 19t10.5 15.5t18.5 3.5q9 -2 23 -2t26.5 0.5t29.5 -0.5q66 -4 107 -30q3 -2 7.5 -6t5.5 -4q47 35 109 40q12 1 36 1t35 2q10 2 19 -4.5t10 -16.5q2 -10 -4 -19t-16 -10q-17 -3 -47 -3h-29q-51 -3 -88 -34v-1075q2 -5 2 -12l7 -8q10 -10 13 -15q2 -4 9 -31q9 -38 13 -65 q3 -24 -21 -28q-24 -3 -28 22q-1 8 -13 59q-1 4 -1.5 8t-1.5 7t-1 4l-4 4h-1q-7 -4 -14.5 -7t-14.5 -6t-10 -4q-7 -3 -10 -3q-4 -3 -13.5 -13t-16.5 -16q-39 -32 -83 -49q-46 -18 -103 -18q-13 0 -26 1q-58 5 -80 11q-80 23 -137 86q-89 98 -108 262q-3 22 -7 66 q-3 24 -2 34zM85 725q0 -4 2 -28q1 -31 6 -63q17 -148 96 -235q46 -52 114 -71q23 -6 70 -10q9 0 17 -1q50 0 89 16q38 15 70 41q4 3 14 13t18 16q12 10 21 10q29 13 35 17v8v604q-13 0 -20 1q-8 1 -18.5 4t-12.5 3q-20 3 -28 6l-24 12q-13 6 -41 14q-27 7 -63 10 q-44 5 -53 4q-41 -1 -87 -20q-52 -23 -86 -54q-57 -50 -86 -129t-33 -168z" />
<glyph unicode="e" horiz-adv-x="819" d="M35 679q-1 14 1.5 36.5t2.5 24.5q4 44 8 65q-4 17 9 31q1 4 2.5 11.5t1.5 10.5q1 4 2.5 16t3.5 19q4 19 22 61q33 77 85 124t114 66q45 14 90 14q41 0 82 -12q26 -8 47 -21q30 -18 50 -39q50 -53 69 -155q7 -31 10 -69q1 -3 1 -8t1 -7l1 -1q2 0 2 -1q7 -5 21 -17 q3 -2 6 -5h2h22h17.5h20h16.5q2 0 8 1.5t12.5 2.5t13.5 1q10 1 17.5 -6t8.5 -18q1 -10 -6 -17.5t-18 -8.5q-3 0 -13.5 -1.5t-18.5 -2.5q-20 -1 -58 -1h-22q-7 -2 -18 1q-7 2 -12.5 6t-7.5 7l-2 3q-8 6 -13 10q-14 -14 -25 -19q-20 -9 -58 -9h-419q-10 0 -19 3q-1 0 -1 0.5 t-1 0.5q-2 -13 -4 -39q-4 -42 -4 -57q3 -109 50 -192q28 -49 63 -80q57 -51 124 -67q28 -7 48 -7q6 0 56 5q77 8 131 35q42 21 97 76q8 8 18 8t17 -8t7 -18t-7 -18q-61 -61 -109 -85q-63 -31 -149 -40q-45 -5 -62 -5q-19 0 -59 9q-77 18 -145 78q-42 38 -73 93 q-54 94 -57 215zM106 831q2 -2 4 -5t3 -4h1h419q29 0 36 4q4 2 18 16q-1 5 -1 14q-2 26 -10 66q-18 87 -57 129q-19 19 -39 31q-19 12 -35 16q-35 10 -70 10q-37 0 -73 -11q-52 -16 -95 -56q-45 -41 -73 -106q-14 -31 -19 -53q-3 -12 -6 -32q-1 -7 -3 -19z" />
<glyph unicode="f" horiz-adv-x="609" d="M-13 31q-17 17 0 35q17 17 35 -1q15 -17 23 -31q14 -25 20 -28q11 -6 53 1q15 3 17 5q11 9 25 36q15 28 29 102q15 81 20 181q4 85 4 320v345v82h-97q-36 0 -44 -3q-10 -3 -19.5 1.5t-12.5 14.5t1.5 19.5t14.5 12.5q16 5 60 5h97q0 66 5 148q6 78 16 128q25 118 71 180 q34 46 76 66q27 12 98 17h12q41 0 80 -18q37 -18 68 -54q5 -6 17.5 -22.5t18.5 -22.5q7 -8 7 -18t-7 -18t-18 -8t-18 8q-10 10 -23.5 28t-15.5 20q-27 31 -51 42q-31 14 -58 14h-9q-59 -4 -80 -14q-31 -15 -57 -49q-40 -54 -62 -161q-9 -46 -15 -122q-5 -80 -5 -144h120 q95 0 121 5q10 2 18.5 -4t10.5 -16t-3.5 -18.5t-15.5 -10.5q-30 -6 -131 -6h-120v-82v-345q0 -236 -4 -322q-5 -102 -20 -187q-15 -79 -34 -117q-17 -37 -40 -53q-9 -7 -39 -14q-1 0 -12.5 -2t-17 -2.5t-16.5 -1t-20.5 2t-18.5 7.5q-7 4 -12.5 8.5t-10 10.5t-7 10t-6 10.5 t-4.5 8.5q-9 16 -14 21z" />
<glyph unicode="g" horiz-adv-x="780" d="M28 674q-1 15 4 58q8 74 17 109q23 89 62 148q84 127 215 160q43 10 85 10q13 0 26 -1q68 -5 117 -34q19 -11 50 -38q6 -3 12 -7q5 -4 21 -20l6 -6l4 4q0 1 0.5 3t1 6t1.5 7q5 21 14 50q3 10 12.5 14.5t19.5 1.5t14.5 -12t1.5 -19q-6 -18 -13 -46l-1 -5q0 -5 -2 -12 t-6 -14q-4 -6 -12 -14l-10 -9v-522v-82q0 -53 -1 -80q-4 -79 -6 -110.5t-12.5 -95t-29.5 -111.5q-31 -80 -82 -122q-59 -50 -153 -57q-13 -1 -26 -1q-74 0 -134 34q-48 27 -87 74l-18 24t-18 22q-17 17 1 35q8 8 18 8t17 -8q10 -10 23 -28t16 -21q35 -42 72 -63 q46 -27 111 -27q10 0 21 1q75 5 125 46q42 35 67 102q17 43 27 100.5t12 92.5t6 108q1 17 1 52h-15q-3 -1 -11 -4t-14 -5q-9 -3 -13 -3l-5 -5q-12 -10 -18 -14q-23 -17 -50 -30q-52 -26 -118 -34q-40 -5 -54 -5q-41 0 -89 24q-64 33 -113 100q-87 120 -90 271zM78 676 q3 -137 81 -244q40 -56 95 -84q36 -19 66 -19q13 0 47 4q62 8 103 29q20 9 41 25q4 2 9.5 7t6.5 6q4 6 14 11q5 3 9.5 4.5t7.5 2t4 0.5q2 1 7.5 3t12 4t12.5 3q8 1 24 1v57v521l-1 1l-15 15q-3 3 -8 8.5t-7 7.5q-5 0 -13 7q-29 25 -45 35q-39 24 -95 27q-13 1 -25 1 q-40 0 -71 -8q-110 -28 -185 -140q-35 -52 -55 -132q-13 -53 -17 -101q-3 -29 -3 -52z" />
<glyph unicode="h" horiz-adv-x="984" d="M19 308q-3 24 22 28q17 2 45.5 2t37.5 1q44 5 77 33l1 12v1104q0 10 0.5 29t0.5 28v16q0 12 4 20q3 6 6.5 9.5t5.5 4.5l2 1q14 10 27 17q31 17 84 17q11 0 22 -1q18 -1 56 -3q11 -1 18 -8.5t6 -17.5q-1 -11 -8.5 -18t-17.5 -6l-57 3q-10 1 -19 1q-39 0 -60 -11 q-7 -4 -19 -12v-12q0 -10 -0.5 -29t-0.5 -28v-497h9q4 1 15.5 5t16.5 6t10 3t6 1l1 2l4 4q5 5 17 15q27 24 59 47q55 38 101 52q27 8 82 14q39 5 57 4q12 -1 27 -6q39 -11 65 -33q29 -25 48 -77q17 -45 23 -139q5 -68 5 -203v-166v-141v-4h1q7 -7 20 -15q31 -20 93 -20h29 q10 2 19 -3.5t11 -15.5t-3.5 -19t-15.5 -11q-4 -1 -40 -1q-75 0 -119 28q-22 15 -28 20q-9 3 -15 18q-2 6 -2 23v141v166q0 146 -4 199q-6 86 -21 127q-12 35 -35 56q-17 14 -45 22l-16 4q-7 1 -48 -4q-52 -6 -74 -12q-38 -12 -85 -45q-44 -32 -57 -44q-2 -3 -7 -7.5 t-8 -6.5q-9 -9 -15 -12q-9 -5 -25 -9q-3 -1 -10 -3.5t-14.5 -5t-14.5 -3.5q-6 -1 -17 -1v-557v-11l1 -1q6 -6 22 -16q13 -7 30.5 -11t31 -5t38.5 -2t38 -2q11 -1 17.5 -8.5t5.5 -17.5t-8.5 -17t-18.5 -6q-7 1 -44 1.5t-63.5 5.5t-50.5 19q-16 10 -24 16q-42 -33 -98 -39 q-15 -1 -42.5 -1.5t-39.5 -2.5q-24 -3 -28 22z" />
<glyph unicode="i" horiz-adv-x="546" d="M30 1070q0 11 7 18t17 7q2 0 9 1t13 2q30 2 44 3q39 3 44 3q34 -1 62 -20l6 -4q7 -3 13.5 -8.5t10.5 -12.5q4 -5 5 -10.5t1 -8.5l-1 -2v-38v-359q0 -133 1 -159q2 -56 15 -93q9 -28 27 -40q10 -6 12 -6q1 0 27 4q56 7 85 18q39 15 74 44q8 7 18 5.5t17 -9.5 q16 -19 -3 -35q-45 -36 -88 -52q-34 -13 -96 -21q-34 -4 -42 -3q-18 3 -33 14q-29 20 -45 65q-13 39 -17 107q-2 54 -2 161v359v33v2q-2 1 -6 3.5t-6 3.5q-18 11 -38 13q-6 0 -19.5 -1.5t-17.5 -1.5q-8 -1 -22.5 -2.5t-21.5 -1.5q-2 0 -10 -1.5t-15 -1.5q-11 0 -18 7.5 t-7 17.5z" />
<glyph unicode="j" horiz-adv-x="460" d="M18 1151q3 10 12 14.5t19 1.5q3 -1 20 -1q28 0 43 -1q62 -2 102 -26q10 -6 20 -14q25 21 58 31q26 8 63 10h16.5h18.5h15h9l4 1q21 11 33 -9q5 -9 3 -19.5t-11 -15.5q-5 -3 -10 -5t-9.5 -2h-8h-6.5l-3 1q-33 0 -47 -1q-34 -2 -53 -8q-26 -7 -47 -27v-1109q0 -43 -1 -64 v-16q0 -14 -5 -22q-3 -5 -7 -8.5t-6 -4.5l-3 -1q-12 -9 -26 -16q-28 -14 -58 -17q-22 -2 -57.5 1t-42.5 3q-11 0 -18 7.5t-7 17.5t7 17.5t18 7.5q15 0 47.5 -3.5t47.5 -1.5q20 1 40 12q3 2 10 6.5t10 6.5v13q1 21 1 62v1109q-13 11 -20 15q-31 18 -80 20h-12.5h-14.5h-13 q-26 0 -35 3q-10 3 -14.5 12.5t-1.5 19.5z" />
<glyph unicode="k" horiz-adv-x="849" d="M20 300q-3 10 2 19t15 12t33 3h40q47 3 79 25q1 1 11 8l1 13v1108v56v10q-7 5 -23 13q-20 10 -62 10q-10 0 -22 -1q-41 -2 -45 -3q-24 -3 -28 22q-1 11 5 19t16 9t26.5 1.5t21.5 0.5q21 3 52.5 1t57.5 -14q15 -8 30 -18q9 -2 16 -14q4 -6 5 -11.5t0 -8.5l-1 -2 q0 -2 0.5 -6t0.5 -8v-56v-878q2 0 4 2q7 3 34 13l18 7l3 1q1 1 4 6t5 8q4 6 11.5 15.5t10.5 13.5q11 16 18 22q6 5 13 8t12.5 4.5t6.5 1.5q5 2 17.5 7.5t19.5 8.5q4 22 7 33q2 7 6.5 27t8.5 32q3 9 13 19l18 24q10 13 30 40t30 40q5 7 17.5 23t19 24.5t15 21.5t13.5 24 q3 6 7 23.5t7 26.5l-6 2q-7 2 -31.5 2t-41.5 3q-10 2 -16 10.5t-4 18.5t11 16t19 4q5 -1 32 -0.5t43 -4.5q21 -6 29 -14l1 -2l1 1h2q24 7 42 11q35 7 62 8q37 2 43 3q10 2 19 -3.5t11 -15.5t-3.5 -19t-15.5 -11q-3 -1 -51 -4q-32 -2 -56 -7q-5 -1 -37 -10q-1 -2 -4 -3 q-11 -41 -18 -56q-9 -18 -20 -34.5t-28 -38.5t-22 -28l-60 -81l-18 -24q-1 -2 -4 -5l-2 -2l-6.5 -26t-7.5 -28q-5 -16 -6 -28v-4v-1q8 -17 10 -21q16 -41 29 -76q40 -111 52 -139q1 -2 22 -47q32 -71 73 -100q16 -12 43 -16h19.5t27.5 -1q10 -2 16.5 -10t5.5 -18 q-2 -10 -10 -16.5t-18 -5.5q-6 1 -21.5 1.5t-24.5 1.5q-38 3 -67 23q-50 35 -89 121l-10.5 21t-12.5 27q-10 23 -53 140q-18 50 -28 75q0 1 -1 2t-1 2q-26 -11 -30 -13q-5 -2 -12 -4l-7 -3l-8 -12q-4 -6 -11.5 -15.5t-10.5 -13.5q-16 -21 -18 -23l-16 -9l-19 -7 q-22 -10 -33 -14q-1 0 -4 -2t-7.5 -3.5t-9.5 -2.5h-2v-177v-11h1q9 -9 18 -14q28 -17 63 -20q3 0 20 -1t27 -2q25 -4 22 -28q-2 -10 -9.5 -16t-18.5 -5q-7 1 -22 1.5t-23 1.5q-51 5 -85 26l-18 12q-2 -1 -4.5 -3.5l-4.5 -4.5q-41 -28 -104 -31q-15 -1 -43 -1q-17 0 -19 -1 q-10 -3 -19 2t-12 15z" />
<glyph unicode="l" horiz-adv-x="532" d="M21 1599q0 11 7 18.5t17 7.5t34.5 2t40.5 3t39 -3t43 -13q9 -4 25 -16q15 -8 21 -18q3 -5 4 -10t0 -8v-2v-15v-57v-205v-757q0 -74 13 -122q10 -36 23 -49q10 -10 19 -11h10q10 1 30 5q35 5 60 12q52 15 85 46q7 7 17.5 6.5t17.5 -7.5t6.5 -17.5t-7.5 -17.5 q-44 -40 -105 -58q-27 -9 -65 -14q-11 -2 -33 -4q-1 0 -5 -0.5l-8 -1t-10 0.5q-26 4 -48 26q-24 25 -36 72q-14 52 -14 133v758v205v56v12h-1q-20 12 -21 13q-16 8 -34.5 9.5t-52 -1t-46.5 -2.5q-11 0 -18.5 7t-7.5 17z" />
<glyph unicode="m" horiz-adv-x="1472" d="M24 1063q-2 10 4 19.5t16 10.5q3 1 74 7q41 5 62 0q18 -4 39 -18q4 7 13 23.5t13 23.5q5 9 15 11.5t19 -2.5t11.5 -15.5t-2.5 -19.5t-14 -25.5t-12 -21.5t-7 -10l-4 -6q0 -1 0.5 -6.5t0.5 -10.5v-24.5t1 -23.5l6 4q7 4 41 14q2 1 6 2l3 1q7 6 20.5 19.5t18.5 17.5 q65 59 115 80q22 10 81 19q43 8 63 6q24 -2 53 -18q39 -22 63 -61.5t30 -84.5l1 -2v-2q10 10 15 12q8 4 30 11l8 2l9 9l24 24q33 32 72 57q35 23 76 35q23 7 74 14q45 6 57 5q58 -6 98 -53q22 -25 34.5 -64.5t14.5 -58t5 -65.5q4 -61 4 -182v-345q1 -1 1 -3q34 -30 87 -33 q13 -1 41 -1q26 0 37 -3q10 -3 15 -12t2 -19t-12 -15t-19 -2q-4 1 -23 1q-29 0 -45 1q-64 5 -109 40q-16 -12 -25 -17q-24 -14 -50 -18.5t-62 -5t-44 -1.5q-11 -1 -18.5 5.5t-8.5 16.5q-1 11 6 18.5t17 8.5q13 1 47 2.5t53 5t36 12.5q16 10 23 16l1 1v2v345q0 119 -4 178 q-8 120 -42 159q-28 33 -64 36q-1 0 -47 -5q-46 -6 -66 -12q-34 -11 -62 -29q-36 -24 -65 -51q-4 -4 -12 -11.5t-12 -11.5q-14 -14 -17 -16q-4 -3 -8.5 -5t-7.5 -2l-3 -1l-24 -8q-2 -3 -4 -5l-20 -19q0 -3 -3 -7q0 -16 0.5 -47.5t0.5 -47.5q1 0 1 -153l-1 -153v-136 q0 -3 14 -12q33 -21 83 -23h27t35 -2q10 -2 16 -10t5 -18q-2 -10 -10 -16t-18 -5q-9 1 -29.5 1.5t-27.5 0.5q-66 4 -108 31q-2 2 -6.5 5t-6.5 4q-44 -34 -104 -40q-15 -1 -41 -1t-37 -2q-24 -3 -28 22q-3 24 21 28q17 2 44.5 2t36.5 1q50 4 84 34v136v96.5v113v95.5 q0 15 -0.5 47t-0.5 48q-3 4 -4.5 10t-1.5 10v4q-1 6 -2.5 18.5t-2.5 19.5q-12 78 -67 109q-21 12 -33 13q-9 1 -52 -6q-51 -8 -69 -16q-44 -20 -101 -71q-2 -2 -16.5 -17t-25.5 -23q-13 -10 -23 -10q-5 -2 -17 -5.5t-16 -5.5l-8 -8l-20 -20q0 -67 0.5 -200t0.5 -199v-137v-1 q1 -2 1 -4.5v-5.5t-1 -7t-4 -8q-2 -3 -4.5 -6t-4.5 -4.5t-3 -2.5l-2 -1q-12 -10 -28 -20q-46 -28 -123 -28q-18 0 -38 2q-10 1 -16.5 8.5t-5.5 18.5q1 10 8.5 17t18.5 6q18 -1 35 -1q61 0 96 20q7 4 20 15l1 1v138q0 67 -0.5 201t-0.5 201q-3 5 -3.5 11t0.5 9v3v36v52v5 q-1 4 -1 8q-19 14 -33 17q-10 3 -45 -1q-56 -4 -69 -7q-10 -2 -19.5 4t-10.5 16z" />
<glyph unicode="n" horiz-adv-x="991" d="M19 1062q-2 10 4 19t16 10q5 1 89 10q22 2 39 2q24 0 39 -4q12 -3 30 -13l6 9q14 21 31 54q4 9 14.5 12.5t19.5 -1.5q9 -4 12 -14.5t-2 -19.5q-25 -47 -33 -59q-1 -1 -6 -8t-7 -11l-2 -4v-9q0 -5 0.5 -16t0.5 -17q4 3 9 5t9 3h3q35 12 38 13l3 3q3 2 5 4q3 3 9.5 8.5 t11.5 10.5t10 9q56 49 114 69q28 9 69 15q47 6 58 5q61 -1 113 -45q69 -58 80 -196q3 -45 3 -177v-354v-2h1q8 -8 21 -16q26 -16 80 -19q31 -2 43 0q10 2 19 -4.5t10 -16.5t-5 -18t-16 -10q-15 -2 -54 0q-67 4 -102 25q-13 8 -21 14l-27 -27l-21 -22q-7 -8 -17 -8.5t-18 6.5 q-7 7 -7.5 17.5t6.5 17.5l21 23v1l37 36v3v354q0 131 -3 174q-8 116 -62 161q-36 31 -82 33q-19 0 -49 -5q-42 -6 -61 -12q-48 -16 -98 -60q-6 -5 -16 -14.5t-13 -12.5l-2 -3q-2 -2 -6 -5.5t-10 -6.5q-10 -5 -27 -9.5t-19 -5.5l-6 -2t-4 -1l-22 -22q0 -4 -2 -7v-557v-2 q4 -3 16 -11q16 -11 40 -16.5t39.5 -6t51.5 -0.5q10 0 17.5 -7.5t7.5 -18.5q0 -10 -7 -17t-18 -7h-21h-24t-22 1t-25 3t-22.5 5.5t-24.5 9t-22 13.5q-3 2 -11 8l-19 -19l-28 -30q-7 -7 -17.5 -7.5t-17.5 6.5t-7.5 18t6.5 18l28 30h1l29 29v1v559q-4 5 -4.5 11t0.5 10l1 4v36 q0 6 -0.5 19.5t-0.5 21.5v2q-16 11 -27 14q-12 4 -59 0q-80 -8 -85 -9q-10 -2 -19 4t-10 16z" />
<glyph unicode="o" horiz-adv-x="843" d="M35 722q0 14 5 57q18 164 118 268q77 80 181 101q16 3 42.5 5t32.5 3q12 2 32 -1q32 -2 48 -4q71 -9 130 -46q103 -62 147 -181q25 -68 33 -149q0 -3 2 -21t2 -29q0 -13 -5 -56q-10 -104 -50 -186q-63 -130 -178 -176q-42 -17 -87 -23q-37 -5 -71 -5q-75 0 -135 24 q-74 29 -129 91t-84 140q-23 61 -29 132q-5 43 -5 56zM85 722q0 -14 4 -52q6 -62 27 -119q26 -68 74 -122t111 -79q53 -21 119 -21q30 0 62 4q33 4 74 21q48 20 87.5 59.5t64.5 90.5q36 74 46 170q4 36 4 51q0 13 -4 45q-8 76 -30 137q-39 101 -126 155q-47 29 -112 39 q-16 2 -44 4q-18 2 -21 1q-13 -2 -37 -3.5t-35 -3.5q-90 -18 -155 -86q-88 -92 -104 -240q-5 -47 -5 -51z" />
<glyph unicode="p" horiz-adv-x="854" d="M5 -169q0 11 7.5 18t17.5 7q15 0 47.5 -3.5t47.5 -1.5q23 3 46 15l7 3.5t7 4.5q0 13 1 20v34v463q-1 4 0 11v606q-1 0 -1 2l-10 10l-8 9q-4 4 -6 11l-6 22l-14 45l-7 18q-3 10 1.5 19.5t14.5 12.5t19.5 -1t12.5 -14l6 -19l15 -46l5 -18l3 -4q22 22 35 33q2 1 9 7.5 t12 10.5q28 21 52 31q33 14 89 20q16 1 32 1q69 0 134 -28q80 -35 133 -103q83 -108 101 -264q8 -75 8 -89q0 -9 -2 -24t-2 -17q-10 -100 -45 -172q-31 -65 -86 -115t-122 -62q-14 -2 -32 -2q-22 0 -50 3q-48 7 -70 13q-39 13 -87 44q-5 4 -14.5 11t-10.5 8l-3 3l-2 1 q-1 0 -7 2q-16 4 -24 7q-9 3 -23 3v-449q0 -25 -1 -39v-18q4 -11 -8 -26q-7 -8 -31 -22q-35 -19 -66 -22q-22 -2 -57 1.5t-43 3.5q-10 0 -17.5 7t-7.5 18zM236 427q24 0 38 -5q2 -1 10 -3.5t13 -3.5q8 0 18 -6l11 -9q16 -12 23 -17q42 -27 72 -37q14 -4 62 -11q29 -4 48 -4 q12 0 20 2q52 9 98 51.5t72 98.5q34 72 42 154q0 4 1.5 18t1.5 20q0 15 -7 83q-18 142 -92 239q-45 58 -113 87q-55 24 -113 24q-14 0 -28 -1q-48 -5 -74 -16q-22 -9 -41 -24q-2 -1 -9 -7.5t-12 -10.5t-30 -29q-2 -2 -6 -5.5t-5 -4.5v-2v-581z" />
<glyph unicode="q" horiz-adv-x="859" d="M37 749q0 17 4 47q6 66 27 127q29 85 89.5 149t144.5 72q7 1 35 -3q37 -3 64 -10q65 -14 134 -83q9 -9 25 -29q3 -3 5 -8l1 -2q9 -3 16 -6q2 -1 16 -7t22 -11v56l-1 4q-1 2 -10 17q-5 8 -14 24.5t-14 24.5q-9 16 -13 20q-8 7 -8 17t8 18t18 8t18 -8q10 -10 20 -30 q15 -28 27 -47l2 -3q17 12 38 16q12 3 55 0q9 -1 28 -2t28 -2q5 0 12.5 -1.5t9.5 -1.5q10 0 17 -7.5t7 -18.5q0 -10 -7.5 -17t-18.5 -7q-10 0 -25 3q-9 1 -28 2.5t-28 2.5q-23 3 -38 0q-18 -5 -30 -14l-1 -1q-2 0 -2 -1v-73v-2q1 -3 1.5 -6.5t0.5 -8t-1 -10t-3 -10.5v-7.5 v-5.5l-1 -2v-1001q35 -31 87 -34q13 -1 41 -1q27 0 34 -2q10 -2 15.5 -11t3.5 -19t-11 -15.5t-19 -3.5q-4 1 -23 1q-29 0 -44 1q-64 5 -109 40q-12 -10 -24 -17q-41 -22 -101 -24q-7 0 -27 -0.5t-29 -1.5q-24 -3 -28 22q-2 10 4 18t17 10q13 2 35 2h26q50 2 79 18q6 3 21 16 h1l1 1v419q-1 0 -2.5 -1t-2.5 -1q-5 -2 -14.5 -5.5t-13.5 -4.5q-8 -3 -20.5 -5.5t-15.5 -3.5q-2 -1 -10 -5.5t-14 -7.5q-18 -9 -44 -16q-27 -7 -66 -9q-14 -1 -27 -1q-92 0 -161 43q-42 25 -76 65q-75 87 -100 238q-8 51 -11 90q-2 24 -2 43zM87 748q0 -9 2 -39 q3 -48 10 -85q23 -137 89 -214q30 -35 63 -54q62 -37 138 -37q11 0 22 1q35 2 56 8q14 4 35 13l26 13q9 4 24.5 8t16.5 4q9 3 25 9l8 3q8 3 15 4v530q0 2 0.5 5.5t0.5 4.5q-1 1 -4 3t-5 4l-10 10q-4 3 -38 19q-15 5 -23 10q-6 4 -10.5 9t-5.5 8l-2 3q-14 18 -21 25 q-59 59 -109 70q-29 6 -58 9q-24 2 -26 2q-65 -6 -115.5 -59.5t-75.5 -127.5q-19 -53 -25 -116q-3 -24 -3 -43z" />
<glyph unicode="r" horiz-adv-x="757" d="M20 304q-1 10 5.5 18t16.5 10q13 2 28 2.5t31.5 0.5h25.5q32 0 50 7q19 8 37 26l1 4v683q-21 19 -31 23q-20 9 -62 9t-77 2q-25 4 -22 28q4 25 28 22h60q60 0 94 -15q11 -5 35 -24l5 6q4 9 19 15l18 2h285q58 0 89 -8q3 -1 9.5 -2.5t9.5 -2.5q8 0 18 -8q6 -6 9.5 -12 t3.5 -10v-3q4 -11 12 -35q11 -36 24 -114q4 -27 5 -31q2 -10 -4 -19t-16 -10q-10 -2 -19.5 4t-10.5 16q-1 3 -4 31q-12 74 -23 108q-1 5 -3 10t-4.5 12t-3.5 11q0 1 -1 3q-4 1 -14 3q-28 7 -77 7h-284l-3 -3l-15 -15v-683v-3l8 -8q16 -14 30 -20q16 -7 68 -7h33q22 0 33 -3 q10 -2 15 -11t3 -19t-11 -15t-19 -3q-3 1 -21 1h-33q-61 0 -86 10q-21 8 -45 30q-23 -21 -44 -29q-27 -10 -68 -10q-77 -3 -80 -3q-10 -1 -18 5.5t-10 16.5z" />
<glyph unicode="s" horiz-adv-x="614" d="M44 534q-2 10 4 19t16 10q10 2 19.5 -4t10.5 -16q1 -5 7 -60q6 -42 15 -88q1 -7 4.5 -21t4.5 -17v-2l18 -6q12 -4 31.5 -11.5t27.5 -10.5q30 -10 82 -14q11 -1 22 0q46 0 80 10q23 8 46 20q43 23 64 54q11 18 20 60q10 51 11 59q0 6 -5 26q-12 54 -70 98q-45 35 -155 82 q-54 22 -77 34q-56 30 -82 63q-25 31 -33 71q-5 28 -5 39q0 3 7 45q15 75 41 106q40 49 102 67q43 12 87 12q20 0 40 -2q55 -7 92 -29q35 -20 54 -53q8 -13 14 -32q10 -32 14 -48q1 -5 3 -12t3 -10q9 -24 -13 -33q-24 -9 -33 13q-1 3 -9 30q-7 25 -13 44q-5 18 -9 24 q-11 19 -37 33q-33 20 -72 24q-17 2 -34 2q-36 0 -70 -10q-50 -15 -80 -51q-18 -22 -31 -85q-6 -28 -6 -36t4 -28q6 -29 23 -50q20 -25 66 -50q6 -3 74 -32q114 -49 166 -89q72 -55 88 -125q6 -32 5 -44q-2 -17 -11 -64q-10 -50 -28 -76q-29 -44 -81 -71q-33 -17 -55 -24 q-43 -13 -92 -13q-14 0 -29 1q-50 3 -93 17q-10 3 -29.5 10.5t-28.5 10.5q-5 1 -23 8q-8 0 -18 9q-12 11 -12 27q-6 26 -9 40q-12 60 -16 91q-1 9 -3 29t-4 29z" />
<glyph unicode="t" horiz-adv-x="531" d="M20 1106q0 10 7 17t18 7q74 0 121 14q4 1 13 3.5t13 4.5l1 1q1 1 3 2t5 2v2q1 7 2 15t2 18t2 15q5 49 5 149q0 10 7 17.5t18 7.5t18 -7.5t7 -17.5q0 -102 -5 -154q-4 -37 -7 -52l-4 -20h134q78 0 105 5q10 2 18.5 -4t10.5 -16t-3.5 -18.5t-15.5 -10.5q-30 -6 -115 -6 h-135v-8v-104v-337v-249q2 -5 2 -12q20 -20 37 -27q15 -6 36 -8q2 0 55 -3q23 0 37 -9q9 -5 11 -15t-3 -19q-13 -20 -34 -8q-6 0 -15 1q-2 0 -22.5 1t-32.5 2q-36 5 -53 12q-23 11 -43 29l-2 -2q-20 -18 -41 -27q-23 -11 -73 -13q-6 0 -19 -0.5t-19 -1.5h-9q-22 -11 -33 7 q-6 8 -3.5 18.5t10.5 16.5q12 8 32 8h19t18 1q45 4 57 9q11 5 28 20q2 2 6 5.5t5 4.5q0 1 -0.5 4.5t-0.5 5.5v249v337v104v28q-4 -2 -16 -4q-55 -16 -134 -16q-10 0 -17.5 7.5t-7.5 18.5z" />
<glyph unicode="u" horiz-adv-x="1005" d="M20.5 1114q-2.5 10 2.5 19q11 20 32 11h3h13t17 -1h25q62 -4 101 -28q13 -9 16 -11q12 10 20 14q18 11 40.5 16.5t36.5 7t39.5 2t33.5 1.5q11 1 18.5 -6t8.5 -17q1 -11 -6 -18.5t-17 -8.5q-12 -1 -36 -2t-36 -2t-28.5 -5t-28.5 -11q-9 -5 -19 -15l-1 -5v-347 q0 -121 4 -180q2 -26 4 -40q15 -118 72 -140q22 -9 39 -10q8 -1 54 4q43 5 73 14q42 13 82 42q28 21 58 51l9 11q10 10 17 16q5 4 10.5 6.5t9.5 3.5l4 1q24 8 30 11l4 4l17 17q2 2 4.5 4t3.5 3v526v7q-1 1 -13 10q-33 24 -85 24q-6 0 -18 0.5t-17 0.5q-23 0 -34 7 q-8 6 -10.5 16.5t3.5 18.5q12 19 33 8h8q6 0 18 -0.5t17 -0.5q67 0 114 -33q2 -1 5 -3.5t4 -3.5q45 35 110 40q12 1 37.5 0.5t32.5 1.5q10 1 18 -5t10 -16q1 -10 -5 -18t-16 -10q-16 -2 -44 -2.5t-29 -0.5q-54 -3 -88 -33l-1 -8v-526q1 -3 1 -7q1 -3 1 -16v-23 q0 -12 0.5 -35t0.5 -34v-19q12 -9 20 -12q16 -7 52 -4q12 1 38 4t39 4q11 1 18.5 -6t8.5 -17t-5.5 -17.5t-17.5 -8.5q-22 -2 -76 -8q-16 -1 -29 -1q-32 0 -49 8q-6 3 -16 9q-2 -4 -7.5 -12t-7.5 -12q-16 -31 -24 -41q-7 -8 -17 -9t-18 6t-9 17t6 18q2 3 4.5 8t6.5 12.5 t7 12.5q5 9 26 43v1v24v47q-2 -2 -8 -4q-9 -4 -38 -15q-8 -2 -9 -2q-3 -3 -10 -11t-12 -13q-36 -35 -64 -55q-48 -35 -96 -50q-27 -9 -82 -15q-53 -6 -63 -5q-19 1 -54 14q-28 11 -48 32t-30.5 49t-15.5 49t-9 50q-4 28 -5 43q-4 62 -4 183v348v3q-13 11 -17 13 q-28 18 -78 21q-15 0 -26 1h-7.5h-11.5h-12q-10 -1 -21 5q-9 5 -11.5 15z" />
<glyph unicode="v" horiz-adv-x="913" d="M9 1120q1 10 9 16t19 5q4 -1 53 -3q40 -4 69 -11q32 -9 51 -19l12 -6l1 1q1 1 2 1q19 19 29 24q15 8 45 10q9 1 34.5 1.5t36.5 2.5q10 2 19 -3.5t11 -15.5t-3.5 -19t-15.5 -11q-13 -3 -28.5 -3.5t-26.5 0t-24 -0.5q-18 -1 -27 -6q-2 -1 -15 -14l-6 -6q1 -5 2.5 -16.5 t2.5 -16.5q6 -34 11 -50q5 -17 18.5 -48.5t16.5 -39.5q30 -77 88.5 -220t70.5 -172q31 -79 39 -97q2 -5 6 -13.5t4 -9.5q3 2 10 4.5t10 3.5l21 10q1 1 4 1q1 1 3 5q1 2 7 11.5t9 14.5q18 28 52 84q68 112 116 203q53 102 69 160q5 19 11 59q10 66 10 96q0 27 -1 31 q-2 6 -16 22q-7 8 -6 18.5t9 17.5t18.5 6t17.5 -9q20 -23 25 -41q3 -11 3 -45q0 -31 -11 -104q-7 -45 -12 -65q-17 -60 -72 -168q-61 -117 -118 -208q-17 -28 -53 -84q-15 -24 -17 -27q-2 -8 -12 -16l-16 -8l-22 -10q-4 -2 -13.5 -6t-12.5 -5l-6 -2q-2 -9 -10.5 -14.5 t-18.5 -4.5t-16 10.5t-4 19.5q1 3 1 8l-4 8q-2 4 -5.5 13t-5.5 14q-8 19 -21 53t-18 45q-20 48 -75.5 183t-84.5 209q-30 73 -36 92q-6 20 -12 56l-6 33q-13 7 -17 9q-24 11 -41 16q-33 9 -60 10q-1 0 -21.5 0.5t-33.5 2.5q-25 4 -22 28z" />
<glyph unicode="w" horiz-adv-x="1420" d="M9 1107q-2 10 3.5 19t15.5 11q4 1 38 1q74 0 119 -27l28 -21q12 -3 17 -21v-19v-438q0 -50 1.5 -79.5t10 -69.5t25.5 -68q16 -28 46.5 -46t63.5 -21q8 -1 54 6q36 4 52 9q20 6 53 26q37 23 110 96q4 4 9.5 7.5t9 4.5t7.5 1l3 1l5 5l18 19q1 1 4 3l3 2q0 2 -0.5 4t-0.5 4 q0 31 -2 46q-8 69 -8 154v336q-32 25 -97 34q-16 2 -29 2q-22 0 -34 7q-9 5 -11 15t3 19q12 20 33 9h9q23 0 36 -2q73 -10 114 -39q5 5 15 13q22 17 23 17q24 11 89 11q25 0 28 1q10 2 19 -3t11 -15t-3.5 -19t-15.5 -11q-11 -3 -39 -3q-52 0 -68 -7l-12 -9q-3 -3 -10 -9.5 t-11 -9.5v-337q0 -91 7 -148q3 -27 3 -52q1 -2 2 -5q2 -2 6 -8q8 -12 13 -32q4 -12 18 -36q44 -72 125 -96q35 -11 91 -13h6q28 0 69 8q64 13 120 69q88 88 114 241q4 27 8 75q2 36 2 60q0 18 -1 30q-1 11 -2 28.5t-1 20.5q-14 130 -72 176q-10 8 -27 15q-2 1 -9.5 4.5 t-11.5 5.5l-8 4h-7q-11 0 -18 7t-7 17q0 24 26 26q5 2 17 -1q6 -2 21 -9q8 -5 18 -9q24 -11 37 -21q75 -59 90 -210q1 -9 1.5 -25.5t1.5 -23.5q2 -13 1 -34q0 -26 -2 -64q-5 -65 -8 -81q-27 -166 -128 -267q-66 -66 -145 -83q-40 -8 -78 -8h-9q-66 2 -104 14 q-98 29 -152 117q-18 31 -23 45q0 1 -1 3t-1 3l-11 -10q-11 -11 -14 -13l-21 -7l-20.5 -20.5l-23.5 -23.5t-21 -19.5t-26.5 -22t-25.5 -17.5q-36 -22 -66 -31q-12 -4 -59 -11q-46 -5 -62 -5h-4q-45 5 -85 29t-63 62q-21 35 -31.5 83t-11.5 76.5t-1 82.5v438q1 1 1 2 q-12 10 -22 16q-35 20 -93 20h-27q-10 -2 -19 3.5t-11 15.5z" />
<glyph unicode="x" horiz-adv-x="988" d="M23 301q-2 10 4 19t16 11l12 2h2l67 6l46 9l20 6l5 15q1 2 4.5 14.5t6.5 20.5q6 13 34 52q18 26 53 73.5t48 65.5q26 34 38 51q21 30 31 42q4 4 8 7.5t6 4.5l3 2q4 3 11 9.5t10 10.5q-3 7 -5 15t-2.5 13t-0.5 6q-1 3 -21 33q-59 89 -67 100q-46 68 -58 89q-7 12 -21 63 q-1 3 -2 6.5t-1 4.5t-1 1q-10 4 -32 12q-45 17 -83 22q-6 1 -18.5 1.5t-24.5 1.5t-24 4q-10 2 -15 11t-3 19t11 15t19 3q9 -2 30 -3t31 -2q40 -5 95 -25q9 -3 29 -11q2 2 5.5 6t5.5 6q12 12 21 17q15 12 56 12l42 -1q10 2 18.5 -3.5t10.5 -15.5t-3.5 -19t-15.5 -11 q-20 -4 -51 -3t-34 -4l-8 -8l-11 -11q1 -6 1 -11q14 -47 16 -52q13 -24 56 -86q31 -44 68 -100q21 -30 26 -45q2 -6 4 -15.5t3 -11.5h14q9 10 31 30q3 3 6 5t5 3.5t3.5 2.5t2.5 2h1q8 9 17.5 21t20.5 27.5t18 24.5q11 15 49.5 65t58.5 78q16 24 20 34q5 15 8 25l6 21l-1 1 q-1 2 -2 2q-7 3 -30 2.5t-46 2.5q-10 1 -16 10.5t-4 19.5q1 10 10 16t19 4q11 -2 22.5 -0.5t30.5 -0.5t35 -9q6 -2 18 -12l10.5 3.5t11.5 3.5q29 9 90 13q33 2 38 3q10 2 18.5 -3.5t10.5 -15.5t-3.5 -19t-15.5 -11q-11 -2 -27.5 -2.5t-17.5 -0.5q-50 -4 -79 -12 q-8 -2 -23 -7q0 -1 -3 -10t-4 -14q-4 -15 -10 -30q-8 -18 -26 -43q-20 -28 -58 -77.5t-51 -66.5q-5 -7 -24.5 -34.5t-32.5 -41.5q-5 -6 -10.5 -10t-8.5 -5l-4 -2q-7 -6 -22 -21q3 -6 5 -12.5t3 -12t2 -7.5q2 -4 18 -26t47 -65.5t46 -65.5q47 -67 58 -85q9 -15 22 -60 q0 -1 0.5 -3t1 -3.5l1 -3t0.5 -2.5q3 -1 12.5 -4.5t15.5 -5.5q60 -21 110 -25h8.5h10.5h10q23 0 35 -6q9 -4 12.5 -14.5t-1.5 -19.5t-14.5 -12.5t-18.5 1.5l-2 1h-5h-6q-21 0 -33 1q-64 4 -124 27q-7 3 -23 9q-16 -19 -30 -26q-11 -6 -34 -9q-14 -2 -36.5 -2.5t-24.5 -0.5 q-10 -1 -17.5 5.5t-8.5 17.5q-1 10 5.5 17.5t17.5 8.5t30 1.5t27 1.5q11 1 17 4q9 7 19 18q0 1 -1 5t-2 5q-9 36 -16 48q-9 15 -57 82q-16 22 -47 65.5t-46 65.5q-21 30 -24 37q-2 6 -4 11.5t-3 10t-2 6.5h-12q-1 -1 -2 -1q-3 -3 -8.5 -9t-10.5 -10.5t-9 -8.5l-14 -11 q-7 -8 -28 -38q-5 -7 -18 -25t-20 -27q-11 -16 -47 -64t-54 -74q-27 -38 -30 -45q-1 -2 -9 -28l-4 -13q3 -3 7 -4q8 -3 29.5 -2.5t40.5 -1.5q11 -1 17 -9t4 -19q-4 -25 -28 -22q-11 1 -21 0.5t-26 1t-30 5.5t-28 16l-21 -6q0 -1 -1 -1l-48 -9h-1l-2 -1l-67 -5l-11 -3 q-10 -2 -18.5 4t-10.5 16z" />
<glyph unicode="y" horiz-adv-x="986" d="M12 1096.5q-3 10.5 2 19.5q4 9 14.5 12t18.5 -2h11h31q74 0 121 -31q2 -1 6.5 -5t6.5 -5q21 17 40 25q27 12 81 16q11 1 32 0t25 1q10 2 18.5 -3.5t10.5 -15.5t-3.5 -18.5t-15.5 -10.5q-12 -2 -24.5 -2.5t-21 0t-17.5 -0.5q-46 -4 -65 -12q-14 -6 -34 -22l-1 -3v-373 q0 -142 10 -201q15 -93 54 -123q16 -11 35 -17q11 -3 30.5 -3t46.5 3q50 6 71 13q37 12 85 46q28 20 50 39l7 7t10.5 10t11.5 9q4 3 26 10q18 6 28 9q5 3 16 4h14v562v6q-8 8 -17 14q-34 22 -89 22h-31q-25 0 -36 5q-9 5 -12.5 14.5t0.5 18.5q5 9 14.5 13t18.5 0l2 -1h5.5 h7.5h31q67 0 116 -30q8 -5 15 -11q28 21 43 27q23 9 78 14q11 1 32 0t25 1q10 2 18.5 -3.5t10.5 -15.5t-3.5 -18.5t-15.5 -10.5q-12 -2 -24.5 -2.5t-21 0t-17.5 -0.5q-44 -4 -63 -11q-20 -8 -35 -22q0 -3 -2 -8v-2v-563q2 -4 0 -12q0 -226 -2 -271q-5 -97 -8 -116 q-15 -109 -56 -194q-58 -118 -137 -142q-23 -7 -60 -5q-34 3 -45 8q-8 3 -15 8.5t-10.5 9.5t-9.5 11t-7 8q-34 37 -38 42q-16 19 3 35q8 7 18 5.5t17 -9.5q5 -6 18 -19t19 -20q23 -25 26 -26q6 -2 28 -4q24 -2 41 4q61 18 107 115q37 77 52 180q2 13 7 111q2 51 2 232 q-2 0 -5 1t-4 1l-2 -1q-1 -1 -2 -1.5t-3 -0.5q-4 -1 -13.5 -4.5t-13.5 -4.5q-2 -1 -5 -1.5t-4.5 -0.5t-2.5 -1h-2q-2 -1 -5.5 -4.5l-8.5 -8.5l-9 -9q-24 -22 -54 -43q-52 -38 -99 -53q-26 -9 -79 -15q-29 -4 -52 -4q-28 0 -48 6q-26 8 -49 25q-55 40 -73 154q-11 65 -11 210 v374v1q-8 7 -15 12q-35 23 -94 23h-31q-23 0 -34 6q-9 4 -12 14.5z" />
<glyph unicode="z" horiz-adv-x="746" d="M23 337.5q-2 10.5 3 19.5q9 15 21 28q27 33 47 47q6 4 33 16l1 1q0 5 1 8q2 8 6 22.5t6 21.5l1 4q0 4 1.5 9.5t5.5 11.5q6 10 14 20.5t17 22.5t14 18l86 118q39 53 116 159t116 159q4 5 13 41q0 4 1 8l-5 5q-1 0 -6.5 -0.5t-8.5 -0.5h-57q-19 0 -115 1q-48 0 -77 0.5 t-38 -0.5q-18 0 -58 -8l-12 -3q-3 -8 -8 -21t-7 -19q-20 -59 -32 -118q-2 -10 -10.5 -16t-18.5 -4t-16 10.5t-4 18.5q13 67 33 125q3 8 8 20.5l7 17.5l-2 3q-21 27 -22 55q-1 10 6 17.5t18 8.5q10 1 17.5 -5.5t8.5 -17.5q0 -11 11 -26q3 1 6.5 2t6.5 1q35 7 67 8h231h57 q1 0 4.5 0.5t7.5 1t10 0t12 -2.5t10 -5.5t6 -5.5l1 -2l3 -3l4 1q36 14 43 17q10 5 18 12.5t22.5 23.5t18.5 20q7 7 18 7.5t18 -6.5t7 -17.5t-7 -18.5q-4 -4 -14 -15.5t-16.5 -18.5t-18 -16t-23.5 -15q-10 -5 -28 -12t-20 -8q-1 0 -3.5 -0.5t-3.5 -1.5q-1 -2 -1.5 -4.5 t-0.5 -4.5q-1 -3 -3 -11.5t-3.5 -15t-5.5 -15.5t-9 -16q-38 -53 -115.5 -159.5t-116.5 -159.5l-86 -118q-36 -48 -42 -57q0 -1 -0.5 -2.5t-1 -4.5t-1.5 -6q-2 -7 -5.5 -21t-5.5 -21v-5h1h37q48 -2 82 -13q29 -9 77 -35t73 -31q23 -5 40 -5q5 0 29 6q41 9 61 21q41 25 82 95 q18 29 25 45q4 10 13.5 14t19.5 0q22 -9 13 -33q-5 -13 -28 -51q-48 -80 -98 -112q-28 -18 -77 -28q-35 -7 -39 -7q-23 0 -51 6q-36 7 -87.5 34.5t-68.5 32.5q-33 11 -68 12q-5 0 -17 -0.5t-18 -0.5q-9 -3 -24 2q-9 3 -14 8q-15 -6 -18 -8q-15 -10 -37 -38q-16 -21 -18 -24 q-5 -9 -15 -11t-19 3t-11 15.5z" />
<glyph unicode="{" horiz-adv-x="510" d="M40 776q0 10 7 17.5t18 7.5l81 1q3 13 7 18q3 5 6.5 8.5t5.5 4.5l2 1q4 4 10 9.5t9 8.5q27 30 38 72q12 46 16 132q1 21 1 190v84q0 109 12 181q14 79 45 120q32 41 86 65q14 6 46 15q20 4 25 4q11 0 18 -7t7 -17q0 -11 -7 -18t-17 -7l-14 -4q-18 -4 -37 -12 q-44 -19 -67 -50q-25 -33 -36 -98q-11 -68 -11 -172v-84q0 -150 -2 -193q-4 -96 -17 -143q-14 -53 -48 -91q-7 -9 -23 -23q-1 -1 -3 -2t-3 -2q0 -2 -3 -10v-2t-1 -2q0 -1 2 -5q1 -3 2 -7t1 -5l6 -4q13 -12 24 -25q32 -39 47 -94q12 -47 16 -143q2 -51 2 -229q0 -133 11 -207 q11 -70 35 -104q21 -29 68 -51q26 -12 53 -15q25 -4 22 -28q-4 -25 -28 -22q-34 4 -68 20q-59 27 -87 67q-34 47 -45 125q-11 72 -11 215q0 177 -2 227q-4 92 -15 133q-11 43 -36 74q-8 9 -19 19q-7 3 -14 13q-7 9 -9 20l-81 -1q-11 0 -18 7.5t-7 17.5z" />
<glyph unicode="|" horiz-adv-x="215" d="M83 -138v1772q0 11 7.5 18.5t17.5 7.5t17.5 -7.5t7.5 -18.5v-1772q0 -10 -7.5 -17.5t-17.5 -7.5t-17.5 7.5t-7.5 17.5z" />
<glyph unicode="}" horiz-adv-x="511" d="M30 1691q0 10 7 17t18 7q28 0 75 -21q52 -23 82 -63q35 -46 47 -129q11 -73 11 -181v-87q0 -148 3 -197q6 -85 15 -115q11 -40 33 -66q12 -14 18 -19q7 0 18 -16q4 -6 7 -19l56 1h26q11 0 18 -7t7 -17q0 -11 -7.5 -18t-17.5 -7l-26 -1l-55 -1q-3 -10 -8 -18 q-11 -15 -16 -15q-9 -8 -17 -17q-27 -31 -39 -75q-10 -37 -14 -132q-1 -23 -1 -211q0 -165 -12 -240q-11 -72 -43 -116q-28 -39 -71 -61q-39 -20 -84 -28q-10 -2 -19 4t-10 16q-2 10 4 19.5t16 10.5q40 8 70 23q35 18 54 45q23 32 34 96q11 69 11 231q0 189 1 213 q4 99 16 142q14 55 49 96q10 12 22 22q2 2 8 5q0 6 2 11q0 1 1 3l1 1q0 1 -2 5q-1 3 -2 6.5t-1 4.5q-1 1 -9 7q-9 8 -23 24q-28 32 -43 85q-10 37 -17 124q-3 41 -3 201v87q0 95 -11 173q-11 72 -36 106q-22 29 -65 49q-36 17 -53 17q-11 0 -18 7t-7 18z" />
<glyph unicode="~" horiz-adv-x="850" d="M28 721q16 48 59 97q28 31 68 58q31 21 64 31q9 3 38 8q22 4 28 4q6 -1 15 -3t11 -2q28 -5 39 -9q21 -7 39.5 -17t46.5 -27t33 -20q49 -29 69 -34q30 -8 41 -8q5 0 33 6q30 7 46 15q42 20 78 68q14 19 25 40l7 14q2 10 11 15.5t19 3.5t15.5 -11t3.5 -19q-3 -13 -11 -26 q-12 -22 -30 -47q-45 -59 -97 -84q-22 -10 -56 -18q-39 -7 -45 -7q-24 1 -53 9q-29 7 -81 39q-10 6 -28 17t-29 17.5t-26 14t-28 12.5q-11 4 -31 7q-16 4 -20 4q-2 0 -16 -3q-22 -4 -33 -7q-26 -8 -50 -24q-31 -20 -59 -51q-34 -37 -48 -79q-3 -10 -12.5 -14.5t-19.5 -1.5 t-14.5 12.5t-1.5 19.5z" />
<glyph />
<glyph />
<glyph />
<glyph />
<glyph />
<glyph />
<glyph unicode="&#x85;" />
<glyph />
<glyph />
<glyph />
<glyph />
<glyph />
<glyph />
<glyph />
<glyph />
<glyph />
<glyph />
<glyph />
<glyph />
<glyph />
<glyph />
<glyph />
<glyph />
<glyph />
<glyph />
<glyph />
<glyph />
<glyph />
<glyph />
<glyph />
<glyph />
<glyph />
<glyph />
<glyph unicode="&#xa1;" horiz-adv-x="172" d="M60 -11l1 684l2 52q0 10 7 17t18 7q10 0 17 -7t7 -18l-1 -52l-1 -683q0 -11 -7 -18t-18 -7t-18 7t-7 18z" />
<glyph unicode="&#xa2;" horiz-adv-x="728" d="M48 844q0 30 6 78q20 194 126 296q17 17 48 37q45 28 78 34q13 3 41 5v124q0 10 7.5 17.5t17.5 7.5t17.5 -7.5t7.5 -17.5v-120q26 -2 41 -3q62 -7 104 -43q31 -27 52 -73q22 -49 24 -51q7 -8 6 -18t-9 -17t-18.5 -6t-17.5 9q-9 10 -14.5 21t-10.5 25t-6 17q-15 36 -39 55 q-32 27 -76 32h-18t-18 1v-762q1 -7 0 -14q14 1 42 5q40 5 63 15q70 31 134 123q6 8 16.5 10.5t18.5 -3.5t10 -16.5t-4 -18.5q-70 -103 -155 -140q-25 -10 -76 -19q-47 -6 -49 -6v-127q0 -10 -7.5 -17.5t-17.5 -7.5t-17.5 7.5t-7.5 17.5v127v8l-4 4q-10 1 -26 3q-2 0 -7 0.5 t-11 1t-12 2.5q-7 2 -17 7l-10 5q-28 14 -61 40q-111 91 -142 257q-9 45 -9 95zM98 844q0 -40 8 -85q27 -147 125 -228q27 -22 51 -34q17 -8 20 -9q1 0 4 -0.5t7.5 -1t8.5 -0.5q14 -2 24 -3l1 1v1v759q-21 -2 -32 -4q-24 -4 -61 -27q-20 -13 -39 -32q-92 -88 -111 -264 q-6 -50 -6 -73z" />
<glyph unicode="&#xa3;" horiz-adv-x="806" d="M17.5 316q1.5 10 9.5 17q12 9 22 21q1 1 6 10.5t10 16.5q11 15 32 30q19 14 50 26q6 2 10 3q1 3 1 4q3 10 7 30q0 12 6 24q4 8 11 19t8 12q15 25 28 62q27 76 36 191q4 52 5 78h-72q-44 0 -54 -3t-19 1.5t-12 14.5t1.5 19.5t14.5 12.5q16 5 69 5h72l1 7q0 6 0.5 16 t0.5 15q3 65 10 121q19 167 111 265q39 43 87 59q11 4 69 12q49 7 73 2q48 -11 93 -52q8 -7 8.5 -17t-6.5 -18t-17.5 -8.5t-18.5 6.5q-32 31 -70 40q-17 4 -56 -2q-47 -6 -60 -11q-36 -12 -66 -45q-78 -83 -97 -236q-7 -52 -10 -119q0 -5 -0.5 -15t-0.5 -14v-2l4 -4h7h158 q59 0 86 5q10 2 19 -4t10 -16q2 -10 -4 -19t-16 -10q-34 -6 -95 -6h-158q-5 -1 -13 -1q-2 -54 -4 -80q-9 -121 -39 -205q-13 -40 -31 -70q-4 -7 -10.5 -16.5t-7.5 -11.5q0 -1 -1 -5q0 -1 -0.5 -2.5t-0.5 -3.5q-1 -4 -2.5 -12t-2.5 -12h13q2 0 18 -1t25 -2q39 -3 71 -15 q32 -11 79 -40.5t69 -36.5q29 -9 51 -9q3 0 38 5q123 16 174 92q6 8 16.5 10.5t18.5 -3.5t10.5 -16t-3.5 -18q-66 -96 -209 -115q-26 -4 -44 -4q-37 0 -67 10q-33 11 -80.5 40.5t-68.5 36.5q-30 11 -60 14q-5 0 -19.5 0.5t-23.5 1.5h-5h-8.5h-9.5q-7 -3 -19 2h-1l-9 -3 q-30 -12 -39 -19q-17 -13 -21 -19q-16 -27 -17 -28q-11 -15 -30 -30q-8 -7 -18 -5.5t-17 9.5t-5.5 18z" />
<glyph unicode="&#xa4;" horiz-adv-x="725" d="M26 1167q0 11 8 18t18 7t18 -7q7 -7 27.5 -25.5t31.5 -30.5q2 -2 5.5 -6t4.5 -5q1 0 3.5 0.5t3.5 1.5q5 2 9.5 3.5t7 2.5t3.5 1q3 2 14 10.5t21 13.5q61 34 129 38q2 0 12 1.5t18 0.5q79 -4 128 -27q29 -14 52 -31q8 -6 14 -12q2 0 11 -3q10 -4 14 -6l7 7q9 12 20.5 23.5 t26 25t20.5 19.5q17 17 35 0q8 -7 8 -18t-8 -18q-8 -8 -21.5 -21t-23.5 -23t-18 -19q-4 -5 -11 -12q1 -4 2 -9.5t1 -6.5q1 -4 2 -7.5t1 -5.5l1 -2q0 -1 2 -4t5 -8t5 -9q15 -27 24 -57q35 -114 -6 -231q-5 -13 -29 -62l-2 -8q-1 -4 -2.5 -12t-2.5 -12q8 -8 24 -23.5t24 -23.5 q3 -3 8.5 -8t7.5 -7q9 -4 15 -19q2 -6 2.5 -12t0 -9.5t-0.5 -6.5l-1 -3v-40q0 -10 -7.5 -17.5t-17.5 -7.5t-17.5 7.5t-7.5 17.5v12.5v15.5v14q0 2 0.5 5.5t0.5 4.5l-1 1l-16 16q-32 30 -48 46q-4 -2 -18 -6q-2 -1 -5 -2l-2 -1q-1 -1 -6.5 -4.5t-8.5 -6.5q-28 -20 -48 -29 q-75 -34 -167 -26q-46 4 -74 14q-34 12 -58 27q-16 10 -23 16l-8 6l-1 1q-2 0 -5 1t-5 2t-7.5 2.5t-7.5 2.5q-3 -4 -9 -10q-8 -9 -18 -19t-22 -21.5t-18 -17.5q-8 -8 -18 -8t-17 8q-17 18 0 35q47 47 56 57q2 2 5.5 6t5.5 6q-2 8 -3.5 19t-2.5 13q0 1 -2 3t-4.5 6t-5.5 9 q-11 19 -22 51q-13 36 -18 85q-3 30 -3 37q2 47 12 90q11 43 25 69q8 14 13 22q1 2 2.5 4t2.5 4l1 1l4 16q0 2 1.5 7t2.5 8l-13 13q-9 10 -29 27.5t-29 26.5q-8 7 -8 18zM91 860q0 -4 1.5 -15t1.5 -16q5 -45 15 -73q8 -23 19 -43q1 -1 3.5 -5t5.5 -9t5 -11q4 -10 10 -38 q2 -1 8 -3t8 -3q18 -6 20 -7q7 -4 13 -10q8 -7 19 -13q20 -13 49 -23q23 -9 61 -12q76 -8 142 22q16 7 40 24q1 0 7 5t11 9q10 7 16 7q4 1 20 8q4 17 5 22q0 10 6 21q22 40 27 55q36 103 5 201q-7 23 -20 48q-1 1 -6.5 9.5t-8.5 16.5q-2 7 -4 15l-1 7q-1 3 -2 8t-2 7 q-4 1 -11 4l-6 3q-7 0 -20 8q-10 6 -18 14q-24 17 -43 26q-39 18 -110 22q-12 0 -23 -1q-58 -5 -109 -33q-2 -1 -14 -10t-21 -14q-6 -3 -11.5 -5t-10 -3t-6.5 -2l-9 -3q-1 -3 -2.5 -8.5t-1.5 -6.5q-5 -21 -6 -23q-2 -4 -4 -7.5t-4 -5.5t-2 -3q-2 -3 -6 -10.5t-5 -9.5 q-14 -27 -21 -57q-8 -36 -10 -79z" />
<glyph unicode="&#xa5;" horiz-adv-x="880" d="M-4 1407q4 25 28 22q7 -1 22.5 -2t23.5 -2q24 -3 59 -15q28 -8 49 -18l6 -3q3 2 5 4q17 17 25 22q16 9 52 12q6 0 16 0.5t15 0.5h9q23 9 33 -11q5 -9 1.5 -19.5t-12.5 -14.5q-10 -5 -31 -5q-5 0 -14.5 -0.5t-13.5 -0.5q-26 -2 -30 -5l-15 -15q-2 -2 -4 -3.5t-3 -2.5 q1 -4 2.5 -11.5t2.5 -11.5q7 -31 8 -35q6 -19 29 -67q27 -54 152 -314q1 -2 4.5 -7.5t6 -11t4.5 -11.5t6 -32q1 -4 2.5 -12.5t2.5 -12.5v-1l5 -4q6 4 10 6q2 1 22 1v1l1 1l17 17l2 8q2 6 5.5 14.5t4.5 10.5q5 12 18.5 42t20.5 46q11 25 108 250q4 11 26 59q14 30 19 48 q2 7 5.5 23.5t4.5 22.5v3q-12 3 -21 3q-1 0 -22.5 0.5t-34.5 2.5q-10 1 -16.5 10t-4.5 19q1 10 10 16.5t19 4.5q3 0 52 -3q24 0 42 -9q2 -1 11 -7q3 1 10 3t10 3q39 9 66 10q16 1 32 3q10 2 19 -4.5t10 -16.5q2 -10 -4 -19t-16 -10q-8 -1 -21 -1.5t-17 -0.5q-30 -2 -57 -9 q-3 -1 -9 -2.5t-9 -2.5l-1 -2v-3q-9 -44 -10 -46q-5 -16 -22 -56q-9 -19 -25 -59q-15 -35 -52 -119t-56 -130l-18 -40.5t-21 -48.5q-8 -17 -8 -19q1 -10 -7 -21q-8 -10 -11 -13h2h50h140q4 0 17 2t22 2q11 0 18.5 -7t7.5 -17q0 -11 -7 -18t-17 -7q-4 0 -16.5 -2t-21.5 -3 q-21 -1 -45.5 -1t-53.5 0.5t-44 0.5h-50q-13 -6 -31 3q-5 2 -8.5 5t-4.5 5l-1 2l-6 6h-5l-5 -5v-171h209h43q4 0 17 2t22 3q11 1 18.5 -6t8.5 -17q1 -11 -5.5 -18.5t-16.5 -8.5q-4 0 -17.5 -2t-22.5 -3h-16h-17.5h-13.5h-209v-175q18 -15 19 -16q33 -20 113 -24h25t26 -1 q16 4 32 -4q9 -4 12.5 -14.5t-1.5 -19.5q-10 -20 -32 -11h-13q-7 0 -24.5 -0.5t-27.5 0.5q-94 4 -137 32q-5 3 -17 13q-15 -12 -42 -25q-28 -13 -59 -17t-70 -3.5t-53 -0.5q-10 -1 -17.5 5.5t-8.5 17.5q-1 10 5.5 17.5t17.5 8.5q19 2 56.5 2t62.5 3.5t46 12.5q27 11 37 23 v176h-213q-56 0 -68 -4q-10 -3 -19 1.5t-12 14.5t1.5 19t14.5 12q22 7 83 7h213v171l-1 1v-1q-4 -7 -16 -13q-8 -4 -15.5 -4.5t-11.5 0.5l-4 1h-167q-50 0 -64 -4q-10 -3 -19.5 1.5t-12.5 14.5t1.5 19.5t14.5 12.5q20 6 80 6h167q2 0 5 -0.5t4 -0.5q0 1 2 3l10 9 q-1 4 -2.5 12t-2.5 12q-4 21 -5 24t-12 25q-17 35 -47.5 99t-56 116t-48.5 98q-24 51 -32 74q-3 10 -9 41q-2 16 -4 23q-8 4 -11 5q-41 16 -43 17q-37 10 -51 12q-7 1 -23 2t-24 2q-10 1 -16.5 9t-4.5 19z" />
<glyph unicode="&#xa6;" horiz-adv-x="210" d="M82 -70v626q0 10 8 18t18 8t17 -7.5t7 -18.5v-626q0 -11 -7 -18t-17 -7q-11 0 -18.5 7.5t-7.5 17.5zM82 956v627q0 10 7.5 17.5t18.5 7.5q10 0 17 -7t7 -18v-627q0 -11 -7 -18t-17 -7q-11 0 -18.5 7.5t-7.5 17.5z" />
<glyph unicode="&#xa7;" horiz-adv-x="792" d="M51 832v36q2 44 6 66q10 62 28 96q16 31 34 51q5 5 12.5 12t8.5 8q0 5 7 13l38 38q0 1 -5 6t-7 9q-15 23 -23 49q-10 34 -9 65q1 15 8 59q8 50 18 75q18 49 54.5 89.5t83.5 62.5q51 24 109.5 25.5t110.5 -19.5q41 -17 73 -52q22 -24 30 -41q5 -11 17 -58q3 -11 7 -31 q4 -25 1 -34q-1 -6 -7 -14q-5 -8 -15.5 -10t-18.5 3q-9 5 -11.5 15.5t3.5 19.5v1q-1 2 -1.5 4t-0.5 5q-4 20 -6 29q-12 46 -13 48q-5 11 -21 29q-23 26 -56 40q-91 37 -180 -5q-37 -18 -67.5 -51.5t-44.5 -72.5q-9 -26 -16 -67q-6 -39 -7 -52q-2 -22 7 -49q6 -21 17 -36 q1 -1 5 -5.5t7 -8.5q4 -5 6 -14q24 -7 28 -9q34 -18 106 -52q156 -75 243 -156q52 -48 77 -87q57 -89 56 -164q-4 -137 -59 -210q-6 -8 -35 -37l-1 -2l-4 -4l-24 -24l-15 -16q0 -1 1 -4q4 -4 9 -10q31 -39 40 -84q4 -20 4 -36q0 -14 -11 -69q-11 -56 -22 -82 q-37 -88 -128 -138q-64 -36 -143 -31t-137 52q-36 28 -51 60q-3 7 -10 30q-9 30 -15 60q-5 20 -3 30q2 12 8 18q5 9 15 11.5t19 -2.5t11.5 -15t-2.5 -19l-1 -2l3 -12q3 -19 13 -55q1 -4 2.5 -9t2 -8t1.5 -5q9 -20 38 -43q46 -36 109.5 -40.5t115.5 24.5q76 41 106 113 q9 21 19 73q10 55 10 59q0 11 -3 25q-8 36 -30 64q0 1 -2.5 3t-5.5 6t-6 9q-2 4 -5 13q-11 3 -21.5 8.5t-21.5 12.5t-15 9q-21 11 -60 31t-54 28q-77 41 -98 53q-142 83 -202 198q-27 51 -34 101zM101 839q6 -39 29 -84q52 -101 183 -179q36 -22 95 -52q17 -9 56 -28.5 t59 -30.5q43 -24 46 -25l16 16l22 22q4 6 5 7l33 33q44 59 48 181q1 58 -48 135q-20 31 -69 78q-82 77 -231 148q-83 40 -107 53q-2 1 -17 5q-20 -18 -35 -35q-3 -9 -8 -14l-22 -22q-16 -18 -27 -39q-13 -26 -22 -82q-5 -30 -6 -61v-9v-10v-7z" />
<glyph unicode="&#xa8;" horiz-adv-x="498" d="M56 1432q0 11 7.5 18.5t17.5 7.5t17.5 -7.5t7.5 -18.5q0 -10 -7 -17.5t-18 -7.5t-18 7.5t-7 17.5zM377 1432q0 10 7.5 17.5t17.5 7.5q11 0 18.5 -7.5t7.5 -17.5t-7.5 -17.5t-18.5 -7.5q-10 0 -17.5 7.5t-7.5 17.5z" />
<glyph unicode="&#xa9;" horiz-adv-x="1186" d="M46 1008q19 96 65 172q55 92 141 159t188 94q52 14 100 18q10 1 25 1t21 1q10 1 47 -2q67 -5 126 -22q121 -37 216.5 -126t139.5 -207q33 -87 36 -189q3 -109 -35 -211q-37 -99 -110 -178t-168 -126q-81 -39 -170 -51q-96 -13 -198 9q-140 30 -250 128.5t-155 234.5 q-48 144 -19 295zM95 999q-27 -137 17 -271q41 -123 141.5 -212t227.5 -117q91 -20 180 -8q79 10 155 46q87 42 152.5 114t100.5 162q35 93 32 193q-2 91 -33 173q-40 107 -126.5 188t-196.5 114q-55 16 -115 21q-35 2 -37 2q-11 -1 -27.5 -2t-20.5 -1q-42 -4 -92 -17 q-92 -24 -170.5 -85t-128.5 -145q-42 -71 -59 -155zM330 897q0 17 4 43q9 74 46 137q18 31 40 53q50 49 120 63q60 13 140 0q42 -8 79 -24q6 -2 18 -8q6 0 14 -9q4 -4 6.5 -9t2.5 -7v-3q3 -9 6 -21q1 -5 4.5 -19l5.5 -22q5 -31 5 -32q2 -10 -3 -19t-15 -11t-19.5 3.5 t-11.5 15.5q-2 7 -3.5 18.5t-2.5 15.5q-2 12 -8 38q0 2 -1 4t-1.5 3.5t-1 4.5t-1.5 5q-4 2 -14 6q-39 16 -67 21q-67 12 -122 0q-56 -11 -95 -50q-15 -14 -32 -42q-29 -50 -39 -118q-4 -28 -4 -38q0 -16 3 -38q8 -63 38.5 -116t80.5 -78q26 -12 40 -15q38 -10 73 -7 q46 3 77 16q32 14 64 44q4 3 12 12t12 13q7 7 17.5 7.5t17.5 -6.5t7.5 -17.5t-6.5 -17.5q-2 -2 -10.5 -12t-14.5 -16q-36 -34 -79 -53q-35 -15 -94 -19q-46 -3 -88 7q-22 5 -50 19q-63 32 -100 95.5t-46 137.5q-4 26 -4 45z" />
<glyph unicode="&#xaa;" horiz-adv-x="512" d="M28 1137q0 12 6 33q6 25 7 27q13 33 41 55q41 34 129 59q9 2 25.5 7.5t31 9.5t28.5 6q18 3 49 5q-2 24 -4 35q-7 55 -25 82q-10 16 -20 24q-34 32 -104 25q-46 -5 -76 -25q-8 -6 -12 -11q-3 -5 -13 -34l-1 -6q0 -6 -3 -13.5t-9 -14.5q-7 -8 -17 -8.5t-18 6.5q-7 7 -8 17 t4 17q0 1 1.5 6.5t3.5 10.5q12 37 18 46q12 17 26 26q39 27 99 32q91 10 143 -37q15 -14 28 -33q25 -38 33 -103q5 -32 5 -62q0 -1 0.5 -2.5t0.5 -2.5v-131v-36l1 -15q1 -5 2 -12t1 -8q6 -26 12 -39q1 -2 3.5 -6t2.5 -5q4 -1 42 9q10 2 19 -3t11 -15t-3 -19t-15 -11 q-2 0 -12 -3.5t-18 -5.5t-20.5 -2t-23.5 4q-20 8 -32 37q-9 23 -11 29l-4 -2q-9 -4 -29 -9q-3 -1 -6 -1q-1 -1 -3 -2.5t-5 -4t-5 -4.5q-26 -20 -42 -28q-30 -15 -66 -20q-29 -4 -49 -3q-54 3 -88 43q-19 21 -27 60q-4 20 -4 26zM78 1137q0 -3 3 -15q6 -27 16 -39 q21 -24 54 -26q6 -1 38 4q34 5 49 14q13 6 35 23l7 6q7 5 12 9q10 6 17 6q4 1 12 3.5t11 3.5l5 6l9 9l2 1q0 1 -0.5 2.5t-0.5 2.5v36v106q-28 -2 -43 -4q-5 -1 -79 -22q-78 -23 -111 -50q-19 -16 -26 -33q-2 -5 -6 -23t-4 -20z" />
<glyph unicode="&#xab;" horiz-adv-x="949" d="M70 714q0 10 7 17t18 7q10 0 36 2q7 21 13 30q4 6 8.5 10t8.5 6l4 2q19 15 38 32q84 73 175 174q18 20 52 60q17 20 18 23q2 5 6 17q2 6 7.5 23t8.5 26q3 10 12 14.5t19 1.5t14.5 -12t1.5 -19q-10 -32 -16 -49q-5 -21 -8 -26q-4 -7 -8.5 -12.5t-10 -10.5t-6.5 -7 q-25 -31 -53 -62q-97 -108 -180 -179q-7 -5 -19.5 -15.5t-18.5 -16.5q-3 -2 -5.5 -4t-4.5 -4l-2 -1q-1 -1 -2.5 -5t-3 -9.5t-3.5 -9.5v-3q6 -15 7 -17l2 -4t1 -3l1 -2q1 -1 8.5 -6t12.5 -9q43 -35 62 -52q72 -65 155 -161q15 -17 43 -53q21 -24 25 -32q3 -5 11 -34 q1 -4 4.5 -13t6.5 -17.5t4 -17.5q2 -10 -4.5 -19t-16.5 -10q-10 -2 -19 4.5t-10 16.5q-2 10 -12 42l-8 24q-2 4 -20 26l-42 51q-81 94 -150 156q-7 7 -61 50q-26 19 -28 22q-4 4 -6.5 9t-3.5 9l-1 4q-1 2 -2.5 6t-2.5 6q-24 -2 -37 -2q-10 0 -17.5 7.5t-7.5 18.5zM434 713 q-1 10 6 17t18 8l35 2l5 11l1 3q1 4 2.5 8.5t5.5 8.5l13 12q3 3 10 8.5t11 8.5q50 43 59 51q70 65 156 163q25 29 40 47q11 13 14 17l1 2q1 3 2.5 8t2.5 10q2 6 7 19.5t6 18.5q2 10 10 16t18 5t16.5 -10t4.5 -19q-2 -13 -14 -46q-1 -1 -2 -6.5t-3 -12t-6 -12.5 q-7 -11 -18 -22q-13 -17 -41 -49q-71 -81 -160 -165q-33 -31 -61 -54q-19 -16 -20 -17t-3 -2l-3 -2q0 -1 -1 -3.5t-2 -4.5l-7 -17q0 -1 1.5 -3t2.5 -4q1 -3 2 -5.5t2 -4.5t1.5 -4t1 -3t0.5 -2l1 -1l3 -2q3 -2 8 -6t10 -7q47 -37 79 -66q68 -63 146 -156q6 -7 12 -14.5 t13 -16.5t11 -14q17 -20 24 -32q1 -2 10 -29q2 -7 6.5 -23t7.5 -23q3 -10 -1.5 -19t-14.5 -12t-19.5 1.5t-12.5 14.5q-2 6 -6.5 22t-7.5 24q-1 4 -2.5 9t-2.5 8t-1 4q-1 2 -4 5.5t-7.5 8.5t-7.5 9q-24 30 -36 44q-82 97 -142 152q-43 39 -75 64l-6 4q-6 3 -12 8t-11 11 q-4 6 -7 12.5t-5 11.5t-2 6q-1 1 -2 3l-35 -1q-10 -1 -17 6t-8 18z" />
<glyph unicode="&#xac;" horiz-adv-x="1027" d="M25 1041q0 11 7.5 18t17.5 7h902h16q10 0 17 -7l9 -9q6 -6 8 -15l1 -9v-3v-421q0 -10 -7.5 -17.5t-17.5 -7.5t-17.5 7.5t-7.5 17.5v414h-1h-902q-10 0 -17.5 7t-7.5 18z" />
<glyph unicode="&#xad;" horiz-adv-x="33" />
<glyph unicode="&#xae;" horiz-adv-x="1186" d="M35.5 882q-3.5 160 73.5 294q54 93 141.5 161.5t189.5 95.5q50 14 100 18q10 1 25 1t21 1q11 1 48 -2q66 -5 125 -22q121 -37 216.5 -126t139.5 -207q33 -87 36 -189q3 -107 -36 -211q-37 -99 -110 -178t-168 -126q-81 -39 -169 -51q-117 -15 -231 17q-85 24 -159 75 q-93 64 -155 159q-84 130 -87.5 290zM85.5 883q3.5 -146 79.5 -264q55 -85 141 -145q65 -45 145 -68q102 -29 210 -15q79 10 155 46q87 42 152.5 114t100.5 162q35 93 32 193q-2 91 -33 173q-40 107 -127 188t-197 114q-56 17 -114 21q-35 2 -37 2q-11 -1 -28 -2t-21 -1 q-43 -4 -91 -17q-93 -25 -173 -87t-128 -146q-70 -122 -66.5 -268zM362.5 636q2.5 10 10.5 16q11 8 31 8h20.5t13.5 1l6 6l16 16v429q-16 16 -18 17l-3 -1h-5h-45q-25 4 -22 28q1 10 9 16t19 5q5 -1 18.5 0t20.5 1q9 3 22 -1q16 -5 28 -17l4 4q12 12 16 14q5 3 9.5 4t6.5 0 h3q24 2 32 2q6 0 22 0.5t25.5 0.5t24 -2t27.5 -5q57 -15 85 -64q13 -23 20 -54q5 -17 5 -33q0 -15 -5 -32q-9 -40 -28 -68q-13 -19 -33 -36q-10 -8 -16 -11l-5 -2q0 -1 -1 -3.5t-2 -4.5q-2 -4 -6 -8q0 -1 1 -2.5t1 -2.5q1 -7 10 -21q2 -3 20 -34q24 -42 37 -63 q14 -24 23 -36.5t23.5 -25.5t29.5 -16q9 -2 26 0q11 1 18.5 -6t8.5 -17q1 -11 -5.5 -18.5t-16.5 -8.5q-28 -3 -42 1q-27 6 -50.5 27t-32 34t-25.5 41q-5 9 -18 30.5t-20 33.5q-12 22 -19 33q-14 25 -16 35l-1 1q-3 1 -5 2t-3 2l-2 1q-6 1 -44 1h-56v-170l4 -4q4 -4 8 -8.5 t6 -6.5l3 -3q8 -1 28 -1q21 0 32 -6q9 -5 11.5 -15t-2.5 -19q-12 -20 -33 -10h-8q-9 0 -33 2t-42 25l-5 -5q-16 -16 -27 -19q-8 -2 -18 -2.5t-15.5 0t-11.5 -0.5h-8q-21 -11 -33 8q-6 8 -3.5 18zM510 903q10 0 28 -0.5t28 -0.5q45 0 52 -1q5 -1 13 -3q3 8 11 16q10 10 16 10 q1 1 4 3t4 3q13 10 24 26q12 18 20 50q4 20 4 21q0 3 -4 23q-4 21 -14 39q-18 31 -55 41q-14 4 -86 4q-17 0 -26 -1h-2q-1 -1 -3 -4q-10 -10 -14 -15v-211z" />
<glyph unicode="&#xaf;" horiz-adv-x="605" d="M60 1379q-1 10 5.5 18t16.5 10q1 0 6.5 1t10.5 2h37h260q88 0 98 1q2 0 5 1t7.5 2t8.5 2q10 2 19 -4t11 -16t-4 -19t-16 -11l-9 -2q-10 -2 -17 -3q-12 -1 -103 -1h-260q-5 0 -16.5 1t-15.5 0q-1 0 -3 -0.5l-6 -1.5t-7 -1q-10 -1 -18 5t-10 16z" />
<glyph unicode="&#xb0;" horiz-adv-x="449" d="M35.5 1340q3.5 86 62.5 142q35 32 79 42q9 2 39 5q17 2 44 -3q49 -8 86.5 -40.5t54.5 -79.5q11 -33 13 -71q0 -13 -2 -27q-6 -49 -33 -90t-71 -62q-26 -13 -56 -16q-77 -9 -132 27q-15 10 -33 28q-55 59 -51.5 145zM85.5 1338.5q-2.5 -66.5 38.5 -109.5q14 -14 23 -20 q39 -26 99 -19q25 3 40 11q66 33 76 112q2 18 2 21q-2 31 -10 55q-12 34 -40 58t-62 30q-23 4 -29 3q-5 -1 -12.5 -2t-13 -1.5t-9.5 -1.5q-34 -8 -56 -29q-44 -41 -46.5 -107.5z" />
<glyph unicode="&#xb1;" horiz-adv-x="878" d="M68 368q0 10 7 17t17 7h694q11 0 18 -7t7 -17q0 -11 -7.5 -18.5t-17.5 -7.5h-694q-10 0 -17 7.5t-7 18.5zM68 916q0 11 7 18.5t17 7.5h323v322q0 10 7 17t18 7t18 -7t7 -17v-322h321q10 0 17.5 -7.5t7.5 -18.5q0 -10 -7 -17t-18 -7h-321v-320q0 -11 -7.5 -18.5 t-17.5 -7.5t-17.5 7.5t-7.5 18.5v320h-323q-10 0 -17 7t-7 17z" />
<glyph unicode="&#xb2;" horiz-adv-x="361" d="M-24.5 1510.5q-1.5 10.5 4.5 18.5v1q1 2 2 6l2 8q12 42 16 50q13 25 45 42t85 21q42 2 56 1q79 -7 119 -63q19 -26 29 -73q4 -24 4 -30q0 -8 -3 -23q-3 -23 -9 -43q-19 -72 -84 -131q-19 -18 -68.5 -57.5t-71.5 -63.5q-30 -33 -42 -59q-5 -13 -9 -28q-4 -11 -5 -19h2 q2 1 3 1h191q34 0 49 3q3 1 6 1q1 3 4 10t5 10q15 38 31 94q3 10 12 15t19 2t15 -12t2 -19q-15 -54 -33 -99q-2 -4 -5 -11.5l-5 -12.5q1 -10 -15 -20q-6 -4 -12 -5.5t-10 -2t-5 -0.5q-16 -3 -58 -3h-191q-10 -4 -24 1q-7 2 -17 13q-13 4 -16 24v6v5t0.5 3.5t1 2.5t0.5 2l1 1 l6 24q8 26 12 35q16 35 49 71q26 29 78 70t66 54q54 51 70 109q6 24 8 37q2 16 2 17q0 3 -3 18q-6 32 -21 53q-13 18 -36 30t-47 14q-14 1 -47 -1q-45 -4 -66 -16q-18 -10 -23 -20t-13 -42q-4 -21 -12 -31q-6 -8 -16.5 -9.5t-18.5 4.5t-9.5 16.5z" />
<glyph unicode="&#xb3;" horiz-adv-x="365" d="M-25 1072q0 10 7.5 17.5t17.5 7.5q6 0 14 -2q10 -4 21 -12q16 -13 24 -16q32 -15 78 -17q86 -2 139 40q44 34 57 101q7 35 7 38q0 1 -0.5 3t-1.5 5.5t-1 7.5q-5 27 -17 48q-18 30 -52 43q-19 6 -24 7q-10 0 -21 6q-3 -1 -8.5 -1t-8.5 -1q-63 -9 -72 -9q-10 0 -17 7.5 t-7 18.5q0 10 7 17t17 7q1 0 65 8q3 0 13 2q1 4 8 23q0 9 9 20q3 4 5.5 6.5t5.5 4.5l2 2q12 12 16 19q10 15 19 50l2 8l1.5 6t0.5 3q0 2 -3 13q-7 26 -26 41q-10 7 -29 12q-15 4 -58 2q-30 -1 -74 -20q-20 -9 -27 -22q0 -1 -1 -3.5t-2.5 -6.5t-3.5 -8q-6 -14 -24 -38 q-7 -8 -17 -9.5t-18 5.5q-19 16 -3 35q10 11 16 27q7 18 11 24q18 29 49 42q51 22 92 23q53 3 72 -2q28 -8 46 -21q33 -25 45 -68q5 -20 5 -26q0 -4 -5 -29q-9 -36 -26 -64q-10 -16 -22 -28q-7 -7 -9 -8q0 -3 -1 -6l-6 -15q10 -3 23 -8q52 -20 78 -63q16 -26 23 -65 q4 -20 4 -27q0 -16 -7 -46q-17 -83 -76 -130q-68 -53 -170 -51q-61 2 -101 22q-11 5 -31 20q-1 1 -4 3q-1 2 -2 2q-10 1 -17 8t-7 17z" />
<glyph unicode="&#xb4;" horiz-adv-x="498" d="M90.5 1401q-1.5 10 5.5 18q5 6 14.5 16.5t13.5 15.5q68 82 102 124q4 5 18.5 23.5t23.5 28.5q6 14 22 23q5 3 9.5 4.5t8.5 1.5h6.5h5.5l2 -1q6 0 17 1t20 1.5t17 0.5q10 0 17.5 -7t7.5 -18t-7.5 -18t-17.5 -7q-16 0 -50 -2q-3 0 -6.5 -0.5t-5.5 -0.5q-4 -6 -8 -11 q-8 -9 -23.5 -28t-17.5 -22q-68 -84 -102 -125q-5 -6 -14.5 -16.5t-13.5 -15.5q-16 -19 -35 -3q-8 7 -9.5 17z" />
<glyph unicode="&#xb5;" horiz-adv-x="855" d="M42 252v67q0 38 5 50q8 15 17 23q-3 13 -5 42q-1 14 -7 138q-1 22 -1 130v209q0 65 -1 97q0 3 -2 24.5t-2 33.5q0 11 7.5 18.5t17.5 7.5t17.5 -7.5t7.5 -18.5q0 -9 2 -27.5t2 -27.5q1 -34 1 -100v-209q0 -107 1 -128q6 -132 6 -135q1 -14 5 -38q0 -1 1 -3v-1 q2 -1 4.5 -2.5t4.5 -2.5q18 -10 32 -15q2 -1 6.5 -2t10 -3t10.5 -5q4 -2 7.5 -5t4.5 -5l2 -2q1 -1 11 -7q15 -9 38 -14q18 -3 58 2q80 11 144 54q28 20 40 31q11 11 21 19q7 5 30 13q3 1 28 11l8 2q1 1 4.5 5t6.5 7l3 3l3 2v4v579q0 10 7.5 17.5t17.5 7.5t17.5 -7.5 t7.5 -17.5v-579q2 -5 0 -15q0 -55 18 -101q9 -26 26 -36q2 -2 30 4q14 2 35 10l10 3q15 10 44 66q11 21 33 10q9 -4 12.5 -14.5t-1.5 -19.5q-2 -3 -7.5 -15t-9.5 -19t-10.5 -17t-15 -18.5t-18.5 -14.5q-7 -5 -21 -9q-24 -7 -41 -11q-1 0 -8 -2t-12.5 -2.5t-13 -1t-15.5 1.5 t-16 6q-32 18 -48 61q-13 33 -17 66q-6 -3 -12 -3q-3 -1 -12.5 -4.5t-15.5 -5.5q-15 -5 -17 -6q-9 -9 -17 -16q-10 -10 -45 -35q-74 -51 -166 -63q-49 -7 -75 -1q-35 8 -55 20l-6 4q-7 4 -11 8q-2 2 -3 4l-2 2q-2 1 -9 3t-12 4q-9 3 -38 18q-1 0 -2 1t-3 1l-1 -1 q-1 -3 -1 -30v-67q0 -26 5 -161q1 -15 1.5 -53.5t2.5 -58.5l7 -17q8 -18 8 -37q0 -11 -7 -18t-18 -7t-18 7t-7 18q0 1 -7 17t-8 34q-2 21 -2.5 59t-1.5 53q-5 135 -5 164z" />
<glyph unicode="&#xb6;" horiz-adv-x="769" d="M28 1148q-1 7 0 13t2 9l2 2q4 13 12 35q24 67 55 121q21 38 33 52l27 27l90 91q32 32 58 46q36 19 82 21h12h12.5h9.5q44 2 78 -8q14 -4 35 -18l2 2q25 17 46 22q24 6 69 8q7 0 27.5 0.5t30.5 1.5q24 3 28 -22q1 -11 -5 -19t-16 -9q-8 -1 -64 -1q-40 -2 -58 -7 q-14 -3 -29 -15q-3 -3 -5 -4v-1494v-90q0 -15 -1 -23q12 -9 20 -12q22 -9 93 -9q38 0 43 -1q10 -2 15.5 -11t3.5 -19t-11 -15.5t-19 -3.5h-32q-4 0 -19.5 -0.5t-23.5 0t-21.5 1.5t-25 4t-22.5 8q-12 6 -26 14q-26 -19 -62 -25q-16 -3 -57 -3q-39 0 -48 1q-40 5 -74 28 q-19 -13 -33 -17q-32 -11 -99 -11h-37q-10 -2 -19 3.5t-11 15.5t3 19t15 11q9 2 18 2.5t18.5 -0.5t12.5 -1q56 0 83 9q13 4 24 12v5q0 7 -0.5 21.5t-0.5 22.5v838q0 2 0.5 5.5t0.5 4.5q-1 1 -3 2t-4 3l-30 31l-109 109q-3 2 -16 25q-3 6 -9.5 18.5t-9.5 18.5q-22 45 -44 103 q-15 42 -17 52zM78 1153q1 -5 3.5 -11.5t5.5 -14.5t5 -13q18 -51 42 -99q3 -6 9 -17.5t9 -17.5q7 -14 8 -15l108 -108l31 -30q12 -6 18 -23q2 -5 2 -28v-838q0 -7 0.5 -21.5t0.5 -22.5q0 -1 1 -5q28 -19 54 -22h42q35 0 49 2q24 4 44 19l2 4v19v91v1491l-3 4q-18 11 -23 13 q-21 7 -62 5h-33q-34 -2 -61 -15q-14 -7 -45 -38l-91 -90q-17 -17 -23 -24q-9 -10 -29 -45q-26 -44 -52 -114q-4 -11 -10 -31q0 -1 -1 -2.5t-1 -2.5z" />
<glyph unicode="&#xb7;" horiz-adv-x="195" d="M72 798q0 10 8 18t18 8t17 -7.5t7 -18.5t-7 -18t-17 -7q-11 0 -18.5 7.5t-7.5 17.5z" />
<glyph unicode="&#xb8;" horiz-adv-x="687" d="M213 -26q2 10 11 15t19 3q11 -2 26 -7t19 -6q81 -17 139 8q27 13 37 26q7 11 11 26q6 22 6 25l-2 10q-5 20 -10 28q-21 28 -60 26h-48h-1q-2 -1 -4 -1t-4.5 -0.5t-6.5 0.5l-8 2l-1 -1q-23 -15 -27 -18q-7 -7 -17.5 -6.5t-17.5 7.5t-6.5 17.5t7.5 17.5q6 5 34 25l6 3v4 q5 25 7 33q4 14 12 30q10 26 19 43q4 9 14.5 12.5t19.5 -1.5q9 -4 12 -14.5t-2 -19.5q-4 -7 -17 -40q-2 -3 -3.5 -7t-3 -6.5t-2.5 -5t-1 -3.5q-2 -7 -4 -21h40q65 3 103 -47q12 -16 19 -47q4 -12 3 -22q-1 -15 -8 -36q-10 -31 -19 -43q-19 -25 -57 -42q-74 -32 -169 -11 q-11 2 -27 7.5t-20 6.5q-10 2 -15 11t-3 19z" />
<glyph unicode="&#xb9;" horiz-adv-x="322" d="M-24 1524q-3 10 2 19t15 12q8 2 26 8l27 9q23 6 76 15q32 6 46 3q12 0 23 -10q7 -6 9.5 -12t1.5 -9v-3v-14.5t1 -11.5q1 -15 1 -40v-400q0 -2 -0.5 -6t-0.5 -5q4 -2 14 -6q21 -10 43 -11q6 0 29.5 0.5t35.5 -1.5q25 -4 22 -28q-1 -11 -9 -17t-19 -4q-8 1 -28.5 0.5 t-34.5 0.5q-28 1 -58 14q-18 7 -21 9q-12 -6 -17 -8q-27 -12 -57 -15q-18 -2 -50 -1t-43 -1q-24 -3 -28 22q-2 11 4.5 19t16.5 9q20 3 51 2t44 0q21 1 43 11l4 2t4.5 2t3.5 2q0 2 0.5 5t0.5 5v400q0 26 -1 36v15q-8 0 -23 -3q-45 -7 -70 -14q-8 -2 -25.5 -8.5t-27.5 -9.5 t-19 2.5t-12 15.5z" />
<glyph unicode="&#xba;" horiz-adv-x="554" d="M40 1145q-1 17 7 64q16 98 78 154q45 41 102 48q9 1 23 2t17 1q21 3 54 -3q86 -14 137 -80q17 -22 31 -54t21 -77q5 -35 5 -46q0 -18 -10 -75q-22 -119 -112 -163q-33 -16 -69 -21q-102 -13 -170 32q-53 34 -82.5 93.5t-31.5 124.5zM90 1147q2 -54 26 -102.5t65 -75.5 q53 -34 136 -24q26 3 54 16q66 32 85 128q9 52 9 65q0 11 -4 37q-7 39 -18 66q-12 26 -24 43q-40 51 -106 62q-28 4 -39 3q-9 -1 -23 -2t-17 -1q-43 -6 -76 -36q-49 -43 -62 -125q-7 -44 -6 -54z" />
<glyph unicode="&#xbb;" horiz-adv-x="947" d="M50 293q1 5 16 50q1 2 2 7t3 11t5 12q5 10 31 39q6 7 17 20t20 23.5t17 19.5q78 85 129 131q3 3 30 26.5t41 35.5q6 5 13 10.5t8 6.5l2 6l9 21q0 1 -1.5 3t-2.5 4q-2 4 -4.5 10.5t-3.5 8.5q-1 1 -7 5q-2 1 -10.5 7t-12.5 10q-33 26 -63 54q-79 74 -156 166 q-6 7 -17.5 21.5t-17.5 22.5q-20 23 -22 28q-4 6 -6 13t-2.5 12.5t-1.5 7.5q-1 4 -4.5 13t-6.5 17.5t-4 17.5q-2 10 4.5 19t16.5 10q10 2 19 -4.5t10 -16.5q2 -10 12 -42q2 -5 3.5 -10.5t2.5 -8.5t1 -4q1 -2 3.5 -5t6.5 -7.5t7 -8.5q11 -15 35 -43q76 -90 152 -162 q19 -18 59 -50q3 -3 10.5 -8.5t11.5 -8.5q9 -2 17 -13q3 -4 14 -31q0 -1 1 -2l34 1q11 0 18 -7t7 -17q0 -11 -7 -18.5t-17 -7.5l-34 -1l-6 -15q0 -4 -8 -16q-5 -7 -11.5 -12.5t-12 -8.5t-6.5 -4q-50 -44 -70 -62q-50 -45 -125 -128q-11 -12 -31 -35.5t-22 -26.5 q-4 -5 -9.5 -11t-9.5 -10.5t-6 -7.5q-1 -1 -2 -4.5t-2 -8.5t-3 -10q-13 -37 -15 -46q-2 -10 -11 -15t-19 -3t-15 11t-3 19zM411 1134q-2 10 3.5 19t15.5 11t19 -3.5t11 -15.5q2 -7 7 -23t7 -22q2 -5 3.5 -11t2.5 -9t1 -4q2 -3 17 -22q6 -8 13 -16.5t15.5 -18.5t13.5 -16 q88 -102 137 -146q38 -35 69 -59q3 -2 10 -7.5t10 -7.5q7 0 17 -13q5 -7 13 -29q2 -2 3 -4l32 1q11 0 18 -7t7 -17q0 -11 -7 -18.5t-17 -7.5l-33 -1q-1 -2 -2.5 -6t-2.5 -6v-3q-1 -3 -3 -7.5t-6 -8.5q-3 -4 -6.5 -7t-6.5 -5l-2 -2q-3 -3 -10 -8t-10 -8q-21 -17 -61 -53 q-59 -54 -153 -159q-7 -8 -19.5 -22t-18.5 -22q-16 -18 -17 -20q-1 -1 -2 -4.5t-2 -9.5t-3 -11q-11 -32 -11 -34q-1 -10 -10 -16.5t-19 -4.5t-16 10t-5 18q1 8 3.5 16t5.5 15.5t4 10.5q7 26 12 34q1 2 22 27q7 8 20 23.5t19 23.5q82 94 157 162q20 18 62 54q4 3 10.5 8.5 t9.5 8.5t7 5l1 2q0 1 1 2.5t1 3.5q1 3 3.5 9t3.5 9l-4 8q-2 4 -4 10.5t-3 7.5t-7 5q-3 3 -10.5 7.5t-10.5 7.5q-21 15 -72 62q-64 58 -142 150q-17 19 -44 54q-18 22 -21 27q-2 3 -11 35q-1 4 -7 21t-8 27z" />
<glyph unicode="&#xbc;" horiz-adv-x="1209" d="M59 1425q-3 10 2.5 19t15.5 12q6 2 23.5 8t28.5 9q15 4 41.5 9t32.5 6q35 6 46 4q13 0 25 -10q7 -6 10 -12t2 -9l-1 -3q1 -11 1 -25q1 -32 1 -95v-332q0 -5 -0.5 -13.5t-0.5 -11.5q26 -17 61 -17h40q22 0 31 -5q22 -13 10 -34q-11 -20 -32 -11h-9h-40q-49 0 -86 24l-6 -3 q-29 -15 -63 -20q-10 -2 -37.5 -1.5t-34.5 0.5q-20 0 -23 -1q-10 -2 -19 3.5t-11 15.5t3 19t15 11q4 1 34 1q8 0 32 0.5t35 1.5q19 3 46 15l4 2q0 5 0.5 13t0.5 11v332q0 62 -1 92v12q-9 0 -24 -3q-9 -2 -23.5 -4.5t-25.5 -4.5t-21 -5q-8 -2 -25.5 -8t-26.5 -9q-10 -3 -19 2 t-12 15zM123 211l842 1202l35 49q15 20 34 6q20 -15 6 -34l-34 -50l-842 -1201q-6 -8 -16.5 -10t-18.5 4q-20 15 -6 34zM746 356q-1 7 0 10l2 4q1 3 2.5 9t2.5 9l10 35q2 4 14 20l21 30q22 32 65.5 95.5t65.5 94.5q6 9 29.5 44t37.5 53q14 19 35 4q8 -6 9.5 -16.5 t-4.5 -18.5q-17 -21 -66 -95q-22 -31 -65.5 -94t-65.5 -95q-4 -5 -11 -15.5t-10 -15.5l-10 -14l-6 -22h209v52q0 87 12 125q3 10 12.5 14.5t19.5 1.5t14.5 -12t1.5 -19q-10 -30 -10 -110v-52h91q10 0 17.5 -7.5t7.5 -18.5q0 -10 -7 -17t-18 -7h-91v-148q14 -10 43 -10 q37 0 45 -2q10 -2 15 -11t3 -19t-11 -15t-19 -3h-33q-40 0 -67 17q-17 -12 -38.5 -16t-35.5 -2t-27 0q-10 -2 -19 4.5t-10 16.5q-2 10 4.5 19t16.5 10q16 2 35 2t30 1t18 7v1v148h-215q-26 -13 -44 14q-5 7 -6 14z" />
<glyph unicode="&#xbd;" horiz-adv-x="1215" d="M62 1439.5q3 10.5 12 14.5q2 1 35 12q34 11 100 23q32 6 48 2q11 1 22 -11q6 -6 8 -11.5t1 -8.5v-2q1 -11 1 -27v-89v-344q0 -2 0.5 -8t0.5 -9q2 -1 5.5 -3t5.5 -3q22 -11 64 -11h27q17 0 27 -4q22 -9 13 -33q-4 -9 -13 -13t-19 0h-8h-27q-54 0 -86 16q-5 2 -15 8 q-2 -1 -4.5 -2.5t-4 -2t-3.5 -1.5l-4 -2q-28 -12 -53 -15q-10 -1 -53 -1h-27h-7.5h-5.5l-2 -1q-10 -2 -19 3.5t-11 15.5t3 19t15 11q8 2 27 2h27q40 0 47 1q23 3 39 11q1 1 3 1.5t3.5 1.5t3 1.5t2.5 1.5q0 2 -0.5 7.5t-0.5 8.5v344v89v12q-8 0 -20 -3q-81 -17 -95 -21 q-22 -8 -26 -10q-9 -5 -19.5 -1.5t-14.5 12.5q-5 9 -2 19.5zM121 211l876 1251q6 8 16.5 10t18.5 -4t10 -16.5t-4 -18.5l-876 -1250q-6 -8 -16.5 -10t-18.5 4q-20 15 -6 34zM772 624.5q-2 10.5 4 18.5q1 1 5 16q7 35 15 49q12 26 43 42q25 14 73 20q129 17 187 -59 q21 -27 31 -75q4 -24 4 -29q0 -8 -3 -23q-5 -28 -7 -38q-20 -76 -86 -137q-19 -17 -69 -57t-72 -64q-29 -32 -40 -56q-5 -10 -10 -30q-1 -3 -2.5 -10t-2.5 -10h3h102q76 0 113 1q19 0 32 4l1 1h1q1 3 4 9.5t4 10.5q1 1 20 57q9 30 10 34q2 10 11 15.5t19 3.5t15.5 -10.5 t3.5 -18.5q-3 -16 -12 -40q-15 -47 -20 -60q-3 -8 -11 -24q1 -9 -13 -19q-11 -7 -21 -7q-28 -6 -43 -6q-38 -1 -114 -1h-102q-8 -3 -21 2q-4 1 -7.5 3t-5.5 4.5t-3.5 4l-2.5 2.5l-1 2q-11 4 -14 22v6v5t0.5 3.5t1 2.5t0.5 2l1 1q1 4 3 11.5t3 11.5q7 26 13 39q17 35 48 67 q26 29 77.5 70t66.5 55q55 52 71 113q3 11 7 33q0 3 0.5 6.5t1 5.5t0.5 3q0 7 -3 20q-7 36 -21 54q-41 53 -142 40q-37 -5 -55 -15q-17 -9 -22 -20q-3 -6 -12 -39q0 -1 -1.5 -7.5t-4 -13t-6.5 -12.5q-6 -8 -16.5 -10t-18.5 4t-10 16.5z" />
<glyph unicode="&#xbe;" horiz-adv-x="1217" d="M43 986q14 19 35 4q31 -24 49 -31q34 -12 84 -10q35 3 38 3q58 10 97 50q31 32 41 78q2 10 6 32q0 3 0.5 6.5t0.5 5.5l1 2q-2 34 -17 61.5t-42 41.5q-14 7 -34 12q-12 -1 -24 6q-3 0 -9 -0.5t-9 -1.5q-56 -8 -70 -8q-10 0 -17.5 7.5t-7.5 17.5t7.5 17.5t17.5 7.5 q8 0 64 7q2 0 6.5 0.5t6.5 1.5q5 12 8 22q1 10 10 22l14 14q14 17 17 21q6 11 16 44q5 15 5 19l-1 2q0 2 -1 5l-2 6q-10 31 -26 42q-12 7 -29 12q-12 3 -56 1q-35 -2 -65 -15q-27 -13 -36 -24q-1 -2 -10.5 -24t-22.5 -36q-7 -7 -18 -7.5t-18 6.5t-7.5 17.5t6.5 17.5 q4 4 12 22.5t17 31.5q18 25 56 42q39 17 83 19q48 2 71 -3q29 -8 45 -19q33 -23 46 -69q6 -24 6 -26q0 -9 -7 -33q-13 -43 -21 -56q-12 -19 -24 -31q-3 -3 -6 -5.5t-4 -3.5q0 -1 -2 -7q-1 -2 -2.5 -7t-2.5 -8q28 -8 41 -15q39 -21 61.5 -60.5t24.5 -84.5q1 -10 -3 -25 q0 -1 -2 -14t-4 -20q-14 -61 -54 -102q-47 -50 -125 -64q-6 -1 -44 -4q-64 -2 -103 13q-23 8 -63 39q-19 14 -4 35zM123.5 193q-2.5 10 3.5 18l843 1203l34 48q6 8 16.5 10t18.5 -4q20 -15 6 -34l-34 -48l-843 -1203q-15 -20 -34 -6q-8 6 -10.5 16zM758.5 359.5 q-1.5 7.5 0.5 10.5l2 4q1 3 2.5 9.5t2.5 9.5q8 31 9 34q2 5 5 9t5.5 6.5t2.5 3.5q4 5 10.5 15t9.5 15q22 31 65.5 93.5t65.5 94.5q7 11 22 32.5t23 32.5q1 1 9.5 15t15.5 22t17.5 9t18.5 -6t8.5 -17.5t-6.5 -18.5q-3 -4 -6.5 -8.5t-8 -11.5t-7.5 -12q-8 -11 -23 -32.5 t-22 -32.5q-88 -126 -131 -189q-3 -5 -9.5 -15t-10.5 -15l-8 -11q-4 -7 -7 -24h210v96v28q1 15 9 45q1 4 2 7.5t2 5.5t1.5 4t0.5 3q1 10 10 16.5t19 4.5t16 -10t5 -18q-1 -8 -4.5 -17t-3.5 -10q-6 -21 -7 -36v-23v-96h90q11 0 18 -7t7 -17q0 -11 -7.5 -18.5t-17.5 -7.5h-90 v-148q13 -9 51 -9q1 0 7 0.5t11 1t13 -1t15 -5.5q9 -4 12 -14.5t-2 -19.5q-11 -21 -33 -11h-23q-52 0 -76 16q-7 -5 -15 -8q-15 -6 -33 -8t-30 -1t-25 0q-11 -1 -18.5 6t-8.5 17q-1 11 6 18.5t17 8.5q11 1 28 1t27.5 0.5t17.5 3.5q3 1 9 6v147h-214q-24 -11 -44 12 q-6 8 -7.5 15.5z" />
<glyph unicode="&#xbf;" horiz-adv-x="644" d="M38 121q0 15 8 60q14 79 52 130q30 40 104.5 104.5t98.5 105.5q7 11 12 22.5t8.5 26t6.5 25t4.5 28t2.5 26t1.5 29.5t0.5 27.5v30v28.5q0 10 7 17t18 7q10 0 17.5 -7t7.5 -18q0 -6 0.5 -35.5t0 -40t-1.5 -37t-4 -41.5t-7.5 -37t-12.5 -40.5t-18 -36.5 q-31 -52 -107.5 -118.5t-98.5 -95.5q-32 -41 -43 -108q-7 -44 -7 -52q0 -7 4 -33q3 -28 10 -48q21 -69 79 -114q52 -41 123 -46q15 -1 49 1q91 7 144 45q24 17 35 34q5 8 11 27q5 16 13 50l6 27l2 8q-1 1 -3 5q-6 8 -3.5 18t10.5 16t18.5 3.5t16.5 -10.5q10 -17 11 -27 q1 -11 -3 -23q0 -2 -2 -12.5t-4 -16.5q-2 -11 -8 -30.5t-7 -22.5q-10 -29 -16 -39q-15 -25 -47 -47q-66 -47 -171 -54q-44 -3 -56 -2q-88 7 -150 56q-70 56 -96 139q-4 11 -11 56q-5 27 -5 40z" />
<glyph unicode="&#xc0;" horiz-adv-x="1234" d="M3 309q-1 11 4.5 19t16.5 9h26q14 0 40 2q31 3 61 12q5 1 15 5l5 8q2 8 4.5 27.5t5.5 30.5q4 18 21 62q7 19 21.5 57t21.5 57q1 2 4 10.5t4.5 12.5t5 12t6.5 13t7.5 12t9.5 12.5t11 10.5l2 3q1 6 2.5 17t2.5 17l2 17q3 17 5 27q2 9 7.5 23t6.5 17q4 11 12 32t12 32 q84 222 125 333q38 102 41 112q8 24 13 36q1 11 10 22q3 4 6.5 6.5t5.5 2.5l2 1q6 4 16 9q34 20 38 22v2l1 2v28q0 19 0.5 55t0.5 54q0 11 7 18t18 7t18 -7t7 -18q0 -18 -0.5 -54.5t-0.5 -54.5v-29l-1 -3q19 -11 23 -22q3 -7 6.5 -18t5.5 -16q7 -19 46 -128 q40 -111 143 -406q4 -12 12 -34q6 -16 8 -26q1 -8 3.5 -23.5t3.5 -21.5v-8q1 -1 4 -2t5 -3q7 -5 10.5 -11.5t3.5 -10.5v-3q9 -25 24 -69.5t21 -61.5q25 -71 26 -77q3 -15 6.5 -40.5t4.5 -32.5q0 -2 1 -7t1 -8l1 -1h1q20 -11 25 -13q51 -23 109 -28q6 -1 19.5 -1.5t20.5 -0.5 q19 0 28 -4q9 -5 12.5 -14.5t-0.5 -18.5t-13 -13t-19 0q-4 1 -11 1q-6 1 -19.5 1.5t-20.5 0.5q-67 5 -126 31q-5 2 -14 7.5t-12 6.5q-20 -22 -39 -31q-15 -8 -58 -13q-23 -3 -63 -3t-55 -1q-10 -1 -17.5 5.5t-8.5 17.5q-1 10 5.5 17.5t17.5 8.5q18 1 57 2t59 3q30 4 41 9 q15 7 31 25q-1 2 -1 6.5t-1 6.5q-1 5 -4.5 32t-6.5 39q-1 5 -24 71q-7 21 -22 63.5t-22 63.5l-6 -7q-4 -9 -19 -15q-5 -2 -10 -2.5t-7 -0.5l-3 1h-444q-37 0 -45 1q-16 2 -25 5q-11 -12 -29 -59q-7 -19 -21.5 -56.5t-21.5 -56.5q-18 -51 -19 -56q-2 -8 -4.5 -28t-5.5 -31 q0 -1 -0.5 -2.5t-0.5 -2.5q9 -4 31 -6q21 -2 63 -3t61 -2q11 -1 17.5 -8.5t5.5 -17.5t-8.5 -17t-18.5 -6q-18 1 -60 1.5t-65 2.5q-44 6 -60 18q-12 -4 -19 -6q-31 -10 -71 -13q-1 0 -18.5 -1.5t-25.5 -1.5h-20q-24 -3 -28 22zM345 685q1 0 3.5 -0.5t4.5 -0.5q11 -1 38 -1 h445l3 3l14 14v7l-6 45q0 1 -1 3.5t-2.5 6t-2.5 7.5q-8 24 -12 35q-101 291 -143 405q-9 25 -25 70.5t-20 56.5q-1 3 -5 14t-6 16h-1q-1 0 -2 1q-2 -1 -16 -9t-22 -13q-10 -6 -16 -9l-2 -6q-1 -3 -6 -15.5t-7 -19.5q-7 -19 -20.5 -57t-20.5 -57q-22 -60 -64 -171t-61 -162 q-4 -10 -12 -31.5t-12 -32.5q-7 -18 -12 -35q-3 -12 -7 -38q-1 -5 -2 -13t-2 -13zM504 1767q3 10 12 14.5t19 1.5q5 -2 18.5 -3.5t20.5 -2.5q16 -3 47 -8.5t46 -7.5q46 -7 51 -9t40 -21q9 -5 11.5 -15t-2.5 -19t-15 -11.5t-19 2.5q-19 12 -32 17q-4 1 -10.5 2t-16 2.5 t-15.5 2.5q-15 2 -46.5 7.5t-47.5 8.5q-42 7 -45 8q-10 3 -14.5 12t-1.5 19z" />
<glyph unicode="&#xc1;" horiz-adv-x="1234" d="M3 309q-1 11 4.5 19t16.5 9h26q14 0 40 2q31 3 61 12q5 1 15 5l5 8q2 8 4.5 27.5t5.5 30.5q4 18 21 62q7 19 21.5 57t21.5 57q1 2 4 10.5t4.5 12.5t5 12t6.5 13t7.5 12t9.5 12.5t11 10.5l2 3q1 6 2.5 17t2.5 17l2 17q3 17 5 27q2 9 7.5 23t6.5 17q4 11 12 32t12 32 q84 222 125 333q38 102 41 112q8 24 13 36q1 11 10 22q3 4 6.5 6.5t5.5 2.5l2 1q6 4 16 9q34 20 38 22v2l1 2v28q0 19 0.5 55t0.5 54q0 11 7 18t18 7t18 -7t7 -18q0 -18 -0.5 -54.5t-0.5 -54.5v-29l-1 -3q19 -11 23 -22q3 -7 6.5 -18t5.5 -16q7 -19 46 -128 q40 -111 143 -406q4 -12 12 -34q6 -16 8 -26q1 -8 3.5 -23.5t3.5 -21.5v-8q1 -1 4 -2t5 -3q7 -5 10.5 -11.5t3.5 -10.5v-3q9 -25 24 -69.5t21 -61.5q25 -71 26 -77q3 -15 6.5 -40.5t4.5 -32.5q0 -2 1 -7t1 -8l1 -1h1q20 -11 25 -13q51 -23 109 -28q6 -1 19.5 -1.5t20.5 -0.5 q19 0 28 -4q9 -5 12.5 -14.5t-0.5 -18.5t-13 -13t-19 0q-4 1 -11 1q-6 1 -19.5 1.5t-20.5 0.5q-67 5 -126 31q-5 2 -14 7.5t-12 6.5q-20 -22 -39 -31q-15 -8 -58 -13q-23 -3 -63 -3t-55 -1q-10 -1 -17.5 5.5t-8.5 17.5q-1 10 5.5 17.5t17.5 8.5q18 1 57 2t59 3q30 4 41 9 q15 7 31 25q-1 2 -1 6.5t-1 6.5q-1 5 -4.5 32t-6.5 39q-1 5 -24 71q-7 21 -22 63.5t-22 63.5l-6 -7q-4 -9 -19 -15q-5 -2 -10 -2.5t-7 -0.5l-3 1h-444q-37 0 -45 1q-16 2 -25 5q-11 -12 -29 -59q-7 -19 -21.5 -56.5t-21.5 -56.5q-18 -51 -19 -56q-2 -8 -4.5 -28t-5.5 -31 q0 -1 -0.5 -2.5t-0.5 -2.5q9 -4 31 -6q21 -2 63 -3t61 -2q11 -1 17.5 -8.5t5.5 -17.5t-8.5 -17t-18.5 -6q-18 1 -60 1.5t-65 2.5q-44 6 -60 18q-12 -4 -19 -6q-31 -10 -71 -13q-1 0 -18.5 -1.5t-25.5 -1.5h-20q-24 -3 -28 22zM345 685q1 0 3.5 -0.5t4.5 -0.5q11 -1 38 -1 h445l3 3l14 14v7l-6 45q0 1 -1 3.5t-2.5 6t-2.5 7.5q-8 24 -12 35q-101 291 -143 405q-9 25 -25 70.5t-20 56.5q-1 3 -5 14t-6 16h-1q-1 0 -2 1q-2 -1 -16 -9t-22 -13q-10 -6 -16 -9l-2 -6q-1 -3 -6 -15.5t-7 -19.5q-7 -19 -20.5 -57t-20.5 -57q-22 -60 -64 -171t-61 -162 q-4 -10 -12 -31.5t-12 -32.5q-7 -18 -12 -35q-3 -12 -7 -38q-1 -5 -2 -13t-2 -13zM527 1713q2 11 10 16q10 7 30 16q5 5 16 8q12 4 34 7t24 3q15 3 43.5 7.5t41.5 6.5q6 1 19.5 2.5t18.5 3.5q10 3 19 -1.5t12 -14.5t-1.5 -19t-14.5 -12q-8 -2 -16 -3.5t-16.5 -2.5t-11.5 -2 q-28 -5 -86 -15q-51 -8 -52 -8t-9 -5q-6 -2 -24 -13q-8 -5 -18 -3t-16 10q-5 8 -3 19z" />
<glyph unicode="&#xc2;" horiz-adv-x="1234" d="M3 309q-1 11 4.5 19t16.5 9h26q14 0 40 2q31 3 61 12q5 1 15 5l5 8q2 8 4.5 27.5t5.5 30.5q4 18 21 62q7 19 21.5 57t21.5 57q1 2 4 10.5t4.5 12.5t5 12t6.5 13t7.5 12t9.5 12.5t11 10.5l2 3q1 6 2.5 17t2.5 17l2 17q3 17 5 27q2 9 7.5 23t6.5 17q4 11 12 32t12 32 q84 222 125 333q38 102 41 112q8 24 13 36q1 11 10 22q3 4 6.5 6.5t5.5 2.5l2 1q6 4 16 9q34 20 38 22v2l1 2v28q0 19 0.5 55t0.5 54q0 11 7 18t18 7t18 -7t7 -18q0 -18 -0.5 -54.5t-0.5 -54.5v-29l-1 -3q19 -11 23 -22q3 -7 6.5 -18t5.5 -16q7 -19 46 -128 q40 -111 143 -406q4 -12 12 -34q6 -16 8 -26q1 -8 3.5 -23.5t3.5 -21.5v-8q1 -1 4 -2t5 -3q7 -5 10.5 -11.5t3.5 -10.5v-3q9 -25 24 -69.5t21 -61.5q25 -71 26 -77q3 -15 6.5 -40.5t4.5 -32.5q0 -2 1 -7t1 -8l1 -1h1q20 -11 25 -13q51 -23 109 -28q6 -1 19.5 -1.5t20.5 -0.5 q19 0 28 -4q9 -5 12.5 -14.5t-0.5 -18.5t-13 -13t-19 0q-4 1 -11 1q-6 1 -19.5 1.5t-20.5 0.5q-67 5 -126 31q-5 2 -14 7.5t-12 6.5q-20 -22 -39 -31q-15 -8 -58 -13q-23 -3 -63 -3t-55 -1q-10 -1 -17.5 5.5t-8.5 17.5q-1 10 5.5 17.5t17.5 8.5q18 1 57 2t59 3q30 4 41 9 q15 7 31 25q-1 2 -1 6.5t-1 6.5q-1 5 -4.5 32t-6.5 39q-1 5 -24 71q-7 21 -22 63.5t-22 63.5l-6 -7q-4 -9 -19 -15q-5 -2 -10 -2.5t-7 -0.5l-3 1h-444q-37 0 -45 1q-16 2 -25 5q-11 -12 -29 -59q-7 -19 -21.5 -56.5t-21.5 -56.5q-18 -51 -19 -56q-2 -8 -4.5 -28t-5.5 -31 q0 -1 -0.5 -2.5t-0.5 -2.5q9 -4 31 -6q21 -2 63 -3t61 -2q11 -1 17.5 -8.5t5.5 -17.5t-8.5 -17t-18.5 -6q-18 1 -60 1.5t-65 2.5q-44 6 -60 18q-12 -4 -19 -6q-31 -10 -71 -13q-1 0 -18.5 -1.5t-25.5 -1.5h-20q-24 -3 -28 22zM345 685q1 0 3.5 -0.5t4.5 -0.5q11 -1 38 -1 h445l3 3l14 14v7l-6 45q0 1 -1 3.5t-2.5 6t-2.5 7.5q-8 24 -12 35q-101 291 -143 405q-9 25 -25 70.5t-20 56.5q-1 3 -5 14t-6 16h-1q-1 0 -2 1q-2 -1 -16 -9t-22 -13q-10 -6 -16 -9l-2 -6q-1 -3 -6 -15.5t-7 -19.5q-7 -19 -20.5 -57t-20.5 -57q-22 -60 -64 -171t-61 -162 q-4 -10 -12 -31.5t-12 -32.5q-7 -18 -12 -35q-3 -12 -7 -38q-1 -5 -2 -13t-2 -13zM405 1701.5q2 10.5 10 16.5q7 5 19 12.5t13 8.5q19 15 28 18q11 4 31 7q9 2 27 6.5t27 6.5q20 4 25 6q10 4 19 -0.5t13 -14.5t-0.5 -19t-14.5 -13q-3 -1 -30 -8q-7 -2 -26 -6.5t-30 -6.5 q-22 -4 -24 -5l-2 -2q-2 -1 -6 -4l-8 -6q-5 -4 -16.5 -10.5t-15.5 -9.5q-8 -6 -18.5 -4.5t-16.5 9.5t-4 18.5zM647 1765q2 10 11 15t19 3l23 -5l45 -11l29 -6l13 -4q6 -2 8 -3l18 -12l36 -22q9 -5 11 -15.5t-3 -19.5t-15.5 -11t-19.5 3l-36 23l-15 10l-9 2l-28 6l-46 11 l-23 6q-10 2 -15 11t-3 19z" />
<glyph unicode="&#xc3;" horiz-adv-x="1234" d="M3 309q-1 11 4.5 19t16.5 9h26q14 0 40 2q31 3 61 12q5 1 15 5l5 8q2 8 4.5 27.5t5.5 30.5q4 18 21 62q7 19 21.5 57t21.5 57q1 2 4 10.5t4.5 12.5t5 12t6.5 13t7.5 12t9.5 12.5t11 10.5l2 3q1 6 2.5 17t2.5 17l2 17q3 17 5 27q2 9 7.5 23t6.5 17q4 11 12 32t12 32 q84 222 125 333q38 102 41 112q8 24 13 36q1 11 10 22q3 4 6.5 6.5t5.5 2.5l2 1q6 4 16 9q34 20 38 22v2l1 2v28q0 19 0.5 55t0.5 54q0 11 7 18t18 7t18 -7t7 -18q0 -18 -0.5 -54.5t-0.5 -54.5v-29l-1 -3q19 -11 23 -22q3 -7 6.5 -18t5.5 -16q7 -19 46 -128 q40 -111 143 -406q4 -12 12 -34q6 -16 8 -26q1 -8 3.5 -23.5t3.5 -21.5v-8q1 -1 4 -2t5 -3q7 -5 10.5 -11.5t3.5 -10.5v-3q9 -25 24 -69.5t21 -61.5q25 -71 26 -77q3 -15 6.5 -40.5t4.5 -32.5q0 -2 1 -7t1 -8l1 -1h1q20 -11 25 -13q51 -23 109 -28q6 -1 19.5 -1.5t20.5 -0.5 q19 0 28 -4q9 -5 12.5 -14.5t-0.5 -18.5t-13 -13t-19 0q-4 1 -11 1q-6 1 -19.5 1.5t-20.5 0.5q-67 5 -126 31q-5 2 -14 7.5t-12 6.5q-20 -22 -39 -31q-15 -8 -58 -13q-23 -3 -63 -3t-55 -1q-10 -1 -17.5 5.5t-8.5 17.5q-1 10 5.5 17.5t17.5 8.5q18 1 57 2t59 3q30 4 41 9 q15 7 31 25q-1 2 -1 6.5t-1 6.5q-1 5 -4.5 32t-6.5 39q-1 5 -24 71q-7 21 -22 63.5t-22 63.5l-6 -7q-4 -9 -19 -15q-5 -2 -10 -2.5t-7 -0.5l-3 1h-444q-37 0 -45 1q-16 2 -25 5q-11 -12 -29 -59q-7 -19 -21.5 -56.5t-21.5 -56.5q-18 -51 -19 -56q-2 -8 -4.5 -28t-5.5 -31 q0 -1 -0.5 -2.5t-0.5 -2.5q9 -4 31 -6q21 -2 63 -3t61 -2q11 -1 17.5 -8.5t5.5 -17.5t-8.5 -17t-18.5 -6q-18 1 -60 1.5t-65 2.5q-44 6 -60 18q-12 -4 -19 -6q-31 -10 -71 -13q-1 0 -18.5 -1.5t-25.5 -1.5h-20q-24 -3 -28 22zM345 685q1 0 3.5 -0.5t4.5 -0.5q11 -1 38 -1 h445l3 3l14 14v7l-6 45q0 1 -1 3.5t-2.5 6t-2.5 7.5q-8 24 -12 35q-101 291 -143 405q-9 25 -25 70.5t-20 56.5q-1 3 -5 14t-6 16h-1q-1 0 -2 1q-2 -1 -16 -9t-22 -13q-10 -6 -16 -9l-2 -6q-1 -3 -6 -15.5t-7 -19.5q-7 -19 -20.5 -57t-20.5 -57q-22 -60 -64 -171t-61 -162 q-4 -10 -12 -31.5t-12 -32.5q-7 -18 -12 -35q-3 -12 -7 -38q-1 -5 -2 -13t-2 -13zM379 1715l8 23l1 1v1l4 10q3 7 11 12l12 5q1 0 1 0.5t1 0.5l38 15q10 4 19 -0.5t13 -14.5t-0.5 -19t-14.5 -13l-36 -14l-2 -1l-8 -22q-3 -10 -12.5 -14.5t-19.5 -1.5t-14 12.5t-1 19.5z M551 1767q3 10 12.5 14.5t19.5 1.5q4 -1 9 -2l12.5 -2.5l12.5 -2.5q12 -3 36 -8t36 -8q13 -3 49 -10q15 -3 21 -3q16 0 52 10q16 4 21 5q10 1 18 -5t10 -16q1 -10 -5 -18t-16 -10q-1 0 -3 -1t-6 -2t-7 -2q-40 -11 -63 -11q-2 0 -30 4q-38 7 -52 10q-12 3 -36 8.5t-36 7.5 q-30 6 -39 9q-10 3 -14.5 12t-1.5 19z" />
<glyph unicode="&#xc4;" horiz-adv-x="1234" d="M3 309q-1 11 4.5 19t16.5 9h26q14 0 40 2q31 3 61 12q5 1 15 5l5 8q2 8 4.5 27.5t5.5 30.5q0 1 23 66q17 47 41 110q1 2 4 10.5t4.5 12.5t5 12t6.5 13t7.5 12t9.5 12.5t11 10.5l2 3q1 6 2.5 18t2.5 18q0 2 2.5 17.5t4.5 24.5t8 22.5t7 17.5q8 21 24 65q78 203 124 332 q7 19 20.5 57t20.5 57q1 4 6 15.5t7 18.5q1 11 10 22q3 4 6.5 6.5t5.5 2.5l2 1q6 4 16 9q34 20 38 22v2l1 2v28q0 19 0.5 55t0.5 54q0 11 7 18t18 7t18 -7t7 -18q0 -19 -0.5 -55t-0.5 -54v-29l-1 -3q19 -11 23 -22q3 -7 6.5 -18t5.5 -16q7 -19 46 -128q40 -111 143 -406 q4 -12 12 -34q6 -16 8 -26q1 -8 3.5 -23.5t3.5 -21.5v-8q1 -1 4 -2t5 -3q7 -5 10.5 -11.5t3.5 -10.5v-3q9 -25 24 -69.5t21 -61.5q25 -71 26 -77q3 -15 6.5 -40.5t4.5 -32.5q0 -2 1 -7t1 -8l1 -1h1q20 -11 25 -13q51 -23 109 -28q6 -1 19.5 -1.5t20.5 -0.5q19 0 28 -4 q9 -5 12.5 -14.5t-0.5 -18.5t-13 -13t-19 0q-4 1 -11 1q-6 1 -19.5 1.5t-20.5 0.5q-67 5 -126 31q-5 2 -14 7.5t-12 6.5q-20 -22 -39 -31q-15 -8 -58 -13q-23 -3 -63 -3t-55 -1q-10 -1 -17.5 5.5t-8.5 17.5q-1 10 5.5 17.5t17.5 8.5q18 1 57 2t59 3q30 4 41 9q15 7 31 25 q-1 2 -1 6.5t-1 6.5q-1 5 -4.5 32t-6.5 39q-1 5 -24 71q-7 21 -22 63.5t-22 63.5l-6 -7q-4 -9 -19 -15q-5 -2 -10 -2.5t-7 -0.5l-3 1h-444q-37 0 -45 1q-16 2 -25 5q-11 -12 -29 -59q-36 -95 -41 -109q-20 -54 -21 -60q-2 -8 -4.5 -28t-5.5 -31q0 -1 -0.5 -2.5t-0.5 -2.5 q9 -4 31 -6q21 -2 63 -3t61 -2q11 -1 17.5 -8.5t5.5 -17.5t-8.5 -17t-18.5 -6q-16 1 -58.5 1t-66.5 3q-44 6 -60 18q-12 -4 -19 -6q-31 -10 -71 -13q-1 0 -18.5 -1.5t-25.5 -1.5h-20q-24 -3 -28 22zM345 685q1 0 3.5 -0.5t4.5 -0.5q11 -1 38 -1h445l3 3l14 14v7l-6 45 q0 1 -1 3.5t-2.5 6t-2.5 7.5q-8 24 -12 35q-101 291 -143 405q-9 25 -25 70.5t-20 56.5q-1 3 -5 14t-6 16h-1q-1 0 -2 1q-2 -1 -16 -9t-22 -13q-10 -6 -16 -9l-2 -6q-1 -3 -6 -15.5t-7 -19.5q-7 -19 -20.5 -57t-20.5 -57q-52 -142 -125 -332q-16 -42 -24 -64q-5 -14 -12 -36 q-2 -6 -6 -38q-4 -19 -5 -26zM376 1658q0 10 7 17.5t18 7.5t18 -7.5t7 -17.5q0 -11 -7.5 -18.5t-17.5 -7.5t-17.5 7.5t-7.5 18.5zM820 1658q0 11 7.5 18.5t17.5 7.5h1q10 0 17.5 -7.5t7.5 -18.5q0 -10 -7 -17t-18 -7h-1q-11 0 -18 7t-7 17z" />
<glyph unicode="&#xc5;" horiz-adv-x="1374" d="M3.5 313q2.5 10 11.5 15q7 4 14.5 5t11.5 1l4 -1q11 1 28.5 1.5t22.5 0.5q33 3 70 14q3 1 11 4t10 4l4 5q1 2 9 47q4 24 10 43q0 1 32 77q6 14 22 54t26 62l42 99q1 3 9 21.5t14 29.5q9 18 26 32q2 1 4.5 3.5t4.5 3.5q0 1 2 11q2 8 4.5 24t3.5 23q4 23 6 28 q11 29 34 81.5t27 63.5q20 48 60 142t60 142q4 11 12.5 30t9.5 23q0 17 17 31q5 4 23 13l33 18l6 3v5q1 8 0 24t-1 22v14q-2 3 -3 4q-2 2 -6 6.5t-6.5 7t-4.5 3.5q-3 0 -6 1q-10 2 -21 8q-27 12 -50 37q-40 43 -42 111q0 6 0.5 11t1 7.5t0.5 3.5q0 10 7 17t18 7t18 -7t7 -18 q0 -5 -0.5 -10t-1.5 -7v-3q2 -48 29 -78q15 -17 33 -25q2 -1 7 -2.5t7 -2.5q10 0 20 -7q4 -3 19 -18l4 5q13 13 16 15q13 8 24 8q11 5 22 14q51 40 43 108q-2 11 4.5 18.5t16.5 9.5q24 3 28 -22q5 -45 -10.5 -86t-50.5 -68q-17 -14 -35 -20q-13 -5 -15 -5l-7 -7l-16 -15v-15 v-48q1 0 1 -2q5 -3 12 -11q4 -4 6.5 -9.5t3.5 -9t2 -7.5v-4q2 -6 9 -22.5t10 -26.5q56 -150 84 -226q8 -22 39 -103.5t47 -126.5q4 -10 10 -55q0 -2 0.5 -4.5t0.5 -3.5q14 -6 19 -18q3 -6 6 -15t4 -11q4 -12 12 -33t10 -26q22 -58 66 -176q4 -11 12.5 -31.5t15 -38.5 t10.5 -34q2 -8 8 -44q1 -8 4 -24t4 -24v-6q1 0 2.5 -1t2.5 -1q20 -10 31 -14q51 -21 91 -25q11 -1 33.5 -1.5t34.5 -1.5l12 -2t7 -1q10 -2 16.5 -10t5.5 -18q-2 -10 -10 -16.5t-18 -5.5q-5 1 -10.5 2t-6.5 1t-27.5 0.5t-42.5 2.5q-48 5 -104 29q-2 1 -15 6t-19 9 q-17 -19 -36 -27q-37 -18 -130 -20q-40 0 -44 -1q-10 -3 -19 2t-12 15t2 19t15 12t21 3.5t22.5 -0.5t13.5 -1q79 2 109 16q12 7 25 20v6q-2 8 -3.5 24t-3.5 24q-3 26 -7 39q-2 6 -37 101q-8 22 -66 175q-3 8 -22 59q-1 2 -4 11l-5 -5q-5 -8 -17 -14q-6 -3 -11 -4t-7 0l-2 1 h-359q-82 0 -93 1l-12 1q-11 0 -18 2l-3 -1q-7 -5 -14 -18t-21 -47l-42 -99q-44 -105 -49 -116q-26 -61 -30 -73q-3 -11 -7 -35q-3 -17 -11 -51v-2q8 -5 25 -8q31 -6 84 -6h29q19 0 28 -2q10 -2 15.5 -11t3.5 -19t-11.5 -15.5t-19.5 -3.5l-5 1h-11h-29q-56 0 -93 7 q-29 6 -47 18q-2 0 -3 1q-12 -5 -25 -9q-32 -10 -79 -15q-11 -1 -29 -1.5t-23 -0.5q-6 -1 -11 -1q-20 -9 -32 11q-5 9 -2.5 19zM441 837q1 0 4 -0.5t5 -0.5h89h358l3 3l12 12v10q-4 33 -8 44q-15 41 -44.5 118.5t-41.5 111.5q-14 37 -42 112.5t-42 113.5q-12 32 -18 49 q-1 3 -3 7.5t-2 5.5l-4 -2q-2 -1 -35 -19l-12 -6q0 -1 -2 -6t-3 -8q-3 -9 -11 -26.5t-11 -26.5q-20 -47 -60 -142t-60 -142q-5 -11 -27 -63t-33 -80l-4 -18q-2 -8 -4.5 -24t-3.5 -23z" />
<glyph unicode="&#xc6;" horiz-adv-x="1683" d="M4 296q-4 10 0 19.5t14 13.5q9 4 27 4q14 1 39 1q51 0 82 10q7 2 21 8q1 5 3.5 15t3.5 15q3 16 6 25q7 20 21 46q1 2 49 92q35 67 107 201q35 65 41 77q6 13 13 26q0 7 11 18l15 9q2 0 5 2t4 2q1 4 2.5 13t2.5 14q3 19 6 29q4 10 11 23l8 13q33 60 38 71q80 155 135 255 q30 56 45 85q22 42 23 44q1 5 8 37l9 42q-10 5 -32 11q-17 4 -55 4t-58 3q-11 2 -17 10t-4 18q4 24 28 21q11 -1 51 -1.5t65 -5.5q27 -5 47 -16q1 -1 3 -2.5t3 -1.5q5 2 15 4h10.5h11h7.5h12.5h16h14.5q26 0 32 -2q8 -3 19 -14q4 -3 14 -11q39 28 90 34q8 1 87 1h154 q71 0 86 -1q65 -4 99 -12q4 -1 11.5 -2.5t11.5 -2.5q10 0 19 -9q6 -5 9.5 -11t3.5 -10l1 -3q3 -7 6 -15.5t5.5 -18t4.5 -14.5q5 -14 28 -100q2 -9 7 -30t8 -31t-1.5 -19t-14.5 -12t-19.5 1.5t-12.5 14.5q-4 13 -9.5 36t-6.5 27q-3 11 -8.5 31.5t-10 37t-8.5 30.5 q-2 5 -4.5 14t-5 15.5t-4.5 12.5q-1 1 -1 2.5t-1 2.5q-17 3 -19 4q-35 8 -92 12h-82h-154q-73 0 -81 -1q-41 -5 -72 -28l-2 -8v-471h278q13 0 37 -0.5t37 -0.5h7q0 2 2 9t3 11q4 17 8.5 50t5.5 39q4 40 13 53q6 8 16.5 10t18.5 -4t10 -16.5t-3 -17.5q-1 -1 -1.5 -5l-1.5 -12 t-2 -15q-2 -9 -7 -41t-8 -50q-1 -6 -8 -31q0 -3 -1 -7q1 -2 4 -10.5t4 -14.5q6 -26 12 -78q0 -4 2 -16t3 -19q0 -3 1 -7l1 -7q12 -21 -8 -34q-9 -5 -19.5 -3t-15.5 11t-9 35q-1 7 -5 33q-6 50 -11 73q-3 11 -4 14h-7q-13 0 -37 0.5t-37 0.5h-278v-566q2 -4 2 -9q8 -8 18 -13 q8 -4 18 -7t17.5 -4.5t22 -2.5t20 -1h24h22.5h193q12 0 34 -0.5t39.5 -0.5t32.5 1q65 4 105 13q4 1 12.5 3t12.5 3q0 1 2 5q6 14 16 44q19 56 37 121q14 48 15 59q2 10 10 16.5t18 5.5q10 -2 16.5 -10t5.5 -18q-1 -8 -16 -65q-15 -59 -38 -125q-8 -24 -18 -48q0 -14 -15 -26 q-5 -4 -10.5 -6t-8.5 -2h-2q-8 -2 -26 -6q-39 -9 -113 -13q-19 -1 -109 -1h-193q-4 0 -25.5 -0.5t-31.5 0t-28 2.5t-33 6.5t-29 12.5q-10 5 -21 14q-13 -11 -34 -22q-10 -5 -20.5 -9t-22.5 -6.5t-20 -4.5t-22.5 -3t-20 -1.5t-21.5 -1t-19 -0.5q-11 -1 -18.5 -0.5t-14 0.5 t-9.5 -1q-10 -3 -19 2t-12 15t2 19t15 12t20 3.5t20.5 -0.5t12.5 -1q92 4 127 21q14 7 27 20q1 1 4 3q0 1 -0.5 3t-0.5 4v444h-389q-26 0 -36 5l-4 -2l-1 -1h-1q0 -1 -1 -2l-1.5 -1.5t-0.5 -1.5q-2 -4 -6.5 -12.5t-6.5 -12.5q-13 -26 -41 -78q-36 -66 -106 -200 q-7 -14 -24 -45t-25 -47q-2 -5 -9.5 -18.5t-9.5 -20.5q0 -1 -1 -4t-1.5 -7t-1.5 -8q-4 -20 -7 -31l2 -2q7 -4 41 -4q56 0 85 -2q10 -1 16.5 -8.5t5.5 -18.5q-1 -10 -8.5 -17t-18.5 -6q-25 2 -80 2q-44 0 -64 10q-3 1 -13 9q-5 -2 -22 -7q-42 -13 -96 -13h-12h-13.5h-10.5 l-11 -1q-23 -9 -33 13zM516 878h4h389v593q0 2 0.5 4.5t0.5 3.5q-12 12 -19 18l-3 3l-2 1q-1 0 -4 -0.5t-5.5 -0.5h-7.5h-11.5h-15h-13.5t-12 0.5t-10 0.5q-1 0 -2 -1q-1 -2 -2 -2q-6 -30 -9 -44q0 -2 -3 -18.5t-7 -25.5q-4 -12 -14.5 -30.5t-11.5 -19.5q-15 -28 -45 -86 q-55 -101 -134 -253q-6 -12 -19 -36t-19 -36q-16 -29 -16 -30q-4 -16 -5 -21q0 -3 -2 -10t-2 -10z" />
<glyph unicode="&#xc7;" horiz-adv-x="1137" d="M38 908q0 40 8 106q20 182 109 317q59 89 148 154t191 89q39 9 100 11q144 6 271 -49q34 -15 98 -47q4 -2 12.5 -6.5t12.5 -6.5q10 0 20 -11q12 -13 12 -27q2 -7 7 -20.5t7 -20.5q21 -61 35 -116q12 -45 13 -52q1 -11 -4.5 -19t-16.5 -9t-19 5t-9 16q-1 9 -12 47 q-10 38 -34 112q-3 7 -7.5 21t-6.5 20q-1 2 -1 3.5t-1 3.5q-3 1 -4 2q-18 8 -27 13q-78 39 -94 46q-120 52 -249 46q-53 -2 -92 -11q-91 -21 -173 -80.5t-136 -140.5q-83 -125 -101 -295q-7 -63 -7 -100q0 -18 4 -60q12 -119 59 -219q56 -119 140 -194q77 -67 177 -93 q89 -24 197 -14q112 12 193 55q112 59 200 159q7 8 17 8.5t18 -6.5t8.5 -17t-6.5 -18q-94 -108 -213 -171q-89 -47 -212 -59q-5 0 -15.5 -1t-16.5 -2q-1 -5 -3 -12.5t-2 -9.5q-4 -26 -5 -28q-3 -10 -9 -21.5t-7 -15.5q-2 -6 -4 -22q27 0 40 1q31 2 61.5 -12t46.5 -42 q7 -12 14 -40q4 -11 3 -21q0 -1 -8 -37q-9 -31 -20 -44q-18 -22 -55 -40q-78 -38 -179 -10q-26 6 -42 14q-9 5 -13 14.5t0 18.5q5 9 14.5 12.5t18.5 -0.5q5 -2 18 -5.5t17 -4.5q85 -23 145 6q23 10 36 26q8 9 12 26q6 22 6 26l-2 8q-3 18 -8 25q-8 14 -26 23t-35 8 q-34 -2 -48 -2q-11 -3 -25 2l-3 -1q-16 -9 -24 -17q-7 -7 -17.5 -6.5t-17.5 7.5t-6.5 17.5t7.5 17.5q13 13 33 24l6 3v2q1 3 2 10t2 13.5t3 12.5q3 11 10 25l7 15q0 1 1 8t2 12t3 13q-62 1 -131 19q-114 30 -197 103q-93 80 -153 211q-51 110 -63 235q-5 50 -5 64z" />
<glyph unicode="&#xc8;" horiz-adv-x="1081" d="M13 1552q2 10 11 15.5t19 3.5q4 -1 18 -1h56q73 0 123 -27q12 -6 27 -19q11 9 23 16q35 18 104 18h48h120q57 0 69 -1q52 -4 88 -11q7 -1 23 -5q9 1 19 -9q5 -4 8 -9.5t4 -9t1 -6.5l1 -3q2 -7 7.5 -21.5t6.5 -17.5q16 -44 45 -170q2 -10 -3 -19t-15 -11t-19 3t-11 15 q-27 115 -44 166q-2 7 -7 19.5t-7 18.5q0 1 -1 3t-1 3q-14 3 -17 4q-45 8 -81 11h-20h-24.5h-21.5h-120h-48q-55 0 -81 -13q-6 -3 -19 -14l-2 -11v-450h350q0 2 1 5.5t2 5.5q7 32 12 68q4 32 7 48q4 26 11 35q6 8 16.5 10t18.5 -4t10 -16.5t-4 -18.5q-1 -4 -3 -14 q-3 -15 -7 -47q-5 -39 -12 -72q0 -1 -2 -9t-4 -13l-2 -4q0 -1 2.5 -6.5t3.5 -10.5q10 -39 12 -62q1 -7 3.5 -26.5t3.5 -30.5q1 -6 2 -10.5t1 -7.5l1 -2q6 -8 4 -18.5t-10 -16.5t-18.5 -4t-16.5 10q-8 11 -12 43q-1 8 -4 27.5t-4 30.5q-3 30 -10 54l-1 2l-2 4h-349v-588 q2 -4 2 -9q13 -13 20 -16q19 -9 53 -11q11 -1 23 -1t28 0.5t25 0.5q57 0 170.5 -0.5t170.5 -0.5q60 0 117 12q18 4 28 6h2q0 1 2 7q3 8 8 22t8 21q12 34 31 103.5t21 77.5q3 10 12 15t19 2t15.5 -12t2.5 -19q-46 -163 -54 -184q-5 -15 -17 -45q0 -14 -15 -27q-6 -5 -11.5 -7 t-8.5 -2h-2q-5 -1 -15 -4t-16 -4q-63 -12 -127 -12q-57 0 -170.5 0.5t-170.5 0.5q-66 0 -80 1q-44 2 -70 15q-12 6 -26 18q-22 -17 -28 -20q-18 -10 -41.5 -16t-35 -7t-42.5 -2t-34 -1q-10 -1 -17.5 -0.5t-14 0.5t-9.5 -1q-10 -2 -19.5 3t-11.5 15t3 19t15 11q10 3 19.5 3.5 t19.5 -0.5t12 -1q5 0 21 0.5t21.5 1t18.5 1.5t20 2t17 3.5t18 5.5t16 7q13 8 25 19l2 2v7v1088v8q-1 2 -2 3q-10 11 -24 18q-39 21 -99 21h-58q-15 0 -27 2q-10 2 -15.5 11t-3.5 19zM465 1767q3 10 12 14.5t19 1.5q6 -2 22 -4t22 -3q17 -3 48.5 -8.5t45.5 -7.5 q3 -1 11.5 -1.5t16.5 -2t16 -4.5t16 -7t15.5 -8.5t10.5 -5.5q9 -4 12 -14.5t-2 -19.5q-4 -9 -14.5 -12.5t-19.5 1.5q-6 3 -13.5 7.5t-12 7.5t-8.5 4q-5 2 -36 6q-17 3 -49 8.5t-46 7.5q-42 6 -50 9q-10 3 -14.5 12t-1.5 19z" />
<glyph unicode="&#xc9;" horiz-adv-x="1081" d="M13 1552q2 10 11 15.5t19 3.5q4 -1 18 -1h56q73 0 123 -27q12 -6 27 -19q11 9 23 16q35 18 104 18h48h120q57 0 69 -1q52 -4 88 -11q7 -1 23 -5q9 1 19 -9q5 -4 8 -9.5t4 -9t1 -6.5l1 -3q2 -7 7.5 -21.5t6.5 -17.5q16 -44 45 -170q2 -10 -3 -19t-15 -11t-19 3t-11 15 q-27 115 -44 166q-2 7 -7 19.5t-7 18.5q0 1 -1 3t-1 3q-14 3 -17 4q-45 8 -81 11h-20h-24.5h-21.5h-120h-48q-55 0 -81 -13q-6 -3 -19 -14l-2 -11v-450h350q0 2 1 5.5t2 5.5q7 32 12 68q4 32 7 48q4 26 11 35q6 8 16.5 10t18.5 -4t10 -16.5t-4 -18.5q-1 -4 -3 -14 q-3 -15 -7 -47q-5 -39 -12 -72q0 -1 -2 -9t-4 -13l-2 -4q0 -1 2.5 -6.5t3.5 -10.5q10 -39 12 -62q1 -7 3.5 -26.5t3.5 -30.5q1 -6 2 -10.5t1 -7.5l1 -2q6 -8 4 -18.5t-10 -16.5t-18.5 -4t-16.5 10q-8 11 -12 43q-1 8 -4 27.5t-4 30.5q-3 30 -10 54l-1 2l-2 4h-349v-588 q2 -4 2 -9q13 -13 20 -16q19 -9 53 -11q11 -1 23 -1t28 0.5t25 0.5q57 0 170.5 -0.5t170.5 -0.5q60 0 117 12q18 4 28 6h2q0 1 2 7q3 8 8 22t8 21q12 34 31 103.5t21 77.5q3 10 12 15t19 2t15.5 -12t2.5 -19q-46 -163 -54 -184q-5 -15 -17 -45q0 -14 -15 -27q-6 -5 -11.5 -7 t-8.5 -2h-2q-5 -1 -15 -4t-16 -4q-63 -12 -127 -12q-57 0 -170.5 0.5t-170.5 0.5q-66 0 -80 1q-44 2 -70 15q-12 6 -26 18q-22 -17 -28 -20q-18 -10 -41.5 -16t-35 -7t-42.5 -2t-34 -1q-10 -1 -17.5 -0.5t-14 0.5t-9.5 -1q-10 -2 -19.5 3t-11.5 15t3 19t15 11q10 3 19.5 3.5 t19.5 -0.5t12 -1q5 0 21 0.5t21.5 1t18.5 1.5t20 2t17 3.5t18 5.5t16 7q13 8 25 19l2 2v7v1088v8q-1 2 -2 3q-10 11 -24 18q-39 21 -99 21h-58q-15 0 -27 2q-10 2 -15.5 11t-3.5 19zM415.5 1716.5q2.5 10.5 11.5 15.5q33 18 41 21t16.5 4.5t17 2t11.5 1.5q30 5 92 15 q6 1 21.5 3t21.5 4q10 3 19.5 -1.5t12.5 -14.5t-1.5 -19t-14.5 -12q-7 -2 -51 -9q-14 -2 -44 -7.5t-47 -8.5q-6 -1 -20 -2.5t-18 -3.5q-5 -2 -31 -17q-9 -5 -19.5 -2.5t-15.5 11.5t-2.5 19.5z" />
<glyph unicode="&#xca;" horiz-adv-x="1081" d="M13 1552q2 10 11 15.5t19 3.5q4 -1 18 -1h56q73 0 123 -27q12 -6 27 -19q11 9 23 16q35 18 104 18h48h120q57 0 69 -1q52 -4 88 -11q7 -1 23 -5q9 1 19 -9q5 -4 8 -9.5t4 -9t1 -6.5l1 -3q2 -7 7.5 -21.5t6.5 -17.5q16 -44 45 -170q2 -10 -3 -19t-15 -11t-19 3t-11 15 q-27 115 -44 166q-2 7 -7 19.5t-7 18.5q0 1 -1 3t-1 3q-14 3 -17 4q-45 8 -81 11h-20h-24.5h-21.5h-120h-48q-55 0 -81 -13q-6 -3 -19 -14l-2 -11v-450h350q0 2 1 5.5t2 5.5q7 32 12 68q4 32 7 48q4 26 11 35q6 8 16.5 10t18.5 -4t10 -16.5t-4 -18.5q-1 -4 -3 -14 q-3 -15 -7 -47q-5 -39 -12 -72q0 -1 -2 -9t-4 -13l-2 -4q0 -1 2.5 -6.5t3.5 -10.5q10 -39 12 -62q1 -7 3.5 -26.5t3.5 -30.5q1 -6 2 -10.5t1 -7.5l1 -2q6 -8 4 -18.5t-10 -16.5t-18.5 -4t-16.5 10q-8 11 -12 43q-1 8 -4 27.5t-4 30.5q-3 30 -10 54l-1 2l-2 4h-349v-588 q2 -4 2 -9q13 -13 20 -16q19 -9 53 -11q11 -1 23 -1t28 0.5t25 0.5q57 0 170.5 -0.5t170.5 -0.5q60 0 117 12q18 4 28 6h2q0 1 2 7q3 8 8 22t8 21q12 34 31 103.5t21 77.5q3 10 12 15t19 2t15.5 -12t2.5 -19q-46 -163 -54 -184q-5 -15 -17 -45q0 -14 -15 -27q-6 -5 -11.5 -7 t-8.5 -2h-2q-5 -1 -15 -4t-16 -4q-63 -12 -127 -12q-57 0 -170.5 0.5t-170.5 0.5q-66 0 -80 1q-44 2 -70 15q-12 6 -26 18q-22 -17 -28 -20q-18 -10 -41.5 -16t-35 -7t-42.5 -2t-34 -1q-10 -1 -17.5 -0.5t-14 0.5t-9.5 -1q-10 -2 -19.5 3t-11.5 15t3 19t15 11q10 3 19.5 3.5 t19.5 -0.5t12 -1q5 0 21 0.5t21.5 1t18.5 1.5t20 2t17 3.5t18 5.5t16 7q13 8 25 19l2 2v7v1088v8q-1 2 -2 3q-10 11 -24 18q-39 21 -99 21h-58q-15 0 -27 2q-10 2 -15.5 11t-3.5 19zM348 1704q2 11 10 16l33 21l19 13q4 3 8 4l14 3l28 6l42 10l26 6q10 2 19 -3t11 -15 t-3 -19t-15 -11l-27 -7l-42 -10l-27 -6l-10 -2l-16 -11l-32 -21q-8 -5 -19 -3t-16 10t-3 19zM590 1766q2 10 11 15t19 3l26 -7l56 -13l27 -6l9 -3l13 -9l25 -16l15 -9q9 -5 11 -15t-3 -19t-15 -11.5t-19 2.5l-16 9l-25 17l-10 6l-24 5l-56 14l-26 6q-10 2 -15 11.5t-3 19.5z " />
<glyph unicode="&#xcb;" horiz-adv-x="1081" d="M13 1552q2 10 11 15.5t19 3.5q4 -1 18 -1h56q73 0 123 -27q12 -6 27 -19q11 9 23 16q35 18 104 18h48h120q57 0 69 -1q52 -4 88 -11q7 -1 23 -5q9 1 19 -9q5 -4 8 -9.5t4 -9t1 -6.5l1 -3q2 -7 7.5 -21.5t6.5 -17.5q16 -44 45 -170q2 -10 -3 -19t-15 -11t-19 3t-11 15 q-27 115 -44 166q-2 7 -7 19.5t-7 18.5q0 1 -1 3t-1 3q-14 3 -17 4q-45 8 -81 11h-20h-24.5h-21.5h-120h-48q-55 0 -81 -13q-6 -3 -19 -14l-2 -11v-450h350q0 2 1 5.5t2 5.5q7 32 12 68q4 32 7 48q4 26 11 35q6 8 16.5 10t18.5 -4t10 -16.5t-4 -18.5q-1 -4 -3 -14 q-3 -15 -7 -47q-5 -39 -12 -72q0 -1 -2 -9t-4 -13l-2 -4q0 -1 2.5 -6.5t3.5 -10.5q10 -39 12 -62q1 -7 3.5 -26.5t3.5 -30.5q1 -6 2 -10.5t1 -7.5l1 -2q6 -8 4 -18.5t-10 -16.5t-18.5 -4t-16.5 10q-8 11 -12 43q-1 8 -4 27.5t-4 30.5q-3 30 -10 54l-1 2l-2 4h-349v-588 q2 -4 2 -9q13 -13 20 -16q19 -9 53 -11q11 -1 23 -1t28 0.5t25 0.5q57 0 170.5 -0.5t170.5 -0.5q60 0 117 12q18 4 28 6h2q0 1 2 7q3 8 8 22t8 21q12 34 31 103.5t21 77.5q3 10 12 15t19 2t15.5 -12t2.5 -19q-46 -163 -54 -184q-5 -15 -17 -45q0 -14 -15 -27q-6 -5 -11.5 -7 t-8.5 -2h-2q-5 -1 -15 -4t-16 -4q-63 -12 -127 -12q-57 0 -170.5 0.5t-170.5 0.5q-66 0 -80 1q-44 2 -70 15q-12 6 -26 18q-22 -17 -28 -20q-18 -10 -41.5 -16t-35 -7t-42.5 -2t-34 -1q-10 -1 -17.5 -0.5t-14 0.5t-9.5 -1q-10 -2 -19.5 3t-11.5 15t3 19t15 11q10 3 19.5 3.5 t19.5 -0.5t12 -1q5 0 21 0.5t21.5 1t18.5 1.5t20 2t17 3.5t18 5.5t16 7q13 8 25 19l2 2v7v1088v8q-1 2 -2 3q-10 11 -24 18q-39 21 -99 21h-58q-15 0 -27 2q-10 2 -15.5 11t-3.5 19zM307 1741q2 10 10 16t18 5q8 -1 15.5 -3t12 -3.5t6.5 -1.5t6.5 1.5t12 3.5t15.5 3 q10 2 19 -4.5t10 -16.5q2 -10 -4.5 -19t-16.5 -10q-1 0 -8 -2.5t-16 -4t-18 -1.5t-18 1.5t-15.5 4t-7.5 2.5q-10 1 -16.5 10t-4.5 19zM680 1745q2 10 11 15.5t19 3.5q7 -2 15.5 -4.5t14 -4t8.5 -1.5q2 0 34 8q10 2 19 -3t11 -15t-3.5 -19t-15.5 -11q-2 -1 -10 -3.5t-17 -4.5 t-18 -2q-10 0 -20 2t-18.5 5t-11.5 4q-10 2 -15 11t-3 19z" />
<glyph unicode="&#xcc;" horiz-adv-x="541" d="M18 306q-1 10 5.5 17.5t17.5 8.5q19 2 56 2.5t62 3t46 11.5t35 23l2 1l2 2q0 1 -0.5 4t-0.5 5v1082q0 3 0.5 6.5t0.5 5.5l-12 12q-24 24 -37 27q-10 2 -37 2q-23 0 -33 5q-9 4 -12 14t1 19q10 21 32 12h12q30 0 47 -3q27 -6 62 -40l1 -1q7 7 21 19q15 15 28 20q18 6 43 6 t27 1q10 2 18.5 -4t10.5 -16t-4 -19t-16 -11q-16 -3 -37 -2.5t-24 -1.5t-14 -11q-9 -8 -26 -25q0 -3 -0.5 -5.5t-0.5 -4.5v-3l-1 -2v-1081q3 -6 3 -13q11 -11 20 -16q30 -18 111 -22h24t27 -1q21 0 29 -3q23 -9 14 -32t-32 -15q-3 1 -13 1q-7 0 -24 -0.5t-27 0.5 q-32 2 -46 3t-41.5 7.5t-47.5 18.5q-16 10 -22 16q-19 -16 -45 -26q-28 -12 -58.5 -15.5t-68.5 -3.5t-52 -1q-10 -1 -17.5 5.5t-8.5 17.5zM167 1767q3 10 12 14.5t19 1.5q6 -2 22 -4t22 -3l93 -16q3 -1 12 -1.5t17 -2t16 -4.5t16 -7t15.5 -8.5t10.5 -5.5q9 -4 12 -14.5 t-2 -19.5q-4 -9 -14.5 -12.5t-19.5 1.5q-6 3 -18 10t-16 9t-17.5 3.5t-19.5 2.5l-93 16q-44 7 -51 9q-10 3 -14.5 12t-1.5 19z" />
<glyph unicode="&#xcd;" horiz-adv-x="541" d="M18 306q-1 10 5.5 17.5t17.5 8.5q19 2 56 2.5t62 3t46 11.5t35 23l2 1l2 2q0 1 -0.5 4t-0.5 5v1082q0 3 0.5 6.5t0.5 5.5l-12 12q-24 24 -37 27q-10 2 -37 2q-23 0 -33 5q-9 4 -12 14t1 19q10 21 32 12h12q30 0 47 -3q27 -6 62 -40l1 -1q7 7 21 19q15 15 28 20q18 6 43 6 t27 1q10 2 18.5 -4t10.5 -16t-4 -19t-16 -11q-16 -3 -37 -2.5t-24 -1.5t-14 -11q-9 -8 -26 -25q0 -3 -0.5 -5.5t-0.5 -4.5v-3l-1 -2v-1081q3 -6 3 -13q11 -11 20 -16q30 -18 111 -22h24t27 -1q21 0 29 -3q23 -9 14 -32t-32 -15q-3 1 -13 1q-7 0 -24 -0.5t-27 0.5 q-32 2 -46 3t-41.5 7.5t-47.5 18.5q-16 10 -22 16q-19 -16 -45 -26q-28 -12 -58.5 -15.5t-68.5 -3.5t-52 -1q-10 -1 -17.5 5.5t-8.5 17.5zM128.5 1714.5q2.5 10.5 11.5 15.5q29 17 44 22q8 3 16.5 4.5t17 2t11.5 1.5q15 2 47 8t47 8q6 1 21.5 3t21.5 4q10 3 19 -1.5 t12 -14.5t-1.5 -19t-14.5 -12q-8 -3 -50 -9q-16 -3 -47.5 -8t-46.5 -8q-6 -1 -19.5 -2.5t-17.5 -3.5q-9 -3 -35 -19q-9 -5 -19 -2.5t-15 11.5t-2.5 19.5z" />
<glyph unicode="&#xce;" horiz-adv-x="541" d="M18 306q-1 10 5.5 17.5t17.5 8.5q19 2 56 2.5t62 3t46 11.5t35 23l2 1l2 2q0 1 -0.5 4t-0.5 5v1082q0 3 0.5 6.5t0.5 5.5l-12 12q-24 24 -37 27q-10 2 -37 2q-23 0 -33 5q-9 4 -12 14t1 19q10 21 32 12h12q30 0 47 -3q27 -6 62 -40l1 -1q7 7 21 19q15 15 28 20q18 6 43 6 t27 1q10 2 18.5 -4t10.5 -16t-4 -19t-16 -11q-16 -3 -37 -2.5t-24 -1.5t-14 -11q-9 -8 -26 -25q0 -3 -0.5 -5.5t-0.5 -4.5v-3l-1 -2v-1081q3 -6 3 -13q11 -11 20 -16q30 -18 111 -22h24t27 -1q21 0 29 -3q23 -9 14 -32t-32 -15q-3 1 -13 1q-7 0 -24 -0.5t-27 0.5 q-32 2 -46 3t-41.5 7.5t-47.5 18.5q-16 10 -22 16q-19 -16 -45 -26q-28 -12 -58.5 -15.5t-68.5 -3.5t-52 -1q-10 -1 -17.5 5.5t-8.5 17.5zM41 1704q2 11 10 16l37 24l16 11q1 0 2.5 0.5t3.5 1.5t3 1l24 6l58 13l26 7q10 2 19.5 -3t11.5 -15t-3 -19.5t-15 -11.5l-27 -6 l-59 -14l-20 -5l-13 -8l-36 -24q-8 -5 -19 -3t-16 10t-3 19zM283 1766q2 10 11 15t19 3l26 -7l56 -13l27 -6q3 -1 9 -4l19 -12l33 -21q8 -5 10.5 -16t-2.5 -19t-15.5 -10.5t-18.5 2.5l-34 22l-16 10l-24 5l-56 14l-26 6q-10 2 -15 11.5t-3 19.5z" />
<glyph unicode="&#xcf;" horiz-adv-x="520" d="M7 1740q2 10 10 16t18 5q9 -2 20.5 -5t14.5 -3t29 7q10 2 19 -3.5t11 -15.5t-3 -19t-15 -11q-34 -8 -43 -8t-17 2t-14.5 4t-8.5 2q-10 1 -16.5 10t-4.5 19zM8 306q-1 10 5.5 17.5t17.5 8.5q19 2 56 2.5t62 3t46 11.5q23 10 36 23l1 1q2 1 3 2q0 1 -0.5 4t-0.5 5v1082 q0 3 0.5 6.5t0.5 5.5l-13 12q-25 25 -36 27q-10 2 -37 2q-23 0 -33 5q-9 5 -12.5 14.5t0.5 18.5q11 21 33 12h12q29 0 46 -3q29 -6 63 -40l1 -1q13 13 20 19q14 14 29 20q18 6 42.5 6t26.5 1q10 2 19 -4t11 -16t-4 -19t-16 -11q-16 -3 -37.5 -2.5t-24.5 -1.5q-1 -1 -13 -11 q-18 -16 -27 -25v-5.5t-0.5 -4.5t-0.5 -3v-2v-1081q2 -6 2 -13q11 -11 20 -16q30 -18 112 -22h24.5t26.5 -1q20 0 28 -3q10 -4 14.5 -13t0.5 -19q-10 -23 -33 -15q-3 1 -13 1q-7 0 -24 -0.5t-27 0.5q-32 2 -45.5 3t-41 7.5t-47.5 18.5q-16 10 -22 16q-19 -16 -45 -26 q-28 -12 -58.5 -15.5t-68.5 -3.5t-52 -1q-11 -1 -18.5 6t-8.5 17zM386 1742q2 10 11 15.5t19 3.5l32 -8q2 0 6.5 1.5t11.5 3.5t15 3q10 2 19 -4.5t10 -16.5q2 -10 -4.5 -19t-16.5 -10q-2 0 -8 -2t-14 -4t-17 -2t-18 1.5t-17.5 4.5t-9.5 3q-10 2 -15.5 11t-3.5 19z" />
<glyph unicode="&#xd0;" horiz-adv-x="1260" d="M18 301q-3 10 2.5 19t15.5 12q7 2 31 2h32q78 0 120 22q16 9 24 17l2 2l-1 3v4v490h-194q-11 0 -18 7t-7 17q0 11 7.5 18.5t17.5 7.5h194v550q0 2 0.5 5t0.5 4q-3 5 -18 15q-20 15 -47 20t-73 5t-65 2q-10 1 -17 8.5t-6 18.5q1 10 8.5 17t18.5 6q33 -3 65.5 -0.5t74 -6 t71.5 -30.5q8 -6 13 -10q12 10 22 15q26 13 81 20q41 5 99 5q14 0 44 1t54 0.5t46 -2.5q192 -18 324 -115q47 -34 84 -73q178 -184 192 -480q1 -12 -2 -42q-2 -27 -8 -79q-25 -206 -139 -324q-144 -149 -420 -162q-18 -1 -104 -1q-14 0 -40 0.5t-48 1t-42 1.5q-2 0 -20.5 1 t-25.5 1.5t-22 3t-27 6t-23 9.5q-15 7 -26 17q-13 -11 -25 -18q-51 -28 -145 -28h-32q-16 0 -18 -1q-10 -3 -19 2.5t-12 15.5zM294 382q2 -3 2 -9q12 -12 21 -16q9 -5 22 -7.5t22 -3.5t28.5 -2t26.5 -2q1 0 127 -3h32h38h32q254 11 386 147q104 108 126 296q3 28 7 77 q2 28 2 36q-5 128 -50 245t-128 203q-37 38 -77 67q-121 88 -300 105q-11 1 -139 1q-42 0 -94 -5q-45 -6 -63 -15q-10 -5 -18 -13l-3 -11v-550h219q10 0 17.5 -7.5t7.5 -18.5q0 -10 -7 -17t-18 -7h-219v-490z" />
<glyph unicode="&#xd1;" horiz-adv-x="1268" d="M9 305q0 11 7 18.5t17 7.5q1 0 3.5 0.5t7.5 1t10 0.5q91 2 117 8q11 2 40 15l1 3v46v169v690q0 13 2 41q0 21 6 33q2 4 17 19l16 16q-1 4 -3 10t-3 10q-15 52 -22 89q-2 10 4 19t16 11t18.5 -4t10.5 -16q3 -15 22 -85q1 -3 2 -8t2 -9t2 -7q2 -1 4 -1t4 -1q3 -1 15 -6.5 t18 -7.5q1 -1 5 -2t9 -3.5t10 -5.5q7 -4 11.5 -10l7.5 -10l2 -5q22 -29 42 -57q47 -67 143 -201l246 -345q62 -86 93 -130q24 -32 29 -39q12 -18 13 -19l2 -1q3 -1 8 -2.5t9 -3.5q6 -2 16.5 -7t15.5 -7l19 19l2 2l2 1q3 13 3 53q0 15 0.5 44.5t0.5 43.5v817l-9 3 q-22 9 -45 14q-19 4 -61 4.5t-65 3.5q-10 2 -16 10t-5 18q2 10 10 16t18 5q15 -2 58.5 -2.5t69.5 -5.5q30 -6 55 -16l14 -7q10 4 14 6q23 10 54 17q23 5 80 5q30 0 40 2t18.5 -3.5t10.5 -15.5t-3.5 -19t-15.5 -11q-14 -3 -50 -3q-53 0 -70 -4q-22 -4 -45 -14q-3 -1 -7 -3 v-817q0 -15 -0.5 -45t-0.5 -44q0 -49 -6 -68q-3 -11 -15 -23l-20 -19q-1 -1 5 -20q20 -73 22 -86q3 -24 -22 -28q-24 -3 -28 22q-1 12 -20 79q-1 4 -3 10.5t-3 9.5q-8 3 -23 10l-14 7q-1 1 -6 2.5t-11 4t-12 6.5q-10 7 -25 30q-24 32 -29 39q-16 23 -47.5 66.5t-45.5 63.5 q-41 57 -123 172.5t-123 173.5q-21 30 -69.5 96.5t-73.5 103.5q-26 38 -40 55q-6 7 -10 15l-2 1q-2 1 -5.5 2t-6.5 2q-6 3 -17.5 7.5t-17.5 6.5q-2 0 -5 1l-13 -13l-7 -7q0 -1 -1 -5t-1 -8q-1 -13 -1 -38v-690v-169v-47v-2q15 -7 25 -10q19 -6 41 -8.5t54 -3.5t48 -2 q11 -1 17.5 -8.5t5.5 -17.5t-8.5 -17t-18.5 -6q-14 1 -45 1.5t-57.5 3t-51.5 10.5q-26 9 -35 14h-2q-32 -14 -52 -19q-16 -4 -34 -6t-30.5 -2.5t-33 -0.5h-29.5q-1 0 -3.5 -1t-7.5 -1.5t-10 -0.5q-11 0 -18.5 7t-7.5 17zM419.5 1698.5q-3.5 9.5 0.5 18.5q0 1 1.5 7t4.5 14 t8 15q13 16 24 16q19 9 39 14q10 2 19 -3t11 -15t-3 -19t-15 -11q-9 -2 -31 -12q-1 0 -2.5 -0.5t-2.5 -1.5t-3 -9.5t-5 -14.5q-5 -9 -14.5 -13t-18.5 0q-9 5 -12.5 14.5zM592 1768q3 10 12.5 14t19.5 1q4 -1 9 -2t13 -2.5t13 -2.5q50 -12 74 -17q7 -1 22.5 -4t23.5 -5 q15 -3 21 -3q10 0 74 16q10 2 19 -3t11 -15t-3 -19t-15 -11q-8 -2 -24 -6.5t-31 -8t-30 -3.5q-2 0 -30 4l-48 9q-13 3 -38 9t-36 8q-37 7 -42 9q-10 3 -14 12.5t-1 19.5z" />
<glyph unicode="&#xd2;" horiz-adv-x="1223" d="M38 932q0 18 2 40q3 46 9 88q21 163 97 283q50 80 128 139.5t168 87.5q63 20 101 24q9 1 25.5 2t23.5 2q5 2 22 0.5t18 -1.5q44 -2 68 -5q143 -21 256.5 -118t170.5 -235q42 -105 53 -222q7 -62 6 -88q-9 -196 -111.5 -367t-276.5 -241q-50 -20 -110 -28q-85 -12 -174 4 q-148 28 -260 136q-41 39 -90 109q-99 142 -120 322q-6 59 -6 68zM88 933q0 -22 5 -64q19 -165 112 -298q48 -68 83 -102q99 -98 235 -123q82 -14 159 -4q45 5 98 26q158 64 253 222t103 341q1 17 -6 82q-11 114 -49 208q-52 126 -155.5 214t-232.5 107q-30 4 -64 6 q-19 2 -30 0q-9 -1 -25.5 -2t-23.5 -2q-48 -6 -93 -21q-82 -26 -152.5 -80t-115.5 -126q-70 -113 -91 -264q-4 -28 -8 -84q-2 -28 -2 -36zM506 1767q3 10 12.5 14.5t19.5 1.5q1 0 34 -5q14 -2 43.5 -7t44.5 -8l35 -6l8 -1q8 -1 14 -3q11 -3 38 -20q8 -5 10.5 -16t-2.5 -19 t-15.5 -10.5t-18.5 2.5q-22 13 -28 15l-2 1q-2 0 -5.5 1t-6.5 1l-36 6q-14 3 -43 7t-44 7q-3 1 -11 2t-16 2.5t-15 3.5q-10 3 -14.5 12t-1.5 19z" />
<glyph unicode="&#xd3;" horiz-adv-x="1223" d="M38 932q0 18 2 40q3 46 9 88q21 163 97 283q50 80 128 139.5t168 87.5q63 20 101 24q9 1 25.5 2t23.5 2q5 2 22 0.5t18 -1.5q44 -2 68 -5q143 -21 256.5 -118t170.5 -235q42 -105 53 -222q7 -62 6 -88q-9 -196 -111.5 -367t-276.5 -241q-50 -20 -110 -28q-85 -12 -174 4 q-148 28 -260 136q-41 39 -90 109q-99 142 -120 322q-6 59 -6 68zM88 933q0 -22 5 -64q19 -165 112 -298q48 -68 83 -102q99 -98 235 -123q82 -14 159 -4q45 5 98 26q158 64 253 222t103 341q1 17 -6 82q-11 114 -49 208q-52 126 -155.5 214t-232.5 107q-30 4 -64 6 q-19 2 -30 0q-9 -1 -25.5 -2t-23.5 -2q-48 -6 -93 -21q-82 -26 -152.5 -80t-115.5 -126q-70 -113 -91 -264q-4 -28 -8 -84q-2 -28 -2 -36zM406 1713.5q2 10.5 10 16.5q14 10 26 15q14 7 18 8q5 2 44 8l93 15q6 1 15.5 2.5t16 2.5t10.5 2q10 3 19 -1.5t12 -14.5t-1.5 -19 t-14.5 -12q-9 -3 -48 -9q-16 -3 -47 -8t-46 -8q-7 -1 -20.5 -2.5t-18.5 -3.5q-1 0 -9 -5q-4 -2 -11 -5t-9 -5q-8 -6 -18.5 -4.5t-16.5 9.5t-4 18.5z" />
<glyph unicode="&#xd4;" horiz-adv-x="1223" d="M38 932q0 18 2 40q3 46 9 88q21 163 97 283q50 80 128 139.5t168 87.5q63 20 101 24q9 1 25.5 2t23.5 2q5 2 22 0.5t18 -1.5q44 -2 68 -5q143 -21 256.5 -118t170.5 -235q42 -105 53 -222q7 -62 6 -88q-9 -196 -111.5 -367t-276.5 -241q-50 -20 -110 -28q-85 -12 -174 4 q-148 28 -260 136q-41 39 -90 109q-99 142 -120 322q-6 59 -6 68zM88 933q0 -22 5 -64q19 -165 112 -298q48 -68 83 -102q99 -98 235 -123q82 -14 159 -4q45 5 98 26q158 64 253 222t103 341q1 17 -6 82q-11 114 -49 208q-52 126 -155.5 214t-232.5 107q-30 4 -64 6 q-19 2 -30 0q-9 -1 -25.5 -2t-23.5 -2q-48 -6 -93 -21q-82 -26 -152.5 -80t-115.5 -126q-70 -113 -91 -264q-4 -28 -8 -84q-2 -28 -2 -36zM397 1704q2 11 10 16l35 23l17 11q6 3 9 4l27 6l55 13l27 7q10 2 19 -3t11 -15t-3 -19.5t-15 -11.5l-28 -7l-55 -13l-23 -5l-14 -9 l-35 -23q-8 -5 -18.5 -3t-15.5 10t-3 19zM639 1765q2 10 11 15t19 3l64 -15l29 -7l17 -3l8 -4l18 -12l34 -21q9 -5 11 -15.5t-3 -19.5t-15 -11t-19 3l-35 22l-15 10l-12 3l-30 6l-64 16q-10 2 -15 11t-3 19z" />
<glyph unicode="&#xd5;" horiz-adv-x="1223" d="M38 932q0 18 2 40q3 46 9 88q21 163 97 283q50 80 128 139.5t168 87.5q63 20 101 24q9 1 25.5 2t23.5 2q5 2 22 0.5t18 -1.5q44 -2 68 -5q143 -21 256.5 -118t170.5 -235q42 -105 53 -222q7 -62 6 -88q-9 -196 -111.5 -367t-276.5 -241q-50 -20 -110 -28q-85 -12 -174 4 q-148 28 -260 136q-41 39 -90 109q-99 142 -120 322q-6 59 -6 68zM88 933q0 -22 5 -64q19 -165 112 -298q48 -68 83 -102q99 -98 235 -123q82 -14 159 -4q45 5 98 26q158 64 253 222t103 341q1 17 -6 82q-11 114 -49 208q-52 126 -155.5 214t-232.5 107q-30 4 -64 6 q-19 2 -30 0q-9 -1 -25.5 -2t-23.5 -2q-48 -6 -93 -21q-82 -26 -152.5 -80t-115.5 -126q-70 -113 -91 -264q-4 -28 -8 -84q-2 -28 -2 -36zM358 1713q1 4 9 26q1 7 8 16q4 5 9.5 8.5t8.5 4.5h3q24 12 41 15q10 2 19 -4.5t10 -16.5t-5 -18t-16 -10q-6 -1 -28 -11l-4 -2 q-6 -13 -7 -20q-2 -10 -11 -15t-19 -3t-15 11t-3 19zM531 1768q3 10 12.5 14t19.5 1q4 -1 8.5 -2t12 -2.5l12.5 -2.5q44 -10 65 -15q33 -7 55 -11q17 -3 23 -3q18 0 49 9q1 0 9.5 3t15.5 4q10 1 18 -5t10 -16t-4.5 -19t-16.5 -10q-2 0 -19 -5q-35 -10 -61 -11q-5 0 -33 4 q-15 2 -56 11q-44 10 -65 15q-30 6 -39 9q-10 3 -14.5 12.5t-1.5 19.5z" />
<glyph unicode="&#xd6;" horiz-adv-x="1223" d="M38 932q0 18 2 40q3 46 9 88q21 163 97 283q50 80 128 139.5t168 87.5q63 20 101 24q9 1 25.5 2t23.5 2q5 2 22 0.5t18 -1.5q44 -2 68 -5q143 -21 256.5 -118t170.5 -235q42 -105 53 -222q7 -62 6 -88q-9 -196 -111.5 -367t-276.5 -241q-50 -20 -110 -28q-85 -12 -174 4 q-148 28 -260 136q-41 39 -90 109q-99 142 -120 322q-6 59 -6 68zM88 933q0 -22 5 -64q19 -165 112 -298q48 -68 83 -102q99 -98 235 -123q82 -14 159 -4q45 5 98 26q158 64 253 222t103 341q1 17 -6 82q-11 114 -49 208q-52 126 -155.5 214t-232.5 107q-30 4 -64 6 q-19 2 -30 0q-9 -1 -25.5 -2t-23.5 -2q-48 -6 -93 -21q-82 -26 -152.5 -80t-115.5 -126q-70 -113 -91 -264q-4 -28 -8 -84q-2 -28 -2 -36zM184 1658v1q0 11 7 18t18 7t18 -7t7 -18v-1q0 -10 -7 -17t-18 -7t-18 7t-7 17z" />
<glyph unicode="&#xd7;" horiz-adv-x="756" d="M108 500q0 10 8 17l226 227l-59 59l-166 167q-7 8 -7 18t7 18t17 8t18 -8l166 -167l60 -60l227 228q17 17 35 0q8 -7 8 -18t-8 -18l-227 -227l227 -227q8 -7 8 -17t-8 -18t-18 -8t-17 8l-227 226l-226 -226q-8 -8 -18 -8t-18 8t-8 18z" />
<glyph unicode="&#xd8;" horiz-adv-x="1198" d="M37.5 258q-1.5 10 5.5 18l41 50l72 89l6 7l2 5q2 4 5 7l36 36q0 2 0.5 4.5t0.5 3.5h-1l-3 1l-6 2t-7.5 3.5t-7.5 6.5q-6 7 -20 29q-29 48 -33 55q-55 106 -73 239q-7 52 -7 94q0 32 6 88q23 246 138 394q38 49 94 94q45 35 78 52q56 28 112 41q26 6 79 10q39 3 80 0 q102 -7 181 -42q64 -28 115 -69q5 -4 34 -30q1 0 3 -1t4.5 -2t5.5 -3q1 0 3 -2t3 -2q18 16 19 17q2 6 6 11q5 6 42.5 51.5t55.5 69.5q6 8 16.5 9.5t18.5 -4.5t9.5 -16.5t-4.5 -18.5q-11 -14 -99 -122l-1 -1q-1 -2 -2 -4.5t-3 -4.5q-7 -9 -19 -20t-14 -13q0 -2 0.5 -4.5 t0.5 -3.5q15 -5 21 -12q4 -5 17 -24q13 -20 30 -54q48 -97 69 -214q11 -60 14 -137q1 -10 -2 -37q-6 -72 -6 -74q-19 -185 -93 -309q-34 -55 -71 -96q-25 -27 -64 -58q-42 -33 -88 -55q-73 -34 -179 -41q-49 -4 -76 -2q-134 9 -250 83q-40 26 -58 41l-11.5 11.5t-10.5 9.5 q-4 0 -13 5q-6 4 -8 6l-23 -23l-2 -3l-3 -6l-8 -10l-72 -89l-41 -50q-16 -19 -35 -3q-8 7 -9.5 17zM98 907q0 -36 7 -87q15 -120 68 -221q13 -25 30 -51q2 -4 4.5 -7.5t5.5 -7.5t4 -6q2 0 12 -5h1q2 2 7 7.5t10 10.5t10 9t14 7q9 11 26.5 33t22.5 28q19 23 56 68.5t55 67.5 q78 95 220 271t201 248l42 51q2 2 5.5 7t7.5 10.5t9 9.5q4 4 8 5.5t8 2.5l3 1q1 1 5.5 6t7.5 8q2 2 6.5 5.5t5.5 4.5l-1 3q-1 2 -1 4q-3 4 -7 8q-7 0 -17 9q-28 26 -34 30q-47 37 -104 63q-69 31 -165 38q-30 2 -73 -1q-48 -4 -71 -9q-48 -11 -100 -37q-41 -22 -70 -46 q-46 -36 -85 -86q-105 -135 -128 -367q-6 -58 -6 -85zM255 471l9 -9q1 0 3 -0.5t5.5 -2t6.5 -3.5q8 -5 17 -14l10 -10q17 -14 53 -38q105 -67 227 -75q36 -2 68 1q96 7 161 38q44 21 79 48q33 25 58 53q36 38 65 88q69 117 86 287q2 24 6 74q2 24 2 30q-3 62 -14 131 q-19 112 -63 201q-8 17 -28 49q-2 3 -5 8.5t-5 7.5q-6 2 -11 4l-1 -2q-17 -17 -20 -19q-10 -7 -16 -7q-2 -2 -6.5 -8.5t-8.5 -10.5q-7 -8 -21 -26t-21 -26q-343 -424 -421 -519q-19 -22 -55.5 -67.5t-55.5 -68.5q-47 -58 -53 -65q-3 -4 -20 -12l-6.5 -6.5l-8.5 -8.5l-9 -9 l-6 -6q0 -2 -0.5 -4t-0.5 -3z" />
<glyph unicode="&#xd9;" horiz-adv-x="1296" d="M0 1553q1 10 8.5 17t18.5 6q13 -1 57 -1t77.5 -5.5t63.5 -21.5q16 -8 26 -18q18 16 48 28q40 15 110 17h30.5t36.5 2q10 1 18 -5t10 -16q1 -10 -5 -18t-16 -10q-8 -2 -38.5 -2h-34.5q-61 -2 -93 -15q-22 -9 -35 -20q-1 -1 -3 -2.5t-3 -2.5v-564q0 -136 5 -186 q15 -150 62 -225q53 -84 163 -134q49 -22 117 -25q5 0 12 0.5t16 1.5t14 1q103 9 189 66q33 23 64 49q30 26 31 27q5 4 10 5.5t9 2.5l4 1q6 2 16.5 4.5t14.5 4.5l1 2l3 3l20 20q7 7 10 9v7v930q-6 6 -15 12q-32 23 -104 27h-24q-25 0 -40 3q-10 2 -15.5 11t-3.5 19t11 15.5 t19 3.5q6 -1 15.5 -1.5t19 0t21.5 -0.5q87 -4 130 -37q3 -2 11 -8q6 6 18 14q39 26 100 30q11 1 38 1t38 2q10 2 19 -3.5t11 -15.5t-3.5 -19t-15.5 -11q-13 -4 -45 -3t-38 0q-47 -3 -77 -23q-7 -4 -20 -17v-929l1 -12q2 -4 3 -8t1.5 -8t0 -7.5t-0.5 -6.5t-0.5 -5t-1.5 -3v-2 v-65q0 -4 -0.5 -10t-0.5 -8l1 -1h1q4 -3 11 -8t10 -7q17 -9 57 -6q36 2 56 4q2 0 8 1l12 2t12 1q10 1 17.5 -6t8.5 -18q1 -10 -6 -17.5t-18 -8.5q-4 0 -14 -1.5t-15 -1.5q-37 -4 -58 -5q-52 -4 -83 12q-9 4 -17 11q-2 -4 -8.5 -14t-9.5 -15q-2 -4 -7.5 -14.5t-10.5 -19 t-12 -16.5t-17 -9t-18 6t-9 17t6 18q1 1 25 42q10 17 28 47q-1 7 -0.5 11t1 8.5t0.5 5.5v42q-2 -3 -14 -10q-6 -3 -40 -13q-2 0 -4 -1t-4 -1l-1 -1q-4 -3 -13 -11t-14 -12q-46 -38 -69 -53q-95 -63 -212 -74q-45 -3 -48 -3q-76 3 -135 30q-126 58 -186 153q-52 82 -68 246 q-6 64 -6 191v563q-15 13 -24 19q-22 12 -48 16t-70.5 5t-60.5 2q-11 1 -17.5 8.5t-5.5 17.5zM540 1767q3 10 12.5 14.5t19.5 1.5q6 -2 21.5 -4t21.5 -3q15 -2 47 -8t47 -8q1 0 17 -2t26 -5q7 -2 14 -6t14 -8.5t9 -5.5q22 -13 10 -33q-13 -22 -34 -10t-29 15q-5 2 -36 6 q-16 3 -47 8t-46 8q-44 7 -51 9q-10 3 -14.5 12t-1.5 19z" />
<glyph unicode="&#xda;" horiz-adv-x="1296" d="M0 1553q1 10 8.5 17t18.5 6q13 -1 57 -1t77.5 -5.5t63.5 -21.5q16 -8 26 -18q18 16 48 28q40 15 110 17h30.5t36.5 2q10 1 18 -5t10 -16q1 -10 -5 -18t-16 -10q-8 -2 -38.5 -2h-34.5q-61 -2 -93 -15q-22 -9 -35 -20q-1 -1 -3 -2.5t-3 -2.5v-564q0 -136 5 -186 q15 -150 62 -225q53 -84 163 -134q49 -22 117 -25q5 0 12 0.5t16 1.5t14 1q103 9 189 66q33 23 64 49q30 26 31 27q5 4 10 5.5t9 2.5l4 1q6 2 16.5 4.5t14.5 4.5l1 2l3 3l20 20q7 7 10 9v7v930q-6 6 -15 12q-32 23 -104 27h-24q-25 0 -40 3q-10 2 -15.5 11t-3.5 19t11 15.5 t19 3.5q6 -1 15.5 -1.5t19 0t21.5 -0.5q87 -4 130 -37q3 -2 11 -8q6 6 18 14q39 26 100 30q11 1 38 1t38 2q10 2 19 -3.5t11 -15.5t-3.5 -19t-15.5 -11q-13 -4 -45 -3t-38 0q-47 -3 -77 -23q-7 -4 -20 -17v-929l1 -12q2 -4 3 -8t1.5 -8t0 -7.5t-0.5 -6.5t-0.5 -5t-1.5 -3v-2 v-65q0 -4 -0.5 -10t-0.5 -8l1 -1h1q4 -3 11 -8t10 -7q17 -9 57 -6q36 2 56 4q2 0 8 1l12 2t12 1q10 1 17.5 -6t8.5 -18q1 -10 -6 -17.5t-18 -8.5q-4 0 -14 -1.5t-15 -1.5q-37 -4 -58 -5q-52 -4 -83 12q-9 4 -17 11q-2 -4 -8.5 -14t-9.5 -15q-2 -4 -7.5 -14.5t-10.5 -19 t-12 -16.5t-17 -9t-18 6t-9 17t6 18q1 1 25 42q10 17 28 47q-1 7 -0.5 11t1 8.5t0.5 5.5v42q-2 -3 -14 -10q-6 -3 -40 -13q-2 0 -4 -1t-4 -1l-1 -1q-4 -3 -13 -11t-14 -12q-46 -38 -69 -53q-95 -63 -212 -74q-45 -3 -48 -3q-76 3 -135 30q-126 58 -186 153q-52 82 -68 246 q-6 64 -6 191v563q-15 13 -24 19q-22 12 -48 16t-70.5 5t-60.5 2q-11 1 -17.5 8.5t-5.5 17.5zM534.5 1714.5q2.5 10.5 11.5 15.5q29 17 44 22q8 3 16.5 4.5t17 2t11.5 1.5q15 3 49 8.5t52 8.5q8 1 20 3t16 3q10 3 19 -1.5t12 -14.5t-1.5 -19t-14.5 -12q-8 -2 -15.5 -3.5 t-15.5 -2.5t-11 -2q-17 -3 -51 -8.5t-51 -8.5q-6 -1 -19.5 -2.5t-17.5 -3.5q-9 -3 -35 -19q-9 -5 -19 -2.5t-15 11.5t-2.5 19.5z" />
<glyph unicode="&#xdb;" horiz-adv-x="1296" d="M0 1553q1 10 8.5 17t18.5 6q13 -1 57 -1t77.5 -5.5t63.5 -21.5q16 -8 26 -18q18 16 48 28q40 15 110 17h30.5t36.5 2q10 1 18 -5t10 -16q1 -10 -5 -18t-16 -10q-8 -2 -38.5 -2h-34.5q-61 -2 -93 -15q-22 -9 -35 -20q-1 -1 -3 -2.5t-3 -2.5v-558q0 -204 22 -300 q19 -86 57 -134q29 -38 58 -60q44 -35 94 -57q49 -22 116 -25q5 0 12 0.5t16 1.5t14 1q103 9 189 66q33 23 64 49q30 27 31 27q5 4 10 5.5t9 2.5l4 1q6 2 16.5 4.5t14.5 4.5l1 2l3 3l20 20q7 7 10 9v7v930q-6 6 -15 12q-32 23 -104 27h-24q-25 0 -40 3q-10 2 -15.5 11 t-3.5 19t11 15.5t19 3.5q6 -1 15.5 -1.5t18.5 0t21 -0.5q88 -4 131 -37q3 -2 11 -8q1 0 6.5 5.5t9.5 7.5q37 26 95 31q14 1 45.5 0.5t37.5 2.5q10 2 19 -3.5t11 -15.5t-3.5 -19t-15.5 -11q-20 -4 -49 -4h-41q-44 -5 -70 -22q-9 -6 -20 -17v-929l1 -12q2 -4 3 -8t1.5 -8 t0 -7.5t-0.5 -6.5t-0.5 -5t-1.5 -3v-2v-65q0 -4 -0.5 -10t-0.5 -8l1 -1h1q16 -13 21 -15q17 -9 57 -6q38 2 56 4q2 0 13 1.5t19 2.5q10 1 17.5 -6t8.5 -18q1 -10 -6 -17.5t-18 -8.5q-5 0 -15 -1.5t-15 -1.5q-38 -4 -57 -5q-52 -4 -83 12q-4 2 -10 6t-7 5q-2 -4 -8.5 -14 t-9.5 -15q-2 -4 -7.5 -14.5t-10.5 -19t-12 -16.5t-17 -9t-18 6t-9 17t6 18q1 1 25 42q10 17 28 47q-1 7 -0.5 11t1 8.5t0.5 5.5v42q-2 -3 -14 -10q-6 -3 -40 -13q-2 0 -4 -1t-4 -1l-1 -1q-4 -3 -12.5 -11t-13.5 -12q-32 -28 -70 -53q-95 -63 -212 -74q-45 -3 -48 -3 q-75 3 -135 29q-56 25 -104 64q-39 31 -67 68q-44 58 -66 153q-23 100 -23 312v557q-15 13 -24 19q-22 12 -48 16t-70.5 5t-60.5 2q-11 1 -17.5 8.5t-5.5 17.5zM464 1704q2 11 10 16l33 21l20 14q2 1 8 3l24 6l59 13l26 7q10 2 19 -3t11 -15t-3 -19.5t-15 -11.5l-27 -6 l-58 -14l-21 -5l-16 -10l-33 -22q-8 -5 -18.5 -3t-15.5 10t-3 19zM706 1764q2 10 11 15.5t19 3.5q11 -2 23 -5t26 -6t21 -5q34 -7 44 -11q4 -2 8 -4.5t6 -4.5t3 -2q31 -20 38 -24q22 -13 10 -34q-5 -9 -15 -11.5t-19 2.5q-18 9 -41 25l-10 7q-3 2 -35 8q-13 3 -37 9t-33 8 q-10 2 -15.5 10.5t-3.5 18.5z" />
<glyph unicode="&#xdc;" horiz-adv-x="1293" d="M11 1553q2 10 10.5 16t18.5 4q4 -1 42 -3q84 -4 128 -25q22 -11 32 -19q28 21 57 31q21 7 57 11t39 5q10 2 18.5 -4t10.5 -16t-4 -19t-16 -11q-15 -3 -45.5 -6.5t-44.5 -7.5q-25 -9 -45 -26l-3 -11v-573v-30v-31.5v-29t0.5 -31t1.5 -29t2 -31t2.5 -28t3.5 -30.5t5 -28 t6 -29q20 -79 49 -123q22 -33 60 -66t103 -62q45 -20 112 -25q19 -1 60 1q53 3 95 10q38 6 91 29q120 52 167 214q26 89 30 244q2 72 2 216v401q0 9 -0.5 28.5t-0.5 29.5v4q-2 1 -8 3q-16 5 -62 13q-3 1 -6.5 0.5t-11.5 0.5t-15 4q-10 4 -14 13.5t0 19.5t13.5 14t19.5 0 q4 0 22 -3q62 -11 70 -14q10 -4 17 -7l2 1q15 8 37 13t81 10q43 2 53 4t18.5 -3.5t10.5 -15.5t-3.5 -18.5t-15.5 -10.5q-9 -2 -60 -5q-49 -4 -72 -10q-18 -4 -26 -8v-5q0 -9 0.5 -28.5t0.5 -29.5v-401q0 -145 -2 -218q-4 -160 -32 -256q-55 -185 -195 -246q-59 -26 -103 -33 q-35 -6 -99 -10q-51 -2 -67 -1q-73 5 -130 30q-71 32 -114 69q-42 35 -69 77q-36 54 -56 138q-4 15 -7 31.5t-5 29.5t-4 32.5t-3 30t-2 32.5t-1.5 29.5t-0.5 32.5v29v32v30v573q0 2 0.5 5t0.5 4q-9 10 -28 19q-36 17 -109 21h-22t-27 2q-10 2 -16 11t-4 19z" />
<glyph unicode="&#xdd;" horiz-adv-x="1140" d="M1 1555q2 10 10.5 15.5t18.5 3.5q11 -2 36 -2.5t34 -1.5q33 -3 67 -14q36 -12 62 -25q4 -3 11 -5v1l8 10q9 10 17 16.5t19 10.5q17 7 52 7h36.5t34.5 1q10 1 17.5 -5.5t8.5 -17.5q1 -10 -5.5 -17.5t-17.5 -8.5q-15 -1 -40 -1.5t-33 -0.5q-25 0 -34 -4q-5 -3 -27 -26 q-1 -2 -3 -5q1 -4 3.5 -13.5t3.5 -15.5q2 -13 6 -24q5 -14 33 -61q8 -14 25 -42.5t25 -42.5q19 -32 56.5 -96t56.5 -96q12 -20 35.5 -60.5t35.5 -60.5l21 -36q2 -3 5.5 -9t4.5 -8l3 4q9 9 17 14q4 2 29 15l4 2l4 8q10 20 16 30q9 15 25.5 46t24.5 47q25 45 73.5 136 t72.5 137q7 12 20 36t15 28q16 31 19 41q2 7 5.5 23.5t5.5 25.5v3q-5 1 -22 3q-34 2 -53 2q-28 0 -38 2t-15.5 10.5t-3.5 18.5t11 15.5t19 3.5q6 -1 28 -1q37 0 56 -1q33 -3 44 -9q2 -1 5 -3.5t4 -3.5l18 6q32 9 102 11q6 1 15.5 1h12.5h4q20 9 32 -9q5 -9 3 -19.5 t-11 -15.5q-9 -6 -22 -6h-31q-63 -2 -91 -10q-3 -1 -8.5 -2.5t-8.5 -2.5q0 -3 -1 -5q-2 -7 -5.5 -23.5t-6.5 -26.5q-7 -23 -23 -51q-11 -21 -35 -65q-24 -46 -72.5 -136t-73.5 -136q-9 -16 -25.5 -46.5t-24.5 -46.5q-10 -20 -16 -30q-9 -17 -10 -19q-4 -5 -9 -8.5t-8 -3.5 l-3 -1q-5 -3 -13.5 -6.5t-11.5 -5.5l-2 -3l-5 -5l-15 -14v-500q13 -13 22 -18q32 -19 112 -23h25t27 -1q16 3 32 -5q9 -4 12 -14.5t-2 -19.5q-11 -21 -33 -11h-1q-1 0 -2.5 0.5t-4 0.5h-4.5q-7 0 -24 -0.5t-27 0.5q-92 4 -135 30q-7 5 -21 16q-51 -44 -148 -46h-48 q-21 0 -25 -1q-10 -2 -19 3t-11 15t3 19t15 11q12 3 37 3h48q85 2 122 40v501q-12 11 -14 15q-3 4 -5.5 8t-4.5 8.5t-3 5.5q-3 6 -10 18.5t-11 18.5q-12 20 -35.5 60t-35.5 60q-15 25 -53.5 91t-59.5 101q-9 14 -25 42.5t-25 42.5q-30 50 -37 68q-2 5 -3.5 11.5t-2.5 13 t-2 8.5q-1 4 -3.5 14.5t-3.5 16.5q-3 1 -8.5 4t-7.5 4q-23 12 -56 22q-38 12 -55 13q-12 1 -23 0.5t-26 0t-28 3.5q-10 2 -15.5 11t-3.5 19zM446.5 1713.5q1.5 10.5 9.5 16.5q14 10 26 15q14 7 17 8q8 3 16.5 4.5t17.5 2t12 1.5q15 2 45.5 7t45.5 8q6 1 21.5 3t21.5 4 q10 3 19.5 -1.5t12.5 -14.5t-1.5 -19t-14.5 -12q-7 -2 -51 -9q-15 -3 -45.5 -8t-45.5 -7q-6 -1 -14.5 -2.5t-14 -2.5t-9.5 -2l-10 -5q-17 -8 -19 -10q-8 -6 -18.5 -4.5t-16.5 9.5t-4.5 18.5z" />
<glyph unicode="&#xde;" horiz-adv-x="934" d="M11 1558q4 10 13.5 14t18.5 0h8q21 0 33 -1q4 0 35 -1.5t44 -3t37 -8t43 -18.5q7 -4 19 -14q10 9 27 19q30 16 63.5 21.5t77 5.5t56.5 1q11 1 18.5 -6t8.5 -17q1 -11 -6 -18.5t-17 -8.5q-18 -1 -61 -1.5t-68.5 -4.5t-47.5 -16q-12 -6 -24 -18l-2 -10v-166q30 1 105 6.5 t118.5 6.5t107 -9.5t113.5 -36.5q41 -21 71 -50q69 -68 89 -190q8 -45 8 -59q0 -17 -5 -44q-6 -42 -18 -84q-38 -124 -129 -185q-113 -74 -304 -67q-31 1 -80 7q-38 3 -76 3v-221q2 -5 2 -11q11 -11 17 -14q35 -21 115 -25h24.5t27.5 -1q21 0 31 -5q9 -5 12.5 -14.5 t-1.5 -18.5q-11 -22 -33 -12h-1q-1 0 -2.5 0.5t-4 0.5h-4.5q-7 0 -24.5 -0.5t-27.5 0.5q-94 4 -138 32q-9 5 -18 14q-21 -17 -42 -26q-29 -12 -59.5 -16t-70 -4t-52.5 -1q-10 -1 -17.5 5.5t-8.5 17.5q-2 24 22 26q19 2 57 2t63 3.5t47 12.5q15 6 32 20l5 5q0 1 -0.5 4 t-0.5 5v1090q0 2 0.5 3.5t0.5 2.5l-2 2q-12 12 -19 16q-13 8 -31 13t-29 6t-39 2.5t-37 2.5h-30q-20 0 -27 3q-22 9 -13 33zM287 655q54 0 81 -3q69 -8 77 -8q175 -7 275 60q78 53 109 158q7 25 15 77q5 35 5 36q0 8 -7 50q-17 108 -75 164q-25 24 -58 41q-44 22 -101 31 t-98 8t-115 -6t-108 -6v-602z" />
<glyph unicode="&#xdf;" horiz-adv-x="935" d="M23 300q-3 10 2.5 19t15.5 12q11 3 32 3h13.5h15h11.5q54 3 91 34l1 10v198q0 88 -0.5 262.5t-0.5 261.5h-1q-38 -13 -55 -16q-12 -2 -31.5 -2.5t-20.5 -0.5q-2 0 -9.5 -1.5t-13.5 -2.5q-10 -1 -18 5.5t-10 16.5q-1 10 5.5 18t16.5 10q16 3 25 4q44 2 48 3q18 2 46 13 q2 1 8.5 3t10.5 4v26q5 99 7 118q1 14 11 68q15 69 34 112q27 60 72.5 107.5t104.5 67.5q32 11 63 14q103 12 166 -17q94 -44 121 -161q7 -35 7 -43q0 -17 -8 -57q-17 -86 -60 -147q-36 -50 -113 -116q-3 -3 -7 -6q-3 -2 -4 -3q0 -1 -1 -4t-2.5 -8t-3.5 -9l-2 -4l-2 -3 q1 -3 3 -7l8 -6q4 -3 14.5 -11t16.5 -13q72 -59 115 -106q84 -89 118 -178q16 -42 25 -105q4 -24 4 -41q1 -12 -5 -56q-9 -70 -27 -123q-28 -79 -81 -127q-39 -35 -77 -45q-4 -1 -36 -4q-50 -3 -97 10q-35 10 -53 27q-21 19 -30 57q-6 26 -8 40q0 1 -2 7t-3 13t0 15 q1 6 2 11t3 8.5t3.5 6t2.5 4.5l1 1q3 9 12 13.5t19 1.5t14.5 -12.5t1.5 -19.5q-1 -3 -9 -19q0 -1 0.5 -4t1.5 -8.5t2 -9.5q2 -12 8 -36q6 -25 14 -32q11 -10 33 -16q40 -11 81 -8q24 2 27 3q29 7 56 33q42 38 67 107q16 46 24 111q5 47 5 50q0 8 -4 36q-6 51 -22 92 q-32 84 -107 164q-36 39 -110 100q-5 4 -15.5 12t-15.5 12q-8 3 -17 15q-3 4 -7 12h-35q-11 0 -18 7t-7 18t7 18t18 7h36q1 1 2 6.5t4 12.5t7 13q7 10 20 19q68 56 104 106q38 53 52 128q7 31 7 47q0 5 -6 33q-20 94 -92 126q-49 22 -141 13q-23 -3 -52 -13 q-47 -16 -86 -56.5t-61 -91.5q-20 -45 -31 -102q-8 -43 -10 -61q-2 -19 -7 -116v-31q3 -6 -1 -16q0 -93 0.5 -278t0.5 -277v-198v-7q4 -3 20 -12q27 -16 62 -22q7 -1 23.5 -2.5t21.5 -2.5q24 -4 21 -28q-1 -10 -9 -16t-19 -5q-6 1 -21.5 1.5t-25.5 2.5q-44 8 -78 28l-18 12 q-47 -37 -116 -42q-15 -1 -42 -1q-18 0 -20 -1q-10 -3 -19 2t-12 15z" />
<glyph unicode="&#xe0;" horiz-adv-x="847" d="M25 699q-1 19 7 85q6 63 23 117q51 164 178 226q54 26 137 30q100 5 181 -52q18 -13 35 -29q8 -7 16 -15q1 -1 10 -4q5 -2 15 -6.5t15 -6.5q1 0 3.5 -1t4.5 -2h1l4 4q0 1 1.5 9t3.5 14q5 18 10 44q3 12 3 18q1 11 8.5 18t17.5 6q11 -1 18 -8.5t6 -17.5q0 -2 -4 -26 q-7 -34 -10 -46q-5 -27 -10 -35q-3 -5 -13 -15l-9 -9v-4v-564v-35l4 -4q17 -13 49 -13.5t66 5.5q7 1 17.5 1.5t18.5 1.5t15 2q10 2 19.5 -4t10.5 -16q2 -10 -4 -19t-16 -10q-12 -2 -31.5 -3t-24.5 -2t-23.5 -3.5t-29.5 -3t-28 -0.5t-32 4.5t-29 13.5l-20 -35l-14 -31 q-5 -9 -15 -12.5t-19 0.5q-9 5 -12.5 15t0.5 19l14 28q-2 0 -4.5 -0.5t-4.5 -1.5q-18 -4 -19 -4q-1 -1 -5 -3t-8.5 -4.5t-9.5 -4.5q-28 -12 -57 -18q-34 -8 -79 -11q-28 -3 -39 -2q-64 3 -123 30.5t-102 73.5q-57 61 -86 144t-31 172zM75 700q2 -80 28 -154.5t75 -127.5 q78 -84 191 -89q5 0 33 2q48 4 72 9q26 6 47 16q1 1 9.5 5.5t16.5 7.5q5 2 10.5 3t10.5 1.5t6 0.5q25 7 31 8h19l3 5v2v40v565v2q-1 0 -3 2q-2 0 -2 1q-10 4 -28 12l-4 1q-3 1 -8 2.5t-10 5.5q-6 5 -12.5 11.5l-7.5 7.5q-16 16 -30 25q-68 46 -150 43q-73 -3 -117 -25 q-107 -52 -152 -196q-14 -45 -21 -108q-7 -69 -7 -78zM242 1563q1 10 8.5 17t18.5 6q15 0 24 -5l8 -6t6 -6t3.5 -5t2.5 -4l1 -2q25 -34 28 -37q93 -120 132 -169q6 -8 5 -19t-9 -17q-21 -15 -35 4q-25 32 -133 171q-18 24 -28 37q-2 2 -6 8h-1q-1 1 -2 1q-11 1 -17.5 8.5 t-5.5 17.5z" />
<glyph unicode="&#xe1;" horiz-adv-x="885" d="M25 698q-1 20 7 86q8 73 27 129q48 142 155 204q63 37 155 40q98 5 181 -52q18 -12 41 -33l9 -9l1 -2q0 -1 11 -4q25 -10 31 -13q4 -2 7 -3h1l4 4q0 1 1 4t1.5 8t1.5 9q6 26 9 40q1 3 2 8.5t2 8.5t1 5q1 11 8.5 17.5t17.5 5.5q11 -1 18 -8.5t6 -17.5q-1 -11 -6 -29 l-3 -17q-4 -17 -6 -25q-5 -26 -9 -33q-3 -5 -13 -15l-9 -9v-4v-563v-36v-1q2 -1 5 -4q5 -3 11 -5.5t11 -4t13.5 -2t13 -1t16 0.5t15.5 1.5t17 2t17 1.5q5 0 24 1.5t28 3.5q10 2 19 -4t10 -16q2 -10 -4 -19t-16 -10q-12 -2 -31.5 -3t-24.5 -2t-23.5 -3.5t-29.5 -3t-28 -0.5 t-32 4.5t-29 13.5l-24 -42l-13 -30q-5 -9 -14.5 -12.5t-18.5 0.5q-9 5 -13 14.5t0 18.5l15 31v1l2 3q-2 0 -5 -1t-5 -2q-4 -1 -8.5 -1.5t-7 -1t-3.5 -0.5t-8 -4.5t-14 -7.5q-26 -11 -57 -18q-33 -7 -80 -11q-27 -3 -38 -2q-130 6 -224 103q-43 46 -73 112q-42 96 -45 204z M75 700q3 -99 41 -185q27 -61 63 -98q80 -83 190 -88q7 0 33 2q41 3 72 10q32 8 48 15q1 1 9.5 5.5t16.5 7.5q5 2 10 3t9 1.5t5 0.5q29 7 34 8q1 1 10 0h8l3 4v8v36v564v2q-1 0 -3 1l-2 1q-5 2 -14.5 6.5t-14.5 6.5l-3 1q-4 1 -8.5 3t-8.5 5q-3 2 -6 5l-5 5t-3 3.5t-2 1.5 q-23 21 -35 29q-68 46 -150 43q-81 -3 -133 -33q-91 -53 -132 -176q-19 -55 -25 -119q-7 -69 -7 -79zM296 1325q-1 11 5 19q5 6 14 16t13 15q61 74 100 122q6 8 13.5 17t16 19t13.5 16q2 2 6 7.5t5 6.5q2 7 13 13q7 4 14.5 5.5t10.5 0.5h4q17 2 53 2q11 0 18 -7t7 -17 q0 -11 -7.5 -18.5t-17.5 -7.5q-32 0 -47 -2h-9q-2 -2 -5.5 -6.5t-5.5 -7.5q-7 -8 -21.5 -26t-21.5 -26q-66 -82 -100 -122q-4 -4 -13 -15t-14 -17q-14 -19 -35 -4q-8 6 -9 17z" />
<glyph unicode="&#xe2;" horiz-adv-x="885" d="M25 698q-1 20 7 86q9 74 27 129q48 142 155 204q63 37 155 40q98 5 181 -52q18 -12 41 -33q3 -2 5 -4.5t4 -4.5l1 -2l1 -1q2 0 4 -0.5t4 -1.5q11 -4 33 -14q4 -2 7 -3h1l4 4q0 1 1 4t1.5 8t1.5 9q6 26 9 40q1 3 2 8.5t2 8.5t1 5q1 11 8.5 17.5t17.5 5.5q11 -1 18 -8.5 t6 -17.5q-1 -11 -6 -29q-1 -4 -4 -19t-5 -23l-1 -6q-1 -6 -2.5 -13t-5.5 -14q-3 -5 -13 -15l-9 -9v-4v-563v-36v-1q2 -1 5 -4q5 -3 11 -5.5t11 -4t13.5 -2t13 -1t16 0.5t15.5 1.5t17 2t17 1.5q5 0 24 1.5t28 3.5q10 2 19 -4t10 -16q2 -10 -4 -19t-16 -10q-12 -2 -31.5 -3 t-24.5 -2t-23.5 -3.5t-29.5 -3t-28 -0.5t-32 4.5t-29 13.5l-24 -42l-13 -30q-5 -9 -14.5 -12.5t-18.5 0.5q-9 5 -13 14.5t0 18.5l15 31v1l2 3q-2 0 -5 -1t-5 -2q-4 -1 -8.5 -1.5t-7 -1t-3.5 -0.5t-8 -4.5t-14 -7.5q-26 -11 -57 -18q-23 -6 -74 -10q-39 -3 -44 -3 q-130 6 -224 103q-42 43 -73 112q-42 96 -45 204zM75 700q3 -99 41 -185q27 -61 63 -98q80 -83 190 -88q10 0 38 2q38 3 67 10q32 8 48 15q1 1 9.5 5.5t16.5 7.5q5 2 10 3t9 1.5t5 0.5q29 7 34 8q1 1 10 0h8l3 4v8v36v564v2q-1 0 -3 1l-2 1q-6 3 -17.5 8t-13.5 6q-7 0 -18 8 q-3 2 -6 5l-5 5t-3 3.5t-2 1.5q-23 21 -35 29q-68 46 -150 43q-81 -3 -133 -33q-91 -53 -132 -176q-19 -55 -25 -119q-7 -69 -7 -79zM137.5 1322.5q0.5 10.5 8.5 17.5q66 60 122 120q32 35 34 37q18 23 22 26l16 8q3 1 9.5 3.5t8.5 3.5q6 7 18 9q12 1 21 -9q1 -1 3 -1.5 t3 -0.5q16 -5 24 -12q7 -5 21 -24q48 -56 102 -108q5 -5 25.5 -23.5t31.5 -29.5q7 -7 7 -18t-7 -18t-18 -7t-18 7q-17 17 -55 53q-61 57 -106 111q-3 3 -6 7.5t-4.5 7t-2.5 2.5l-2 1q-2 1 -5.5 2t-7.5 3q-3 0 -7 1q-3 -1 -8.5 -3t-7.5 -3l-4 -2q-1 -1 -6 -7.5t-9 -10.5 q-12 -14 -36 -40q-65 -70 -125 -123q-8 -7 -18 -6.5t-17 8.5t-6.5 18.5z" />
<glyph unicode="&#xe3;" horiz-adv-x="885" d="M25 698q-1 20 7 86q8 73 27 129q48 142 155 204q63 37 155 40q98 5 181 -52q18 -12 41 -33l9 -9l1 -2q0 -1 11 -4q25 -10 31 -13q4 -2 7 -3h1l4 4q0 1 1 4t1.5 8t1.5 9q6 26 9 40q1 3 2 8.5t2 8.5t1 5q1 11 8.5 17.5t17.5 5.5q11 -1 18 -8.5t6 -17.5q-1 -11 -6 -29 l-3 -17q-4 -17 -6 -25q-5 -26 -9 -33q-3 -5 -13 -15l-9 -9v-4v-563v-36v-1q2 -1 5 -4q5 -3 11 -5.5t11 -4t13.5 -2t13 -1t16 0.5t15.5 1.5t17 2t17 1.5q5 0 24 1.5t28 3.5q10 2 19 -4t10 -16q2 -10 -4 -19t-16 -10q-12 -2 -31.5 -3t-24.5 -2t-23.5 -3.5t-29.5 -3t-28 -0.5 t-32 4.5t-29 13.5l-24 -42l-13 -30q-5 -9 -14.5 -12.5t-18.5 0.5q-9 5 -13 14.5t0 18.5l15 31v1l2 3q-2 0 -5 -1t-5 -2q-4 -1 -8.5 -1.5t-7 -1t-3.5 -0.5t-8 -4.5t-14 -7.5q-26 -11 -57 -18q-33 -7 -80 -11q-27 -3 -38 -2q-130 6 -224 103q-43 46 -73 112q-42 96 -45 204z M75 700q3 -99 41 -185q27 -61 63 -98q80 -83 190 -88q7 0 33 2q41 3 72 10q32 8 48 15q1 1 9.5 5.5t16.5 7.5q5 2 10 3t9 1.5t5 0.5q29 7 34 8q1 1 10 0h8l3 4v8v36v564v2q-1 0 -3 1l-2 1q-5 2 -14.5 6.5t-14.5 6.5l-3 1q-4 1 -8.5 3t-8.5 5q-3 2 -6 5l-5 5t-3 3.5t-2 1.5 q-23 21 -35 29q-68 46 -150 43q-81 -3 -133 -33q-91 -53 -132 -176q-19 -55 -25 -119q-7 -69 -7 -79zM114 1368q7 31 26 62q16 26 38 42q17 11 46 19t45 7q37 -1 73 -18t69 -38.5t53 -28.5q19 -7 31 -7q8 0 32 6q25 5 35 13q15 10 26 31q16 29 20 46q2 10 11 15.5t19 3.5 t15 -11t3 -19q-5 -24 -24 -59q-16 -30 -41 -48q-18 -13 -53 -21q-26 -7 -42 -7q-25 0 -48 9q-31 11 -89.5 46.5t-91.5 36.5q-5 0 -31 -6q-21 -5 -30 -11q-14 -9 -24 -27q-13 -20 -20 -47q-2 -10 -11 -15.5t-19 -3.5t-15 11t-3 19z" />
<glyph unicode="&#xe4;" horiz-adv-x="885" d="M25 698q-1 20 7 86q8 73 27 129q48 142 155 204q63 37 155 40q98 5 181 -52q18 -12 41 -33l9 -9l1 -2q0 -1 11 -4q25 -10 31 -13q4 -2 7 -3h1l4 4q0 1 1 4t1.5 8t1.5 9q6 26 9 40q1 3 2 8.5t2 8.5t1 5q1 11 8.5 17.5t17.5 5.5q11 -1 18 -8.5t6 -17.5q-1 -11 -6 -29 l-3 -17q-4 -17 -6 -25q-5 -26 -9 -33q-3 -5 -13 -15l-9 -9v-4v-563v-36v-1q2 -1 5 -4q5 -3 11 -5.5t11 -4t13.5 -2t13 -1t16 0.5t15.5 1.5t17 2t17 1.5q5 0 24 1.5t28 3.5q10 2 19 -4t10 -16q2 -10 -4 -19t-16 -10q-12 -2 -31.5 -3t-24.5 -2t-23.5 -3.5t-29.5 -3t-28 -0.5 t-32 4.5t-29 13.5l-24 -42l-13 -30q-5 -9 -14.5 -12.5t-18.5 0.5q-9 5 -13 14.5t0 18.5l15 31v1l2 3q-2 0 -5 -1t-5 -2q-4 -1 -8.5 -1.5t-7 -1t-3.5 -0.5t-8 -4.5t-14 -7.5q-26 -11 -57 -18q-33 -7 -80 -11q-27 -3 -38 -2q-130 6 -224 103q-43 46 -73 112q-42 96 -45 204z M75 700q3 -99 41 -185q27 -61 63 -98q80 -83 190 -88q7 0 33 2q41 3 72 10q32 8 48 15q1 1 9.5 5.5t16.5 7.5q5 2 10 3t9 1.5t5 0.5q29 7 34 8q1 1 10 0h8l3 4v8v36v564v2q-1 0 -3 1l-2 1q-5 2 -14.5 6.5t-14.5 6.5l-3 1q-4 1 -8.5 3t-8.5 5q-3 2 -6 5l-5 5t-3 3.5t-2 1.5 q-23 21 -35 29q-68 46 -150 43q-81 -3 -133 -33q-91 -53 -132 -176q-19 -55 -25 -119q-7 -69 -7 -79zM514 1427q0 11 7 18t18 7h1q10 0 17.5 -7t7.5 -18t-7.5 -18t-17.5 -7h-1q-11 0 -18 7t-7 18z" />
<glyph unicode="&#xe5;" horiz-adv-x="885" d="M25 698q-1 20 7 86q8 73 27 129q48 142 155 204q63 37 155 40q98 5 181 -52q18 -12 41 -33l9 -9l1 -2q0 -1 11 -4q25 -10 31 -13q4 -2 7 -3h1l4 4q0 1 1 4t1.5 8t1.5 9q6 26 9 40q1 3 2 8.5t2 8.5t1 5q1 11 8.5 17.5t17.5 5.5q11 -1 18 -8.5t6 -17.5q-1 -11 -6 -29 l-3 -17q-4 -17 -6 -25q-5 -26 -9 -33q-3 -5 -13 -15l-9 -9v-4v-563v-36v-1q2 -1 5 -4q5 -3 11 -5.5t11 -4t13.5 -2t13 -1t16 0.5t15.5 1.5t17 2t17 1.5q5 0 24 1.5t28 3.5q10 2 19 -4t10 -16q2 -10 -4 -19t-16 -10q-12 -2 -31.5 -3t-24.5 -2t-23.5 -3.5t-29.5 -3t-28 -0.5 t-32 4.5t-29 13.5l-24 -42l-13 -30q-5 -9 -14.5 -12.5t-18.5 0.5q-9 5 -13 14.5t0 18.5l15 31v1l2 3q-2 0 -5 -1t-5 -2q-4 -1 -8.5 -1.5t-7 -1t-3.5 -0.5t-8 -4.5t-14 -7.5q-26 -11 -57 -18q-33 -7 -80 -11q-27 -3 -38 -2q-130 6 -224 103q-43 46 -73 112q-42 96 -45 204z M75 700q3 -99 41 -185q27 -61 63 -98q80 -83 190 -88q7 0 33 2q41 3 72 10q32 8 48 15q1 1 9.5 5.5t16.5 7.5q5 2 10 3t9 1.5t5 0.5q29 7 34 8q1 1 10 0h8l3 4v8v36v564v2q-1 0 -3 1l-2 1q-5 2 -14.5 6.5t-14.5 6.5l-3 1q-4 1 -8.5 3t-8.5 5q-3 2 -6 5l-5 5t-3 3.5t-2 1.5 q-23 21 -35 29q-68 46 -150 43q-81 -3 -133 -33q-91 -53 -132 -176q-19 -55 -25 -119q-7 -69 -7 -79zM214 1447q0 40 16 73q17 35 46 58q28 22 62 29q2 1 30 4h9.5t7.5 -0.5t5 -0.5q27 -2 40 -7q24 -7 44 -23q37 -28 52 -66q20 -46 10.5 -96.5t-44.5 -85.5q-19 -19 -36 -28 q-25 -14 -52 -17q-60 -8 -102 14q-47 24 -72 73q-16 33 -16 73zM264 1447.5q0 -28.5 11 -50.5q17 -35 50 -51q27 -14 73 -9q20 3 34 11q8 4 24 20q24 24 30.5 59t-6.5 67q-11 27 -36 46q-14 10 -30 15q-12 5 -29 6l-10 1q-4 -1 -27 -4q-25 -5 -41 -19q-20 -16 -32 -41 q-11 -22 -11 -50.5z" />
<glyph unicode="&#xe6;" horiz-adv-x="1228" d="M40 493q0 15 8 50q8 41 22 63q40 66 150 111q65 26 151 40q81 13 182 15v7q-3 7 1 18l1 7v28q0 27 2 79q0 5 1 12.5t1 10.5q-1 1 -6.5 4.5t-11.5 8.5t-10 12q-8 13 -8 17q-2 3 -4.5 10.5t-3.5 11.5q-17 34 -42 60q-78 77 -231 44q-59 -12 -90 -43q-9 -9 -16 -29 q-6 -16 -16 -48q-4 -18 -6 -24q-3 -10 -12.5 -14.5t-19.5 -1.5t-14 12.5t-1 19.5l1 8q2 8 4 14q11 38 17 52q13 33 27 47q40 40 116 56q177 39 276 -57q29 -27 52 -76q6 -14 10 -24q0 -2 1 -3.5t1 -2.5l1 -2q3 -3 12 -9q20 12 29 17q3 2 6.5 3.5t5.5 2.5t3 2l3 5q6 10 13 21 q17 25 44 52q98 94 250 75q107 -12 166 -86q18 -23 34 -77q9 -36 9 -40q0 -8 -7 -36q-6 -26 -15 -43q-19 -39 -62 -65q-51 -32 -149 -50q-87 -16 -200 -24q-10 -1 -21.5 -1.5t-25 -1t-20.5 -0.5h-17q-7 -4 -20 1q-3 1 -7 3v-121q1 -10 2 -43.5t3 -50.5q1 -4 1 -11t1 -10 q2 -1 3 -2q18 -10 28 -15l4 -1q3 -1 8.5 -4.5t9.5 -8.5q6 -7 15 -20t13 -17q29 -34 72 -60q57 -34 123 -37q13 -1 62 6q66 10 111 37q33 21 60 51q4 4 11.5 13.5t12.5 14.5q7 8 17 8.5t18 -6.5t8.5 -17t-6.5 -18q-4 -4 -11.5 -14t-12.5 -15q-37 -39 -71 -59 q-55 -34 -130 -44q-50 -7 -72 -6q-81 3 -146 43q-49 30 -84 71q-6 7 -14 19t-12 16q-2 0 -8 3q-20 10 -30 16q-7 -5 -19 -15q-4 -3 -9 -6l-2 -2l-8 -16q-13 -23 -27 -41q-65 -79 -167 -92q-135 -16 -217 32q-55 32 -80 89q-10 22 -15 52q-6 30 -6 39zM90 493q0 -3 1 -7.5 t2 -11t2 -10.5q5 -24 12 -42q19 -42 59 -65q70 -40 186 -26q83 10 134 74q13 16 23 33q12 24 13 25q6 7 19 14q14 12 20 17q0 14 -1 21q-2 20 -4 54.5t-2 41.5q-1 17 -1 35.5t0.5 41t0.5 34.5q-103 -2 -174 -14q-84 -14 -141 -37q-95 -39 -126 -91q-9 -15 -16 -47 q-7 -35 -7 -40zM605 804q0 -2 4 -5.5t9.5 -8t7.5 -6.5l3 -4q4 0 9.5 0.5t7.5 0.5q44 2 65 3q108 7 196 23q84 14 130 43q32 20 45 46q5 11 10 33q6 22 6 24q0 1 -1 5t-3 10t-3 11q-12 43 -25 59q-45 57 -133 67q-127 17 -209 -62q-21 -20 -38 -44q-10 -15 -11 -17 q-2 -8 -11 -16q-6 -6 -25 -15q-15 -9 -30 -19q-2 -20 -2 -24q-2 -52 -2 -76v-28z" />
<glyph unicode="&#xe7;" horiz-adv-x="692" d="M38 699q0 19 7 89q13 110 49 183q65 128 174 169q30 11 81 15q29 2 47 1q59 -4 88 -17q62 -28 94 -90q4 -8 14 -31.5t16 -31.5q15 -21 -4 -35q-21 -15 -35 4q-9 11 -15.5 24t-11.5 27t-8 19q-24 47 -70 68q-23 10 -71 14q-11 1 -40 -1q-42 -4 -67 -13q-92 -35 -147 -144 q-35 -72 -45 -166q-6 -62 -6 -84q0 -7 1.5 -21.5t1.5 -18.5q8 -87 40 -152q52 -107 138 -150q29 -14 53 -20l7 -1q7 -1 13 -4q2 -1 3 -2l0.5 -0.5l1.5 -1.5q3 0 11 0.5t13 0.5q28 1 59 6q45 7 74 21q47 24 93 78q21 24 29 38q5 9 15 11t19 -3t11 -15t-3 -19q-12 -19 -33 -44 q-55 -65 -108 -91q-37 -19 -89 -26q-31 -4 -64 -6q-3 0 -13 -0.5t-15 -0.5v-6q-1 -3 -2 -10t-2.5 -13t-2.5 -12q-3 -14 -13 -33q-2 -5 -3 -12q-1 -2 -1 -5v-5h25q1 0 12.5 1t20.5 0q53 -5 85 -48q9 -14 17 -44q4 -18 4 -24q-1 -16 -8 -37q-9 -31 -22 -46q-19 -22 -54 -38 q-71 -31 -156 -14q-13 3 -33 9t-27 8q-10 2 -15 11t-3 19t11 15t19 3q11 -2 30 -8t28 -8q71 -14 126 10q22 9 35 24q6 7 13 29q6 22 6 26l-2 10q-4 19 -10 26q-18 24 -49 28q-2 0 -11.5 -1t-16.5 -1h-38q-8 -1 -16 1q-25 -15 -29 -18q-7 -7 -17.5 -6.5t-17.5 7.5 q-7 8 -6.5 18t8.5 17q7 7 39 27q2 16 4 23l2 7q1 8 3 14q3 8 7.5 16.5t4.5 10.5q1 5 2.5 16.5t2.5 15.5q0 5 2 11q-30 9 -51 20q-103 52 -161 173q-35 73 -45 170q-3 39 -3 44z" />
<glyph unicode="&#xe8;" horiz-adv-x="819" d="M35 679q-1 14 1.5 36.5t2.5 24.5q4 44 8 65q-4 17 9 31q1 4 2.5 11.5t1.5 10.5q1 4 2.5 16t3.5 19q4 19 22 61q33 77 85 124t114 66q87 27 172 2q26 -8 47 -21q30 -18 50 -39q50 -53 69 -155q7 -31 10 -69q1 -3 1 -8t1 -7l1 -1q2 0 2 -1q7 -5 21 -17q3 -2 6 -5h2h22h17.5 h20h16.5q2 0 8 1.5t12.5 2.5t13.5 1q10 1 17.5 -6t8.5 -18q1 -10 -6 -17.5t-18 -8.5q-3 0 -13.5 -1.5t-18.5 -2.5q-20 -1 -58 -1h-22q-7 -2 -18 1q-7 2 -12.5 6t-7.5 7l-2 3q-8 6 -13 10q-14 -14 -25 -19q-20 -9 -58 -9h-419q-10 0 -19 3q-1 0 -1 0.5t-1 0.5q-2 -13 -4 -39 q-4 -42 -4 -57q3 -109 50 -192q28 -49 63 -80q57 -51 124 -67q28 -7 48 -7q6 0 56 5q77 8 131 35q42 21 97 76q8 8 18 8t17 -8t7 -18t-7 -18q-61 -61 -109 -85q-63 -31 -149 -40q-45 -5 -62 -5q-19 0 -59 9q-77 18 -145 78q-42 38 -73 93q-54 94 -57 215zM106 831q2 -2 4 -5 t3 -4h1h419q29 0 36 4q4 2 18 16q-1 5 -1 14q-2 26 -10 66q-18 87 -57 129q-19 19 -39 31q-19 12 -35 16q-72 21 -143 -1q-52 -16 -95 -56q-45 -41 -73 -106q-14 -31 -19 -53q-3 -12 -6 -32q-1 -7 -3 -19zM188 1568q0 10 7.5 17t18.5 7q12 0 52 -5q19 0 29 -6q5 -3 9 -6.5 t6 -6.5t3.5 -6l2.5 -5l1 -2q12 -15 34 -43q16 -20 45.5 -59t36.5 -48q4 -6 19.5 -24.5t23.5 -29.5q6 -8 4.5 -18.5t-9.5 -16.5t-18.5 -4.5t-16.5 9.5q-7 10 -23.5 30t-19.5 24q-27 36 -81 106q-7 8 -18.5 23t-15.5 21l-8 12h-2h-4.5h-4.5q-4 1 -21 3.5t-25 2.5 q-11 0 -18 7.5t-7 17.5z" />
<glyph unicode="&#xe9;" horiz-adv-x="819" d="M35 679q-1 14 1.5 36.5t2.5 24.5q4 44 8 65q-4 17 9 31q1 4 2.5 11.5t1.5 10.5q1 4 2.5 16t3.5 19q4 19 22 61q33 77 85 124t114 66q87 27 172 2q26 -8 47 -21q30 -18 50 -39q50 -53 69 -155q7 -31 10 -69q1 -3 1 -8t1 -7l1 -1q2 0 2 -1q7 -5 21 -17q3 -2 6 -5h2h22h17.5 h20h16.5q2 0 8 1.5t12.5 2.5t13.5 1q10 1 17.5 -6t8.5 -18q1 -10 -6 -17.5t-18 -8.5q-3 0 -13.5 -1.5t-18.5 -2.5q-20 -1 -58 -1h-22q-7 -2 -18 1q-7 2 -12.5 6t-7.5 7l-2 3q-8 6 -13 10q-14 -14 -25 -19q-20 -9 -58 -9h-419q-10 0 -19 3q-1 0 -1 0.5t-1 0.5q-2 -13 -4 -39 q-4 -42 -4 -57q3 -109 50 -192q28 -49 63 -80q57 -51 124 -67q28 -7 48 -7q6 0 56 5q77 8 131 35q42 21 97 76q8 8 18 8t17 -8t7 -18t-7 -18q-61 -61 -109 -85q-63 -31 -149 -40q-45 -5 -62 -5q-19 0 -59 9q-77 18 -145 78q-42 38 -73 93q-54 94 -57 215zM106 831q2 -2 4 -5 t3 -4h1h419q29 0 36 4q4 2 18 16q-1 5 -1 14q-2 26 -10 66q-18 87 -57 129q-19 19 -39 31q-19 12 -35 16q-72 21 -143 -1q-52 -16 -95 -56q-45 -41 -73 -106q-14 -31 -19 -53q-3 -12 -6 -32q-1 -7 -3 -19zM285 1335.5q-1 10.5 6 18.5l51 60l82 100l37 45l11 14l6 7q6 6 16 8 l7 1l16 2h2l55 2q10 1 17.5 -5.5t8.5 -17.5q1 -10 -6 -17.5t-18 -8.5l-54 -3l-12 -1l-11 -13l-37 -45l-82 -100l-51 -61q-7 -8 -17 -9t-18 6t-9 17.5z" />
<glyph unicode="&#xea;" horiz-adv-x="819" d="M35 679q-1 14 1.5 36.5t2.5 24.5q4 46 8 65q-4 17 9 31q1 4 2.5 11.5t1.5 10.5q1 4 2.5 16.5t3.5 19.5q4 17 22 60q33 77 85 124q53 48 112 66q85 28 174 2q26 -8 47 -21q30 -18 50 -39q47 -51 69 -155q6 -29 10 -69q1 -3 1 -8t1 -7l1 -1q2 0 2 -1q7 -5 21 -17q3 -2 6 -5 h2h22h17.5h20h16.5q2 0 8 1.5t12.5 2.5t13.5 1q10 1 17.5 -6t8.5 -18q1 -10 -6 -17.5t-18 -8.5q-3 0 -13.5 -1.5t-18.5 -2.5q-20 -1 -58 -1h-22q-7 -2 -18 1q-7 2 -12.5 6t-7.5 7l-2 3q-8 6 -13 10q-14 -14 -25 -19q-20 -9 -57 -9h-420q-10 0 -19 3h-2q-2 -14 -4 -38 q-4 -42 -4 -57q3 -109 50 -192q28 -49 63 -80q57 -51 124 -67q28 -7 48 -7q6 0 56 5q77 8 131 35q42 21 97 76q8 8 18 8t17 -8t7 -18t-7 -18q-61 -61 -109 -85q-63 -31 -149 -40q-45 -5 -62 -5q-19 0 -59 9q-77 18 -145 78q-42 38 -73 93q-54 94 -57 215zM106 831q2 -2 4 -5 t3 -4h1h420q26 0 35 4q4 2 18 16q-1 5 -1 14q-2 26 -10 64q-18 88 -57 131q-19 19 -39 31q-19 12 -35 16q-73 21 -145 -2q-49 -16 -93 -55q-45 -41 -73 -106q-13 -30 -19 -54q-3 -15 -6 -31q-1 -7 -3 -19zM140.5 1321.5q0.5 10.5 7.5 17.5l43 40l76 77l38 42l19 22q3 4 8 6 l14 6l14 6q8 11 20 11q13 0 22 -12q25 -11 27 -12q10 -7 21 -24q48 -55 102 -108q42 -42 56 -53q8 -7 9 -17t-6 -18t-17 -9t-18 6q-16 14 -59 56q-67 65 -105 110q-2 3 -5 7l-4.5 6t-2.5 3q-1 0 -3.5 1.5t-7.5 3.5t-9 3l-14 -6l-8 -3l-16 -19l-38 -42l-1 -1l-77 -77l-43 -41 q-7 -7 -18 -6.5t-18 7.5t-6.5 17.5z" />
<glyph unicode="&#xeb;" horiz-adv-x="819" d="M35 679q-1 14 1.5 36.5t2.5 24.5q4 44 8 65q-4 17 9 31q1 4 2.5 11.5t1.5 10.5q1 4 2.5 16t3.5 19q4 19 22 61q33 77 85 124t114 66q87 27 172 2q26 -8 47 -21q30 -18 50 -39q50 -53 69 -155q7 -31 10 -69q1 -3 1 -8t1 -7l1 -1q2 0 2 -1q7 -5 21 -17q3 -2 6 -5h2h22h17.5 h20h16.5q2 0 8 1.5t12.5 2.5t13.5 1q10 1 17.5 -6t8.5 -18q1 -10 -6 -17.5t-18 -8.5q-3 0 -13.5 -1.5t-18.5 -2.5q-20 -1 -58 -1h-22q-7 -2 -18 1q-7 2 -12.5 6t-7.5 7l-2 3q-8 6 -13 10q-14 -14 -25 -19q-20 -9 -58 -9h-419q-10 0 -19 3q-1 0 -1 0.5t-1 0.5q-2 -13 -4 -39 q-4 -42 -4 -57q3 -109 50 -192q28 -49 63 -80q57 -51 124 -67q28 -7 48 -7q6 0 56 5q77 8 131 35q42 21 97 76q8 8 18 8t17 -8t7 -18t-7 -18q-61 -61 -109 -85q-63 -31 -149 -40q-45 -5 -62 -5q-19 0 -59 9q-77 18 -145 78q-42 38 -73 93q-54 94 -57 215zM106 831q2 -2 4 -5 t3 -4h1h419q29 0 36 4q4 2 18 16q-1 5 -1 14q-2 26 -10 66q-18 87 -57 129q-19 19 -39 31q-19 12 -35 16q-72 21 -143 -1q-52 -16 -95 -56q-45 -41 -73 -106q-14 -31 -19 -53q-3 -12 -6 -32q-1 -7 -3 -19zM186 1427q0 11 7 18t18 7t18 -7t7 -18t-7 -18t-18 -7t-18 7t-7 18z " />
<glyph unicode="&#xec;" horiz-adv-x="497" d="M17 1069q0 11 7 18.5t17 7.5q2 0 9.5 1.5t12.5 1.5q8 1 24.5 2t24.5 2q56 6 90 -12q10 -5 26 -17q9 -2 16 -15q4 -7 5 -13.5t0 -9.5l-1 -3v-448v-32.5v-36t1 -31t2.5 -35t4.5 -28.5t8 -31q13 -38 38 -47q4 0 11 1q11 1 35 5q49 9 60 13q30 10 59 30q6 4 20 15q7 7 18 6.5 t18 -7.5t6.5 -17.5t-7.5 -17.5q-10 -10 -26 -20q-39 -27 -74 -37q-13 -4 -66 -14q-6 -1 -18.5 -2.5t-18.5 -2.5q-20 -3 -32 1q-49 16 -70 79q-6 17 -9.5 36.5t-5.5 33.5t-3 37.5t-1 33.5v36v32v448v2q-12 8 -19 12q-20 11 -62 6q-8 -1 -25 -2t-25 -2q-2 0 -9.5 -1.5 t-14.5 -1.5q-11 0 -18.5 7t-7.5 17zM23 1567q0 10 7.5 17t18.5 7q13 0 40 -5q11 3 25 -7q6 -4 11 -9.5t7 -9.5l3 -5q3 -4 40 -52q14 -18 41.5 -54.5t41.5 -54.5q4 -6 16 -20t19 -23q6 -8 4.5 -18.5t-9.5 -16.5t-18.5 -4.5t-16.5 9.5q-4 5 -15.5 19.5t-18.5 23.5 q-56 72 -84 109l-39 51l-9 12h-3q-2 1 -3 1q-26 4 -34 4q-10 0 -17 7.5t-7 18.5z" />
<glyph unicode="&#xed;" horiz-adv-x="546" d="M30 1070q0 11 7 18t17 7q2 0 9 1t13 2q30 2 44 3q39 3 44 3q34 -1 62 -20l6 -4q7 -3 13.5 -8.5t10.5 -12.5q4 -5 5 -10.5t1 -8.5l-1 -2v-38v-359q0 -133 1 -159q2 -56 15 -93q9 -28 27 -40q10 -6 12 -6q1 0 27 4q56 7 85 18q39 15 74 44q8 7 18 5.5t17 -9.5 q16 -19 -3 -35q-45 -36 -88 -52q-34 -13 -96 -21q-34 -4 -42 -3q-18 3 -33 14q-29 20 -45 65q-13 39 -17 107q-2 54 -2 161v359v33v2q-2 1 -6 3.5t-6 3.5q-18 11 -38 13q-6 0 -19.5 -1.5t-17.5 -1.5q-8 -1 -22.5 -2.5t-21.5 -1.5q-2 0 -10 -1.5t-15 -1.5q-11 0 -18 7.5 t-7 17.5zM123 1336q-1 10 6 18q69 79 139 168q11 14 33 40l1 2q1 2 2.5 4t3.5 5t6 6l8 6q10 6 30 6q10 1 17.5 -5.5t8.5 -17.5t-6 -18.5t-17 -8.5h-8q-1 -1 -3.5 -4.5t-3.5 -5.5q-5 -7 -16.5 -20t-16.5 -20q-92 -114 -140 -169q-7 -8 -17 -9t-18 6t-9 17z" />
<glyph unicode="&#xee;" horiz-adv-x="569" d="M-2 1321q0 11 7 18q9 9 26 24.5t25 23.5q50 48 96 99q3 3 6.5 7t8 9t6.5 8l1 2q2 3 5 6t7 6q8 6 24 11l2 1q1 1 3 2.5t5.5 3t8 2t9.5 0.5q7 0 13 -2t9 -4l2 -2q1 0 5.5 -1.5t9.5 -4t10 -6.5q4 -3 7 -6.5t4 -5.5l2 -3q10 -13 21 -24q50 -54 74 -78q7 -7 32.5 -30.5 t39.5 -37.5q7 -7 7 -18t-7 -18t-18 -7t-18 7q-22 22 -70 68q-1 0 -76 79q-4 5 -12 14.5t-11 12.5l-6 8q-1 0 -5 1.5t-8 3.5l-6 3q-3 -3 -7 -4q-4 -2 -9 -3.5t-6 -1.5l-1 -2q-2 -3 -4 -5l-8 -9q-8 -10 -13 -15q-64 -68 -98 -101q-36 -34 -51 -49q-18 -17 -35 0q-7 7 -7 18z M52 1070q0 10 7 17.5t18 7.5q2 0 8.5 1t12.5 2q30 2 44 3q39 3 44 3q35 -2 63 -20q1 -1 5 -3t7.5 -4.5t8.5 -7t8 -10.5q4 -5 5 -10.5t1 -8.5l-1 -2v-38v-359q0 -107 2 -159q2 -56 15 -93q10 -29 26 -40q10 -6 12 -6q1 0 27 4q57 8 86 18q39 15 74 44q8 7 18 5.5t17 -9.5 t5.5 -18t-9.5 -17q-45 -36 -88 -52q-34 -13 -96 -21q-34 -4 -41 -3q-18 3 -33 14q-29 20 -45 65q-14 43 -18 107q-2 54 -2 161v359v33v2q-2 1 -6 3.5t-6 3.5q-18 12 -37 13q-6 0 -19.5 -1.5t-17.5 -1.5q-8 -1 -22.5 -2.5t-21.5 -1.5q-2 0 -10.5 -1.5t-15.5 -1.5 q-11 0 -18 7.5t-7 17.5z" />
<glyph unicode="&#xef;" horiz-adv-x="517" d="M1 1070q0 11 7 18t17 7q2 0 9 1t13 2q30 2 44 3q39 3 44 3q34 -1 62 -20q23 -14 30 -25q4 -5 5 -10.5t0 -8.5v-2v-38v-359q0 -133 1 -159q2 -54 15 -93q9 -28 27 -40q10 -6 12 -6q1 0 27 4q56 7 85 18q39 15 74 44q8 7 18 5.5t17 -9.5q16 -19 -3 -35q-45 -36 -88 -52 q-34 -13 -96 -21q-34 -4 -42 -3q-18 3 -33 14q-29 20 -45 65q-13 39 -17 107q-2 54 -2 161v359v33v2q-2 1 -6 3.5t-6 3.5q-18 11 -38 13q-6 0 -19.5 -1.5t-17.5 -1.5q-8 -1 -22.5 -2.5t-21.5 -1.5q-2 0 -10 -1.5t-15 -1.5q-10 0 -17.5 7.5t-7.5 17.5zM2 1427q0 11 7 18t18 7 h1q10 0 17 -7t7 -18t-7 -18t-17 -7h-1q-11 0 -18 7t-7 18zM324 1427v1q0 10 7 17t17 7q11 0 18.5 -7t7.5 -17v-1q0 -10 -7.5 -17.5t-18.5 -7.5q-10 0 -17 7t-7 18z" />
<glyph unicode="&#xf0;" horiz-adv-x="773" d="M35 701q0 8 3 47q4 48 9 72q13 63 17 75q29 96 91 162q54 58 130 82.5t156 14.5q29 -3 57 -12q24 -9 25 -9q5 -2 17.5 -4t17.5 -3l27 -6l3 4v3q-1 6 -4 19t-5 19q-1 4 -1.5 8t-1.5 7v2q-9 20 -47 80q-46 71 -131 167q-4 4 -6.5 9t-3.5 8.5t-2 7.5v3h-9l-16 -17 q-2 -2 -8 -5l-4 -2l-14 -9l-62 -42l-68 -45l-33 -22q-8 -6 -18.5 -3.5t-16.5 10.5t-3.5 18t10.5 16l33 22l68 46l63 41l15 11q1 0 2 1t2 1l2 1l4 4q-2 2 -3 4q-2 4 -3.5 7.5t-2.5 6t-1 3.5t-2 2.5t-5.5 4.5t-6.5 5q-55 50 -138 107q-8 6 -10 16.5t4 18.5t16.5 10t18.5 -4 q78 -53 142 -110q17 -13 24 -23q7 -11 7 -18l6 -6h7l1 2l12 12l4 6l13 11q17 12 51.5 35t51.5 34q8 5 28.5 18.5t29.5 20.5q8 6 18.5 4.5t16.5 -9.5t4.5 -18.5t-9.5 -16.5q-12 -9 -34 -23t-26 -17q-17 -12 -51.5 -35t-51.5 -34q-1 0 -2 -1t-5 -7q-2 -3 -7 -8q0 -1 0.5 -1 t0.5 -1q2 -5 4 -11l2 -7q83 -94 134 -172q36 -55 50 -87q3 -8 7 -26l9 -39q1 -5 1 -10l1 -1q3 -3 6 -7q27 -36 32 -47q3 -7 5.5 -16.5t3.5 -12.5q9 -28 23 -84q13 -59 20 -132q4 -42 4 -67q0 -21 -7 -86q-26 -253 -171 -348q-25 -17 -53 -29q-46 -19 -138 -23q-37 -1 -80 13 q-116 41 -185 166q-61 112 -64 248zM85 703q3 -125 58 -227q59 -109 157 -142q35 -12 61 -11q83 4 122 20q20 8 44 24q125 82 150 312q6 56 6 81q0 20 -4 62q-7 78 -19 125q-16 63 -21 80q-8 25 -8 26q-3 8 -17 25q-7 -7 -16 -9q-4 -1 -7.5 -1.5t-6 0t-4.5 1t-3 1t-2 0.5 l-1 1q-18 4 -26 6q-28 5 -38 8q-5 1 -10.5 3t-10 3.5t-6.5 2.5q-20 7 -48 10q-70 9 -135 -11.5t-109 -68.5q-53 -57 -79 -144q-5 -15 -16 -69q-4 -22 -8 -68q0 -4 -1.5 -19t-1.5 -21z" />
<glyph unicode="&#xf1;" horiz-adv-x="991" d="M19 1062q-2 10 4 19t16 10q5 1 89 10q53 5 78 -2q12 -3 30 -13l6 9q14 21 31 54q4 9 14.5 12.5t19.5 -1.5q9 -4 12 -14.5t-2 -19.5q-25 -47 -33 -59q-1 -1 -6 -8t-7 -11l-2 -4v-9q0 -5 0.5 -16t0.5 -17q4 3 9 5t9 3h3q35 12 38 13l3 3q3 2 5 4q3 3 9.5 8.5t11.5 10.5 t10 9q56 49 114 69q28 9 69 15q47 6 58 5q61 -1 113 -45q69 -58 80 -196q3 -45 3 -177v-354v-2h1q8 -8 21 -16q26 -16 80 -19q31 -2 43 0q10 2 19 -4.5t10 -16.5t-5 -18t-16 -10q-15 -2 -54 0q-67 4 -102 25q-13 8 -21 14l-27 -27l-21 -22q-7 -8 -17 -8.5t-18 6.5 q-7 7 -7.5 17.5t6.5 17.5l21 23v1l37 36v3v354q0 131 -3 174q-8 116 -62 161q-36 31 -82 33q-19 0 -49 -5q-42 -6 -61 -12q-48 -16 -98 -60q-6 -5 -16 -14.5t-13 -12.5l-2 -3q-2 -2 -6 -5.5t-10 -6.5q-10 -5 -27 -9.5t-19 -5.5l-6 -2t-4 -1l-22 -22q0 -4 -2 -7v-557v-2 q4 -3 16 -11q16 -11 40 -16.5t39.5 -6t51.5 -0.5q10 0 17.5 -7.5t7.5 -18.5q0 -10 -7 -17t-18 -7h-21h-24t-22 1t-25 3t-22.5 5.5t-24.5 9t-22 13.5q-3 2 -11 8l-19 -19l-28 -30q-7 -7 -17.5 -7.5t-17.5 6.5t-7.5 18t6.5 18l28 30h1l29 29v1v559q-4 5 -4.5 11t0.5 10l1 4v36 q0 6 -0.5 19.5t-0.5 21.5v2q-16 11 -27 14q-12 4 -59 0q-80 -8 -85 -9q-10 -2 -19 4t-10 16zM268 1354.5q-4 9.5 0 18.5q0 1 2.5 7t4.5 11q16 39 34 61q25 30 82 42q29 4 32 4q30 -1 64 -15q24 -10 78 -42.5t83 -34.5q6 0 34 6q22 5 28 9q22 14 41 56q1 2 4.5 12.5t7.5 18.5 q4 9 14.5 12t19.5 -2q9 -4 12.5 -14.5t-1.5 -19.5q-1 -2 -2.5 -6t-4 -10t-4.5 -11q-24 -57 -62 -79q-13 -8 -42 -15q-31 -8 -49 -7q-45 3 -108.5 41.5t-66.5 39.5q-29 11 -49 12l-20 -4q-37 -8 -54 -26q-14 -17 -25 -45q-1 -2 -3 -9.5t-4 -12.5q-5 -9 -14.5 -12.5t-18.5 0.5 q-9 5 -13 14.5z" />
<glyph unicode="&#xf2;" horiz-adv-x="843" d="M35 722q0 14 5 57q18 164 118 268q77 80 181 101q16 3 42.5 5t32.5 3q12 2 32 -1q32 -2 48 -4q71 -9 130 -46q103 -62 147 -181q25 -68 33 -149q0 -3 2 -21t2 -29q0 -13 -5 -56q-10 -104 -50 -186q-63 -130 -178 -176q-42 -17 -87 -23q-118 -16 -206 19q-74 29 -129 91 t-84 140q-23 61 -29 132q-5 43 -5 56zM85 722q0 -14 4 -52q6 -62 27 -119q26 -68 74 -122t111 -79q77 -31 181 -17q33 4 74 21q48 20 87.5 59.5t64.5 90.5q36 74 46 170q4 36 4 51q0 13 -4 45q-8 76 -30 137q-39 101 -126 155q-47 29 -112 39q-16 2 -44 4q-18 2 -21 1 q-13 -2 -37 -3.5t-35 -3.5q-90 -18 -155 -86q-88 -92 -104 -240q-5 -47 -5 -51zM228 1568q0 10 8 18t18 8q24 0 66 -6q22 0 34 -6q5 -3 8.5 -6.5t4.5 -5.5l1 -2q2 -2 4 -5.5t4 -5.5q7 -9 19.5 -25t14.5 -18q14 -18 42 -54.5t42 -54.5q4 -6 19.5 -24.5t23.5 -29.5 q6 -8 4 -18.5t-10 -16.5t-18.5 -4.5t-16.5 9.5q-5 8 -42 54q-5 7 -36 46.5t-47 60.5q-12 15 -34 45q-2 2 -8 10q-9 0 -15 1q-40 6 -60 6q-11 0 -18.5 7t-7.5 17z" />
<glyph unicode="&#xf3;" horiz-adv-x="843" d="M35 722q0 14 5 57q18 164 118 268q77 80 181 101q16 3 42.5 5t32.5 3q12 2 32 -1q32 -2 48 -4q71 -9 130 -46q103 -62 147 -181q25 -68 33 -149q0 -3 2 -21t2 -29q0 -13 -5 -56q-10 -104 -50 -186q-63 -130 -178 -176q-42 -17 -87 -23q-118 -16 -206 19q-74 29 -129 91 t-84 140q-23 61 -29 132q-5 43 -5 56zM85 722q0 -14 4 -52q6 -62 27 -119q26 -68 74 -122t111 -79q77 -31 181 -17q33 4 74 21q48 20 87.5 59.5t64.5 90.5q36 74 46 170q4 36 4 51q0 13 -4 45q-8 76 -30 137q-39 101 -126 155q-47 29 -112 39q-16 2 -44 4q-18 2 -21 1 q-13 -2 -37 -3.5t-35 -3.5q-90 -18 -155 -86q-88 -92 -104 -240q-5 -47 -5 -51zM316.5 1333.5q-1.5 10.5 4.5 18.5t17.5 21t15.5 18q18 23 53.5 66t40.5 49q40 49 43 52q1 1 3.5 5.5t7.5 10.5t12 10q9 6 28 6q20 2 35 2q11 0 18 -7t7 -17q0 -11 -7.5 -18.5t-17.5 -7.5 q-19 0 -31 -1q-1 0 -3 -0.5t-3 -0.5q-7 -10 -10 -14q-7 -9 -21.5 -26t-21.5 -26q-15 -19 -47 -57.5t-47 -57.5q-4 -5 -15.5 -18t-16.5 -19q-6 -8 -16.5 -9.5t-18.5 4.5t-9.5 16.5z" />
<glyph unicode="&#xf4;" horiz-adv-x="843" d="M35 722q0 4 6 61q8 60 19 97q28 96 101 170q75 77 178 98q16 3 42.5 5t32.5 3q12 2 32 -1q32 -2 48 -4q71 -9 130 -46q103 -62 147 -181q25 -68 33 -149q0 -3 2 -21t2 -29q0 -16 -5 -61q-10 -99 -47 -176q-65 -134 -182 -181q-42 -17 -86 -23q-118 -16 -206 19 q-73 30 -128.5 92t-84.5 139q-23 61 -29 132q-5 43 -5 56zM85 722q0 -14 4 -52q6 -62 27 -119q26 -68 74 -122t111 -79q77 -31 181 -17q37 4 74 20q99 39 155 156q32 65 42 160q5 50 5 56q0 13 -4 45q-8 76 -30 137q-39 101 -126 155q-47 29 -112 39q-16 2 -44 4 q-18 2 -21 1q-13 -2 -37 -3.5t-35 -3.5q-89 -19 -152 -83t-89 -151q-11 -37 -18 -88q-5 -47 -5 -55zM184 1321q0 11 8 18q11 11 31.5 30t29.5 28q17 17 48 49.5t41 43.5q8 9 18 21q3 7 12 13q7 5 26 11l2 1q1 1 3 2.5t5 3t8 2t10 0.5q17 -1 25 -9l4 -1q4 -1 9 -3.5t10 -6.5 l13 -15q8 -9 26 -30q50 -54 96 -98q40 -37 43 -40q8 -6 9 -17t-5 -19t-17 -9t-19 5q-11 8 -26.5 24.5t-18.5 18.5q-35 32 -99 102q-18 20 -27 31q-2 2 -3.5 4t-2.5 3q-1 0 -5 1.5t-7 3.5q-2 1 -4 2.5t-3 1.5q-3 -3 -7 -4l-6 -2t-5.5 -2t-3.5 -1q-1 -3 -4 -6t-9.5 -11 t-10.5 -12q-58 -62 -89 -93q-11 -11 -32 -30.5t-30 -28.5q-17 -17 -35 0q-8 7 -8 18z" />
<glyph unicode="&#xf5;" horiz-adv-x="843" d="M35 722q0 14 5 57q18 164 118 268q77 80 181 101q16 3 42.5 5t32.5 3q12 2 32 -1q32 -2 48 -4q71 -9 130 -46q103 -62 147 -181q25 -68 33 -149q0 -3 2 -21t2 -29q0 -13 -5 -56q-10 -104 -50 -186q-63 -130 -178 -176q-42 -17 -87 -23q-118 -16 -206 19q-74 29 -129 91 t-84 140q-23 61 -29 132q-5 43 -5 56zM85 722q0 -14 4 -52q6 -62 27 -119q26 -68 74 -122t111 -79q77 -31 181 -17q33 4 74 21q48 20 87.5 59.5t64.5 90.5q36 74 46 170q4 36 4 51q0 13 -4 45q-8 76 -30 137q-39 101 -126 155q-47 29 -112 39q-16 2 -44 4q-18 2 -21 1 q-13 -2 -37 -3.5t-35 -3.5q-90 -18 -155 -86q-88 -92 -104 -240q-5 -47 -5 -51zM149 1368q3 15 14 39q16 35 39 56q21 18 57 28q21 6 42 7q19 1 50 -8q35 -11 91.5 -46t87.5 -38q2 0 34 6q19 4 32 13q13 10 25 28q14 24 22 50q3 10 12 15.5t19 2.5t15 -12t2 -19 q-9 -35 -28 -64q-16 -26 -38 -42q-19 -14 -51 -21q-42 -8 -49 -7q-47 5 -109.5 43t-78.5 43q-18 6 -35 6q-10 0 -30 -5q-25 -6 -38 -18q-14 -12 -25 -38q-10 -23 -12 -30q-2 -10 -11 -15.5t-19 -3.5t-15 11t-3 19z" />
<glyph unicode="&#xf6;" horiz-adv-x="843" d="M35 722q0 14 5 57q18 164 118 268q77 80 181 101q16 3 42.5 5t32.5 3q12 2 32 -1q32 -2 48 -4q71 -9 130 -46q103 -62 147 -181q25 -68 33 -149q0 -3 2 -21t2 -29q0 -13 -5 -56q-10 -104 -50 -186q-63 -130 -178 -176q-42 -17 -87 -23q-118 -16 -206 19q-74 29 -129 91 t-84 140q-23 61 -29 132q-5 43 -5 56zM85 722q0 -14 4 -52q6 -62 27 -119q26 -68 74 -122t111 -79q77 -31 181 -17q33 4 74 21q48 20 87.5 59.5t64.5 90.5q36 74 46 170q4 36 4 51q0 13 -4 45q-8 76 -30 137q-39 101 -126 155q-47 29 -112 39q-16 2 -44 4q-18 2 -21 1 q-13 -2 -37 -3.5t-35 -3.5q-90 -18 -155 -86q-88 -92 -104 -240q-5 -47 -5 -51zM240 1427v1q0 10 7 17t17 7q11 0 18.5 -7t7.5 -17v-1q0 -10 -7.5 -17.5t-18.5 -7.5q-10 0 -17 7t-7 18zM560 1427q0 10 7.5 17.5t18.5 7.5q10 0 17.5 -7t7.5 -18t-7.5 -18t-17.5 -7 q-11 0 -18.5 7.5t-7.5 17.5z" />
<glyph unicode="&#xf7;" horiz-adv-x="878" d="M68 748q0 10 7 17t17 7h694q11 0 18 -7t7 -17q0 -11 -7.5 -18.5t-17.5 -7.5h-694q-10 0 -17 7.5t-7 18.5zM418 1012q0 11 7 18t17 7h1q11 0 18 -7.5t7 -17.5t-7 -17.5t-18 -7.5h-1q-10 0 -17 7t-7 18z" />
<glyph unicode="&#xf8;" horiz-adv-x="821" d="M41 300l49 60l23 28q0 1 1 2l33 33v1v13q-12 3 -20 13q-5 6 -9 13.5t-7.5 14.5t-4.5 10q-26 51 -38 104q-14 56 -15 105q-1 26 6 88q23 205 140 304q53 45 118 60q40 9 92 9q63 0 115 -21q45 -18 83 -50q12 -10 29 -27q3 -1 12 -7q0 -1 2 -2l2 -1q5 5 13 12.5t11 10.5 q8 10 30.5 38t36.5 44q7 7 18 7.5t18 -6.5t7 -17.5t-7 -18.5q-12 -12 -33 -39.5t-33 -40.5q-11 -12 -30 -31l-3 -3l-3 -2v-17q13 -3 20 -13q5 -8 9 -16.5t7.5 -17.5t4.5 -12q18 -43 34 -122q9 -49 10 -88q0 -16 -2 -36q-4 -43 -7 -61q-23 -176 -107 -262q-25 -25 -55 -44 q-31 -19 -57 -28q-29 -10 -85 -14q-45 -3 -58 -2q-95 6 -174 72q-6 5 -14.5 13t-11.5 10l-10 5l-9 6l-21 -22l-22 -27l-50 -60q-16 -19 -35 -3t-3 35zM103 699q1 -36 14 -95q11 -49 34 -94q2 -3 4.5 -9t4.5 -10t4 -7q2 0 7 -2l6 6q12 12 15 14t23 9l32 40l69 84l168 204 q11 14 42 52t48 58q5 6 11.5 10t11 5t8.5 2l4 1l7 7l11 11v19q-3 4 -8 9l-3 1l-5 2.5t-6 3.5q-7 6 -17 16l-13 13q-32 27 -70 42q-43 17 -96 17q-51 0 -80 -7q-51 -11 -98 -50q-102 -86 -122 -271q-7 -63 -6 -81zM197 423l9 -9q5 0 13 -6t19 -16l11 -11q66 -55 146 -61 q5 0 50 2q47 4 73 13q22 7 47 22q29 19 45 36q73 75 93 234q3 22 7 59q2 24 2 31q-2 40 -9 80q-12 68 -31 112q-12 30 -13 31q-1 0 -5 2l-3 -3q-11 -11 -16 -14q-8 -5 -24 -10q-17 -20 -47 -57t-41 -50q-28 -34 -84.5 -102.5t-84.5 -102.5l-68 -83q-2 -2 -15 -19t-22 -26 q-15 -14 -29 -14l-8 -8l-15 -15v-15z" />
<glyph unicode="&#xf9;" horiz-adv-x="1005" d="M20.5 1114q-2.5 10 2.5 19q11 20 32 11h3h13t17 -1h25q62 -4 101 -28q13 -9 16 -11q12 10 20 14q18 11 40.5 16.5t36.5 7t39.5 2t33.5 1.5q11 1 18.5 -6t8.5 -17q1 -11 -6 -18.5t-17 -8.5q-12 -1 -36 -2t-36 -2t-28.5 -5t-28.5 -11q-9 -5 -19 -15l-1 -5v-347 q0 -121 4 -180q2 -26 4 -39q17 -119 72 -141q22 -9 39 -10q8 -1 54 4q43 5 73 14q42 13 82 42q28 21 58 51l9 11q10 10 17 16q5 4 10.5 6.5t9.5 3.5l4 1q24 8 30 11l4 4l17 17q2 2 4.5 4t3.5 3v526v7q-1 1 -13 10q-33 24 -86 24q-6 0 -17.5 0.5t-16.5 0.5q-23 0 -34 7 q-8 6 -10.5 16.5t3.5 18.5q12 19 33 8h8q6 0 17.5 -0.5t16.5 -0.5q68 0 115 -33q2 -1 5 -3.5t4 -3.5q45 35 110 40q12 1 37.5 0.5t32.5 1.5q10 1 18 -5t10 -16q1 -10 -5 -18t-16 -10q-16 -2 -44 -2.5t-29 -0.5q-54 -3 -88 -33l-1 -8v-526q1 -3 1 -7q1 -3 1 -16v-24 q0 -11 0.5 -33t0.5 -33v-21q12 -9 20 -12q16 -7 52 -4q12 1 38 4t39 4q11 1 18.5 -6t8.5 -17t-5.5 -17.5t-17.5 -8.5q-22 -2 -76 -8q-53 -5 -78 7q-6 3 -16 9l-5 -7.5t-5.5 -8.5t-4.5 -8q-16 -31 -24 -41q-7 -8 -17 -9t-18 6t-9 17t6 18q2 3 4.5 8t6.5 12.5t7 12.5 q5 9 26 43v27v45q-2 -2 -8 -4q-9 -4 -38 -15q-8 -2 -9 -2q-3 -3 -10 -11t-12 -13q-36 -35 -64 -55q-48 -35 -96 -50q-27 -9 -82 -15q-53 -6 -63 -5q-19 1 -54 14q-28 11 -48 32t-31 49t-15.5 49t-8.5 50q-4 27 -5 43q-4 62 -4 183v348v3q-13 11 -17 13q-28 18 -78 21 q-15 0 -26 1h-7.5h-11.5h-12q-10 -1 -21 5q-9 5 -11.5 15zM336 1563q1 10 10 16.5t19 4.5q12 -2 19 -8t8 -11l2 -5q14 -19 32 -42q16 -21 48 -62.5t48 -61.5q4 -6 16 -20t19 -23q6 -8 4 -18.5t-10 -16.5t-18.5 -4.5t-16.5 9.5q-4 5 -15.5 19.5t-18.5 23.5q-22 28 -95 124 l-33 42q-2 2 -3 4t-2 3q-16 9 -13 26z" />
</font>
</defs>
</svg>
