<?xml version="1.0" encoding="UTF-8" standalone="no"?>
<!-- Created with Inkscape (http://www.inkscape.org/) -->

<svg
   xmlns:dc="http://purl.org/dc/elements/1.1/"
   xmlns:cc="http://creativecommons.org/ns#"
   xmlns:rdf="http://www.w3.org/1999/02/22-rdf-syntax-ns#"
   xmlns:svg="http://www.w3.org/2000/svg"
   xmlns="http://www.w3.org/2000/svg"
   xmlns:sodipodi="http://sodipodi.sourceforge.net/DTD/sodipodi-0.dtd"
   xmlns:inkscape="http://www.inkscape.org/namespaces/inkscape"
   width="371.22952"
   height="157.59178"
   id="svg4596"
   version="1.1"
   inkscape:version="0.48.4 r9939"
   sodipodi:docname="logo-overlayed-demi-baseline-white.svg">
  <defs
     id="defs4598" />
  <sodipodi:namedview
     id="base"
     pagecolor="#ffffff"
     bordercolor="#666666"
     borderopacity="1.0"
     inkscape:pageopacity="0.0"
     inkscape:pageshadow="2"
     inkscape:zoom="2.8284271"
     inkscape:cx="211.15155"
     inkscape:cy="81.680759"
     inkscape:document-units="px"
     inkscape:current-layer="g5532"
     showgrid="false"
     inkscape:window-width="1375"
     inkscape:window-height="876"
     inkscape:window-x="65"
     inkscape:window-y="24"
     inkscape:window-maximized="1"
     fit-margin-top="0"
     fit-margin-left="0"
     fit-margin-right="0"
     fit-margin-bottom="0"
     showguides="true"
     inkscape:guide-bbox="true">
    <sodipodi:guide
       orientation="0,1"
       position="-52.026518,238.95299"
       id="guide2997" />
    <sodipodi:guide
       orientation="-0.70710678,0.70710678"
       position="331.5947,-154.80678"
       id="guide3368" />
  </sodipodi:namedview>
  <metadata
     id="metadata4601">
    <rdf:RDF>
      <cc:Work
         rdf:about="">
        <dc:format>image/svg+xml</dc:format>
        <dc:type
           rdf:resource="http://purl.org/dc/dcmitype/StillImage" />
        <dc:title />
      </cc:Work>
    </rdf:RDF>
  </metadata>
  <g
     inkscape:label="Calque 1"
     inkscape:groupmode="layer"
     id="layer1"
     transform="translate(-36.384569,-450.25011)">
    <g
       id="g5532">
      <g
         id="flowRoot6887-9-9-4-1-4-4-5"
         style="font-size:40px;font-style:normal;font-weight:normal;line-height:125%;letter-spacing:0px;word-spacing:0px;fill:#ffffff;fill-opacity:1;stroke:none;font-family:Sans;stroke-opacity:1"
         transform="matrix(2.7025562,0,0,2.7025562,-15436.359,855.71195)">
        <g
           transform="matrix(1.3811609,0,0,1.3811609,-2129.2149,-48.901147)"
           id="g6902-7-4-8-7-0-8-0"
           style="fill:#ffffff;stroke:none;stroke-opacity:1">
          <path
             inkscape:connector-curvature="0"
             d="m 5709.8477,-50.309311 0,-17.929688 -9.0235,21.171875 c -0.1172,0.299479 -0.306,0.449219 -0.5664,0.449219 -0.2734,0 -0.4688,-0.14974 -0.5859,-0.449219 l -8.3594,-20.761718 0,17.597656 c 0,0.716148 0.091,1.282554 0.2734,1.699219 0.1823,0.416667 0.5404,0.625001 1.0743,0.625 l 1.0546,0 c 0.091,1e-6 0.1758,0.03255 0.2539,0.09766 0.091,0.05208 0.1368,0.130209 0.1368,0.234375 l 0.1562,0.703125 -0.078,0.117187 c -1.4063,-0.05208 -2.6302,-0.07813 -3.6719,-0.07813 l -3.6133,0.07813 -0.059,-0.07813 0,-0.742187 c 0,-0.221353 0.1303,-0.33203 0.3907,-0.332031 l 1.0547,0 c 0.9895,10e-7 1.5559,-0.774738 1.6992,-2.324219 l 0,-19.589844 c 0,-0.624976 -0.1042,-1.074195 -0.3125,-1.347656 -0.1953,-0.273413 -0.5925,-0.410132 -1.1914,-0.410156 l -1.1719,0 c -0.2604,-0.013 -0.3906,-0.104142 -0.3906,-0.273438 l 0,-0.742187 0.1172,-0.136719 5.8789,0 8.1836,20.390625 c 0.1432,0.338547 0.2538,0.507817 0.332,0.507812 0.091,5e-6 0.2148,-0.182286 0.3711,-0.546875 l 8.6914,-20.351562 4.9414,0 0.098,0.136719 0,0.703125 c -0.013,0.208358 -0.1562,0.312524 -0.4296,0.3125 l -1.0938,0 c -0.4167,2.4e-5 -0.7422,0.162784 -0.9766,0.488281 -0.2344,0.312524 -0.3515,0.7357 -0.3515,1.269531 l 0.02,19.511719 c 0.052,0.755211 0.2018,1.341148 0.4492,1.757812 0.2474,0.403647 0.6771,0.60547 1.2891,0.605469 l 1.0547,0 c 0.3125,10e-7 0.4687,0.110678 0.4687,0.332031 l 0,0.742188 -0.098,0.07813 c -1.9402,-0.05208 -3.431,-0.07813 -4.4727,-0.07813 l -4.2969,0.07813 -0.098,-0.07813 0.1172,-0.742188 c 0,-0.221353 0.1237,-0.33203 0.3711,-0.332031 l 1.0547,0 c 0.8723,10e-7 1.3085,-0.787759 1.3086,-2.363281"
             style="font-variant:normal;font-stretch:normal;font-family:Libertinage;-inkscape-font-specification:Libertinage;fill:#ffffff;stroke:none;stroke-opacity:1"
             id="path6896-3-2-1-3-6-6-6" />
          <path
             inkscape:connector-curvature="0"
             d="m 5733.7148,-53.590561 -8.9453,0 c -0.4687,6e-6 -0.8073,0.0586 -1.0156,0.175781 -0.2083,0.104173 -0.3581,0.279954 -0.4492,0.527344 l -1.1719,3.125 c -0.1953,0.494794 -0.293,0.846356 -0.293,1.054687 0,0.28646 0.1758,0.475262 0.5274,0.566407 0.3515,0.07813 0.9114,0.117188 1.6797,0.117187 l 0.7031,0 c 0.2213,10e-7 0.332,0.110678 0.332,0.332031 l 0,0.742188 -0.078,0.07813 c -1.9401,-0.05208 -3.431,-0.07813 -4.4727,-0.07813 l -2.9101,0.09766 -0.6641,-0.09766 0,-0.742188 c 0,-0.221353 0.1042,-0.33203 0.3125,-0.332031 0.8464,10e-7 1.4779,-0.117186 1.8946,-0.351562 0.4296,-0.247395 0.7747,-0.709634 1.0351,-1.386719 l 8.418,-22.539063 c 0.2344,-0.611953 0.5599,-0.917942 0.9765,-0.917968 0.4037,2.6e-5 0.7162,0.312526 0.9375,0.9375 l 7.8711,22.441406 c 0.2604,0.74219 0.6185,1.23047 1.0743,1.464844 0.4687,0.234376 1.0807,0.351563 1.8359,0.351562 0.2213,10e-7 0.332,0.110678 0.332,0.332031 l 0,0.742188 -0.078,0.07813 c -2.0703,-0.05208 -3.6263,-0.07813 -4.668,-0.07813 l -4.9804,0.07813 -0.078,-0.07813 0,-0.742188 c 0,-0.221353 0.1042,-0.33203 0.3125,-0.332031 l 1.0743,0 c 1.302,10e-7 1.9531,-0.33854 1.9531,-1.015625 0,-0.156248 -0.059,-0.423174 -0.1758,-0.800781 l -1.2891,-3.75 m -0.5468,-1.5625 -3.1446,-8.945313 -1.2695,-3.476562 -1.2109,3.378906 -3.125,8.339844 c -0.052,0.130217 -0.078,0.240894 -0.078,0.332031 0,0.247404 0.3451,0.371102 1.0352,0.371094 l 7.793,0"
             style="font-variant:normal;font-stretch:normal;font-family:Libertinage;-inkscape-font-specification:Libertinage;fill:#ffffff;stroke:none;stroke-opacity:1"
             id="path6898-7-7-3-8-1-9-5" />
          <path
             inkscape:connector-curvature="0"
             d="m 5747.6602,-72.63353 c 0,2.6e-5 1.5429,-0.02602 4.6289,-0.07813 0.065,2.6e-5 0.1367,2.6e-5 0.2148,0 1.4193,2.6e-5 2.7344,0.22789 3.9453,0.683594 1.224,0.442733 2.2721,1.067732 3.1445,1.875 0.8854,0.807314 1.6341,1.757834 2.2461,2.851562 0.625,1.09377 1.0873,2.291685 1.3868,3.59375 0.3124,1.302099 0.4687,2.669285 0.4687,4.101563 0,2.421885 -0.4622,4.589852 -1.3867,6.503906 -0.9115,1.901046 -2.2787,3.417972 -4.1016,4.550781 -1.8099,1.119793 -3.9388,1.686198 -6.3867,1.699219 l -4.1601,0.01953 -5.0391,0.07813 -0.059,-0.07813 0,-0.722656 c 0,-0.234374 0.098,-0.351561 0.293,-0.351562 l 1.1914,0 c 0.7422,10e-7 1.2695,-0.143228 1.582,-0.429688 0.3255,-0.286457 0.4883,-0.755206 0.4883,-1.40625 l 0,-10.390625 0,-9.6875 c 0,-0.624976 -0.1693,-1.067684 -0.5078,-1.328125 -0.3386,-0.273413 -0.8985,-0.410132 -1.6797,-0.410156 l -1.0547,0 c -0.2214,2.4e-5 -0.332,-0.110653 -0.332,-0.332031 l 0,-0.742188 0.078,-0.07813 c 2.3177,0.05211 3.9974,0.07815 5.0391,0.07813 m 4.2382,24.472656 c 1.0677,2e-6 2.0703,-0.227863 3.0078,-0.683593 0.9506,-0.468748 1.8099,-1.165362 2.5782,-2.089844 0.7812,-0.924474 1.3997,-2.161452 1.8554,-3.710938 0.4558,-1.54947 0.6836,-3.320301 0.6836,-5.3125 0,-1.653631 -0.1302,-3.131494 -0.3906,-4.433593 -0.2474,-1.315086 -0.5925,-2.402324 -1.0351,-3.261719 -0.4428,-0.859354 -0.9766,-1.568988 -1.6016,-2.128906 -0.612,-0.559873 -1.263,-0.957008 -1.9531,-1.191407 -0.6901,-0.23435 -1.4388,-0.351538 -2.2461,-0.351562 l -1.3867,0 c -0.7943,2.4e-5 -1.3412,0.09768 -1.6407,0.292969 -0.2864,0.195336 -0.4297,0.598981 -0.4297,1.210937 l 0,20.078125 c 0,0.572919 0.1498,0.983075 0.4493,1.230469 0.2994,0.234376 0.8398,0.351564 1.6211,0.351562 l 0.4882,0"
             style="font-variant:normal;font-stretch:normal;font-family:Libertinage;-inkscape-font-specification:Libertinage;fill:#ffffff;stroke:none;stroke-opacity:1"
             id="path6900-3-9-5-3-7-9-3" />
        </g>
      </g>
      <path
         inkscape:connector-curvature="0"
         style="fill:none;stroke:#000000;stroke-width:1.48912084000000000;stroke-miterlimit:4;stroke-dasharray:none;stroke-opacity:1"
         d="m 39.297156,454.44783 c 2.042796,0.0885 4.098746,0.0268 6.142624,0.11001 1.307408,0.0563 2.61025,0.13146 3.872041,0.52371 1.217257,0.37829 2.331487,1.04124 3.313453,1.84614 0.324906,0.2656 0.793344,0.5814 1.010398,0.9452 0.203901,0.34288 0.19854,0.94816 0.26561,1.34014 l 0.508962,3.05293 0.217312,1.30285 c 0.0268,0.16097 0.0268,0.43409 0.120738,0.56771 0.142191,0.18781 0.503859,0.30183 0.706955,0.41184 0.573887,0.31122 1.142672,0.63317 1.712797,0.95109 0.238785,0.13148 0.589989,0.25757 0.744789,0.49099 0.296206,0.44699 0.448324,1.0646 0.6474,1.56202 0.41747,1.0434 0.841105,2.08385 1.258307,3.12724 1.296667,3.24129 2.603539,6.47908 3.909061,9.71688 4.111364,10.19522 8.210387,20.39554 12.293308,30.60231 2.493265,6.23305 5.01256,12.45589 7.505289,18.68919 0.588917,1.47268 1.193113,2.93704 1.818782,4.39309 0.187808,0.43811 0.564764,1.29747 1.159568,1.28406 0.174396,0 0.373472,-0.16635 0.521312,-0.24684 0.357091,-0.19854 0.718213,-0.39144 1.079612,-0.58086 1.086324,-0.56986 2.149318,-1.18613 3.238858,-1.74982 0.577918,-0.29861 1.292388,-0.56369 1.65486,-1.12657 0.549188,-0.85212 0.905495,-1.86278 1.302028,-2.79215 l 1.935758,-4.54198 c 2.091629,-4.90122 4.169042,-9.80888 6.270612,-14.70554 4.16608,-9.7064 8.27905,-19.4356 12.42449,-29.15058 1.23953,-2.90431 2.50105,-5.79976 3.72287,-8.71155 0.39653,-0.94548 0.80568,-1.88586 1.20706,-2.82946 0.18512,-0.43598 0.33027,-1.03615 0.61976,-1.41096 0.32061,-0.41452 1.12041,-0.66188 1.57677,-0.90871 1.20277,-0.65062 2.39641,-1.32351 3.61126,-1.95212 0.40029,-0.20658 0.7998,-0.42016 1.19123,-0.64257 0.13147,-0.0751 0.34932,-0.13683 0.44725,-0.25489 0.0885,-0.10733 0.0939,-0.32088 0.11537,-0.45341 0.0591,-0.34771 0.11536,-0.6965 0.18243,-1.0426 0.26562,-1.36992 0.41104,-2.77632 0.7397,-4.13229 0.11,-0.4561 0.16366,-1.33127 0.56503,-1.62479 1.79409,-1.31438 4.28602,-1.93227 6.47612,-1.98593 1.83434,-0.0457 3.78269,0.22268 5.5843,-0.15024 m -13.62565,9.41905 c 0.20927,0.39493 0.0751,1.11905 0.0751,1.56362 l 0,3.68558 0,13.43973 c 0,14.60252 0.0376,29.21309 0.0376,43.81883 l 0,12.2112 c 0,1.12979 0.0376,2.26146 0.0376,3.38804 0,0.34663 0.15561,0.95325 0,1.26581 -0.11268,0.22537 -0.40244,0.39681 -0.59454,0.55081 -0.50064,0.40137 -1.02087,0.77081 -1.56364,1.11262 -1.81017,1.14052 -3.81864,1.81556 -5.95669,1.90892 -1.07371,0.0457 -2.16594,0.0268 -3.23886,0.0376 -0.62217,0 -1.26769,-0.0725 -1.86144,0.15026 m -59.566964,-82.76059 -2.829448,2.82945 c -0.330804,0.33081 -1.0061,0.78717 -1.16896,1.22852 -0.139511,0.38233 -0.0268,1.00746 -0.0268,1.41472 l 0,3.16455 0,10.79648 0,43.07431 c 0,4.64956 0.209271,9.36298 -0.107316,13.99805 -0.07783,1.12685 -0.07515,2.26093 -0.166345,3.38804 -0.0268,0.28681 0.06175,0.95217 -0.120728,1.17674 -0.142201,0.17708 -0.482396,0.26293 -0.684956,0.34959 -0.607154,0.26025 -1.226648,0.48722 -1.861441,0.6702 -1.741507,0.50172 -3.483014,0.63265 -5.286488,0.63265 -1.189897,0 -2.577251,-0.17708 -3.72314,0.18512 m 47.76518,-11.65262 -0.07505,11.4294 m 41.138296,-3.61126 c 0.64955,0.40458 1.24194,0.89692 1.89873,1.29559 1.60307,0.97312 3.34833,1.69589 5.21218,1.97064 1.62238,0.23878 3.27723,0.23341 4.9141,0.23341 1.03695,0 2.12544,-0.0939 3.12725,0.2227 m -92.328541,-1.67552 c 1.847214,0.98331 4.098921,1.26939 4.813697,1.24621 0.572179,0.0426 3.043371,0.18991 3.7806,0.23604 0.922409,0.10047 2.170758,-0.0195 3.486625,0.34831"
         id="path4-2-5-0-4-1-4-9-4-0-8-5-9-6-1-0-8-2"
         sodipodi:nodetypes="ccccccccccccccccsccccccccccccccccccccccccscsssscccccccscsccscccccsccccccsccccc" />
      <path
         inkscape:connector-curvature="0"
         style="fill:none;stroke:#000000;stroke-width:1.48912084000000000;stroke-miterlimit:4;stroke-dasharray:none;stroke-opacity:1"
         d="m 195.76955,453.60077 c -0.0268,2.7291 -0.0751,5.45633 -0.0751,8.18624 0,0.72788 0,1.4598 -0.0296,2.18795 0,0.37668 -0.0912,0.87786 0,1.24328 0.051,0.19853 0.31766,0.29056 0.47837,0.38635 0.41345,0.24683 1.17084,0.50708 1.35919,0.9731 0.33938,0.83923 0.59507,1.71521 0.90603,2.56545 1.17112,3.20129 2.29608,6.41816 3.46691,9.61946 3.7108,10.14613 7.1973,20.38777 10.74042,30.59401 0.30102,0.86793 0.59856,1.73748 0.90629,2.603 0.1878,0.52801 0.43733,1.06595 0.52398,1.62212 0.1744,1.13006 0.31821,2.26629 0.50333,3.39501 0.0671,0.41317 0.0402,1.00503 0.21464,1.38333 0.15829,0.34341 0.88913,0.52425 1.18077,0.75901 0.27366,0.22 0.35441,0.74397 0.46816,1.06433 1.16387,3.27052 2.25772,6.56599 3.39636,9.84591 0.63855,1.8389 1.4276,3.6794 1.8542,5.58295 0.39867,1.78015 0.54436,3.63138 0.83359,5.43219 0.0751,0.46441 0.14488,0.9299 0.20927,1.39593 0.0268,0.16903 0,0.44537 0.13146,0.58033 0.20927,0.24146 0.64418,0.40405 0.92026,0.5618 0.66752,0.38072 1.33476,0.76519 2.03717,1.07829 2.8501,1.27011 5.74742,2.01409 8.86501,2.22738 1.00503,0.0697 2.01383,0.0832 3.01806,0.15026 0.49635,0.0348 0.96371,-0.0268 1.43351,0.19316 m -24.36956,-28.82083 -1.81073,1.81072 c -0.22,0.22001 -0.49527,0.62219 -0.79227,0.73191 -0.22269,0.0832 -0.55618,0.0268 -0.79227,0.0268 l -1.73535,0 -5.88479,0 -21.27611,0 -4.64017,0 c -1.03347,0 -2.10611,0.043 -3.131,-0.0912 -0.58596,-0.0778 -1.16146,-0.12609 -1.73533,-0.27795 -0.21196,-0.0563 -0.53982,-0.16903 -0.63667,-0.38608 -0.10462,-0.2361 0.0671,-0.69274 0.1046,-0.94253 0.12075,-0.85666 0.27126,-1.70984 0.40406,-2.56516 0.15831,-1.01711 0.23611,-2.09808 0.49716,-3.09319 0.25489,-0.96479 0.66028,-1.89711 1.01174,-2.82944 0.60662,-1.60842 1.2084,-3.21847 1.81099,-4.82851 3.13182,-8.37511 6.33794,-16.72581 9.40698,-25.124 1.03777,-2.84045 2.09298,-5.67687 3.10686,-8.52562 0.31847,-0.89503 0.63989,-1.79008 0.97633,-2.67841 0.1261,-0.33053 0.20659,-0.81105 0.43249,-1.08605 0.12879,-0.1583 0.36703,-0.24683 0.54116,-0.34744 0.4019,-0.23074 0.80434,-0.46067 1.20733,-0.68979 1.26957,-0.72171 2.51794,-1.49683 3.81006,-2.17722 m -19.23921,81.78506 c -3.12053,-0.24684 -6.27489,-0.0268 -9.39329,-0.33322 -1.48581,-0.14756 -3.14389,-0.341 -4.14248,-1.59073 -0.2361,-0.29566 0.14219,-1.2304 0.22269,-1.58429 0.33457,-1.45657 0.43571,-2.95984 0.76866,-4.41372 0.35013,-1.52715 0.98921,-2.98372 1.52607,-4.45156 1.04661,-2.86244 2.14181,-5.70745 3.2064,-8.56319 0.8242,-2.21129 1.53089,-4.59617 3.66116,-5.92262 m 50.54983,22.74743 c -1.08659,1.08633 -2.06829,2.26656 -3.47067,2.94321 -1.13195,0.54625 -2.50374,0.68925 -3.73468,0.83547 -2.93114,0.34878 -5.88962,0.10199 -8.82719,0.33322 m -56.35949,-0.0376 c 0.59668,-0.0751 1.14428,0.0268 1.73532,0 1.05333,-0.0349 2.12008,-0.0912 3.16885,-0.19318 1.67712,-0.16366 3.35906,-0.44134 4.97956,-0.91489 0.82313,-0.24147 1.60441,-0.57791 2.41439,-0.85156"
         id="path4-8-7-3-3-9-9-9-9-8-8-8-5-8-6-7-0-1-9" />
      <path
         inkscape:connector-curvature="0"
         style="fill:none;stroke:#000000;stroke-width:1.48912084000000000;stroke-miterlimit:4;stroke-dasharray:none;stroke-opacity:1"
         d="m 246.13256,453.70181 c 0.37884,0.18512 0.86901,0.15025 1.28138,0.15025 0.79845,0 1.61621,-0.051 2.41252,0 3.71374,0.25488 7.55976,0 10.89387,1.9945 0.69944,0.42069 1.30874,0.93179 1.88451,1.50783 0.20121,0.20123 0.46683,0.40056 0.61843,0.6407 0.19316,0.30558 0.0591,1.00181 0.0591,1.35703 l 0,3.43015 0,12.85404 0,48.09815 0,14.06002 0,3.76956 c 0,0.37991 0.14488,1.14454 -0.0591,1.46998 -0.18514,0.29513 -0.52211,0.54598 -0.76895,0.79175 -0.96345,0.95888 -2.13428,1.68462 -3.39259,2.18633 -4.10787,1.63822 -8.52268,0.98036 -12.81621,1.31922 m 17.03784,-89.33623 c 1.21967,-1.21915 2.41976,-2.23358 4.03355,-2.88527 1.06942,-0.43195 2.29634,-0.51512 3.43016,-0.62674 2.23222,-0.21999 4.46525,-0.1556 6.70953,-0.18243 4.22753,-0.051 8.47841,-0.0725 12.62761,0.85451 6.94455,1.55317 13.17169,5.94597 17.16664,11.81092 3.34189,4.90712 5.58913,10.51262 6.93919,16.28419 0.65303,2.79134 1.05467,5.57544 1.46248,8.40597 0.24683,1.70797 0.36381,3.44331 0.48213,5.16416 0.0939,1.35166 0.24415,2.71595 0.26025,4.07084 0.0295,2.25717 -0.28548,4.58033 -0.52049,6.82275 -1.22692,11.70948 -5.55346,23.57003 -14.89581,31.22692 -4.87465,3.99572 -10.76454,6.60919 -17.03783,7.36149 -2.67974,0.32143 -5.40669,0.31256 -8.1044,0.31256 -3.18065,0 -6.68754,0.16634 -9.61222,-1.29559 -1.13865,-0.5696 -2.04737,-1.39272 -2.94026,-2.28535"
         id="path4-0-4-5-7-6-4-2-8-2-2-8-8-3-9-8-7-8-9" />
      <path
         d="m 356.9479,528.79629 1.56239,-10.04396 -10.04395,0 -1.65166,10.04396 10.13322,0 m 4.59791,-10.04396 -1.65169,10.04396 8.25836,0 -0.62494,4.46398 -8.21372,0 -2.54449,15.53465 -2.99085,0 2.41055,-15.53465 -9.99931,0 -2.54447,15.53465 -2.99088,0 2.41055,-15.53465 -8.21372,0 0.6696,-4.46398 8.303,0 1.5624,-10.04396 -8.25838,0 0.71424,-4.46398 8.25838,0 2.45517,-15.49001 3.08016,0 -2.54447,15.49001 10.13323,0 2.41055,-15.49001 3.03552,0 -2.45519,15.49001 8.25836,0 -0.6696,4.46398 -8.25836,0"
         style="font-size:40px;font-style:normal;font-variant:normal;font-weight:normal;font-stretch:normal;line-height:125%;letter-spacing:0px;word-spacing:0px;fill:#ffffff;fill-opacity:1;stroke:none;font-family:Libertinage;-inkscape-font-specification:Libertinage"
         id="path3526"
         inkscape:connector-curvature="0" />
      <path
         d="m 389.98134,505.24247 c -0.77375,4e-5 -1.96416,0.28276 -3.57118,0.84815 -1.60704,0.56548 -2.99086,1.1458 -4.15149,1.74096 l -1.07135,-2.90159 c 3.74973,-1.72603 6.66619,-3.19914 8.74939,-4.41934 2.11293,-1.2201 4.41933,-2.72298 6.91918,-4.50862 l 1.74095,0 0,45.97899 c -4e-5,1.69632 0.20822,2.82719 0.62494,3.39263 0.41662,0.56544 1.36894,0.84816 2.85695,0.84815 l 4.77647,0 c 0.50589,10e-6 0.75883,0.25296 0.75888,0.75888 l 0,1.96415 -12.54378,-0.17857 -12.67772,0.17857 0,-2.00879 c 0.0594,-0.47615 0.29761,-0.71423 0.71424,-0.71424 l 5.44605,0 c 0.83327,10e-6 1.48799,-0.0744 1.96416,-0.2232 0.50591,-0.17855 0.86303,-0.49104 1.07136,-0.93744 0.20821,-0.44639 0.32734,-0.86303 0.35712,-1.24991 0.0594,-0.38688 0.0894,-0.99695 0.0894,-1.83024 l 0,-31.42642 c -2e-5,-1.01179 -0.016,-1.74091 -0.0446,-2.18735 -0.0297,-0.47611 -0.10422,-0.99691 -0.2233,-1.56239 -0.11907,-0.59515 -0.32736,-0.99691 -0.62494,-1.20527 -0.26786,-0.23804 -0.65474,-0.35708 -1.16065,-0.35712"
         style="font-size:40px;font-style:normal;font-variant:normal;font-weight:normal;font-stretch:normal;line-height:125%;letter-spacing:0px;word-spacing:0px;fill:#ffffff;fill-opacity:1;stroke:none;font-family:Libertinage;-inkscape-font-specification:Libertinage"
         id="path3528"
         inkscape:connector-curvature="0" />
      <path
         inkscape:connector-curvature="0"
         style="fill:none;stroke:#000000;stroke-width:1.04824411999999989;stroke-miterlimit:4;stroke-dasharray:none;stroke-opacity:1"
         d="m 382.10864,505.28927 c 1.09252,-0.28261 2.22777,-0.45232 3.33448,-0.67373 1.20245,-0.24056 2.41141,-0.54722 3.62515,-0.72113 0.83792,-0.12011 1.70366,-0.16924 2.54788,-0.23114 0.74761,-0.0548 1.49233,-0.15038 2.24011,-0.20521 0.18259,-0.0129 0.36456,-0.0378 0.54719,-0.0513 0.0814,-0.006 0.15081,-0.0295 0.22228,0.024 0.0812,0.0607 0.21052,0.17154 0.24624,0.26817 0.0567,0.15383 0.0102,0.4007 0.0102,0.5643 l 0,1.26538 0,6.05332 0,24.91448 0,7.72914 0,1.94938 c 0,0.19871 -0.0711,0.56411 0.0695,0.7182 0.11983,0.13137 0.30951,0.38936 0.47777,0.45144 0.21494,0.0792 0.57438,0.0101 0.80371,0.0101 l 1.84678,0 8.32763,0 m -11.5253,-0.5301 c -0.14792,0.14791 -0.34986,0.44699 -0.5472,0.51982 -0.21921,0.0808 -0.58686,0.0102 -0.8208,0.0102 l -1.91519,0 -8.24211,0"
         id="path4-1-6-2-6-8-6-5-0-47-26-0-0-3-5-4-0-2-2" />
      <path
         id="path4-5-2"
         d="m 349.82041,500.86258 -1.90196,11.73349 -0.27551,3.01654 -0.0405,0.82069 0.0228,0.29722 0.30987,0.0355 0.86504,0 3.59325,0 14.61695,0 m -4.52481,-15.90343 c -0.009,0.43333 -0.13042,0.87992 -0.19365,1.30865 -0.13198,0.89569 -0.27926,1.78919 -0.4181,2.68385 -0.28901,1.86403 -0.59465,3.72542 -0.88367,5.58949 -0.32472,2.09318 -0.6561,4.17702 -0.6561,6.29926 m -20.05119,0.0222 7.2974,0 m -0.62105,0.0222 c 0,1.88358 -0.27927,3.73189 -0.5674,5.5895 -0.23866,1.53888 -0.47976,3.07733 -0.73572,4.61355 -0.15149,0.90829 -0.14396,1.83523 -0.23112,2.75038 -0.0247,0.25819 -0.0185,0.51681 -0.0185,0.77633 0,0.0738 -0.026,0.21335 0.0229,0.27503 0.0542,0.0684 0.23267,0.0355 0.30985,0.0355 l 0.86504,0 3.59326,0 14.61694,0 m -5.14587,-14.0403 c 0,4.71958 -1.55264,9.2972 -1.55264,14.01809 m -20.09554,0.0223 7.36393,0 m -0.66542,0.0222 c 0,1.91884 -0.27371,3.80728 -0.56737,5.70039 -0.35201,2.27084 -0.74505,4.53593 -1.07996,6.80942 -0.10913,0.7406 -0.23425,1.47967 -0.35801,2.21804 -0.0671,0.39881 -0.17322,0.81604 -0.19053,1.21995 m 14.92746,-15.94782 c 0,2.12334 -0.33115,4.2052 -0.65609,6.29927 -0.31652,2.04173 -0.65589,4.0801 -0.9724,6.12183 -0.13441,0.8657 -0.29057,1.72852 -0.41811,2.59512 -0.0464,0.31496 -0.13551,0.63548 -0.14927,0.95375"
         style="fill:none;stroke:#000000;stroke-width:1.05203950000000002;stroke-miterlimit:4;stroke-dasharray:none;stroke-opacity:1"
         inkscape:connector-curvature="0" />
      <g
         transform="matrix(3.6773751,0,0,3.6773751,39.832853,165.2106)"
         style="font-size:40px;font-style:normal;font-weight:normal;line-height:125%;letter-spacing:0px;word-spacing:0px;fill:#ffffff;fill-opacity:1;stroke:none;font-family:Sans;stroke-opacity:1"
         id="flowRoot5577-4-7-3-7-4-9-4">
        <path
           d="m 6.6972355,116.2405 -0.3058122,-5.09494 -0.02308,0 -2.6599891,6.25472 c -0.042318,0.0885 -0.098095,0.13079 -0.1673313,0.12694 -0.084632,0 -0.142332,-0.0423 -0.1731012,-0.12694 l -2.44649764,-6.13355 -0.0230802,0 -0.45006325,4.89299 c -0.0346217,0.36929 -0.005771,0.63663 0.0865506,0.80204 0.0961657,0.16156 0.32696716,0.2558 0.69240499,0.28273 0.034618,0.0346 0.051928,0.0808 0.05193,0.13848 -2.2e-6,0.0538 -0.017312,0.0981 -0.05193,0.13271 -0.1038629,-0.004 -0.2750406,-0.0154 -0.5135337,-0.0346 -0.23464984,-0.0154 -0.40390422,-0.0231 -0.50776366,-0.0231 -0.10001516,0 -0.27119289,0.008 -0.51353371,0.0231 -0.24234219,0.0192 -0.41544327,0.0308 -0.51930374,0.0346 -0.0346204,-0.0346 -0.0538538,-0.0789 -0.0577004,-0.13271 -1.1e-7,-0.0577 0.0192333,-0.10386 0.0577004,-0.13848 0.32312183,-0.0269 0.54045985,-0.11732 0.6520147,-0.27119 0.11539989,-0.15387 0.1923337,-0.41737 0.23080166,-0.7905 l 0.51930375,-5.0257 c 0.0461587,-0.45006 0.0230786,-0.74049 -0.0692405,-0.87128 -0.0884754,-0.13463 -0.33274024,-0.21348 -0.73279528,-0.23657 -0.034621,-0.0346 -0.0519311,-0.0789 -0.0519304,-0.13271 -7.2e-7,-0.0577 0.0173094,-0.10386 0.0519304,-0.13848 l 1.58676138,0.0577 2.4176475,6.00084 c 0.00384,0.0115 0.011535,0.0269 0.02308,0.0462 0.026922,0.0654 0.055772,0.0981 0.086551,0.0981 0.015382,0 0.026922,-0.002 0.03462,-0.006 0.00769,-0.004 0.017305,-0.0154 0.02885,-0.0346 0.015382,-0.0231 0.032692,-0.0615 0.05193,-0.1154 l 2.5099681,-5.9893 1.5579112,-0.0577 c 0.034611,0.0346 0.051921,0.0808 0.05193,0.13848 -9.1e-6,0.0539 -0.017319,0.0981 -0.05193,0.13271 -0.3769847,0.0231 -0.6135562,0.10771 -0.7097151,0.25388 -0.096176,0.14618 -0.1307959,0.39622 -0.1038608,0.75011 l 0.3865928,5.12956 c 0.011532,0.18849 0.021148,0.3289 0.02885,0.42122 0.011531,0.0923 0.030765,0.18464 0.057701,0.27696 0.030765,0.0923 0.059615,0.15579 0.086551,0.19041 0.030765,0.0308 0.084618,0.0635 0.1615611,0.0981 0.076925,0.0308 0.1538587,0.05 0.2308017,0.0577 0.076925,0.004 0.1923253,0.01 0.3462025,0.0173 0.034611,0.0346 0.051921,0.0808 0.05193,0.13848 -9.6e-6,0.0538 -0.01732,0.0981 -0.05193,0.13271 -0.1000235,-0.004 -0.3192849,-0.0154 -0.6577847,-0.0346 -0.334671,-0.0154 -0.5654725,-0.0231 -0.692405,-0.0231 -0.096175,0 -0.28274,0.008 -0.5596941,0.0231 -0.2769693,0.0192 -0.5116175,0.0308 -0.703945,0.0346 -0.034627,-0.0346 -0.051937,-0.0789 -0.05193,-0.13271 -6.9e-6,-0.0577 0.017303,-0.10386 0.05193,-0.13848 0.1538606,-0.008 0.2634913,-0.0135 0.3288923,-0.0173 0.069233,-0.004 0.1423203,-0.0192 0.2192616,-0.0462 0.076926,-0.0308 0.12501,-0.0596 0.144251,-0.0866 0.019226,-0.0308 0.038459,-0.0885 0.0577,-0.1731 0.019226,-0.0885 0.026919,-0.17887 0.02308,-0.27119 -7.7e-6,-0.0923 -0.00578,-0.22888 -0.01731,-0.40968"
           style="font-size:11.81704520999999986px;font-variant:normal;font-stretch:normal;letter-spacing:0.00253922000000000px;word-spacing:0.00253922000000000px;font-family:Linux Libertine Display;-inkscape-font-specification:Linux Libertine Display;fill:#ffffff;stroke:none;stroke-opacity:1"
           id="path3531"
           inkscape:connector-curvature="0" />
        <path
           d="m 11.044617,117.57338 c -0.930902,0 -1.3751947,-0.51161 -1.3328801,-1.53483 0.030773,-0.77318 0.030773,-1.54444 0,-2.31379 -0.015388,-0.36158 -0.067318,-0.59431 -0.1557911,-0.69817 -0.084628,-0.10386 -0.2654225,-0.16733 -0.5423839,-0.19041 -0.088474,-0.0885 -0.088474,-0.17887 0,-0.27119 0.5500765,0.0154 0.909742,0.0231 1.0789981,0.0231 0.180793,0 0.309657,-0.008 0.386592,-0.0231 0.06155,0 0.09424,0.0231 0.09809,0.0692 -0.02308,0.46545 -0.04039,0.81358 -0.05193,1.04437 -0.03078,0.73088 -0.03078,1.46752 0,2.20993 0.02308,0.51931 0.08655,0.86166 0.190411,1.02707 0.103859,0.16541 0.325044,0.24811 0.663555,0.24811 0.142325,0 0.334659,-0.0654 0.577004,-0.19618 0.246185,-0.13079 0.471216,-0.28658 0.675095,-0.46738 0.01538,-0.0154 0.03846,-0.0365 0.06924,-0.0635 0.03077,-0.0269 0.05,-0.0423 0.0577,-0.0462 0.0077,-0.004 0.01538,-0.0173 0.02308,-0.0404 0.01154,-0.0269 0.01923,-0.05 0.02308,-0.0692 0.0038,-0.0192 0.0058,-0.0519 0.0058,-0.0981 0.03077,-0.81165 0.03077,-1.6233 0,-2.43496 -0.01539,-0.36927 -0.06732,-0.60969 -0.155791,-0.72125 -0.08848,-0.11155 -0.269272,-0.17502 -0.542384,-0.19041 -0.08848,-0.0885 -0.08848,-0.17887 0,-0.27119 0.550074,0.0154 0.907816,0.0231 1.073228,0.0231 0.188483,0 0.323118,-0.008 0.403903,-0.0231 0.05385,0 0.08078,0.0231 0.08078,0.0692 -0.02309,0.46545 -0.03847,0.81358 -0.04616,1.04437 -0.03078,0.81166 -0.03078,1.62331 0,2.43496 0.01538,0.30005 0.07116,0.50584 0.167331,0.6174 0.100009,0.1077 0.319271,0.17694 0.657785,0.20772 0.05385,0.0615 0.05385,0.12117 0,0.17887 -0.534696,0.0616 -0.952062,0.21349 -1.252099,0.45583 -0.08848,0.0231 -0.159642,0.0231 -0.213491,0 -0.08848,-0.27696 -0.130792,-0.50007 -0.126941,-0.66932 -0.0077,-0.0385 -0.03078,-0.0558 -0.06924,-0.0519 -0.03462,0.004 -0.06732,0.0173 -0.09809,0.0404 -0.569314,0.45391 -1.117467,0.68086 -1.644461,0.68086"
           style="font-size:11.81704520999999986px;font-variant:normal;font-stretch:normal;letter-spacing:0.00253922000000000px;word-spacing:0.00253922000000000px;font-family:Linux Libertine Display;-inkscape-font-specification:Linux Libertine Display;fill:#ffffff;stroke:none;stroke-opacity:1"
           id="path3533"
           inkscape:connector-curvature="0" />
        <path
           d="m 15.818979,116.2405 c 0.02308,-0.81165 0.03462,-1.80409 0.03462,-2.97734 -1e-6,-1.28864 -0.01154,-2.15991 -0.03462,-2.61383 -0.01539,-0.40774 -0.06539,-0.65777 -0.150021,-0.7501 -0.08078,-0.0962 -0.269269,-0.15194 -0.565464,-0.16733 -0.04616,-0.0462 -0.05962,-0.12117 -0.04039,-0.22504 0.66163,-0.0538 1.16747,-0.15386 1.517521,-0.30004 0.103859,1e-5 0.153866,0.0366 0.150021,0.10963 -0.02308,0.21927 -0.03847,0.57317 -0.04616,1.06169 -0.01924,0.97707 -0.02885,2.04068 -0.02885,3.19083 -1e-6,1.02707 0.0096,1.91758 0.02885,2.67153 0.0077,0.45007 0.05578,0.72703 0.144251,0.83089 0.09232,0.10001 0.315426,0.15771 0.669325,0.1731 0.08847,0.0885 0.08847,0.17887 0,0.27119 -0.142331,0 -0.344282,-0.01 -0.605855,-0.0289 -0.25773,-0.0192 -0.473145,-0.0288 -0.646245,-0.0288 -0.173102,0 -0.39044,0.01 -0.652014,0.0288 -0.257729,0.0192 -0.453911,0.0289 -0.588544,0.0289 -0.03077,-0.0308 -0.04808,-0.0731 -0.05193,-0.12694 -0.0038,-0.0577 0.01346,-0.10578 0.05193,-0.14425 0.353895,-0.0154 0.57508,-0.0731 0.663554,-0.1731 0.09232,-0.10386 0.142327,-0.38082 0.150021,-0.83089"
           style="font-size:11.81704520999999986px;font-variant:normal;font-stretch:normal;letter-spacing:0.00253922000000000px;word-spacing:0.00253922000000000px;font-family:Linux Libertine Display;-inkscape-font-specification:Linux Libertine Display;fill:#ffffff;stroke:none;stroke-opacity:1"
           id="path3535"
           inkscape:connector-curvature="0" />
        <path
           d="m 18.279556,112.62269 0.519303,0 c -1e-6,-0.36928 -0.0019,-0.66932 -0.0058,-0.90013 -0.0038,-0.23464 -0.0096,-0.3962 -0.01731,-0.48468 -0.0077,-0.0923 -0.01154,-0.14617 -0.01154,-0.16156 -1e-6,-0.0385 0.01539,-0.0673 0.04616,-0.0866 0.03462,-0.0192 0.0904,-0.0404 0.167331,-0.0635 0.08078,-0.0269 0.140403,-0.0481 0.178871,-0.0635 0.04616,-0.0154 0.100013,-0.0404 0.161561,-0.075 0.06539,-0.0346 0.121169,-0.0635 0.167331,-0.0865 0.04616,-0.0269 0.0827,-0.0404 0.109631,-0.0404 0.05385,1e-5 0.08078,0.0365 0.08078,0.10963 -0.02308,0.30005 -0.03847,0.69434 -0.04616,1.18286 l -0.01154,0.66933 1.35596,0 c 0.05385,0 0.0827,0.025 0.08655,0.075 l 0,0.12694 c -4e-6,0.0962 -0.09232,0.14425 -0.276962,0.14425 l -1.165549,0 c -0.06155,1.42713 -0.08271,2.4465 -0.06347,3.05812 0.01538,0.38467 0.04616,0.65394 0.09232,0.80781 0.05001,0.15387 0.146172,0.2308 0.288502,0.2308 0.315426,0 0.650088,-0.13271 1.003987,-0.39813 0.06154,0.0154 0.101934,0.0692 0.121171,0.16156 -0.442373,0.49622 -0.952059,0.74433 -1.529061,0.74433 -0.526999,0 -0.790497,-0.37313 -0.790496,-1.11939 -1e-6,-0.20387 0.0096,-0.73279 0.02885,-1.58676 0.01923,-0.85781 0.02885,-1.49059 0.02885,-1.89834 l -0.657784,0 c -0.03847,0 -0.05962,-0.025 -0.06347,-0.075 l 0,-0.10386 c 0,-0.11155 0.06732,-0.16733 0.201952,-0.16733"
           style="font-size:11.81704520999999986px;font-variant:normal;font-stretch:normal;letter-spacing:0.00253922000000000px;word-spacing:0.00253922000000000px;font-family:Linux Libertine Display;-inkscape-font-specification:Linux Libertine Display;fill:#ffffff;stroke:none;stroke-opacity:1"
           id="path3537"
           inkscape:connector-curvature="0" />
        <path
           d="m 22.228803,110.37814 c -10e-7,-0.14232 0.06539,-0.27118 0.196182,-0.38659 0.134633,-0.11924 0.273114,-0.17887 0.415443,-0.17887 0.150019,0 0.28273,0.0654 0.398133,0.19618 0.115398,0.13079 0.173099,0.26927 0.173101,0.41544 -2e-6,0.13464 -0.06347,0.26351 -0.190412,0.38659 -0.126942,0.1231 -0.26927,0.18465 -0.426983,0.18465 -0.142329,0 -0.273116,-0.0654 -0.392362,-0.19619 -0.115402,-0.13078 -0.173103,-0.27118 -0.173102,-0.42121 m 1.130928,5.79312 c 0.01538,0.48084 0.06924,0.77511 0.161562,0.88282 0.09232,0.10386 0.323119,0.16733 0.692405,0.19041 0.03077,0.0308 0.04616,0.075 0.04616,0.13271 -3e-6,0.0538 -0.01539,0.10002 -0.04616,0.13848 -0.592394,-0.0385 -1.017453,-0.0577 -1.27518,-0.0577 -0.346203,0 -0.777033,0.0192 -1.292489,0.0577 -0.08847,-0.0885 -0.08847,-0.17887 0,-0.27119 0.369282,-0.0308 0.600083,-0.0981 0.692405,-0.20195 0.09232,-0.10771 0.146173,-0.39813 0.161561,-0.87128 0.01539,-0.52699 0.02308,-0.96744 0.02308,-1.32134 -10e-7,-0.36543 -0.0077,-0.70586 -0.02308,-1.02129 -0.01539,-0.33851 -0.06539,-0.54815 -0.150021,-0.62894 -0.08078,-0.0846 -0.286579,-0.14232 -0.617394,-0.1731 -0.03077,-0.0962 -0.03847,-0.16733 -0.02308,-0.21349 0.68471,-0.0885 1.20786,-0.20195 1.569451,-0.34043 0.103859,0 0.155789,0.0269 0.155791,0.0808 -0.02693,0.42698 -0.05193,0.83473 -0.07501,1.22325 -0.01539,0.31927 -0.02308,0.68086 -0.02308,1.08476 -2e-6,0.43853 0.0077,0.87513 0.02308,1.3098"
           style="font-size:11.81704520999999986px;font-variant:normal;font-stretch:normal;letter-spacing:0.00253922000000000px;word-spacing:0.00253922000000000px;font-family:Linux Libertine Display;-inkscape-font-specification:Linux Libertine Display;fill:#ffffff;stroke:none;stroke-opacity:1"
           id="path3539"
           inkscape:connector-curvature="0" />
        <path
           d="m 26.420393,113.58051 c -0.111556,0.13464 -0.17118,0.34044 -0.178871,0.6174 -2e-6,0 -0.0077,0.69241 -0.02308,2.07721 -1e-6,0.36159 0.09424,0.62509 0.282732,0.7905 0.180793,0.15771 0.428904,0.23657 0.744336,0.23657 0.392359,0 0.721252,-0.13271 0.986677,-0.39813 0.265418,-0.26927 0.444289,-0.56739 0.536614,-0.89436 0.09616,-0.32697 0.144246,-0.66355 0.144251,-1.00976 -5e-6,-0.66162 -0.134639,-1.17516 -0.403903,-1.5406 -0.265426,-0.36543 -0.590471,-0.54815 -0.975137,-0.54815 -0.380826,-0.004 -0.752031,0.21926 -1.113618,0.66932 m -0.09232,-0.27119 c 0.407748,-0.53468 0.902047,-0.80203 1.482901,-0.80203 0.584694,0 1.063606,0.20388 1.43674,0.61162 0.376971,0.40391 0.565459,0.92898 0.565464,1.57522 -5e-6,0.95398 -0.280813,1.70217 -0.842426,2.24455 -0.450067,0.42698 -1.000144,0.63855 -1.650232,0.6347 -0.315431,0 -0.623166,-0.0577 -0.923206,-0.1731 -0.11925,-0.0462 -0.178873,-0.0192 -0.178872,0.0808 -1e-6,0.67702 0.0077,1.21363 0.02308,1.60984 0.01539,0.45776 0.07116,0.73664 0.167331,0.83666 0.09616,0.10386 0.348123,0.16733 0.755875,0.19041 0.07693,0.0885 0.07693,0.17118 0,0.24811 -0.134637,0 -0.344281,-0.01 -0.628934,-0.0288 -0.280811,-0.0192 -0.515459,-0.0289 -0.703945,-0.0289 -0.173103,0 -0.386594,0.01 -0.640475,0.0289 -0.253882,0.0192 -0.446217,0.0288 -0.577004,0.0288 -0.07693,-0.0769 -0.07693,-0.15964 0,-0.24811 0.346202,-0.0154 0.561617,-0.0769 0.646245,-0.18464 0.08847,-0.10771 0.140403,-0.38852 0.155791,-0.84243 0.01539,-0.30004 0.02308,-1.1867 0.02308,-2.65999 -1e-6,-1.47328 -0.0077,-2.35994 -0.02308,-2.65998 -0.01539,-0.31543 -0.06539,-0.51353 -0.150021,-0.59432 -0.08078,-0.0846 -0.27504,-0.14232 -0.582775,-0.1731 -0.03077,-0.0885 -0.03847,-0.15579 -0.02308,-0.20195 0.623164,-0.0885 1.107847,-0.19426 1.454051,-0.31735 0.09616,0 0.142326,0.0231 0.138481,0.0692 -0.02308,0.21157 -0.03462,0.45199 -0.03462,0.72125 -1e-6,0.0385 0.01346,0.0596 0.04039,0.0635 0.03077,0.004 0.05385,-0.006 0.06924,-0.0289"
           style="font-size:11.81704520999999986px;font-variant:normal;font-stretch:normal;letter-spacing:0.00253922000000000px;word-spacing:0.00253922000000000px;font-family:Linux Libertine Display;-inkscape-font-specification:Linux Libertine Display;fill:#ffffff;stroke:none;stroke-opacity:1"
           id="path3541"
           inkscape:connector-curvature="0" />
        <path
           d="m 31.362089,116.2405 c 0.02308,-0.81165 0.03462,-1.80409 0.03462,-2.97734 -2e-6,-1.28864 -0.01154,-2.15991 -0.03462,-2.61383 -0.01539,-0.40774 -0.0654,-0.65777 -0.150021,-0.7501 -0.08078,-0.0962 -0.269269,-0.15194 -0.565464,-0.16733 -0.04616,-0.0462 -0.05962,-0.12117 -0.04039,-0.22504 0.66163,-0.0538 1.16747,-0.15386 1.517521,-0.30004 0.103859,1e-5 0.153866,0.0366 0.150021,0.10963 -0.02308,0.21927 -0.03847,0.57317 -0.04616,1.06169 -0.01924,0.97707 -0.02885,2.04068 -0.02885,3.19083 -2e-6,1.02707 0.0096,1.91758 0.02885,2.67153 0.0077,0.45007 0.05578,0.72703 0.144251,0.83089 0.09232,0.10001 0.315426,0.15771 0.669324,0.1731 0.08847,0.0885 0.08847,0.17887 0,0.27119 -0.14233,0 -0.344281,-0.01 -0.605854,-0.0289 -0.25773,-0.0192 -0.473145,-0.0288 -0.646245,-0.0288 -0.173102,0 -0.39044,0.01 -0.652014,0.0288 -0.257729,0.0192 -0.453911,0.0289 -0.588545,0.0289 -0.03077,-0.0308 -0.04808,-0.0731 -0.05193,-0.12694 -0.0038,-0.0577 0.01346,-0.10578 0.05193,-0.14425 0.353896,-0.0154 0.57508,-0.0731 0.663555,-0.1731 0.09232,-0.10386 0.142327,-0.38082 0.150021,-0.83089"
           style="font-size:11.81704520999999986px;font-variant:normal;font-stretch:normal;letter-spacing:0.00253922000000000px;word-spacing:0.00253922000000000px;font-family:Linux Libertine Display;-inkscape-font-specification:Linux Libertine Display;fill:#ffffff;stroke:none;stroke-opacity:1"
           id="path3543"
           inkscape:connector-curvature="0" />
        <path
           d="m 34.613161,114.39986 2.284937,-0.0635 c 0.11155,0 0.165404,-0.05 0.161561,-0.15002 -4e-6,-0.45006 -0.103864,-0.79626 -0.311582,-1.03861 -0.207725,-0.24618 -0.45776,-0.36928 -0.750106,-0.36928 -0.276964,0 -0.553926,0.12887 -0.830886,0.38659 -0.273117,0.25773 -0.457758,0.66933 -0.553924,1.23479 m 3.121593,2.00797 c 0.126936,0.008 0.205793,0.0692 0.236572,0.18465 -0.496228,0.65393 -1.154012,0.9809 -1.973355,0.9809 -0.788574,0 -1.382888,-0.23849 -1.782943,-0.71548 -0.353896,-0.40775 -0.530844,-0.96744 -0.530843,-1.67908 -10e-7,-0.80396 0.240417,-1.4502 0.721255,-1.93874 0.480835,-0.48852 1.011678,-0.73279 1.592531,-0.73279 0.715482,0 1.221322,0.19234 1.517521,0.577 0.296191,0.38083 0.444289,0.85012 0.444293,1.40789 -4e-6,0.13464 -0.07117,0.20195 -0.213491,0.20195 l -3.167753,0.0462 c -1e-6,0.66933 0.119246,1.19633 0.357743,1.58099 0.165406,0.26927 0.373127,0.47315 0.623164,0.61163 0.253879,0.13848 0.494298,0.20772 0.721255,0.20772 0.300039,0 0.557767,-0.0615 0.773186,-0.18464 0.219257,-0.1231 0.446212,-0.30581 0.680865,-0.54816"
           style="font-size:11.81704520999999986px;font-variant:normal;font-stretch:normal;letter-spacing:0.00253922000000000px;word-spacing:0.00253922000000000px;font-family:Linux Libertine Display;-inkscape-font-specification:Linux Libertine Display;fill:#ffffff;stroke:none;stroke-opacity:1"
           id="path3545"
           inkscape:connector-curvature="0" />
        <path
           d="m 44.458701,114.17483 2.111835,0 -1.136698,-3.27739 -0.03462,0 -1.240559,3.05813 c -0.02693,0.0616 -0.01539,0.11348 0.03462,0.15579 0.05385,0.0423 0.142325,0.0635 0.265422,0.0635 m -1.33865,2.46958 c -0.01923,0.0846 -0.0327,0.15579 -0.04039,0.21349 -0.0038,0.0577 0.01923,0.10963 0.06924,0.15579 0.05001,0.0423 0.09617,0.0769 0.138481,0.10386 0.04616,0.0269 0.111553,0.05 0.196182,0.0692 0.08462,0.0154 0.159635,0.0288 0.225031,0.0404 0.06539,0.008 0.140402,0.0135 0.225032,0.0173 0.03462,0.0346 0.05193,0.0808 0.05193,0.13848 0.0038,0.0538 -0.01347,0.0981 -0.05193,0.13271 -0.111557,-0.004 -0.307738,-0.0154 -0.588544,-0.0346 -0.276964,-0.0154 -0.505842,-0.0231 -0.686635,-0.0231 -0.169256,0 -0.376977,0.008 -0.623165,0.0231 -0.242342,0.0192 -0.42506,0.0308 -0.548154,0.0346 -0.03462,-0.0346 -0.05193,-0.0789 -0.05193,-0.13271 0,-0.0577 0.01731,-0.10386 0.05193,-0.13848 0.288502,-0.0192 0.521227,-0.0866 0.698175,-0.20195 0.180794,-0.1154 0.342355,-0.33851 0.484684,-0.66933 l 2.74077,-6.45667 c 0.14617,0 0.351968,-0.0789 0.617394,-0.23657 l 2.469578,6.87789 c 0.05,0.14617 0.109624,0.26542 0.178871,0.35774 0.07308,0.0885 0.161554,0.15579 0.265422,0.20195 0.1077,0.0423 0.200021,0.0712 0.276962,0.0866 0.08077,0.0154 0.19425,0.0289 0.340433,0.0404 0.03461,0.0346 0.05192,0.0808 0.05193,0.13848 -8e-6,0.0538 -0.01732,0.0981 -0.05193,0.13271 -0.103869,-0.004 -0.323131,-0.0154 -0.657785,-0.0346 -0.330823,-0.0154 -0.588551,-0.0231 -0.773186,-0.0231 -0.176954,0 -0.455839,0.01 -0.836656,0.0288 -0.376981,0.0192 -0.613553,0.0289 -0.709715,0.0289 -0.03462,-0.0346 -0.05194,-0.0789 -0.05193,-0.13271 -5e-6,-0.0577 0.01731,-0.10386 0.05193,-0.13848 0.02692,0 0.06539,-0.002 0.115401,-0.006 0.08462,-0.004 0.146169,-0.008 0.184641,-0.0115 0.04231,-0.004 0.09809,-0.01 0.167332,-0.0173 0.06923,-0.0115 0.121165,-0.0212 0.155791,-0.0288 0.03461,-0.0115 0.075,-0.025 0.121171,-0.0404 0.04615,-0.0192 0.07693,-0.0404 0.09232,-0.0635 0.01923,-0.0231 0.03654,-0.05 0.05193,-0.0808 0.01923,-0.0346 0.02692,-0.075 0.02308,-0.12117 -0.0039,-0.0462 -0.01539,-0.0962 -0.03462,-0.15002 l -0.750105,-2.17531 -2.463808,0 c -0.13079,0 -0.225034,0.0212 -0.282732,0.0635 -0.05386,0.0423 -0.09809,0.10771 -0.132711,0.19618 l -0.709715,1.83488"
           style="font-size:11.81704520999999986px;font-variant:normal;font-stretch:normal;letter-spacing:0.00253922000000000px;word-spacing:0.00253922000000000px;font-family:Linux Libertine Display;-inkscape-font-specification:Linux Libertine Display;fill:#ffffff;stroke:none;stroke-opacity:1"
           id="path3547"
           inkscape:connector-curvature="0" />
        <path
           d="m 50.837133,113.77093 c -0.0077,-0.30774 -0.05578,-0.50392 -0.144251,-0.58855 -0.08463,-0.0885 -0.280809,-0.14809 -0.588544,-0.17887 -0.03847,-0.0615 -0.04616,-0.12886 -0.02308,-0.20195 0.557769,-0.0769 1.021296,-0.18272 1.39058,-0.31735 0.07693,0 0.125015,0.0231 0.144251,0.0692 0.02308,0.0692 0.03462,0.33274 0.03462,0.79049 -2e-6,0.10387 0.01731,0.15387 0.05193,0.15002 0.01154,-0.004 0.02693,-0.0173 0.04616,-0.0404 0.419287,-0.63085 0.836653,-0.94628 1.252099,-0.94628 0.242338,0 0.415439,0.0558 0.519303,0.16733 0.107704,0.10771 0.161558,0.23273 0.161562,0.37505 -4e-6,0.14233 -0.05386,0.26543 -0.161562,0.36928 -0.103864,0.10002 -0.226958,0.15003 -0.369282,0.15002 -0.180798,10e-6 -0.338512,-0.12116 -0.473144,-0.36351 -0.03847,-0.0692 -0.11348,-0.10386 -0.225031,-0.10386 -0.10771,-0.004 -0.280811,0.19619 -0.519304,0.60008 -0.16541,0.28466 -0.255807,0.55586 -0.271192,0.81358 -0.02308,0.48853 -0.02308,1.05977 0,1.7137 0.0077,0.24235 0.01923,0.42314 0.03462,0.54239 0.01539,0.11924 0.06347,0.21541 0.144251,0.2885 0.08463,0.0692 0.171176,0.11155 0.259652,0.12694 0.08847,0.0154 0.250033,0.0346 0.484684,0.0577 0.08847,0.0962 0.08847,0.18656 0,0.27119 -0.646247,-0.0385 -1.09054,-0.0577 -1.33288,-0.0577 -0.23465,0 -0.650092,0.0192 -1.246329,0.0577 -0.08847,-0.0885 -0.08847,-0.17887 0,-0.27119 0.361589,-0.0308 0.58662,-0.0942 0.675095,-0.19041 0.08847,-0.10001 0.140403,-0.37505 0.155791,-0.82512 0.03077,-0.81165 0.03077,-1.63099 0,-2.45803"
           style="font-size:11.81704520999999986px;font-variant:normal;font-stretch:normal;letter-spacing:0.00253922000000000px;word-spacing:0.00253922000000000px;font-family:Linux Libertine Display;-inkscape-font-specification:Linux Libertine Display;fill:#ffffff;stroke:none;stroke-opacity:1"
           id="path3549"
           inkscape:connector-curvature="0" />
        <path
           d="m 54.42287,112.62269 0.519304,0 c -1e-6,-0.36928 -0.0019,-0.66932 -0.0058,-0.90013 -0.0038,-0.23464 -0.0096,-0.3962 -0.01731,-0.48468 -0.0077,-0.0923 -0.01154,-0.14617 -0.01154,-0.16156 -1e-6,-0.0385 0.01539,-0.0673 0.04616,-0.0866 0.03462,-0.0192 0.0904,-0.0404 0.167331,-0.0635 0.08078,-0.0269 0.140403,-0.0481 0.178871,-0.0635 0.04616,-0.0154 0.100013,-0.0404 0.161562,-0.075 0.06539,-0.0346 0.121169,-0.0635 0.167331,-0.0865 0.04616,-0.0269 0.0827,-0.0404 0.109631,-0.0404 0.05385,1e-5 0.08078,0.0365 0.08078,0.10963 -0.02308,0.30005 -0.03847,0.69434 -0.04616,1.18286 l -0.01154,0.66933 1.35596,0 c 0.05385,0 0.0827,0.025 0.08655,0.075 l 0,0.12694 c -3e-6,0.0962 -0.09232,0.14425 -0.276962,0.14425 l -1.165548,0 c -0.06155,1.42713 -0.08271,2.4465 -0.06347,3.05812 0.01539,0.38467 0.04616,0.65394 0.09232,0.80781 0.05,0.15387 0.146172,0.2308 0.288502,0.2308 0.315426,0 0.650089,-0.13271 1.003987,-0.39813 0.06154,0.0154 0.101934,0.0692 0.121171,0.16156 -0.442373,0.49622 -0.952059,0.74433 -1.529061,0.74433 -0.526998,0 -0.790497,-0.37313 -0.790496,-1.11939 -10e-7,-0.20387 0.0096,-0.73279 0.02885,-1.58676 0.01923,-0.85781 0.02885,-1.49059 0.02885,-1.89834 l -0.657785,0 c -0.03847,0 -0.05962,-0.025 -0.06347,-0.075 l 0,-0.10386 c -1e-6,-0.11155 0.06732,-0.16733 0.201951,-0.16733"
           style="font-size:11.81704520999999986px;font-variant:normal;font-stretch:normal;letter-spacing:0.00253922000000000px;word-spacing:0.00253922000000000px;font-family:Linux Libertine Display;-inkscape-font-specification:Linux Libertine Display;fill:#ffffff;stroke:none;stroke-opacity:1"
           id="path3551"
           inkscape:connector-curvature="0" />
        <path
           d="m 62.652796,116.17126 c 0.0077,0.21157 0.02308,0.37313 0.04616,0.48469 0.02692,0.1077 0.08463,0.21349 0.173101,0.31735 0.09232,0.10386 0.230799,0.1731 0.415443,0.20772 0.184638,0.0346 0.434673,0.0519 0.750105,0.0519 0.442366,0 0.844345,-0.0519 1.205939,-0.15579 0.361584,-0.10771 0.696246,-0.27696 1.003987,-0.50776 0.30773,-0.23465 0.548148,-0.5597 0.721255,-0.97514 0.173095,-0.41929 0.259645,-0.91744 0.259652,-1.49444 -7e-6,-0.37697 -0.03847,-0.7501 -0.115401,-1.11939 -0.07309,-0.36928 -0.198111,-0.73087 -0.375052,-1.08477 -0.176954,-0.35774 -0.398139,-0.66932 -0.663555,-0.93475 -0.261581,-0.26926 -0.594319,-0.4866 -0.998217,-0.65201 -0.400061,-0.1654 -0.844353,-0.2481 -1.33288,-0.24811 -0.180798,1e-5 -0.332742,0.006 -0.455833,0.0173 -0.123097,0.0115 -0.225034,0.0462 -0.305812,0.10386 -0.07694,0.0539 -0.13656,0.0962 -0.178872,0.12694 -0.04232,0.0308 -0.07501,0.10387 -0.09809,0.21926 -0.01924,0.11541 -0.03078,0.20004 -0.03462,0.25388 -0.0038,0.0539 -0.0096,0.16734 -0.01731,0.34044 -0.03078,1.32326 -0.04616,2.17531 -0.04616,2.55612 -2e-6,0.80397 0.01538,1.63485 0.04616,2.49266 m -0.519303,-6.3355 c 0.119245,0 0.417364,-0.01 0.894356,-0.0288 0.476987,-0.0192 0.863579,-0.0289 1.159778,-0.0289 1.127077,0 2.092596,0.39814 2.896561,1.19439 0.803952,0.79243 1.205931,1.74064 1.205939,2.84464 -8e-6,0.55777 -0.08271,1.05784 -0.248112,1.50021 -0.165415,0.44237 -0.378906,0.79819 -0.640474,1.06745 -0.257736,0.26543 -0.561624,0.48661 -0.911667,0.66356 -0.350055,0.17695 -0.69818,0.30004 -1.044378,0.36928 -0.34236,0.0654 -0.690486,0.0981 -1.044377,0.0981 -0.473147,0 -0.94629,-0.01 -1.41943,-0.0289 -0.469299,-0.0192 -0.744338,-0.0288 -0.825116,-0.0288 -0.219263,0 -0.488532,0.01 -0.807806,0.0288 -0.319276,0.0192 -0.561618,0.0289 -0.727025,0.0289 -0.03077,-0.0385 -0.04616,-0.0846 -0.04616,-0.13848 0,-0.0577 0.01539,-0.10194 0.04616,-0.13271 0.434675,-0.0154 0.709714,-0.0789 0.825116,-0.19041 0.119246,-0.1154 0.182716,-0.40967 0.190411,-0.88282 0.03077,-1.30787 0.04616,-2.1426 0.04616,-2.5042 -10e-7,-0.38466 -0.01539,-1.23286 -0.04616,-2.54458 -0.0077,-0.47314 -0.07117,-0.76549 -0.190411,-0.87705 -0.115402,-0.11539 -0.390441,-0.18079 -0.825116,-0.19618 -0.03077,-0.0385 -0.04616,-0.0846 -0.04616,-0.13848 0,-0.0577 0.01539,-0.10193 0.04616,-0.13271 0.173101,0 0.415442,0.01 0.727025,0.0289 0.311581,0.0192 0.573156,0.0288 0.784726,0.0288"
           style="font-size:11.81704520999999986px;font-variant:normal;font-stretch:normal;letter-spacing:0.00253922000000000px;word-spacing:0.00253922000000000px;font-family:Linux Libertine Display;-inkscape-font-specification:Linux Libertine Display;fill:#ffffff;stroke:none;stroke-opacity:1"
           id="path3553"
           inkscape:connector-curvature="0" />
        <path
           d="m 72.250912,114.95378 -0.969367,0.23658 c -0.384672,0.0962 -0.669327,0.25388 -0.853966,0.47314 -0.184643,0.21926 -0.276964,0.45583 -0.276962,0.70971 -2e-6,0.20388 0.07886,0.39621 0.236572,0.57701 0.161559,0.18079 0.373127,0.27119 0.634704,0.27119 0.04616,0 0.100012,-0.01 0.161561,-0.0289 0.06539,-0.0192 0.121169,-0.0404 0.167331,-0.0635 0.05,-0.0231 0.113475,-0.0616 0.190412,-0.1154 0.08078,-0.0577 0.138478,-0.10002 0.173101,-0.12694 0.03462,-0.0269 0.09232,-0.0731 0.173101,-0.13848 0.08462,-0.0692 0.134631,-0.11156 0.150021,-0.12694 0.09616,-0.0692 0.148095,-0.16541 0.155792,-0.28851 l 0.0577,-1.37904 m -0.0577,1.96182 -0.02308,0 -0.225031,0.17887 c -0.253885,0.19618 -0.46353,0.32504 -0.628935,0.38659 -0.16541,0.0615 -0.373131,0.0923 -0.623164,0.0923 -0.938595,0 -1.407891,-0.38467 -1.40789,-1.15401 -10e-7,-0.37697 0.169253,-0.70394 0.507763,-0.9809 0.338508,-0.27696 0.788571,-0.47891 1.35019,-0.60586 l 1.061688,-0.23657 c 0.03846,-0.0154 0.0577,-0.0981 0.0577,-0.24811 -3e-6,-0.577 -0.08848,-0.98475 -0.265422,-1.22325 -0.176951,-0.23849 -0.384672,-0.35774 -0.623164,-0.35774 -0.234651,0 -0.444296,0.0481 -0.628935,0.14425 -0.184643,0.0923 -0.276964,0.22119 -0.276962,0.38659 -2e-6,0.10387 0.0077,0.17888 0.02308,0.22503 0.02308,0.0462 0.03462,0.11348 0.03462,0.20195 -2e-6,0.0846 -0.05001,0.17888 -0.150022,0.28274 -0.09617,0.10386 -0.219262,0.15579 -0.369282,0.15579 -0.134636,0 -0.244266,-0.0423 -0.328893,-0.12694 -0.08078,-0.0885 -0.121171,-0.20003 -0.12117,-0.33467 -10e-7,-0.30003 0.20195,-0.57315 0.605854,-0.81934 0.407748,-0.25003 0.844347,-0.37505 1.309799,-0.37505 1.119385,0 1.654075,0.63855 1.604072,1.91565 l -0.0577,1.67331 c -0.01539,0.3539 0.0077,0.61163 0.06924,0.77319 0.06539,0.15771 0.200024,0.23657 0.403903,0.23657 0.09616,0 0.17502,-0.0308 0.236572,-0.0923 0.06154,-0.0654 0.09616,-0.0981 0.10386,-0.0981 0.03077,0 0.06539,0.0154 0.103861,0.0462 0.04231,0.0308 0.06346,0.0654 0.06347,0.10386 -6e-6,0.0231 -0.0404,0.075 -0.121171,0.15579 -0.07694,0.0808 -0.194263,0.15964 -0.351973,0.23657 -0.157719,0.0769 -0.31928,0.1154 -0.484683,0.1154 -0.430834,0.004 -0.713566,-0.21541 -0.848196,-0.65778"
           style="font-size:11.81704520999999986px;font-variant:normal;font-stretch:normal;letter-spacing:0.00253922000000000px;word-spacing:0.00253922000000000px;font-family:Linux Libertine Display;-inkscape-font-specification:Linux Libertine Display;fill:#ffffff;stroke:none;stroke-opacity:1"
           id="path3555"
           inkscape:connector-curvature="0" />
        <path
           d="m 76.332872,119.50058 c -0.300044,0.53468 -0.663556,0.80395 -1.090537,0.8078 -0.150023,0 -0.276963,-0.0404 -0.380823,-0.12117 -0.100015,-0.0769 -0.150022,-0.17503 -0.150021,-0.29427 -10e-7,-0.0885 0.03847,-0.17695 0.115401,-0.26542 0.08078,-0.0846 0.19618,-0.12695 0.346202,-0.12694 0.03847,-1e-5 0.09424,0.01 0.167331,0.0289 0.07693,0.0231 0.14425,0.0346 0.201952,0.0346 0.27696,-1e-5 0.492375,-0.15003 0.646244,-0.45007 0.226953,-0.49622 0.376974,-0.84435 0.450064,-1.04437 0.126938,-0.33082 0.07693,-0.75973 -0.150021,-1.28672 l -1.28095,-2.9658 c -0.157715,-0.37698 -0.296196,-0.62893 -0.415443,-0.75588 -0.115401,-0.12694 -0.292349,-0.20195 -0.530844,-0.22503 -0.03077,-0.0385 -0.04616,-0.0846 -0.04616,-0.13848 0,-0.0577 0.01539,-0.10194 0.04616,-0.13271 0.369283,0.0385 0.673171,0.0577 0.911667,0.0577 0.261574,0 0.686633,-0.0192 1.275179,-0.0577 0.08847,0.0962 0.08847,0.18657 0,0.27119 -0.219263,0.0154 -0.367361,0.0673 -0.444293,0.15579 -0.07309,0.0846 -0.100016,0.17888 -0.08078,0.28273 0.01923,0.10387 0.06924,0.25004 0.150022,0.43852 l 1.003987,2.33687 c 0.06154,0.15772 0.111551,0.25773 0.150021,0.30004 0.04231,0.0385 0.0827,0.0385 0.121171,0 0.03846,-0.0423 0.09039,-0.13848 0.155791,-0.2885 l 1.119388,-2.58498 c 0.07693,-0.18079 0.05,-0.32696 -0.08078,-0.43852 -0.126945,-0.11155 -0.292353,-0.17887 -0.496223,-0.20195 -0.03078,-0.0385 -0.04616,-0.0846 -0.04616,-0.13848 -3e-6,-0.0577 0.01538,-0.10194 0.04616,-0.13271 0.407745,0.0385 0.7501,0.0577 1.027067,0.0577 0.219257,0 0.486602,-0.0192 0.802036,-0.0577 0.08847,0.0962 0.08847,0.18657 0,0.27119 -0.188494,0.0154 -0.376981,0.1154 -0.565464,0.30004 -0.188493,0.1808 -0.326974,0.36929 -0.415443,0.56546 -0.473148,1.00015 -1.169399,2.60999 -2.088755,4.82953 -0.150024,0.3462 -0.307738,0.66932 -0.473144,0.96937"
           style="font-size:11.81704520999999986px;font-variant:normal;font-stretch:normal;letter-spacing:0.00253922000000000px;word-spacing:0.00253922000000000px;font-family:Linux Libertine Display;-inkscape-font-specification:Linux Libertine Display;fill:#ffffff;stroke:none;stroke-opacity:1"
           id="path3557"
           inkscape:connector-curvature="0" />
        <path
           d="m 80.553309,115.96931 c 0.07693,-0.0769 0.151944,-0.0808 0.225032,-0.0115 0.12694,0.50392 0.292348,0.85397 0.496223,1.05015 0.203874,0.20387 0.492376,0.30581 0.865507,0.30581 0.226952,0 0.448137,-0.0866 0.663554,-0.25965 0.219259,-0.1731 0.32889,-0.38852 0.328893,-0.64625 -3e-6,-0.24234 -0.08078,-0.44236 -0.242342,-0.60008 -0.161564,-0.16156 -0.475069,-0.34043 -0.940517,-0.53661 -0.442371,-0.18849 -0.759723,-0.38852 -0.952057,-0.60009 -0.192335,-0.21541 -0.288502,-0.51545 -0.288502,-0.90012 0,-0.38467 0.151944,-0.69048 0.455834,-0.91744 0.303887,-0.2308 0.682786,-0.3462 1.136698,-0.3462 0.173099,0 0.350046,0.0135 0.530844,0.0404 0.184638,0.0269 0.371202,0.0635 0.559694,0.10963 0.188484,0.0423 0.313502,0.0673 0.375052,0.075 -0.01539,0.48853 -0.03462,0.86551 -0.0577,1.13093 -0.07694,0.0769 -0.159641,0.0808 -0.248112,0.0115 -0.111557,-0.74241 -0.49815,-1.11169 -1.159778,-1.10785 -0.226957,0 -0.423138,0.0827 -0.588544,0.24811 -0.16541,0.16541 -0.248114,0.36159 -0.248112,0.58854 -2e-6,0.27697 0.09232,0.49046 0.276962,0.64048 0.184639,0.15002 0.482758,0.30389 0.894356,0.4616 0.434674,0.16541 0.763566,0.35967 0.986677,0.58278 0.223105,0.21926 0.334659,0.50584 0.334663,0.85973 -4e-6,0.26158 -0.06347,0.49046 -0.190412,0.68664 -0.126944,0.19618 -0.286582,0.3462 -0.478913,0.45006 -0.192338,0.10001 -0.384672,0.1731 -0.577004,0.21926 -0.192337,0.0462 -0.375055,0.0692 -0.548154,0.0692 -0.361591,0 -0.703947,-0.0423 -1.027068,-0.12694 -0.05385,-0.0154 -0.128865,-0.0231 -0.225031,-0.0231 -0.06924,0 -0.165409,0.0115 -0.288502,0.0346 -10e-7,-0.43467 -0.02308,-0.9309 -0.06924,-1.48867"
           style="font-size:11.81704520999999986px;font-variant:normal;font-stretch:normal;letter-spacing:0.00253922000000000px;word-spacing:0.00253922000000000px;font-family:Linux Libertine Display;-inkscape-font-specification:Linux Libertine Display;fill:#ffffff;stroke:none;stroke-opacity:1"
           id="path3559"
           inkscape:connector-curvature="0" />
      </g>
    </g>
  </g>
</svg>
