<?xml version="1.0" encoding="UTF-8" standalone="no"?>
<!-- Created with Inkscape (http://www.inkscape.org/) -->

<svg
   xmlns:dc="http://purl.org/dc/elements/1.1/"
   xmlns:cc="http://creativecommons.org/ns#"
   xmlns:rdf="http://www.w3.org/1999/02/22-rdf-syntax-ns#"
   xmlns:svg="http://www.w3.org/2000/svg"
   xmlns="http://www.w3.org/2000/svg"
   xmlns:sodipodi="http://sodipodi.sourceforge.net/DTD/sodipodi-0.dtd"
   xmlns:inkscape="http://www.inkscape.org/namespaces/inkscape"
   id="svg2"
   version="1.1"
   inkscape:version="0.48.4 r9939"
   width="708.66125"
   height="425.19625"
   xml:space="preserve"
   sodipodi:docname="1,1 Mo.ai"><metadata
     id="metadata8"><rdf:RDF><cc:Work
         rdf:about=""><dc:format>image/svg+xml</dc:format><dc:type
           rdf:resource="http://purl.org/dc/dcmitype/StillImage" /><dc:title></dc:title></cc:Work></rdf:RDF></metadata><defs
     id="defs6"><clipPath
       clipPathUnits="userSpaceOnUse"
       id="clipPath16"><path
         d="m 0,340.157 566.929,0 L 566.929,0 0,0 0,340.157 z"
         id="path18" /></clipPath></defs><sodipodi:namedview
     pagecolor="#ffffff"
     bordercolor="#666666"
     borderopacity="1"
     objecttolerance="10"
     gridtolerance="10"
     guidetolerance="10"
     inkscape:pageopacity="0"
     inkscape:pageshadow="2"
     inkscape:window-width="640"
     inkscape:window-height="480"
     id="namedview4"
     showgrid="false"
     inkscape:zoom="0.48401122"
     inkscape:cx="354.33063"
     inkscape:cy="212.59813"
     inkscape:window-x="65"
     inkscape:window-y="24"
     inkscape:window-maximized="0"
     inkscape:current-layer="g10" /><g
     id="g10"
     inkscape:groupmode="layer"
     inkscape:label="1,1 Mo"
     transform="matrix(1.25,0,0,-1.25,0,425.19625)"><g
       id="g12"
       style="fill:#000000"><g
         id="g14"
         clip-path="url(#clipPath16)"
         style="fill:#000000"><g
           id="g20"
           transform="translate(46.731,107.7305)"
           style="fill:#000000"><path
             d="m 0,0 c -24.399,0.16 -38.685,18.459 -38.685,45.908 0,27.449 14.286,45.749 38.685,45.749 16.694,0 30.178,-8.829 35.957,-26.166 L 15.089,57.466 C 11.076,66.455 8.186,70.789 0,70.789 c -8.829,0 -13.965,-6.421 -13.965,-24.881 0,-18.459 5.136,-24.881 14.607,-24.881 7.224,0 11.557,4.817 16.694,14.287 L 36.599,24.398 C 27.128,6.742 16.212,0.16 0,0.16 L 0,0 z"
             style="fill:#000000;fill-opacity:1;fill-rule:nonzero;stroke:none"
             id="path22" /></g><g
           id="g24"
           transform="translate(146.314,166.4131)"
           style="fill:#000000"><path
             d="m 0,0 c 0,10.594 -3.049,12.36 -7.865,12.36 -7.224,0 -13.003,-4.013 -16.213,-7.384 l 0,-61.639 -24.72,0 0,88.286 23.115,0 0,-6.903 c 6.581,4.334 14.447,8.508 23.275,8.508 18.46,0 27.128,-12.361 27.128,-30.338 l 0,-59.553 -24.72,0 L 0,0 z"
             style="fill:#000000;fill-opacity:1;fill-rule:nonzero;stroke:none"
             id="path26" /></g><g
           id="g28"
           transform="translate(210.5503,166.5732)"
           style="fill:#000000"><path
             d="M 0,0 26.967,0 C 26.004,8.989 20.867,13.483 13.484,13.483 6.099,13.483 0.963,8.989 0,0 m -24.88,-12.841 c 0,27.448 14.286,45.587 38.684,45.748 23.596,0 36.439,-19.744 36.439,-40.612 l 0,-10.594 -50.243,0 c 0.963,-14.607 7.705,-19.263 14.928,-19.263 8.187,0 11.879,3.532 17.979,10.755 l 18.298,-11.396 c -9.631,-14.769 -21.67,-20.226 -38.364,-20.226 -23.435,0 -37.721,18.459 -37.721,45.588"
             style="fill:#000000;fill-opacity:1;fill-rule:nonzero;stroke:none"
             id="path30" /></g><g
           id="g32"
           transform="translate(298.5732,135.1113)"
           style="fill:#000000"><path
             d="m 0,0 c 0,-4.815 2.89,-7.384 7.063,-7.384 4.975,0 11.717,4.173 16.051,7.544 l 0,13.965 C 15.571,12.681 0,10.113 0,0 m 24.559,-19.744 c -7.223,-4.494 -14.607,-7.223 -24.239,-7.223 -16.533,0 -25.04,12.039 -25.04,24.559 0,20.547 16.695,30.82 47.834,34.833 l 0,4.976 c 0,4.495 -3.531,7.544 -9.792,7.544 -8.185,0 -12.679,-4.334 -17.817,-11.235 l -16.533,12.519 c 6.741,11.559 21.509,18.46 34.35,18.14 23.758,-0.642 34.512,-9.632 34.512,-35.957 l 0,-39.327 c 0,-4.013 0.321,-7.866 2.568,-14.446 l -24.88,0 -0.963,5.617 z"
             style="fill:#000000;fill-opacity:1;fill-rule:nonzero;stroke:none"
             id="path34" /></g><path
           d="m 370.178,197.528 24.719,0 0,-88.286 -24.719,0 0,88.286 z m 0,34.031 24.719,0 0,-23.437 -24.719,0 0,23.437 z"
           style="fill:#000000;fill-opacity:1;fill-rule:nonzero;stroke:none"
           id="path36" /><path
           d="m 558.236,162.755 -87.222,0 0,22.313 87.222,0 0,-22.313 z"
           style="fill:#000000;fill-opacity:1;fill-rule:nonzero;stroke:none"
           id="path38" /><path
           d="m 558.236,122.188 -87.222,0 0,22.312 87.222,0 0,-22.312 z"
           style="fill:#000000;fill-opacity:1;fill-rule:nonzero;stroke:none"
           id="path40" /></g></g></g></svg>