<?xml version="1.0" encoding="UTF-8" standalone="no"?>
<!-- Created with Inkscape (http://www.inkscape.org/) -->

<svg
   xmlns:dc="http://purl.org/dc/elements/1.1/"
   xmlns:cc="http://creativecommons.org/ns#"
   xmlns:rdf="http://www.w3.org/1999/02/22-rdf-syntax-ns#"
   xmlns:svg="http://www.w3.org/2000/svg"
   xmlns="http://www.w3.org/2000/svg"
   xmlns:sodipodi="http://sodipodi.sourceforge.net/DTD/sodipodi-0.dtd"
   xmlns:inkscape="http://www.inkscape.org/namespaces/inkscape"
   width="1052.3622"
   height="744.09448"
   id="svg2"
   version="1.1"
   inkscape:version="0.48.4 r9939"
   sodipodi:docname="about.svg">
  <defs
     id="defs4" />
  <sodipodi:namedview
     id="base"
     pagecolor="#ffffff"
     bordercolor="#666666"
     borderopacity="1.0"
     inkscape:pageopacity="0.0"
     inkscape:pageshadow="2"
     inkscape:zoom="0.7"
     inkscape:cx="558.23058"
     inkscape:cy="369.02331"
     inkscape:document-units="px"
     inkscape:current-layer="layer1"
     showgrid="false"
     inkscape:window-width="1375"
     inkscape:window-height="876"
     inkscape:window-x="65"
     inkscape:window-y="24"
     inkscape:window-maximized="1" />
  <metadata
     id="metadata7">
    <rdf:RDF>
      <cc:Work
         rdf:about="">
        <dc:format>image/svg+xml</dc:format>
        <dc:type
           rdf:resource="http://purl.org/dc/dcmitype/StillImage" />
      </cc:Work>
    </rdf:RDF>
  </metadata>
  <g
     inkscape:label="Calque 1"
     inkscape:groupmode="layer"
     id="layer1"
     transform="translate(0,-308.2677)">
    <flowRoot
       xml:space="preserve"
       id="flowRoot2985"
       style="font-size:40px;font-style:normal;font-weight:normal;line-height:125%;letter-spacing:0px;word-spacing:0px;fill:#000000;fill-opacity:1;stroke:none;font-family:Sans"
       transform="translate(1.0101525,272.43872)"><flowRegion
         id="flowRegion2987"><rect
           id="rect2989"
           width="731.42859"
           height="545.71429"
           x="71.428574"
           y="86.647896" /></flowRegion><flowPara
         id="flowPara2991"
         style="font-size:36px;font-style:normal;font-variant:normal;font-weight:normal;font-stretch:normal;font-family:Courier 10 Pitch;-inkscape-font-specification:Courier 10 Pitch" /><flowPara
         style="font-size:22px;font-style:normal;font-variant:normal;font-weight:bold;font-stretch:normal;font-family:Alfphabetbipocat;-inkscape-font-specification:Alfphabetbipocat Bold"
         id="flowPara2993">MULTIPLE ART DAYS</flowPara><flowPara
         style="font-size:22px;font-style:normal;font-variant:normal;font-weight:bold;font-stretch:normal;font-family:Alfphabetbipocat;-inkscape-font-specification:Alfphabetbipocat Bold"
         id="flowPara2995">LE SALON DES PRATIQUES ÉDITORIALES DANS L’ART CONTEMPORAIN AUJOURD’HUI.</flowPara><flowPara
         style="font-size:22px;font-style:normal;font-variant:normal;font-weight:bold;font-stretch:normal;font-family:Alfphabetbipocat;-inkscape-font-specification:Alfphabetbipocat Bold"
         id="flowPara3017">Les 22, 23 et 24 mai 2015</flowPara><flowPara
         style="font-size:22px;font-style:normal;font-variant:normal;font-weight:bold;font-stretch:normal;font-family:Alfphabetbipocat;-inkscape-font-specification:Alfphabetbipocat Bold"
         id="flowPara3027">La Maison Rouge, 10 Boulevard de la Bastille, 75012 Paris</flowPara><flowPara
         style="font-size:22px;font-style:normal;font-variant:normal;font-weight:bold;font-stretch:normal;font-family:Alfphabetbipocat;-inkscape-font-specification:Alfphabetbipocat Bold"
         id="flowPara3029">11:00 – 19:00 + vendredi en nocturne</flowPara></flowRoot>    <flowRoot
       xml:space="preserve"
       id="flowRoot2997"
       style="font-size:40px;font-style:normal;font-weight:normal;line-height:125%;letter-spacing:0px;word-spacing:0px;fill:#000000;fill-opacity:1;stroke:none;font-family:Sans"
       transform="translate(-1.1607992e-7,383.69627)"><flowRegion
         id="flowRegion2999"><rect
           id="rect3001"
           width="950.00006"
           height="2762.8572"
           x="74.285713"
           y="182.66591" /></flowRegion><flowPara
         style="font-size:36px;font-style:normal;font-variant:normal;font-weight:normal;font-stretch:normal;font-family:Courier 10 Pitch;-inkscape-font-specification:Courier 10 Pitch"
         id="flowPara3009">MAD est le nouveau salon dédié à toute forme d'objets d'art multipliés. Ce grand rendez-vous annuel fait acte et offre pendant 3 jours un panorama des pratiques éditoriales d'aujourd'hui, de l’édition fanzine aux œuvres rares: prints, multiples, livres, films et disques d’artistes...Investissant l’ensemble des espaces d’un des lieux emblématiques parisien de la création contemporaine, la Maison Rouge / fondation Antoine de Galbert, qui explore la diversité des champs de la recherche artistiques actuelle par le biais de grandes collections privées internationales,  MAD réunira plus de 100 éditeurs internationaux (galeries, éditeurs, artistes, institutions) au sein d’un vaste espace. Bien plus qu’un salon, MAD est une exposition des projets de chacun des participants. Rompant avec l’esthétique du « stand » et des foires, l’espace sera ouvert à la circulation fluide des visiteurs et mettra en valeur les displays. Encourageant les présentations « curatoriales » des exposants et le dialogue avec le public, l’espace de la Maison Rouge est scénographié pour l’occasion par l’artiste Stéphane Magnin d’après sa bibliothèque Do It Yourself. Les exposants pourront choisir parmi une ligne de meubles « open source » réalisés par l’artiste en cartons et en bois (tables, chaises, canapés, bibliothèques, … ). Ces journées seront accompagnées d’une série de rencontres, performances artistiques et débats sur la pratique éditoriale dans l’art contemporain avec les artistes, graphistes, responsables de collections publiques, éditeurs, collectionneurs, chercheurs et libraires venus du monde entier.</flowPara><flowPara
         style="font-size:36px;font-style:normal;font-variant:normal;font-weight:normal;font-stretch:normal;font-family:Courier 10 Pitch;-inkscape-font-specification:Courier 10 Pitch"
         id="flowPara3011" /><flowPara
         style="font-size:22px;font-style:normal;font-variant:normal;font-weight:bold;font-stretch:normal;font-family:Alfphabetbipocat;-inkscape-font-specification:Alfphabetbipocat Bold"
         id="flowPara3031">En partenariat avec le CNEAI = (Centre National Edition Art Image) (link www.cneai.com) et la Maison Rouge / Fondation Antoine de Galbert (link www.lamaisonrouge.org)</flowPara><flowPara
         style="font-size:36px;font-style:normal;font-variant:normal;font-weight:normal;font-stretch:normal;font-family:Courier 10 Pitch;-inkscape-font-specification:Courier 10 Pitch"
         id="flowPara3013" /></flowRoot>    <flowRoot
       xml:space="preserve"
       id="flowRoot3019"
       style="font-size:40px;font-style:normal;font-weight:normal;line-height:125%;letter-spacing:0px;word-spacing:0px;fill:#000000;fill-opacity:1;stroke:none;font-family:Sans"
       transform="translate(27.142857,303.98199)"><flowRegion
         id="flowRegion3021"><rect
           id="rect3023"
           width="115.71429"
           height="51.42857"
           x="921.42859"
           y="65.523056" /></flowRegion><flowPara
         id="flowPara3025"
         style="font-size:22px;font-style:normal;font-variant:normal;font-weight:bold;font-stretch:normal;font-family:Alfphabetbipocat;-inkscape-font-specification:Alfphabetbipocat Bold">en x fr</flowPara></flowRoot>    <flowRoot
       xml:space="preserve"
       id="flowRoot3033"
       style="font-size:20px;font-style:normal;font-weight:normal;line-height:125%;letter-spacing:0px;word-spacing:0px;fill:#000000;fill-opacity:1;stroke:none;font-family:Sans"
       transform="translate(4,326.2677)"><flowRegion
         id="flowRegion3035"><rect
           id="rect3037"
           width="617.14288"
           height="41.42857"
           x="70"
           y="5.5230536"
           style="font-size:20px" /></flowRegion><flowPara
         id="flowPara3039">cneai =</flowPara></flowRoot>    <g
       id="g3062"
       transform="matrix(0.14750297,0,0,0.14750297,-111.80647,276.45293)"
       style="stroke-width:23.72833633;stroke-miterlimit:4;stroke-dasharray:none">
      <path
         id="path4"
         d="m 1260.4339,591.81101 c 4.1482,0.17803 8.3229,0.0422 12.4735,0.22384 2.6546,0.11615 5.3003,0.26711 7.8622,1.06322 2.4718,0.76822 4.7343,2.11446 6.7282,3.74877 0.6596,0.54075 1.6111,1.18069 2.0518,1.91915 0.4156,0.69622 0.4045,1.92528 0.5373,2.7215 l 1.0335,6.19898 0.4407,2.64592 c 0.055,0.32756 0.042,0.88151 0.2464,1.1526 0.2873,0.37897 1.0228,0.61259 1.4356,0.83628 1.165,0.63169 2.3201,1.28583 3.4775,1.93157 0.4831,0.26956 1.1982,0.52238 1.5127,0.99663 0.601,0.90788 0.9102,2.1617 1.3146,3.17183 0.8475,2.11858 1.7078,4.23161 2.5552,6.35014 2.6331,6.58204 5.2866,13.15622 7.9377,19.73094 8.3483,20.70232 16.6716,41.41525 24.9623,62.141 5.0628,12.65653 10.1784,25.29263 15.2404,37.9499 1.196,2.99061 2.4229,5.96384 3.693,8.92048 0.3817,0.88976 1.1468,2.63457 2.3548,2.60732 0.3546,-0.008 0.7583,-0.33488 1.0584,-0.50122 0.725,-0.40142 1.4583,-0.79449 2.1923,-1.17931 2.206,-1.15736 4.3642,-2.40852 6.577,-3.55307 1.1733,-0.60704 2.624,-1.14454 3.3603,-2.28756 1.115,-1.73042 1.8385,-3.7829 2.6436,-5.66978 l 3.9311,-9.2229 c 4.2471,-9.95237 8.4654,-19.91765 12.7328,-29.86094 8.4594,-19.70977 16.8114,-39.4656 25.2292,-59.19276 2.5166,-5.89731 5.0786,-11.77723 7.5597,-17.68976 0.8051,-1.91993 1.6359,-3.8293 2.4509,-5.74541 0.3764,-0.88514 0.6705,-2.10394 1.2586,-2.86484 0.6509,-0.84208 2.2748,-1.34403 3.2016,-1.84553 2.4425,-1.32124 4.8662,-2.68757 7.3329,-3.96372 0.8127,-0.42043 1.6239,-0.85313 2.4191,-1.30474 0.2677,-0.1519 0.7092,-0.27693 0.908,-0.51521 0.1814,-0.21751 0.1875,-0.65178 0.2321,-0.92115 0.1179,-0.70599 0.2358,-1.41405 0.3719,-2.11671 0.5382,-2.7819 0.8346,-5.63761 1.5021,-8.39133 0.2245,-0.92605 0.3342,-2.70303 1.1476,-3.29912 3.643,-2.66915 8.7027,-3.92379 13.1501,-4.03267 3.7247,-0.0912 7.6808,0.45137 11.3396,-0.30354 m -27.6686,19.12615 c 0.4279,0.80245 0.1512,2.27254 0.1512,3.17507 l 0,7.48413 0,27.29065 c 0,29.65158 0.076,59.31976 0.076,88.97807 l 0,24.79594 c 0,2.29365 0.075,4.59178 0.076,6.87934 0,0.70384 0.3167,1.93609 0,2.57034 -0.2298,0.45736 -0.8172,0.80589 -1.2072,1.11886 -1.0168,0.81492 -2.0729,1.56482 -3.1752,2.25884 -3.6755,2.31629 -7.7539,3.68689 -12.0955,3.8766 -2.1802,0.0953 -4.3982,0.0522 -6.577,0.0786 -1.2632,0.0142 -2.5741,-0.14737 -3.7798,0.30242 m -120.9558,-168.05294 -5.7454,5.74541 c -0.6716,0.67162 -2.0431,1.59851 -2.3735,2.49471 -0.2863,0.77657 -0.046,2.04566 -0.046,2.87271 l 0,6.42577 0,21.92323 0,87.46614 c 0,9.44134 0.4245,19.01271 -0.2201,28.42458 -0.1566,2.28836 -0.1506,4.59105 -0.3378,6.8794 -0.048,0.58209 0.1236,1.93378 -0.2437,2.38962 -0.2878,0.35756 -0.9795,0.53372 -1.3907,0.70987 -1.2328,0.52842 -2.4909,0.98956 -3.7799,1.36073 -3.5361,1.01907 -7.0726,1.28514 -10.7348,1.28514 -2.4158,0 -5.2333,-0.36135 -7.5598,0.378 m 96.9914,-23.66196 -0.1512,23.20838 m 83.5351,-7.33292 c 1.3192,0.82175 2.5219,1.82112 3.8555,2.63079 3.2552,1.97612 6.7992,3.44346 10.5836,4.00134 3.2945,0.48535 6.6548,0.474 9.9788,0.474 2.1055,0 4.3159,-0.19275 6.3502,0.45358 m -187.4814,-3.40186 c 3.7509,1.99649 7.3897,2.9861 11.642,3.17208 2.5174,0.11034 5.0461,-0.10058 7.5598,0.0718 1.2896,0.0884 2.4909,0.14213 3.7042,0.67811 0.7174,0.31602 1.4258,0.95783 2.0411,1.44543"
         style="fill:none;stroke:#000000;stroke-width:23.72833633;stroke-miterlimit:4;stroke-dasharray:none"
         inkscape:connector-curvature="0" />
      <path
         id="path4-8"
         d="m 1574.5279,581.53546 c -0.044,5.79446 -0.1601,11.58462 -0.1601,17.38069 0,1.5455 -0.021,3.09943 -0.064,4.64549 -0.023,0.79989 -0.1955,1.86418 0.01,2.63998 0.1114,0.42336 0.6745,0.61678 1.0157,0.82025 0.8778,0.52284 2.4861,1.07686 2.8858,2.06638 0.7209,1.78168 1.2638,3.64136 1.9239,5.44642 2.4861,6.79732 4.8746,13.62741 7.3607,20.4243 7.879,21.54237 15.2813,43.28744 22.8039,64.95716 0.6392,1.84305 1.2711,3.68918 1.9247,5.52661 0.3988,1.1213 0.9283,2.26345 1.1125,3.44408 0.3725,2.39966 0.6752,4.81209 1.0684,7.20859 0.1443,0.87705 0.084,2.13371 0.455,2.93704 0.3364,0.7289 1.8878,1.11336 2.507,1.61156 0.5807,0.46696 0.7521,1.57949 0.9939,2.25946 2.471,6.94425 4.7937,13.94138 7.211,20.90487 1.356,3.90465 3.0309,7.81246 3.9367,11.85408 0.8466,3.77968 1.1558,7.70996 1.7702,11.53365 0.1585,0.98601 0.3059,1.97441 0.4437,2.96358 0.051,0.36038 0.03,0.94592 0.2779,1.23265 0.4437,0.51343 1.368,0.85781 1.9543,1.19263 1.4169,0.80817 2.8337,1.62435 4.3251,2.28908 6.0512,2.69685 12.2033,4.27633 18.8224,4.72967 2.1337,0.14653 4.2755,0.17461 6.4076,0.32036 1.0541,0.0721 2.0465,-0.0337 3.0436,0.4077 m -51.7414,-61.19272 -3.8446,3.84455 c -0.4678,0.46773 -1.0516,1.32077 -1.682,1.55386 -0.4742,0.17461 -1.1806,0.0477 -1.682,0.0477 l -3.6844,0 -12.4948,0 -45.1737,0 -9.8517,0 c -2.1946,0 -4.4717,0.0921 -6.6479,-0.19377 -1.2439,-0.16345 -2.4662,-0.27073 -3.6844,-0.58955 -0.4518,-0.11774 -1.1462,-0.35637 -1.352,-0.82017 -0.2243,-0.50382 0.1458,-1.47052 0.2203,-2.00073 0.2555,-1.81897 0.5758,-3.63077 0.8578,-5.4465 0.3348,-2.15941 0.499,-4.45488 1.0556,-6.5678 0.5391,-2.04806 1.4017,-4.02801 2.1482,-6.00712 1.2879,-3.41529 2.5654,-6.83374 3.8446,-10.2522 6.6495,-17.78193 13.4568,-35.51183 19.9733,-53.3434 2.2034,-6.03035 4.4437,-12.05263 6.5966,-18.10152 0.676,-1.89998 1.3585,-3.80081 2.0729,-5.68675 0.2659,-0.70188 0.4373,-1.72166 0.9179,-2.30572 0.2755,-0.33497 0.7793,-0.52516 1.1493,-0.73789 0.8531,-0.49027 1.7077,-0.97787 2.5631,-1.4642 2.696,-1.53266 5.3463,-3.17806 8.0896,-4.62303 m -40.8485,173.64632 c -6.6255,-0.52383 -13.3231,-0.0456 -19.9437,-0.70721 -3.155,-0.31559 -6.6752,-0.72406 -8.7953,-3.37767 -0.5022,-0.62794 0.302,-2.61267 0.475,-3.36397 0.7104,-3.09247 0.9251,-6.28423 1.6323,-9.37115 0.7433,-3.24224 2.1001,-6.33471 3.2399,-9.4512 2.2226,-6.0776 4.5478,-12.11842 6.8081,-18.18163 1.75,-4.69519 3.2502,-9.75877 7.7732,-12.57491 m 107.3275,48.29737 c -2.3067,2.30678 -4.3916,4.8121 -7.3687,6.24906 -2.4037,1.15977 -5.3159,1.46328 -7.9294,1.7741 -6.2235,0.74007 -12.5053,0.21462 -18.7423,0.70721 M 1478.174,780.011 c 1.2667,-0.16015 2.4293,0.0365 3.6844,0 2.236,-0.0713 4.5009,-0.19546 6.728,-0.41093 3.5607,-0.34437 7.1316,-0.93707 10.5726,-1.94225 1.7476,-0.51105 3.4064,-1.22711 5.126,-1.80857"
         style="fill:none;stroke:#000000;stroke-width:23.72833633;stroke-miterlimit:4;stroke-dasharray:none"
         inkscape:connector-curvature="0" />
      <path
         id="path4-0"
         d="m 1674.6729,581.44846 c 0.8061,0.39455 1.8491,0.32069 2.7264,0.32069 1.6984,0 3.4377,-0.10882 5.1321,0.009 7.9001,0.5409 16.0818,-0.021 23.1744,4.2429 1.4884,0.895 2.7842,1.98239 4.0094,3.20751 0.4259,0.42567 0.9928,0.85244 1.3151,1.36323 0.4098,0.6499 0.1283,2.13074 0.1283,2.88681 l 0,7.2971 0,27.34433 0,102.32054 0,29.91035 0,8.01885 c 0,0.80833 0.3088,2.4345 -0.1283,3.12742 -0.3969,0.62785 -1.1106,1.16106 -1.6358,1.68393 -2.0496,2.03995 -4.5403,3.58357 -7.217,4.6509 -8.7389,3.48501 -18.1306,2.08572 -27.264,2.80664 m 36.2451,-190.04687 c 2.5942,-2.59375 5.1474,-4.75186 8.5802,-6.13825 2.275,-0.91843 4.8851,-1.09561 7.2972,-1.33293 4.7487,-0.46713 9.4991,-0.33086 14.2735,-0.3876 8.9932,-0.10681 18.036,-0.15623 26.8632,1.81773 14.7731,3.30388 28.0203,12.64908 36.5187,25.12591 7.1095,10.43871 11.8896,22.36375 14.7619,34.64143 1.3889,5.93799 2.2437,11.8607 3.1113,17.88207 0.5236,3.63336 0.7739,7.3252 1.0256,10.98583 0.1981,2.87556 0.5164,5.77756 0.5525,8.66034 0.061,4.80174 -0.6078,9.74378 -1.1074,14.51413 -2.6101,24.90982 -11.8142,50.14116 -31.6881,66.42982 -10.37,8.49999 -22.8995,14.05944 -36.2452,15.65999 -5.7006,0.68404 -11.5015,0.66482 -17.2405,0.66482 -6.7664,0 -14.2263,0.3552 -20.4481,-2.75611 -2.4225,-1.21167 -4.3558,-2.96296 -6.2548,-4.86178"
         style="fill:none;stroke:#000000;stroke-width:23.72833633;stroke-miterlimit:4;stroke-dasharray:none"
         inkscape:connector-curvature="0" />
    </g>
    <path
       inkscape:connector-curvature="0"
       style="fill:none;stroke:#000000;stroke-width:1;stroke-miterlimit:4;stroke-dasharray:none"
       d="m 299.82762,294.06146 0,17.89729 m -8.14937,-13.64934 c 0.34721,0.23404 0.72999,0.42566 1.09554,0.62947 0.55447,0.30913 1.10311,0.63057 1.65445,0.94533 l 2.19106,1.25203 c 0.38991,0.22244 0.7738,0.49648 1.18495,0.67741 0.28685,0.1262 0.63998,0.11312 0.93903,0.20646 0.10116,0.0315 0.18433,0.15148 0.2571,0.22425 l 0.5254,0.52541 c 0.076,0.076 0.19373,0.25375 0.31258,0.24526 0.0975,-0.007 0.21396,-0.17931 0.27991,-0.24526 l 0.5254,-0.52541 c 0.0705,-0.0705 0.15047,-0.18501 0.24594,-0.22067 0.30383,-0.11347 0.66267,-0.0857 0.96137,-0.21395 0.26383,-0.11321 0.51021,-0.2914 0.76016,-0.43259 0.54196,-0.3062 1.08054,-0.61864 1.62094,-0.92781 1.24767,-0.7137 2.50673,-1.40978 3.74491,-2.13993 m -8.21643,4.70629 -0.67075,0.67073 c -0.0955,0.0955 -0.20278,0.24895 -0.32419,0.30954 -0.10529,0.0524 -0.25409,0.0597 -0.36889,0.0841 -0.28528,0.0607 -0.55001,0.10251 -0.80487,0.2484 -1.23796,0.70817 -2.46572,1.43703 -3.71137,2.13191 -0.4684,0.26125 -0.93165,0.53211 -1.39735,0.7985 -0.26942,0.15416 -0.56487,0.29177 -0.81606,0.47432 m 8.21643,-4.71746 0.67073,0.67073 c 0.0955,0.0955 0.20278,0.24895 0.32418,0.30954 0.0922,0.046 0.22347,0.0547 0.32418,0.075 0.27289,0.055 0.56287,0.0883 0.80489,0.2304 1.41556,0.83147 2.85753,1.61824 4.27031,2.45419 0.3803,0.22503 0.76809,0.43989 1.15142,0.65977 0.18277,0.10486 0.37672,0.1934 0.54777,0.31782"
       id="path4-7" />
    <path
       inkscape:connector-curvature="0"
       style="fill:none;stroke:#000000;stroke-width:1.2;stroke-miterlimit:4;stroke-dasharray:none"
       d="m 184.3299,374.21189 c 0.19163,0.0454 0.37899,0.0384 0.57585,0.0384 0.28878,0 0.58815,-0.007 0.87532,0.0244 0.16017,0.0174 0.34144,0.0513 0.46836,0.15578 0.0687,0.0565 0.12907,0.12552 0.19196,0.18839 0.0242,0.0242 0.0557,0.0697 0.0921,0.074 0.0885,0.0103 0.22882,-0.0669 0.3148,-0.0916 0.23557,-0.0677 0.47274,-0.1276 0.71407,-0.1711 0.46407,-0.0837 0.93567,-0.13167 1.40511,-0.16382 0.20853,-0.0142 0.41691,0.008 0.62193,-0.0391 m -18.07436,-0.008 c 0.88928,0.0383 1.73703,0.23734 2.58753,0.49355 0.22513,0.0678 0.44726,0.14706 0.66801,0.22779 0.0898,0.0328 0.22113,0.0567 0.29775,0.11438 0.0552,0.0416 0.0699,0.18974 0.0871,0.25458 0.0591,0.22391 0.10727,0.45576 0.17967,0.67567 0.0636,0.19347 0.18404,0.36891 0.29484,0.53748 0.16869,0.25672 0.34851,0.50539 0.52019,0.76012 0.78379,1.16277 1.59445,2.3083 2.39021,3.46285 0.23073,0.3347 0.46584,0.6677 0.69126,1.00584 0.20801,0.31204 0.41293,0.64074 0.66255,0.92138 0.0742,0.0835 0.19426,0.1204 0.28187,0.18942 0.14166,0.11164 0.26404,0.25891 0.39158,0.38644 0.29031,-0.29031 0.61716,-0.56818 0.88053,-0.88299 0.17253,-0.20623 0.29308,-0.4646 0.45102,-0.68335 0.4451,-0.61633 0.90387,-1.22313 1.35488,-1.83507 0.60044,-0.81466 1.20394,-1.62703 1.80436,-2.44166 0.35674,-0.48395 0.76636,-0.9586 1.05191,-1.48956 0.20355,-0.37843 0.24264,-0.81544 0.41554,-1.20547 m -11.44811,0.34552 0.46069,-0.46069 c 0.0776,-0.0776 0.15417,-0.17793 0.25338,-0.22825 0.17967,-0.0912 0.41024,-0.0936 0.60657,-0.10221 0.25491,-0.0112 0.51274,-0.0119 0.76781,-0.0151 0.14512,-10e-4 0.29362,0.0105 0.43766,-0.008 m 2.96376,9.00646 0,0.42231 c 0,0.0504 -0.0151,0.13068 0.008,0.17659 0.0262,0.0523 0.0892,0.0971 0.1303,0.13821 0.0818,0.0818 0.15986,0.17038 0.25338,0.23887 0.0718,0.0527 0.16055,0.0865 0.22359,0.15018 0.27011,0.27303 0.46375,0.63805 0.69103,0.94695 1.19863,1.62899 2.37455,3.27641 3.55083,4.92169 0.32663,0.45692 0.63776,0.91392 0.85389,1.43581 0.067,0.16163 0.13045,0.32947 0.17337,0.49908 0.0141,0.0557 0.0259,0.18028 0.075,0.21445 0.0678,0.047 0.16809,0.0697 0.24464,0.10036 0.18804,0.0752 0.37746,0.14472 0.56818,0.2126 0.53908,0.19187 1.1068,0.34928 1.67383,0.43105 0.24985,0.036 0.50077,0.0591 0.75247,0.0701 0.1018,0.004 0.20561,-0.008 0.30712,0.001 0.0997,0.01 0.19341,0.0393 0.29177,0.0524 m -9.79731,-9.41341 -0.72176,0.72175 c -0.0678,0.0678 -0.1551,0.12246 -0.21797,0.19264 -0.16455,0.18382 -0.30245,0.40694 -0.4491,0.60588 -0.31073,0.42153 -0.6184,0.84537 -0.92906,1.26689 -0.94541,1.28264 -1.88199,2.5718 -2.8274,3.85444 -0.26451,0.35887 -0.60619,0.74078 -0.73832,1.17475 -0.0782,0.25684 -0.15602,0.51298 -0.24102,0.76782 -0.0243,0.0728 -0.049,0.23847 -0.11172,0.28532 -0.0514,0.0384 -0.14458,0.0491 -0.20562,0.0681 -0.15295,0.0475 -0.30644,0.0907 -0.46069,0.13353 -0.55015,0.15294 -1.12236,0.23325 -1.68919,0.28723 -0.25476,0.0243 -0.527,-0.0148 -0.77549,0.0551 m 3.14036,-0.54515 c 0.11709,0.1171 0.22773,0.24962 0.37623,0.32771 0.51182,0.26919 1.14512,0.14719 1.69687,0.20209"
       id="path4-6" />
    <path
       inkscape:connector-curvature="0"
       style="fill:none;stroke:#000000;stroke-width:1.2;stroke-miterlimit:4;stroke-dasharray:none"
       d="m 195.54141,364.13604 c 0.7559,-0.19553 1.54136,-0.31295 2.30707,-0.46614 0.83196,-0.16644 1.66842,-0.37861 2.50819,-0.49894 0.57973,-0.0831 1.17873,-0.1171 1.76283,-0.15992 0.51726,-0.0379 1.0325,-0.10405 1.54988,-0.14198 0.12635,-0.009 0.25223,-0.0262 0.37859,-0.0355 0.0563,-0.004 0.10435,-0.0204 0.1538,0.0166 0.0561,0.0419 0.14565,0.11869 0.17037,0.18554 0.0392,0.10644 0.007,0.27724 0.007,0.39043 l 0,0.8755 0,4.18819 0,17.23791 0,5.34766 0,1.34874 c 0,0.13748 -0.0492,0.3903 0.0481,0.4969 0.0829,0.0909 0.21414,0.2694 0.33055,0.31234 0.14872,0.0548 0.39741,0.007 0.55607,0.007 l 1.27776,0 5.76174,0 m -7.97415,-0.36677 c -0.10234,0.10234 -0.24207,0.30927 -0.3786,0.35966 -0.15167,0.0559 -0.40604,0.007 -0.56789,0.007 l -1.32509,0 -5.70258,0"
       id="path4-1" />
  </g>
</svg>
