<?xml version="1.0" encoding="UTF-8" standalone="no"?>
<!-- Created with Inkscape (http://www.inkscape.org/) -->

<svg
   xmlns:dc="http://purl.org/dc/elements/1.1/"
   xmlns:cc="http://creativecommons.org/ns#"
   xmlns:rdf="http://www.w3.org/1999/02/22-rdf-syntax-ns#"
   xmlns:svg="http://www.w3.org/2000/svg"
   xmlns="http://www.w3.org/2000/svg"
   version="1.1"
   width="399.44006"
   height="145.1875"
   id="svg3161">
  <defs
     id="defs3163" />
  <metadata
     id="metadata3166">
    <rdf:RDF>
      <cc:Work
         rdf:about="">
        <dc:format>image/svg+xml</dc:format>
        <dc:type
           rdf:resource="http://purl.org/dc/dcmitype/StillImage" />
        <dc:title></dc:title>
      </cc:Work>
    </rdf:RDF>
  </metadata>
  <g
     transform="translate(-311.6875,-386.53125)"
     id="layer1">
    <path
       d="m 322.93407,398.32713 c 2.65735,0.11412 5.33166,0.0244 7.99054,0.14344 1.70057,0.0743 3.39541,0.17101 5.03658,0.68107 1.58341,0.49212 3.0328,1.35453 4.3101,2.40149 0.42257,0.34656 1.03206,0.75632 1.31436,1.22939 0.26629,0.44598 0.25931,1.23332 0.34447,1.74342 l 0.66205,3.97109 0.28234,1.69498 c 0.0349,0.20975 0.0244,0.56468 0.15774,0.73834 0.18428,0.2429 0.65518,0.39262 0.91965,0.53571 0.74633,0.40477 1.48628,0.82375 2.22773,1.23741 0.30956,0.17276 0.76752,0.33434 0.969,0.63843 0.38522,0.5816 0.58307,1.38479 0.84213,2.03187 0.54294,1.35715 1.09408,2.71078 1.63687,4.06793 1.68679,4.21647 3.38662,8.4279 5.08492,12.63966 5.34795,13.26203 10.67992,26.53079 15.99095,39.80775 3.24325,8.10777 6.52028,16.20249 9.76304,24.31081 0.76615,1.91576 1.55214,3.82042 2.36572,5.71448 0.24465,0.56998 0.73468,1.68768 1.50851,1.67023 0.2272,-0.003 0.48578,-0.21463 0.678,-0.32107 0.46445,-0.25722 0.9342,-0.50898 1.40441,-0.75548 1.41317,-0.74138 2.79569,-1.54289 4.21326,-2.2761 0.7516,-0.38872 1.68091,-0.73318 2.15259,-1.46541 0.71429,-1.1085 1.17773,-2.42335 1.69351,-3.63207 l 2.51827,-5.9082 c 2.72073,-6.37555 5.42296,-12.75937 8.15667,-19.12902 5.41911,-12.62615 10.76944,-25.28179 16.16193,-37.91907 1.61209,-3.77781 3.25333,-7.54452 4.8427,-11.3321 0.51579,-1.22991 1.04798,-2.45308 1.57008,-3.68055 0.24116,-0.56701 0.42951,-1.34772 0.80626,-1.83521 0.41695,-0.53944 1.45728,-0.86098 2.05096,-1.18223 1.56467,-0.84639 3.11729,-1.72172 4.69749,-2.53918 0.5206,-0.26942 1.0403,-0.54653 1.54966,-0.83581 0.17171,-0.0974 0.45433,-0.1773 0.58164,-0.33016 0.11657,-0.13925 0.12041,-0.41736 0.14867,-0.59008 0.0757,-0.45231 0.15112,-0.90587 0.23837,-1.35597 0.34481,-1.78209 0.53463,-3.61151 0.96226,-5.37552 0.14379,-0.59323 0.21429,-1.73156 0.73513,-2.11344 2.33372,-1.70988 5.57501,-2.51359 8.424,-2.58332 2.38607,-0.0583 4.92032,0.28932 7.2642,-0.19439 m -17.72461,12.25223 c 0.27397,0.51404 0.097,1.45581 0.097,2.03397 l 0,4.79433 0,17.48251 c 0,18.99486 0.0485,38.00039 0.0485,56.99961 l 0,15.8843 c 0,1.46933 0.0482,2.94151 0.0485,4.40692 0,0.45091 0.20276,1.24027 0,1.64661 -0.14728,0.29316 -0.5235,0.51624 -0.77335,0.7167 -0.65137,0.52207 -1.32791,1.00247 -2.03404,1.44706 -2.35448,1.4838 -4.96716,2.36181 -7.7484,2.48337 -1.39666,0.0607 -2.8175,0.0349 -4.21325,0.0506 -0.80919,0.007 -1.64895,-0.0942 -2.42132,0.1937 m -77.4846,-107.65523 -3.6805,3.68054 c -0.43039,0.43038 -1.30885,1.024 -1.52049,1.5981 -0.18322,0.4975 -0.0314,1.31045 -0.0314,1.8403 l 0,4.11634 0,14.0441 0,56.03104 c 0,6.04815 0.27187,12.17961 -0.14099,18.20884 -0.10051,1.46594 -0.0963,2.94109 -0.21638,4.40699 -0.0314,0.37308 0.0789,1.23877 -0.156,1.53077 -0.18463,0.22895 -0.62747,0.34167 -0.89093,0.45479 -0.78971,0.33817 -1.59562,0.63388 -2.42135,0.87165 -2.26529,0.65284 -4.53074,0.82326 -6.87678,0.82326 -1.54757,0 -3.35245,-0.23139 -4.84282,0.2422 m 62.13297,-15.15789 -0.097,14.86735 m 53.51277,-4.69749 c 0.84514,0.52643 1.61555,1.16664 2.46987,1.68528 2.0853,1.26593 4.35557,2.20588 6.77989,2.56329 2.11047,0.31096 4.26306,0.30363 6.39241,0.30363 1.34881,0 2.7648,-0.12319 4.068,0.29072 M 337.3654,516.49149 c 2.40282,1.27897 4.73385,1.91289 7.4579,2.03201 1.61265,0.0708 3.23256,-0.0642 4.84284,0.0461 0.82612,0.0565 1.59566,0.0911 2.37292,0.4344 0.45959,0.20242 0.91336,0.61358 1.30756,0.92593"
       id="path4-2-5-0-4-1-4-9-4-7-3-6"
       style="fill:none;stroke:#000000;stroke-width:3.4899888;stroke-miterlimit:4;stroke-dasharray:none" />
    <path
       d="m 533.27305,398.18299 c -0.0244,3.55002 -0.0981,7.09738 -0.0981,10.64841 0,0.94687 -0.014,1.8989 -0.0373,2.84609 -0.014,0.4901 -0.11971,1.1421 0.003,1.61743 0.068,0.25931 0.41328,0.378 0.6223,0.50256 0.53777,0.32038 1.5231,0.65975 1.76799,1.26596 0.44166,1.09156 0.77425,2.23094 1.17871,3.33681 1.52314,4.16443 2.98645,8.34896 4.50959,12.51311 4.82714,13.19816 9.36221,26.5205 13.97102,39.79666 0.39168,1.12915 0.77875,2.26019 1.17919,3.38592 0.2443,0.68697 0.56873,1.38671 0.6816,2.11005 0.2279,1.47019 0.41367,2.9482 0.65455,4.4164 0.0883,0.53736 0.0516,1.30725 0.27885,1.79941 0.20591,0.44654 1.15658,0.68211 1.53594,0.98735 0.35595,0.28618 0.46078,0.9677 0.6089,1.38427 1.51389,4.25443 2.93693,8.54129 4.41794,12.80756 0.83072,2.39221 1.85685,4.78638 2.41183,7.26253 0.51868,2.31564 0.70812,4.72356 1.08451,7.06621 0.097,0.60408 0.18741,1.20963 0.27152,1.81563 0.0349,0.22092 0.0175,0.57952 0.17031,0.7552 0.27153,0.31445 0.83813,0.52556 1.19735,0.73067 0.86803,0.49516 1.7361,0.9952 2.64977,1.40245 3.70735,1.65223 7.47647,2.61993 11.53173,2.8977 1.30725,0.0897 2.61945,0.10679 3.92568,0.19614 0.64579,0.044 1.25385,-0.0209 1.8647,0.24953 m -31.69985,-37.49033 -2.35546,2.35539 c -0.28653,0.28653 -0.64425,0.80919 -1.03049,0.952 -0.29037,0.10714 -0.7233,0.0279 -1.03045,0.0279 l -2.25733,0 -7.65501,0 -27.6761,0 -6.03573,0 c -1.34455,0 -2.73964,0.0565 -4.07288,-0.11866 -0.76211,-0.10016 -1.51099,-0.16577 -2.25729,-0.36135 -0.27711,-0.0722 -0.70222,-0.21847 -0.82835,-0.50245 -0.13751,-0.30852 0.0893,-0.90095 0.13506,-1.22579 0.1567,-1.11439 0.35263,-2.22445 0.52556,-3.33685 0.20521,-1.32299 0.30572,-2.72931 0.64669,-4.02382 0.33015,-1.25476 0.85875,-2.46777 1.31615,-3.68033 0.78901,-2.09236 1.57168,-4.18677 2.35543,-6.28111 4.07386,-10.89424 8.2444,-21.75666 12.23684,-32.68134 1.34989,-3.69453 2.72247,-7.38415 4.04141,-11.09007 0.41412,-1.16401 0.83236,-2.32859 1.27,-3.48402 0.16264,-0.43003 0.26803,-1.05478 0.56238,-1.41264 0.16857,-0.20521 0.47743,-0.32178 0.7041,-0.45206 0.5227,-0.30014 1.04627,-0.59909 1.57033,-0.89706 1.6517,-0.93899 3.27545,-1.94707 4.95616,-2.83234 m -25.02622,106.3861 c -4.05917,-0.32108 -8.16252,-0.0279 -12.21866,-0.43325 -1.93296,-0.19299 -4.08967,-0.44361 -5.38854,-2.06939 -0.30782,-0.38459 0.18532,-1.60068 0.29106,-2.06097 0.4352,-1.89458 0.56674,-3.85009 1.00006,-5.74132 0.45537,-1.98639 1.28662,-3.881 1.98493,-5.79034 1.36169,-3.72351 2.78627,-7.42446 4.17106,-11.13914 1.07216,-2.87659 1.99125,-5.9788 4.76234,-7.70415 m 65.75515,29.58984 c -1.4132,1.41323 -2.69053,2.9482 -4.51447,3.82852 -1.47271,0.71056 -3.25686,0.8965 -4.85803,1.08695 -3.81292,0.45342 -7.6615,0.13157 -11.48266,0.43325 m -73.31217,-0.0489 c 0.77607,-0.0981 1.48834,0.0209 2.25729,0 1.36993,-0.0436 2.75751,-0.11971 4.12196,-0.25163 2.18148,-0.21114 4.36922,-0.5741 6.47742,-1.18991 1.07069,-0.31305 2.08697,-0.75181 3.1405,-1.10804"
       id="path4-8-7-3-3-9-9-9-9-8-1-6-5"
       style="fill:none;stroke:#000000;stroke-width:3.4899888;stroke-miterlimit:4;stroke-dasharray:none" />
    <path
       d="m 607.98691,398.18023 c 0.49289,0.24116 1.13068,0.19614 1.66709,0.19614 1.03855,0 2.10209,-0.0667 3.13817,0.003 4.83066,0.33085 9.8336,-0.014 14.17054,2.59442 0.91008,0.5473 1.70245,1.21218 2.45165,1.96131 0.26035,0.26035 0.60704,0.52126 0.80412,0.83362 0.25024,0.39754 0.0782,1.30288 0.0782,1.76516 l 0,4.46202 0,16.7203 0,62.56625 0,18.28939 0,4.90326 c 0,0.49429 0.18846,1.48866 -0.0782,1.91234 -0.24255,0.38386 -0.67911,0.70993 -1.00026,1.02969 -1.25326,1.24739 -2.77629,2.19129 -4.41302,2.84388 -5.34356,2.13099 -11.08634,1.27539 -16.67116,1.71621 m 22.16286,-116.2085 c 1.58631,-1.58599 3.14752,-2.90563 5.24661,-3.75338 1.39107,-0.56161 2.98705,-0.66994 4.46202,-0.81505 2.90367,-0.28548 5.80842,-0.20242 8.72787,-0.23697 5.49907,-0.0656 11.0285,-0.0956 16.42608,1.11145 9.03339,2.02025 17.13369,7.73459 22.33024,15.36381 4.34724,6.38301 7.27014,13.67482 9.02648,21.18231 0.84929,3.63091 1.37195,7.25251 1.90249,10.93441 0.32004,2.2217 0.47321,4.47916 0.62712,6.71754 0.1211,1.75829 0.31584,3.53284 0.33783,5.29556 0.0373,2.93613 -0.37144,5.95804 -0.67713,8.87498 -1.596,15.23167 -7.22406,30.65997 -19.37641,40.62005 -6.341,5.1975 -14.00247,8.59699 -22.163,9.57565 -3.48574,0.41828 -7.03282,0.40666 -10.54207,0.40666 -4.13749,0 -8.69898,0.21707 -12.50348,-1.68532 -1.48126,-0.74089 -2.66342,-1.81172 -3.82465,-2.97284"
       id="path4-0-4-5-7-6-4-2-8-2-0-7-2"
       style="fill:none;stroke:#000000;stroke-width:3.4899888;stroke-miterlimit:4;stroke-dasharray:none" />
  </g>
</svg>
