<?xml version="1.0" standalone="yes"?>
<svg width="4000" height="4500">
<path style="stroke:none;fill:none;" d="M1571 320C1668.71 317.98 1769.04 292.901 1861 337.842C1877.28 345.797 1891.76 355.689 1907 365.341C1914.26 369.939 1926.61 376.692 1930.97 384.289C1933.34 388.401 1931.95 395.415 1932 400C1932.13 410.301 1932.88 420.646 1933 431C1933.45 468.269 1934 505.653 1934 543L1934 954C1934 1459 1933.8 1964 1934 2469C1934.03 2553.61 1937.76 2641.84 1959.72 2724C1971.37 2767.62 1986.94 2812.01 2019.27 2844.87C2036.31 2862.18 2061.32 2879.63 2086 2883.25C2096.63 2884.81 2108.44 2882.42 2119 2881.16C2140.07 2878.63 2161.06 2875.55 2182 2872.08C2223.52 2865.2 2266.55 2858.58 2307 2846.79C2374.92 2827.01 2444.76 2790.08 2497 2742"/>
</svg>
