<?xml version="1.0" standalone="yes"?>
<svg width="4000" height="4500">
<path style="stroke:none;fill:none;" d="M1073 1288C1054.94 1318.95 1038.68 1350.97 1020.67 1382C1012.47 1396.13 997.232 1413.06 993.419 1429C990.134 1442.73 994.638 1461.83 994.985 1476C995.85 1511.29 995 1546.7 995 1582L995 1654C995 1665.25 992.678 1676.4 1001 1685L1055 1631C1062.76 1623.24 1071.12 1611.53 1081 1606.56C1103.88 1595.04 1131.69 1589.1 1156 1581C1165.3 1577.9 1178.26 1575.89 1186 1569.72C1215.63 1546.13 1240.82 1515.62 1269 1490.17C1333.95 1431.51 1404.04 1375.41 1485 1340.49C1532.53 1319.98 1584.23 1312.57 1635 1304.41C1671.6 1298.53 1712.86 1289.46 1750 1293.17C1779.32 1296.1 1810.7 1309.4 1836 1323.87C1926.37 1375.55 1981.31 1478.04 1996.42 1579C2000.31 1604.98 2002.64 1630.95 2005.71 1657C2006.45 1663.25 2007.47 1679.75 2018 1678.37C2024.79 1677.48 2034.28 1663.72 2039 1659L2078 1620C2083.97 1614.03 2090.15 1605.57 2098 1602.11C2115.92 1594.21 2135.43 1588.52 2154 1582.33C2162.51 1579.5 2173.51 1577.29 2181 1572.3C2190.67 1565.85 2198.8 1555.2 2207 1547C2222.84 1531.16 2238.82 1515.51 2255 1500.04C2296.92 1459.95 2343.2 1422.57 2392 1391.22C2434.81 1363.71 2481.23 1341.93 2530 1327.36C2575.03 1313.91 2623.49 1307.83 2670 1301.72C2703.23 1297.35 2740.47 1288.83 2774 1292.17C2835.41 1298.29 2896.04 1335.31 2935.72 1381C3016.12 1473.58 3024.12 1611.52 3032.09 1728C3040.26 1847.41 3040 1967.13 3040 2087L3040 2465L3040 2712L3040 2778C3040 2785.24 3042.37 2797.7 3038.4 2804C3034.2 2810.65 3026.81 2815.98 3021 2821.17C3004.03 2836.32 2985.94 2849.35 2966 2860.31C2874.42 2910.6 2773.51 2896.32 2674 2905M638 1384C684.87 1375.29 733.606 1374.36 781 1369.83C816.111 1366.48 853.155 1360.64 888 1369.06C925.055 1378.03 964.554 1404.25 993 1429M2017 1680C2017 1753.12 2019.13 1826.06 2020 1899C2022.42 2102.6 2020 2306.38 2020 2510L2020 2726L2020 2782C2020 2788.84 2018.01 2799.25 2022.32 2805C2034.7 2821.53 2053.98 2835.3 2071 2846.67C2127.51 2884.41 2195.08 2898.03 2262 2900.96C2301.64 2902.7 2341.7 2899.71 2381 2905M1001 1685C1001 1958.04 1003 2231.04 1003 2504L1003 2721L1003 2779C1003 2785.51 1005.06 2796.33 1001.4 2801.99C997.198 2808.47 988.854 2814.25 983 2819.27C967.944 2832.18 951.997 2844.15 935 2854.4C849.184 2906.17 739.907 2908.45 643 2900M2020 2803C1960.36 2862.64 1889.3 2891.87 1806 2899.83C1753.19 2904.88 1699.52 2899.22 1647 2906M3040 2804C3100.86 2864.86 3176.88 2894.05 3262 2899.91C3290.88 2901.9 3320.02 2902 3349 2902C3368.86 2902 3388.69 2900.57 3408 2906"/>
</svg>
