<?xml version="1.0" standalone="yes"?>
<svg width="4000" height="4500">
<path style="stroke:none;fill:none;" d="M2517 2713C2488.82 2713 2456.77 2708.7 2429 2713.33C2409.99 2716.49 2390.39 2725.79 2372 2731.66C2360.82 2735.22 2347.38 2736.98 2337 2742.44C2330.29 2745.97 2324.75 2752.95 2319 2757.87C2307.99 2767.3 2296.54 2776.2 2285 2784.96C2256.75 2806.41 2225.75 2824.21 2194 2839.88C2123.65 2874.61 2050.38 2893.2 1973 2903.28C1939.91 2907.59 1905.38 2912.66 1872 2912.66C1819.31 2912.66 1762.33 2893.29 1716 2869.22C1634.01 2826.61 1562.34 2759.6 1508.41 2685C1400.58 2535.85 1341.53 2354.2 1337.01 2170C1336.12 2133.49 1341.2 2096.28 1344.83 2060C1351.9 1989.27 1361.36 1919.07 1378.63 1850C1402.99 1752.55 1439.43 1654.05 1495.35 1570C1588.76 1429.62 1730.02 1311.98 1896 1270.48C1964.31 1253.39 2033.07 1249.12 2103 1253.91C2177.3 1259 2250.42 1277.03 2315 1315.45C2350.48 1336.56 2379.5 1363.25 2411 1389.41C2417.95 1395.17 2427.03 1395.99 2434 1401.39C2447.43 1411.8 2458.99 1425.99 2471 1438L2502 1469C2506.77 1473.77 2513.92 1478.9 2516.97 1485C2519.07 1489.2 2518 1495.43 2518 1500L2518 1532L2518 1648L2518 2066L2518 2549C2518 2655.66 2519.7 2762.57 2515.04 2869C2505.95 3076.64 2499 3290.29 2422.94 3487C2390.32 3571.37 2344.13 3652.04 2274 3710.71C2193.85 3777.77 2098.65 3807.06 1996 3814.09C1894.09 3821.07 1794.04 3805.77 1704 3754.73C1642.24 3719.71 1590.32 3672 1544.79 3617.91C1518.95 3587.22 1498.12 3551.72 1470 3523M2608 1289C2597.68 1320.71 2588.36 1352.62 2580.37 1385C2576.92 1398.98 2576.54 1419.67 2569.14 1432C2565.06 1438.8 2557.58 1444.42 2552 1450L2518 1484"/>
</svg>
