<?xml version="1.0" standalone="yes"?>
<svg width="4000" height="4500">
<path style="stroke:none;fill:none;" d="M1441 3424C1455.61 3438.91 1468.86 3457.7 1478.92 3476C1494.66 3504.6 1507.97 3534.82 1538 3551.43C1578.59 3573.88 1633.03 3561.62 1676 3554.41C1696.04 3551.05 1715.22 3548.2 1732 3535.84C1762.01 3513.75 1780.85 3479.59 1797.3 3447C1831.2 3379.88 1846.76 3301.35 1860.17 3228C1882.34 3106.75 1894.57 2983.02 1899.96 2860C1909.32 2646.26 1909 2432.29 1909 2218L1909 1528C1909 1342.55 1905.24 1156.78 1917.91 972C1923.64 888.493 1932.4 804.113 1949.29 722C1973.82 602.67 2009.07 480.352 2082.27 381C2116.64 334.345 2161.52 290.42 2215 266.312C2269.23 241.866 2334.49 238.922 2393 234.911C2448.6 231.099 2501.62 243.604 2552 267.485C2598.13 289.349 2638.49 324.378 2671.21 363.089C2696.81 393.377 2717.89 427.868 2746 456M1560 1322C1593.48 1311.29 1629.33 1313 1664 1313L1808 1313L2199 1313C2282.57 1313 2367.57 1318.53 2450 1303"/>
</svg>
