<?xml version="1.0" standalone="yes"?>
<svg width="4000" height="4500">
<path style="stroke:none;fill:none;" d="M1250 324C1280.77 320.11 1312.09 321.028 1343 318.911C1410.77 314.27 1473.95 310.038 1537 340.842C1555.5 349.877 1573.43 360.382 1590 372.63C1595.42 376.637 1604.42 381.444 1608.06 387.129C1610.9 391.557 1610 398.005 1610 403C1610 413.013 1611 422.948 1611 433C1611 469.918 1612 507 1612 544L1612 962L1612 2287L1612 2657L1612 2761C1612 2772.22 1607.99 2792.93 1613.03 2803C1615.89 2808.73 1622.51 2813.53 1627 2818C1640.65 2831.58 1656.51 2843.31 1673 2853.2C1717.91 2880.15 1769.11 2893.81 1821 2898.83C1851.67 2901.8 1882.44 2901.05 1913 2905M2251 1285C2299.67 1294.44 2350.13 1283.29 2399 1294.88C2411.49 1297.85 2424.53 1302.03 2434 1311.04C2439.98 1316.72 2450.53 1332.65 2459 1333.64C2468.11 1334.69 2482.17 1326.68 2491 1324.14C2517.23 1316.59 2543.2 1309.16 2570 1303.8C2608.92 1296.02 2648.46 1290.8 2688 1288.09C2719.79 1285.91 2750.61 1287.48 2782 1281M2458 1336C2439.23 1378.36 2435.55 1427.28 2415.57 1469C2381.94 1539.23 2326.96 1600.95 2280.63 1663C2240.51 1716.71 2200.35 1770.37 2160.13 1824C2148.18 1839.92 2136.57 1856.08 2124.63 1872C2118.84 1879.72 2110.41 1887.8 2107.21 1897C2094.36 1933.91 2087.04 1973.34 2076.58 2011C2070.71 2032.09 2066.53 2052.33 2063.72 2074C2062.74 2081.53 2059.9 2091.33 2060.75 2098.83C2061.28 2103.58 2067.1 2109.64 2069.37 2114C2075.64 2125.98 2082.02 2138.4 2086.94 2151C2106.49 2201.11 2125.47 2251.45 2143.95 2302C2178.05 2395.32 2210.97 2489.35 2249.42 2581C2262.96 2613.25 2279.11 2644.25 2293.69 2676C2331.31 2757.93 2380.26 2845.43 2456 2897.79C2487.77 2919.76 2527.76 2931.19 2566 2934.83C2597.12 2937.8 2627.93 2935.82 2659 2940M1613 2357C1625.92 2357 1641.38 2359.32 1654 2356.47C1665.54 2353.86 1677.02 2347.39 1688 2343C1710.31 2334.08 1732.69 2325.32 1755 2316.4L1792 2301.6C1797.56 2299.37 1805.06 2297.69 1809.54 2293.58C1820.82 2283.23 1829.47 2267.4 1838.42 2255C1852.56 2235.42 1867.62 2216.51 1881.85 2197C1889.43 2186.6 1897.15 2171.68 1907.3 2163.7C1920.55 2153.28 1943.35 2148.48 1959 2142.2C1991.73 2129.07 2025 2111.3 2059 2102M1612 2803C1597.25 2817.75 1582.23 2832.08 1565 2843.97C1510.47 2881.63 1447.14 2896.45 1382 2900.91C1354.61 2902.79 1326.43 2902.87 1299 2903C1281.63 2903.08 1263.81 2901.23 1247 2906"/>
</svg>
