<?xml version="1.0" standalone="yes"?>
<svg width="4000" height="4500">
<path style="stroke:none;fill:none;" d="M2411 1231C2397.21 1239.56 2378.46 1236.64 2363 1237.01C2330.92 1237.8 2298.03 1235.9 2266 1238.09C2227.09 1240.75 2187.56 1243.72 2150 1255.3C2099.55 1270.86 2057.05 1299.95 2020 1337C2000.05 1317.05 1979.37 1298.9 1955 1284.45C1899.47 1251.53 1836.41 1241.81 1773 1239.04C1745.44 1237.83 1717.58 1238 1690 1238C1672.02 1238 1653.32 1239.45 1636 1234M2020 1337L2020 3105L2020 3576C2020 3618.02 2020.04 3660.06 2019.01 3702C2018.75 3712.98 2018.13 3724.06 2018 3735C2017.94 3740.19 2019.35 3747.43 2016.4 3751.99C2012.23 3758.43 2004.09 3762.35 1998 3766.67C1982.85 3777.41 1967.64 3787.63 1951 3795.97C1920.04 3811.49 1887.55 3821.43 1853 3824.83C1788.48 3831.18 1722.51 3816.04 1658 3816"/>
</svg>
