<?xml version="1.0" standalone="yes"?>
<svg width="4000" height="4500">
<path style="stroke:none;fill:none;" d="M1846 2897C1746.34 2889.12 1640.82 2903.37 1550 2851.42C1530.69 2840.38 1512.11 2827.36 1496 2811.96C1490.9 2807.08 1483.22 2801.38 1480.03 2795C1474.99 2784.93 1479 2764.22 1479 2753L1479 2650L1479 2279L1479 951L1479 543C1479 505.325 1480 467.598 1480 430C1480 419.295 1480.95 408.644 1481 398C1481.02 392.972 1479.65 385.604 1482.03 381.019C1484.72 375.826 1492.46 371.962 1497 368.424C1511.71 356.965 1527.71 347.308 1544 338.335C1602.38 306.179 1664.77 307.512 1729 311.911C1766.56 314.482 1804.4 316.385 1842 318M1480 1587C1503.72 1587 1530.62 1590.57 1554 1586.67C1577.69 1582.73 1602.18 1571.53 1625 1564C1638.15 1559.66 1653.77 1557.27 1666 1550.72C1673.5 1546.71 1679.82 1538.85 1686 1533.09C1696.48 1523.33 1707.21 1513.7 1718 1504.29C1755.22 1471.82 1793.82 1441.14 1834 1412.43C1890.28 1372.21 1953.35 1336.18 2020 1316.55C2069.96 1301.84 2124.39 1296.02 2176 1289.84C2210.17 1285.75 2246.52 1279.72 2281 1282.09C2295.44 1283.08 2310.12 1287.72 2324 1291.58C2363.86 1302.66 2402.61 1319.56 2434 1347.18C2474.09 1382.46 2498.73 1430.39 2516.42 1480C2546.67 1564.8 2554.95 1656.83 2561.09 1746C2570.32 1880.14 2570 2014.34 2570 2149C2570 2259.72 2571 2370.28 2571 2481L2571 2698L2571 2762C2571 2770.19 2568.76 2782.28 2571.6 2790C2574.14 2796.87 2582.71 2802.35 2588 2807.05C2602.95 2820.32 2619.11 2832.03 2636 2842.68C2698.84 2882.28 2775.37 2890 2848 2890C2870.34 2890 2895.26 2893.97 2917 2889M1479 2795C1423.42 2850.58 1355.4 2883.12 1277 2890.83C1222.18 2896.22 1166.56 2890.96 1112 2898"/>
</svg>
