<?xml version="1.0" standalone="yes"?>
<svg width="4000" height="4500">
<path style="stroke:none;fill:none;" d="M1487 2443C1494.16 2481.57 1496.03 2521.98 1501.28 2561C1509.37 2621.05 1520.55 2680.44 1531.57 2740C1536.51 2766.63 1543.31 2792.75 1549.87 2819C1551.74 2826.45 1552.81 2842.85 1558.56 2848.16C1562.87 2852.13 1571.55 2853.75 1577 2855.69C1591.55 2860.89 1606.16 2866.08 1621 2870.42C1660.95 2882.11 1698.56 2899.61 1738 2912.59C1795.46 2931.5 1852.93 2939.98 1913 2944.09C1987.93 2949.22 2063.87 2944.39 2136 2921.97C2171.19 2911.04 2204.73 2894.75 2237 2877.18C2292.86 2846.77 2346.02 2806.42 2381.65 2753C2408.94 2712.07 2420.12 2664.44 2430.21 2617C2438.86 2576.34 2447.5 2535.38 2451.95 2494C2454.35 2471.7 2447.47 2445.67 2442.5 2424C2420.97 2330.16 2358.63 2258.59 2284 2201.12C2187.39 2126.73 2074.4 2077.96 1963 2030.43C1912.31 2008.8 1860.57 1989.58 1812 1963.31C1757.71 1933.95 1702.85 1899.54 1663.47 1851C1635.27 1816.24 1616.3 1773.75 1607.29 1730C1602.89 1708.69 1598.49 1684.8 1599.01 1663C1599.66 1636.16 1606.12 1608.29 1611.2 1582C1624.3 1514.05 1639.54 1445.8 1684.46 1391C1782.23 1271.72 1950.43 1235.44 2097 1254.71C2154.74 1262.3 2210.28 1278.5 2261 1307.88C2297.36 1328.93 2331.43 1357.13 2352.57 1394C2362.66 1411.58 2368.29 1430.87 2374.67 1450C2384.79 1480.36 2393.98 1511.05 2402.12 1542C2406.74 1559.6 2409.82 1577.33 2417 1594"/>
</svg>
