<?xml version="1.0" standalone="yes"?>
<svg width="4000" height="4500">
<path style="stroke:none;fill:none;" d="M2188 1276C2198.8 1283.22 2215.42 1283 2228 1283C2251.39 1283 2274.62 1284 2298 1284C2366.11 1284 2440.91 1300.56 2497 1340.58C2507.92 1348.37 2517.95 1356.87 2528 1365.71C2532.97 1370.09 2539.96 1374.97 2542.97 1381C2547.26 1389.57 2544 1406.49 2544 1416L2544 1502L2544 1809L2544 2286L2544 2427L2544 2468C2544 2473.71 2545.39 2481.59 2543.4 2487C2539.27 2498.2 2522.38 2509.62 2514 2518L2480 2552C2474.51 2557.49 2469.02 2564.76 2462 2568.29C2440.42 2579.15 2414.91 2586.03 2392 2593.67C2382.21 2596.93 2367.96 2599.54 2360 2606.22C2342.09 2621.27 2327.71 2641.52 2310.96 2657.91C2272.37 2695.69 2232.59 2732.22 2189 2764.27C2135.28 2803.76 2074.86 2836.74 2011 2856.43C1960.52 2872 1908.27 2878.84 1856 2885.28C1817.84 2889.99 1777.43 2896.6 1739 2893.91C1707.27 2891.69 1675.3 2881.62 1646 2869.8C1519.53 2818.76 1486.79 2671.19 1470.84 2550C1467.21 2522.4 1463.86 2494.79 1461.91 2467C1453.44 2346.17 1454 2225.3 1454 2104L1454 1695L1454 1473L1454 1409C1454 1401.18 1456.43 1388.53 1453.4 1381.29C1450.77 1375.01 1442.04 1368.95 1437 1364.58C1423.9 1353.22 1410.78 1342.36 1396 1333.19C1341.79 1299.58 1279.68 1288.38 1217 1284.09C1200.05 1282.93 1182.96 1284.25 1166 1283.09C1145.71 1281.7 1125.27 1284.11 1105 1282.17C1097.72 1281.47 1090.53 1281.76 1084 1278M2544 1380C2606.01 1317.99 2681.55 1290.01 2768 1284.09C2815.68 1280.82 2863.59 1285.38 2911 1279M1454 1380C1473.88 1360.12 1495.52 1341.47 1520 1327.43C1606.9 1277.58 1702.38 1287.55 1798 1280M2543 2489C2550.29 2496.53 2549 2504.12 2549 2514L2549 2560C2549 2605.99 2550 2652.09 2550 2698C2550 2713.71 2549.84 2729.35 2550.91 2745C2551.24 2749.78 2549.7 2756.24 2551.6 2760.71C2553.89 2766.07 2563.42 2771.09 2568 2774.56C2584.34 2786.92 2601.42 2797.41 2620 2806.02C2661.7 2825.33 2705.75 2821.59 2750 2817.17C2800.94 2812.08 2852.07 2805.05 2903 2801M2550 2763C2532.03 2795.41 2510.16 2825.5 2492.31 2858C2479.01 2882.22 2467.99 2910.84 2450 2932"/>
</svg>
