<?xml version="1.0" standalone="yes"?>
<svg width="4000" height="4500">
<path style="stroke:none;fill:none;" d="M1349 1292C1444.77 1304.17 1550.79 1276.48 1642 1317.86C1676.92 1333.71 1706.27 1362.27 1733 1389L1778 1344C1783.84 1338.16 1791.13 1327.51 1799 1324.6C1803.89 1322.8 1810.85 1324 1816 1324L1852 1324L1974 1324L2388 1324C2443.96 1324 2498.3 1325.19 2553 1338.63C2565.4 1341.67 2577.71 1344.92 2590 1348.42C2594.69 1349.76 2601.73 1350.56 2605.49 1353.84C2611.69 1359.25 2614.99 1375.29 2617.67 1383C2625.56 1405.65 2633.8 1428.11 2640.96 1451C2663.67 1523.63 2676.21 1598.15 2688.68 1673C2692.09 1693.52 2693.2 1714.56 2697 1735M1733 1389L1733 2435L1733 2707L1733 2777C1733 2784.88 1730.39 2798.43 1735.32 2805C1743.4 2815.79 1755.06 2825.05 1765 2834.07C1787.38 2854.37 1812.86 2873.39 1841 2884.91C1887.51 2903.94 1945.68 2902 1995 2902C2017.35 2902 2039.72 2903 2062 2903C2079.78 2903 2097.74 2901.49 2115 2906M1733 2803C1701.57 2834.43 1668.03 2866.15 1626 2882.8C1588.91 2897.49 1547.29 2899.05 1508 2900.01C1453.28 2901.36 1397.11 2898.71 1343 2906"/>
</svg>
