<?xml version="1.0" standalone="yes"?>
<svg width="4000" height="4500">
<path style="stroke:none;fill:none;" d="M1942 808C1942 909.271 1942.58 1010.25 1932.83 1111C1929.6 1144.39 1925.53 1177.96 1919.58 1211C1916.13 1230.13 1908.92 1250.65 1908.04 1270C1906.44 1305.17 1908 1340.79 1908 1376L1908 1584C1908 1808.67 1909 2033.41 1909 2258L1909 2652L1909 2757C1909 2767.51 1913.07 2789.01 1907.4 2798C1899 2811.29 1882.79 2823.02 1871 2833.28C1850.11 2851.45 1827.5 2869.44 1802 2880.76C1761.69 2898.66 1715.23 2899.95 1672 2902.91C1647.12 2904.61 1621.91 2904.87 1597 2905.96C1583.8 2906.54 1569.52 2905.15 1558 2913M1559 1309C1643.93 1309 1730.81 1304.3 1813 1280.71C1832.3 1275.17 1851.2 1268.98 1870 1261.95C1876.02 1259.7 1886.53 1252.62 1893 1253.93C1898.65 1255.07 1904.08 1263.08 1908 1267M1909 1309L2228 1309C2301.66 1309 2375.35 1312.69 2448 1299M1909 2798C1940.05 2829.05 1974.4 2861.85 2015 2880.14C2042.43 2892.49 2074.3 2896.96 2104 2899.83C2140.48 2903.36 2177.42 2903.41 2214 2905.91C2231.22 2907.09 2250.81 2906.37 2266 2916"/>
</svg>
