<?xml version="1.0" standalone="yes"?>
<svg width="4000" height="4500">
<path style="stroke:none;fill:none;" d="M2383 1223C2397.03 1237.15 2406.55 1255.82 2416.34 1273C2434.54 1304.95 2451.31 1337.75 2470.77 1369C2478.34 1381.15 2485.3 1393.68 2492.6 1406C2494.66 1409.48 2497.4 1417.18 2501.33 1418.82C2504.29 1420.06 2507.05 1416.8 2509 1415.07C2514.77 1409.96 2520.78 1405.44 2527 1400.91C2550.77 1383.62 2576.33 1371.98 2605 1365.5C2636.03 1358.49 2666.81 1361.81 2698 1364.83C2735.28 1368.44 2772.74 1370.44 2810 1374.17C2825.6 1375.73 2841.28 1379.68 2857 1380M2494 2805C2480.83 2805 2465.97 2803.07 2453 2805.33C2440.96 2807.42 2428.48 2813.75 2417 2817.95C2399.58 2824.31 2381.75 2829.93 2364 2835.28C2339.31 2842.72 2310.41 2846.48 2287 2857.04C2269.98 2864.71 2253.97 2875.21 2237 2883.22C2211.71 2895.17 2184.97 2904.6 2158 2911.99C2117.96 2922.96 2077.17 2926.27 2036 2929.09C1915.95 2937.31 1792.11 2914.36 1688 2851.55C1635.42 2819.83 1589.3 2778.44 1549.42 2732C1441.31 2606.09 1386.2 2441.19 1359.85 2280C1350.45 2222.48 1343.91 2164.12 1339.91 2106C1338.02 2078.55 1333.67 2050.52 1334.02 2023C1334.4 1993.05 1338.71 1962.74 1341.83 1933C1350.47 1850.57 1366.92 1768.45 1394.14 1690C1459.7 1501.04 1604.78 1302.76 1819 1281.47C1838.46 1279.53 1860.6 1284.76 1880 1286.83C1920.73 1291.19 1961.99 1296.89 2002 1305.81C2096.43 1326.87 2178.87 1391.22 2244.99 1459C2261.5 1475.93 2276.75 1494.38 2291.33 1513C2298.42 1522.05 2304.23 1535.59 2314.04 1542.01C2325.73 1549.65 2341.27 1553.48 2354 1559.31C2381.72 1572 2414.24 1583.7 2439 1601.63C2448.57 1608.57 2456.65 1618.65 2465 1627C2473.38 1635.38 2490.27 1646.8 2494.4 1658C2498.18 1668.27 2495 1685.06 2495 1696L2495 1782L2495 2074L2495 3063L2495 3543L2495 3671L2495 3705C2495 3709.72 2496.03 3715.82 2493.4 3720C2488.97 3727.01 2481.12 3732.7 2475 3738.17C2459.03 3752.42 2441.78 3764.99 2423 3775.31C2367.18 3805.96 2305.77 3815.21 2243 3817.96C2203.89 3819.67 2164.77 3816.99 2126 3822M2501 1420L2501 1592C2501 1610.29 2507.37 1642.3 2494 1656M2495 3720C2556.06 3781.06 2630.61 3810.03 2716 3815.91C2744.54 3817.88 2773.36 3818 2802 3818C2820.71 3818 2839.72 3816.5 2858 3821"/>
</svg>
