<?xml version="1.0" standalone="yes"?>
<svg width="4000" height="4500">
<path style="stroke:none;fill:none;" d="M1489 2716L1489 1803L1489 1565L1489 1504C1489 1496.74 1486.76 1485.09 1491.32 1479C1500.62 1466.59 1514.03 1455.97 1525 1445C1546.17 1423.83 1566.77 1402.34 1590 1383.81C1604.55 1372.21 1617.34 1358.38 1632 1346.8C1660.33 1324.43 1691.68 1305.4 1725 1291.42C1777.37 1269.47 1831.99 1261.18 1888 1255.83C2099.83 1235.59 2309.83 1327.47 2440.5 1496C2554.1 1642.52 2612.28 1816.3 2634.16 1999C2640.92 2055.5 2649.67 2114.08 2649 2171C2648.68 2197.22 2644.78 2223.91 2642.17 2250C2630.88 2362.93 2603.62 2473.18 2554.88 2576C2484.04 2725.43 2345.68 2871.76 2177 2902.39C2126.43 2911.57 2077.68 2906.22 2027 2900.16C1982.6 2894.84 1937.85 2888.64 1895 2875.43C1839.14 2858.21 1784.16 2828.17 1736 2795.41C1719.45 2784.15 1703.65 2771.93 1688 2759.49C1682.65 2755.24 1677.92 2749.36 1672 2745.93C1664.85 2741.79 1654.91 2740.83 1647 2738.57C1631.28 2734.09 1615.51 2729.5 1600 2724.33C1572.5 2715.18 1545.79 2717 1517 2717C1511.86 2717 1492.14 2714.17 1489.6 2719.32C1487.3 2724 1489 2732.85 1489 2738L1489 2784L1489 2949L1489 3537L1489 3665C1489 3688.86 1490.43 3713.26 1488.17 3737C1486.94 3749.94 1487.02 3764.01 1487 3777C1486.99 3783.46 1488.24 3791.55 1483.7 3796.83C1471.62 3810.88 1450.01 3822.14 1434 3831.17C1399.16 3850.82 1362.03 3864.02 1322 3867.83C1257.46 3873.98 1191.57 3859.01 1127 3859M1383 1253L1395.8 1290L1424.58 1381L1437.3 1427L1454 1445L1489 1480"/>
</svg>
