<?xml version="1.0" standalone="yes"?>
<svg width="4000" height="4500">
<path style="stroke:none;fill:none;" d="M2014 2850C2015.83 2840.16 2018.55 2825.86 2016.81 2816C2015.19 2806.86 2009.64 2797.59 2006.2 2789C1998.85 2770.64 1991.6 2752.2 1983.85 2734C1956.37 2669.48 1931.04 2603.95 1904.6 2539C1798.26 2277.77 1690.95 2016.87 1586.2 1755C1562.32 1695.29 1534.39 1636.24 1514.75 1575C1503.62 1540.33 1497.86 1504.85 1491.92 1469C1488.22 1446.65 1484.33 1424.34 1480.59 1402C1479.51 1395.57 1474.79 1382.77 1478.49 1377C1485.63 1365.89 1498.66 1356.34 1508 1347C1521.56 1333.44 1534.51 1316.78 1552 1308.26C1574.33 1297.38 1599.59 1294.59 1624 1292.91C1673.5 1289.5 1725.38 1295.03 1774 1285M1091 1287C1126.89 1291.64 1162.82 1290.61 1199 1293.09C1242.37 1296.06 1285.9 1302.81 1328 1313.88C1359.61 1322.2 1390.76 1333.75 1420 1348.37C1438.49 1357.62 1455.95 1370.03 1475 1378M2698 1317C2712.93 1334.5 2732.9 1357.36 2739.36 1380C2745.77 1402.45 2743 1431.78 2743 1455C2743 1522.59 2732.76 1589.35 2722.42 1656C2715.97 1697.59 2710.57 1739.39 2699.25 1780C2667.49 1894 2612.33 2003.23 2558.26 2108C2485.94 2248.11 2406.87 2384.97 2323.81 2519C2289.04 2575.11 2254.37 2631.24 2219.05 2687C2207.88 2704.64 2197.23 2722.61 2185.67 2740C2181.14 2746.8 2177.26 2756.35 2170.91 2761.58C2165.54 2766 2157.34 2768.13 2151 2770.85L2108 2789.15C2091.04 2796.43 2074.11 2803.88 2057 2810.8C2043.37 2816.31 2033.81 2821.68 2019 2817"/>
</svg>
