<?xml version="1.0" standalone="yes"?>
<svg width="4000" height="4500">
<path style="stroke:none;fill:none;" d="M1635 1288C1646.71 1295.27 1664.59 1295 1678 1295C1699.07 1295 1721.14 1295.33 1742 1298.3C1828.03 1310.56 1915.11 1329.11 1979 1393C1998.12 1373.88 2018.51 1356.5 2039 1338.87C2050.23 1329.21 2060.27 1317.93 2074 1311.86C2121.29 1290.96 2180.41 1294 2231 1294C2253.66 1294 2275.84 1295.08 2298 1290M608 1295C628.684 1290.08 652.947 1295 674 1295C746.838 1295 821.203 1303.13 885 1341.2C902.784 1351.81 919.282 1364.11 935 1377.58C940.041 1381.9 949.998 1388.32 951.682 1395C953.652 1402.82 952 1412.95 952 1421L952 1475L952 1649L952 2295C952 2447.86 951.643 2619.64 1032.9 2755C1086.15 2843.7 1187.36 2903.01 1290 2912.83C1328.89 2916.55 1371.44 2907.35 1410 2902.28C1447.4 2897.36 1484.66 2891.65 1521 2881.41C1562.99 2869.57 1603.05 2848.3 1640 2825.54C1727.23 2771.81 1797.5 2696.96 1869.04 2625.02C1881.27 2612.72 1902.4 2613.39 1917 2604.91C1924.22 2600.72 1930.13 2592.87 1936 2587L1973 2550C1981.12 2541.88 1993.66 2533.03 1999.31 2523C2003.82 2514.99 1999 2498.01 1999 2489C1999 2455.93 1998.09 2422.85 1994.16 2390C1982.12 2289.41 1979 2188.27 1979 2087L1979 1393M2919 1345C2927.1 1344.93 2935.97 1342.59 2944 1344.39C2953.57 1346.54 2964.28 1354.11 2973 1358.68C2985.67 1365.32 2998.94 1371.08 3012 1376.91C3034.68 1387.03 3057.25 1397.04 3076.83 1412.64C3189.47 1502.38 3224.24 1663.06 3237.83 1799C3241.08 1831.52 3240.47 1864.68 3244.29 1897C3251.49 1958.05 3246.27 2023.89 3242.09 2085C3238.51 2137.3 3234.28 2189.17 3225.56 2241C3194.28 2427.11 3118.93 2614.07 2984 2749C2911.06 2821.94 2821.02 2880.25 2719 2901.72C2666.54 2912.76 2610.51 2919.38 2557 2917.04C2491.27 2914.16 2425.4 2908.38 2362 2889.28C2245.14 2854.08 2149.58 2780.71 2085.11 2677C2069.3 2651.55 2054.4 2624.08 2043.81 2596C2037.73 2579.89 2034.35 2556.02 2024.41 2542.09C2018.94 2534.42 2008.11 2529.19 2001 2523"/>
</svg>
