<?xml version="1.0" standalone="yes"?>
<svg width="4000" height="4500">
<path style="stroke:none;fill:none;" d="M2401 3792C2358.64 3786.65 2318.67 3775.89 2280 3757.51C2220.77 3729.34 2164.89 3692.54 2125.42 3638.99C2076.48 3572.57 2057.07 3490.12 2044.7 3410C2023.31 3271.41 2023 3129 2023 2989C2023 2836.69 2025.69 2683.97 2019.04 2532C2015.03 2440.35 2010.78 2345.34 1987.71 2256C1972.02 2195.21 1945.94 2136.46 1905.56 2088C1892.33 2072.12 1877.22 2057.96 1861.71 2044.35C1855.23 2038.66 1845.74 2033.92 1840.7 2026.91C1833.86 2017.4 1832.35 2001.1 1828.67 1990C1826.23 1982.67 1820.56 1972.67 1820.5 1965C1820.45 1957.52 1825.64 1948.08 1828 1941C1831.42 1930.73 1832.95 1916.1 1838.85 1907.09C1843.36 1900.22 1852.86 1895.39 1859 1889.95C1873.61 1877 1887.8 1863.67 1900.71 1849C1941.73 1802.42 1970.88 1745.8 1987.08 1686C2011.2 1596.94 2016.03 1502.65 2020.04 1411C2025.63 1283.33 2023 1154.94 2023 1027L2023 861C2023 743.306 2026.29 623.314 2045.71 507C2058.52 430.306 2079.23 351.947 2127.04 289C2165.98 237.729 2221.8 200.271 2280 174.143C2306.7 162.155 2334.62 153.494 2363 146.525C2375.47 143.464 2389.14 139.274 2402 139M1621 1968L1819 1965"/>
</svg>
