<?xml version="1.0" standalone="yes"?>
<svg width="4000" height="4500">
<path style="stroke:none;fill:none;" d="M2678 1189C2636.67 1232.18 2600.3 1281.1 2546 1309.41C2517.16 1324.44 2485.19 1335.12 2455 1347.2C2445.73 1350.91 2424.9 1355.26 2418.85 1363.27C2411.8 1372.64 2410.29 1392.63 2407.37 1404C2398.78 1437.41 2393.32 1474.94 2372.85 1503C2218.03 1715.22 2063.67 1927.77 1908.85 2140L1736.85 2376C1708.13 2415.37 1676.27 2453.79 1650.26 2495C1643.78 2505.26 1642.58 2520.41 1639.29 2532C1631.2 2560.51 1623.65 2589.27 1616.37 2618C1613.5 2629.33 1612 2649.22 1605.06 2658.61C1600.84 2664.32 1587.48 2667.19 1581 2669.8C1562.22 2677.37 1543.62 2684.2 1527 2696C1494.37 2719.16 1467.48 2750.13 1442.39 2781C1428.81 2797.71 1414.4 2814.7 1403 2833M1513 1241C1514.25 1269.63 1531.56 1301.51 1548.25 1324C1553.05 1330.46 1560.91 1342.97 1569 1345.3C1573.64 1346.64 1580.5 1343.07 1585 1341.88C1597.25 1338.66 1609.59 1335.57 1622 1333C1662.7 1324.58 1704.44 1318.03 1746 1317.01C1899.79 1313.25 2054.16 1317 2208 1317L2322 1317C2336.23 1317 2358.67 1312.69 2372 1317.6C2377.82 1319.75 2382.71 1326.71 2387 1331L2418 1362M1568 1346C1558.23 1381.8 1541.08 1416.65 1529.29 1452C1502.94 1530.92 1480.84 1613.35 1465 1695M2726 2493C2712.07 2526.27 2690.82 2558.17 2672.2 2589C2624.77 2667.56 2570.84 2746.11 2492 2796.2C2450.25 2822.74 2402.76 2834.84 2355 2845.65C2332.95 2850.64 2308.68 2857.99 2286 2858.54C2257.17 2859.25 2223.17 2852.35 2195 2846.34C2084.4 2822.75 1995.34 2748.33 1889 2713.67C1840.11 2697.74 1790.25 2690.27 1739 2689.01C1715.03 2688.43 1690.98 2689 1667 2689C1657.98 2689 1644.49 2691.53 1636 2688.4C1625.12 2684.38 1614.15 2668.15 1606 2660"/>
</svg>
