<?xml version="1.0" standalone="yes"?>
<svg width="4000" height="4500">
<path style="stroke:none;fill:none;" d="M1597 139C1640.59 139.362 1686.25 158.168 1725 176.449C1781.22 202.97 1833.79 239.146 1871.85 289.04C1923.08 356.194 1943.34 441.974 1955.17 524C1972.01 640.797 1976 760.077 1976 878L1976 1051C1976 1184.02 1973.83 1317.46 1982.91 1450C1988.39 1529.97 1992.91 1611.4 2014.91 1689C2030.19 1742.91 2053.64 1796.79 2090.37 1839.71C2103.32 1854.84 2116.97 1869.62 2132 1882.72C2139.89 1889.59 2152.53 1896.51 2158.25 1905.3C2164.44 1914.82 2166.39 1930.17 2170 1941C2172.53 1948.58 2178.55 1959.04 2178.5 1967C2178.45 1973.85 2173.44 1982.44 2171.34 1989C2167.96 1999.59 2166.36 2014.67 2160.01 2023.83C2154.43 2031.85 2143.38 2038.02 2136 2044.42C2122.24 2056.36 2109.29 2069.18 2097.42 2083C2054.38 2133.11 2026.13 2190.35 2009.29 2254C1985.77 2342.87 1982.95 2436.82 1978.96 2528C1972.8 2668.61 1976 2810.11 1976 2951C1976 3108.38 1979.44 3267.32 1953.75 3423C1941.51 3497.22 1921.67 3572.94 1877.22 3635C1845.77 3678.91 1799.9 3715.93 1752 3740.69C1702.99 3766.02 1652.06 3781.96 1598 3792M2180 1967L2327 1964L2379 1963"/>
</svg>
