<?xml version="1.0" standalone="yes"?>
<svg width="4000" height="4500">
<path style="stroke:none;fill:none;" d="M2722 1647C2718.74 1660.74 2710.54 1674.41 2704.25 1687C2688.72 1718.06 2670.2 1747.23 2649.37 1775C2602.72 1837.2 2544.68 1892.22 2474 1925.89C2441.41 1941.42 2408.04 1950.73 2373 1958.65C2348.63 1964.16 2319.04 1973.2 2294 1972.54C2263.73 1971.76 2229.21 1962.45 2200 1954.71C2146.43 1940.52 2097.29 1909.7 2050 1882.01C1974.76 1837.97 1903.14 1785.27 1820 1756.5C1797.19 1748.61 1773.66 1744.81 1750 1740.39C1735.01 1737.59 1719.22 1733.68 1704 1732.76C1689.91 1731.91 1673.81 1736.55 1660 1739.2C1636.32 1743.74 1612.27 1747.78 1589 1754.15C1548.37 1765.27 1509.85 1785.67 1475 1809C1428.64 1840.04 1385.84 1876.65 1348.54 1918.17C1303.65 1968.13 1261.99 2029.61 1241 2094"/>
</svg>
