<?xml version="1.0" standalone="yes"?>
<svg width="4000" height="4500">
<path style="stroke:none;fill:none;" d="M2907 2905C2893.41 2898.18 2874.89 2898 2860 2898C2839.23 2898 2817.73 2898.33 2797 2896.91C2715.75 2891.35 2639.33 2871.94 2563 2844.05C2544.69 2837.36 2526.23 2831.12 2508 2824.19C2501.14 2821.59 2490.67 2819.71 2485.28 2814.58C2481.77 2811.25 2481.27 2805.44 2480 2801C2476.85 2790.02 2473.83 2779.02 2470.85 2768C2460.73 2730.64 2453.49 2693.29 2432.94 2660C2397.46 2602.55 2357.43 2548.1 2318.42 2493C2256.43 2405.42 2193.42 2318.58 2131.42 2231C2117.41 2211.21 2098.02 2191 2089.64 2168C2078.7 2137.96 2078.62 2103.62 2055 2080C2079.15 2055.85 2102.35 2029.72 2128 2007.18C2141.24 1995.56 2156.68 1990.67 2168.95 1977C2210.25 1930.94 2244.7 1877.17 2282.23 1828C2354.95 1732.74 2428.68 1637.98 2499.08 1541C2516.38 1517.17 2534.42 1491.31 2545.77 1464C2553 1446.6 2557.28 1427.09 2562.58 1409C2567.67 1391.61 2572.94 1374.19 2578.67 1357C2580.65 1351.04 2582.05 1340.83 2587.22 1336.82C2592.91 1332.41 2602.26 1330.91 2609 1328.67C2624.92 1323.36 2640.86 1318.18 2657 1313.58C2711.53 1298.04 2769.73 1292.94 2826 1289.09C2854.28 1287.15 2881.01 1288.77 2909 1283M1203 1284C1244.89 1293.58 1288.43 1290.55 1331 1296.28C1391.55 1304.44 1451.86 1322.21 1509 1343.58C1530.32 1351.55 1551.86 1358.95 1573 1367.4C1579.85 1370.14 1592.55 1372.37 1597.27 1378.27C1605.61 1388.69 1606.87 1411.21 1610.42 1424C1621.33 1463.24 1628.04 1503 1647.9 1539C1681.33 1599.62 1722.68 1656.99 1761.97 1714C1807.58 1780.16 1852.09 1847.14 1896.67 1914C1913.19 1938.78 1935.06 1963.37 1944.48 1992C1952.95 2017.74 1953.58 2062.35 1979 2078.4C1984.56 2081.9 1994.65 2080 2001 2080L2055 2080M2378 1286C2431.2 1295.91 2491.03 1278.35 2542 1301.31C2559.53 1309.21 2571.63 1323.63 2585 1337M1597 1377C1612.52 1361.48 1627.49 1345.51 1643 1330C1652.01 1320.99 1660.52 1311.17 1672 1305.26C1727.7 1276.62 1796.13 1299.15 1855 1287M1979 2079C1954.69 2103.31 1930.86 2128.23 1906 2151.96C1896.18 2161.33 1884.27 2166.52 1875.16 2177C1853.43 2201.98 1834.86 2230.14 1815.57 2257C1790.77 2291.54 1765.19 2325.55 1740.25 2360C1673.24 2452.6 1603.71 2543.49 1537.96 2637C1516.03 2668.2 1490.31 2699.22 1474.17 2734C1465.1 2753.56 1461.15 2776.52 1454.33 2797L1441 2837C1439.55 2841.36 1435.5 2848.52 1437.79 2853C1440.31 2857.94 1446.12 2862.12 1450 2866C1463.57 2879.57 1474.68 2887.49 1493 2893.19C1539.92 2907.8 1591.88 2897.91 1640 2904M2484 2815C2462.59 2836.41 2441.46 2866.98 2415 2882.12C2399.24 2891.14 2381.63 2892.91 2364 2895.29C2325.01 2900.54 2285.17 2897.9 2246 2901M1112 2908L1136 2903.18L1273 2891.69L1368 2872.12L1435 2853"/>
</svg>
