<?xml version="1.0" standalone="yes"?>
<svg width="4000" height="4500">
<path style="stroke:none;fill:none;" d="M1084 1312C1096.99 1318.82 1113.72 1318 1128 1318C1148.72 1318 1169.3 1319 1190 1319C1264.7 1319 1341.51 1330.09 1405 1372.33C1417.86 1380.89 1429.43 1390.53 1441 1400.71C1446.26 1405.34 1453.78 1410.62 1456.97 1417C1460.07 1423.2 1458 1434.18 1458 1441L1458 1499L1458 1704L1458 2187C1458 2324.03 1456.09 2463.49 1478.71 2599C1495.41 2699 1519.68 2811.86 1606 2876.24C1631.23 2895.06 1660.15 2908.12 1690 2917.66C1748.3 2936.28 1807.48 2928.11 1867 2920.28C1916.86 2913.73 1969.06 2907.96 2017 2892.26C2083.29 2870.54 2144.49 2833.95 2201 2793.57C2236.93 2767.9 2272.14 2740.35 2305 2710.83C2322.08 2695.49 2338.98 2675.38 2358 2662.7C2368.6 2655.64 2384.92 2653.52 2397 2649.66C2415.67 2643.69 2434.19 2637.08 2453 2631.58C2460.17 2629.48 2467.51 2625.7 2475 2625.09C2489.39 2623.93 2509.46 2629.39 2523 2624.4C2528.82 2622.25 2533.72 2615.29 2538 2611C2541.21 2607.79 2545.78 2604.38 2547.4 2600C2549.49 2594.33 2548 2585.99 2548 2580L2548 2537L2548 2389L2548 1887L2548 1546L2548 1453C2548 1443.66 2551.66 1424.56 2546.97 1416.42C2543.87 1411.04 2537.48 1407.08 2533 1402.91C2519.92 1390.73 2506.24 1379.27 2491 1369.81C2429.59 1331.68 2358.39 1319 2287 1319C2265.95 1319 2245.05 1318 2224 1318C2207.1 1318 2188.8 1319 2173 1312M1458 1416C1487.01 1386.99 1519.99 1361.75 1558 1345.61C1604.32 1325.95 1654.45 1321.48 1704 1318.09C1743.88 1315.36 1784.58 1322.13 1824 1314M2548 1416C2578.26 1385.74 2612.9 1359.36 2653 1343.45C2698.01 1325.59 2746.23 1321.36 2794 1318.09C2833.88 1315.36 2874.58 1322.13 2914 1314M2548 2603C2548 2783.5 2552.93 2963.74 2545.04 3144C2541.73 3219.72 2539.44 3295.84 2528.7 3371C2510.19 3500.55 2478.76 3626.35 2421.9 3745C2372.16 3848.77 2292.99 3966.43 2177 4001.23C2144.95 4010.84 2109.21 4013.36 2076 4011.09C2051.16 4009.39 2026.01 4009.27 2003 3998.55C1974.12 3985.1 1955.63 3959.07 1934.95 3936C1910.45 3908.68 1883.17 3883.46 1860 3855"/>
</svg>
