<?xml version="1.0" standalone="yes"?>
<svg width="4000" height="4500">
<path style="stroke:none;fill:none;" d="M2371 1739C2310.43 1750.28 2250.39 1749 2189 1749L1972 1749L1873 1749C1863.32 1749 1843.98 1752.66 1836 1746.68C1827.23 1740.11 1819.75 1730.75 1812 1723C1808.51 1719.51 1803.36 1715.75 1801.6 1711C1799.13 1704.3 1801 1694.09 1801 1687C1801 1666.97 1802.09 1646.98 1802.96 1627C1806.48 1546.58 1813.24 1467.03 1822.84 1387C1844.84 1203.77 1902.88 1023.64 2031.09 886C2073.34 840.641 2124.53 801.349 2184 781.886C2225.18 768.407 2270.19 764.295 2313 758.718C2353.95 753.384 2401.08 745.287 2442 754.805C2502.46 768.868 2560.69 805.388 2606 847M1800 1713C1800 1795.13 1794.73 1877.14 1789.09 1959C1779.84 2093.34 1759.3 2227.56 1714.14 2355C1698.06 2400.37 1678.64 2445.06 1654.96 2487C1643.64 2507.06 1627.3 2525.49 1617.26 2546C1612.35 2556.05 1611.79 2570.06 1609.6 2581C1605.37 2602.11 1600.35 2623.11 1595.13 2644C1592.86 2653.09 1591.82 2668.19 1586.15 2675.73C1583.47 2679.27 1577.93 2680.29 1574 2681.81C1564.02 2685.68 1553.99 2689.36 1544 2693.19C1513.25 2704.99 1481.89 2718.41 1455 2737.75C1435.7 2751.63 1415.2 2767.66 1401.16 2787C1388.55 2804.37 1381.39 2824.82 1368.11 2842C1353.23 2861.26 1334.84 2877.71 1316 2893M1483 1758C1522.12 1745.57 1564.55 1749 1605 1749L1798 1749M1587 2677C1590.49 2680.49 1594.25 2685.64 1599 2687.4C1604.92 2689.58 1613.74 2688 1620 2688C1636.46 2688 1653.62 2686.61 1670 2688.17C1698.86 2690.92 1728.05 2690.37 1757 2693.17C1800.95 2697.42 1845.2 2707.9 1887 2722C1994.08 2758.14 2076.39 2840.41 2184 2875.48C2220.89 2887.5 2263.11 2895.46 2302 2895C2329.16 2894.67 2357.08 2889.82 2384 2886.28C2530.95 2866.96 2681 2806.46 2767 2679"/>
</svg>
