<?xml version="1.0" standalone="yes"?>
<svg width="4000" height="4500">
<path style="stroke:none;fill:none;" d="M1757 710C1745.44 716.068 1731.66 715 1719 715C1699.02 715 1678.95 715.166 1659 716.039C1632.75 717.188 1600.12 719.742 1577 733.454C1561.62 742.576 1549.53 757.469 1537 770C1527.95 779.055 1511.39 790.323 1506.07 802C1503.66 807.285 1507.71 816.569 1508.8 822C1512.27 839.344 1515.93 856.653 1519.4 874C1524.45 899.228 1527.76 925.448 1535.59 950C1551.07 998.489 1575.06 1045.51 1597.75 1091C1701.39 1298.8 1800.6 1508.97 1901.74 1718C1910.41 1735.91 1921.39 1754.2 1927.9 1773C1933.99 1790.59 1935.55 1810.76 1939.2 1829C1942.6 1845.99 1945.8 1863.01 1949.2 1880C1950.5 1886.52 1950.46 1895.72 1953.56 1901.61C1956.2 1906.62 1963.98 1906.71 1967.4 1911.21C1970.03 1914.67 1969.53 1919.42 1972.3 1923C1981.3 1934.62 1993.61 1944.61 2004 1955L2031 1928C2035.02 1923.98 2039.53 1917.62 2045 1915.6C2059.05 1910.42 2077.93 1920.16 2091.71 1914.4C2098.47 1911.57 2104.86 1902.14 2110 1897C2124.11 1882.89 2141.83 1869.12 2153.57 1853C2158.64 1846.04 2157.41 1835.05 2159.78 1827C2164.28 1811.74 2172.61 1796.66 2178.85 1782C2204.05 1722.85 2230.55 1664.28 2255.42 1605C2325.56 1437.86 2400.08 1272.5 2471.72 1106C2488.66 1066.62 2505.53 1027.21 2522.86 988C2537.76 954.306 2554.14 919.656 2563.71 884C2571.83 853.741 2576.52 822.432 2584.13 792C2586.45 782.72 2587.61 764.368 2594.43 757.419C2598.3 753.478 2605.95 752.112 2611 750.192C2626.33 744.366 2642.09 739.603 2658 735.626C2698.18 725.582 2739.76 719.912 2781 717.089C2804.62 715.473 2827.6 715.962 2851 712M1165 712C1195.87 715.921 1227.05 716.113 1258 720.282C1295.31 725.309 1332.11 735.873 1368 747.025C1399.29 756.748 1429.97 769.396 1460 782.424C1474.68 788.793 1489.58 797.782 1505 802M2388 712C2423.41 717.996 2461.03 716.386 2497 717.961C2518.7 718.91 2542.18 720.335 2562 730.27C2574.34 736.458 2583.38 747.379 2593 757M1953 1903L1916 1940C1910.65 1945.35 1904.82 1953.56 1898 1956.97C1888.57 1961.69 1869.49 1958 1859 1958L1764 1958L1525 1958C1477.04 1958 1426.33 1953.19 1380 1968M2093 1915L2121 1943C2125.49 1947.49 2130.26 1954.1 2136 1956.97C2145.85 1961.9 2166.02 1958 2177 1958L2277 1958C2370.7 1958 2465.4 1962.06 2559 1957.96C2584.7 1956.84 2610.53 1949.52 2636 1949M2004 1955L2004 2571L2004 2731L2004 2772C2004 2777.76 2005.33 2785.13 2001.68 2790C1977.26 2822.59 1937.65 2846.15 1901 2862.15C1790.48 2910.41 1669.55 2891.8 1553 2901M1377 2379C1425.39 2363.26 1477.82 2368 1528 2368L1770 2368L2298 2368L2473 2368C2502.45 2368 2532.63 2369.92 2562 2367.91C2588.56 2366.09 2614.6 2360.16 2641 2358M2004 2789C2023.11 2808.11 2041.91 2827.19 2065 2841.57C2139.9 2888.23 2229.27 2894.21 2315 2897.96C2349.28 2899.46 2383.74 2897.46 2418 2898.96C2431.96 2899.57 2448.06 2896.51 2461 2903"/>
</svg>
