<?xml version="1.0" standalone="yes"?>
<svg width="4000" height="4500">
<path style="stroke:none;fill:none;" d="M1543 3143C1539.82 3148.4 1535.23 3154.72 1534.22 3161C1532.06 3174.52 1537.9 3191.71 1540.39 3205C1547.65 3243.73 1556.77 3282.1 1567.58 3320C1572.49 3337.22 1576.32 3355.94 1584.35 3372C1604.24 3411.79 1638.49 3447.06 1673 3474.51C1813.41 3586.18 2022.65 3596.45 2179 3511.69C2281.72 3456.01 2366.15 3368.91 2411.77 3261C2432.5 3211.99 2442.8 3157.98 2453.2 3106C2461.46 3064.7 2473.37 3020.24 2474.14 2978C2474.5 2957.97 2470.58 2936.53 2466.49 2917C2455.2 2863.13 2431.77 2812.25 2397.62 2769C2390.14 2759.52 2379.75 2750.75 2374.12 2740C2370.33 2732.76 2369.13 2723.76 2366.66 2716C2364.98 2710.76 2359.56 2700.37 2361.35 2695C2363.35 2689.02 2371.64 2683.36 2376 2679L2412 2643C2427.29 2627.71 2443.26 2612.87 2457.95 2597C2461.17 2593.51 2462.78 2589.06 2466.13 2585.72C2489.78 2562.09 2515.07 2540.88 2535.41 2514C2619.55 2402.82 2639.24 2259.12 2642.55 2123C2645.13 2017.13 2594.18 1910.74 2537.86 1824C2497.48 1761.79 2446.03 1709.24 2392 1658.91C2253.95 1530.31 2087.08 1436.07 1918 1354.26C1846.78 1319.8 1775.24 1286.61 1705 1250.26C1689.84 1242.41 1673.44 1239.23 1657 1234.88C1650.78 1233.24 1639.26 1232.3 1634.7 1227.49C1625.94 1218.24 1627.21 1201.16 1619.58 1191C1611.44 1180.17 1601.92 1170.34 1594.35 1159C1577.08 1133.1 1564.22 1103.67 1555.03 1074C1544.09 1038.71 1536.42 997.021 1538.04 960C1539.66 923.091 1547.44 885.348 1553.75 849C1562.03 801.357 1570.39 752.457 1587.25 707C1630.71 589.798 1723.62 485.208 1837 431.32C1960.25 372.739 2110.84 369.25 2237 420.604C2286.97 440.945 2329.92 473.5 2366.41 512.83C2385.87 533.805 2405.01 555.994 2417.49 582C2432.74 613.788 2438.96 652.902 2447.37 687C2452.36 707.205 2456.33 727.603 2460.4 748C2464.68 769.431 2469.74 786.683 2457 806M1634 1229C1602.39 1260.61 1567.03 1290.85 1538.21 1325C1532.22 1332.11 1532.29 1342.06 1525.9 1348.99C1512.06 1363.97 1495.93 1376.79 1482.17 1392C1457.78 1418.96 1436.66 1449.68 1420.03 1482C1391.01 1538.38 1380.35 1598.13 1370.25 1660C1363.37 1702.09 1359.57 1744.5 1357.56 1787C1356.6 1807.25 1355.42 1828.85 1358.3 1849C1367.51 1913.45 1391.61 1976.69 1421.68 2034C1506.16 2194.99 1651.47 2319.62 1806 2411.55C1869.08 2449.07 1935.12 2481.55 2000 2515.78C2075.56 2555.65 2152.83 2592.66 2228 2633.31C2269.71 2655.87 2312.07 2687.92 2360 2695"/>
</svg>
