<?xml version="1.0" standalone="yes"?>
<svg width="4000" height="4500">
<path style="stroke:none;fill:none;" d="M1994 663.424C2020.78 659.907 2051.13 665.071 2078 666.911C2159.77 672.509 2239.42 686.612 2318 710.28C2625.35 802.849 2884.24 1044.46 2997.57 1345C3041.37 1461.12 3063.95 1583.16 3066.99 1707C3070.33 1843.69 3047.48 1983.01 2998.94 2111C2903.32 2363.1 2710.81 2574.26 2468 2691.74C2365.86 2741.16 2256.36 2772.94 2144 2787.71C2019.19 2804.12 1889 2797.97 1766 2771.34C1410.96 2694.47 1106.64 2424.31 991.515 2079C930.933 1897.28 918.359 1700.83 955.196 1513C977.669 1398.41 1019.26 1286.31 1079.45 1186C1217.95 955.174 1445.69 771.888 1708 702.735C1770.8 686.18 1834.36 674.348 1899 668.17C1930.39 665.169 1962.82 667.519 1994 663.424M2410 2100C2393.47 2117.27 2379.36 2136.36 2362 2152.96C2320.22 2192.91 2272.27 2226.78 2219 2249.57C2163.61 2273.27 2106.44 2281.02 2047 2285.09C1993.88 2288.73 1938.84 2284.07 1887 2271.1C1855.58 2263.25 1824.91 2251.59 1796 2237.03C1636.81 2156.87 1552.2 1979.98 1531.84 1810C1528.57 1782.67 1523.68 1754.55 1524 1727C1524.32 1700.13 1529.22 1672.63 1532.72 1646C1544.53 1556.18 1570.77 1469.39 1616.86 1391C1637.09 1356.59 1661.85 1324.41 1690.29 1296.42C1747.93 1239.68 1826.03 1199.03 1905 1182.21C1989.41 1164.24 2082.43 1169.4 2167 1183.59C2216.6 1191.91 2265.85 1207.86 2312 1227.72C2323.73 1232.77 2335.57 1237.93 2347 1243.63C2351.03 1245.64 2356.4 1246.9 2359.53 1250.27C2363.83 1254.93 2365.15 1263.09 2366.95 1269C2370.9 1281.96 2375 1294.87 2378.34 1308C2385 1334.25 2391.52 1360.35 2396.54 1387C2400.66 1408.84 2402.68 1431.41 2408 1453"/>
</svg>
