<?xml version="1.0" standalone="yes"?>
<svg width="4000" height="4500">
<path style="stroke:none;fill:none;" d="M2064 684L2064 2100L2064 2496L2064 2550C2064 2556.57 2065.96 2567.02 2062.97 2573C2058.48 2581.98 2047.05 2589.93 2040 2597C2037.11 2599.9 2032.1 2603.41 2034.17 2608C2043.49 2628.68 2062.03 2629.41 2082 2629.02C2122.85 2628.23 2164.55 2623.41 2205 2617.42C2252.42 2610.4 2298.73 2602.18 2343 2582.83C2464.99 2529.51 2559.21 2428.47 2633 2320M2067 973C2077.27 976.037 2089.36 973.361 2100 974.089C2130.29 976.163 2160.75 976.277 2191 979.17C2254.27 985.221 2322.72 1013.06 2370.83 1054.58C2409.56 1088 2440.5 1135.63 2461.42 1182C2478.42 1219.68 2489.71 1263.9 2517 1296M2032 2605C2007.67 2605 1983.17 2600.76 1959 2598.17C1942.92 2596.44 1924.5 2596.14 1909 2591.38C1892.77 2586.39 1877.2 2577.67 1862 2570.26C1821.85 2550.69 1784.44 2525.77 1750 2497.32C1603.15 2376.03 1518.13 2196.54 1483.74 2012C1472.85 1953.59 1464.3 1891.51 1465 1832C1465.6 1781.81 1472.49 1730.91 1477.83 1681C1499.91 1474.75 1561.23 1268.65 1715 1120.96C1741.8 1095.22 1770.63 1071.47 1802 1051.44C1843.2 1025.12 1892.28 998.862 1941 990.321C1968.28 985.539 1996.46 983.801 2024 981.17C2036.69 979.957 2050.62 980.947 2063 978M2077 2630L2064.43 2650L2064 2678L2064 2738L2064 2932"/>
</svg>
