<?xml version="1.0" standalone="yes"?>
<svg width="4000" height="4500">
<path style="stroke:none;fill:none;" d="M2618 1182C2574.97 1225.03 2526 1265.83 2487.62 1313C2479.44 1323.06 2469.16 1331.84 2460 1341C2456.73 1344.27 2450.84 1348.35 2449.63 1353C2448.45 1357.51 2452.02 1364.58 2453.13 1369C2456.63 1383.01 2460.17 1396.98 2463.63 1411C2466.59 1422.99 2467.61 1436.53 2472.21 1448C2478.79 1464.43 2491.29 1479.31 2499.6 1495C2517.35 1528.49 2531.69 1563.76 2542.71 1600C2585.11 1739.41 2579.83 1894.67 2532.14 2032C2517.58 2073.91 2496.07 2110.95 2475.72 2150C2471.52 2158.05 2470.83 2169.15 2469 2178C2465.73 2193.76 2461.78 2209.39 2457.87 2225C2456.19 2231.73 2455.44 2245.31 2450.44 2250.3C2445.5 2255.23 2435.36 2257.08 2429 2259.6C2414.79 2265.24 2400.44 2270.64 2386 2275.66C2378.52 2278.25 2369.73 2279.87 2363 2284.13C2351.33 2291.53 2341.24 2302.12 2330 2310.25C2302.61 2330.09 2273.8 2348.55 2243 2362.69C2146.48 2407 2038.14 2421.22 1933 2411.17C1887.33 2406.81 1841.52 2400.54 1798 2385.14C1760.88 2372 1724.34 2356.1 1691 2334.95C1676.76 2325.91 1662.45 2316.27 1649 2306.1C1641.94 2300.77 1635.76 2293.87 1628 2289.53C1618.75 2284.35 1607.03 2282.01 1597 2278.67C1583.89 2274.3 1570.91 2269.49 1558 2264.58C1553 2262.67 1545.44 2257.88 1540 2258.39C1534.98 2258.86 1530.31 2265.69 1527 2269C1516.23 2279.77 1505.94 2290.65 1495.87 2302C1460.28 2342.09 1419.91 2379.09 1382 2417M1381 1186C1418.78 1223.78 1461.31 1257.15 1497.95 1296C1508.3 1306.99 1518.26 1318.26 1529 1329C1532.64 1332.64 1537.69 1340.03 1543 1341.07C1546.92 1341.83 1552.41 1338.56 1556 1337.19C1565.61 1333.54 1575.32 1330.14 1585 1326.69C1600.66 1321.12 1619.49 1318.12 1634 1310.09C1658.47 1296.57 1679.21 1275.95 1704 1262.31C1778.04 1221.55 1856.6 1196.82 1941 1190.91C1958.64 1189.68 1977.34 1186.09 1995 1187.09C2076.05 1191.68 2157.83 1200.37 2232 1236.26C2265.67 1252.55 2296.74 1272.41 2327 1294.29C2338.01 1302.26 2347.44 1313.03 2359 1320.16C2367.92 1325.66 2380.17 1327.46 2390 1331.05C2408.81 1337.92 2427.71 1346.73 2447 1352M1542 1342C1537.69 1360.79 1531.68 1379.22 1527.23 1398C1524.27 1410.54 1522.73 1425.11 1517.78 1437C1514.09 1445.85 1507.02 1453.92 1501.86 1462C1493.19 1475.58 1485.41 1489.76 1477.89 1504C1457.07 1543.44 1441.45 1586.61 1431.23 1630C1418.42 1684.44 1409.73 1743.03 1408.46 1799C1407.94 1821.42 1412.45 1844.73 1414.83 1867C1420.56 1920.47 1430.02 1974.15 1447.94 2025C1459.35 2057.4 1473.31 2088.86 1489.79 2119C1497.51 2133.1 1509.74 2147.1 1515.44 2162C1526.86 2191.9 1526.26 2226.38 1539 2256M2452 2251C2490.68 2289.68 2529.49 2328.18 2569 2365.96C2580.02 2376.5 2590.74 2387.36 2601.96 2397.71C2606.78 2402.16 2616.08 2408.89 2618.4 2415.01C2622.77 2426.59 2618.78 2445.85 2618.09 2458C2616.57 2484.89 2617 2512.95 2617 2540"/>
</svg>
