<?xml version="1.0" standalone="yes"?>
<svg width="4000" height="4500">
<path style="stroke:none;fill:none;" d="M1640 685C1650.34 673.061 1651.79 649.959 1656.67 635C1665.21 608.808 1672.29 578.246 1687.52 555C1697.32 540.044 1711.3 528.039 1726 518.086C1778.03 482.87 1840.23 467.007 1902 460.831C1989.63 452.07 2080.97 461.135 2148.83 523.586C2167.07 540.372 2183.04 559.329 2196.71 580C2232.46 634.045 2245.98 701.853 2254.28 765C2259.76 806.624 2265 849.01 2265 891C2217.33 891 2169.08 893.07 2122 901.464C2066.66 911.332 2011.97 931.172 1958 946.573C1874.79 970.317 1786.01 1000.19 1718 1055.46C1689.52 1078.6 1664.73 1108.46 1651.46 1143C1645.33 1158.96 1641.77 1176.43 1637.63 1193C1633.45 1209.72 1627.39 1228.7 1627.05 1246C1626.8 1259.26 1631.44 1274.12 1634.35 1287C1642.58 1323.4 1653.57 1357.21 1678.61 1385.91C1713.96 1426.43 1766.34 1451.24 1820 1454.91C1848.76 1456.88 1878.59 1452.36 1907 1448.27C1947.16 1442.48 1985.79 1433.46 2022 1414.51C2049.41 1400.17 2074.6 1382.28 2099 1363.33C2110.04 1354.77 2120.22 1344.36 2132 1336.84C2138.31 1332.81 2146.87 1331.66 2154 1329.58C2171.45 1324.48 2190.16 1320.46 2207 1313.61C2222.86 1307.16 2237.96 1285.04 2250 1273C2255.06 1267.94 2262.74 1262.46 2265.97 1256C2269.72 1248.5 2267 1234.29 2267 1226L2267 1154C2267 1066.67 2266 979.246 2266 892M2268 1258C2271.61 1273.16 2271.03 1289.57 2273.93 1305C2279.74 1335.81 2288.88 1365.46 2301.83 1394C2308.89 1409.57 2321.14 1434.27 2338 1440.88C2374.64 1455.24 2420.09 1434.23 2456 1426"/>
</svg>
