<?xml version="1.0" standalone="yes"?>
<svg width="4000" height="4500">
<path style="stroke:none;fill:none;" d="M2072 1249C2061.38 1281.65 2051.19 1314.43 2040.33 1347C2035.7 1360.9 2032.89 1377.05 2025.95 1390C2015.61 1409.31 1996.86 1426.03 1983.09 1443C1949.32 1484.62 1914.12 1525.25 1878.17 1565C1766.02 1689.01 1649.83 1808.93 1523 1918.13C1497.91 1939.73 1472.54 1960.87 1447 1981.92C1436.92 1990.22 1421.48 1998.47 1413.99 2009.17C1402.94 2024.98 1397.43 2049.07 1390.2 2067C1387.93 2072.63 1385.36 2085.75 1379.78 2088.78C1372.45 2092.74 1357.28 2090.27 1349 2090.6C1324.37 2091.58 1299.65 2093 1275 2093M2792 1256C2787.86 1284.04 2773.98 1312.98 2765.34 1340C2760.29 1355.82 2757.08 1376.89 2748.34 1391C2739.65 1405.02 2726.74 1417.13 2716.45 1430C2690.27 1462.72 2662.94 1494.53 2635.29 1526C2534.83 1640.31 2430.41 1750.17 2319 1853.91C2280.16 1890.08 2239.81 1924.98 2199 1958.92C2185.38 1970.25 2171.61 1981.38 2158 1992.71C2151.97 1997.74 2144.27 2001.75 2139.42 2008.01C2133.38 2015.8 2130.64 2027.89 2127 2037L2112.6 2073C2110.73 2077.68 2106.55 2083.89 2106.62 2089C2106.75 2099.58 2117.36 2115.34 2121.77 2125C2128.72 2140.23 2133.35 2161.57 2143.7 2174.7C2155.89 2190.17 2178.45 2200.92 2194 2212.89C2247.15 2253.8 2298.93 2297.4 2348 2343.09C2451.12 2439.11 2546.11 2542.96 2636.32 2651C2660.83 2680.35 2684.32 2710.39 2708.46 2740C2722.49 2757.2 2740.4 2775.38 2750.82 2795C2758.66 2809.77 2761.9 2829 2766.72 2845C2775.97 2875.7 2785.08 2906.51 2795 2937M2002 2093L2076 2090.16L2104 2089M1382 2091C1389.45 2109.16 1397.87 2126.94 1405.58 2145C1409.58 2154.39 1412.77 2167.07 1419.39 2174.91C1432.26 2190.15 1453.47 2200.05 1469 2212.45C1510.57 2245.65 1552.46 2278.58 1592 2314.17C1701.58 2412.79 1801.53 2520.1 1897.3 2632C1926.44 2666.05 1954.88 2700.73 1982.52 2736C1997.14 2754.67 2016.08 2773.16 2027.48 2794C2036.79 2811.02 2040.27 2833.49 2046.03 2852C2055.03 2880.97 2068.57 2912.01 2073 2942"/>
</svg>
