<?xml version="1.0" standalone="yes"?>
<svg width="4000" height="4500">
<path style="stroke:none;fill:none;" d="M1677 492C1687.18 477.83 1688.68 462.543 1693.15 446C1701.36 415.661 1707.76 382.286 1721.81 354C1735.56 326.328 1763.48 305.79 1790 291.312C1835.57 266.435 1890.04 258.421 1941 254.911C1975.11 252.561 2009.81 249.914 2044 253.17C2119.59 260.367 2201.19 297.342 2246.09 360C2273 397.558 2286.38 441.178 2295.4 486C2298.45 501.148 2303.9 518.503 2303.54 534C2303.24 547.191 2299.59 561.002 2297.41 574C2292.92 600.778 2287.59 627.777 2280.51 654C2255.77 745.588 2195.73 829.889 2127 893.911C2035.28 979.349 1927.4 1045.5 1842.83 1139C1807.1 1178.51 1773.8 1220.21 1751.54 1269C1742.33 1289.18 1736.64 1310.72 1730.58 1332C1726.24 1347.23 1722.47 1362.63 1718.63 1378C1717.19 1383.76 1713.64 1392.05 1714.49 1398C1715.53 1405.24 1727.06 1413.06 1732 1418C1736.55 1422.55 1741.83 1430.12 1748 1432.4C1756.49 1435.53 1769.98 1433 1779 1433L1848 1433L2161 1433C2197.12 1433 2232.39 1433.01 2268 1426C2279.15 1423.8 2295.05 1422.64 2304.87 1416.72C2310.22 1413.49 2312.95 1404.44 2315.46 1399C2322.43 1383.88 2328.47 1368.47 2334.6 1353C2359.51 1290.18 2380.56 1224.97 2399 1160"/>
</svg>
