<?xml version="1.0" standalone="yes"?>
<svg width="4000" height="4500">
<path style="stroke:none;fill:none;" d="M1994 663.424C2021.07 659.869 2051.83 665.049 2079 666.911C2160.42 672.49 2239.78 686.722 2318 710.28C2625.34 802.848 2884.24 1044.46 2997.57 1345C3041.37 1461.13 3063.95 1583.16 3066.99 1707C3070.33 1843.69 3047.48 1983.01 2998.94 2111C2903.32 2363.1 2710.81 2574.26 2468 2691.74C2365.86 2741.16 2256.36 2772.94 2144 2787.71C1998.11 2806.89 1844.59 2795.98 1703 2755.57C1595.6 2724.93 1490.99 2676.38 1399 2612.97C1281.63 2532.08 1179.94 2428.99 1102.69 2309C888.715 1976.62 879.236 1535.22 1075.43 1193C1210.05 958.175 1445.19 772.019 1708 702.735C1770.79 686.181 1834.37 674.347 1899 668.17C1930.39 665.169 1962.82 667.519 1994 663.424M1972 2255C1961.33 2248.85 1945.04 2249 1933 2249C1912.91 2249 1891.98 2249.06 1872 2246.83C1844.1 2243.7 1825.51 2216.51 1807 2198C1800.23 2191.23 1789.33 2183.61 1785.03 2175C1782.7 2170.34 1784 2163.08 1784 2158L1784 2119L1784 1980L1784 1482L1784 1329L1784 1289C1784 1283.44 1782.83 1276.72 1786.31 1272C1798.13 1255.98 1813.37 1241.56 1826.91 1227C1832.69 1220.79 1838.42 1212.11 1846 1207.99C1851.95 1204.75 1860.44 1205.53 1867 1204.71C1886.19 1202.33 1905.63 1201 1925 1201C1986.47 1201 2048.83 1195.31 2109 1211.49C2166.65 1226.99 2220.37 1265.03 2250.42 1317C2267.02 1345.7 2276.27 1377.83 2283.21 1410C2287.07 1427.88 2293.14 1447.62 2293.14 1466C2293.14 1483.26 2287.45 1502.23 2283.65 1519C2273.95 1561.85 2260.89 1600.63 2235.43 1637C2219.36 1659.96 2200.68 1681.55 2179 1699.39C2171.2 1705.81 2162.87 1711.82 2154 1716.69C2147.85 1720.06 2139.4 1722.38 2134.39 1727.39C2127.76 1734.02 2123.77 1745.88 2118.99 1754C2113.44 1763.43 2099.83 1777.05 2098.72 1788C2097.82 1796.84 2103.15 1808.34 2105 1817C2109.57 1838.31 2120.27 1854.46 2131.4 1873C2144.76 1895.27 2158.28 1917.45 2171.15 1940C2195.55 1982.74 2221.3 2024.67 2246.4 2067C2289.8 2140.19 2340.05 2225.85 2430 2246.96C2451.95 2252.11 2475.8 2250.04 2498 2248M1599 1215C1626.67 1218.5 1655.12 1213.04 1683 1213C1692.71 1212.98 1702.48 1210.42 1712 1213.52C1740.8 1222.91 1763.33 1254.33 1784 1275M1785 1764C1839.01 1764 1893.07 1764.44 1947 1765C1978.14 1765.32 2011.02 1762.4 2042 1767.44C2061.37 1770.59 2078.86 1782.57 2098 1787M1784 2175L1738 2221C1728.42 2230.58 1718.55 2241.61 1705 2245.24C1679.77 2252.02 1651.87 2248.14 1626 2249.91C1614.06 2250.73 1599.35 2250.08 1589 2257"/>
</svg>
