<?xml version="1.0" standalone="yes"?>
<svg width="4000" height="4500">
<path style="stroke:none;fill:none;" d="M1990 511.424C2013.02 508.401 2040.22 513.153 2063 516.92C2174.91 535.422 2267.75 618.739 2306.46 725C2321.04 765.028 2327.87 808.484 2329.41 851C2329.98 866.788 2327.03 883.345 2325.16 899C2311.93 1009.54 2246.95 1113.06 2145 1162.74C2114.78 1177.47 2081.23 1185.69 2048 1189.71C1969.5 1199.23 1885.24 1187.09 1818 1143.3C1633.74 1023.32 1624.77 737.627 1781 592.089C1818.65 557.013 1864.73 531.905 1915 520.665C1939.85 515.109 1964.94 514.716 1990 511.424"/>
</svg>
