<?xml version="1.0" standalone="yes"?>
<svg width="4000" height="4500">
<path style="stroke:none;fill:none;" d="M1652 469C1668.1 449.027 1681.04 427.458 1691.42 404C1697.61 390.016 1701.64 375.042 1709.88 362C1727.31 334.401 1756.15 311.462 1786 298.424C1839.71 274.968 1892.73 256.534 1952 254.985C1995.72 253.843 2038.82 247.784 2082 259.156C2108.03 266.012 2135.09 275.187 2157 291.339C2194.79 319.198 2214.75 356.591 2227.42 401C2230.86 413.049 2236.78 427.386 2236.82 440C2236.87 454.899 2230.47 471.625 2226.87 486C2216.9 525.887 2204.81 565.049 2182.56 600C2171.68 617.096 2158.29 632.705 2144 647C2136.59 654.408 2126.99 661.226 2120.56 669.424C2115.8 675.504 2114.44 686.678 2112 694C2106.26 711.208 2100.14 728.158 2093.4 745C2090.82 751.444 2087.75 765.068 2081.73 768.987C2077.32 771.85 2069.12 771.637 2064 772.31C2052.32 773.847 2040.69 775.794 2029 777.286C1984.05 783.022 1938.44 792.995 1893 793M2083 770C2092.94 782.193 2108.37 782.015 2123 785.004C2141.26 788.734 2159.57 795.531 2177 802.05C2229.12 821.544 2278.94 859.875 2307.84 908C2329.16 943.503 2340.59 980.327 2347.41 1021C2349.73 1034.8 2353.87 1049.98 2353.54 1064C2352.9 1091.78 2345.43 1120.84 2340 1148C2321.8 1239.03 2281.68 1320.39 2207 1378.58C2118.68 1447.39 2008.29 1473.15 1898 1470.98C1837.31 1469.79 1773.63 1458.72 1719 1431.4C1699.13 1421.47 1681.85 1407.77 1664 1394.72C1650.6 1384.92 1640.98 1376 1624 1376"/>
</svg>
