<?xml version="1.0" standalone="yes"?>
<svg width="4000" height="4500">
<path style="stroke:none;fill:none;" d="M1839 3835C1865.48 3828.69 1896.88 3833 1924 3833C1985.49 3833 2047.91 3834.03 2107 3814.33C2128.81 3807.06 2148.4 3795.19 2167 3781.86C2173.13 3777.46 2183.21 3772.32 2187.11 3765.71C2191.42 3758.41 2188 3740.47 2188 3732C2188 3702.93 2187 3674.15 2187 3645L2187 3319L2187 2340L2187 2052L2187 1967C2187 1956.06 2190.18 1939.27 2186.4 1929C2182.76 1919.13 2168.37 1909.37 2161 1902L2100 1841C2027.78 1768.78 1953.1 1698.31 1883.04 1624C1872.87 1613.21 1866.15 1597.05 1859.22 1584C1846.52 1560.09 1833.87 1536.23 1821.75 1512C1789.04 1446.57 1761.07 1378.69 1735.95 1310C1724.82 1279.58 1710.96 1247.73 1704.2 1216C1702.42 1207.69 1707.87 1197.88 1710.14 1190C1716.54 1167.77 1724.48 1145.66 1732.58 1124C1762.82 1043.11 1796.57 964.029 1839.58 889C1858.34 856.271 1877.48 821.246 1901.46 792C1916.45 773.724 1935.29 757.713 1952 741L2050 643L2133 560C2164.2 528.799 2196.62 497.328 2236 476.323C2279.87 452.925 2329.6 442.201 2379 440.039C2401.29 439.064 2423.7 440.531 2446 439.985C2494.23 438.805 2539.38 438.851 2586 453.039C2607.56 459.6 2628.74 472.46 2647 485.428C2652.55 489.367 2665.18 503.808 2672 503.27C2676.16 502.941 2680.1 497.725 2683 495.17C2689.58 489.369 2696.93 483.955 2704 478.756C2726.31 462.351 2750.97 448.639 2778 441.874C2820.2 431.309 2862.68 428.075 2906 427.015C2946.57 426.022 2987.74 429.115 3028 424M2672 505L2672 2863L2672 3516C2672 3576.3 2671.28 3636.87 2672 3697C2672.16 3711.11 2672.71 3726 2671.68 3740C2671.16 3747.01 2668.73 3760.42 2672.06 3766.83C2675.2 3772.87 2684.58 3777.84 2690 3781.71C2706.29 3793.32 2723.58 3803.54 2742 3811.42C2805.57 3838.63 2878.36 3833 2946 3833C2970.37 3833 2998.2 3829.32 3022 3835M2189 3766C2231.05 3801.86 2288.16 3827.89 2343 3834.72C2372.47 3838.38 2403.32 3836 2433 3836C2468.44 3836 2503.93 3837.45 2539 3831.56C2588.19 3823.31 2633.49 3799.67 2671 3767"/>
</svg>
