<?xml version="1.0" standalone="yes"?>
<svg width="4000" height="4500">
<path style="stroke:none;fill:none;" d="M1694 459C1729.77 449.236 1764.07 433.882 1800 424.151C1847.55 411.272 1897.51 404.326 1946 395.576C1970.99 391.065 1995.55 384.461 2021 389.551C2027.69 390.888 2038.4 392.032 2043.68 396.702C2047.75 400.301 2047.13 409.013 2047.71 414C2049.68 430.605 2048.59 447.413 2050.17 464C2052.58 489.371 2051 515.499 2051 541L2051 676L2051 1204L2051 1339C2051 1350.69 2050.91 1362.38 2051.08 1374C2051.15 1378.64 2050.11 1384.01 2053.32 1387.83C2065.85 1402.75 2091.43 1413.31 2109 1420.85C2141.34 1434.74 2174.97 1442.51 2210 1444.91C2252.55 1447.82 2295.62 1441.64 2338 1447M2051 1386C2034.93 1399.91 2014.4 1409.15 1995 1417.42C1963.31 1430.93 1929.32 1440.56 1895 1443.83C1832.66 1449.76 1769.2 1440.1 1707 1448"/>
</svg>
