<?xml version="1.0" standalone="yes"?>
<svg width="4000" height="4500">
<path style="stroke:none;fill:none;" d="M1384 1387C1384 1424.87 1389.3 1463.14 1390.96 1501C1393.83 1566.45 1393 1632.47 1393 1698L1393 2115C1393 2201.28 1391.19 2287.9 1394.96 2374C1398.96 2465.38 1399.71 2555.87 1408.83 2647C1411.53 2673.99 1414.01 2701.36 1419.33 2728C1420.89 2735.79 1419.67 2747.01 1423.94 2753.91C1430.72 2764.86 1452.86 2773.17 1464 2779.23C1486.78 2791.62 1509.9 2803.53 1534 2813.2C1549.47 2819.41 1567.31 2823.58 1582 2831.27C1589.43 2835.16 1594.84 2842.33 1601 2847.83C1609.05 2855.01 1618.92 2861.1 1628 2866.91C1655.7 2884.63 1689.02 2895.24 1721 2901.88C1765.37 2911.09 1810.59 2904.07 1855 2898.28C1967.91 2883.57 2070.97 2846.87 2165 2781.56C2194.56 2761.03 2223.24 2738.92 2250 2714.83C2262.62 2703.47 2273.93 2689.46 2287.42 2679.25C2299.56 2670.07 2320.7 2667.17 2335 2661.95C2354.5 2654.82 2373.69 2647.03 2393 2639.4C2398.59 2637.19 2406.1 2638.49 2411 2635.4C2424.34 2626.98 2435.85 2611.15 2447 2600C2454.62 2592.38 2467.13 2583.68 2471.97 2574C2475.51 2566.93 2473 2553.8 2473 2546L2473 2480L2473 2241L2473 1388M2474 2576C2474 2650.09 2486.28 2726.72 2513.09 2796C2527.75 2833.89 2549.77 2871.73 2586 2892.54C2613.47 2908.31 2651.96 2896.24 2681 2890.4C2706.67 2885.23 2732.16 2878.61 2757 2870.33C2767.56 2866.81 2779.54 2864.28 2789 2858.3C2841.18 2825.32 2865.31 2759.93 2893 2708M1424 2755C1409.55 2769.45 1390.62 2783.82 1382.34 2803C1371.13 2828.96 1375 2854.66 1375 2882L1375 3017C1375 3125.04 1380.27 3233.07 1384.96 3341C1388.2 3415.59 1388.26 3490.54 1393.48 3565C1396.07 3601.93 1423.69 3632.21 1424 3670"/>
</svg>
