<?xml version="1.0" standalone="yes"?>
<svg width="4000" height="4500">
<path style="stroke:none;fill:none;" d="M2092 2975C2078 3001.29 2067.83 3030.57 2056.15 3058C2048.93 3074.95 2038.45 3092.11 2033.9 3110C2028.67 3130.52 2025.63 3152.13 2022.08 3173C2020.69 3181.17 2020.58 3195.7 2015.99 3202.61C2010.69 3210.57 1995.03 3215.52 1987 3220.53C1966.15 3233.55 1944.14 3247.34 1926 3264M2017 3204C2020.49 3207.49 2024.25 3212.64 2029 3214.4C2038.51 3217.9 2053.88 3215 2064 3215C2095.07 3215 2126.02 3215.08 2157 3213.59C2217.86 3210.66 2282.12 3237.35 2319.33 3287C2335.73 3308.87 2342.63 3335.78 2348.42 3362C2350.58 3371.74 2354.49 3382.97 2353.91 3393C2352.71 3413.53 2345.04 3435.32 2339.42 3455C2332.5 3479.26 2325 3503.67 2309.48 3524C2285.84 3554.96 2251.28 3577.02 2216 3592.56C2120.05 3634.83 2008.9 3633.83 1908 3611.58C1876.66 3604.66 1847.02 3591.35 1816 3584"/>
</svg>
