<?xml version="1.0" standalone="yes"?>
<svg width="4000" height="4500">
<path style="stroke:none;fill:none;" d="M987 657C1005.72 647.135 1027.92 641.756 1048 635.255C1111.81 614.592 1177.36 604.927 1243 591.8C1267.08 586.984 1292.6 581.391 1317 587.374C1323.17 588.886 1332.72 590.119 1337.4 594.818C1340.79 598.215 1339.85 605.608 1340.42 610C1342.51 625.842 1342.81 642.036 1343 658C1343.7 716.926 1344 775.993 1344 835L1344 1374L1344 1524C1344 1536.95 1344.84 1550.1 1344.54 1563C1344.41 1568.93 1342.14 1577.45 1345.03 1582.96C1347.66 1588 1354.43 1591.29 1359 1594.33C1370.85 1602.24 1383.22 1608.96 1396 1615.24C1444.02 1638.85 1493.62 1642 1546 1642L1599 1642C1610.72 1642 1623 1641.27 1634 1646M2850 625L2769.28 740L2622.28 950L2171.28 1594L1439.28 2639L1098 3126M1344 1583C1328.81 1596.14 1309.33 1605.38 1291 1613.28C1261.64 1625.94 1230.8 1635.76 1199 1639.72C1166.02 1643.82 1132.2 1642 1099 1642C1080.95 1642 1063 1643 1045 1643C1031.11 1643 1016.58 1641.65 1003 1645M2408 2263C2418.46 2248.4 2420.57 2231.18 2424.87 2214C2432.08 2185.23 2438.9 2152.65 2452.12 2126C2465.55 2098.91 2492 2078.59 2518 2064.31C2557.19 2042.79 2601.21 2034.3 2645 2028.71C2761.23 2013.88 2897.47 2026.92 2974.11 2128C3002.65 2165.63 3016.86 2211.28 3026 2257C3029.17 2272.83 3034.11 2289.78 3034 2306C3033.91 2318.55 3030.49 2331.64 3028.41 2344C3024.44 2367.72 3020.04 2391.75 3013.84 2415C2988.29 2510.85 2930.26 2597.6 2858 2664.91C2765.94 2750.67 2657.71 2817.15 2572.83 2911C2538.91 2948.51 2506.94 2988.1 2484.94 3034C2474.38 3056.04 2468.1 3079.54 2461.58 3103C2457.33 3118.27 2453.47 3133.62 2449.63 3149C2448.17 3154.84 2444.58 3162.94 2445.49 3169C2446.36 3174.81 2454.08 3180.08 2458 3184C2464.09 3190.09 2471.79 3201.37 2480 3204.4C2486.95 3206.96 2497.63 3205 2505 3205L2710 3205C2785.31 3205 2860.78 3205.86 2936 3204.01C2961.23 3203.4 2986.47 3200.01 3011 3193.87C3018.43 3192.02 3029.51 3191.55 3035.87 3187.15C3040.99 3183.59 3043.77 3174.51 3046.27 3169C3053.17 3153.81 3059.59 3138.55 3065.61 3123C3080.54 3084.47 3093.34 3045.19 3106.35 3006C3114.38 2981.85 3123.85 2956.93 3129 2932"/>
</svg>
