<?xml version="1.0" standalone="yes"?>
<svg width="4000" height="4500">
<path style="stroke:none;fill:none;" d="M978 656C1013.12 646.396 1046.66 631.082 1082 621.735C1129.25 609.234 1178.09 602.781 1226 593.2C1251.02 588.197 1275.42 582.716 1301 586.42C1309.15 587.601 1320.07 588.582 1326.68 594.108C1330.7 597.466 1329.95 605.254 1330.58 610C1332.63 625.567 1332.35 641.347 1333.04 657C1335.78 719.528 1335 782.339 1335 845L1335 1346L1335 1507C1335 1531.67 1330.72 1559.86 1335 1584C1322.13 1589.42 1310.63 1599.31 1298 1605.63C1264.13 1622.56 1226.62 1635.03 1189 1639.72C1143.39 1645.39 1095.9 1641.86 1050 1642.99C1031.33 1643.44 1011.25 1640.5 993 1645M2851 624L2781.28 723L2643.28 920L2225.28 1517L1460.28 2609L1098 3126M1335 1584C1380.46 1622.78 1446.17 1642 1505 1642L1585 1642C1596.9 1642 1612.33 1639.85 1623 1646M2843 2031C2795.66 2092.43 2753.99 2159.14 2709.97 2223C2622.75 2349.55 2535.42 2476.08 2447.28 2602C2433.12 2622.22 2419.44 2642.77 2405.28 2663C2397.57 2674.02 2387.95 2684.9 2382 2697C2373.43 2714.38 2371.04 2737.27 2366.12 2756C2362.87 2768.33 2359.47 2780.63 2356.37 2793C2355.21 2797.65 2352.42 2803.61 2355.41 2808C2363.77 2820.28 2389.86 2815 2403 2815L2542 2815L3115 2815M2905 2425C2879.79 2502.47 2884 2580.59 2884 2661L2884 2980L2884 3130L2884 3169C2884.01 3173.95 2885.84 3179.76 2882.68 3184C2877.71 3190.65 2869.56 3196.34 2863 3201.35C2808.01 3243.33 2738.08 3222.73 2675 3232M2885 3183C2922 3219.98 2968.43 3229.39 3019 3230C3044.04 3230.29 3072.59 3225.99 3097 3232"/>
</svg>
