<?xml version="1.0" standalone="yes"?>
<svg width="4000" height="4500">
<path style="stroke:none;fill:none;" d="M1841 1241C1848.26 1272.37 1859.99 1303.16 1869.28 1334C1874.85 1352.5 1878.38 1376.19 1887.93 1393C1897.86 1410.46 1913.59 1426.18 1925.99 1442C1953.87 1477.59 1982.32 1512.67 2011.7 1547C2099.86 1650.02 2190.34 1751.75 2291 1842.83C2336.69 1884.17 2382.64 1926.25 2432 1963.25C2445.69 1973.52 2459.11 1984.33 2473 1994.29C2480.24 1999.48 2490.67 2004.38 2496.3 2011.33C2506.3 2023.67 2510.77 2044.5 2517.31 2059C2521.93 2069.25 2533.24 2085.78 2533.38 2097C2533.45 2102.34 2529.16 2109.09 2527.2 2114C2522.26 2126.36 2517.14 2138.64 2512.2 2151C2508.79 2159.52 2506.23 2170.7 2500.58 2177.99C2494.78 2185.47 2485.36 2190.82 2478 2196.66C2464.52 2207.36 2451.19 2218.37 2438 2229.44C2396.23 2264.5 2355.43 2300.59 2315 2337.17C2204.7 2436.96 2103.03 2546.42 2004.84 2658C1978.56 2687.87 1953.02 2718.42 1927.56 2749C1915.14 2763.93 1899.16 2779.1 1889.53 2796C1879.86 2812.97 1875.77 2836.35 1869.97 2855C1862.33 2879.6 1849.76 2905.53 1846 2931M1120 1246C1124.43 1275.99 1137.97 1307.03 1146.97 1336C1152.49 1353.75 1155.78 1375.73 1164.75 1392C1174.48 1409.65 1190.1 1425.2 1202.48 1441C1225.48 1470.35 1248.8 1499.3 1272.68 1528C1368.94 1643.73 1470.77 1753.27 1581 1855.91C1619.85 1892.09 1660.95 1927.08 1703 1959.5C1717.9 1970.99 1732.78 1982.79 1748 1993.85C1755.33 1999.17 1765.82 2003.83 1771.35 2011.09C1781.69 2024.67 1787.1 2046.3 1793.85 2062C1798.15 2072.02 1807.95 2086.12 1808.56 2097C1808.88 2102.69 1804.14 2109.84 1802.01 2115C1796.26 2128.94 1790.8 2143 1785.2 2157C1782.54 2163.66 1780.53 2172.08 1776.3 2177.91C1763.9 2195.01 1739.89 2207.24 1724 2221.16C1676.86 2262.42 1629.46 2303.13 1583 2345.17C1493.57 2426.08 1410.66 2514.63 1329.83 2604C1292.87 2644.87 1257.31 2686.91 1221.73 2729C1203.73 2750.28 1179.76 2772.46 1166.42 2797C1157.84 2812.76 1154.34 2832.99 1148.67 2850C1138.18 2881.46 1125.47 2913.71 1118 2946M1810 2097L1911 2094M2535 2097L2633 2094"/>
</svg>
