<?xml version="1.0" standalone="yes"?>
<svg width="4000" height="4500">
<path style="stroke:none;fill:none;" d="M1987 741.424C2017.26 737.45 2051.08 741.604 2081 746.411C2176.87 761.812 2264.13 811.478 2323.66 889C2346.2 918.348 2363.64 951.977 2377.93 986C2397.28 1032.1 2408.8 1079.94 2417.32 1129C2421.97 1155.74 2426.65 1184.78 2426.29 1212C2425.67 1258.39 2416.12 1306.49 2407.61 1352C2384.83 1473.8 2325.58 1587.41 2210 1643.74C2171.37 1662.57 2129.47 1674.19 2087 1679.71C1981.66 1693.4 1872.76 1682.56 1782 1623.46C1652.26 1538.96 1582.06 1379.29 1576.59 1228C1575.21 1189.55 1583.69 1147.94 1589.58 1110C1605.9 1004.73 1648.43 902.68 1729 830.169C1778.53 785.591 1841.09 756.893 1907 747.428C1933.54 743.618 1960.53 744.901 1987 741.424"/>
</svg>
