<?xml version="1.0" standalone="yes"?>
<svg width="4000" height="4500">
<path style="stroke:none;fill:none;" d="M941 672C972.182 639.134 978.633 593.893 1003.77 558C1025.93 526.359 1060.81 508.001 1095 492.309C1141.53 470.95 1192.09 460.208 1243 457.961C1285.72 456.075 1327.77 451.59 1370 461.898C1395.9 468.219 1421.83 477.985 1444 493.028C1483.26 519.668 1503.71 559.468 1516.42 604C1519.86 616.048 1525.78 630.386 1525.82 643C1525.87 659.628 1518.85 679.065 1514.42 695C1504.77 729.747 1495.27 763.805 1476.55 795C1465.32 813.714 1451.92 830.844 1436.8 846.561C1428.43 855.268 1417.8 862.619 1410.28 872.001C1404.66 879.006 1403.35 890.563 1400.66 899C1395.37 915.558 1389.14 931.974 1382.42 948C1379.74 954.406 1376.85 968.151 1370.78 971.987C1367.05 974.337 1361.23 974.13 1357 974.935C1343.5 977.501 1329.64 979.052 1316 980.745C1271.69 986.247 1226.79 996 1182 996M2851 624L2783.28 720L2643.28 920L2225.28 1517L1453.28 2619L1098 3126M1372 973C1382.46 986.545 1401.12 985.477 1417 989.236C1444.06 995.64 1472.41 1005.8 1497 1018.78C1588.69 1067.18 1637.59 1164.89 1642.62 1266C1643.25 1278.47 1639.48 1292.7 1637.41 1305C1633.71 1327.09 1629.9 1349.16 1624.88 1371C1609.19 1439.25 1579.57 1499.74 1530.87 1550.83C1473.37 1611.14 1389.47 1650.98 1308 1665.39C1281.34 1670.1 1253.98 1670.86 1227 1672.04C1163.67 1674.81 1100.27 1670.35 1040 1648.46C997.96 1633.18 962.151 1606.02 927 1579M2859 2021C2840.98 2042.14 2826.72 2067.15 2810.97 2090C2781.07 2133.4 2750.88 2176.6 2720.97 2220C2634.21 2345.89 2545.7 2470.61 2459.66 2597C2445.98 2617.08 2432.21 2637.1 2418.28 2657C2411.56 2666.6 2402.6 2676.29 2397.75 2687C2389.57 2705.11 2386.58 2727.75 2381.63 2747C2378.46 2759.33 2375.22 2771.65 2372.13 2784C2370.81 2789.28 2368.25 2794.3 2372.16 2799C2381.59 2810.3 2408.44 2805 2422 2805L2561 2805L3131 2805M2930 2385C2927.66 2400.84 2919.92 2416.62 2915.42 2432C2907.71 2458.36 2902.77 2485.69 2900.17 2513C2898.55 2530.04 2900 2547.88 2900 2565L2900 2667L2900 2975L2900 3122L2900 3159C2900 3164.1 2898.83 3170.62 2902.32 3174.83C2938.53 3218.56 3001.49 3220 3053 3220C3073.5 3220 3101.33 3215.16 3120 3225M2900 3173C2884.87 3186.22 2869.85 3200.17 2851 3207.99C2801.94 3228.35 2742.76 3217.91 2691 3222"/>
</svg>
