<?xml version="1.0" standalone="yes"?>
<svg width="4000" height="4500">
<path style="stroke:none;fill:none;" d="M1506 423C1581.98 432.812 1659.27 420.083 1735 436.211C1762.5 442.067 1790.29 450.731 1815 464.312C1822.26 468.302 1829.11 473.189 1835 479.004C1837.62 481.585 1840.95 486.345 1845 486.431C1858.61 486.719 1871.31 470.449 1885 469.105C1902.65 467.372 1921.26 469 1939 469C1966.62 469 1994.47 468.026 2022 469.911C2037.08 470.943 2057.76 465.636 2072 470.728C2080.51 473.769 2088.3 482.891 2095 488.718C2112.66 504.088 2133.63 522.246 2147.68 541C2153.66 548.977 2150 568.318 2150 578L2150 675L2150 1050L2150 2321L2150 2661L2150 2752C2150 2761.21 2153.4 2779.07 2148.4 2787C2143.68 2794.47 2135.23 2800.77 2129 2807C2108.78 2827.22 2086.6 2843.45 2061 2856.25C1974.57 2899.46 1882.01 2898.84 1788 2902.96C1757.32 2904.3 1722.8 2897.62 1693 2906M2150 542C2202.09 494.024 2270.98 464.998 2341 456.285C2395.96 449.446 2453.64 454 2509 454L2817 454C2872.73 454 2929.44 451.107 2985 454.911C3049.12 459.301 3113.02 464.401 3176 478.881C3190.98 482.325 3206.15 485.136 3221 489.151C3225.78 490.444 3233.8 491.12 3237.5 494.564C3244.67 501.246 3248.31 517.059 3252.13 526C3264.59 555.168 3273.73 585.776 3283.19 616C3303.77 681.759 3320.87 748.438 3338.4 815C3349.18 855.978 3355.89 898.69 3369 939M1844 488C1836.61 526.118 1827.88 563.98 1820 602C1814.45 628.802 1810.66 657.22 1801.3 683C1789.38 715.848 1770.04 746.183 1753.78 777C1723.69 834.035 1693.99 891.276 1663.31 948C1572.16 1116.51 1481.62 1285.77 1393.74 1456C1369.02 1503.89 1343.38 1551.34 1318.22 1599C1306.98 1620.29 1291.07 1642.24 1283.25 1665C1277.83 1680.75 1275.87 1698.67 1272.6 1715C1268.65 1734.7 1264.39 1754.35 1260.21 1774C1258.94 1779.98 1254.69 1790.53 1258.41 1796C1273.63 1818.42 1297.18 1813 1321 1813L1480 1813L2149 1813M3023 1227C3007.94 1248.86 3008.65 1285.41 3004.7 1311C2995.44 1371 2988.13 1431.35 2976.2 1491C2972.37 1510.17 2968.17 1529.33 2962.34 1548C2960.34 1554.42 2958.85 1564.57 2954.3 1569.68C2951.14 1573.23 2944.27 1572.11 2940 1571.93C2928.04 1571.4 2916 1571.28 2904 1571.28C2854.34 1571.3 2804.67 1571 2755 1571L2151 1571M2955 1573C2960.96 1594.85 2969.26 1615.81 2974.35 1638C2985.74 1687.62 2991.5 1738.57 2997.71 1789C3000.5 1811.63 3004.55 1834.31 3006.83 1857C3008.4 1872.62 3009.54 1892.39 3018 1906M336 2908C348.251 2902.73 361.075 2903.8 374 2902.91C399.217 2901.18 424.693 2902 450 2902C509.113 2902 570.205 2896.49 627 2879.02C643.558 2873.93 659.77 2868.1 676 2862.05C682.1 2859.78 692.088 2857.75 696.487 2852.73C701.395 2847.12 702.099 2835.1 703.873 2828C709.017 2807.42 713.8 2786.74 718.211 2766C721.277 2751.58 723.149 2735.9 728.089 2722C738.532 2692.62 754.247 2664.8 768.248 2637C799.488 2574.96 833.805 2514.43 866.219 2453C936.807 2319.22 1006.73 2185.05 1078.69 2052C1106.47 2000.63 1133.95 1948.9 1160.74 1897C1169.56 1879.91 1178.54 1862.92 1187.69 1846C1191.77 1838.46 1195.1 1828.32 1201.21 1822.21C1205.61 1817.82 1212.51 1815.5 1218 1812.75C1230.16 1806.67 1242.45 1800.22 1255 1795M3535 2336C3529.41 2377.54 3514.94 2419.56 3504.16 2460C3482.03 2542.96 3457.5 2624.87 3429.27 2706C3418.51 2736.95 3407.62 2767.86 3394.72 2798C3390.97 2806.76 3387.42 2824.24 3379.73 2830.16C3374.18 2834.42 3363.71 2835.65 3357 2837.37C3340.37 2841.65 3323.75 2845.86 3307 2849.65C3234.58 2866.04 3161.82 2871.81 3088 2875.04C3016.58 2878.17 2944.55 2876 2873 2876L2487 2876C2397.12 2876 2297.96 2885.12 2216 2840.69C2190.53 2826.88 2170.31 2807.31 2150 2787M697 2853C708.334 2864.33 719.461 2878.92 734 2886.19C764.547 2901.46 806.706 2900 840 2900C894.184 2900 950.159 2899.3 1004 2904"/>
</svg>
