<?xml version="1.0" standalone="yes"?>
<svg width="4000" height="4500">
<path style="stroke:none;fill:none;" d="M2090 1993C2089.98 2162.85 2102.12 2351.74 2011.55 2504C1909.19 2676.09 1721.35 2769.83 1602.24 2928C1548.75 2999.03 1522.12 3079.34 1507.59 3166C1501.52 3202.19 1491.74 3241.21 1492 3278C1492.17 3302.07 1497.3 3327.19 1500.73 3351C1505.78 3386.08 1511.66 3421.16 1522.5 3455C1554.33 3554.33 1615.12 3643.05 1697 3707.88C1775.6 3770.12 1870.61 3803.1 1970 3809.91C2004.7 3812.29 2040.45 3809.46 2075 3807.09C2186.14 3799.48 2297.97 3775.12 2390 3708.36C2421.04 3685.85 2451.11 3659.75 2471.77 3627C2484.84 3606.29 2491.82 3584.18 2499.03 3561C2509.6 3526.96 2518.77 3492.59 2527.37 3458C2531.98 3439.48 2535.66 3420.72 2539.4 3402C2541.34 3392.29 2544.96 3379.89 2543.97 3370C2542.93 3359.55 2535.73 3347.53 2530 3339"/>
</svg>
