<?xml version="1.0" standalone="yes"?>
<svg width="4000" height="4500">
<path style="stroke:none;fill:none;" d="M3064 2467C2947.3 2600.58 2808.01 2714.42 2651 2797.11C2526.71 2862.57 2384.98 2897.67 2246 2911.17C2108.47 2924.53 1969.17 2917.39 1835 2882.12C1699.25 2846.42 1566.69 2778.35 1461 2685.82C1334.47 2575.04 1238.19 2432.75 1167.68 2281C1101.36 2138.27 1061.71 1983.31 1045.83 1827C1041.67 1786.01 1036.49 1744.25 1036 1703C1035.19 1634.92 1044.59 1565.65 1051.83 1498C1075.03 1281.32 1140.33 1067.64 1261.89 885C1409.72 662.894 1648.42 482.877 1910 420.884C1973.37 405.865 2037.26 401.795 2102 398.96C2279.46 391.19 2458.82 424.034 2622 494.127C2687.4 522.22 2750.55 555.148 2814 587.49C2831.13 596.219 2848.5 604.687 2866 612.629C2873.28 615.934 2884.94 618.588 2890.49 624.471C2897.82 632.241 2900.61 649.977 2904.08 660C2913.54 687.326 2923.1 714.591 2932.29 742C2957.52 817.269 2980.91 893.257 3001.15 970C3009.69 1002.37 3021.78 1035.77 3026 1069M2138 2919C2138.02 2923.78 2139.91 2928.34 2139.78 2933C2139.13 2955.64 2131.97 2979.65 2128.25 3002C2125.65 3017.59 2124.54 3034.98 2119.64 3050C2111.06 3076.34 2094.24 3100.31 2086.93 3127C2080.89 3149.04 2078.66 3172.58 2074.2 3195C2072.75 3202.29 2073.03 3214.81 2068.41 3220.79C2062.4 3228.56 2046.56 3234.36 2038 3239.33C2018.33 3250.76 1997.76 3264.61 1981 3280M2069 3221C2072.62 3224.62 2076.36 3229.65 2081 3231.97C2090 3236.47 2108 3233 2118 3233C2149.11 3233 2180.01 3233.21 2211 3231.09C2274.02 3226.77 2346.96 3260.14 2379.34 3316C2391.03 3336.18 2396.55 3358.44 2401.65 3381C2403.7 3390.07 2407.32 3400.66 2406.9 3410C2405.95 3430.79 2397.78 3453.09 2392.14 3473C2385.08 3497.92 2377.2 3522.32 2360.99 3543C2337.21 3573.31 2304.34 3593.31 2270 3609.64C2172.52 3655.99 2048.14 3652.78 1946 3625.15C1920.19 3618.17 1893.51 3611.92 1869 3601"/>
</svg>
