<?xml version="1.0" standalone="yes"?>
<svg width="4000" height="4500">
<path style="stroke:none;fill:none;" d="M1771 57C1770.88 71.002 1766.6 84.9873 1767.04 99C1769.24 167.709 1790.65 236.981 1838.09 288C1861.11 312.757 1889.66 336.257 1921 349.771C1932.74 354.835 1944.66 359.697 1957 363.08C1963.96 364.987 1974.09 365.375 1980 369.514C1996.2 380.849 2010.02 399.017 2024 413C2030.49 419.486 2040.84 426.744 2044.97 435C2047.07 439.2 2046 445.432 2046 450L2046 483C2046 514.741 2047.3 546.255 2046.16 578C2045.77 588.906 2048.34 602.427 2045.39 612.957C2044.14 617.411 2039.68 618.817 2036 620.861C2027.39 625.636 2018.61 630.089 2010 634.861C1987.46 647.357 1964.67 659.429 1942 671.691C1930.23 678.055 1915.57 683.427 1905.21 691.904C1894.94 700.315 1890 723.86 1884.99 736C1870.37 771.425 1855.25 806.662 1840.42 842C1760.95 1031.39 1681.05 1220.61 1601.58 1410C1561.29 1505.99 1518.14 1601.05 1480.2 1698C1474.54 1712.48 1473.32 1728.78 1470.58 1744C1464.87 1775.64 1459.86 1807.43 1453.8 1839C1451.42 1851.45 1451.52 1867.34 1446.44 1878.96C1442.35 1888.31 1422.99 1897.04 1415 1903.61C1398.51 1917.19 1384.49 1935.26 1374.31 1954C1357.27 1985.36 1345.12 2019.2 1331.15 2052C1303.08 2117.89 1276.02 2184.21 1247.72 2250C1214.56 2327.07 1183.24 2404.91 1150.15 2482C1128.95 2531.4 1104.51 2580.89 1087.75 2632C1079.43 2657.36 1075.35 2683.74 1070.92 2710C1065.38 2742.82 1058.66 2775.7 1050.63 2808C1048.68 2815.82 1039.74 2836.94 1043.69 2844C1047.7 2851.14 1057.34 2856.61 1064 2861C1086.17 2875.59 1114.17 2883.83 1140 2889C1198.55 2900.71 1258.49 2902 1318 2902C1337.35 2902 1356.72 2903 1376 2903C1390.51 2903 1405.81 2901.5 1420 2905M2314 58C2326.6 157.71 2291.3 256.567 2211 319.79C2193.73 333.387 2173.6 346.046 2153 353.935C2141.15 358.474 2124.59 360.143 2114 366.742C2105.39 372.103 2098.15 381.851 2091 389L2046 434M2047 617C2056.87 621.606 2074.53 628.597 2081.3 637.213C2090.25 648.604 2093.98 669.413 2099.05 683C2111.25 715.717 2123.85 748.283 2136.05 781C2192.24 931.705 2249.81 1081.95 2305.05 1233C2361.24 1386.62 2423.01 1538.48 2476.66 1693C2487.23 1723.45 2489.38 1760.08 2493.87 1792C2495.58 1804.13 2495.45 1821.69 2500.59 1832.79C2506.64 1845.86 2531.64 1845.06 2538.2 1859C2545.54 1874.61 2550.33 1891.86 2556.42 1908C2571.24 1947.28 2585.5 1986.76 2600.42 2026C2644.84 2142.77 2689.03 2259.67 2731.95 2377C2756.79 2444.93 2787.84 2512.33 2807.25 2582C2814.77 2608.96 2817.36 2637.43 2821.92 2665C2827.2 2696.96 2831.8 2729.04 2837.08 2761C2838.6 2770.2 2838.23 2789.78 2845.28 2796.39C2852.94 2803.58 2865.67 2807.58 2875 2812.25C2896.41 2822.95 2917.98 2833.03 2940 2842.42C3001.81 2868.8 3068.02 2888.56 3135 2895.83C3181.11 2900.84 3226.9 2898.93 3273 2902.09C3285.29 2902.93 3296.89 2906.37 3309 2908M2500 1834L2456 1878C2449.8 1884.2 2442.9 1894.02 2435 1897.97C2430.12 1900.41 2422.33 1899 2417 1899L2375 1899L2224 1899L1700 1899C1639.45 1899 1577.25 1902.91 1517 1897.17C1493.92 1894.97 1466.32 1895.73 1447 1881M2843 2795C2817.12 2820.88 2792.63 2851.09 2759 2867.11C2685.62 2902.08 2599.23 2901.04 2520 2902.99C2487.73 2903.78 2450.28 2897.21 2419 2906M676 2908C687.961 2901.1 701.945 2904.07 715 2902.83C749.161 2899.58 783.758 2902.1 818 2898.83C868.475 2894.01 918.349 2884.93 967 2870.28C991.989 2862.75 1015.94 2850.85 1041 2844"/>
</svg>
