<?xml version="1.0" standalone="yes"?>
<svg width="4000" height="4500">
<path style="stroke:none;fill:none;" d="M2455 203L2456 203M1567 204L1567 205M2022 418C2022 490.326 2020 562.644 2020 635C2020 654.3 2019.74 673.694 2019.2 693C2018.92 702.986 2016.76 716.274 2019.32 725.96C2020.71 731.246 2027.74 733.661 2032 736.201C2042.96 742.729 2063.04 749.646 2068.03 762C2077.03 784.239 2083.81 807.467 2092.05 830C2123.09 914.864 2152.91 1000.14 2183.95 1085C2282.32 1353.96 2374.74 1625.46 2468.66 1896C2476.64 1919.01 2484.53 1942.06 2492.69 1965C2497.66 1978.97 2504.29 1993.3 2506.58 2008C2511.23 2037.96 2515.01 2068.08 2519.92 2098C2521.72 2108.95 2520.97 2124.64 2525.6 2134.67C2529.8 2143.77 2549.17 2148.57 2556.9 2154.79C2564.15 2160.62 2566.29 2174.51 2569.31 2183C2600.16 2269.7 2629.16 2357.06 2659.34 2444C2676.27 2492.74 2697.18 2541.54 2708.49 2592C2719.06 2639.19 2722.92 2688.26 2730.59 2736C2732.57 2748.31 2734.41 2760.65 2736.13 2773C2736.76 2777.5 2736.51 2784.81 2739.6 2788.39C2745.14 2794.8 2756.68 2799.1 2764 2803.28C2781.69 2813.37 2799.38 2823.56 2818 2831.86C2893.55 2865.53 2970.36 2885.25 3053 2890.91C3079.64 2892.74 3106.38 2893.09 3133 2894.91C3146.16 2895.81 3158.55 2894.49 3171 2900M2525 2136L2477 2184C2471.16 2189.84 2463.87 2200.49 2456 2203.4C2450.08 2205.58 2441.26 2204 2435 2204L2389 2204L2233 2204L1669 2204L1546 2204C1518.59 2204 1490.19 2205.15 1463 2201.58C1447.49 2199.54 1432.18 2198.19 1417 2194.22C1411.36 2192.75 1402.69 2189.77 1400.12 2183.98C1397.32 2177.69 1401.94 2165.62 1402.87 2159C1406.16 2135.63 1410.07 2112.29 1413.92 2089C1418.27 2062.67 1419.96 2034.82 1426.76 2009C1433.58 1983.06 1444.59 1958.1 1453.95 1933C1469.99 1889.99 1485.88 1846.9 1502.19 1804C1586.18 1583.13 1669.84 1361.94 1750.95 1140C1778.7 1064.04 1806.17 987.953 1833.95 912C1842.36 889.002 1850.51 865.898 1859.19 843C1862.51 834.237 1864.65 821.505 1870.65 814.213C1874.09 810.031 1880.38 807.656 1885 805C1895.65 798.879 1906.32 792.791 1917 786.719C1950.65 767.585 1983.75 747.039 2018 729M1508 2897C1425.32 2890.46 1341.57 2897.01 1259 2888.17C1219.53 2883.94 1175.8 2879.3 1149.19 2846C1142.92 2838.16 1152.96 2813.38 1155.12 2804C1163.99 2765.39 1166.67 2725.54 1175.5 2687C1185.41 2643.78 1203.75 2602.55 1218.95 2561C1245.72 2487.8 1273.72 2415.04 1300.95 2342C1322.8 2283.38 1341.53 2220.16 1398 2185M2738 2788C2709.2 2816.8 2683.17 2848.08 2646 2866.02C2615.99 2880.5 2579.63 2884.29 2547 2888.17C2469.3 2897.41 2390.87 2890.85 2313 2897M819 2896C834.815 2894 849.33 2896.46 865 2895.96C892.899 2895.07 921.215 2893.61 949 2890.83C993.451 2886.39 1038 2879.14 1081 2866.58C1102.82 2860.2 1123.53 2851.26 1145 2844"/>
</svg>
