<?xml version="1.0" standalone="yes"?>
<svg width="4000" height="4500">
<path style="stroke:none;fill:none;" d="M2209 1C2179.89 10.208 2146.16 12.0835 2116 17.0801C2053.31 27.4644 1990.67 38.0781 1928 48.5864C1901.71 52.9946 1871.2 54.0327 1846 62.6089C1819.03 71.7871 1791.5 89.5649 1767 104M1734 428C1747.02 434.373 1764.89 432 1779 432C1806.36 432 1835.03 431.243 1862 436.428C1902.43 444.202 1933.06 476.062 1961 504L1987 530C1990.75 533.755 1996.51 537.884 1998.4 543C2002.84 555.056 1999 575.139 1999 588L1999 693L1999 1048L1999 2247L1999 2645L1999 2751C1999 2761.51 2003.07 2783.01 1997.4 2792C1992.68 2799.47 1984.23 2805.77 1978 2812C1952.86 2837.13 1922.73 2855.03 1890 2868.4C1780.21 2913.27 1662.02 2895.92 1547 2905M1999 541C2023 516.996 2046.38 492.007 2072 469.718C2084.91 458.484 2097.6 445.831 2114 439.71C2155.73 424.134 2202.15 436.311 2245 428M1999 2792C2020.52 2813.52 2041.66 2834.69 2068 2850.4C2141.96 2894.49 2230.4 2898.3 2314 2901.96C2347.95 2903.45 2382.07 2901.47 2416 2902.96C2430.29 2903.59 2444.29 2901.83 2458 2907"/>
</svg>
