<?xml version="1.0" standalone="yes"?>
<svg width="4000" height="4500">
<path style="stroke:none;fill:none;" d="M1975 1C1999.25 9.21094 2026.92 11.8853 2052 17.4243C2101.42 28.3394 2150.49 40.6826 2200 51.2104C2231.21 57.8477 2262.53 64.1333 2294 69.4136C2310.4 72.1646 2328.34 76.6904 2345 76.1118C2399.54 74.2188 2451.54 54.1362 2504 42M1629 106C1637.64 86.5049 1639.75 60.3926 1652.7 43.105C1658.19 35.769 1671.83 31.7759 1680 28.1387C1702.54 18.0986 1725.86 7.58496 1750 2M2455 423C2539.1 435.365 2625.03 423.479 2709 439.261C2743.2 445.688 2776.84 455.744 2809 469.011C2819.51 473.346 2829.84 478.165 2840 483.247C2844.66 485.576 2850.74 490.13 2856 490.535C2860.83 490.907 2866.82 486.338 2871 484.247C2881.46 479.022 2892.25 474.43 2903 469.85C2934.76 456.322 2968.34 447.084 3002 439.818C3050.74 429.297 3101.39 429 3151 429C3181.26 429 3212.26 431.136 3242 425M2857 492L2857 2156C2857 2214.99 2856.09 2274.1 2856 2333C2855.94 2372.63 2858.68 2417.66 2846.96 2456C2843.87 2466.12 2835.25 2472.75 2828 2480L2789 2519C2783.64 2524.36 2770.54 2533.26 2769.27 2541C2768.35 2546.61 2772.26 2554.55 2773.63 2560C2777.56 2575.72 2781.99 2591.33 2786.12 2607C2800.32 2661.04 2820.84 2716.52 2828 2772M1243 546C1254.38 604.68 1271.25 662.32 1286.85 720C1291.07 735.622 1295.18 751.304 1299.13 767C1300.65 773.052 1301.58 782.88 1305.56 787.775C1312.73 796.574 1333.63 800.733 1344 805.011C1366.68 814.367 1389.23 824.064 1412 833.2C1423.96 838 1439.11 841.936 1449.83 849.075C1462.95 857.815 1472.04 876.803 1481.8 889C1510.5 924.882 1536.93 963.351 1563.28 1001C1657.45 1135.53 1754.7 1267.95 1849.58 1402C2012.82 1632.63 2176.3 1863.1 2340.58 2093C2402.59 2179.78 2465.93 2265.77 2527.28 2353C2545.81 2379.35 2565.82 2404.63 2584.28 2431C2595.12 2446.48 2608.02 2468.91 2623.29 2480.19C2636.21 2489.73 2656.18 2494.21 2671 2500.42C2702.44 2513.62 2735.14 2531.01 2768 2540M1305 789L1253 841C1245.24 848.757 1233.52 857.117 1228.56 867C1221.91 880.244 1221.93 898.52 1220.91 913C1219.06 939.341 1218 965.545 1218 992L1218 1257L1218 2371C1218 2483.97 1219.33 2597.04 1218 2710C1217.63 2740.93 1218.01 2771.99 1217.54 2803C1217.41 2811.68 1213.61 2831.98 1218.12 2839.39C1221.81 2845.45 1233.91 2848.31 1240 2851.26C1260.4 2861.13 1281.5 2868.9 1303 2876C1399.82 2907.95 1500.42 2897.13 1600 2905M812 2908C826.122 2907.71 839.924 2903.36 854 2903.01C935.971 2901.01 1017.54 2905.19 1098 2886.12C1139.7 2876.23 1176.8 2857.32 1216 2841"/>
</svg>
