<?xml version="1.0" standalone="yes"?>
<svg width="4000" height="4500">
<path style="stroke:none;fill:none;" d="M739 424C869.565 434.323 1022.79 403.338 1135 487.626C1152.75 500.957 1176.44 518.053 1188.4 537C1193.85 545.639 1190 565.921 1190 576L1190 675L1190 1048L1190 2324L1190 2665L1190 2756C1190 2765.43 1193.51 2783.89 1188.4 2792C1184.38 2798.37 1177.31 2803.69 1172 2809C1154.89 2826.11 1135.21 2840.66 1114 2852.31C1033.3 2896.62 938.947 2901 849 2901C827.624 2901 806.323 2902 785 2902C768.695 2902 751.855 2900.54 736 2905M1190 537C1210.83 516.173 1231.6 496.875 1258 483.259C1302.12 460.502 1353.24 453.054 1402 447.834C1466.1 440.972 1530.47 438 1595 438C1688.86 438 1784.48 431.269 1878 440.17C2100.55 461.351 2319.78 526.595 2502 660.155C2559.45 702.265 2613.33 748.856 2662.83 800.089C2901.41 1047.02 3019.15 1389.53 3033.96 1728C3035.09 1753.71 3030.85 1780.36 3029.09 1806C3025.52 1858.1 3020.37 1910.09 3014.16 1962C2987.09 2188.07 2911.08 2415.44 2749.96 2582C2540.77 2798.25 2234.38 2878.28 1943 2891.04C1874.44 2894.04 1805.63 2892.82 1737 2892C1651.23 2890.98 1565.49 2891.94 1480 2886.09C1408.92 2881.22 1328.35 2882.4 1263 2849.73C1234.73 2835.59 1212.12 2814.12 1190 2792M751 1727L1677 1727"/>
</svg>
