<?xml version="1.0" standalone="yes"?>
<svg width="4000" height="4500">
<path style="stroke:none;fill:none;" d="M2121 1L2173 14.3735L2285 40.5757L2341 53.0244L2368 70.4097L2418 102.544L2449 121M1637 122L1702 79.4844L1741 53.0713L1769 46.5757L1824 34.3486L1908 14.6265L1961 2M968 427C983.237 430.144 997.57 429.364 1013 430.039C1050.92 431.699 1089 430.817 1127 431.001C1202.39 431.364 1282.14 441.975 1349 478.694C1370.52 490.51 1390.6 505.686 1408 523.001C1413.62 528.596 1421.15 534.271 1425.4 541C1430.85 549.639 1427 569.922 1427 580L1427 679L1427 1051L1427 2325L1427 2666L1427 2757C1427 2766.21 1430.4 2784.07 1425.4 2792C1421.14 2798.74 1413.62 2804.39 1408 2810C1389.92 2828.05 1369.36 2843.03 1347 2855.31C1258.37 2903.98 1159.47 2898.69 1062 2902.96C1031.97 2904.28 999.339 2898.41 970 2906M1427 541C1448.31 519.689 1468.88 499.16 1496 485.259C1553.1 455.988 1619.45 455 1682 455C1713.59 455 1745.33 454 1777 454C1857.06 454 1936.96 453 2017 453C2061.99 453 2107.17 451.841 2152 454.911C2208.75 458.796 2265.13 466.027 2321 477.2C2335.45 480.089 2349.77 482.668 2364 486.71C2368.95 488.117 2376.68 488.894 2380.53 492.513C2388.33 499.856 2392.5 518.956 2396 529C2404.98 554.793 2415.13 580.176 2424.07 606C2461.81 715.033 2487.04 829.776 2513 942M2284 1184C2273.57 1198.65 2272.96 1216.88 2270.08 1234C2264.75 1265.61 2260.26 1297.31 2255.57 1329C2248.63 1375.88 2241.87 1422.67 2231.58 1469C2228.6 1482.4 2225.3 1495.96 2221 1509C2218.87 1515.45 2213.93 1524.2 2214.14 1531C2214.59 1546 2225.42 1564.18 2229.13 1579C2238.63 1616.95 2247 1656.02 2250.83 1695C2254.61 1733.46 2261.07 1771.62 2265.84 1810C2268.46 1831 2269.16 1855.28 2282 1873M1428 1530L2213 1531M2944 2346C2909.36 2468.07 2882.48 2591.59 2838.25 2711C2827.34 2740.44 2816.73 2769.85 2805.05 2799C2801.05 2808.98 2796.85 2827.29 2788.61 2834.44C2783.06 2839.25 2771.02 2840.37 2764 2842.13C2744.4 2847.03 2724.83 2852.03 2705 2856C2624.82 2872.03 2543.65 2880 2462 2880C2234.68 2880 2007.23 2879 1780 2879C1727.72 2879 1675.1 2880.66 1623 2877.09C1580.75 2874.2 1538.67 2869.59 1500 2850.74C1471.21 2836.71 1449.33 2814.33 1427 2792"/>
</svg>
