<?xml version="1.0" standalone="yes"?>
<svg width="4000" height="4500">
<path style="stroke:none;fill:none;" d="M1995 1L1942 14.3735L1825 41.5757L1776 52.4204L1736 78.8096L1670 122M2156 2C2202.94 11.6875 2249.19 25.1807 2296 35.5757C2321.01 41.1299 2351.49 43.3535 2375 53.3896C2384.68 57.5205 2393.2 65.3892 2402 71.0601C2428.12 87.8823 2453.82 105.917 2481 121M2414 415C2452.89 423.023 2493.5 418.311 2533 420.039C2614.8 423.619 2700.04 432.232 2768 483.126C2784.52 495.494 2806.27 511.379 2817.4 529C2820.29 533.587 2819 540.799 2819 546L2819 584L2819 730L2819 1273L2819 2095L2819 2337L2819 2408C2819 2417.29 2821.62 2431.26 2818.4 2440C2813.78 2452.51 2794.39 2465.61 2785 2475L2745 2515C2739 2521 2732.71 2529.66 2725 2533.43C2703.35 2544.03 2676.16 2549.79 2653 2556.58C2643.11 2559.47 2629.49 2561.56 2621 2567.51C2600.63 2581.77 2582.96 2601.42 2564 2617.57C2521.28 2653.97 2476.79 2688.44 2430 2719.48C2311.03 2798.42 2170.71 2846.46 2029 2860.17C1999.42 2863.03 1968.76 2867.26 1939 2865.96C1852.12 2862.16 1767.99 2847.23 1688 2811.86C1616.69 2780.33 1550.99 2740.17 1490 2691.49C1443.38 2654.28 1400.72 2610.43 1364.52 2563C1300.96 2479.7 1264.83 2377.13 1241.5 2276C1195.2 2075.32 1198 1869.92 1198 1665L1198 1190L1198 707L1198 578L1198 543C1198 538.275 1196.97 532.176 1199.6 528C1205.99 517.89 1218.02 508.53 1227 500.718C1252.13 478.849 1279.98 462.611 1311 450.573C1375.23 425.642 1445.77 420.685 1514 419.015C1560.84 417.868 1607.57 421.253 1654 415M2819 529C2838.2 509.798 2857.44 490.673 2880 475.344C2929.21 441.904 2986.51 427.83 3045 422.17C3101.86 416.667 3162.12 426.53 3218 415M745 417C870.352 426.898 1006.49 404.69 1122 467.309C1151.58 483.343 1174.45 506.454 1198 530M2818 2442C2831.96 2456.13 2825 2491.88 2825 2511L2825 2642C2825 2659.27 2820.52 2684.69 2826.6 2701C2829.46 2708.64 2841.58 2716.05 2848 2720.7C2863.9 2732.22 2878.54 2744.8 2896 2754.12C2940.22 2777.7 2987.74 2775.47 3036 2772.09C3073.65 2769.45 3111.45 2766.59 3149 2762.83C3169.56 2760.78 3190.37 2756.89 3211 2756M2825 2703C2804.8 2739.42 2780.92 2773.79 2760.34 2810C2743.02 2840.46 2727.86 2875.18 2705 2902"/>
</svg>
