<?xml version="1.0" standalone="yes"?>
<svg width="4000" height="4500">
<path style="stroke:none;fill:none;" d="M1883 1C1905.99 8.78223 1932.23 11.1733 1956 16.4243C1999.43 26.0161 2042.57 36.832 2086 46.4243C2122.83 54.5586 2159.8 62.1753 2197 68.4136C2215.11 71.4502 2234.58 76.6235 2253 76.1152C2289.25 75.1152 2328.05 65.3057 2363 56.1157C2377.45 52.3169 2392.26 46.1763 2407 44M1538 106C1541.6 90.3047 1547.59 74.9194 1553.55 60C1555.88 54.1821 1557.52 47.0889 1561.64 42.2129C1567.25 35.5679 1579.26 32.2373 1587 28.6914C1608.32 18.9312 1632.62 6.45264 1656 3M1965 374.424C1987.63 371.455 2012.31 373.967 2035 374.96C2079.32 376.901 2123.01 379.247 2167 385.729C2539.02 440.542 2842.02 717.755 2981.45 1060C3037.97 1198.73 3069.77 1341.18 3084.17 1490C3089.56 1545.68 3098.41 1604.02 3095.96 1660C3074.97 2139.73 2814.93 2645.42 2352 2830.6C2285.73 2857.11 2214.74 2875.5 2144 2884.71C2033.4 2899.12 1920.67 2896.39 1811 2876.61C1627.18 2843.47 1449.67 2747.57 1316.09 2617.83C1250.22 2553.86 1194.83 2482.09 1142.38 2407C1015.85 2225.83 935.355 2006.22 910.827 1787C905.942 1743.34 900.021 1698.97 899.015 1655C898.439 1629.86 902.192 1604.07 903.911 1579C907.849 1521.54 913.016 1464.13 920.711 1407C946.608 1214.76 1005.34 1025.32 1108.87 860C1236.31 656.518 1443.85 498.237 1673 427.025C1735.75 407.524 1801.7 390.41 1867 382.285C1899.53 378.237 1932.72 378.661 1965 374.424"/>
</svg>
