<?xml version="1.0" standalone="yes"?>
<svg width="4000" height="4500">
<path style="stroke:none;fill:none;" d="M3044 380C2981.89 463.789 2912.14 542.683 2846.8 624C2842.05 629.918 2840.3 637.268 2835.72 643C2813.87 670.383 2782.71 690.332 2761.24 718C2750.19 732.232 2767.56 760.487 2756.68 775C2747.11 787.774 2733.29 798.711 2722 810C2711.1 820.903 2700.48 834.44 2688 843.501C2678.83 850.155 2664.91 849.835 2656.44 857.418C2641.7 870.615 2630.12 889.694 2617.58 905C2589.5 939.259 2561.55 973.625 2533.61 1008C2252.51 1353.91 1973.11 1701.27 1690.58 2046C1616.53 2136.35 1543.28 2227.35 1469.61 2318C1435.09 2360.49 1402.26 2405.23 1365.71 2445.98C1357.23 2455.44 1343.64 2454.92 1334 2462.39C1314.05 2477.86 1296.86 2499.14 1279 2517C1271.09 2524.91 1258.05 2533.96 1253.03 2544C1250.93 2548.2 1252 2554.43 1252 2559C1252 2570.69 1249.48 2585.67 1252.32 2597C1253.97 2603.61 1262.36 2609.36 1267 2614C1274.98 2621.98 1283.21 2633.22 1293 2638.91C1301.3 2643.75 1312.01 2644.37 1320 2649.7C1338.33 2661.92 1353.94 2680.58 1371 2694.68C1406.04 2723.63 1442.82 2749.96 1481 2774.55C1623.22 2866.15 1789.25 2920.35 1958 2931.91C2005.74 2935.18 2054.38 2932.35 2102 2929.09C2220.02 2921.01 2333.83 2900.92 2442 2850.11C2501.25 2822.28 2557.3 2787.54 2609 2747.43C2652.38 2713.77 2693.95 2676.76 2730.83 2636C2782.41 2578.99 2827.95 2518.02 2867.35 2452C2974.74 2272.05 3025.51 2062.66 3046.17 1856C3051.1 1806.7 3054.71 1757.39 3058.09 1708C3059.59 1686.05 3062.89 1662.99 3061.96 1641C3058.18 1551.39 3049.69 1461.42 3034.32 1373C3009.3 1229 2967.46 1088.97 2901.97 958C2884.28 922.633 2864.82 888.23 2843.39 855C2834.19 840.732 2825.51 825.015 2814.48 812.055C2807.28 803.585 2794.14 804.221 2785 798.914C2775.2 793.223 2766.98 781.984 2759 774M1252 2545C1243.86 2536.86 1235.2 2524.74 1225 2519.28C1214.03 2513.4 1198.91 2513.75 1190.21 2503.98C1176.47 2488.56 1165.23 2469.34 1154.06 2452C1131.75 2417.36 1110.59 2382.49 1091.37 2346C1015.79 2202.5 972.292 2046.2 950.711 1886C942.738 1826.81 935.293 1764.76 936.004 1705C936.688 1647.5 943.291 1589.24 948.83 1532C974.738 1264.28 1046.78 987.244 1214.67 771C1266.67 704.019 1326.56 643.362 1393 590.715C1439.14 554.151 1488.63 520.29 1541 493.259C1608.5 458.417 1679.05 432.416 1753 414.884C1802.45 403.162 1852.57 399.364 1903 395.911C1954.1 392.411 2004.88 391.406 2056 394.911C2174.42 403.03 2292.99 426.979 2402 475.138C2480.69 509.903 2553.26 553.446 2621 606.517C2645.65 625.832 2667.75 648.001 2691.04 668.815C2698.74 675.7 2709.66 676.079 2718 681.699C2732.8 691.678 2745.38 708.378 2758 721M1252 2599L1164.14 2687L1157.2 2702L1141.39 2722L996.611 2900L915 3000"/>
</svg>
