<?xml version="1.0" standalone="yes"?>
<svg width="4000" height="4500">
<path style="stroke:none;fill:none;" d="M2254 1C2229.43 8.77002 2201.38 9.84766 2176 14.4243C2108.49 26.5967 2040.66 37.2412 1973 48.5864C1946.67 53.002 1916.26 54.0122 1891 62.6089C1864.02 71.791 1836.5 89.5498 1812 104M2414 415C2453.22 423.091 2494.17 418.296 2534 420.039C2615.44 423.603 2700.38 432.489 2768 483.126C2784.52 495.494 2806.27 511.379 2817.4 529C2820.29 533.587 2819 540.799 2819 546L2819 584L2819 730L2819 1273L2819 2095L2819 2337L2819 2408C2819 2417.29 2821.62 2431.26 2818.4 2440C2813.78 2452.51 2794.39 2465.61 2785 2475L2745 2515C2739 2521 2732.71 2529.66 2725 2533.43C2703.35 2544.03 2676.16 2549.79 2653 2556.58C2643.11 2559.47 2629.49 2561.56 2621 2567.51C2600.21 2582.06 2582.43 2602.19 2563 2618.56C2520.43 2654.43 2476.41 2688.69 2430 2719.48C2311.03 2798.41 2170.72 2846.46 2029 2860.17C1999.43 2863.03 1968.74 2867.26 1939 2865.96C1851.9 2862.15 1766.99 2847.37 1687 2811.31C1549.07 2749.13 1419.48 2653.65 1337.81 2524C1249.6 2383.98 1223.46 2214.43 1207.83 2053C1195.75 1928.25 1198 1802.45 1198 1677L1198 1190L1198 707L1198 578L1198 543C1198 538.275 1196.97 532.176 1199.6 528C1205.99 517.89 1218.02 508.53 1227 500.718C1252.13 478.849 1279.98 462.611 1311 450.573C1375.23 425.642 1445.77 420.685 1514 419.015C1560.84 417.868 1607.57 421.253 1654 415M2819 529C2838.76 509.24 2858.59 489.512 2882 474.004C2934.78 439.038 2996.66 425.357 3059 421.089C3111.19 417.516 3166.75 425.575 3218 415M745 417C870.348 426.898 1006.5 404.693 1122 467.309C1151.58 483.343 1174.45 506.454 1198 530M2818 2442C2831.96 2456.13 2825 2491.88 2825 2511L2825 2642C2825 2659.27 2820.52 2684.69 2826.6 2701C2829.47 2708.69 2841.59 2715.98 2848 2720.71C2863.8 2732.35 2878.57 2744.82 2896 2754.12C2940.22 2777.7 2987.74 2775.47 3036 2772.09C3073.99 2769.43 3112.1 2766.5 3150 2762.83C3170.28 2760.87 3190.66 2756.87 3211 2756M2825 2703C2804.8 2739.42 2780.92 2773.8 2760.34 2810C2743.03 2840.45 2727.85 2875.19 2705 2902"/>
</svg>
