<?xml version="1.0" standalone="yes"?>
<svg width="4000" height="4500">
<path style="stroke:none;fill:none;" d="M780 424C809.597 429.741 840.955 427.724 871 429.039C950.111 432.501 1035.55 440.928 1108 475.219C1137.77 489.308 1169.62 509.22 1189.68 536C1195.89 544.282 1192 564.923 1192 575L1192 680L1192 1082L1192 1722C1192 1924.17 1187.03 2130.36 1235.41 2328C1257.75 2419.26 1287.22 2510.21 1339.89 2589C1375.54 2642.33 1420.33 2690.04 1469 2731.7C1534.3 2787.59 1607.83 2828.33 1686 2862.86C1760.93 2895.96 1846.52 2912.33 1928 2917.91C1970.13 2920.8 2012.92 2918.97 2055 2916.09C2120.27 2911.62 2184.37 2907.29 2249 2895.92C2316.68 2884 2381.22 2860.82 2444 2833.42C2635.76 2749.75 2748.72 2568.06 2805.42 2374C2853.02 2211.11 2863.89 2042.56 2868.01 1874C2871.54 1729.82 2871 1585.39 2871 1441L2871 1095L2871 638C2871 599.264 2870.01 560.625 2870 522L2870 493C2870 489.504 2869.12 484.487 2871.6 481.634C2876.68 475.808 2887.14 472.897 2894 469.769C2914.9 460.234 2936.79 453.16 2959 447.371C3009.46 434.215 3060.29 430.63 3112 427.089C3150.47 424.456 3186.91 425.863 3225 418M1192 537C1229.55 499.45 1271.36 470.852 1322 454.039C1382.63 433.909 1446.11 435.66 1508 424M2632 425C2648.09 431.789 2669.77 429.453 2687 432.324C2731.38 439.717 2776.1 446.033 2819 460.333C2836.09 466.03 2855.53 471.97 2870 483"/>
</svg>
