<?xml version="1.0" standalone="yes"?>
<svg width="4000" height="4500">
<path style="stroke:none;fill:none;" d="M1921 347.424C1931.24 346.08 1941.81 347.812 1952 348.831C1975.8 351.211 1999.15 354.054 2022 361.481C2048.76 370.179 2073.53 383.14 2096 400.129C2133.96 428.828 2166.08 468.08 2184.67 512C2228.2 614.872 2204.92 741.079 2126 820C2107.76 838.24 2088.77 854.848 2066 867.231C2039.2 881.802 2010.35 891.848 1980 895.841C1922.33 903.428 1857.62 900.828 1805 873.111C1752.63 845.529 1709.54 802.076 1683.37 749C1647.15 675.51 1647.33 575.929 1682.12 502C1700.09 463.801 1728.32 429.978 1761 403.46C1790.45 379.562 1825.77 362.062 1863 354.45C1882.23 350.517 1901.64 349.966 1921 347.424M2376 2955L2404.25 2894L2453 2806C2433.98 2806 2413.91 2804.15 2395 2806.17C2374.45 2808.38 2353.25 2816.13 2333 2820.58C2319.02 2823.65 2303.51 2824.41 2290 2829.1C2273.15 2834.95 2257.49 2846.62 2241 2853.83C2207.49 2868.49 2172.6 2879.44 2137 2887.66C2087.43 2899.12 2035.67 2904.54 1985 2908.09C1961.71 2909.72 1937.33 2913.92 1914 2912.9C1757.99 2906.03 1606.93 2832.76 1499.29 2720.83C1441.07 2660.29 1397.79 2587.4 1363.83 2511C1310.06 2390.05 1281.25 2254.22 1278.01 2122C1276.68 2067.5 1286.04 2011.16 1291.83 1957C1300.87 1872.63 1316.62 1789.59 1343.48 1709C1394.1 1557.16 1489.69 1410.18 1631 1328.87C1720.45 1277.41 1817.35 1260.49 1919 1256.04C2037.09 1250.87 2152.56 1284.81 2250 1351.22C2277.08 1369.67 2301.88 1391.12 2325.96 1413.29C2334.8 1421.42 2342.36 1432.22 2352.17 1439.18C2360.74 1445.27 2373.3 1448.01 2383 1452.01C2403.11 1460.31 2423.17 1468.75 2443 1477.69C2455.64 1483.39 2475.29 1495.14 2480.4 1509C2482.86 1515.7 2481 1525.91 2481 1533L2481 1587L2481 1770L2481 2390L2481 2661C2481 2684.37 2482 2707.61 2482 2731C2482 2738.69 2480.54 2753.76 2485.32 2759.99C2492.35 2769.14 2503.79 2775.69 2513 2782.39C2588.23 2837.08 2689.34 2813.46 2775 2805.17C2810.34 2801.75 2847.1 2801.48 2882 2795M2573 1267C2572.27 1283.93 2567.24 1301.49 2563.67 1318C2557.74 1345.37 2552.09 1372.77 2545.37 1400C2541.23 1416.79 2540.13 1439.83 2531.86 1455C2528.11 1461.88 2520.49 1467.51 2515 1473L2481 1507M2484 2759L2453 2806"/>
</svg>
