<?xml version="1.0" standalone="yes"?>
<svg width="4000" height="4500">
<path style="stroke:none;fill:none;" d="M1126 1316C1142.1 1313.83 1157.65 1309.21 1174 1308.09C1207.5 1305.8 1240.63 1306.88 1274 1301.73C1308.61 1296.38 1342.24 1285.64 1375 1273.53C1390.32 1267.86 1405.29 1260.38 1421 1255.88C1426.84 1254.21 1439.69 1252.84 1443.4 1247.85C1446.92 1243.11 1445.84 1229.9 1445.99 1224C1446.49 1203.36 1445.14 1182.63 1446.04 1162C1449.47 1083.7 1452.33 1006.07 1460.17 928C1464.52 884.69 1472.89 841.597 1481.71 799C1496.75 726.469 1516.55 653.003 1546.28 585C1607.3 445.471 1722.39 311.356 1870 261.667C1907.27 249.122 1945.83 239.274 1985 235.17C2088.41 224.335 2195.13 221.071 2292 265.387C2408.53 318.698 2477.41 430.391 2504.42 552C2509.84 576.369 2518.49 602.935 2518.98 628C2519.65 661.707 2509.39 699.049 2502.8 732C2482.93 831.374 2449.5 923.575 2390.58 1007C2331.08 1091.24 2253.88 1163.23 2175 1229.08C2164.86 1237.54 2150.27 1246.22 2142.65 1257C2132.59 1271.22 2128.73 1293.7 2122.58 1310C2119.32 1318.64 2109.46 1334.85 2111.53 1344C2114.26 1356.04 2120.46 1375.93 2127.7 1385.91C2133.79 1394.29 2145.92 1399.99 2154 1406.38C2174.32 1422.41 2194.95 1438.03 2215 1454.42C2293.7 1518.78 2370.7 1586.32 2439.91 1661C2532.28 1760.67 2615.55 1875.5 2664.98 2003C2689.6 2066.5 2703.51 2132.69 2712.28 2200C2715.57 2225.28 2720.36 2251.52 2720.99 2277C2721.84 2311.98 2714.31 2348.3 2710.16 2383C2700.67 2462.22 2685.78 2541.67 2659.14 2617C2628.02 2704.97 2579.86 2787.38 2511 2851.09C2473.18 2886.07 2428.47 2915.84 2378 2928.63C2357.32 2933.86 2336.15 2934.64 2315 2936.09C2256.34 2940.11 2193.68 2934.62 2137 2918.43C2106.21 2909.63 2075.31 2897.29 2051.29 2875.49C2024.86 2851.51 2015.46 2819.34 2007.13 2786C2000.86 2760.91 1995.01 2735.51 1990.75 2710C1987.77 2692.11 1980.51 2670.14 1982.25 2652C1983.95 2634.23 1997.83 2620.33 2003 2604M1445 1250C1445 1622.56 1446 1995.35 1446 2368L1446 2679L1446 2765C1446 2775.21 1443.3 2792.76 1448.03 2801.99C1451.01 2807.8 1458.9 2812.06 1464 2815.87C1478.97 2827.08 1494.69 2836.76 1511 2845.86C1554.43 2870.09 1603.15 2886.9 1652 2895.83C1682.08 2901.33 1712.78 2901.1 1743 2905M2004 1342L2110 1342M1447 2802C1382.89 2866.11 1304.2 2894.8 1215 2900.91C1187.94 2902.76 1160.1 2902.87 1133 2903C1115.63 2903.08 1097.81 2901.23 1081 2906"/>
</svg>
