<?xml version="1.0" standalone="yes"?>
<svg width="4000" height="4500">
<path style="stroke:none;fill:none;" d="M1933 475C1933.81 485.633 1954.4 490.341 1963 494.14C1975.19 499.526 1991.36 503.377 2001.96 511.499C2015.34 521.753 2025.73 540.137 2036.7 553C2101.86 629.418 2171.85 702.009 2244.09 771.831C2281.03 807.538 2319.67 841.67 2356 878M1933 480C1916.79 491.084 1895.03 496.96 1877 504.719C1870.9 507.344 1863.3 509.19 1858.09 513.418C1843.54 525.229 1831.73 543.73 1819.57 558C1797.15 584.312 1773.46 609.705 1749.91 635C1671.42 719.301 1589.08 801.459 1503 878M2376 2955L2404.25 2894L2453 2806C2433.98 2806 2413.91 2804.15 2395 2806.17C2374.45 2808.38 2353.25 2816.13 2333 2820.58C2319.02 2823.65 2303.51 2824.41 2290 2829.1C2273.15 2834.95 2257.49 2846.62 2241 2853.83C2207.47 2868.5 2172.63 2879.43 2137 2887.66C2090.73 2898.35 2043.15 2902.61 1996 2907.17C1969.34 2909.75 1940.77 2914.07 1914 2912.9C1758 2906.04 1606.92 2832.76 1499.29 2720.83C1441.06 2660.28 1397.8 2587.4 1363.83 2511C1310.07 2390.07 1281.25 2254.22 1278.01 2122C1276.68 2067.5 1286.04 2011.16 1291.83 1957C1300.86 1872.66 1316.54 1789.54 1343.48 1709C1394.3 1557.15 1489.57 1410.24 1631 1328.87C1720.44 1277.41 1817.37 1260.49 1919 1256.04C2037.11 1250.87 2152.54 1284.82 2250 1351.22C2277.08 1369.66 2301.89 1391.12 2325.96 1413.29C2334.8 1421.42 2342.36 1432.22 2352.17 1439.18C2359.69 1444.52 2370.52 1446.87 2379 1450.42C2400.39 1459.4 2421.85 1468.16 2443 1477.69C2455.64 1483.39 2475.29 1495.14 2480.4 1509C2482.86 1515.7 2481 1525.91 2481 1533L2481 1587L2481 1770L2481 2391L2481 2661C2481 2684.37 2482 2707.61 2482 2731C2482 2738.69 2480.54 2753.76 2485.32 2759.99C2492.35 2769.14 2503.79 2775.69 2513 2782.39C2588.23 2837.08 2689.34 2813.46 2775 2805.17C2810.34 2801.75 2847.09 2801.48 2882 2795M2573 1267C2572.27 1283.93 2567.24 1301.49 2563.67 1318C2557.74 1345.37 2552.18 1372.79 2545.37 1400C2541.17 1416.81 2540.15 1439.81 2531.86 1455C2528.11 1461.88 2520.49 1467.51 2515 1473L2481 1507M2484 2759L2453 2806"/>
</svg>
