<?xml version="1.0" standalone="yes"?>
<svg width="4000" height="4500">
<path style="stroke:none;fill:none;" d="M2235 1C2205.58 10.3042 2171.48 12.0317 2141 17.0801C2080.32 27.1323 2019.67 37.4136 1959 47.5864C1932 52.1143 1900.99 53.416 1875 61.8354C1865.67 64.8579 1856.76 70.9927 1848 75.3989C1832.93 82.981 1816.7 90.0791 1803 100M911 421C959.201 431.078 1009.02 425.732 1058 429.089C1100.27 431.987 1139.95 442.985 1180 456.333C1219.97 469.657 1260.03 484.935 1298 503.259C1310.56 509.318 1323.2 515.468 1336 521C1339.88 522.679 1345.68 527.126 1350 526.759C1358.47 526.041 1371.14 507.859 1377 502C1397.87 481.13 1419.93 450.235 1448 439.205C1474.79 428.677 1505.68 428.678 1534 427.985C1581.87 426.814 1630.26 428.77 1678 425M3092 421C3085.08 425.247 3076.86 425.345 3069 426.285C3049.52 428.615 3029.58 426.182 3010 427.039C2944.55 429.903 2880.78 430.848 2817 448.576C2802.51 452.603 2788.13 456.783 2774 461.947C2768.79 463.85 2761.52 464.852 2757.3 468.649C2750.07 475.168 2748.54 494.789 2746.12 504C2737.51 536.711 2732.23 570.521 2722.99 603C2713.89 634.948 2696.03 665.936 2680.31 695C2657.14 737.84 2634.86 781.164 2611.69 824C2513.62 1005.34 2417.38 1187.67 2319.31 1369C2285.82 1430.92 2252.8 1493.09 2219.31 1555C2208.52 1574.94 2198.09 1595.06 2187.31 1615C2182.11 1624.61 2178.02 1636.32 2171.21 1644.9C2166.1 1651.33 2156.12 1653.71 2149 1657.25C2130.84 1666.26 2111.4 1673.94 2094 1684.35C2085.25 1689.58 2078.16 1698.84 2071 1706L2028 1749C2015.48 1736.48 1999.93 1724.3 1989.5 1710C1980.66 1697.89 1974.12 1683.01 1966.58 1670C1952.38 1645.55 1937.81 1621.32 1923.4 1597C1875.84 1516.79 1828.95 1436.21 1781.4 1356C1705.69 1228.31 1631.87 1099.47 1555.8 972C1522.12 915.561 1489.27 858.667 1455.99 802C1431.42 760.179 1403.49 718.373 1385.91 673C1378.87 654.825 1375.77 635.007 1371.58 616C1365.17 586.983 1358 558.104 1352 529M2482 424C2503.77 428.492 2525.87 426.741 2548 427.004C2584.24 427.435 2620.85 427.436 2657 429.911C2679.86 431.476 2704.1 431.865 2725 442.785C2737.27 449.198 2746.34 459.336 2756 469M2028 1749L2028 2525L2028 2723L2028 2773C2028 2779.91 2029.6 2788.37 2024.85 2794C1955.41 2876.23 1835.65 2900.78 1733 2902C1700.97 2902.38 1669.01 2903 1637 2903C1616.58 2903 1594.93 2900.84 1575 2906M2028 2792C2049.09 2813.09 2070.29 2833.13 2096 2848.55C2169.89 2892.89 2259.26 2898.29 2343 2901.96C2377.3 2903.46 2411.76 2900.57 2446 2902.91C2460.37 2903.89 2475.68 2901.01 2489 2908"/>
</svg>
