<?xml version="1.0" standalone="yes"?>
<svg width="4000" height="4500">
<path style="stroke:none;fill:none;" d="M1050 423C1060.75 427.564 1073.53 427 1085 427C1105.52 427 1126.53 425.688 1147 427.089C1247.25 433.953 1352.65 426.023 1442 481.95C1459.23 492.732 1474.65 505.648 1489 520C1494.31 525.308 1501.38 530.63 1505.4 537C1510.51 545.105 1507 563.572 1507 573L1507 664L1507 1005L1507 2280L1507 2653L1507 2753C1507 2763.08 1510.85 2783.36 1505.4 2792C1499.49 2801.36 1488.34 2810.22 1480 2817.42C1456.72 2837.54 1431.22 2853.11 1403 2865.28C1291.84 2913.21 1172.06 2895.76 1055 2905M1507 537C1530.88 513.121 1554.03 490.52 1584 474.309C1699.14 412.028 1834.1 433.941 1959 424M1508 957C1811.52 957 2136.83 869.434 2422 1015.98C2468.77 1040.01 2512.88 1070.29 2550.57 1107.08C2646.39 1200.61 2693.73 1331.69 2715.41 1461C2721.37 1496.53 2729.25 1533.92 2729.95 1570C2730.45 1596.03 2723.98 1624.24 2720.27 1650C2712.43 1704.41 2703.01 1758.31 2687.2 1811C2646.56 1946.48 2568.42 2074.6 2449 2153.92C2277.27 2267.99 2070.84 2289.75 1870 2280.96C1817.46 2278.66 1766.15 2271.39 1714 2266.17C1645.78 2259.35 1576.63 2259 1508 2259M1507 2792C1526.12 2811.12 1544.9 2830.18 1568 2844.57C1643.7 2891.72 1734.34 2898.17 1821 2901.96C1855.63 2903.48 1890.43 2900.54 1925 2902.91C1939.48 2903.9 1954.47 2901.21 1968 2908"/>
</svg>
