<?xml version="1.0" standalone="yes"?>
<svg width="4000" height="4500">
<path style="stroke:none;fill:none;" d="M1786 397C1793.78 397.619 1807.01 398.161 1813.83 402.024C1823.7 407.616 1832.84 424.92 1839.58 434C1858.1 458.946 1877.39 483.376 1896.34 508C1983.92 621.849 2071.71 735.489 2161 848M2456 2942L2486.26 2878L2527 2806C2507.87 2806 2486.94 2803.59 2468 2806.3C2448.6 2809.07 2429.25 2816.01 2410 2820C2395.22 2823.06 2378.14 2823.95 2364 2829.13C2347.19 2835.29 2331.43 2846.45 2315 2853.84C2281.71 2868.83 2246.5 2879.52 2211 2887.76C2161.82 2899.19 2110.28 2904.57 2060 2908.09C2036.39 2909.74 2011.65 2913.94 1988 2912.9C1832.47 2906.06 1677.89 2832.58 1572.09 2719C1425.38 2561.5 1357.21 2333.23 1352.01 2121C1350.7 2067.21 1360.11 2011.46 1365.83 1958C1373.99 1881.84 1387.21 1806.25 1409.98 1733C1464.14 1558.72 1571.65 1392.31 1740 1310.26C1819.93 1271.3 1906.35 1259.88 1994 1256.04C2111.45 1250.9 2228.58 1284.71 2325 1351.77C2348 1367.77 2370.19 1385.38 2390.71 1404.46C2402.53 1415.45 2413.29 1429.7 2426.29 1439.18C2434.92 1445.48 2448.09 1448.43 2458 1452.4C2477.5 1460.21 2496.79 1468.65 2516 1477.14C2529.01 1482.89 2549.15 1494.77 2554.4 1509C2556.86 1515.7 2555 1525.91 2555 1533L2555 1587L2555 1770L2555 2390L2555 2662C2555 2686.92 2553.33 2714.31 2556.58 2739C2557.36 2744.97 2554.74 2755.47 2558.6 2760.37C2564.98 2768.46 2576.75 2774.69 2585 2780.83C2660.71 2837.19 2762.26 2813.56 2849 2805.17C2884.34 2801.75 2921.09 2801.48 2956 2795M2648 1262C2647.37 1276.58 2643.31 1291.69 2640.45 1306C2634.42 1336.15 2627.74 1366.13 2620.37 1396C2615.92 1414.05 2614.76 1438.68 2605.86 1455C2602.11 1461.88 2594.49 1467.51 2589 1473L2555 1507M2557 2760L2527 2806"/>
</svg>
