<?xml version="1.0" standalone="yes"?>
<svg width="4000" height="4500">
<path style="stroke:none;fill:none;" d="M1660 388C1684.35 388.503 1709.88 393.291 1734 396.729C1742.33 397.916 1756.73 397.834 1763.71 402.718C1776.02 411.326 1785.25 430.073 1794.55 441.83C1821.23 475.532 1847.35 509.752 1873.33 544C1928.78 617.08 1985.4 689.293 2041.34 762C2063.66 791.019 2088.64 818.291 2110 848M1648 1380C1663.36 1379.68 1678.74 1375.7 1694 1374.17C1726.94 1370.88 1760.04 1369.02 1793 1365.83C1846.31 1360.67 1895.8 1357.7 1945 1383.41C1961.05 1391.79 1975.64 1401.85 1990 1412.83C1995.75 1417.23 2004.37 1421.64 2007.97 1428.17C2011.83 1435.15 2010 1449.15 2010 1457L2010 1522L2010 1762L2010 2353C2010 2485.74 2002.02 2627.42 2044.68 2755C2062.88 2809.41 2095.43 2862.38 2153 2880.81C2166.97 2885.28 2181.68 2882.87 2196 2881.16C2220.1 2878.27 2244.06 2874.43 2268 2870.41C2309.97 2863.38 2353.34 2856.24 2394 2843.49C2441.69 2828.53 2485.8 2804.72 2527 2776.74C2542.68 2766.09 2559.27 2755.13 2573 2742"/>
</svg>
