<?xml version="1.0" standalone="yes"?>
<svg width="4000" height="4500">
<path style="stroke:none;fill:none;" d="M2000 472C2000.04 483.333 2008.83 485.089 2018 489.14C2033.82 496.129 2053.62 501.285 2067.91 510.994C2080.72 519.706 2091.55 539.096 2101.7 551C2166.7 627.236 2236.32 699.061 2308 769.015C2345.52 805.626 2382.59 844.6 2423 878M1570 878L1656 796.961L1808.96 643L1885.73 558L1924.17 513.499L1950 501.989L1999 481M2465 1853C2445.04 1872.96 2424.85 1899.79 2399 1912.22C2370.19 1926.07 2337.15 1925 2306 1925L2175 1925L1656 1925L1510 1925L1467 1925C1460.96 1925 1452.71 1926.44 1447 1924.26C1433.65 1919.16 1420.05 1899.05 1410 1889C1406.22 1885.22 1400.27 1881 1398.12 1876C1396.03 1871.15 1399.16 1863.04 1399.87 1858C1402.03 1842.61 1404.82 1827.29 1407.58 1812C1411.59 1789.75 1414.41 1766.94 1419.9 1745C1429.6 1706.17 1444.68 1667.65 1460.58 1631C1497.47 1545.95 1549.83 1462.75 1619 1400.17C1677.86 1346.92 1748.17 1304.46 1824 1280.19C1924.58 1248.01 2041.83 1247.51 2143 1276.71C2171.49 1284.93 2199.82 1297.87 2225 1313.47C2257.13 1333.36 2288 1355.19 2313.91 1383C2387 1461.47 2419.45 1566.4 2440.71 1669C2449.76 1712.63 2455.09 1757.73 2459.83 1802C2461.15 1814.33 2462.24 1826.69 2463.71 1839C2464.33 1844.15 2463.65 1850.53 2467.32 1854.7C2472.74 1860.86 2481.43 1865.45 2488 1870.37C2501.85 1880.76 2515.65 1891.22 2529 1902.25C2536.64 1908.56 2546.45 1920.62 2556 1923.49C2562.24 1925.36 2570.52 1924 2577 1924L2621 1924C2658.24 1924 2695.88 1925.45 2733 1922.91C2755.11 1921.4 2776.97 1914.95 2799 1914M2582 2656C2519.65 2718.36 2455.43 2776.93 2376 2817.14C2288.17 2861.6 2193.21 2881.76 2096 2892.17C2057.31 2896.31 2016.92 2902.7 1978 2901.95C1942.52 2901.26 1905.48 2894.3 1871 2886.12C1770.73 2862.31 1678.52 2808.9 1602.04 2740.7C1546.86 2691.49 1502.45 2631.97 1465.87 2568C1396.05 2445.88 1362.44 2300.98 1359.01 2161C1358.05 2121.64 1364.04 2082.18 1366.91 2043C1369.94 2001.65 1374.7 1959.91 1381.56 1919C1383.72 1906.14 1383.18 1883.67 1396 1877"/>
</svg>
