<?xml version="1.0" standalone="yes"?>
<svg width="4000" height="4500">
<path style="stroke:none;fill:none;" d="M986 1588C991.031 1573.17 993.221 1557.13 997.424 1542C1006.81 1508.22 1017.2 1474.81 1029.58 1442C1040.27 1413.64 1051.37 1387.96 1073.09 1366.02C1125.96 1312.61 1206.99 1283.48 1279 1267.58C1451.13 1229.56 1653.4 1237.29 1786.84 1367.27C1826.74 1406.13 1856.78 1453.69 1880.05 1504C1886.99 1519.02 1892.93 1534.47 1898.59 1550C1901.32 1557.5 1903.14 1567.38 1907.58 1574C1918.53 1590.31 1942.09 1603.05 1957 1615.87C1962.05 1620.21 1972.25 1625.82 1973.11 1633C1975.68 1654.58 1969.99 1679.28 1969.04 1701C1966.78 1752.69 1965 1804.15 1965 1856L1965 1912C1965 1917.92 1962.97 1928.43 1966.6 1933.42C1981.11 1953.38 2003.53 1970.53 2021 1988C2027.35 1994.35 2035.46 2006.25 2044 2009.4C2050 2011.61 2057.85 2009.51 2064 2009.09C2075.58 2008.3 2087.41 2008.55 2099 2008.04C2143.09 2006.11 2186.97 2005.1 2231 2002.09C2363.63 1993.01 2495.94 1979.07 2627 1955.42C2722.56 1938.18 2822.74 1914.54 2906 1862.57C2949.93 1835.15 2989.63 1797.84 3012.88 1751C3024.84 1726.91 3031.38 1700.96 3037.87 1675C3042.58 1656.16 3050.02 1634.5 3050.28 1615C3050.56 1594.14 3040.99 1569.02 3035.42 1549C3021.84 1500.1 3008.78 1453.42 2976.39 1413C2905.1 1324.04 2787.94 1273.91 2677 1260.29C2510.85 1239.88 2341.17 1279.26 2218 1397.04C2187.81 1425.91 2160.32 1458.52 2136.75 1493C2128.2 1505.49 2119.72 1518.02 2111.92 1531C2107.92 1537.65 2104.61 1546.33 2098.81 1551.62C2087.85 1561.64 2070.85 1567.96 2058 1575.42C2029.19 1592.14 1999.43 1609.68 1973 1630M1965 1933C1959.59 1940.52 1962 1953.05 1962 1962C1962 1984.99 1961.7 2008.01 1961.99 2031C1963.1 2118.79 1957.95 2207.46 1963.91 2295C1968.22 2358.27 1967.36 2421.69 1973.83 2485C1975.33 2499.59 1976.89 2514.38 1977.91 2529C1978.37 2535.56 1977.67 2546 1981.03 2551.81C1985.38 2559.36 2000.59 2564.89 2008 2569.15C2027.34 2580.25 2047.05 2590.78 2067 2600.75C2076.14 2605.32 2089.37 2609.31 2096.18 2617.1C2116.04 2639.85 2131.76 2666.79 2151.46 2689.96C2195.4 2741.65 2248.92 2786.52 2307 2821.55C2387.85 2870.32 2481.92 2896.84 2576 2900.96C2620.18 2902.9 2666.32 2895.56 2710 2889.27C2794.74 2877.06 2877.62 2853.96 2951 2808.47C2999.55 2778.37 3042.8 2740.64 3081.59 2698.83C3098.71 2680.38 3113.01 2659.45 3130 2641M1980 2552C1960.6 2571 1938.4 2587.9 1917 2604.58C1907.67 2611.85 1895.15 2618.25 1887.39 2627.17C1878.16 2637.8 1873.22 2655.62 1866.15 2668C1851.32 2693.98 1834.41 2718.78 1815.54 2742C1742.36 2832.02 1631.26 2893.74 1516 2907.71C1382.91 2923.85 1231.17 2919.1 1112 2850.12C1051.21 2814.94 1001.47 2760.44 973.284 2696C960.109 2665.88 952.623 2634.12 946.2 2602C941.824 2580.12 935.486 2556.37 935.054 2534C934.493 2504.9 943.76 2472.35 949.789 2444C958.011 2405.34 967.511 2368.25 988.089 2334C1048.25 2233.86 1159.12 2174.9 1264 2132.55C1357.47 2094.8 1456.79 2072.2 1556 2055.56C1690.65 2032.98 1824.68 2025 1961 2025"/>
</svg>
