<?xml version="1.0" standalone="yes"?>
<svg width="4000" height="4500">
<path style="stroke:none;fill:none;" d="M1768 844C1863.64 734.179 1956.02 620.719 2047 507C2068.56 480.049 2090.96 453.768 2112.74 427C2120.57 417.375 2130.37 399.096 2141.17 393.028C2150.18 387.969 2168.71 388.812 2179 388M1581 1380C1596.67 1379.87 1612.41 1375.68 1628 1374.17C1657.29 1371.32 1686.7 1369.67 1716 1366.83C1742.77 1364.24 1770.04 1359.86 1797 1361.04C1832.35 1362.59 1867.57 1374.71 1897 1394.06C1910.64 1403.04 1932.46 1414.02 1941.4 1428C1944.81 1433.34 1942.63 1441.91 1943.42 1448C1946.49 1471.33 1944 1496.47 1944 1520L1944 1761L1944 2238C1944 2344.67 1942.3 2451.57 1946.96 2558C1949.91 2625.38 1957.3 2693.85 1979.5 2758C1993.74 2799.16 2014.44 2837.8 2051 2863.23C2063.74 2872.09 2080.44 2880.97 2096 2883.25C2117.77 2886.44 2143.44 2879.38 2165 2876.27C2225.3 2867.58 2288.64 2858.03 2346 2837.05C2405.63 2815.24 2458.9 2780.85 2508 2741"/>
</svg>
