<?xml version="1.0" standalone="yes"?>
<svg width="4000" height="4500">
<path style="stroke:none;fill:none;" d="M2665 2602C2646.97 2630.74 2625.23 2658.04 2603.44 2684C2546.47 2751.88 2481.4 2812.65 2402 2853.31C2350.26 2879.81 2296.1 2892.04 2239 2900.27C2198.25 2906.14 2157.07 2910.24 2116 2912.04C2093.61 2913.02 2069.27 2915.36 2047 2911.85C2041.27 2910.95 2039.08 2904.76 2034 2902.51C2024.41 2898.29 2012.16 2897.25 2002 2894.42C1962.14 2883.35 1923.9 2869.65 1887 2850.74C1753.12 2782.11 1652.73 2661.84 1587.98 2528C1539.46 2427.72 1513.52 2316.36 1502.83 2206C1500.13 2178.14 1496.34 2150 1496 2122C1495.33 2065.25 1503.8 2007.39 1509.83 1951C1522.8 1829.88 1549.87 1709.56 1604.65 1600C1672.28 1464.74 1780.87 1341.78 1925 1287.43C1972.75 1269.42 2022.47 1262.37 2073 1258.91C2102.02 1256.92 2130.89 1254.92 2160 1256.91C2213.99 1260.61 2268.78 1265.49 2319 1287.69C2391.79 1319.87 2445.83 1375.48 2482.49 1446C2505.1 1489.51 2517.13 1540.07 2548 1579M2043 2912C2035.42 2919.58 2022.99 2928.21 2018.43 2938C2014.62 2946.19 2014.41 2958.09 2012.92 2967C2009.23 2989.11 2007 3012.28 2001.49 3034C1996.13 3055.1 1983.14 3074.73 1975.32 3095C1971.47 3104.97 1970.88 3116.55 1968.8 3127C1965.56 3143.3 1962.67 3159.67 1959.61 3176C1958.65 3181.13 1955.2 3190.16 1957.77 3195C1964.61 3207.86 1975.98 3205 1988 3205L2065 3205C2085.15 3205 2105.98 3201.23 2126 3203.17C2176.39 3208.05 2230.35 3238.1 2259.91 3279C2275.08 3299.98 2280.87 3324.28 2286.87 3349C2289.43 3359.56 2293.67 3372.07 2293.1 3383C2292 3403.78 2284.1 3426.08 2278.42 3446C2270.64 3473.28 2261.83 3498.78 2243.54 3521C2220.8 3548.61 2187.48 3568.94 2155 3583.12C2067.97 3621.11 1965.44 3624.88 1873 3607.2C1832.53 3599.45 1794.73 3583.42 1755 3574M1956 3194C1926.59 3214.94 1893.03 3229.18 1866 3254"/>
</svg>
