<?xml version="1.0" standalone="yes"?>
<svg width="4000" height="4500">
<path style="stroke:none;fill:none;" d="M1859 845L1960.61 724L2124.92 524L2198.6 434L2221.73 406L2233.17 393.013L2248 390.83L2279 387.519L2388 383M2465 1853C2445.02 1872.98 2424.88 1899.78 2399 1912.22C2369.86 1926.22 2336.49 1925 2305 1925L2174 1925L1656 1925L1510 1925L1467 1925C1460.96 1925 1452.71 1926.44 1447 1924.26C1433.65 1919.16 1420.05 1899.05 1410 1889C1406.22 1885.22 1400.27 1881 1398.12 1876C1396.03 1871.15 1399.16 1863.04 1399.87 1858C1402.03 1842.61 1404.82 1827.29 1407.58 1812C1411.59 1789.73 1414.56 1767 1419.9 1745C1429.33 1706.17 1444.71 1667.58 1460.58 1631C1497.47 1545.95 1549.83 1462.75 1619 1400.17C1678.9 1345.97 1750.58 1302.99 1828 1279.03C1927.92 1248.1 2042.74 1248.1 2143 1276.71C2171.48 1284.84 2199.86 1297.9 2225 1313.47C2257.13 1333.36 2288 1355.19 2313.91 1383C2386.01 1460.4 2420.17 1565.34 2440.39 1667C2449.22 1711.43 2455.01 1756.99 2459.83 1802C2461.15 1814.33 2462.24 1826.69 2463.71 1839C2464.33 1844.15 2463.65 1850.53 2467.32 1854.7C2472.74 1860.86 2481.43 1865.45 2488 1870.37C2501.85 1880.76 2515.65 1891.22 2529 1902.25C2536.64 1908.56 2546.45 1920.62 2556 1923.49C2562.24 1925.36 2570.52 1924 2577 1924L2621 1924C2658.24 1924 2695.88 1925.45 2733 1922.91C2755.11 1921.4 2776.97 1914.95 2799 1914M2582 2656C2519.65 2718.36 2455.43 2776.93 2376 2817.14C2288.17 2861.6 2193.21 2881.76 2096 2892.17C2057.31 2896.31 2016.92 2902.7 1978 2901.95C1942.53 2901.26 1905.47 2894.3 1871 2886.12C1770.71 2862.31 1678.53 2808.91 1602.04 2740.7C1546.85 2691.49 1502.46 2631.99 1465.87 2568C1396.06 2445.89 1362.44 2300.98 1359.01 2161C1358.05 2121.65 1364.04 2082.18 1366.91 2043C1369.93 2001.83 1373.95 1959.61 1381.54 1919C1383.95 1906.09 1383.03 1883.75 1396 1877"/>
</svg>
