<?xml version="1.0" standalone="yes"?>
<svg width="4000" height="4500">
<path style="stroke:none;fill:none;" d="M1472 878C1505.36 844.733 1541.26 813.909 1575 780.985C1641.39 716.191 1704.9 649.001 1767.91 581C1782.35 565.423 1795.83 548.949 1809.84 533C1815.63 526.419 1820.85 517.789 1828.01 512.649C1839.15 504.659 1855.41 500.712 1868 495.281C1877.17 491.324 1891.97 481.344 1902 481.718C1911.42 482.07 1923.38 490.448 1932 494.15C1944.1 499.346 1960.5 503.571 1970.91 511.638C1978.29 517.363 1983.39 526.863 1989.32 534C2003.58 551.139 2017.78 568.762 2033.04 585C2082.78 637.947 2131.14 691.995 2183.17 742.715C2229.93 788.29 2278.84 831.865 2325 878M1581 1380C1596.67 1379.87 1612.41 1375.68 1628 1374.17C1657.29 1371.32 1686.7 1369.67 1716 1366.83C1742.77 1364.24 1770.04 1359.86 1797 1361.04C1832.35 1362.59 1867.57 1374.71 1897 1394.06C1910.64 1403.04 1932.46 1414.02 1941.4 1428C1944.81 1433.34 1942.63 1441.91 1943.42 1448C1946.49 1471.33 1944 1496.47 1944 1520L1944 1761L1944 2238C1944 2344.67 1942.3 2451.57 1946.96 2558C1949.91 2625.38 1957.3 2693.85 1979.5 2758C1993.74 2799.16 2014.44 2837.8 2051 2863.23C2063.74 2872.09 2080.44 2880.97 2096 2883.25C2117.77 2886.44 2143.44 2879.38 2165 2876.27C2225.3 2867.58 2288.64 2858.03 2346 2837.05C2405.63 2815.24 2458.9 2780.85 2508 2741"/>
</svg>
