<?xml version="1.0" standalone="yes"?>
<svg width="4000" height="4500">
<path style="stroke:none;fill:none;" d="M2587 528C2577.59 545.857 2572.68 567.31 2564.58 586C2541.88 638.326 2511.29 690.243 2461 720.244C2439.37 733.15 2415.3 739.294 2391 744.881C2365.29 750.792 2334.5 759.727 2308 757.911C2179.7 749.117 2086.02 645.648 1972 599.453C1936.35 585.01 1897.7 574.671 1859 573.039C1842.05 572.325 1823.54 577.692 1807 581C1754.9 591.418 1707.28 607.639 1671.29 649C1644.61 679.657 1626.35 717.334 1611.81 755C1606.76 768.086 1603.66 782.223 1598 795M1606 1245C1585.53 1283.39 1565.34 1321.3 1541.76 1358C1533.24 1371.25 1524.91 1384.62 1516.58 1398C1512.7 1404.22 1506.72 1410.98 1504.51 1418C1501.49 1427.59 1505 1440.1 1505 1450C1505 1476.97 1506 1503.97 1506 1531L1506 1604C1506 1609.68 1503.49 1625.23 1512 1626.37C1517.68 1627.13 1527.29 1613.71 1531 1610C1547.48 1593.52 1563.42 1573.47 1582 1559.42C1590.58 1552.94 1603.92 1550.43 1614 1547C1641.35 1537.68 1673.16 1531.46 1699 1518.76C1708.68 1514 1716.08 1503.34 1724 1496.17C1743.94 1478.13 1763.7 1459.92 1784 1442.29C1846.25 1388.22 1917.2 1338.88 1996 1312.52C2038.31 1298.36 2081.98 1292.07 2126 1285.73C2160.76 1280.72 2197.86 1274.32 2233 1275.26C2302.19 1277.11 2376.42 1310.96 2428.83 1354.47C2530.92 1439.24 2561.26 1585.04 2570.09 1711C2578.27 1827.81 2577 1944.74 2577 2062L2577 2502L2577 2712L2577 2770C2577 2777.07 2574.82 2788.58 2578.03 2795C2581.41 2801.77 2589.45 2807.12 2595 2812.05C2610.44 2825.75 2627.31 2837.98 2645 2848.6C2701.46 2882.48 2762.91 2888.7 2827 2893.09C2858.17 2895.22 2893.24 2897.52 2924 2893M1103 1387C1160.23 1376.37 1219.15 1373.43 1277 1367.83C1322.61 1363.42 1369.02 1356.83 1414 1369.56C1447.32 1378.98 1473.66 1399.25 1502 1418M1512 1628L1512 2483L1512 2711L1512 2772C1512 2778.73 1509.83 2790.15 1513.6 2795.99C1524.31 2812.53 1548.11 2827.07 1564 2838.42C1649.2 2899.31 1755.96 2895 1856 2895M1512 2795L1438.01 2867L1382 2927M2577 2795L2488.04 2883L2446 2929"/>
</svg>
