<?xml version="1.0" standalone="yes"?>
<svg width="4000" height="4500">
<path style="stroke:none;fill:none;" d="M2706 1245C2657.8 1295.37 2619.34 1355.13 2572.71 1406.99C2554.18 1427.59 2532.64 1446.36 2513 1466C2505.54 1473.46 2495.25 1481.06 2489.6 1490C2486.58 1494.79 2488 1502.57 2488 1508L2488 1551C2488 1557.91 2489.6 1566.37 2484.85 1572C2474.34 1584.45 2461.52 1595.48 2450 1607C2443.19 1613.81 2436.32 1622.98 2428 1627.93C2410.76 1638.18 2382.84 1638.4 2369.44 1654C2307.95 1725.6 2249.41 1800.01 2189.58 1873C2077.7 2009.48 1965.3 2145.52 1853.42 2282L1716.42 2449C1693.33 2477.18 1671.68 2509.24 1645.83 2534.89C1633.14 2547.48 1609.68 2546.81 1595 2556.7C1586.44 2562.47 1579.28 2571.72 1572 2579L1528 2623C1521.3 2616.3 1514.45 2606.98 1506 2602.53C1497.32 2597.97 1482.26 2596.9 1476.1 2588.87C1461.07 2569.24 1451.12 2543.92 1439.89 2522C1408.05 2459.83 1383.19 2392.01 1367.5 2324C1352.48 2258.91 1340.66 2190.97 1339.01 2124C1337.64 2067.99 1345.88 2010.64 1351.83 1955C1374.37 1744.47 1445.19 1521.29 1613 1380.44C1675.65 1327.85 1749.25 1288.78 1829 1269.88C1884.57 1256.71 1944.12 1254 2001 1254C2072.11 1254 2145.72 1265.78 2212 1292.31C2267.86 1314.67 2319.83 1345.52 2366 1384.15C2387.31 1401.97 2405.04 1423.89 2426.17 1441.62C2432.79 1447.18 2442.19 1448.06 2449 1453.39C2463.13 1464.45 2475.31 1479.31 2488 1492M2488 1570C2494.34 1576.34 2500.78 1585.06 2509 1588.95C2516.6 1592.53 2530.8 1594.2 2535.93 1601.22C2552.81 1624.36 2562.29 1656.71 2573.19 1683C2604.34 1758.12 2622.57 1837.38 2637.46 1917C2647.7 1971.74 2656.62 2029.24 2657.99 2085C2658.53 2107.23 2655.38 2129.91 2653.17 2152C2649.16 2192.09 2644.54 2232.03 2639.28 2272C2616.12 2448.14 2567 2636.51 2439.96 2768C2409.86 2799.16 2375.47 2824.92 2339 2848.05C2306.7 2868.54 2272.24 2885.64 2236 2897.93C2184.59 2915.36 2130.85 2921.38 2077 2925.09C2041.09 2927.56 2005 2931.38 1969 2928.91C1851.45 2920.86 1738.79 2871.28 1649 2796.15C1630.01 2780.25 1613.08 2759.52 1593 2745.3C1586.09 2740.41 1577.31 2738.94 1570 2734.78C1559.44 2728.77 1550.55 2716.55 1542 2708C1537.8 2703.8 1531.71 2699.37 1529.03 2694C1526.26 2688.46 1528 2679.08 1528 2673L1528 2623M1528 2695L1447.1 2776L1401.58 2832L1303 2952"/>
</svg>
