<?xml version="1.0" standalone="yes"?>
<svg width="4000" height="4500">
<path style="stroke:none;fill:none;" d="M1716 401C1726.52 402.658 1736.53 421.89 1742.67 430C1764 458.165 1785.87 485.927 1807.33 514C1870.71 596.889 1934.71 679.298 1998.34 762C2020.66 791.022 2045.63 818.277 2067 848M2188 1276C2198.8 1283.22 2215.42 1283 2228 1283C2251.06 1283 2273.96 1284 2297 1284C2365.51 1284 2440.53 1300.29 2497 1340.58C2507.92 1348.37 2517.95 1356.87 2528 1365.71C2532.97 1370.09 2539.96 1374.97 2542.97 1381C2547.26 1389.57 2544 1406.49 2544 1416L2544 1502L2544 1809L2544 2286L2544 2427L2544 2468C2544 2473.71 2545.39 2481.59 2543.4 2487C2539.27 2498.2 2522.38 2509.62 2514 2518L2480 2552C2474.51 2557.49 2469.02 2564.76 2462 2568.29C2440.44 2579.14 2414.9 2586.03 2392 2593.67C2382.21 2596.93 2367.96 2599.54 2360 2606.22C2342.09 2621.27 2327.71 2641.52 2310.96 2657.91C2272.38 2695.69 2232.59 2732.22 2189 2764.27C2135.29 2803.75 2074.85 2836.75 2011 2856.43C1960.52 2872 1908.26 2878.85 1856 2885.28C1817.85 2889.99 1777.45 2896.61 1739 2893.91C1707.29 2891.69 1675.27 2881.61 1646 2869.8C1518.23 2818.24 1487.96 2670.63 1470.71 2549C1466.85 2521.76 1463.83 2494.44 1461.91 2467C1453.44 2346.17 1454 2225.3 1454 2104L1454 1695L1454 1473L1454 1409C1454 1401.18 1456.43 1388.53 1453.4 1381.29C1450.77 1375.01 1442.04 1368.95 1437 1364.58C1423.9 1353.22 1410.78 1342.36 1396 1333.19C1341.78 1299.58 1279.69 1288.38 1217 1284.09C1200.05 1282.93 1182.96 1284.25 1166 1283.09C1145.71 1281.7 1125.27 1284.11 1105 1282.17C1097.72 1281.47 1090.53 1281.76 1084 1278M2544 1380C2606 1318 2681.56 1290.01 2768 1284.09C2815.68 1280.82 2863.59 1285.38 2911 1279M1454 1380C1473.88 1360.12 1495.52 1341.47 1520 1327.43C1606.9 1277.58 1702.38 1287.55 1798 1280M2543 2489C2550.29 2496.53 2549 2504.12 2549 2514L2549 2562C2549 2606 2549.79 2650.08 2550 2694C2550.08 2711.04 2549.75 2728.02 2550.91 2745C2551.23 2749.71 2550.03 2755.26 2551.32 2759.83C2552.81 2765.12 2562.77 2770.5 2567 2773.79C2583.48 2786.59 2601.09 2797.26 2620 2806.02C2661.7 2825.33 2705.75 2821.59 2750 2817.17C2800.94 2812.08 2852.07 2805.05 2903 2801M2550 2763C2532.03 2795.4 2510.16 2825.5 2492.31 2858C2479.01 2882.22 2467.99 2910.84 2450 2932"/>
</svg>
