<?xml version="1.0" standalone="yes"?>
<svg width="4000" height="4500">
<path style="stroke:none;fill:none;" d="M2489 527C2478.32 566.14 2460.46 606.639 2438.95 641C2421.92 668.205 2402.45 693.047 2376 711.706C2350.74 729.529 2322.97 738.581 2293 745C2267.38 750.489 2236.33 760.347 2210 757.83C2069.76 744.426 1973.13 628.32 1843 587.773C1817.27 579.755 1785.14 571.983 1758 573.04C1734.21 573.966 1709.02 580.373 1686 586.126C1650.59 594.977 1618.97 606.953 1591 631.289C1561.79 656.708 1542.57 691.332 1526.69 726C1516.57 748.114 1506.51 771.189 1501 795M1990 1258.42C2007.15 1256.17 2025.84 1258.74 2043 1259.91C2073.88 1262.02 2104.29 1263.36 2135 1267.71C2220.6 1279.85 2303.93 1307.38 2378 1352.46C2502.53 1428.27 2598.66 1552.77 2649.47 1689C2684.24 1782.21 2703.29 1876.2 2713.17 1975C2716.3 2006.29 2720.92 2038.55 2720.92 2070C2720.92 2105.41 2715.69 2141.76 2712.17 2177C2699.77 2301.06 2671.19 2420.49 2616.36 2533C2547.78 2673.72 2433.26 2800.11 2286 2859.2C2234.23 2879.97 2180.42 2895.49 2125 2902.71C1996.91 2919.4 1859.39 2914.72 1738 2866.55C1549.57 2791.78 1410.65 2621.17 1340.09 2435C1309.45 2354.18 1292.41 2269.81 1283.83 2184C1280.27 2148.39 1275 2111.78 1275 2076C1275 2040.22 1281.03 2003.58 1284.83 1968C1305.14 1778.37 1373.71 1599.44 1507.04 1460C1597.22 1365.69 1715.07 1298.93 1843 1273C1891.89 1263.09 1940.99 1264.86 1990 1258.42"/>
</svg>
