<?xml version="1.0" standalone="yes"?>
<svg width="4000" height="4500">
<path style="stroke:none;fill:none;" d="M1574 878C1613.98 838.021 1656.78 800.8 1697 760.996C1758.11 700.51 1815.76 637.226 1874.96 575C1888.27 561.013 1900.1 545.504 1912.84 531C1918.02 525.112 1922.7 517.322 1929.09 512.699C1940.34 504.553 1957.22 500.635 1970 495.15C1978.97 491.302 1994.2 480.975 2004 481.742C2014.34 482.551 2027.54 491.432 2037 495.694C2048.16 500.725 2063.1 504.23 2072.82 511.699C2079.95 517.18 2085.22 527.163 2091.16 534C2108.67 554.176 2125.34 575.126 2143.3 594.911C2205.93 663.917 2270.84 731.448 2338.96 795.166C2368.15 822.472 2395.71 853.11 2427 878M1990 1258.42C2007.15 1256.17 2025.84 1258.74 2043 1259.91C2073.86 1262.02 2104.3 1263.36 2135 1267.71C2220.62 1279.85 2303.92 1307.37 2378 1352.46C2502.53 1428.27 2598.66 1552.78 2649.47 1689C2684.24 1782.21 2703.29 1876.21 2713.17 1975C2716.3 2006.29 2720.92 2038.55 2720.92 2070C2720.92 2108.75 2715.02 2148.44 2711.17 2187C2699.58 2302.96 2672.43 2417.75 2621.26 2523C2550.7 2668.14 2437.51 2798.55 2285 2859.6C2233.55 2880.2 2180.05 2895.54 2125 2902.71C1996.92 2919.39 1859.4 2914.72 1738 2866.55C1549.59 2791.79 1410.65 2621.17 1340.09 2435C1309.45 2354.18 1292.41 2269.81 1283.83 2184C1280.27 2148.39 1275 2111.78 1275 2076C1275 2037.71 1281.03 1998 1285.72 1960C1293.46 1897.12 1304.54 1835.76 1322.86 1775C1359.17 1654.62 1425.05 1543.74 1513.01 1454C1602.42 1362.79 1717.77 1298.39 1843 1273C1891.89 1263.09 1940.99 1264.86 1990 1258.42"/>
</svg>
