<?xml version="1.0" standalone="yes"?>
<svg width="4000" height="4500">
<path style="stroke:none;fill:none;" d="M1662 383C1704.09 383 1747.31 388.06 1789 393.87C1804.14 395.98 1827.08 394.762 1840.79 401.524C1844.97 403.587 1847.87 409.38 1850.58 413C1856.35 420.728 1862.35 428.348 1868.24 436C1890.81 465.355 1913.15 494.954 1936.12 524C1992.49 595.273 2046.88 668.141 2102.5 740C2130.53 776.212 2161.3 810.835 2188 848M1990 1258.42C2007.15 1256.17 2025.84 1258.74 2043 1259.91C2073.88 1262.02 2104.29 1263.36 2135 1267.71C2220.6 1279.85 2303.93 1307.38 2378 1352.46C2502.53 1428.27 2598.66 1552.77 2649.47 1689C2684.24 1782.21 2703.29 1876.2 2713.17 1975C2716.3 2006.29 2720.92 2038.55 2720.92 2070C2720.92 2105.41 2715.69 2141.76 2712.17 2177C2699.77 2301.06 2671.19 2420.49 2616.36 2533C2547.78 2673.72 2433.26 2800.11 2286 2859.2C2234.23 2879.97 2180.42 2895.49 2125 2902.71C1996.91 2919.4 1859.39 2914.72 1738 2866.55C1549.57 2791.78 1410.65 2621.17 1340.09 2435C1309.45 2354.18 1292.41 2269.81 1283.83 2184C1280.27 2148.39 1275 2111.78 1275 2076C1275 2040.22 1281.03 2003.58 1284.83 1968C1305.14 1778.37 1373.71 1599.44 1507.04 1460C1597.22 1365.69 1715.07 1298.93 1843 1273C1891.89 1263.09 1940.99 1264.86 1990 1258.42"/>
</svg>
