<?xml version="1.0" standalone="yes"?>
<svg width="4000" height="4500">
<path style="stroke:none;fill:none;" d="M1590 233C1687.75 299.707 1781.58 371.481 1869.96 450.299C1881.9 460.946 1899.53 472.562 1908.18 486C1914.79 496.257 1915.84 509.522 1922.07 520C1926.8 527.953 1935.49 534.492 1942 541C1946.4 545.4 1951.72 553.107 1958 554.682C1969.33 557.523 1984.31 555 1996 555C2000.57 555 2006.8 556.072 2011 553.972C2017.46 550.741 2022.94 543.059 2028 538C2037.61 528.394 2047.84 519.13 2056.89 509C2060.37 505.111 2061.5 500.135 2064.64 496.093C2068.22 491.478 2074.21 488.528 2079 485.333C2147.77 439.488 2216.23 393.18 2285 347.333C2324.16 321.229 2365.7 296.67 2403 268M1955 555L1905 604.697L1893 610.104L1862 630.667L1737 714L1601 805.001L1535 849M2011 555C2018.9 562.897 2031.63 571.781 2036.35 582C2042.82 595.989 2041.61 616.241 2052.11 628C2148.66 736.159 2240.68 846.742 2319.09 969C2353.42 1022.53 2390.32 1077.55 2415.97 1136C2421.67 1148.98 2423.37 1165.18 2426.42 1179C2432.1 1204.68 2437.94 1230.32 2443.58 1256C2445.81 1266.15 2446.43 1278.45 2450.51 1288C2454.37 1297.05 2463.86 1304.2 2469.71 1312C2488.99 1337.69 2513.54 1365.3 2526.37 1395C2533.99 1412.65 2538.52 1431.77 2544.52 1450C2562.26 1503.9 2575.47 1558.83 2588.5 1614C2608.49 1698.58 2618.95 1784.71 2627.17 1871C2631.22 1913.53 2635.5 1957.26 2635 2000C2634.34 2055.45 2628.07 2111.84 2622.17 2167C2595.78 2413.44 2520.04 2682.75 2301 2826.84C2270.23 2847.08 2238.18 2865.44 2204 2879.4C2121.75 2912.98 2031.75 2919.12 1944 2922.96C1897.43 2925 1846.81 2914.1 1803 2899.08C1651.46 2847.12 1537.03 2729.97 1461.69 2591C1383.43 2446.64 1343.63 2279.75 1339.26 2116C1338.5 2087.42 1343.08 2057.45 1345.83 2029C1350.35 1982.31 1354.09 1935.18 1362.69 1889C1371.72 1840.5 1380.51 1792.39 1394.72 1745C1428.47 1632.5 1485.57 1525.53 1565.3 1438.91C1699.71 1292.89 1903.25 1238.61 2096 1262.29C2131.3 1266.62 2166.99 1273.46 2201 1284.03C2218.18 1289.37 2234.69 1297.84 2252 1302.51C2275.66 1308.89 2300.94 1311.76 2325 1316.6C2343.44 1320.31 2361.75 1324.81 2380 1329.37C2386.14 1330.91 2396.77 1335.85 2403 1334.22C2408.7 1332.73 2413.98 1325.02 2418 1321L2450 1289"/>
</svg>
