<?xml version="1.0" standalone="yes"?>
<svg width="4000" height="4500">
<path style="stroke:none;fill:none;" d="M1956 846L2018.39 773L2242.25 500L2307 421L2331.09 393.027L2353 390M1084 1312C1096.99 1318.82 1113.72 1318 1128 1318C1148.72 1318 1169.31 1319 1190 1319C1264.7 1319 1341.51 1330.09 1405 1372.33C1417.86 1380.89 1429.43 1390.53 1441 1400.71C1446.26 1405.34 1453.78 1410.62 1456.97 1417C1460.29 1423.63 1458 1435.69 1458 1443L1458 1505L1458 1726L1458 2148C1458 2270.3 1457.06 2392.34 1468.83 2514C1476.69 2595.18 1486.52 2677.88 1517.72 2754C1537.06 2801.19 1564.6 2845.36 1606 2876.24C1627.68 2892.41 1652.51 2904.81 1678 2913.66C1699.35 2921.07 1723.34 2928.32 1746 2929.91C1785.68 2932.69 1827.74 2925.44 1867 2920.28C1916.87 2913.72 1969.06 2907.96 2017 2892.26C2083.3 2870.54 2144.49 2833.96 2201 2793.57C2236.92 2767.9 2272.15 2740.35 2305 2710.83C2322.08 2695.49 2338.98 2675.38 2358 2662.7C2368.6 2655.64 2384.92 2653.52 2397 2649.66C2415.67 2643.69 2434.19 2637.08 2453 2631.58C2460.17 2629.48 2467.51 2625.7 2475 2625.09C2489.39 2623.93 2509.46 2629.39 2523 2624.4C2528.82 2622.25 2533.72 2615.29 2538 2611C2541.21 2607.79 2545.78 2604.38 2547.4 2600C2549.49 2594.33 2548 2585.99 2548 2580L2548 2536L2548 2388L2548 1885L2548 1545L2548 1453C2548 1443.66 2551.66 1424.56 2546.97 1416.42C2543.87 1411.04 2537.48 1407.08 2533 1402.91C2519.92 1390.73 2506.24 1379.27 2491 1369.81C2430.3 1332.12 2359.64 1319 2289 1319C2265.95 1319 2243.06 1318 2220 1318C2205.11 1318 2187.56 1319.12 2174 1312M1458 1416C1487 1387 1520 1361.75 1558 1345.61C1604.35 1325.94 1654.43 1321.48 1704 1318.09C1743.88 1315.36 1784.61 1322.13 1824 1314M2548 1416C2586.86 1377.14 2632.57 1346.98 2686 1332.49C2721.19 1322.94 2757.87 1320.56 2794 1318.09C2833.87 1315.36 2874.59 1322.13 2914 1314M2548 2603C2548 2783.82 2552.94 2964.41 2545.04 3145C2541.74 3220.38 2539.39 3296.17 2528.7 3371C2510.19 3500.55 2478.76 3626.35 2421.9 3745C2372.15 3848.78 2293 3966.43 2177 4001.23C2144.95 4010.84 2109.21 4013.36 2076 4011.09C2051.16 4009.39 2026.01 4009.27 2003 3998.55C1974.19 3985.13 1955.59 3959.02 1934.95 3936C1910.45 3908.69 1883.17 3883.46 1860 3855"/>
</svg>
