<?xml version="1.0" standalone="yes"?>
<svg width="4000" height="4500">
<path style="stroke:none;fill:none;" d="M1141 320C1203.7 319.479 1267.25 306.792 1330 311.089C1374.73 314.153 1419.59 329.792 1457 354.33C1470.18 362.971 1487.28 371.204 1497.68 383.289C1501.48 387.704 1499.65 394.627 1500.29 400C1502.13 415.639 1502 432.243 1502 448C1502 507.303 1503 566.634 1503 626L1503 1060C1503 1149.6 1504.88 1239.56 1500.96 1329C1497.48 1408.39 1500 1488.48 1500 1568L1500 1629C1500 1637.3 1497.97 1648.01 1503 1655L1540 1618C1546.86 1611.14 1553.42 1603.07 1562 1598.31C1588.6 1583.57 1616.3 1570.79 1644 1558.31C1655.54 1553.1 1672.14 1549.61 1681.91 1541.58C1696.39 1529.67 1706.6 1509.15 1719.17 1495C1745.2 1465.68 1773.37 1438.93 1803 1413.29C1852.88 1370.13 1911.92 1332.96 1975 1312.74C2014.4 1300.12 2057.02 1294.75 2098 1289.84C2126.14 1286.48 2157.69 1279.14 2186 1281.18C2360.58 1293.8 2496.93 1438.6 2573.49 1585C2621.55 1676.93 2651.49 1778.68 2667.3 1881C2674.21 1925.77 2680.88 1971.67 2681.99 2017C2683.58 2082.15 2674.24 2149.38 2666.28 2214C2650.15 2344.96 2620.26 2471.85 2559.64 2590C2527.78 2652.11 2487.86 2711.99 2438.99 2762C2293.87 2910.47 2087.03 2951.05 1888 2921.57C1840.83 2914.59 1795.22 2898.54 1752 2878.69C1737.76 2872.15 1724.42 2862.02 1710 2856.34C1697.79 2851.53 1683.71 2849.47 1671 2846.12C1647.82 2839.99 1624.74 2832.91 1602 2825.33C1577.26 2817.1 1553.27 2805 1527 2805C1522.19 2805 1507.24 2802.54 1504.03 2806.6C1501.1 2810.29 1503 2820.49 1503 2825L1503 2876L1503 3071L1503 3550L1503 3675L1503 3706C1503 3711.06 1503.89 3716.72 1500.68 3721C1488.02 3737.9 1467.42 3752.07 1450 3763.67C1401.89 3795.68 1345.98 3810.4 1289 3815.83C1239.24 3820.57 1188.69 3816.67 1139 3821M1503 1655L1503 2804M1503 3720C1563.93 3780.93 1639.78 3810.04 1725 3815.91C1753.9 3817.9 1783 3818 1812 3818C1831.86 3818 1851.69 3816.57 1871 3822"/>
</svg>
