<?xml version="1.0" standalone="yes"?>
<svg width="4000" height="4500">
<path style="stroke:none;fill:none;" d="M1980 214L1980 531L1980 625C1980 636.778 1976.54 654.943 1980.6 666C1987.36 684.414 2011.66 695.084 2020 713C1970.74 713 1921.12 717.545 1872 720.911C1835.15 723.436 1797.61 725.023 1761 730.3C1653.09 745.857 1542.03 783.865 1452 846.025C1379.77 895.897 1321.33 965.177 1290.89 1048C1275.36 1090.24 1268.25 1134.77 1260.92 1179C1255.31 1212.87 1247.18 1249.62 1247.18 1284C1247.18 1312.6 1254.2 1342.79 1258.58 1371C1270.67 1448.97 1293.59 1521.48 1343.51 1584C1414.22 1672.55 1523.63 1722.63 1629 1756.75C1678.53 1772.78 1728.24 1786.91 1780 1793.28C1812.63 1797.3 1845.37 1800.38 1878 1804.29C1889.26 1805.63 1909.24 1811.51 1920 1807.55C1926.79 1805.05 1932.98 1796.02 1938 1791C1950.9 1778.1 1966.75 1765.59 1977.68 1751C1981.33 1746.13 1980 1738.76 1980 1733L1980 1690L1980 1525L1980 950L1980 814L1980 774C1980 768.569 1978.7 761.15 1980.6 756C1982.62 750.528 1988.98 746.021 1993 742L2021 714M2021 714C2230.63 714 2441.42 747.06 2641 812M1921 1809C1925.53 1814.88 1929.68 1824.12 1936.09 1828.06C1942.24 1831.84 1952.02 1831.81 1959 1833.2C1979.39 1837.25 2002.26 1838.05 2022 1844.39C2032.55 1847.79 2033.67 1864.82 2044.04 1867.69C2061 1872.37 2081.47 1871.42 2099 1873.17C2137.31 1877 2175.9 1880.79 2214 1886.43C2253.11 1892.22 2292.42 1905.83 2330 1917.81C2437.24 1951.99 2552.79 2001.34 2629.57 2087.04C2666.21 2127.93 2696.47 2173.9 2714.77 2226C2727.3 2261.67 2733.78 2298.71 2739.27 2336C2743.22 2362.78 2749.32 2390.88 2749 2418C2748.53 2457.59 2739.75 2499 2733.25 2538C2721.03 2611.28 2703.42 2680.22 2661.93 2743C2609.51 2822.3 2531.86 2877.32 2448 2919.25C2346.36 2970.07 2230.47 2994.34 2118 3002.09C2093.65 3003.77 2069.39 3005.97 2045 3007.04C2037.79 3007.35 2025.74 3010.79 2019 3007.88C2014.36 3005.88 2010.51 3000.51 2007 2997C1998.93 2988.93 1989.16 2981.13 1982.32 2972C1979.11 2967.72 1980 2962.06 1980 2957L1980 2925L1980 2797L1980 2307L1980 2042L1980 1964C1980 1954.16 1977.19 1939.25 1980.6 1930C1983.26 1922.8 1992.68 1916.32 1998 1911L2041 1868M1173 2861C1229.08 2890.9 1293.48 2911.22 1354 2930.03C1475.41 2967.75 1598.49 2992.78 1725 3004.83C1772.77 3009.38 1822.02 3012.43 1870 3013C1887 3013.2 1904.05 3013.75 1921 3014.91C1926.76 3015.3 1934.71 3013.37 1940 3016.03C1944.55 3018.32 1947.6 3023.4 1951.04 3027C1959.12 3035.47 1968.32 3043.79 1975.52 3053C1983.24 3062.88 1979 3084.91 1979 3097C1979 3134.67 1978.94 3172.33 1979 3210C1979.23 3355.23 1980 3500.68 1980 3646M2018 3009C2011.69 3013.54 2004.35 3011.47 1997 3012.17C1978.95 3013.89 1959.8 3011.69 1942 3015"/>
</svg>
