<?xml version="1.0" standalone="yes"?>
<svg width="4000" height="4500">
<path style="stroke:none;fill:none;" d="M2851 284C2474.46 899.135 2108.07 1520.48 1733.8 2137C1600.49 2356.6 1467.97 2576.72 1335.8 2797C1293.15 2868.09 1250.22 2939.01 1207.4 3010C1186.85 3044.07 1161.84 3077.98 1145 3114M985 315.424C993.861 314.262 1003.14 316.29 1012 316.911C1031.37 318.269 1050.72 320.34 1070 322.715C1113.58 328.083 1156.37 335.476 1197 352.873C1297.71 395.995 1375.11 483.62 1421.89 581C1466.52 673.907 1486.97 773.044 1497.17 875C1500.97 912.985 1505.92 951.777 1504.99 990C1504.12 1025.29 1499.68 1060.86 1496.17 1096C1487.43 1183.41 1470.14 1269.63 1436.14 1351C1377.62 1491.05 1260.24 1614.17 1104 1634.72C1068.94 1639.33 1033.32 1644.42 998 1645.96C972.462 1647.08 946.348 1642.88 921 1640.17C845.472 1632.08 772.542 1614.27 710 1568.85C559.707 1459.7 504.477 1273.48 486.831 1097C482.709 1055.77 476.998 1013.48 478.015 972C478.968 933.093 483.69 893.712 487.834 855C494.95 788.533 506.4 722.484 527.925 659C559.694 565.303 610.603 476.782 687 412.439C738.924 368.707 800.471 340.703 867 328.31C906.005 321.044 945.835 320.562 985 315.424M3003 1752.46C3029.12 1750.18 3058.99 1756.73 3085 1759.84C3138.37 1766.23 3188.7 1778.22 3237 1802.37C3376.95 1872.35 3456.1 2030.66 3488.42 2177C3499.66 2227.86 3505.16 2279.26 3510.17 2331C3512.95 2359.77 3517.58 2390.11 3516.87 2419C3516.16 2447.93 3512.96 2477.18 3510.17 2506C3494.38 2669.15 3456.55 2830.65 3341.09 2954C3315.14 2981.72 3285.03 3006.67 3252 3025.57C3182.5 3065.35 3107.24 3074.35 3029 3081.83C2991.93 3085.37 2953.83 3080.08 2917 3075.28C2869.72 3069.12 2824.49 3059.89 2781 3039.51C2606.11 2957.57 2528.16 2758.95 2504.72 2579C2497.88 2526.51 2491.23 2472.94 2490.01 2420C2488.93 2372.65 2495.81 2321.81 2502.7 2275C2511.34 2216.37 2520.11 2158.65 2538.52 2102C2578.8 1978.07 2654.56 1863.92 2772 1801.89C2843.31 1764.22 2924.39 1759.34 3003 1752.46"/>
</svg>
