<?xml version="1.0" standalone="yes"?>
<svg width="4000" height="4500">
<path style="stroke:none;fill:none;" d="M1392 1411C1370.03 1432.98 1348.99 1458.04 1325 1477.77C1319.13 1482.6 1311.11 1482.6 1305 1487.46C1243.52 1536.39 1185.86 1591.76 1133.17 1650C1047.54 1744.64 977.743 1854.34 937.886 1976C920.413 2029.33 911.711 2084.61 903.729 2140C897.763 2181.41 889.506 2225.13 890.004 2267C890.308 2292.55 895.114 2318.6 897.834 2344C904.649 2407.66 915.946 2470.4 936.922 2531C961.126 2600.93 996.705 2666.76 1042.33 2725C1079.37 2772.27 1120.79 2815.11 1167 2853.56C1331.6 2990.55 1545.11 3047.49 1756 3050C1791.93 3050.42 1828.19 3045.6 1864 3043.09C1944.86 3037.42 2025.47 3026.95 2104 3006.24C2228.45 2973.43 2344.78 2915.38 2450 2841.72C2487.76 2815.29 2526.15 2787.28 2560 2755.91C2586.89 2730.99 2612.07 2703.93 2638 2678C2647.1 2668.9 2665.44 2656.56 2670.4 2644.71C2673.67 2636.89 2672.16 2618.39 2670.85 2610C2669.13 2598.94 2649.7 2585.7 2642 2578C2622.09 2558.09 2603 2534.83 2581 2517.28C2571.6 2509.77 2560.09 2510.07 2551 2501C2484.8 2434.93 2419.59 2367.59 2354.96 2300C2313.41 2256.55 2269.88 2214.98 2228.91 2171C2190.07 2129.3 2148.42 2090.19 2109.04 2049C1980.66 1914.75 1848.34 1784.25 1719.96 1650C1678.41 1606.55 1634.88 1564.98 1593.91 1521C1583.34 1509.65 1571.66 1499.35 1561.09 1488C1553.62 1479.99 1546.29 1469.8 1537 1463.82C1529.78 1459.17 1520.06 1457.45 1512 1454.66C1496.97 1449.44 1481.99 1444.03 1467 1438.69C1448.35 1432.05 1429.52 1425.82 1411 1418.81C1405.02 1416.54 1394.65 1415.05 1391.42 1408.95C1385.22 1397.24 1383.08 1381.68 1379.28 1369C1371.22 1342.12 1363.48 1315.09 1356.15 1288C1352.36 1273.98 1350.08 1258.46 1344.66 1245C1341.84 1237.98 1335.71 1232.22 1331.52 1226C1322.79 1213.05 1314.61 1199.56 1306.87 1186C1283.04 1144.25 1263.11 1099.79 1251.48 1053C1241.77 1013.97 1235.59 973.777 1229.73 934C1226.79 914.083 1221.87 893.168 1221.85 873C1221.83 854.2 1226.05 834.587 1228.73 816C1238.53 747.948 1250.34 680.709 1282.11 619C1301.16 581.991 1326.2 548.937 1354.96 519.001C1476.34 392.673 1650.05 349.178 1820 345.015C1847.91 344.331 1876.19 348.004 1904 349.911C1950.36 353.089 1996.96 356.665 2043 363.3C2088.21 369.815 2132.7 380.766 2177 391.895C2234.84 406.425 2289.71 429.838 2346 449M3091 1744C3086.18 1763.59 3084.51 1784.16 3080.55 1804C3071.5 1849.31 3061.55 1894.38 3049.51 1939C3013.02 2074.24 2957.77 2203.44 2890.31 2326C2860.48 2380.19 2828.61 2435.7 2791.1 2485C2779.44 2500.32 2763.6 2513.4 2750 2527L2671 2606M2671 2646L2757 2731.78L2793 2748.05L2882.04 2839L3069 3031"/>
</svg>
