<?xml version="1.0" standalone="yes"?>
<svg width="4000" height="4500">
<path style="stroke:none;fill:none;" d="M2000 298L2000 1899M1271 678C1302.06 698.936 1336.3 716.077 1369 734.309C1418.6 761.962 1467.68 790.716 1517 818.873L1713 930.873C1747.88 950.772 1782.22 975.286 1819 991.471C1844.66 1002.76 1876.25 1001.59 1903 1009.94C1912.05 1012.76 1919.49 1023.49 1926 1030L1973 1077C1979.8 1083.8 1990.33 1099.7 2000.96 1098.94C2009.68 1098.31 2020.1 1082.9 2026 1077L2073 1030C2079.31 1023.69 2086.46 1013.45 2095 1010.26C2122.18 1000.11 2154.28 1002.59 2181 991.121C2204.6 980.994 2226.64 965.054 2249 952.424C2297.48 925.033 2345.66 897.083 2394 869.427C2505.61 805.583 2618.24 743.315 2729 678M1994 1099L1934 1159C1925.46 1167.54 1915.86 1181.27 1905 1186.69C1895.58 1191.38 1882.27 1192.03 1872 1194.21C1846.48 1199.64 1822.8 1203.38 1800 1216.43C1689.26 1279.78 1579.43 1344.98 1468 1407.14C1426.1 1430.51 1384.66 1454.74 1343 1478.57C1318.9 1492.36 1292.47 1504.67 1270 1521M2005 1099L2065 1159C2073.54 1167.54 2083.14 1181.27 2094 1186.69C2102.25 1190.8 2113.99 1191.58 2123 1193.4C2147.41 1198.32 2173.35 1201.3 2195 1214.01C2321.63 1288.39 2450.62 1358.77 2577 1433.55C2611.02 1453.68 2645.71 1472.9 2680 1492.57C2696.35 1501.95 2713.7 1509.87 2729 1521"/>
</svg>
