<?xml version="1.0" standalone="yes"?>
<svg width="4000" height="4500">
<path style="stroke:none;fill:none;" d="M1986 348.424C1999.57 346.643 2013.48 348.979 2027 349.911C2055.4 351.867 2083.68 354.802 2112 357.834C2168.7 363.904 2224.57 375.491 2278 395.814C2436 455.915 2551.75 589.33 2626.63 737C2650.38 783.844 2668.57 832.289 2687.86 881C2706.43 927.898 2719.85 978.016 2731.5 1027C2762.27 1156.38 2779.54 1285.89 2792.17 1418C2797.83 1477.18 2799.44 1536.62 2802.04 1596C2803.56 1630.83 2806.35 1666.13 2806 1701C2805.41 1758 2801.53 1815.08 2799.04 1872C2789.8 2083.21 2761.17 2294.15 2695.75 2496C2625.72 2712.07 2492.08 2921.27 2272 3005.54C2234.46 3019.91 2193.77 3030.1 2154 3035.83C2103.16 3043.16 2050.32 3049.81 1999 3050.99C1971.34 3051.62 1942.52 3046.92 1915 3044.17C1864.36 3039.11 1814.07 3033.16 1765 3019.22C1731.05 3009.57 1698.52 2996.13 1667 2980.37C1401.36 2847.55 1291.65 2536.38 1240.69 2263C1215.99 2130.47 1202.85 1996.56 1196.96 1862C1191.94 1747.36 1190.06 1633.61 1197.91 1519C1210.64 1333.12 1226.89 1146.74 1280.23 967C1339.11 768.577 1433.82 564.753 1614 448.692C1680.12 406.103 1755.31 376.919 1833 364.438C1883.77 356.283 1935.19 355.094 1986 348.424"/>
</svg>
