<?xml version="1.0" standalone="yes"?>
<svg width="4000" height="4500">
<path style="stroke:none;fill:none;" d="M1315 530C1378.89 513.473 1445.28 503.548 1510 490.6C1580.32 476.532 1651.02 458.599 1722 448.428C1771 441.406 1821.63 438.53 1871 434.911C1914.72 431.707 1958.27 426.116 2002 422.911C2012.68 422.129 2023.32 420.694 2034 419.911C2038.76 419.562 2042.82 418.19 2047 421.318C2051.74 424.864 2059.31 431.35 2061.4 437C2064.71 445.997 2062 460.433 2062 470L2062 544L2062 898L2062 2355L2062 2807L2062 2921C2062 2932.62 2057.84 2953.99 2066.06 2963C2073.07 2970.68 2084.16 2985.77 2094 2989.4C2106.57 2994.03 2127.59 2990 2141 2990L2249 2990L2736 2990M2062 2959C2053.35 2967.65 2041.54 2985.14 2030 2989.4C2017.18 2994.12 1995.68 2990 1982 2990L1870 2990L1388 2990"/>
</svg>
