<?xml version="1.0" standalone="yes"?>
<svg width="4000" height="4500">
<path style="stroke:none;fill:none;" d="M1172 513C1199.12 505.582 1225.73 491.953 1252 481.811C1292.43 466.2 1333.73 452.529 1375 439.344C1488.13 403.199 1604.99 379.11 1723 367.83C1751.1 365.144 1779.78 361.475 1808 361.003C1829.65 360.641 1851.34 356.853 1873 357.005C1905.81 357.236 1939.34 360.708 1972 363.83C2046.98 370.997 2119.73 379.583 2192 401.975C2258.4 422.548 2320.34 452.802 2378 491.67C2452.04 541.579 2517.56 608.359 2562.13 686C2604.6 759.995 2624.21 839.29 2636.27 923C2640.7 953.757 2647.74 986.895 2646.99 1018C2645.93 1061.39 2637.07 1106.15 2630.42 1149C2621.9 1203.97 2611.67 1257.59 2592.57 1310C2522.29 1502.77 2380.77 1662.2 2243.09 1810C2066.78 1999.27 1885.96 2185.04 1703 2368C1629.98 2441.02 1558.82 2515.82 1486 2589C1461.88 2613.23 1438.16 2637.84 1414 2662C1401.25 2674.75 1384.36 2687.56 1374.84 2703C1369.08 2712.35 1366.8 2725.59 1363.33 2736C1355.34 2759.97 1347.66 2784.03 1339.67 2808C1327.91 2843.27 1316.76 2878.73 1305 2914C1302 2922.99 1298.84 2931.95 1296.03 2941C1294.95 2944.46 1292.62 2949.42 1294.12 2953C1296.51 2958.69 1303.7 2963.7 1308 2968C1314.49 2974.49 1321.74 2984.84 1330 2988.97C1334.66 2991.3 1341.92 2990 1347 2990L1386 2990L1635 2990L2705 2990"/>
</svg>
