<?xml version="1.0" standalone="yes"?>
<svg width="4000" height="4500">
<path style="stroke:none;fill:none;" d="M1254 448C1423.65 400.218 1597.78 374.91 1773 362.911C1871.66 356.154 1969.65 354.905 2068 367.711C2227.09 388.426 2380.18 431.552 2504 539.289C2570.64 597.271 2619.45 675.445 2644.45 760C2652.78 788.178 2657.56 817.062 2662.41 846C2667.4 875.736 2675.53 908.802 2674.95 939C2674.04 985.761 2661.55 1035.27 2652.4 1081C2633.51 1175.44 2602.85 1263.14 2535.91 1335C2485.31 1389.32 2422.71 1429.12 2355 1458.58C2333.83 1467.78 2311.88 1475.37 2290 1482.67C2280.76 1485.75 2268.22 1486.51 2260.04 1491.84C2251.64 1497.32 2245.83 1510.76 2240.33 1519C2227.96 1537.55 2214.48 1555.34 2200.88 1573C2195.45 1580.06 2187.58 1594.22 2179 1597.4C2168.49 1601.29 2153.04 1596.65 2142 1597.21C2107.39 1598.97 2071.85 1597 2037 1597L1696 1597M2181 1598C2197.59 1616.03 2212.04 1636.88 2225.98 1657C2232 1665.7 2238.39 1680.18 2247.09 1686.27C2258.01 1693.91 2277.32 1694.44 2290 1698.67C2325.5 1710.5 2361 1721.55 2395 1737.49C2515.17 1793.83 2618.05 1884.23 2676.06 2005C2708.71 2072.97 2723.79 2146.77 2734.13 2221C2738.58 2252.93 2744.93 2285.76 2745.96 2318C2746.38 2331.12 2743.47 2344.94 2742.17 2358C2732.44 2455.29 2718.84 2553.38 2677.53 2643C2661.2 2678.41 2641.32 2713.22 2617.28 2744C2590.33 2778.52 2561.15 2810.03 2528 2838.71C2373.18 2972.68 2160.06 3021.44 1961 3035.09C1913.82 3038.32 1865.31 3044.07 1818 3042.99C1758.51 3041.62 1698.25 3037.81 1639 3032.17C1562.44 3024.88 1486.71 3015.96 1411 3001.74C1350.36 2990.35 1290.34 2974.51 1231 2957.57C1207.92 2950.99 1185.39 2941.41 1162 2936"/>
</svg>
