<?xml version="1.0" standalone="yes"?>
<svg width="4000" height="4500">
<path style="stroke:none;fill:none;" d="M2883 2304L1510 2304L1185 2304L1108 2304C1101.15 2304 1085.71 2307.04 1082.6 2298.98C1079.49 2290.9 1082 2277.63 1082 2269C1082 2234.5 1092.78 2201.38 1101.13 2168C1108.71 2137.68 1116.05 2107.31 1123.63 2077C1127.14 2062.94 1128.95 2046.15 1135.05 2033C1144.93 2011.67 1161.34 1991.86 1173.95 1972C1203.56 1925.34 1234.38 1879.46 1264.31 1833C1428.16 1578.61 1593.84 1325.39 1757.69 1071C1836.2 949.115 1917.48 828.879 1994.42 706C2026.66 654.519 2060.45 603.863 2093.66 553C2102.99 538.696 2112.51 524.48 2121.58 510C2126.45 502.21 2131.26 491.505 2138.18 485.394C2147.41 477.249 2163.82 473.735 2175 468.694C2203.14 456.012 2231.64 444.022 2260 431.85C2274.52 425.616 2290.55 415.675 2306 412.39C2325.6 408.22 2349.94 412 2370 412C2380.3 412 2401.18 408.037 2410 413.604C2416.98 418.012 2430.52 430.193 2433.4 438C2437.47 449.037 2434 467.237 2434 479L2434 572L2434 1034L2434 2958"/>
</svg>
