<?xml version="1.0" standalone="yes"?>
<svg width="4000" height="4500">
<path style="stroke:none;fill:none;" d="M2545 678C2515.81 707.112 2480.56 732.253 2448 757.499C2435.36 767.302 2420.2 785.084 2405 790.298C2391.49 794.932 2374.11 793.123 2360 794.089C2324.33 796.531 2288.72 798.476 2253 800.039C2197.94 802.449 2143.21 805.336 2088 803.985C2017.34 802.256 1946.65 795.835 1876 794.996C1843.99 794.616 1811.97 790.438 1780 789.039C1748.72 787.67 1717.28 790.33 1686 788.961C1673.51 788.414 1654.96 784.313 1643 788.738C1633.72 792.173 1624.58 802.49 1617 808.75C1611.39 813.38 1602.53 818.137 1599.51 825.001C1593.06 839.696 1594.68 862.084 1592.72 878C1587.5 920.31 1582.93 962.694 1577.72 1005C1560.79 1142.4 1541.74 1280.17 1528.93 1418C1524.81 1462.29 1524.04 1506.79 1519.83 1551C1518.69 1562.96 1518.97 1575.05 1517.83 1587C1517.29 1592.69 1515.21 1600.84 1518.6 1605.98C1523.55 1613.48 1534.51 1610.17 1542 1609.29C1562.25 1606.89 1582.71 1606.1 1603 1604.17C1625.26 1602.05 1647.79 1602.47 1670 1599.83C1690.09 1597.44 1709.97 1591.39 1730 1588.3C1774.07 1581.49 1818.53 1577.13 1863 1574.09C1922.33 1570.03 1981.06 1566.11 2040 1576.61C2189.5 1603.27 2323.23 1707.51 2398.13 1838C2450.18 1928.69 2477.6 2030.61 2489.17 2134C2492.09 2160.13 2496.44 2186.67 2496.95 2213C2497.23 2227.81 2494.6 2243.26 2493.17 2258C2489.81 2292.74 2486.25 2327.41 2481.27 2362C2468.19 2452.77 2445.89 2542.28 2400.86 2623C2312.12 2782.07 2154.56 2914.34 1967 2928.09C1906.24 2932.54 1845.43 2935.25 1785 2924.75C1696.06 2909.3 1617.93 2860.19 1550 2802.92C1518.85 2776.66 1490.49 2746.65 1459 2721M1517 1605C1476.71 1648.74 1443.06 1698.15 1408 1746"/>
</svg>
