<?xml version="1.0" standalone="yes"?>
<svg width="4000" height="4500">
<path style="stroke:none;fill:none;" d="M2507 1872L2455 1820C2449.81 1814.81 2441.41 1802.42 2434 1800.93C2426.03 1799.32 2410.71 1807.43 2403 1810C2389.14 1814.62 2371.78 1816.73 2359.01 1823.76C2345.49 1831.22 2334.18 1846.04 2322 1855.71C2271.88 1895.5 2213.78 1924.75 2153 1944.26C2106.74 1959.1 2059.2 1967.01 2011 1972.17C1973.68 1976.16 1935.61 1981.61 1898 1979.96C1801.59 1975.74 1704.64 1940.18 1626 1885.23C1493.4 1792.57 1423.38 1629.89 1399.87 1474C1394.92 1441.22 1389.34 1407.2 1389 1374C1388.79 1353.52 1391.86 1332.38 1393.83 1312C1398.84 1260.27 1405.3 1208.92 1415.88 1158C1439.87 1042.61 1484.28 926.695 1568.01 841C1630.77 776.773 1712.7 729.216 1801 711.449C1831.68 705.275 1862.94 705.037 1894 702.911C1947.26 699.264 2000.95 702.362 2053 715.375C2108.17 729.167 2159.09 753.385 2206 785.255C2251.48 816.157 2292.8 851.241 2329.49 892.285C2423.55 997.524 2475.58 1138.04 2501.46 1275C2529.77 1424.8 2542.87 1578.07 2528.17 1730C2524.22 1770.78 2523.5 1812.63 2515.74 1853C2514.3 1860.5 2508.45 1866.47 2507.04 1874C2499.62 1913.65 2497.82 1953.59 2488.5 1993C2439.05 2202 2338.25 2400.35 2196.72 2562C2106.03 2665.57 1996.9 2757.74 1874 2820.74C1810.5 2853.29 1742.72 2878.47 1674 2897.58C1615.02 2913.97 1554.47 2926.2 1494 2935.58C1473.72 2938.72 1453.36 2941.21 1433 2943.72C1423.9 2944.84 1413.77 2944.41 1405 2947"/>
</svg>
