<?xml version="1.0" standalone="yes"?>
<svg width="4000" height="4500">
<path style="stroke:none;fill:none;" d="M1291 1472C1325.7 1488.23 1364.01 1498.89 1400 1512.05C1475.96 1539.83 1552.04 1567.27 1628 1595.05C1859.25 1679.63 2090.75 1763.48 2322 1848.05C2372.33 1866.46 2422.53 1885.28 2473 1903.31C2499.87 1912.9 2530.76 1920.38 2555.96 1933.71C2562.8 1937.33 2566.59 1947.52 2570.28 1954C2577.51 1966.7 2584.72 1979.44 2592.2 1992C2595.03 1996.75 2597.52 2003.7 2601.63 2007.45C2605.99 2011.41 2618.4 2009.32 2624 2009.21C2643.59 2008.8 2663.45 2010.4 2683 2009M2603 2009C2590.32 2024.42 2581.45 2044.72 2571.42 2062C2567.8 2068.25 2564.46 2077.67 2558.67 2082.18C2548.84 2089.85 2530.77 2093.22 2519 2097.34C2493.89 2106.14 2469.06 2115.74 2444 2124.69C2359.46 2154.88 2275.31 2186.22 2191 2217.05C1992.14 2289.78 1792.86 2361.32 1594 2434.05C1528.04 2458.18 1461.96 2481.93 1396 2506.05C1361.74 2518.58 1326.47 2535.59 1291 2544"/>
</svg>
