<?xml version="1.0" standalone="yes"?>
<svg width="4000" height="4500">
<path style="stroke:none;fill:none;" d="M3064 2469C2938.11 2605.68 2795.03 2734.49 2624 2812.14C2493.28 2871.48 2355.13 2906.29 2212 2916.09C2090.07 2924.44 1963.57 2919.53 1845 2886.58C1753.28 2861.09 1664.54 2826.08 1583 2776.54C1399.21 2664.88 1264.25 2487.5 1173.37 2295C1087.09 2112.25 1040.96 1907.94 1036.01 1706C1034.42 1640.81 1043.9 1573.78 1050.83 1509C1071.6 1315.01 1124.06 1129.6 1218.31 958C1254.03 892.964 1299.59 833.101 1347.87 777C1500.07 600.163 1709.15 462.913 1940 416.449C1989.16 406.555 2039.08 403.146 2089 400.96C2191.71 396.463 2295.76 403.995 2397 423.196C2500.13 442.755 2600.08 471.421 2696 514.694C2715.25 523.376 2734.34 532.428 2753 542.319C2770.7 551.7 2784.63 558.299 2792.63 578C2795.87 585.974 2790.63 598.839 2789 607C2784.2 631.012 2779.2 654.986 2774.4 679C2763.25 734.743 2751.79 790.247 2736.45 845C2724.93 886.091 2709.63 926.009 2698 967"/>
</svg>
