<?xml version="1.0" standalone="yes"?>
<svg width="4000" height="4500">
<path style="stroke:none;fill:none;" d="M952 425C962.053 429.921 975.06 429 986 429C1007.18 429 1028.87 427.643 1050 429.089C1148.52 435.834 1250.55 428.826 1339 482C1357.56 493.161 1373.72 506.722 1389 522C1394.31 527.308 1401.38 532.63 1405.4 539C1410.51 547.105 1407 565.572 1407 575L1407 666L1407 1007L1407 2283L1407 2656L1407 2756C1407 2766.08 1410.85 2786.36 1405.4 2795C1400.45 2802.83 1391.55 2809.48 1385 2816C1359.44 2841.44 1328.38 2860.69 1295 2874C1186.02 2917.46 1068.9 2900.01 955 2909M1407 539C1439.35 506.654 1471.19 479.741 1514 462.453C1542.37 450.999 1574.92 448.79 1605 445.83C1664.22 440.004 1723.46 441.704 1783 440.996C1895.15 439.664 2007.92 439.048 2118 463.665C2302.23 504.866 2467.43 621.406 2573.41 777C2662.07 907.177 2721.68 1055.89 2757.5 1209C2774.82 1283.05 2785.48 1356.91 2796.3 1432C2802.83 1477.31 2805.95 1523.35 2809.09 1569C2811.56 1604.86 2815.53 1641.05 2815.98 1677C2816.74 1736.88 2808.4 1798.51 2802.17 1858C2769.62 2168.64 2654.84 2483.29 2407 2686.42C2277.68 2792.42 2121.43 2861.75 1955 2881.71C1883.91 2890.24 1811.57 2890 1740 2890C1655.62 2890 1562.59 2894.43 1485 2855.63C1454.79 2840.52 1430.68 2818.68 1407 2795"/>
</svg>
