<?xml version="1.0" standalone="yes"?>
<svg width="4000" height="4500">
<path style="stroke:none;fill:none;" d="M1128 420C1181.9 426.961 1237.66 424.655 1292 425.985C1331.47 426.951 1372.55 428.291 1410 442.425C1437.96 452.979 1463.05 472.015 1485 491.925C1494.98 500.979 1504.47 510.467 1514 520C1518.2 524.197 1524.29 528.626 1526.97 534C1531.69 543.426 1528 562.51 1528 573L1528 670L1528 1017L1528 2258L1528 2642L1528 2744C1528 2754.3 1531.96 2775.18 1526.4 2784C1516.23 2800.1 1496.27 2815.72 1482 2828.29C1458.11 2849.32 1433.03 2867.3 1403 2878.63C1351.63 2898 1290.96 2894 1237 2894C1218.28 2894 1199.69 2895 1181 2895C1164.37 2895 1147.24 2893.8 1131 2898M1527 533C1543.99 516.006 1560.76 498.861 1576.83 481C1584.41 472.577 1593.75 459.152 1604 454.028C1609.76 451.146 1619.67 453 1626 453L1679 453L1868 453L2509 453C2555.33 453 2603.9 448.782 2650 453.17C2684.55 456.458 2717.92 464.695 2751 474.975C2767.54 480.114 2783.65 486.309 2800 492C2806.71 494.336 2817.51 496.443 2822.7 501.419C2831.13 509.488 2833.29 530.109 2836.75 541C2848.06 576.617 2856.95 612.846 2866.29 649C2888.15 733.658 2904.28 820.105 2920.31 906C2930.88 962.636 2943.43 1020.55 2948 1078M2383 1184C2374.89 1198.24 2374.1 1215.17 2371.56 1231C2366.37 1263.31 2361.36 1295.64 2356.7 1328C2349.95 1374.84 2342.81 1421.66 2332.79 1468C2329.96 1481.1 2326.48 1494.26 2322.33 1507C2320.38 1512.98 2315.88 1520.67 2316.13 1527C2316.36 1532.94 2320.13 1539.4 2322 1545C2325.96 1556.87 2329.55 1568.87 2332.63 1581C2341.91 1617.67 2347.79 1655.55 2352.71 1693C2357.75 1731.34 2362.94 1769.65 2367.71 1808C2370.44 1829.87 2371.62 1852.59 2385 1871M1529 1526L2315 1527M1528 2784C1559.93 2815.93 1593.29 2852.4 1635 2871.69C1665.42 2885.76 1698.04 2888.83 1731 2891.09C1794.89 2895.47 1859.19 2891.96 1923 2897"/>
</svg>
