<?xml version="1.0" standalone="yes"?>
<svg width="4000" height="4500">
<path style="stroke:none;fill:none;" d="M2170 3757C2220.69 3810 2243.85 3886.65 2312 3922.06C2359.97 3946.99 2426.96 3951.74 2480 3948.09C2531.22 3944.56 2581.2 3936.71 2628 3914.22C2712.6 3873.55 2775.88 3789.97 2815.3 3707C2889.01 3551.81 2922.91 3375.88 2940.17 3206C2945.58 3152.72 2951.25 3099.46 2954.91 3046C2957.83 3003.38 2958.17 2960.6 2961.09 2918C2962.84 2892.49 2964 2866.59 2964 2841C2964 2833.89 2967.16 2819.98 2963.4 2814C2955.46 2801.4 2940.53 2790.53 2930 2780C2926.32 2776.32 2921.34 2769.02 2916 2767.93C2911.53 2767.01 2905.2 2770.32 2901 2771.66C2891.09 2774.82 2881.01 2777.57 2871 2780.42C2834.95 2790.7 2798.55 2799.38 2762 2807.65C2735.84 2813.57 2710.86 2828.73 2686 2838.99C2646.47 2855.3 2605.17 2868.13 2564 2879.58C2437.08 2914.86 2306.94 2924.78 2176 2927.99C1961.07 2933.25 1743.51 2872.74 1560 2761.93C1488 2718.45 1418.73 2669.42 1358.09 2610.83C1210.77 2468.49 1100.98 2291.53 1032.45 2099C997.593 2001.05 977.703 1900.32 967.83 1797C963.829 1755.13 961.213 1714 964.089 1672C974.426 1521.06 990.577 1370.32 1035.21 1225C1116.96 958.783 1290.12 726.917 1522 572.333C1636.69 495.878 1767.55 443.502 1903 418.261C1957.49 408.105 2011.91 404.683 2067 400.911C2265.12 387.343 2459.97 421 2644 495.547C2707.71 521.353 2766.61 556.303 2828 587C2845.58 595.792 2862.93 604.766 2881 612.562C2888.54 615.813 2900.93 618.343 2906.7 624.278C2914.46 632.269 2918.11 651.5 2921.73 662C2931.52 690.38 2942.3 718.414 2951.5 747C2985.44 852.408 3017.34 959.076 3042 1067M2624 1789C2644.1 1785.8 2667.53 1789 2688 1789C2761.2 1789 2836.07 1797.57 2900 1836C2921.51 1848.93 2951.41 1866.66 2965.41 1888C2969.09 1893.61 2968 1901.63 2968 1908L2968 1951L2968 2116L2968 2595L2968 2740C2968 2755.05 2967.38 2770.01 2967.01 2785C2966.78 2794.48 2967.9 2803.84 2965 2813"/>
</svg>
