<?xml version="1.0" standalone="yes"?>
<svg width="4000" height="4500">
<path style="stroke:none;fill:none;" d="M874 2906C893.072 2900.64 914.37 2903 934 2903C966.349 2903 998.633 2902.38 1031 2902C1134.89 2900.76 1254.24 2876.2 1324.68 2793.29C1330.62 2786.29 1327 2766.88 1327 2758L1327 2661L1327 2281L1327 989L1327 645L1327 554C1327 544.963 1323.52 526.654 1328.52 519C1345.81 492.539 1372.81 469.712 1393.71 446C1402.86 435.623 1414.27 418.341 1427 412.434C1437.2 407.702 1453.83 408.951 1465 407.83C1488.98 405.422 1512.92 402.569 1537 400.911C1626.78 394.726 1716.93 389.779 1807 391.985C1852.06 393.089 1897.12 391.898 1942 396.17C2050.27 406.474 2156.96 429.472 2254 480.362C2375.71 544.193 2462.88 655.275 2510.24 783C2526.71 827.408 2536.6 873.407 2544.41 920C2550.64 957.123 2560.41 998.284 2559.54 1036C2559.13 1053.98 2555.3 1072.17 2553.16 1090C2548.88 1125.57 2543.77 1162.08 2535.66 1197C2501.97 1342.08 2424.22 1475.67 2309 1571.56C2269.62 1604.34 2226.02 1630.47 2180 1652.74C2166.39 1659.33 2152.18 1665.07 2138 1670.32C2130.83 1672.97 2121.15 1674.71 2115.09 1679.5C2109.75 1683.73 2106.55 1691.33 2102.95 1697C2095.69 1708.44 2088.28 1719.8 2080.66 1731C2073.3 1741.81 2065.71 1752.53 2057.87 1763C2054.49 1767.52 2048.22 1773.3 2047.19 1779C2045.96 1785.84 2050.67 1795.41 2052.37 1802C2057 1820 2061.38 1838.1 2066.39 1856C2068.76 1864.48 2075.66 1871.92 2080.71 1879C2090.75 1893.08 2100.85 1907.08 2111.12 1921C2142.27 1963.26 2171.92 2006.58 2202.85 2049C2306.56 2191.23 2406.45 2336.3 2510.88 2478C2535.68 2511.64 2559.39 2546.02 2583.71 2580C2603.24 2607.28 2624.74 2635.32 2638.62 2666C2648.25 2687.28 2652.02 2712.54 2658.42 2735C2663.5 2752.8 2672.39 2772.6 2674 2791C2685.39 2792.71 2697.21 2798.54 2708 2802.58C2726.42 2809.46 2745.23 2816.13 2764 2821.97C2832.26 2843.21 2900.18 2863.62 2970 2879.19C3012.39 2888.64 3055.91 2892.73 3099 2896.83C3118.89 2898.72 3142.16 2894 3161 2902M921 438C963.474 427.013 1010.49 427.865 1054 425.961C1107.34 423.626 1164.17 418.299 1215 439.015C1258.69 456.818 1293.16 489.158 1326 522M1328 1741C1465.58 1741 1603.53 1738.62 1741 1741.99C1810.59 1743.69 1882.09 1738.35 1951 1749.85C1984.32 1755.42 2013.71 1770.19 2046 1779M2674 2791C2653.82 2811.18 2634.17 2831.83 2614 2852C2604.18 2861.82 2594.54 2874.35 2582 2880.73C2560.72 2891.55 2536.29 2892.91 2513 2895.17C2475.17 2898.83 2437.05 2899 2399 2899C2380.78 2899 2360.82 2896.71 2343 2901M1327 2792C1349.89 2814.89 1372.71 2836.39 1401 2852.57C1473.76 2894.19 1560.48 2898.39 1642 2901.96C1676.3 2903.46 1710.76 2900.57 1745 2902.91C1759.48 2903.9 1774.47 2901.21 1788 2908"/>
</svg>
