<?xml version="1.0" standalone="yes"?>
<svg width="4000" height="4500">
<path style="stroke:none;fill:none;" d="M1229 2927C1239.12 2916.96 1250.79 2907.7 1262 2898.88C1267.51 2894.55 1276.34 2889.2 1279.7 2882.96C1287 2869.36 1287.41 2849.84 1292.03 2835C1302.83 2800.22 1319.5 2774.61 1347 2750.72C1353.93 2744.7 1364.18 2731.07 1373 2728.57C1378.41 2727.03 1388.91 2733.77 1394 2735.8C1412.25 2743.1 1430.54 2750.2 1449 2756.95C1472.12 2765.39 1496.19 2771.63 1518 2783.29C1572.2 2812.26 1621.4 2850.16 1679 2872.8C1751.47 2901.27 1829.06 2911.82 1906 2917.09C1986.65 2922.61 2069.76 2917.9 2148 2895.57C2237.3 2870.09 2319.17 2822.09 2387 2758.91C2456.8 2693.89 2508.46 2611.23 2538.71 2521C2552.52 2479.84 2560.73 2436.65 2568.42 2394C2576.2 2350.88 2583.5 2307.57 2588.17 2264C2590.14 2245.62 2594.21 2226.5 2593.98 2208C2593.68 2183.94 2588.24 2158.67 2584.29 2135C2572.16 2062.38 2549.68 1987.72 2508.4 1926C2475.28 1876.47 2432.76 1833.52 2387 1795.44C2277.72 1704.49 2140.57 1655.1 2010 1603.8C1864.75 1546.73 1722.45 1483.47 1597 1389.38C1494.63 1312.6 1410.86 1215.3 1377.08 1090C1369.25 1060.97 1362.31 1029.2 1362 999C1361.71 970.595 1368.02 941.125 1371.72 913C1378.1 864.461 1385.49 814.063 1399.21 767C1412.7 720.683 1432.58 677.834 1458.19 637C1480.97 600.68 1509.69 568.027 1541 538.911C1596.35 487.441 1660.87 446.131 1732 420.053C1787.61 399.665 1845.28 390.937 1904 386.911C1931.81 385.003 1960.05 381.816 1988 383.04C2075.64 386.876 2161.28 406.766 2242 441.15C2287.81 460.663 2331.75 483.233 2375 507.869C2386.05 514.163 2396.85 520.946 2408 527.048C2413.79 530.215 2422.04 533.502 2426.44 538.529C2431.37 544.177 2431.23 556.836 2432.88 564C2438.35 587.767 2441.85 611.953 2445.75 636C2461.3 731.644 2469 829.202 2469 926M1329 2267C1329 2310.99 1325.11 2354.93 1327.04 2399C1329.93 2464.92 1338.11 2529.69 1347.57 2595C1350.98 2618.51 1356.14 2641.64 1360.39 2665C1364.01 2684.95 1366.83 2706.98 1374 2726"/>
</svg>
