<?xml version="1.0" standalone="yes"?>
<svg width="4000" height="4500">
<path style="stroke:none;fill:none;" d="M2424 1667L1826 1667L1670 1667L1630 1667C1624.47 1667 1617.68 1668.19 1613 1664.68C1592.94 1649.66 1575.73 1627.73 1558 1610C1551.42 1603.42 1538.66 1594.77 1535.31 1586C1532.6 1578.89 1536.32 1567.41 1536.91 1560C1538.82 1536.3 1541.81 1512.6 1544.72 1489C1556.02 1397.25 1579.63 1306.12 1610.46 1219C1676.68 1031.86 1794.39 842.371 1982 757.865C2044.32 729.792 2108.54 719.529 2176 714.911C2249.62 709.871 2325.3 716.278 2397 734.255C2449.83 747.501 2501.35 765.287 2552 785.355C2566.02 790.909 2580.21 796.368 2594 802.46C2598.71 804.54 2605.83 805.736 2609.49 809.499C2616.29 816.508 2618.81 835.612 2621.39 845C2628.58 871.162 2637.58 896.983 2645.36 923C2676.22 1026.18 2698.07 1130.95 2725 1235M1534 1586C1526.18 1594.45 1527.28 1608.01 1526.05 1619C1523.03 1645.91 1521.76 1673.01 1519.91 1700C1518.8 1716.2 1519.67 1734.08 1516.77 1750C1515.93 1754.6 1511.64 1757.36 1511.03 1762C1508 1785.11 1511 1810.67 1511 1834L1511 1885C1511 1892.65 1512.17 1903.78 1509.4 1910.96C1505.99 1919.8 1491.73 1929.27 1485 1936L1438 1983C1431.23 1989.77 1423.61 2000.67 1415 2004.97C1405.36 2009.79 1385.73 2006 1375 2006L1303 2006C1290.8 2006 1276.9 2004.17 1265 2007M1324 1667L1388 1667C1396.19 1667 1408.28 1664.76 1416 1667.6C1426.2 1671.37 1436.38 1686.38 1444 1694L1510 1760M1510 1913C1515.95 1919.44 1514.4 1924.9 1515.17 1933C1516.72 1949.29 1516.97 1965.68 1518.09 1982C1520.23 2013.3 1522.17 2044.86 1526.28 2076C1527.18 2082.78 1531.42 2087.5 1532.56 2094C1536.27 2115.25 1536.87 2137.53 1539.17 2159C1556.33 2319.28 1604.24 2481.2 1685.33 2621C1712.03 2667.03 1744.54 2711.17 1782.09 2748.91C1816.27 2783.27 1854.3 2813.74 1896 2838.55C2031.25 2919.01 2196.9 2927 2349 2905.13C2403.31 2897.32 2455.34 2882.7 2508 2867.55C2523.26 2863.16 2538.04 2857.36 2553 2852.07C2559.74 2849.69 2569.14 2847.79 2574.79 2843.3C2583.38 2836.47 2588.28 2817.92 2592.65 2808C2605.22 2779.47 2618.13 2750.97 2629.65 2722C2662.93 2638.23 2693.71 2553.36 2719.72 2467C2728.29 2438.54 2739.97 2410.12 2746 2381M1532 2088L1590 2030C1596.86 2023.14 1605.79 2010 1615 2006.6C1620.41 2004.61 1628.29 2006 1634 2006L1675 2006L1814 2006L2284 2006"/>
</svg>
