<?xml version="1.0" standalone="yes"?>
<svg width="4000" height="4500">
<path style="stroke:none;fill:none;" d="M2460 426C2484.96 431.913 2509.36 431 2535 431C2572.61 431 2611.6 430.108 2649 434.174C2669.86 436.441 2693.47 440.854 2710 454.464C2718.95 461.829 2726.81 470.811 2735 479C2738.15 482.15 2742.25 488.08 2747 488.637C2758.53 489.989 2776.8 479.928 2788 476.709C2818.68 467.893 2849.57 460.09 2881 454.424C2941.44 443.527 3002.86 437.275 3064 433.089C3091.16 431.23 3118.3 434.121 3145 428M791 427C906.82 431.983 1017.23 457.911 1128 491.28C1157.32 500.112 1186.25 510.433 1215 520.947C1226.7 525.227 1243.8 528.336 1253.78 535.843C1260.97 541.259 1262.89 560.555 1265.12 569C1272.82 598.163 1279.09 628.359 1288.52 657C1296.81 682.197 1312.49 705.045 1326.92 727C1348.89 760.436 1372.31 792.822 1394.67 826C1496.75 977.437 1602.33 1126.63 1705.97 1277C1736.02 1320.59 1766.64 1363.96 1796 1408C1823.09 1448.64 1849.78 1491.45 1882.29 1528C1891.95 1538.87 1907.59 1543.68 1919 1552.67C1937.45 1567.21 1953.39 1586.39 1970 1603C2007.81 1565.19 2050.38 1529 2084.68 1488C2107.15 1461.14 2122.85 1427.49 2143.42 1399C2201.39 1318.73 2261.14 1239.7 2319.88 1160C2398.08 1053.9 2476.68 948.097 2554.88 842C2601.34 778.97 2654.69 717.152 2691.88 648C2718.39 598.714 2723.48 541.797 2746 491M1255 536L1315 476C1325.11 465.895 1335.08 452.827 1348 446.273C1371.4 434.397 1401.43 434.08 1427 432.961C1460.2 431.508 1493.78 431.399 1527 431.004C1545.9 430.779 1565.24 432.371 1584 430M1970 1603L1970 1658C1970 1664.57 1968.04 1675.02 1971.03 1681C1974.44 1687.82 1982.65 1693.65 1988 1699C1998.65 1709.65 2008.82 1721.19 2021 1730.11C2030.35 1736.97 2041.91 1741.38 2050.12 1749.67C2085.3 1785.23 2110.52 1832.77 2140.12 1873C2296.23 2085.16 2449.38 2299.72 2602.58 2514C2645.12 2573.51 2685.64 2633.03 2713.79 2701C2722.51 2722.05 2730.78 2743.91 2736.37 2766C2738.21 2773.25 2739.75 2789.48 2746.14 2793.93C2754.97 2800.05 2768.03 2803.01 2778 2807C2802.49 2816.79 2827.16 2825.85 2852 2834.69C2922.21 2859.68 2996.15 2880.18 3070 2890.83C3102.54 2895.52 3135.22 2898.53 3168 2899.96C3181.26 2900.54 3194.78 2898.91 3208 2900.17C3220.99 2901.41 3233.19 2905.28 3246 2907M1970 1681L1876 1775C1867.17 1783.83 1855.8 1790.95 1847.61 1800.09C1826.18 1824.03 1808.22 1853.09 1789.12 1879C1748.65 1933.9 1708.58 1989.1 1668.12 2044C1544.99 2211.05 1423.01 2378.95 1299.88 2546C1265.43 2592.74 1220.93 2642.48 1203.72 2699C1193.53 2732.45 1183.4 2765.81 1172.33 2799C1169.17 2808.48 1165.94 2830.06 1157.78 2836.16C1151.08 2841.16 1138.95 2842.56 1131 2845.03C1111.08 2851.22 1091.09 2856.84 1071 2862.42C999.348 2882.34 924.823 2892.8 851 2899.83C817.821 2902.99 782.364 2897.9 750 2907M1159 2836C1174.25 2851.25 1188.66 2868.51 1208 2878.68C1274.66 2913.74 1357.14 2897.85 1429 2905"/>
</svg>
