<?xml version="1.0" standalone="yes"?>
<svg width="4000" height="4500">
<path style="stroke:none;fill:none;" d="M1261 373C1262.11 398.802 1275.93 425.997 1290.02 447C1295.17 454.66 1300.18 462.035 1306.29 469C1308.72 471.782 1313.29 474.983 1313.44 479C1313.8 488.137 1304.5 501.553 1301.09 510C1291.46 533.875 1283.2 558.44 1275.51 583C1250.4 663.127 1228.98 745.588 1213 828M3010 422C2951.92 456.25 2892.59 484.164 2830 509.2C2814.95 515.218 2800.05 521.582 2785 527.6C2780.59 529.363 2772.8 534.533 2768 533.363C2760.89 531.63 2753.05 520.053 2748 515C2731.62 498.619 2715.92 480.303 2698 465.616C2675.19 446.919 2643.62 450 2616 450L1744 450L1569 450C1521.75 450 1474.94 449.225 1428 454.845C1392.15 459.137 1349.36 463.646 1316 478M2768 536C2747.38 590.657 2745.61 653.6 2719.03 706C2704.86 733.953 2684.7 758.689 2666.42 784C2640.7 819.627 2615.15 855.373 2589.42 891C2500.94 1013.56 2412.91 1136.44 2324.42 1259C2118.44 1544.32 1915.18 1831.66 1707.85 2116C1612.28 2247.06 1517.92 2379.05 1423.58 2511C1400.91 2542.71 1374.07 2574.13 1358.17 2610C1344.43 2640.99 1339.64 2677.39 1330.58 2710C1325.78 2727.27 1321.53 2744.69 1316.85 2762C1314.96 2768.99 1310.27 2778.77 1310.78 2786C1311.19 2791.77 1319.21 2797.21 1323 2801L1358 2836C1364.92 2842.92 1371.63 2851.34 1380 2856.53C1408.23 2874.06 1446.04 2873.64 1478 2875.04C1536.81 2877.61 1596.08 2876 1655 2876L2472 2876C2521.8 2876 2572.35 2878.31 2622 2874.91C2662.67 2872.13 2702.65 2866.01 2743 2860.29C2766.65 2856.93 2790.58 2854.13 2814 2849.45C2821.76 2847.9 2832.82 2848.39 2839.79 2844.57C2847.95 2840.08 2853.56 2819.36 2857.15 2811C2871.06 2778.62 2883.74 2745.59 2894.42 2712C2921.27 2627.58 2945.81 2542.26 2961.54 2455C2966.85 2425.54 2972.11 2395.74 2975.71 2366C2977.82 2348.62 2978.03 2328.76 2983 2312"/>
</svg>
