<?xml version="1.0" standalone="yes"?>
<svg width="4000" height="4500">
<path style="stroke:none;fill:none;" d="M2455 3667L1998 3667L1910 3667C1898.79 3667 1881.53 3670.28 1871 3666.4C1865.18 3664.25 1860.28 3657.28 1856 3653C1845.15 3642.15 1829.79 3630.97 1821.6 3618C1818.84 3613.62 1820 3606.96 1820 3602L1820 3567L1820 3434L1820 2936L1820 1075L1820 526L1820 384L1820 347C1820 341.704 1818.96 335.486 1822.32 331C1831.34 318.954 1844.35 308.645 1855 298C1859.29 293.715 1864.18 286.75 1870 284.604C1881.29 280.44 1899.96 284 1912 284L2007 284L2455 284"/>
</svg>
