<?xml version="1.0" standalone="yes"?>
<svg width="4000" height="4500">
<path style="stroke:none;fill:none;" d="M1546 284L1994 284L2089 284C2101.04 284 2119.71 280.44 2131 284.604C2136.82 286.75 2141.72 293.715 2146 298C2156.65 308.645 2169.66 318.954 2178.68 331C2182.04 335.486 2181 341.704 2181 347L2181 384L2181 526L2181 1074L2181 2936L2181 3434L2181 3567L2181 3602C2181 3606.96 2182.16 3613.62 2179.4 3618C2171.21 3630.97 2155.85 3642.15 2145 3653C2140.72 3657.28 2135.82 3664.25 2130 3666.4C2119.47 3670.28 2102.21 3667 2091 3667L2003 3667L1546 3667"/>
</svg>
