<?xml version="1.0" standalone="yes"?>
<svg width="4000" height="4500">
<path style="stroke:none;fill:none;" d="M2665 2602C2646.97 2630.74 2625.23 2658.04 2603.44 2684C2548.62 2749.31 2485.44 2810.4 2409 2849.89C2354.79 2877.9 2298.99 2891.63 2239 2900.27C2189.97 2907.34 2137.49 2915.56 2088 2910.83C1909.36 2893.76 1753.59 2786.76 1653.22 2641C1549.76 2490.75 1500.45 2305.26 1496.01 2124C1494.57 2064.89 1502.96 2004.75 1508.83 1946C1521.92 1815.12 1551.05 1686.05 1610.6 1568C1634.84 1519.94 1665.41 1474.91 1700.3 1434C1721.77 1408.82 1746.62 1385.22 1773 1365.26C1801.79 1343.48 1832.12 1323.42 1865 1308.31C1978.57 1256.13 2101.72 1250.55 2224 1262.83C2298.2 1270.28 2372.86 1291.54 2436 1332.12C2455.89 1344.9 2482.33 1360.8 2496.39 1380.17C2500.75 1386.18 2502.11 1395.05 2504.5 1402C2510.38 1419.05 2514.92 1436.59 2519.58 1454C2531.97 1500.27 2541.66 1546.95 2550.46 1594C2554.33 1614.66 2560.83 1636.98 2561 1658"/>
</svg>
