<?xml version="1.0" encoding="UTF-8" standalone="no"?>
<!-- Created with Inkscape (http://www.inkscape.org/) -->

<svg
   xmlns:dc="http://purl.org/dc/elements/1.1/"
   xmlns:cc="http://creativecommons.org/ns#"
   xmlns:rdf="http://www.w3.org/1999/02/22-rdf-syntax-ns#"
   xmlns:svg="http://www.w3.org/2000/svg"
   xmlns="http://www.w3.org/2000/svg"
   xmlns:sodipodi="http://sodipodi.sourceforge.net/DTD/sodipodi-0.dtd"
   xmlns:inkscape="http://www.inkscape.org/namespaces/inkscape"
   width="165.42154"
   height="37.230595"
   id="svg5833"
   version="1.1"
   inkscape:version="0.48.4 r9939"
   sodipodi:docname="cneai.svg">
  <defs
     id="defs5835">
    <clipPath
       clipPathUnits="userSpaceOnUse"
       id="clipPath16-0-1-5-5-0-5-3-4-4">
      <path
         inkscape:connector-curvature="0"
         d="m 0,340.157 566.929,0 L 566.929,0 0,0 0,340.157 z"
         id="path18-0-6-9-3-1-83-6-2-6" />
    </clipPath>
  </defs>
  <sodipodi:namedview
     id="base"
     pagecolor="#ffffff"
     bordercolor="#666666"
     borderopacity="1.0"
     inkscape:pageopacity="0.0"
     inkscape:pageshadow="2"
     inkscape:zoom="1.993725"
     inkscape:cx="138.45158"
     inkscape:cy="-29.533472"
     inkscape:document-units="px"
     inkscape:current-layer="layer1"
     showgrid="false"
     fit-margin-top="0"
     fit-margin-left="0"
     fit-margin-right="0"
     fit-margin-bottom="0"
     inkscape:window-width="1366"
     inkscape:window-height="715"
     inkscape:window-x="0"
     inkscape:window-y="22"
     inkscape:window-maximized="1" />
  <metadata
     id="metadata5838">
    <rdf:RDF>
      <cc:Work
         rdf:about="">
        <dc:format>image/svg+xml</dc:format>
        <dc:type
           rdf:resource="http://purl.org/dc/dcmitype/StillImage" />
        <dc:title></dc:title>
      </cc:Work>
    </rdf:RDF>
  </metadata>
  <g
     inkscape:label="Layer 1"
     inkscape:groupmode="layer"
     id="layer1"
     transform="translate(-340.5657,-502.88154)">
    <g
       transform="matrix(0.30066256,0,0,-0.30066256,338.14657,572.50266)"
       id="g12-4-0-9-4-5-0-6-4"
       style="fill:#000000"
       inkscape:export-filename="/home/colm/git/osp.work.multiple-art-days/tmp_website_2/assets/logos/cneai.png"
       inkscape:export-xdpi="406.42502"
       inkscape:export-ydpi="406.42502">
      <g
         id="g14-5-87-1-1-9-9-0-8"
         clip-path="url(#clipPath16-0-1-5-5-0-5-3-4-4)"
         style="fill:#000000">
        <g
           id="g20-5-05-1-73-6-7-5-0"
           transform="translate(46.731,107.7305)"
           style="fill:#000000">
          <path
             inkscape:connector-curvature="0"
             d="m 0,0 c -24.399,0.16 -38.685,18.459 -38.685,45.908 0,27.449 14.286,45.749 38.685,45.749 16.694,0 30.178,-8.829 35.957,-26.166 L 15.089,57.466 C 11.076,66.455 8.186,70.789 0,70.789 c -8.829,0 -13.965,-6.421 -13.965,-24.881 0,-18.459 5.136,-24.881 14.607,-24.881 7.224,0 11.557,4.817 16.694,14.287 L 36.599,24.398 C 27.128,6.742 16.212,0.16 0,0.16 L 0,0 z"
             style="fill:#000000;fill-opacity:1;fill-rule:nonzero;stroke:none"
             id="path22-9-7-7-14-9-3-9-7" />
        </g>
        <g
           id="g24-8-4-6-5-4-8-7-7"
           transform="translate(146.314,166.4131)"
           style="fill:#000000">
          <path
             inkscape:connector-curvature="0"
             d="m 0,0 c 0,10.594 -3.049,12.36 -7.865,12.36 -7.224,0 -13.003,-4.013 -16.213,-7.384 l 0,-61.639 -24.72,0 0,88.286 23.115,0 0,-6.903 c 6.581,4.334 14.447,8.508 23.275,8.508 18.46,0 27.128,-12.361 27.128,-30.338 l 0,-59.553 -24.72,0 L 0,0 z"
             style="fill:#000000;fill-opacity:1;fill-rule:nonzero;stroke:none"
             id="path26-4-6-7-32-5-5-8-2" />
        </g>
        <g
           id="g28-7-2-6-0-92-8-9-1"
           transform="translate(210.5503,166.5732)"
           style="fill:#000000">
          <path
             inkscape:connector-curvature="0"
             d="M 0,0 26.967,0 C 26.004,8.989 20.867,13.483 13.484,13.483 6.099,13.483 0.963,8.989 0,0 m -24.88,-12.841 c 0,27.448 14.286,45.587 38.684,45.748 23.596,0 36.439,-19.744 36.439,-40.612 l 0,-10.594 -50.243,0 c 0.963,-14.607 7.705,-19.263 14.928,-19.263 8.187,0 11.879,3.532 17.979,10.755 l 18.298,-11.396 c -9.631,-14.769 -21.67,-20.226 -38.364,-20.226 -23.435,0 -37.721,18.459 -37.721,45.588"
             style="fill:#000000;fill-opacity:1;fill-rule:nonzero;stroke:none"
             id="path30-1-2-3-3-9-4-7-6" />
        </g>
        <g
           id="g32-3-7-1-5-3-0-7-5"
           transform="translate(298.5732,135.1113)"
           style="fill:#000000">
          <path
             inkscape:connector-curvature="0"
             d="m 0,0 c 0,-4.815 2.89,-7.384 7.063,-7.384 4.975,0 11.717,4.173 16.051,7.544 l 0,13.965 C 15.571,12.681 0,10.113 0,0 m 24.559,-19.744 c -7.223,-4.494 -14.607,-7.223 -24.239,-7.223 -16.533,0 -25.04,12.039 -25.04,24.559 0,20.547 16.695,30.82 47.834,34.833 l 0,4.976 c 0,4.495 -3.531,7.544 -9.792,7.544 -8.185,0 -12.679,-4.334 -17.817,-11.235 l -16.533,12.519 c 6.741,11.559 21.509,18.46 34.35,18.14 23.758,-0.642 34.512,-9.632 34.512,-35.957 l 0,-39.327 c 0,-4.013 0.321,-7.866 2.568,-14.446 l -24.88,0 -0.963,5.617 z"
             style="fill:#000000;fill-opacity:1;fill-rule:nonzero;stroke:none"
             id="path34-4-2-3-9-44-1-9-6" />
        </g>
        <path
           inkscape:connector-curvature="0"
           d="m 370.178,197.528 24.719,0 0,-88.286 -24.719,0 0,88.286 z m 0,34.031 24.719,0 0,-23.437 -24.719,0 0,23.437 z"
           style="fill:#000000;fill-opacity:1;fill-rule:nonzero;stroke:none"
           id="path36-3-1-4-9-3-0-2-4" />
        <path
           inkscape:connector-curvature="0"
           d="m 558.236,162.755 -87.222,0 0,22.313 87.222,0 0,-22.313 z"
           style="fill:#000000;fill-opacity:1;fill-rule:nonzero;stroke:none"
           id="path38-7-2-6-6-9-5-3-5" />
        <path
           inkscape:connector-curvature="0"
           d="m 558.236,122.188 -87.222,0 0,22.312 87.222,0 0,-22.312 z"
           style="fill:#000000;fill-opacity:1;fill-rule:nonzero;stroke:none"
           id="path40-4-5-7-9-5-8-5-5" />
      </g>
    </g>
  </g>
</svg>
