<?xml version="1.0" standalone="yes"?>
<svg width="4000" height="4500">
<path style="stroke:none;fill:none;" d="M2113 369C2166.46 380.026 2224.63 371.659 2279 374.04C2345.34 376.944 2411.51 389.894 2468 426.695C2487.27 439.248 2503.81 454.81 2520 471C2581.43 409.567 2656.98 379.98 2743 374.089C2791.95 370.737 2841.63 376.223 2890 368M2520 471L2520 2107L2520 2532L2520 2643C2520 2653.47 2524.11 2675.41 2517.68 2684C2494.8 2714.55 2453.71 2724.79 2420 2739.15C2410.52 2743.19 2398.08 2745.77 2390 2752.27C2367.86 2770.11 2349.13 2792.43 2327 2810.58C2281.05 2848.24 2229.37 2878.94 2174 2900.54C2099.94 2929.42 2017.77 2938.48 1939 2933.09C1888.2 2929.61 1838.41 2925.96 1789 2912.25C1692.85 2885.58 1605.15 2828.6 1538.51 2754.84C1414.76 2617.86 1355.46 2438.54 1333.84 2258C1328.7 2215.07 1323.88 2172.11 1320.91 2129C1319.5 2108.55 1316.14 2087.53 1317.04 2067C1326.93 1841.11 1397.15 1593.64 1571 1438.17C1626.26 1388.74 1690.06 1351.03 1758 1321.87C1816.9 1296.6 1884.96 1280.84 1949 1278.04C1985.93 1276.42 2024.28 1282.16 2061 1285.83C2106.34 1290.36 2151.8 1296.19 2196 1307.58C2226.35 1315.4 2256.56 1325.83 2285 1339.02C2299.61 1345.79 2313.9 1356.16 2329 1361.48C2344.13 1366.81 2362.23 1368.05 2378 1371.2C2397.11 1375.02 2416.71 1382.75 2436 1384.83C2463.02 1387.73 2491.81 1385 2519 1385M2520 2683L2554 2717C2559.49 2722.49 2567.12 2728.13 2570.86 2735C2578.53 2749.1 2579.53 2770.4 2583.37 2786C2593.42 2826.72 2604.71 2868.35 2610 2910"/>
</svg>
