<?xml version="1.0" standalone="yes"?>
<svg width="4000" height="4500">
<path style="stroke:none;fill:none;" d="M1874 774L1788.25 1303L1775.83 1439L1774 1476L1775.03 1489.4L1789 1491L1828 1491L1990 1491L2649 1491M2445 774C2444.6 793.536 2439.12 813.671 2436.27 833C2430.32 873.382 2423.68 913.665 2417.42 954C2404.39 1038.04 2390.61 1121.96 2377.58 1206C2362.94 1300.37 2348 1394.32 2348 1490M1444 1491L1773 1491M1745 1492C1745 1576.92 1732.41 1660.25 1719.42 1744C1708.66 1813.38 1697.79 1882.74 1686.25 1952C1679.42 1992.95 1679.76 2034.74 1675.83 2076C1674.72 2087.64 1675 2099.3 1675 2111C1675 2114.33 1673.82 2120.62 1676.03 2123.4C1678.47 2126.48 1686.52 2125 1690 2125L1729 2125L1891 2125L2550 2125M2318 1492C2318 1704.78 2248 1911.16 2248 2124M1342 2125L1674 2125M1644 2126C1644 2212.51 1631.66 2297.65 1618.42 2383C1602.55 2485.38 1584.83 2587.5 1569.73 2690C1564.81 2723.39 1559.17 2756.71 1553.59 2790C1550.57 2807.98 1545.78 2826.79 1545 2845M2218 2126C2218 2221.73 2203.07 2315.59 2188.42 2410C2174.15 2502.05 2158.85 2593.95 2144.58 2686C2138.52 2725.03 2131.48 2763.93 2125.73 2803C2123.64 2817.2 2119.62 2831.65 2119 2846"/>
</svg>
