<?xml version="1.0" standalone="yes"?>
<svg width="4000" height="4500">
<path style="stroke:none;fill:none;" d="M1976 514L1976 1367L1976 1568L1976 1627L1975.4 1654L1958 1673L1916 1715C1923.58 1725.65 1926.9 1744.1 1937.21 1752.3C1941.97 1756.09 1949.44 1757.62 1955 1760C1969.02 1766.01 1982.97 1772.17 1997 1778.15C2003.13 1780.76 2011.4 1782.62 2016.62 1786.82C2023.41 1792.29 2027.87 1805.29 2031.75 1813C2033.31 1816.1 2034.72 1821.42 2038.27 1822.72C2074.35 1835.91 2117.47 1831.19 2153 1846.34C2233.06 1880.46 2307.96 1923.79 2375 1979.59C2407.78 2006.86 2440.01 2036.55 2465.4 2071C2514.03 2137.01 2545.92 2213.12 2559.15 2294C2561.93 2311.01 2566.03 2328.69 2566.29 2346C2566.97 2391.86 2556.56 2440.84 2549.08 2486C2530.37 2598.94 2495.41 2709.42 2409 2789.91C2377.25 2819.48 2340.24 2842.24 2302 2862.37C2230.86 2899.82 2151.59 2921.26 2072 2928.83C2048.44 2931.07 2024.64 2931 2001 2932.04C1996.36 2932.24 1979.88 2931 1977.03 2934.6C1973.99 2938.44 1976 2949.29 1976 2954L1976 3006L1976 3207M1977 728C2027.74 728 2079.5 729.201 2130 734.17C2186.84 739.762 2242.94 753.078 2298 767.845C2324.76 775.021 2352.19 782.748 2378 792.866C2385.77 795.911 2398.29 797.131 2404.58 802.702C2411.31 808.665 2414.03 824.694 2417.19 833C2427.35 859.706 2436.85 886.791 2445.55 914C2468.6 986.006 2489.1 1058.45 2506.5 1132C2513.84 1163 2523.36 1194.46 2528 1226M1916 1715C1892.59 1710.46 1869.32 1705.17 1846 1700.21C1832.63 1697.37 1817.83 1695.82 1805 1691.05C1773.54 1679.34 1743.48 1658.26 1715 1640.81C1621.96 1583.81 1524.36 1505.98 1476.89 1405C1458.75 1366.42 1450.07 1326.85 1443.58 1285C1440.21 1263.29 1435.07 1240.02 1436.04 1218C1437.26 1190.09 1443.62 1161.45 1448.58 1134C1455.03 1098.23 1462.61 1062.97 1475.81 1029C1500.88 964.483 1543.67 908.195 1596 863.286C1669.37 800.32 1760.73 756.216 1856 739.464C1894.08 732.768 1936.39 731 1975 731M2036 1823L1994 1865L1976.6 1884L1976 1909L1976 1964L1976 2151L1976 2932M1345 2418C1354.37 2448.81 1358.9 2481.7 1366.75 2513C1383.06 2578.06 1402.31 2642.47 1423.72 2706C1431.37 2728.71 1439.37 2751.31 1447.06 2774C1449.91 2782.4 1451.76 2795.9 1457.76 2802.58C1464.21 2809.76 1481.98 2812.33 1491 2815.33C1519.45 2824.82 1549.17 2831.47 1577 2842.6C1631.59 2864.43 1685.38 2888.41 1742 2904.57C1818.06 2926.28 1897.19 2934 1976 2934"/>
</svg>
