<?xml version="1.0" standalone="yes"?>
<svg width="4000" height="4500">
<path style="stroke:none;fill:none;" d="M1764 867C1759.4 872.725 1761.41 878.198 1761.91 885C1762.82 897.344 1764.07 909.659 1764.91 922C1766.35 942.969 1765.12 964.003 1766.04 985C1767.31 1014.07 1770.91 1041.76 1768.91 1071C1759.44 1209.29 1720.15 1349.14 1647.19 1468C1603.39 1539.35 1549.15 1606.59 1474 1646.51C1436.82 1666.26 1397.41 1673.73 1356 1678.17C1328.55 1681.1 1301.18 1682.25 1274 1676.11C1215.81 1662.97 1162.47 1623.91 1131.58 1573C1101.09 1522.76 1088.47 1465.37 1079.58 1408C1074.28 1373.85 1066.27 1336.61 1067.13 1302C1070.68 1158.18 1131.88 1006.65 1222.58 896C1281.04 824.669 1360.45 750.164 1456 737.289C1481.78 733.815 1506.3 736.083 1532 738.834C1585.07 744.515 1635.01 754.892 1679 787.155C1701.05 803.327 1722.13 824.198 1742.01 843.09C1749.44 850.15 1756.62 862.2 1766 866.566C1774.93 870.724 1788.26 870.773 1798 872.13C1822.2 875.503 1848.29 876.816 1872 882.532C1882.52 885.068 1892.78 890.809 1903 894.459C1924.3 902.068 1946.13 908.477 1968 914.244C2028.41 930.17 2089.14 935.943 2151 941.83C2177.52 944.354 2205.56 940.9 2232 939.089C2296.15 934.698 2360.18 928.34 2423 913.497C2455.67 905.778 2489.76 891.395 2523 887.834C2550.36 884.903 2577.75 881.656 2605 877.729C2613.73 876.471 2629.62 870.921 2638 873.643C2642.73 875.179 2646.59 880.588 2650 884C2703.84 841.274 2759.12 797.164 2801 742M2650 884C2645.2 907.191 2637.91 930.092 2631.88 953C2628.42 966.178 2626.5 981.693 2620.6 994C2610.42 1015.22 2591.85 1034.87 2578.14 1054C2549.24 1094.34 2520.28 1134.63 2491.42 1175C2407.23 1292.77 2323.16 1410.63 2238.42 1528C2020.72 1829.54 1806.28 2133.46 1588.58 2435C1514.88 2537.07 1442.27 2639.93 1368.58 2742C1331.45 2793.42 1290.3 2844.05 1257 2898M2764 1995.43C2785.93 1992.29 2810.2 1997.03 2832 1999.72C2852.73 2002.27 2874.02 2004.19 2894 2010.59C2951.12 2028.9 2999.09 2071.26 3025.02 2125C3049.5 2175.72 3049.86 2230.58 3056.29 2285C3058.44 2303.3 3055.34 2322.68 3054.09 2341C3051.55 2378.11 3046.8 2414.49 3039.45 2451C3012.35 2585.65 2956.66 2724.31 2862.09 2826C2810.5 2881.48 2746.68 2926.64 2670 2936.72C2634.09 2941.44 2599.93 2944.72 2564 2938.68C2543.21 2935.18 2523.16 2926.82 2505 2916.43C2483.72 2904.26 2463.91 2890.05 2447.09 2872C2381.61 2801.71 2369.9 2699.06 2358.72 2608C2351.27 2547.36 2359.3 2488.12 2374.1 2429C2401.02 2321.51 2453.59 2219.25 2526.84 2136C2568.83 2088.28 2618.84 2042.73 2678 2017.43C2705.92 2005.49 2734.19 1999.7 2764 1995.43"/>
</svg>
