<?xml version="1.0" standalone="yes"?>
<svg width="4000" height="4500">
<path style="stroke:none;fill:none;" d="M1683 1456C1691.15 1464.15 1704.65 1473.5 1709.57 1484C1723.11 1512.9 1717.15 1550.39 1734.42 1578C1805.36 1691.37 1879.19 1802.78 1956.42 1912C2037.11 2026.09 2116.52 2141.18 2200.37 2253C2208.56 2263.92 2216.51 2275.03 2224.63 2286C2228.59 2291.35 2232.21 2298.38 2238.01 2301.93C2253.94 2311.64 2276.95 2312.56 2291 2325.11C2295.03 2328.71 2300.97 2333.36 2301.85 2339C2305.7 2363.72 2302 2391.95 2302 2417C2302 2424.9 2304.72 2439.15 2300.4 2446C2294.75 2454.94 2284.46 2462.54 2277 2470C2264.81 2482.19 2252.94 2497.34 2239 2507.5C2231.71 2512.81 2220.72 2513.1 2214.75 2520.11C2199.96 2537.46 2187.41 2557.04 2173.34 2575C2135.81 2622.9 2096.63 2670.61 2053.04 2713.09C1978.22 2786 1897.82 2851.89 1800 2891.4C1733.43 2918.28 1660.86 2926.24 1590 2931.09C1391.95 2944.65 1169.13 2893.84 1045.09 2725C994.424 2656.04 969.022 2578.42 950.501 2496C944.676 2470.08 942.147 2443.32 938.718 2417C935.473 2392.09 931.399 2366.14 932.015 2341C932.597 2317.21 937.094 2292.54 940.579 2269C958.151 2150.29 987.792 2037.08 1053.54 1935C1145.62 1792.04 1282.11 1688.05 1424 1598.05C1456.73 1577.29 1490.7 1553.31 1526 1537.21C1540.18 1530.74 1559.87 1533.71 1573 1525.27C1581.96 1519.51 1589.49 1509.51 1597 1502L1644 1455C1636.51 1447.51 1625.11 1439.43 1620.16 1430C1617.15 1424.26 1616.96 1416.29 1615.58 1410C1611.23 1390.21 1610.39 1366.71 1602.65 1348C1593.85 1326.72 1581.6 1306.57 1571.25 1286C1551.24 1246.24 1531.3 1204.94 1516.31 1163C1504.17 1129.03 1490.48 1095.89 1480.92 1061C1471.98 1028.39 1467.08 995.494 1462.72 962C1458.51 929.678 1453.86 899.35 1459.25 867C1468.54 811.219 1477.54 753.56 1499.23 701C1545.22 589.521 1638.05 507.991 1751 467.864C1793.1 452.907 1836.87 449.892 1881 447.961C1983.56 443.473 2089.4 461.63 2166.83 534.573C2220.64 585.265 2247.77 649.113 2263.42 720C2268.28 741.996 2274.62 765.462 2275.91 788C2276.69 801.804 2271.61 817.421 2269.25 831C2263.5 864.04 2257.58 898.351 2246.31 930C2217.39 1011.19 2157.64 1078.21 2100.83 1141C2021.14 1229.07 1921.58 1301.68 1823 1367C1807.07 1377.55 1791.42 1381.12 1773 1385.35C1765.36 1387.1 1756.02 1387.71 1749 1391.3C1740.63 1395.58 1733.59 1405.41 1727 1412L1683 1456M2302 2335C2321.76 2315.24 2340.68 2293.27 2362 2275.21C2370.08 2268.37 2383.33 2267.98 2390.24 2259.87C2406.9 2240.3 2419.78 2214.79 2433.42 2193C2459.47 2151.4 2485.83 2110.02 2511.2 2068C2591.02 1935.82 2667.69 1802.12 2736.75 1664C2769.23 1599.05 2797.34 1534.77 2814.12 1464C2819.5 1441.28 2825.21 1418.65 2830.87 1396C2832.61 1389.07 2833.49 1374.67 2839.3 1369.99C2844.65 1365.69 2853.64 1363.7 2860 1361.2C2877.38 1354.37 2895.13 1348.64 2913 1343.28C2953.14 1331.24 2996.05 1321.88 3038 1320.04C3089.34 1317.79 3143.39 1324.82 3194 1315M2601 1317C2635.51 1321.37 2671.19 1320 2706 1320C2734.12 1320 2763.83 1320.52 2790 1332.31C2809.15 1340.94 2822.38 1355.38 2837 1370M1645 1456L1683 1456M2302 2446C2315.03 2459.03 2327.13 2464.45 2344 2471.2C2352.4 2474.56 2365.22 2477.18 2371.33 2484.11C2389.59 2504.81 2405.12 2529.03 2421.88 2551C2483.29 2631.48 2540.57 2715.77 2615 2785.09C2674.26 2840.29 2740.69 2881.38 2823 2887.01C2835.24 2887.85 2848 2884.12 2860 2882.08C2888.58 2877.22 2917.08 2870.19 2945 2862.42C2988.17 2850.43 3030.05 2830.56 3064 2800.84C3102.57 2767.07 3134.29 2726.51 3159.66 2682C3172.38 2659.69 3181.32 2632.8 3196 2612"/>
</svg>
