<?xml version="1.0" standalone="yes"?>
<svg width="4000" height="4500">
<path style="stroke:none;fill:none;" d="M1986 226C1986 236.134 1983.93 245.939 1984 256C1984.68 355.639 1990 455.216 1990 555C1990 583.577 1991.22 612.452 1989.98 641C1989.64 648.987 1975.03 655.814 1980.29 663C1983.02 666.729 1988.07 672.275 1993 669.377C2002.12 664.016 2007.09 651.652 2017 647.564C2025 644.263 2036.46 645.335 2045 644.961C2057.92 644.395 2069.48 642.284 2082 639.231C2114.16 631.389 2146.05 622.278 2178 613.69C2257.21 592.395 2340.44 571.119 2408 522M1570 524C1579.85 528.25 1588.5 535.215 1598 540.219C1616.8 550.121 1636.34 558.629 1656 566.694C1719 592.544 1783.39 608.565 1849 625.714C1870.7 631.384 1893.76 638.813 1916 641.711C1930.02 643.538 1948.9 639.787 1962 645.514C1967.86 648.077 1972.55 654.547 1977 659M1987 671L1957.28 701L1942.56 728L1885.11 805L1708 1023M1992 671C2000.83 679.825 2013.84 689.151 2020.06 700C2023.61 706.187 2022.62 713.927 2026.64 720C2040.46 740.882 2056.32 760.644 2070.91 781C2105.32 829.023 2142.5 875.083 2179.6 921.004C2206.88 954.763 2233.28 990.285 2264 1021"/>
</svg>
