<?xml version="1.0" standalone="yes"?>
<svg width="4000" height="4500">
<path style="stroke:none;fill:none;" d="M1985 714.424C2007.29 711.496 2032.78 717.186 2055 719.845C2215.19 739.014 2320.38 870.135 2391.89 1004C2407.02 1032.33 2421.7 1061.26 2433.91 1091C2446.01 1120.46 2457.36 1149.98 2467.94 1180C2518.12 1322.42 2539.77 1475.1 2550.09 1625C2554.23 1685.16 2559.28 1745.68 2560 1806C2560.98 1888.5 2552.04 1971.96 2544.17 2054C2529.55 2206.33 2501.53 2360.43 2450.18 2505C2397.2 2654.15 2314.37 2803.44 2172 2882.86C2133.33 2904.43 2091.31 2922.2 2047 2927.72C1989.99 2934.81 1933.04 2935.61 1877 2920.84C1806.46 2902.26 1749.2 2858.21 1698.83 2807.17C1598.86 2705.86 1540.39 2560.09 1502.51 2425C1485.48 2364.23 1469.66 2303.19 1458.46 2241C1442.23 2150.78 1434.16 2059.31 1427.91 1968C1424.71 1921.29 1420.45 1873.87 1421 1827C1421.82 1758.06 1427.19 1688.59 1433.83 1620C1448.36 1469.92 1473.64 1321.53 1521.48 1178C1558.92 1065.69 1610.7 954.167 1688.72 864C1729.05 817.388 1777.44 773.275 1834 747.309C1862.62 734.17 1893.03 725.485 1924 720.324C1944.16 716.965 1964.8 717.078 1985 714.424"/>
</svg>
