<?xml version="1.0" standalone="yes"?>
<svg width="4000" height="4500">
<path style="stroke:none;fill:none;" d="M1568 1068C1637.28 1039.58 1705.23 1006.74 1777 984.86C1829.56 968.839 1885.4 961.478 1939 949.35C1975.38 941.119 2010.44 932.816 2048 934.12C2061.52 934.589 2081.43 936.226 2092.89 944.147C2099.94 949.016 2098.52 965.26 2099.09 973C2101.11 1000.59 2103.99 1028.31 2104 1056C2104.04 1167.33 2104 1278.67 2104 1390L2104 2426L2104 2703L2104 2777C2104 2784.9 2101.28 2799.15 2105.6 2806C2116.27 2822.9 2139.91 2837.92 2156 2849.42C2220.1 2895.23 2297.13 2896 2373 2896C2409.68 2896 2446.39 2897 2483 2897C2513.45 2897 2549.69 2891.7 2579 2901M2104 2805C2070.54 2838.46 2034.14 2866.39 1989 2881.92C1951.13 2894.95 1908.5 2894.53 1869 2895C1817.43 2895.62 1765.56 2895.72 1714 2896.99C1679.61 2897.83 1639.31 2890.64 1606 2900"/>
</svg>
