<?xml version="1.0" standalone="yes"?>
<svg width="4000" height="4500">
<path style="stroke:none;fill:none;" d="M1504 1161C1497.56 1148.9 1501.19 1134.92 1503.61 1122C1508.3 1096.91 1513.4 1071.95 1518.79 1047C1528.42 1002.4 1537.42 952.606 1556.54 911C1588.57 841.276 1649.8 788.503 1719 757.306C1787.12 726.598 1859.9 712.988 1934 707.911C1986.55 704.31 2038.81 702.993 2091 712.424C2248.84 740.944 2392.57 838.413 2453.69 990C2472.38 1036.35 2482.02 1085.75 2489.27 1135C2493.06 1160.75 2498.99 1187.94 2498.99 1214C2498.99 1241.63 2492.88 1270.62 2489.28 1298C2481.74 1355.32 2472.85 1412.38 2453.14 1467C2406.25 1596.95 2323.42 1709.76 2232.17 1812C2135.53 1920.27 2030.81 2019.74 1927 2121.01C1870.29 2176.33 1814.44 2231.76 1761.83 2291C1681.1 2381.9 1598.12 2478.95 1552.01 2593C1537.36 2629.24 1530.93 2667.98 1522.58 2706C1516.74 2732.55 1512.16 2759.32 1507 2786C1504.62 2798.29 1498.97 2815.57 1500.6 2828C1502 2838.67 1514 2839 1522 2839L1592 2839L1890 2839L2317 2839C2353.99 2839 2391.09 2839.66 2428 2838.04C2438.96 2837.56 2460.74 2841.61 2469.71 2834.49C2495.36 2814.14 2514.22 2777.83 2528.42 2749C2556.65 2691.68 2573.69 2628.76 2589.1 2567C2595.1 2542.98 2598.55 2517.56 2606 2494"/>
</svg>
