<?xml version="1.0" standalone="yes"?>
<svg width="4000" height="4500">
<path style="stroke:none;fill:none;" d="M1461 1119C1474.91 1085.76 1491.62 1054.04 1503.95 1020C1516.09 986.48 1523.3 952.425 1541.04 921C1565.08 878.418 1599.25 842.081 1638 812.503C1682.78 778.319 1738.02 757.661 1791 740C1852.92 719.361 1915.32 711.339 1980 706.911C2013.71 704.603 2048.23 701.899 2082 705.17C2201.65 716.757 2321.39 779.044 2381.3 886C2399.24 918.017 2411.81 954.169 2419.4 990C2423.46 1009.22 2429.61 1031.3 2429.29 1051C2428.82 1079.49 2420.12 1110.21 2414.21 1138C2407.03 1171.78 2400.28 1206.05 2386.77 1238C2357.86 1306.39 2309.04 1364.96 2257 1417C2229.73 1444.27 2200.6 1469.38 2171 1494.08C2158.88 1504.19 2140.11 1513.48 2130.82 1526.18C2125.92 1532.89 2123.85 1543.25 2120.95 1551C2114.93 1567.1 2108.55 1583.11 2101.99 1599C2097.02 1611.04 2092.05 1623.12 2086.69 1635C2084.56 1639.74 2079.69 1646.74 2079.71 1652C2079.72 1656.24 2085.27 1661.94 2089.01 1663.4C2101.14 1668.13 2117.17 1667.48 2130 1670.21C2186.16 1682.15 2237.89 1704.69 2289 1730.25C2418.5 1795 2493.74 1924.09 2524.5 2061C2534.34 2104.8 2542.53 2154.04 2542 2199C2541.54 2237.52 2534.73 2276.77 2530.16 2315C2523.87 2367.5 2514.72 2420.4 2499.14 2471C2453.78 2618.29 2363.47 2749.47 2233 2833.46C2159.27 2880.92 2075.7 2916.02 1989 2930.56C1951.01 2936.94 1912.36 2937.36 1874 2939.04C1799.24 2942.31 1723.09 2931.44 1653 2904.54C1625.87 2894.13 1598.57 2882.84 1574 2867.12C1524.31 2835.33 1481.41 2791.59 1439 2751M1812 1694L1850 1689.83L1913 1681.73L2078 1653"/>
</svg>
