<?xml version="1.0" standalone="yes"?>
<svg width="4000" height="4500">
<path style="stroke:none;fill:none;" d="M2179 736C2174.99 749.923 2167.27 763.77 2161.31 777C2150.37 801.271 2139.69 825.68 2128.86 850C2090.86 935.338 2050.03 1019.43 2008.25 1103C1881.51 1356.48 1744.43 1604.95 1598.6 1848C1569.33 1896.78 1539.11 1945.18 1508.31 1993C1495.18 2013.38 1481.91 2033.7 1468.66 2054C1462.42 2063.55 1454.66 2072.72 1449.67 2083C1442.79 2097.16 1440.24 2115.73 1436.37 2131C1432.56 2146.07 1428.09 2160.97 1424.12 2176C1422.44 2182.35 1419.14 2189.37 1419.18 2196C1419.24 2204.32 1423.44 2214.01 1425.71 2222C1427.38 2227.89 1428.19 2235.81 1431.84 2240.86C1435.84 2246.37 1446.8 2246.6 1453 2247.02C1470.64 2248.23 1488.29 2248 1506 2248L1726 2248L2631 2248M2299 1589C2296.53 1605.79 2291.8 1621.92 2290.17 1639C2286.78 1674.59 2289 1711.24 2289 1747L2289 1938L2289 2489L2289 2728L2289 2790C2289 2797.26 2291.24 2808.91 2286.68 2815C2277.49 2827.27 2263.15 2837.67 2251 2846.87C2228.14 2864.18 2203.63 2878.38 2176 2886.56C2134.76 2898.77 2088.57 2898 2046 2898C2023.66 2898 2001.27 2899 1979 2899C1967.25 2899 1952.82 2896.7 1942 2902M2289 2814C2315.12 2840.12 2345.47 2864.41 2380 2878.4C2415.1 2892.61 2454.53 2896.07 2492 2896.99C2521.33 2897.7 2550.67 2898 2580 2898C2595.75 2898 2613.98 2895.53 2629 2901"/>
</svg>
