<?xml version="1.0" standalone="yes"?>
<svg width="4000" height="4500">
<path style="stroke:none;fill:none;" d="M1472 1773C1458.51 1800.51 1458.77 1833.77 1455.83 1864C1449.33 1930.86 1443.02 1998.8 1445.96 2066C1457.31 2325.17 1495.34 2610.01 1694.09 2797.84C1751.28 2851.89 1822.59 2897.52 1898 2920.97C1965.72 2942.04 2035.98 2944.89 2106 2940.09C2152.91 2936.88 2198.64 2930.76 2243 2913.94C2338.64 2877.66 2421.47 2807.7 2475.09 2721C2521.74 2645.59 2548.19 2561.24 2566.12 2475C2575.37 2430.48 2580.65 2385.23 2585.17 2340C2587.41 2317.59 2590.66 2294.53 2590.66 2272C2590.66 2243.25 2585.99 2213.5 2582.28 2185C2565.27 2054.45 2513.8 1916.58 2422.91 1819C2370.03 1762.23 2299.67 1720.17 2227 1694.31C2179.47 1677.39 2128.48 1666.6 2078 1664.04C2044.07 1662.31 2009.67 1667.23 1976 1670.83C1896.22 1679.37 1813.34 1695.75 1742 1734.31C1717.44 1747.58 1693.52 1761.28 1671 1777.88C1654.3 1790.2 1639.44 1808.55 1622 1819.15C1612.17 1825.12 1597.05 1827.19 1586 1830.42C1575.08 1833.62 1558.3 1843.31 1547 1842.36C1539.93 1841.76 1531.74 1829.74 1527 1825C1510.24 1808.24 1491.31 1792.21 1476.15 1774C1470.92 1767.72 1474.94 1755.53 1475.84 1748C1478.71 1724.05 1480.82 1699.66 1485.55 1676C1505.61 1575.69 1542.43 1477.73 1584.97 1385C1693.86 1147.63 1884.04 933.728 2119 816.249C2258.36 746.569 2421.12 709.229 2576 697"/>
</svg>
