<?xml version="1.0" standalone="yes"?>
<svg width="4000" height="4500">
<path style="stroke:none;fill:none;" d="M1446 684C1449.17 700.34 1452.36 717.961 1459.81 733C1473.65 760.919 1500.29 784.288 1522 806C1466.81 869.226 1438.04 947.044 1410.46 1025C1396.94 1063.22 1382.47 1101.83 1372 1141M2639 724C2598.44 753.71 2553.2 776.527 2510 802C2515.55 809.875 2529.8 817.61 2532.11 827C2534.51 836.74 2528.4 853.115 2526.75 863C2521.92 892.01 2516.89 920.987 2512.08 950C2509.91 963.113 2508.89 977.226 2505.22 990C2493.03 1032.4 2471.79 1074.02 2455.4 1115C2423.83 1193.93 2392.77 1273.07 2361.2 1352C2225.84 1690.4 2093.48 2030.15 1962.06 2370C1913.98 2494.32 1867.51 2619.43 1817.6 2743C1804.25 2776.06 1791.29 2809.53 1779.05 2843C1773.78 2857.43 1769.23 2879.93 1759.5 2891.83C1750.96 2902.26 1731.67 2909.6 1720 2916.33C1701.19 2927.19 1682.81 2938.81 1664 2949.67C1652.51 2956.3 1639.23 2962.6 1629 2971M1522 806C1608.07 799.203 1695.59 803 1782 803L2224 803L2420 803L2479 803C2488.49 803 2499.88 804.696 2509 802"/>
</svg>
