<?xml version="1.0" standalone="yes"?>
<svg width="4000" height="4500">
<path style="stroke:none;fill:none;" d="M1998 691.424C2023.91 688.021 2052.09 691.137 2078 692.911C2145.41 697.526 2213.45 713.712 2273 746.514C2404.51 818.951 2488.4 953.987 2494.96 1104C2495.61 1118.84 2491.86 1134.4 2489.41 1149C2485.78 1170.65 2482.33 1192.76 2476.71 1214C2458.16 1284.14 2416.1 1343.72 2368.17 1397C2317.42 1453.41 2261.41 1503.21 2202 1550.29C2185.57 1563.3 2169.03 1576.34 2152 1588.57C2143.09 1594.97 2130.28 1601.43 2123.5 1610.09C2115.46 1620.35 2114.19 1635.72 2107.78 1647C2101.15 1658.65 2087.44 1668.56 2078 1678C2073.05 1682.95 2065.18 1694.55 2058 1695.73C2050.73 1696.92 2041.63 1692.04 2034 1692C2006.33 1691.87 1978.67 1692 1951 1692C1939.27 1692 1921.79 1694.94 1911.21 1688.69C1906.61 1685.96 1904.58 1677.68 1902.58 1673C1897.14 1660.3 1891.28 1635.31 1879.96 1627.09C1832.48 1592.66 1780.62 1565.01 1734 1529.11C1621.7 1442.63 1514.54 1317.81 1513 1168C1512.69 1137.5 1520.8 1104.89 1526.39 1075C1534.35 1032.46 1542.37 988.721 1560.09 949C1602.47 853.991 1689.02 775.271 1784 734.287C1832.04 713.555 1882.15 701.509 1934 695.285C1955.22 692.739 1976.9 694.196 1998 691.424M1909 1689C1893.28 1704.72 1873.59 1720.05 1860.5 1738C1853.12 1748.12 1852.89 1764.59 1843.73 1773.25C1831 1785.26 1814.83 1794.65 1801 1805.42C1773.78 1826.63 1746.94 1848.54 1721 1871.29C1635.3 1946.43 1556.9 2028.48 1498.6 2127C1458.24 2195.21 1435.9 2266.83 1425.72 2345C1422.97 2366.08 1419.72 2387.76 1419.04 2409C1418.48 2426.64 1421.96 2445.45 1423.83 2463C1427.02 2492.75 1430.04 2522.95 1437.42 2552C1459.59 2639.22 1497.89 2717.68 1561.29 2782.83C1676.42 2901.16 1844.21 2952.12 2006 2945.04C2150.88 2938.69 2295.02 2893.26 2402 2790.96C2481.47 2714.97 2527.66 2609.66 2547.61 2503C2554.86 2464.23 2561.47 2425.16 2566.16 2386C2568.23 2368.65 2571.97 2350.48 2571.97 2333C2571.97 2305.43 2566.31 2275.85 2560.49 2249C2526.32 2091.46 2414.05 1976.22 2287 1885.43C2243.66 1854.46 2198.21 1825.58 2153 1797.43C2137.37 1787.69 2121.33 1778.55 2106 1768.33C2100.14 1764.43 2092.18 1760.87 2087.42 1755.67C2083.24 1751.11 2081.21 1743.58 2078.69 1738C2072.55 1724.38 2067.03 1710.18 2060 1697"/>
</svg>
