<?xml version="1.0" standalone="yes"?>
<svg width="4000" height="4500">
<path style="stroke:none;fill:none;" d="M2706 1462C2671.35 1480.26 2629.71 1489.7 2593 1503.42C2507.95 1535.22 2422.54 1566.25 2337 1596.69C2115.06 1675.67 1894.94 1759.71 1673 1838.69C1621.88 1856.89 1571.1 1876.06 1520 1894.31C1494.82 1903.3 1464.2 1909.96 1441.04 1923.27C1435.09 1926.7 1431.98 1935.3 1428.6 1941C1421.14 1953.59 1413.86 1966.3 1406.58 1979C1403.53 1984.31 1400.5 1992.55 1395.62 1996.4C1390.75 2000.24 1378.93 1998 1373 1998L1313 1998M1397 1999L1424.58 2047L1439.39 2071.5L1464 2081.42L1526 2104.05L1742 2182.69L2376 2414.05L2595 2494.05L2705 2534"/>
</svg>
