<?xml version="1.0" standalone="yes"?>
<svg width="4000" height="4500">
<path style="stroke:none;fill:none;" d="M1465 847C1460.68 838.754 1454.74 829.355 1453.34 820C1451.78 809.554 1456.15 795.317 1458.2 785C1463.07 760.514 1468.57 736.218 1474.63 712C1486.22 665.624 1496.41 613.031 1519.86 571C1557.82 502.962 1632.43 457.717 1702 427.719C1769.21 398.738 1842.55 386.872 1915 381.911C1979.67 377.481 2044.14 375.832 2108 389.662C2240.08 418.265 2354.78 507.158 2424.42 622C2464.03 687.317 2485.44 758.862 2496.27 834C2499.93 859.41 2505.61 886.286 2504.99 912C2504.13 946.97 2495.79 983.523 2490.08 1018C2481.58 1069.32 2470.65 1119.14 2449.67 1167C2426.72 1219.33 2392.42 1266.27 2354.84 1309C2242.02 1437.3 2089.43 1524.99 1994.54 1670C1969.14 1708.82 1952.45 1752.79 1939.28 1797C1900.36 1927.63 1908 2063.29 1908 2198M1908 2789L1908 2790"/>
</svg>
