<?xml version="1.0" standalone="yes"?>
<svg width="4000" height="4500">
<path style="stroke:none;fill:none;" d="M2896 3253C2858.22 3282.96 2816.35 3308.95 2775 3333.6C2721.22 3365.67 2665.87 3394.98 2608 3418.99C2456.99 3481.65 2293.38 3509.93 2131 3517.04C2095.44 3518.6 2059.62 3520.92 2024 3520.92C1971.57 3520.92 1919.15 3515.38 1867 3510.17C1600.48 3483.52 1334.35 3384.31 1128 3211.68C1067.1 3160.72 1009.31 3104.97 958.325 3044C735.8 2777.9 618.457 2421.66 610.015 2077C609.377 2050.98 612.135 2024.9 613.911 1999C617.554 1945.85 622.536 1892.91 628.83 1840C664.665 1538.76 783.839 1246.56 992.089 1023C1384.85 601.366 2034.55 457.592 2571 661.064C2791.19 744.579 2998.28 886.343 3144.33 1072C3289.63 1256.7 3372.66 1483.37 3395.17 1716C3398.4 1749.38 3402.6 1783.47 3403 1817C3403.28 1840.68 3399.74 1864.41 3398.09 1888C3394.41 1940.46 3388.16 1993.12 3379.44 2045C3358.08 2172.02 3321.44 2298.41 3257.5 2411C3229.05 2461.11 3194.79 2508.34 3154.96 2550C3070.98 2637.82 2961.08 2695.82 2845 2728.57C2792.54 2743.37 2738.91 2751.27 2685 2758.29C2631.01 2765.32 2574.47 2770 2520 2770C2499.49 2770 2470.02 2767.54 2455.53 2750.83C2447.05 2741.05 2441.57 2726.88 2436.8 2715C2430.23 2698.62 2422.48 2679.75 2420.95 2662C2419.79 2648.53 2423.96 2633.36 2425.72 2620C2429.41 2591.97 2434.06 2564.02 2437.71 2536C2442.11 2502.2 2442.13 2467.82 2446.58 2434C2448.8 2417.09 2449.28 2399.94 2451.29 2383C2452.22 2375.11 2455.71 2362.86 2453.68 2355.17C2452.12 2349.27 2435.16 2332.01 2429 2331.7C2425.02 2331.5 2420.64 2334.6 2417 2335.91C2403.44 2340.8 2391.15 2348.28 2378 2354.14C2359.48 2362.39 2341.52 2371.88 2323 2380.14C2313.22 2384.5 2299.2 2388.23 2291.19 2395.39C2283.54 2402.22 2278.76 2414.37 2273.32 2423C2261.8 2441.29 2249.71 2459.32 2237.28 2477C2190.72 2543.2 2136.75 2607.01 2073 2657.21C2038.52 2684.36 2000.06 2709.29 1957 2720.1C1919.57 2729.51 1881.12 2736.51 1843 2742.42C1820.33 2745.94 1794.98 2751.19 1772 2748.99C1681.14 2740.31 1588.93 2687.67 1538.06 2612C1502.76 2559.48 1481.99 2496 1471.59 2434C1465.57 2398.16 1457.63 2361.37 1456.04 2325C1455.33 2308.84 1458.22 2292.06 1459.83 2276C1463 2244.27 1466.56 2212.63 1470.72 2181C1491.07 2026.22 1542.96 1873.2 1630.17 1743C1703.21 1633.94 1800.51 1533.96 1915 1468.43C1960.16 1442.58 2007.75 1423.06 2057 1406.65C2159.31 1372.54 2273.19 1364.57 2374 1407.87C2410.85 1423.7 2446.06 1448.94 2471.54 1480C2482.73 1493.65 2489.4 1513.29 2501.42 1525.61C2506.33 1530.64 2514.92 1533 2521 1536.42C2534.38 1543.97 2547.61 1551.76 2560 1560.88C2575 1571.93 2587.87 1584.87 2601 1598C2604.5 1601.5 2611.59 1611.74 2617 1611.46C2622.47 1611.19 2630.59 1603.36 2635 1600.28C2639.3 1597.28 2645.25 1594.3 2648.26 1589.91C2652.32 1583.99 2652.99 1572.99 2654.4 1566C2657.57 1550.25 2661.74 1534.73 2665 1519C2666.41 1512.18 2666.64 1503.15 2669.99 1497C2674.7 1488.35 2685.07 1480.93 2692 1474C2706.18 1459.82 2719.9 1445.22 2734 1431M2616 1613C2615.88 1655 2607.35 1698.2 2603.17 1740C2598.65 1785.16 2594.45 1830.3 2586.54 1875C2557.76 2037.55 2505.15 2195.21 2455 2352"/>
</svg>
