<?xml version="1.0" standalone="yes"?>
<svg width="4000" height="4500">
<path style="stroke:none;fill:none;" d="M954 427C1005.73 433.543 1059.86 428.384 1112 429.004C1215.86 430.238 1321.51 446.508 1398 523L1452 469C1459.62 461.378 1468.32 448.869 1478 444.028C1483.76 441.146 1493.67 443 1500 443C1516.05 443 1531.95 442 1548 442C1608.48 442 1668.75 443.786 1729 447.911C1897.04 459.415 2080.64 510.436 2190.39 647C2214.08 676.483 2235.03 707.958 2251.58 742C2271.44 782.863 2282.55 827.42 2290.08 872C2295.59 904.601 2305.69 940.852 2304.87 974C2304.1 1005.3 2295.97 1038.24 2290.42 1069C2275.47 1151.95 2252.23 1228.96 2203.56 1299C2191.03 1317.03 2178.18 1335.08 2162.96 1351C2154.41 1359.94 2140.53 1368.69 2134.14 1379.17C2124.24 1395.42 2120.39 1419.08 2113.58 1437C2109.36 1448.09 2104.83 1459.1 2100.15 1470C2098.55 1473.73 2094.43 1479.83 2095.56 1484C2096.83 1488.69 2102.73 1492.58 2105.91 1496C2113.82 1504.49 2121.35 1513.32 2129.05 1522C2132.43 1525.8 2135.81 1531.32 2141 1532.69C2152.67 1535.76 2166.02 1535.46 2178 1537.13C2199.85 1540.18 2221.42 1544.62 2243 1549.21C2303.81 1562.14 2363.21 1582.75 2420 1607.86C2556.45 1668.2 2675.06 1774.96 2742.08 1909C2766.69 1958.22 2782.79 2011.09 2793.2 2065C2801.24 2106.67 2808.1 2148.87 2813.16 2191C2815.44 2210.05 2819.99 2229.79 2819.99 2249C2819.99 2266.65 2816.21 2285.58 2813.41 2303C2798.81 2393.9 2776.91 2484.43 2732.69 2566C2715.38 2597.94 2693.95 2627.39 2670.43 2655C2508.24 2845.37 2239.5 2877.69 2005 2887.96C1969.23 2889.53 1932.88 2887 1897 2887C1820.57 2887 1744.24 2885.38 1668 2882.04C1627.84 2880.28 1587.89 2878.02 1548 2872.27C1523.86 2868.79 1498.4 2864.78 1476 2854.69C1445.46 2840.92 1421.44 2819.44 1398 2796C1373.22 2820.78 1346.53 2842.87 1315 2858.63C1237.88 2897.19 1143.23 2897 1059 2897C1024.39 2897 989.31 2895.64 955 2900M1398 523L1398 2796M1399 1536C1547.37 1536 1696.39 1539.12 1844 1524.83C1928.57 1516.65 2010.65 1499.53 2094 1484"/>
</svg>
