<?xml version="1.0" standalone="yes"?>
<svg width="4000" height="4500">
<path style="stroke:none;fill:none;" d="M809 539C815.158 537.18 821.665 538.462 828 537.715C851.841 534.901 876.039 535.009 900 533.961C936.394 532.368 973.579 525.736 1010 529.322C1044.12 532.681 1075.87 545.084 1106 560.894C1124.91 570.82 1141.65 583.341 1159 595.634C1165.13 599.982 1176.44 605.928 1179.4 613.17C1181.87 619.237 1179.76 628.514 1180.04 635C1180.78 651.996 1181 668.941 1181 686C1181 740.242 1182 794.673 1182 849L1182 1374L1182 1534L1182 1583C1182 1591.02 1180.72 1600.28 1183 1608C1187.57 1603.43 1192.82 1595.88 1199 1593.6C1205.7 1591.14 1215.91 1593 1223 1593L1275 1593L1507 1593L2445 1593L2631 1593C2662.83 1593 2696.41 1596.01 2728 1592.29C2747.82 1589.95 2769.04 1592 2789 1592C2793.53 1592 2806.92 1594.25 2809.97 1590.4C2812.9 1586.71 2811 1576.51 2811 1572L2811 1524L2811 1336L2811 861L2811 705C2811 675.214 2809.41 644.661 2812.06 615.015C2812.77 606.995 2824.94 600.174 2831 596C2849.26 583.434 2866.25 569.765 2886 559.406C2921.64 540.714 2959.6 529.387 3000 528.211C3030.14 527.334 3060.88 532.643 3091 533.961C3114.96 535.01 3139.16 534.9 3163 537.715C3169.33 538.462 3175.84 537.18 3182 539M2811 1593L2811 2494L2811 2723L2811 2781C2811 2788.51 2808.96 2798.92 2814.15 2805C2886 2889.07 3004.04 2909.75 3109 2911C3139.97 2911.36 3171.09 2912 3202 2912C3222.29 2912 3244.17 2910.11 3264 2915M1183 1608L1183 2496L1183 2723L1183 2781C1183 2788.34 1184.89 2798.04 1179.85 2804C1105.13 2892.48 979.892 2910.7 871 2912C842.342 2912.34 813.66 2912 785 2912C766.381 2912 747.109 2910.91 729 2916M1183 2802C1206.22 2825.22 1228.84 2847.88 1258 2863.69C1324.62 2899.81 1404.36 2909.16 1479 2910.99C1533.05 2912.31 1587.43 2908.79 1641 2916M2811 2802C2792.59 2820.41 2774.11 2838.94 2752 2852.95C2676.77 2900.6 2588.51 2908.17 2502 2911.96C2472.12 2913.27 2441.91 2912 2412 2912C2393.98 2912 2375.53 2911.07 2358 2916"/>
</svg>
