<?xml version="1.0" standalone="yes"?>
<svg width="4000" height="4500">
<path style="stroke:none;fill:none;" d="M1992 424C2056.4 429.092 2121.49 423.673 2186 428.089C2258.01 433.019 2327.33 447.051 2395 472.576C2436.81 488.346 2478.11 508.418 2512 538C2531.31 518.69 2549.91 499.559 2573 484.692C2637.25 443.328 2713.44 433.194 2788 428.089C2834.16 424.929 2882.53 432.382 2928 423M2512 538C2512.05 977.915 2512 1417.96 2512 1858C2512 2024.26 2513.03 2189.16 2489.27 2354C2475.86 2447.05 2458.21 2537.79 2414.74 2622C2399.56 2651.42 2380.19 2678.18 2359.66 2704C2276.73 2808.32 2148.11 2873.72 2019 2899.55C1942.97 2914.76 1866.1 2916.42 1789 2913.04C1749.22 2911.3 1709.61 2910.52 1670 2905.71C1601.01 2897.35 1534.08 2880.25 1469 2856.54C1422.68 2839.67 1375.05 2828.64 1328 2814.03C1314.94 2809.97 1301.98 2805.66 1289 2801.33C1284.08 2799.69 1276.47 2798.61 1272.51 2795.16C1265.71 2789.22 1263.21 2771.41 1260.09 2763C1248.49 2731.78 1238.21 2699.89 1228.63 2668C1191.6 2544.72 1162.8 2420.34 1139 2294"/>
</svg>
