<?xml version="1.0" standalone="yes"?>
<svg width="4000" height="4500">
<path style="stroke:none;fill:none;" d="M877 531C908.103 527.069 939.752 528.05 971 525.911C1005.04 523.58 1040.89 517.869 1075 521.17C1110.66 524.621 1143.57 536.754 1175 553.512C1193.76 563.513 1211.2 575.36 1228 588.385C1233.89 592.955 1243.34 597.316 1246.97 604.089C1249.03 607.927 1247.98 613.787 1248 618C1248.04 626.664 1249 635.286 1249 644C1249 675.006 1250 705.949 1250 737C1250 848.678 1251 960.398 1251 1072C1251 1476.3 1253 1880.73 1253 2285L1253 2655C1253 2688 1252.84 2721 1253 2754C1253.05 2764.11 1258.08 2782 1252.4 2791C1247.68 2798.47 1239.23 2804.77 1233 2811C1210.77 2833.23 1184.76 2851.14 1156 2863.86C1086.12 2894.76 1010.6 2902.13 935 2903.99C906.348 2904.69 877.603 2904.28 849 2904.99C832.887 2905.38 816.889 2903.92 801 2907M2015 739C2087.53 744.772 2161.97 737.355 2234 749.435C2255.83 753.096 2278.28 758.397 2298 768.781C2305.02 772.476 2311.76 776.774 2318 781.662C2321.14 784.12 2324.72 788.42 2329 788.535C2341.23 788.863 2358.26 779.674 2370 776.025C2396.59 767.763 2423.7 761.059 2451 755.6C2488.98 748.004 2527.41 743.728 2566 742.039C2585.31 741.194 2604.82 743.86 2624 742.924C2633.83 742.445 2643.23 739.667 2653 739M2327 791C2319.53 823.277 2306.78 855.287 2297.02 887C2290.98 906.661 2287.7 929.734 2278.22 948C2255.39 991.96 2218.21 1031.48 2187.4 1070C2133 1138 2078.47 1205.89 2024.2 1274C1998.95 1305.69 1973.94 1337.56 1948.39 1369C1935.97 1384.28 1918.6 1400.43 1909.68 1418C1905.43 1426.37 1903.88 1436.99 1901.29 1446C1895.93 1464.67 1890.44 1483.31 1885.14 1502C1880.03 1520.04 1870.12 1541.22 1869.46 1560C1869.03 1572.34 1866.77 1592.31 1870.56 1604C1874.33 1615.61 1888.98 1627.68 1896.75 1637L1956.59 1709C2038.53 1807.45 2119.38 1906.92 2200.58 2006C2293.57 2119.46 2386.31 2233.18 2480.08 2346C2528.61 2404.39 2576.73 2463.08 2624.61 2522C2641.22 2542.44 2659.21 2562 2675.1 2583C2708.83 2627.55 2738.93 2676.62 2758.84 2729C2765.97 2747.74 2771.69 2766.88 2777.66 2786C2779.66 2792.42 2780.55 2803.89 2786.22 2808.16C2797.15 2816.38 2816.13 2820.1 2829 2824.69C2857.89 2835.01 2886.61 2845.87 2916 2854.72C2985.24 2875.58 3054.58 2894.18 3126 2905.85C3169.73 2913 3213.31 2909.8 3257 2914.17C3266.15 2915.09 3274.89 2918.77 3284 2920M1253 2048C1264.15 2048 1277.06 2049.81 1288 2047.62C1302.12 2044.8 1316.64 2036.74 1330 2031.4C1356.31 2020.87 1382.69 2010.52 1409 2000C1422.65 1994.54 1436.35 1989.26 1450 1983.8C1455.83 1981.47 1463.76 1979.7 1468.54 1975.5C1474.94 1969.86 1479.82 1961.58 1485.25 1955C1499.49 1937.74 1512.99 1919.72 1526.65 1902C1566.2 1850.67 1606.75 1800.12 1646.58 1749C1659.05 1732.99 1671.95 1717.23 1684.13 1701C1692.23 1690.2 1700.22 1677.4 1710.17 1668.22C1721.11 1658.14 1744.11 1653.81 1758 1648.58C1795.07 1634.59 1832.06 1620.33 1869 1606M1254 2791C1274.08 2811.08 1292.99 2832.85 1317 2848.31C1379.24 2888.37 1459.6 2898.79 1532 2901.96C1567.85 2903.53 1604.13 2904 1640 2904C1662.94 2904 1686.75 2901.69 1709 2908"/>
</svg>
