<?xml version="1.0" standalone="yes"?>
<svg width="4000" height="4500">
<path style="stroke:none;fill:none;" d="M1152 420C1164.41 427.156 1182.19 425 1196 425C1224.72 425 1253.32 426 1282 426C1371.56 426 1473.1 432.16 1550 483.333C1569.87 496.552 1595.48 514.544 1608.4 535C1613.51 543.105 1610 561.572 1610 571L1610 664L1610 1012L1610 2312L1610 2662L1610 2756C1610 2765.38 1606.47 2783.96 1611.6 2792C1621.24 2807.07 1644.75 2819.61 1660 2828.28C1719.1 2861.9 1785.34 2861.59 1851 2866.09C1905.42 2869.82 1960.45 2865.68 2015 2867.01C2161.5 2870.6 2308.4 2869 2455 2869C2481.23 2869 2507.89 2870.32 2534 2867.83C2571.17 2864.29 2607.67 2854.44 2643 2842.67C2656.45 2838.18 2669.7 2833.23 2683 2828.32C2688.76 2826.19 2697.06 2824.52 2701.7 2820.35C2710.15 2812.75 2712.74 2790.67 2716.02 2780C2726.99 2744.36 2736.65 2708.27 2745.23 2672C2767.51 2577.91 2787.77 2483.26 2804.32 2388C2812.65 2340.1 2823.14 2291.45 2827 2243M1610 535C1634.28 510.722 1658.62 488.739 1689 472.309C1759.73 434.054 1844.15 426.945 1923 425.015C1970.77 423.845 2018.66 427.375 2066 421M1610 2791C1577.03 2823.97 1545.76 2854.84 1502 2872.99C1429.56 2903.02 1343.81 2899 1267 2899C1234.64 2899 1197.37 2894.18 1166 2903"/>
</svg>
