<?xml version="1.0" standalone="yes"?>
<svg width="4000" height="4500">
<path style="stroke:none;fill:none;" d="M608 423C662.872 425.355 718.095 423.558 773 425.961C808.115 427.497 843.112 429.494 877 440.025C909.698 450.187 939.626 467.995 966 489.614C974.726 496.767 987.312 505.232 993.142 515C998.639 524.21 998.492 540.468 1000.25 551L1013.92 633L1019.75 668C1020.48 672.333 1020.3 679.661 1023.01 683.247C1026.81 688.26 1036.54 691.35 1042 694.309C1057.41 702.665 1072.69 711.318 1088 719.86C1094.39 723.426 1103.85 726.77 1108.01 733.043C1115.96 745.053 1120.05 761.638 1125.4 775C1136.61 803.025 1147.99 830.976 1159.2 859C1194.03 946.067 1229.13 1033.03 1264.2 1120C1374.63 1393.85 1484.73 1667.84 1594.4 1942C1661.37 2109.42 1729.04 2276.57 1796 2444C1811.82 2483.56 1828.05 2522.89 1844.85 2562C1849.9 2573.77 1860.02 2596.85 1876 2596.49C1880.69 2596.38 1886.03 2592.06 1890 2589.86C1899.59 2584.55 1909.29 2579.35 1919 2574.26C1948.18 2558.95 1976.73 2542.4 2006 2527.26C2021.52 2519.23 2040.71 2512.12 2050.45 2497C2065.2 2474.11 2074.77 2446.96 2085.42 2422L2137.42 2300C2193.6 2168.35 2249.4 2036.53 2305.85 1905C2417.75 1644.28 2528.23 1382.95 2639.58 1122C2672.87 1043.99 2706.76 966.211 2739.58 888C2750.23 862.603 2761.22 837.346 2772 812C2776.98 800.291 2780.87 784.169 2788.65 774.104C2797.26 762.965 2818.74 756.325 2831 749.691C2863.31 732.214 2895.37 714.14 2928 697.259C2938.75 691.698 2949.48 685.974 2960 680C2963.54 677.991 2969.38 676.337 2972.01 673.185C2974.41 670.308 2974.49 664.563 2975.08 661C2976.64 651.661 2978.2 642.295 2980 633C2987.12 596.201 2991.04 558.426 2999.87 522C3002.84 509.75 3004.29 486.244 3015.05 478.359C3063.24 443.052 3130.17 426.455 3189 425.015C3238.27 423.809 3290.6 430.986 3339 421M2973 674C2978.66 684.615 2975 704.061 2975 716L2975 815L2975 1176C2975 1568.23 2976 1960.68 2976 2353L2976 2681C2976 2711.34 2976.99 2741.74 2977 2772C2977 2781.31 2981.19 2797.61 2976.97 2806C2973.93 2812.05 2966.16 2816.66 2961 2820.8C2947.55 2831.58 2933.58 2841.5 2919 2850.68C2870.38 2881.32 2816.43 2899.45 2759 2901.96C2730.16 2903.22 2700.82 2902.65 2672 2903C2655.29 2903.19 2637.95 2901.05 2622 2907M1022 684L946 760C937.116 768.884 918.974 781.145 914.603 793C910.816 803.272 914 820.06 914 831L914 916L914 1206L914 2363C914 2487.89 919.615 2614.5 911.089 2739C909.017 2769.27 909.096 2799.73 906.62 2830C905.991 2837.7 908.255 2855.58 903.397 2861.61C899.59 2866.34 890.44 2868.67 885 2871C868.693 2877.99 852.051 2884.09 835 2889C788.225 2902.48 741.444 2906 693 2906C661.045 2906 623.774 2901.22 593 2911M1876 2598L1874 2905M2979 2808C2996.45 2818.87 3012.36 2832.09 3030 2842.8C3073.06 2868.94 3119.94 2888.35 3170 2895.73C3213.58 2902.15 3258.03 2902 3302 2902C3329.85 2902 3359.09 2899.45 3386 2908M906 2863C955.617 2889.41 1003.75 2902.5 1060 2904.96C1093.3 2906.42 1126.75 2903.63 1160 2905.91C1177.06 2907.08 1192.95 2907.79 1209 2914.88C1218.49 2919.06 1227.86 2927.55 1236 2934"/>
</svg>
