<?xml version="1.0" standalone="yes"?>
<svg width="4000" height="4500">
<path style="stroke:none;fill:none;" d="M1965 374.424C1987.63 371.455 2012.31 373.967 2035 374.96C2079.32 376.901 2123.01 379.247 2167 385.729C2539.02 440.542 2842.02 717.755 2981.45 1060C3037.97 1198.73 3069.77 1341.18 3084.17 1490C3089.56 1545.68 3098.41 1604.02 3095.96 1660C3074.97 2139.73 2814.93 2645.42 2352 2830.6C2285.73 2857.11 2214.74 2875.5 2144 2884.71C2033.4 2899.12 1920.67 2896.39 1811 2876.61C1627.18 2843.47 1449.67 2747.57 1316.09 2617.83C1250.22 2553.86 1194.83 2482.09 1142.38 2407C1015.85 2225.83 935.355 2006.22 910.827 1787C905.942 1743.34 900.021 1698.97 899.015 1655C898.439 1629.86 902.192 1604.07 903.911 1579C907.849 1521.54 913.016 1464.13 920.711 1407C946.608 1214.76 1005.34 1025.32 1108.87 860C1236.31 656.518 1443.85 498.237 1673 427.025C1735.75 407.524 1801.7 390.41 1867 382.285C1899.53 378.237 1932.72 378.661 1965 374.424"/>
</svg>
