<?xml version="1.0" standalone="yes"?>
<svg width="4000" height="4500">
<path style="stroke:none;fill:none;" d="M1104 428C1139.19 434.63 1178.22 431 1214 431C1313.49 431 1421.92 430.328 1505 493.13C1521.86 505.872 1545.04 523.003 1556.4 541C1561.51 549.105 1558 567.572 1558 577L1558 668L1558 1008C1558 1431.99 1559 1856.1 1559 2280L1559 2653L1559 2753C1559 2762.72 1563.67 2781.65 1558.4 2790C1552.61 2799.17 1542 2806.97 1534 2814.17C1509.52 2836.2 1482.34 2852.38 1452 2865.01C1393.62 2889.31 1329.74 2897.21 1267 2899.96C1212.83 2902.33 1157.79 2897.05 1104 2904M1558 541C1584.31 514.692 1609.63 488.047 1644 472.309C1684.02 453.984 1730.83 451.866 1774 448.911C1838.47 444.497 1903.3 443 1968 443C2199.26 443 2465.88 441.796 2638.96 621.999C2684.84 669.769 2720.81 728.196 2741.81 791C2752.75 823.715 2758.72 858.062 2764.41 892C2769.12 920.062 2776.29 950.497 2776 979C2775.59 1018.78 2765.58 1061.09 2757.8 1100C2740.28 1187.64 2706.4 1271.91 2645.83 1339C2556.69 1437.73 2427.89 1488.93 2300 1515C2187.5 1537.93 2073.23 1536 1959 1536L1559 1536M1560 2790C1580.99 2810.99 1601.41 2831.34 1627 2846.8C1700.38 2891.13 1788.71 2896.31 1872 2899.96C1906.61 2901.48 1941.41 2899.45 1976 2900.96C1990.02 2901.57 2004.7 2899.35 2018 2905"/>
</svg>
