<?xml version="1.0" standalone="yes"?>
<svg width="4000" height="4500">
<path style="stroke:none;fill:none;" d="M2063 3044C2047.05 3043.31 2030.62 3037.98 2015 3034.8C1981.43 3027.98 1948.06 3020.87 1915 3011.92C1719.09 2958.86 1550.27 2847.27 1403 2710.09C1274.31 2590.21 1165.56 2440.99 1092.31 2281C1013.09 2107.98 972.344 1916.65 964.039 1727C961.941 1679.08 969.215 1628.69 973.83 1581C983.671 1479.31 996.241 1378.29 1021.25 1279C1084.81 1026.71 1206.27 786.528 1413 621.807C1502.13 550.785 1601.8 492.963 1711 459.025C1790.22 434.405 1870.52 423.57 1953 419.961C2065.64 415.031 2177.79 425.066 2287 455.424C2441.39 498.341 2583.2 581.131 2699.96 690.166C2875.74 854.307 2978.81 1074.95 3036.75 1305C3059.76 1396.4 3072.22 1489.38 3081.17 1583C3084.04 1613.05 3087.69 1643.82 3088 1674C3088.52 1724.61 3081.04 1776.64 3076.17 1827C3067.01 1921.68 3054.11 2015.35 3032.12 2108C2961.84 2404.06 2796.94 2676.72 2533 2837.39C2454.62 2885.1 2366.54 2917.95 2277 2937.34C2248.33 2943.54 2219.06 2947.24 2190 2950.71C2178.89 2952.04 2164.47 2950.47 2154 2954.59C2145.73 2957.84 2138.2 2968.8 2132 2975L2085 3022C2079.62 3027.38 2065.17 3037.27 2063.99 3045C2063.34 3049.3 2067.9 3055.3 2069.75 3059L2085.75 3091C2090.97 3101.43 2096.28 3117.38 2104.39 3125.73C2115.32 3136.97 2136.22 3142.15 2150 3149.26C2191.21 3170.53 2234.5 3189.83 2278 3206.05C2324.18 3223.27 2370.86 3239.58 2419 3250.43C2435.38 3254.11 2452.17 3258.75 2469 3259.91C2483.07 3260.88 2498.02 3257.66 2512 3256.17C2539.09 3253.27 2566.11 3249.73 2593 3245.25C2688.98 3229.25 2780.06 3204.99 2861 3148.43C2896.36 3123.72 2925.96 3094.67 2956 3064"/>
</svg>
