<?xml version="1.0" standalone="yes"?>
<svg width="4000" height="4500">
<path style="stroke:none;fill:none;" d="M864 1003C869.813 957.989 880.962 913.338 890.49 869C907.38 790.404 927.114 712.649 947.845 635C956.541 602.426 966.459 570.262 976.279 538C979.267 528.186 982.009 507.663 989.43 500.51C993.495 496.592 1001.75 495.414 1007 493.667C1020.87 489.047 1034.93 484.847 1049 480.86C1105.12 464.954 1162.71 451.995 1221 447.911C1300.12 442.367 1380.62 446 1460 446C1574.94 446 1690.16 444.175 1805 446.985C1870.16 448.58 1937.52 456.669 1993 493.667C2007.12 503.082 2023.4 514.284 2033.68 528C2039.66 535.977 2036 555.319 2036 565L2036 663L2036 1039L2036 2315L2036 2657L2036 2748C2036 2757.43 2039.51 2775.89 2034.4 2784C2030.14 2790.74 2022.62 2796.38 2017 2802C1999.13 2819.87 1979.19 2834.28 1957 2846.31C1874.31 2891.14 1779.56 2892.74 1688 2894.99C1654.16 2895.81 1615.97 2889.47 1583 2898M2036 529C2059.62 505.58 2087.33 485.554 2118 472.427C2188.02 442.464 2269.46 446 2344 446L2611 446C2665.92 446 2721.28 444.076 2776 447.911C2833.83 451.963 2891.32 465.078 2947 480.86C2961.41 484.945 2975.79 489.262 2990 494C2995.19 495.731 3003.42 496.892 3007.49 500.702C3015.02 507.753 3017.52 528.242 3020.44 538C3030.01 569.988 3040.19 601.768 3048.92 634C3070.08 712.138 3090.65 790.759 3107.49 870C3116.87 914.145 3123.44 959.161 3134 1003M2036 2784C2056.9 2804.9 2077.53 2825.41 2103 2840.8C2175.14 2884.38 2261.99 2890.37 2344 2893.96C2377.62 2895.43 2411.4 2893.49 2445 2894.96C2461.48 2895.68 2477.11 2893.63 2493 2899"/>
</svg>
