<?xml version="1.0" standalone="yes"?>
<svg width="4000" height="4500">
<path style="stroke:none;fill:none;" d="M758 415C780.842 419.431 802.88 418.449 826 419.015C855.666 419.741 885.442 421.309 915 424.17C989.557 431.385 1063.22 452.228 1132 481.579C1152.37 490.269 1172.2 499.853 1192 509.753C1200.79 514.147 1212.41 517.955 1219.72 524.634C1225.94 530.315 1225.6 547.006 1226.92 555C1231.49 582.635 1235.54 610.359 1240.08 638C1245.19 669.078 1247.73 701.526 1255.76 732C1270.96 789.757 1296.19 846.049 1317.05 902C1451.31 1262.13 1588.93 1621.05 1720.95 1982C1765.04 2102.56 1810.12 2222.89 1855.43 2343C1878.28 2403.6 1902.71 2463.83 1924 2525C1935.68 2558.55 1948.75 2591.64 1960.95 2625C1967.16 2641.99 1971.59 2663.58 1981.22 2678.9C1985.94 2686.39 1999.47 2690.86 2007 2695.15C2010.01 2696.87 2013.52 2699.72 2017 2700.28C2025.88 2701.7 2042.16 2688.26 2050 2684.24C2077.92 2669.95 2105.68 2654.82 2133 2639.42C2141.51 2634.63 2157.41 2630.07 2161.95 2620.96C2173.16 2598.44 2181.69 2574.2 2191.42 2551C2209.63 2507.61 2228.22 2464.39 2246.42 2421C2296.1 2302.62 2345.54 2184.11 2395.85 2066C2562.53 1674.65 2726.84 1282.23 2891.42 890C2921.57 818.169 2958 746.532 2980.79 672C2990.17 641.335 2993.47 607.609 2998.75 576C3002.82 551.647 3007.07 527.269 3011.61 503C3012.93 495.951 3018.35 481.39 3014.39 475C3008.26 465.092 2996.06 458.788 2986 453.753C2963.12 442.307 2939.16 435.374 2914 430.916C2846.54 418.965 2779.11 422.02 2711 419.039C2687.46 418.009 2664.29 420.517 2641 416M1222 525C1248.4 498.598 1273.1 468.216 1307 451.27C1333.3 438.123 1364.12 431.89 1393 427.729C1445.74 420.13 1498.75 419 1552 419C1583.36 419 1616.24 421.346 1647 415M2018 2702L2017 2873"/>
</svg>
