<?xml version="1.0" standalone="yes"?>
<svg width="4000" height="4500">
<path style="stroke:none;fill:none;" d="M2087 416C2084.53 445.562 2086 476.267 2086 506C2086 545.686 2085 585.321 2085 625C2085 645.667 2085.14 666.344 2084.73 687C2084.52 697.414 2081.85 710.81 2084.34 720.957C2085.71 726.547 2093.82 728.542 2097.99 731.634C2103.06 735.404 2106.72 741.461 2109.6 747C2124.93 776.394 2136.09 808.229 2148.4 839C2202.31 973.761 2255.63 1108.83 2310.99 1243C2460.33 1604.96 2603.97 1969.45 2749.4 2333C2772.34 2390.36 2795.46 2447.64 2818.4 2505L2840.4 2560C2843.98 2568.96 2846.69 2579.89 2851.99 2587.96C2856.05 2594.13 2864.71 2597.35 2871 2600.77C2884.39 2608.05 2897.75 2615.47 2911 2623C2916.14 2625.92 2926.98 2629.38 2929.4 2635.1C2934.94 2648.24 2933.39 2666.94 2935.43 2681C2939.75 2710.86 2943.57 2741 2946.83 2771C2948.58 2787.07 2949.26 2804.29 2953 2820M2922 416C2938.28 426.108 2962.63 424 2981 424C3019.26 424 3057.87 423.403 3096 426.089C3127.29 428.294 3159.33 436.952 3188 449.424C3197.28 453.462 3206.25 458.348 3215 463.424C3218.83 465.647 3223.53 469.824 3228 470.427C3236.03 471.51 3251.44 460.534 3259 457.281C3282.77 447.052 3307.23 440.502 3332 433.367C3378.28 420.035 3431.32 423 3479 423C3501.07 423 3530.8 427.59 3551 417M445 418C518.201 427.858 592.921 418.18 666 430.435C708.747 437.604 749.456 453.732 787 475.15C803.841 484.758 820.206 495.031 836 506.291C842.342 510.812 851.865 515.764 856.397 522.174C860.967 528.637 858.45 541.442 859.17 549C861.753 576.144 861.347 603.734 862.015 631C864.285 723.687 867.756 816.511 874.089 909C898.693 1268.28 921.306 1627.71 945.911 1987C957.345 2153.97 967.476 2321.03 978.911 2488C981.61 2527.41 981.434 2567.84 986.576 2607C987.789 2616.24 987.028 2625.77 988.29 2635C988.704 2638.03 989.522 2642.5 993.059 2643.33C999.815 2644.93 1014.1 2633.5 1020 2630.31C1044.98 2616.8 1070.16 2603.63 1095 2589.86C1112.54 2580.14 1130.36 2570.85 1148 2561.31C1154.97 2557.54 1165.01 2554.27 1170.5 2548.47C1177.53 2541.04 1180.84 2526.35 1184.85 2517C1195.43 2492.36 1205.9 2467.67 1216.42 2443L1323.42 2192C1459.7 1872.62 1596.3 1553.38 1732.58 1234L1854.58 948C1866.66 919.684 1878.52 891.268 1890.72 863C1897.37 847.588 1904.09 828.731 1915.47 816.105C1926.02 804.398 1947.28 797.749 1961 790.139C1987.84 775.252 2015 760.911 2042 746.309C2055.93 738.775 2071.1 732.216 2084 723M858 522C907.78 472.22 976.908 435.404 1047 426.181C1103.04 418.806 1160.75 424.442 1217 420M3229 473C3225.31 488.595 3226.79 506.959 3225.87 523C3223.71 560.676 3222.61 598.307 3220.96 636C3217.07 724.905 3211.41 813.329 3202.83 902C3167.42 1267.9 3134.58 1634.1 3099.17 2000C3087.08 2124.96 3076.26 2250.04 3064.17 2375C3060.69 2410.98 3057.77 2447.03 3054.17 2483C3052.81 2496.62 3055.14 2518.77 3048.97 2531C3042.98 2542.88 3024.14 2553.6 3014 2562.08C2985.9 2585.57 2957.58 2608.91 2930 2633M992 2646L984.428 2702L969.914 2804L963 2853"/>
</svg>
