<?xml version="1.0" standalone="yes"?>
<svg width="4000" height="4500">
<path style="stroke:none;fill:none;" d="M958 421C991.622 428.03 1023.89 425.547 1058 427.039C1107.84 429.221 1156.25 432.615 1204 448.674C1250.47 464.301 1296.15 482.042 1341 501.86C1353.72 507.479 1366.54 513.078 1379 519.248C1383.57 521.511 1391.82 527.199 1397 526.759C1405.23 526.06 1417.32 508.678 1423 503C1443.84 482.16 1466.13 450.75 1494 439.453C1520.57 428.683 1551.83 428.675 1580 427.985C1628.2 426.806 1676.93 428.796 1725 425M3130 422C3111.38 429.909 3087.77 427 3068 427C3031.69 427 2994.13 426.558 2958 430.17C2922.69 433.701 2887.24 439.903 2853 449.424C2840.9 452.789 2828.84 456.48 2817 460.692C2810.93 462.853 2803.45 467.163 2797 467.589C2789.26 468.1 2779.92 453.292 2774 448.924C2760.97 439.309 2743.9 434.374 2728 432.282C2682.15 426.249 2635.15 428.144 2589 427.015C2566.18 426.456 2543.47 428.637 2521 424M2795 470C2775.21 521.701 2773.39 579.028 2751.57 630C2736.86 664.376 2718.07 697.155 2700.31 730C2670.23 785.619 2640.39 841.377 2610.31 897C2521.91 1060.44 2434.71 1224.56 2346.31 1388C2315.69 1444.6 2284.81 1501.09 2254.78 1558C2245.07 1576.4 2235.2 1594.7 2225.31 1613C2220.94 1621.09 2217.33 1632.24 2210.79 1638.79C2200.25 1649.32 2180.25 1654.62 2167 1661.25C2142.2 1673.65 2116.95 1685.18 2092 1697.26C2080.38 1702.88 2066.67 1712.88 2054 1715.4C2049.29 1716.33 2043.18 1712.01 2039 1710.14C2030.2 1706.2 2027.2 1698.98 2022.58 1691C2015.77 1679.27 2008.78 1667.63 2001.8 1656C1959.87 1586.12 1918.25 1515.77 1877.85 1445C1780.22 1273.98 1678.43 1105.32 1579.58 935C1547.97 880.549 1515.36 826.676 1484.15 772C1465.94 740.089 1446.63 708.164 1432.92 674C1425.66 655.908 1422.77 635.986 1418.58 617C1412.1 587.678 1404.72 558.483 1399 529M2053 1717C2053 1755.38 2056.87 1794.73 2053.91 1833C2052.17 1855.57 2044.59 1878.83 2040 1901C2034.43 1927.91 2031.06 1956.81 2022.78 1983C2016.73 2002.14 2003.13 2020.29 1993.78 2038C1971.89 2079.47 1949.62 2120.75 1927.31 2162C1857.41 2291.24 1786.65 2420.44 1719.26 2551C1696.17 2595.73 1668.98 2640.15 1650.45 2687C1643.86 2703.66 1640.34 2721.88 1635.03 2739C1628.07 2761.39 1621.08 2783.75 1613.67 2806C1611.39 2812.82 1609.26 2826.48 1603.58 2831.16C1598.25 2835.55 1587.56 2836.75 1581 2838.72C1563.71 2843.91 1546.36 2848.78 1529 2853.71C1453.77 2875.06 1373.93 2888.57 1296 2893.91C1272.03 2895.55 1247.96 2895.27 1224 2896.91C1212.38 2897.71 1199.59 2897.45 1189 2903M1605 2832C1622.13 2849.13 1637.76 2866.77 1660 2877.31C1725.14 2908.15 1803.18 2890.29 1872 2899"/>
</svg>
