<?xml version="1.0" standalone="yes"?>
<svg width="4000" height="4500">
<path style="stroke:none;fill:none;" d="M1029 322C1059.46 316.345 1092.13 319.024 1123 316.911C1186.53 312.56 1247.62 308.85 1310 325.525C1331.26 331.209 1351.95 338.655 1372 347.694C1378.64 350.689 1389.66 353.443 1394.26 359.379C1398.1 364.344 1397.49 374.941 1398.28 381C1400.78 400.21 1403.16 419.658 1404.04 439C1407.11 506.739 1409 574.01 1409 642C1409 899.334 1407 1156.71 1407 1414L1407 1628L1407 1686C1407 1692.57 1404.98 1703.26 1408.6 1709C1415.87 1720.51 1429.38 1730.38 1439 1740C1441.76 1742.76 1445.9 1748.78 1450 1749.37C1453.56 1749.88 1457.54 1745.13 1460 1743.08C1467.62 1736.73 1475.21 1730.34 1483 1724.21C1507.02 1705.31 1532.42 1688.04 1558 1671.34C1568.1 1664.75 1585.63 1657.9 1591.47 1647C1609.73 1612.93 1622.15 1575.39 1640.32 1541C1678.35 1469.02 1731.2 1403.3 1796 1353.88C1874.47 1294.04 1966.24 1268.08 2063 1258.83C2124.03 1253 2185.49 1251.27 2246 1263.45C2360.68 1286.52 2466.38 1351.6 2540.45 1442.16C2650.95 1577.25 2707.26 1750 2730.29 1921C2736.18 1964.72 2743 2009.82 2743 2054C2743 2115.81 2732.08 2179.86 2723.27 2241C2696.85 2424.34 2630.72 2604.18 2498.99 2739C2419.35 2820.5 2313.51 2884.96 2203 2914.12C2158.57 2925.84 2113.61 2929.97 2068 2933.09C2040.11 2935 2010.98 2938.83 1983 2936.91C1892.62 2930.72 1804.59 2900.78 1733 2844.64C1608.69 2747.17 1544.14 2604.68 1503.92 2456C1474.85 2348.53 1463.49 2236.6 1455.91 2126C1450.97 2053.93 1447.35 1981.29 1447 1909C1446.75 1856.34 1450 1803.59 1450 1751"/>
</svg>
