<?xml version="1.0" encoding="UTF-8" standalone="no"?>
<!-- Created with Inkscape (http://www.inkscape.org/) -->

<svg
   xmlns:dc="http://purl.org/dc/elements/1.1/"
   xmlns:cc="http://creativecommons.org/ns#"
   xmlns:rdf="http://www.w3.org/1999/02/22-rdf-syntax-ns#"
   xmlns:svg="http://www.w3.org/2000/svg"
   xmlns="http://www.w3.org/2000/svg"
   xmlns:sodipodi="http://sodipodi.sourceforge.net/DTD/sodipodi-0.dtd"
   xmlns:inkscape="http://www.inkscape.org/namespaces/inkscape"
   width="13.03125"
   height="8.65625"
   id="svg4694"
   version="1.1"
   inkscape:version="0.48.4 r9939"
   sodipodi:docname="Nouveau document 2">
  <defs
     id="defs4696" />
  <sodipodi:namedview
     id="base"
     pagecolor="#ffffff"
     bordercolor="#666666"
     borderopacity="1.0"
     inkscape:pageopacity="0.0"
     inkscape:pageshadow="2"
     inkscape:zoom="24.140053"
     inkscape:cx="6.41518"
     inkscape:cy="4.52175"
     inkscape:document-units="px"
     inkscape:current-layer="layer1"
     showgrid="false"
     fit-margin-top="0"
     fit-margin-left="0"
     fit-margin-right="0"
     fit-margin-bottom="0"
     inkscape:window-width="486"
     inkscape:window-height="415"
     inkscape:window-x="642"
     inkscape:window-y="226"
     inkscape:window-maximized="0" />
  <metadata
     id="metadata4699">
    <rdf:RDF>
      <cc:Work
         rdf:about="">
        <dc:format>image/svg+xml</dc:format>
        <dc:type
           rdf:resource="http://purl.org/dc/dcmitype/StillImage" />
        <dc:title></dc:title>
      </cc:Work>
    </rdf:RDF>
  </metadata>
  <g
     inkscape:label="Calque 1"
     inkscape:groupmode="layer"
     id="layer1"
     transform="translate(-202.15625,-339.65625)">
    <path
       inkscape:connector-curvature="0"
       style="fill:none;stroke:#000000;stroke-width:1.88399994;stroke-miterlimit:4;stroke-dasharray:none"
       d="m 211.23393,340.60825 c 0.135,0.032 0.2671,0.027 0.4059,0.027 0.2035,0 0.4145,-0.01 0.6169,0.017 0.1129,0.012 0.2406,0.036 0.3301,0.1098 0.048,0.04 0.091,0.089 0.1353,0.1327 0.017,0.017 0.039,0.049 0.065,0.053 0.062,0.01 0.1613,-0.047 0.2219,-0.065 0.166,-0.048 0.3332,-0.09 0.5032,-0.1205 0.3272,-0.059 0.6595,-0.093 0.9904,-0.1155 0.147,-0.01 0.2938,0.01 0.4383,-0.028 m -12.739,-0.01 c 0.6269,0.027 1.2243,0.1672 1.8238,0.3479 0.1586,0.048 0.3152,0.1036 0.4708,0.1605 0.063,0.023 0.1558,0.04 0.2098,0.081 0.039,0.029 0.05,0.1337 0.062,0.1794 0.042,0.1578 0.075,0.3212 0.1266,0.4763 0.045,0.1363 0.1297,0.26 0.2078,0.3788 0.1189,0.1809 0.2456,0.3562 0.3666,0.5357 0.5524,0.8196 1.1238,1.627 1.6846,2.4407 0.1627,0.2359 0.3284,0.4706 0.4873,0.7089 0.1466,0.2199 0.291,0.4516 0.467,0.6494 0.052,0.059 0.1368,0.085 0.1986,0.1335 0.1,0.079 0.1861,0.1825 0.276,0.2724 0.2046,-0.2046 0.435,-0.4005 0.6206,-0.6224 0.1216,-0.1453 0.2066,-0.3274 0.3179,-0.4816 0.3137,-0.4344 0.637,-0.8621 0.9549,-1.2934 0.4232,-0.5742 0.8485,-1.1467 1.2717,-1.7209 0.2515,-0.341 0.5401,-0.6756 0.7414,-1.0499 0.1435,-0.2667 0.171,-0.5747 0.2929,-0.8496 m -8.0687,0.2436 0.3247,-0.3247 c 0.055,-0.055 0.1086,-0.1254 0.1785,-0.1609 0.1267,-0.064 0.2892,-0.066 0.4276,-0.072 0.1796,-0.01 0.3613,-0.01 0.5411,-0.011 0.1023,-6e-4 0.207,0.01 0.3085,-0.01"
       id="path4-6-8-2-3-3-9-1-5-8-3-3-4-9-4-2-4"
       sodipodi:nodetypes="cscccccccccccccccccsccccccscccccccc" />
  </g>
</svg>
