<?xml version="1.0" encoding="UTF-8" standalone="no"?>
<!-- Created with Inkscape (http://www.inkscape.org/) -->

<svg
   xmlns:dc="http://purl.org/dc/elements/1.1/"
   xmlns:cc="http://creativecommons.org/ns#"
   xmlns:rdf="http://www.w3.org/1999/02/22-rdf-syntax-ns#"
   xmlns:svg="http://www.w3.org/2000/svg"
   xmlns="http://www.w3.org/2000/svg"
   xmlns:sodipodi="http://sodipodi.sourceforge.net/DTD/sodipodi-0.dtd"
   xmlns:inkscape="http://www.inkscape.org/namespaces/inkscape"
   width="43.463066"
   height="30.129213"
   id="svg6468"
   version="1.1"
   inkscape:version="0.48.4 r9939"
   sodipodi:docname="partenaires.svg">
  <defs
     id="defs6470" />
  <sodipodi:namedview
     id="base"
     pagecolor="#ffffff"
     bordercolor="#666666"
     borderopacity="1.0"
     inkscape:pageopacity="0.0"
     inkscape:pageshadow="2"
     inkscape:zoom="0.35"
     inkscape:cx="117.86311"
     inkscape:cy="-87.874336"
     inkscape:document-units="px"
     inkscape:current-layer="layer1"
     showgrid="false"
     fit-margin-top="0"
     fit-margin-left="0"
     fit-margin-right="0"
     fit-margin-bottom="0"
     inkscape:window-width="486"
     inkscape:window-height="415"
     inkscape:window-x="119"
     inkscape:window-y="118"
     inkscape:window-maximized="0" />
  <metadata
     id="metadata6473">
    <rdf:RDF>
      <cc:Work
         rdf:about="">
        <dc:format>image/svg+xml</dc:format>
        <dc:type
           rdf:resource="http://purl.org/dc/dcmitype/StillImage" />
        <dc:title></dc:title>
      </cc:Work>
    </rdf:RDF>
  </metadata>
  <g
     inkscape:label="Calque 1"
     inkscape:groupmode="layer"
     id="layer1"
     transform="translate(-257.13688,-414.35864)">
    <g
       id="g5123"
       transform="translate(-8430.2301,-3224.2934)">
      <path
         sodipodi:nodetypes="cscccccccccccccccccsccccccscccccccc"
         id="path4-6-8-2-3-3-9-1-5-8-3-5-9-5-8-3-0-1"
         d="m 8711.7551,3661.0754 c 0.135,0.032 0.2671,0.027 0.4059,0.027 0.2035,0 0.4145,-0.01 0.6169,0.017 0.1129,0.012 0.2406,0.036 0.3301,0.1098 0.048,0.04 0.091,0.089 0.1353,0.1327 0.017,0.017 0.039,0.049 0.065,0.053 0.062,0.01 0.1613,-0.047 0.2219,-0.065 0.166,-0.048 0.3332,-0.09 0.5032,-0.1205 0.3272,-0.059 0.6595,-0.093 0.9904,-0.1155 0.147,-0.01 0.2938,0.01 0.4383,-0.028 m -12.739,-0.01 c 0.6269,0.027 1.2243,0.1672 1.8238,0.3479 0.1586,0.048 0.3152,0.1036 0.4708,0.1605 0.063,0.023 0.1558,0.04 0.2098,0.081 0.039,0.029 0.05,0.1337 0.062,0.1794 0.042,0.1578 0.075,0.3212 0.1266,0.4763 0.045,0.1363 0.1297,0.26 0.2078,0.3788 0.1189,0.1809 0.2456,0.3562 0.3666,0.5357 0.5524,0.8196 1.1238,1.627 1.6846,2.4407 0.1627,0.2359 0.3284,0.4706 0.4873,0.7089 0.1466,0.2199 0.291,0.4516 0.467,0.6494 0.052,0.059 0.1368,0.085 0.1986,0.1335 0.1,0.079 0.1861,0.1825 0.276,0.2724 0.2046,-0.2046 0.435,-0.4005 0.6206,-0.6224 0.1216,-0.1453 0.2066,-0.3274 0.3179,-0.4816 0.3137,-0.4344 0.637,-0.8621 0.9549,-1.2934 0.4232,-0.5742 0.8485,-1.1467 1.2717,-1.7209 0.2515,-0.341 0.5401,-0.6756 0.7414,-1.0499 0.1435,-0.2667 0.171,-0.5747 0.2929,-0.8496 m -8.0687,0.2436 0.3247,-0.3247 c 0.055,-0.055 0.1086,-0.1254 0.1785,-0.1609 0.1267,-0.064 0.2892,-0.066 0.4276,-0.072 0.1796,-0.01 0.3613,-0.01 0.5411,-0.011 0.1023,-6e-4 0.207,0.01 0.3085,-0.01"
         style="fill:none;stroke:#000000;stroke-width:1.88399994;stroke-miterlimit:4;stroke-dasharray:none"
         inkscape:connector-curvature="0" />
      <g
         style="stroke-width:2.95783663;stroke-miterlimit:4;stroke-dasharray:none"
         transform="matrix(0.50711217,0,0,0.50711217,6456.1696,3062.636)"
         id="g5765-3-8-3-9-5-7">
        <path
           inkscape:connector-curvature="0"
           style="fill:none;stroke:#000000;stroke-width:2.95783663;stroke-miterlimit:4;stroke-dasharray:none"
           d="m 4410.2122,1155.1499 c -0.1378,0.2195 -0.3039,0.4282 -0.4704,0.6264 -0.4188,0.4991 -0.9015,0.9658 -1.4856,1.2676 -0.4142,0.214 -0.8405,0.3189 -1.2989,0.3849 -0.3746,0.054 -0.7756,0.1168 -1.1537,0.08 -1.3649,-0.1304 -2.5551,-0.948 -3.322,-2.0617 -0.7905,-1.1479 -1.1673,-2.5652 -1.2012,-3.9502 -0.011,-0.4516 0.053,-0.9111 0.098,-1.36 0.1,-1 0.3226,-1.9861 0.7776,-2.8881 0.1852,-0.3673 0.4188,-0.7113 0.6854,-1.0239 0.164,-0.1923 0.3539,-0.3727 0.5554,-0.5252 0.22,-0.1664 0.4517,-0.3197 0.703,-0.4351 0.8677,-0.3987 1.8087,-0.4414 2.7429,-0.3475 0.567,0.057 1.1374,0.2193 1.6199,0.5294 0.1519,0.098 0.3539,0.2191 0.4614,0.3671 0.033,0.046 0.044,0.1137 0.062,0.1668 0.045,0.1302 0.08,0.2643 0.1152,0.3973 0.095,0.3535 0.1687,0.7102 0.2359,1.0697 0.03,0.1579 0.079,0.3284 0.081,0.489"
           id="path4-6-2-1-8-4-3-9-3" />
        <path
           inkscape:connector-curvature="0"
           style="fill:none;stroke:#000000;stroke-width:2.95783663;stroke-miterlimit:4;stroke-dasharray:none"
           d="m 4412.8471,1144.3812 c 0.7756,0.099 1.6341,-0.1256 2.3727,0.2094 0.2828,0.1284 0.5204,0.3596 0.7368,0.5761 l 0.3644,-0.3643 c 0.048,-0.048 0.1063,-0.1336 0.1701,-0.1572 0.039,-0.015 0.096,-0.01 0.1377,-0.01 l 0.2915,0 0.9879,0 3.3524,0 c 0.4531,0 0.8932,0.01 1.3362,0.1185 0.1003,0.024 0.2,0.05 0.2995,0.079 0.038,0.011 0.095,0.018 0.1255,0.044 0.05,0.044 0.077,0.1737 0.099,0.2361 0.064,0.1834 0.1306,0.3653 0.1886,0.5507 0.1839,0.5881 0.2854,1.1916 0.3865,1.7976 0.028,0.1662 0.036,0.3366 0.067,0.5021 m -7.8061,-2.8018 0,8.4702 0,2.2026 0,0.5668 c 0,0.063 -0.021,0.1735 0.019,0.2267 0.065,0.088 0.1599,0.1624 0.2404,0.2355 0.1812,0.1643 0.3875,0.3183 0.6154,0.4116 0.3766,0.1541 0.8477,0.1384 1.247,0.1384 0.1811,0 0.3622,0.01 0.5426,0.01 0.144,0 0.2894,-0.012 0.4292,0.024 m -3.0933,-0.834 c -0.2545,0.2544 -0.5262,0.5113 -0.8665,0.6462 -0.3004,0.1189 -0.6374,0.1315 -0.9555,0.1392 -0.4431,0.011 -0.8979,-0.01 -1.3361,0.048"
           id="path4-009-5-1-1-6-0-9-4-4-0" />
        <path
           inkscape:connector-curvature="0"
           style="fill:none;stroke:#000000;stroke-width:2.95783663;stroke-miterlimit:4;stroke-dasharray:none"
           d="m 4430.078,1141.5165 0.788,-0.9384 1.2744,-1.5513 0.5714,-0.698 0.1794,-0.2171 0.089,-0.1007 0.115,-0.017 0.2405,-0.026 0.8453,-0.035 m 0.5972,11.4009 c -0.1549,0.1549 -0.3111,0.3628 -0.5118,0.4593 -0.2261,0.1085 -0.4849,0.099 -0.7291,0.099 l -1.016,0 -4.0174,0 -1.1324,0 -0.3335,0 c -0.047,0 -0.1108,0.012 -0.1551,-0.01 -0.1035,-0.039 -0.209,-0.1956 -0.287,-0.2735 -0.029,-0.029 -0.075,-0.062 -0.092,-0.1008 -0.016,-0.037 0.01,-0.1006 0.014,-0.1397 0.017,-0.1193 0.038,-0.2381 0.06,-0.3567 0.031,-0.1727 0.054,-0.349 0.095,-0.5196 0.073,-0.3012 0.1925,-0.6005 0.3155,-0.8842 0.2862,-0.6596 0.6922,-1.3049 1.2287,-1.7902 0.4646,-0.4204 1.0205,-0.7537 1.621,-0.9396 0.7749,-0.2399 1.6654,-0.2399 2.443,-0.018 0.2209,0.063 0.441,0.1644 0.636,0.2851 0.2492,0.1542 0.4886,0.3235 0.6895,0.5392 0.5592,0.6003 0.8241,1.4143 0.981,2.2027 0.069,0.3445 0.1134,0.6979 0.1507,1.047 0.01,0.096 0.019,0.1915 0.03,0.2869 0.01,0.04 -4e-4,0.089 0.028,0.1218 0.042,0.048 0.1095,0.084 0.1604,0.1215 0.1074,0.081 0.2145,0.1617 0.318,0.2473 0.059,0.049 0.1353,0.1425 0.2094,0.1648 0.048,0.014 0.1126,0 0.1629,0 l 0.3412,0 c 0.2889,0 0.5808,0.012 0.8687,-0.01 0.1714,-0.012 0.341,-0.062 0.5118,-0.069 m -1.6829,5.7548 c -0.4836,0.4836 -0.9817,0.9378 -1.5977,1.2496 -0.6812,0.3449 -1.4177,0.5013 -2.1716,0.5819 -0.3001,0.032 -0.6133,0.082 -0.9152,0.076 -0.2751,-0.01 -0.5625,-0.06 -0.8299,-0.1227 -0.7778,-0.1847 -1.4927,-0.5988 -2.0859,-1.1278 -0.4281,-0.3817 -0.7723,-0.8432 -1.0561,-1.3395 -0.5414,-0.947 -0.8022,-2.0709 -0.8288,-3.1566 -0.01,-0.3051 0.039,-0.6113 0.061,-0.9151 0.023,-0.3193 0.055,-0.6468 0.1135,-0.9617 0.019,-0.1002 0.012,-0.2734 0.1121,-0.3257"
           id="path4-9-9-7-7-6-9-6-0" />
        <path
           inkscape:connector-curvature="0"
           style="fill:none;stroke:#000000;stroke-width:2.95783663;stroke-miterlimit:4;stroke-dasharray:none"
           d="m 4446.2128,1137.3519 c 0.4187,0.086 0.8743,0.02 1.3002,0.04 0.5196,0.023 1.0378,0.1235 1.4801,0.4124 0.1508,0.098 0.2805,0.2202 0.4074,0.347 0.4811,-0.4811 1.0728,-0.7129 1.7465,-0.759 0.3835,-0.026 0.7726,0.017 1.1513,-0.047 m -2.8978,0.8067 0,12.8136 0,3.3288 0,0.8692 c 0,0.082 0.031,0.2539 -0.019,0.3213 -0.1791,0.2392 -0.501,0.3194 -0.765,0.4319 -0.075,0.032 -0.1717,0.052 -0.2351,0.1034 -0.1731,0.1392 -0.3199,0.3144 -0.4934,0.4566 -0.3598,0.295 -0.7645,0.5354 -1.1982,0.7047 -0.5802,0.2261 -1.2237,0.2971 -1.8406,0.2548 -0.3979,-0.027 -0.7879,-0.056 -1.1748,-0.1632 -0.7532,-0.2088 -1.44,-0.6552 -1.9619,-1.2328 -0.9693,-1.0729 -1.4336,-2.4773 -1.6032,-3.8914 -0.039,-0.3363 -0.077,-0.6728 -0.1,-1.0104 -0.015,-0.1602 -0.037,-0.3248 -0.03,-0.4856 0.077,-1.7693 0.6276,-3.7075 1.9891,-4.9252 0.4327,-0.3872 0.9325,-0.6826 1.4646,-0.9109 0.4613,-0.198 0.9945,-0.3213 1.496,-0.3433 0.2892,-0.014 0.5895,0.033 0.8772,0.062 0.3551,0.036 0.711,0.082 1.0574,0.1703 0.2377,0.062 0.4743,0.1435 0.6972,0.2462 0.1153,0.053 0.2262,0.1336 0.3445,0.1759 0.1185,0.042 0.2603,0.052 0.3837,0.076 0.1493,0.03 0.3032,0.091 0.4542,0.1064 0.2116,0.023 0.4372,9e-4 0.6503,9e-4 m 0.015,10.1663 0.2661,0.2664 c 0.043,0.043 0.1031,0.088 0.1323,0.1407 0.06,0.1106 0.067,0.2773 0.098,0.3995 0.078,0.3189 0.1671,0.645 0.2087,0.9712"
           id="path4-39-4-6-2-7-7-2-2-2-8" />
        <path
           inkscape:connector-curvature="0"
           style="fill:none;stroke:#000000;stroke-width:2.95783663;stroke-miterlimit:4;stroke-dasharray:none"
           d="m 4455.0168,1144.546 c 0.1343,-10e-4 0.2694,-0.037 0.4031,-0.05 0.2512,-0.024 0.5036,-0.039 0.7549,-0.063 0.2296,-0.022 0.4635,-0.06 0.6948,-0.05 0.3033,0.013 0.6054,0.1172 0.8578,0.2832 0.117,0.077 0.3042,0.1712 0.3809,0.2912 0.029,0.046 0.01,0.1193 0.018,0.1715 0.026,0.2001 0.01,0.4158 0.01,0.6176 l 0,2.0673 0,4.0917 c 0,0.915 -0.015,1.832 0.025,2.745 0.025,0.5779 0.089,1.1653 0.279,1.7156 0.1222,0.353 0.2998,0.6845 0.6134,0.9026 0.1093,0.076 0.2525,0.1522 0.386,0.1717 0.1867,0.027 0.4069,-0.033 0.5919,-0.06 0.5172,-0.075 1.0605,-0.1564 1.5526,-0.3364 0.5115,-0.1871 0.9684,-0.4821 1.3896,-0.8239"
           id="path4-679-0-9-3-6-3-8-2-2-2-5" />
        <path
           inkscape:connector-curvature="0"
           style="fill:none;stroke:#000000;stroke-width:2.95783663;stroke-miterlimit:4;stroke-dasharray:none"
           d="m 4469.1226,1137.1852 c 0,0.9735 0.01,1.9441 -0.088,2.9125 -0.031,0.321 -0.07,0.6437 -0.1274,0.9613 -0.033,0.1838 -0.1025,0.3811 -0.1109,0.5671 -0.016,0.338 0,0.6804 0,1.0189 l 0,1.9993 c 0,2.1596 0.01,4.3198 0.01,6.4787 l 0,3.7872 0,1.0092 c 0,0.1011 0.039,0.3077 -0.016,0.3941 -0.081,0.1278 -0.2366,0.2405 -0.3499,0.3392 -0.2008,0.1746 -0.4181,0.3475 -0.6633,0.4563 -0.3874,0.1721 -0.834,0.1845 -1.2496,0.213 -0.2391,0.016 -0.4814,0.019 -0.7209,0.029 -0.1269,0.01 -0.2641,-0.01 -0.3748,0.068 m 0.01,-15.418 c 0.8163,0 1.6514,-0.045 2.4414,-0.2719 0.1856,-0.053 0.3673,-0.1128 0.5479,-0.1804 0.059,-0.022 0.1589,-0.09 0.2211,-0.077 0.055,0.011 0.1066,0.088 0.1442,0.1257 m 0.01,0.4037 3.0663,0 c 0.708,0 1.4163,0.035 2.1147,-0.096 m -5.181,14.4087 c 0.2985,0.2984 0.6286,0.6137 1.0189,0.7895 0.2636,0.1187 0.57,0.1617 0.8555,0.1893 0.3507,0.034 0.7057,0.034 1.0573,0.058 0.1655,0.011 0.3538,0.01 0.4999,0.097"
           id="path4-96-2-5-2-1-55-2-0-6-8-3" />
        <path
           inkscape:connector-curvature="0"
           style="fill:none;stroke:#000000;stroke-width:2.95783663;stroke-miterlimit:4;stroke-dasharray:none"
           d="m 4476.8251,1153.7709 c 0.053,0.2876 0.067,0.5888 0.1065,0.8797 0.06,0.4477 0.1436,0.8904 0.2258,1.3344 0.037,0.1986 0.087,0.3934 0.1364,0.589 0.014,0.056 0.022,0.1779 0.065,0.2175 0.032,0.03 0.097,0.042 0.1375,0.056 0.1084,0.039 0.2174,0.078 0.328,0.1098 0.2978,0.087 0.5782,0.2176 0.8722,0.3144 0.4284,0.1409 0.8569,0.2041 1.3047,0.2348 0.5586,0.038 1.1247,0 1.6625,-0.1649 0.2623,-0.081 0.5124,-0.203 0.7529,-0.3339 0.4165,-0.2268 0.8128,-0.5275 1.0784,-0.9258 0.2035,-0.3052 0.2868,-0.6603 0.362,-1.0139 0.065,-0.3031 0.1289,-0.6085 0.1621,-0.917 0.018,-0.1662 -0.033,-0.3603 -0.07,-0.5218 -0.1605,-0.6996 -0.6252,-1.2332 -1.1816,-1.6616 -0.7202,-0.5547 -1.5626,-0.9182 -2.3931,-1.2726 -0.3779,-0.1612 -0.7636,-0.3045 -1.1257,-0.5004 -0.4048,-0.2189 -0.8138,-0.4753 -1.1073,-0.8372 -0.2103,-0.2592 -0.3517,-0.576 -0.4189,-0.9021 -0.033,-0.1589 -0.066,-0.337 -0.062,-0.4995 0.01,-0.2001 0.053,-0.4079 0.091,-0.6039 0.098,-0.5065 0.2113,-1.0153 0.5462,-1.4239 0.7289,-0.8893 1.9828,-1.1597 3.0755,-1.0161 0.4305,0.057 0.8446,0.1774 1.2227,0.3964 0.2711,0.157 0.525,0.3672 0.6826,0.6421 0.075,0.1311 0.1172,0.2748 0.1648,0.4174 0.075,0.2264 0.144,0.4552 0.2046,0.6859 0.034,0.1312 0.057,0.2634 0.111,0.3877"
           id="path4-1-4-4-5-0-2-5-3-2" />
      </g>
    </g>
  </g>
</svg>
