<?xml version="1.0" encoding="UTF-8" standalone="no"?>

<svg
   xmlns:dc="http://purl.org/dc/elements/1.1/"
   xmlns:cc="http://creativecommons.org/ns#"
   xmlns:rdf="http://www.w3.org/1999/02/22-rdf-syntax-ns#"
   xmlns:svg="http://www.w3.org/2000/svg"
   xmlns="http://www.w3.org/2000/svg"
   xmlns:sodipodi="http://sodipodi.sourceforge.net/DTD/sodipodi-0.dtd"
   xmlns:inkscape="http://www.inkscape.org/namespaces/inkscape"
   width="115.00955"
   height="53.394596"
   id="svg6336"
   version="1.1"
   inkscape:version="0.48.4 r9939"
   sodipodi:docname="Nouveau document 9">
  <defs
     id="defs6338" />
  <sodipodi:namedview
     id="base"
     pagecolor="#ffffff"
     bordercolor="#666666"
     borderopacity="1.0"
     inkscape:pageopacity="0.0"
     inkscape:pageshadow="2"
     inkscape:zoom="0.35"
     inkscape:cx="18.560362"
     inkscape:cy="26.696472"
     inkscape:document-units="px"
     inkscape:current-layer="layer1"
     showgrid="false"
     fit-margin-top="0"
     fit-margin-left="0"
     fit-margin-right="0"
     fit-margin-bottom="0"
     inkscape:window-width="486"
     inkscape:window-height="415"
     inkscape:window-x="673"
     inkscape:window-y="82"
     inkscape:window-maximized="0" />
  
    <g
       transform="translate(-8223.3453,-2524.3544)"
       id="g6206">
      <g>
        <path class="strokify"
           inkscape:connector-curvature="0"
           style="fill:none;stroke:#000000;stroke-width:2.74371386;stroke-miterlimit:4;stroke-dasharray:none"
           d="m 4663.938,188.90807 c -0.072,-0.13555 -0.032,-0.29216 0,-0.4369 0.053,-0.28106 0.1097,-0.56068 0.1701,-0.84017 0.1079,-0.49963 0.2087,-1.05744 0.4229,-1.52352 0.3588,-0.78108 1.0447,-1.37227 1.8199,-1.72174 0.7631,-0.34401 1.5784,-0.49646 2.4085,-0.55334 0.5887,-0.0403 1.1741,-0.0551 1.7588,0.0505 1.7682,0.31949 3.3783,1.41138 4.063,3.10951 0.2094,0.51923 0.3174,1.07263 0.3986,1.62434 0.042,0.28847 0.1089,0.59305 0.1089,0.88499 0,0.30953 -0.069,0.63428 -0.1088,0.94101 -0.084,0.64211 -0.1841,1.28132 -0.4049,1.89319 -0.5252,1.45575 -1.4531,2.71949 -2.4753,3.86481 -1.0827,1.21289 -2.2558,2.32719 -3.4187,3.46165 -0.6352,0.61972 -1.2609,1.24066 -1.8503,1.90429 -0.9043,1.0183 -1.8339,2.10549 -2.3505,3.38312 -0.1641,0.40597 -0.2361,0.83995 -0.3296,1.26586 -0.065,0.29743 -0.1168,0.59732 -0.1746,0.89619 -0.027,0.13768 -0.09,0.33125 -0.072,0.4705 0.016,0.11954 0.1501,0.12323 0.2398,0.12323 l 0.7841,0 3.3383,0 4.7834,0 c 0.4144,0 0.83,0.007 1.2435,-0.0108 0.1228,-0.005 0.3668,0.04 0.4673,-0.0398 0.2873,-0.22796 0.4986,-0.63471 0.6576,-0.95768 0.3163,-0.64212 0.5072,-1.34698 0.6798,-2.03884 0.067,-0.26907 0.1059,-0.55384 0.1893,-0.81776"
           id="path class="strokify"4-22-4-2-2-5-8-6" />
        <path class="strokify"
           d="m 4682.2885,188.90807 c -0.072,-0.13555 -0.032,-0.29216 0,-0.4369 0.053,-0.28106 0.1097,-0.56068 0.1701,-0.84017 0.1079,-0.49963 0.2087,-1.05744 0.4229,-1.52352 0.3588,-0.78108 1.0447,-1.37227 1.8199,-1.72174 0.7631,-0.34401 1.5784,-0.49646 2.4085,-0.55334 0.5887,-0.0403 1.1741,-0.0551 1.7588,0.0505 1.7682,0.31949 3.3783,1.41138 4.063,3.10951 0.2094,0.51923 0.3174,1.07263 0.3986,1.62434 0.042,0.28847 0.1089,0.59305 0.1089,0.88499 0,0.30953 -0.069,0.63428 -0.1088,0.94101 -0.084,0.64211 -0.1841,1.28132 -0.4049,1.89319 -0.5252,1.45575 -1.4531,2.71949 -2.4753,3.86481 -1.0827,1.21289 -2.2558,2.32719 -3.4187,3.46165 -0.6352,0.61972 -1.2609,1.24066 -1.8503,1.90429 -0.9043,1.0183 -1.8339,2.10549 -2.3505,3.38312 -0.1641,0.40597 -0.2361,0.83995 -0.3296,1.26586 -0.065,0.29743 -0.1168,0.59732 -0.1746,0.89619 -0.027,0.13768 -0.09,0.33125 -0.072,0.4705 0.016,0.11954 0.1501,0.12323 0.2398,0.12323 l 0.7841,0 3.3383,0 4.7834,0 c 0.4144,0 0.83,0.007 1.2435,-0.0108 0.1228,-0.005 0.3668,0.04 0.4673,-0.0398 0.2873,-0.22796 0.4986,-0.63471 0.6576,-0.95768 0.3163,-0.64212 0.5072,-1.34698 0.6798,-2.03884 0.067,-0.26907 0.1059,-0.55384 0.1893,-0.81776"
           id="path class="strokify"4-22-0-7-0-9-8-7-6" />
        <path class="strokify"
           d="m 4699.7606,206.45968 c 0.4085,0.38991 1.0222,0.55693 1.3177,1.06341 0.097,0.16562 0.1804,0.35975 0.199,0.55232 0.019,0.19809 -0.016,0.40533 -0.04,0.60178 -0.039,0.32669 -0.071,0.68619 -0.2062,0.98922 -0.3135,0.70392 -1.0487,1.18039 -1.7323,1.47205 -0.2119,0.0904 -0.4415,0.13585 -0.6513,0.22612"
           id="path class="strokify"4-46-50-9-7-2-5-5" />
      </g>
      <path class="strokify"
         id="path class="strokify"4-22-9-3-5-4-9-0-8"
         d="m 8616.6118,3034.7585 c -0.052,-0.099 -0.023,-0.213 0,-0.3185 0.039,-0.2049 0.08,-0.4087 0.124,-0.6124 0.079,-0.3642 0.1521,-0.7708 0.3083,-1.1106 0.2615,-0.5693 0.7615,-1.0003 1.3266,-1.255 0.5562,-0.2508 1.1505,-0.3619 1.7556,-0.4034 0.4292,-0.029 0.8559,-0.04 1.2821,0.037 1.2889,0.2329 2.4626,1.0288 2.9617,2.2667 0.1526,0.3785 0.2313,0.7819 0.2905,1.184 0.031,0.2103 0.079,0.4323 0.079,0.6451 0,0.2257 -0.05,0.4624 -0.079,0.686 -0.061,0.468 -0.1342,0.934 -0.2952,1.38 -0.3828,1.0611 -1.0592,1.9823 -1.8043,2.8172 -0.7892,0.8841 -1.6443,1.6964 -2.492,2.5233 -0.463,0.4518 -0.9191,0.9044 -1.3488,1.3881 -0.6592,0.7423 -1.3368,1.5348 -1.7133,2.4661 -0.1197,0.296 -0.1722,0.6123 -0.2403,0.9228 -0.047,0.2168 -0.085,0.4354 -0.1273,0.6532 -0.02,0.1004 -0.066,0.2415 -0.052,0.343 0.012,0.087 0.1094,0.09 0.1748,0.09 l 0.5716,0 2.4334,0 3.4868,0 c 0.3021,0 0.605,0.01 0.9065,-0.01 0.09,0 0.2673,0.029 0.3406,-0.029 0.2094,-0.1661 0.3634,-0.4626 0.4793,-0.6981 0.2306,-0.468 0.3698,-0.9818 0.4956,-1.4861 0.049,-0.1962 0.077,-0.4038 0.138,-0.5961"/>
      <path class="strokify"
         id="path class="strokify"4-641-9-7-8-5-3-8"
         d="m 8630.63,3034.2683 c 0.1084,-0.2593 0.2388,-0.5068 0.335,-0.7723 0.095,-0.2615 0.1509,-0.5271 0.2892,-0.7722 0.1876,-0.3322 0.4542,-0.6156 0.7564,-0.8464 0.3493,-0.2666 0.7802,-0.4277 1.1935,-0.5655 0.4829,-0.161 0.9698,-0.2236 1.4743,-0.2581 0.2629,-0.018 0.5322,-0.039 0.7956,-0.014 0.9333,0.09 1.8674,0.5763 2.3346,1.4106 0.1401,0.2497 0.238,0.5317 0.2973,0.8112 0.031,0.1499 0.08,0.3222 0.077,0.4758 -0.01,0.2223 -0.072,0.4619 -0.1176,0.6787 -0.056,0.2635 -0.1086,0.5308 -0.214,0.78 -0.2256,0.5335 -0.6064,0.9904 -1.0123,1.3963 -0.2127,0.2127 -0.4399,0.4086 -0.6708,0.6013 -0.095,0.079 -0.241,0.1513 -0.3135,0.2504 -0.038,0.052 -0.054,0.1331 -0.077,0.1936 -0.047,0.1255 -0.097,0.2504 -0.1479,0.3744 -0.038,0.094 -0.078,0.1881 -0.1193,0.2808 -0.017,0.037 -0.055,0.092 -0.054,0.1326 0,0.033 0.043,0.077 0.073,0.089 0.095,0.037 0.2196,0.032 0.3197,0.053 0.4381,0.093 0.8415,0.2689 1.2403,0.4683 1.0101,0.5051 1.597,1.5121 1.837,2.58 0.077,0.3417 0.1406,0.7258 0.1364,1.0765 -0.01,0.3005 -0.056,0.6066 -0.092,0.9048 -0.049,0.4095 -0.1204,0.8222 -0.242,1.2169 -0.3538,1.1489 -1.0582,2.1722 -2.076,2.8273 -0.5751,0.3703 -1.2269,0.6441 -1.9033,0.7575 -0.2963,0.05 -0.5978,0.053 -0.897,0.066 -0.5831,0.025 -1.1771,-0.059 -1.7239,-0.2692 -0.2116,-0.081 -0.4245,-0.1692 -0.6162,-0.2919 -0.3876,-0.2479 -0.7223,-0.5891 -1.0532,-0.9057 m 2.9097,-8.2451 0.2964,-0.032 0.4914,-0.063 1.287,-0.2241"/>
      <g>
        <path class="strokify"
           d="m 4786.0463,188.90807 c -0.072,-0.13555 -0.032,-0.29216 0,-0.4369 0.053,-0.28106 0.1097,-0.56068 0.1701,-0.84017 0.1079,-0.49963 0.2087,-1.05744 0.4229,-1.52352 0.3588,-0.78108 1.0447,-1.37227 1.8199,-1.72174 0.7631,-0.34401 1.5784,-0.49646 2.4085,-0.55334 0.5887,-0.0403 1.1741,-0.0551 1.7588,0.0505 1.7682,0.31949 3.3783,1.41138 4.063,3.10951 0.2094,0.51923 0.3174,1.07263 0.3986,1.62434 0.042,0.28847 0.1089,0.59305 0.1089,0.88499 0,0.30953 -0.069,0.63428 -0.1088,0.94101 -0.084,0.64211 -0.1841,1.28132 -0.4049,1.89319 -0.5252,1.45575 -1.4531,2.71949 -2.4753,3.86481 -1.0827,1.21289 -2.2558,2.32719 -3.4187,3.46165 -0.6352,0.61972 -1.2609,1.24066 -1.8503,1.90429 -0.9043,1.0183 -1.8339,2.10549 -2.3505,3.38312 -0.1641,0.40597 -0.2361,0.83995 -0.3296,1.26586 -0.065,0.29743 -0.1168,0.59732 -0.1746,0.89619 -0.027,0.13768 -0.09,0.33125 -0.072,0.4705 0.016,0.11954 0.1501,0.12323 0.2398,0.12323 l 0.7841,0 3.3383,0 4.7834,0 c 0.4144,0 0.83,0.007 1.2435,-0.0108 0.1228,-0.005 0.3668,0.04 0.4673,-0.0398 0.2873,-0.22796 0.4986,-0.63471 0.6576,-0.95768 0.3163,-0.64212 0.5072,-1.34698 0.6798,-2.03884 0.067,-0.26907 0.1059,-0.55384 0.1893,-0.81776"
           id="path class="strokify"4-22-9-2-5-6-6-4-7-6" />
        <path class="strokify"
           d="m 4810.8318,183.79116 c -0.044,0.1538 -0.1296,0.30676 -0.1954,0.4529 -0.1208,0.26811 -0.2388,0.53774 -0.3585,0.80639 -0.4198,0.94268 -0.8708,1.87159 -1.3323,2.79474 -1.4,2.80004 -2.9143,5.54474 -4.5251,8.22957 -0.3234,0.53884 -0.6572,1.07349 -0.9975,1.60172 -0.145,0.22513 -0.2915,0.44959 -0.4379,0.67384 -0.069,0.10549 -0.1547,0.20678 -0.2098,0.32034 -0.076,0.15642 -0.1042,0.36155 -0.147,0.53022 -0.042,0.16648 -0.091,0.33107 -0.1352,0.4971 -0.019,0.0702 -0.055,0.14769 -0.055,0.22092 0,0.0919 0.047,0.19895 0.072,0.28721 0.019,0.0651 0.027,0.15255 0.068,0.20834 0.044,0.0609 0.1653,0.0634 0.2338,0.068 0.1948,0.0134 0.3898,0.0109 0.5855,0.0109 l 2.4302,0 9.9969,0 m -3.6674,-7.27958 c -0.027,0.18548 -0.079,0.36365 -0.098,0.55233 -0.037,0.39314 -0.013,0.79798 -0.013,1.193 l 0,2.10987 0,6.08657 0,2.64009 0,0.68487 c 0,0.0802 0.025,0.20889 -0.025,0.27617 -0.1016,0.13553 -0.26,0.25041 -0.3941,0.35204 -0.2526,0.19121 -0.5233,0.34807 -0.8286,0.43843 -0.4554,0.13488 -0.9657,0.12638 -1.436,0.12638 -0.2467,0 -0.4941,0.011 -0.7401,0.011 -0.1298,0 -0.2892,-0.0254 -0.4087,0.0332 m 3.8331,-0.97208 c 0.2886,0.28854 0.6238,0.55686 1.0052,0.71139 0.3878,0.15697 0.8234,0.1952 1.2373,0.20535 0.3239,0.008 0.648,0.0112 0.972,0.0112 0.174,0 0.3754,-0.0273 0.5412,0.0332"
           id="path class="strokify"4-09-0-1-6-6-8-9" />
      </g>
      <g>
        <path class="strokify"
           d="m 4699.9578,419.63111 c -0.1583,0.15835 -0.3179,0.37077 -0.5231,0.46937 -0.2309,0.11096 -0.4954,0.10131 -0.745,0.10131 l -1.0383,0 -4.1056,0 -1.1571,0 -0.3409,0 c -0.048,0 -0.1132,0.0115 -0.1585,-0.006 -0.1058,-0.0404 -0.2136,-0.1998 -0.2933,-0.27948 -0.03,-0.0299 -0.077,-0.0634 -0.094,-0.10302 -0.017,-0.0384 0.01,-0.10272 0.014,-0.14267 0.017,-0.12198 0.039,-0.2434 0.061,-0.36459 0.031,-0.17651 0.055,-0.35667 0.098,-0.53103 0.075,-0.30777 0.1967,-0.61362 0.3224,-0.90356 0.2925,-0.6741 0.7074,-1.33353 1.2557,-1.82953 0.4748,-0.4296 1.0429,-0.77025 1.6564,-0.96016 0.7921,-0.24513 1.7021,-0.24513 2.4967,-0.0183 0.2258,0.0644 0.4507,0.16795 0.65,0.29134 0.2547,0.15765 0.4993,0.33068 0.7047,0.55109 0.5714,0.61347 0.8422,1.44521 1.0024,2.25095 0.07,0.35216 0.1159,0.71325 0.1541,1.07001 0.01,0.0977 0.019,0.1957 0.03,0.29327 0.01,0.0408 0,0.0913 0.029,0.12444 0.043,0.0489 0.1118,0.0851 0.1638,0.12417 0.1099,0.0823 0.2193,0.16527 0.325,0.25269 0.061,0.05 0.1383,0.14559 0.2141,0.16834 0.049,0.0148 0.115,0.004 0.1664,0.004 l 0.3487,0 c 0.2951,0 0.5935,0.0114 0.8877,-0.009 0.1752,-0.012 0.3485,-0.0631 0.5231,-0.0706 m -1.7199,5.88103 c -0.4942,0.49427 -1.0032,0.95847 -1.6327,1.27718 -0.6962,0.35239 -1.4487,0.51217 -2.2193,0.59468 -0.3067,0.0329 -0.6269,0.0834 -0.9352,0.0775 -0.2813,-0.006 -0.5749,-0.0606 -0.8481,-0.12545 -0.7949,-0.18872 -1.5255,-0.61198 -2.1318,-1.1526 -0.4374,-0.39001 -0.7893,-0.86161 -1.0793,-1.36881 -0.5533,-0.96782 -0.8197,-2.11636 -0.8469,-3.22584 -0.01,-0.31189 0.04,-0.62472 0.063,-0.93526 0.024,-0.3263 0.056,-0.66093 0.116,-0.98279 0.018,-0.10233 0.012,-0.27939 0.1146,-0.3329"
           id="path class="strokify"4-542-9-0-1-7-0-1" />
        <path class="strokify"
           d="m 4706.9091,407.78889 c 0,0.97344 0.01,1.94408 -0.088,2.9125 -0.031,0.32096 -0.07,0.64364 -0.1274,0.96123 -0.033,0.18388 -0.1025,0.38112 -0.1109,0.56711 -0.016,0.33807 0,0.68046 0,1.0189 l 0,1.99934 c 0,2.15958 0.01,4.31983 0.01,6.47864 l 0,3.78721 0,1.00928 c 0,0.10102 0.039,0.30769 -0.016,0.39409 -0.081,0.12775 -0.2366,0.24051 -0.3499,0.33913 -0.2008,0.17465 -0.4181,0.34757 -0.6633,0.45638 -0.3874,0.17207 -0.834,0.18447 -1.2496,0.21292 -0.2391,0.0163 -0.4814,0.0188 -0.7209,0.0293 -0.1269,0.006 -0.2641,-0.008 -0.3748,0.0677 m 0.01,-15.41798 c 0.8163,0 1.6514,-0.0452 2.4414,-0.27193 0.1856,-0.0532 0.3673,-0.11276 0.5479,-0.18033 0.059,-0.0216 0.1589,-0.0897 0.2211,-0.0771 0.055,0.0109 0.1066,0.0879 0.1442,0.12563 m 0.01,0.40372 3.0663,0 c 0.708,0 1.4163,0.0355 2.1147,-0.0961 m -5.181,14.4087 c 0.2985,0.29846 0.6286,0.61374 1.0189,0.78955 0.2636,0.11871 0.57,0.16169 0.8555,0.18927 0.3507,0.0339 0.7057,0.0344 1.0573,0.0585 0.1655,0.0113 0.3538,0.004 0.4999,0.097"
           id="path class="strokify"4-96-9-4-8-9-9-4" />
      </g>
    </g>
    <g>
      <path class="strokify"
         id="path class="strokify"4-88-0-2-1-8-8-6"
         d="m 4664.4463,229.22742 c -0.1454,0.24912 -0.2763,0.50687 -0.4212,0.75665 -0.066,0.11373 -0.1886,0.25001 -0.2194,0.37831 -0.026,0.11052 0.01,0.26427 0.013,0.37833 0.01,0.28406 0,0.56909 0,0.85324 l 0,0.57956 c 0,0.0905 -0.019,0.1803 0.048,0.24953 l 0.4346,-0.43467 c 0.063,-0.0624 0.1297,-0.15673 0.2093,-0.19673 0.1842,-0.0927 0.408,-0.14054 0.6038,-0.20574 0.075,-0.025 0.1791,-0.0411 0.2414,-0.0908 0.2386,-0.18988 0.4413,-0.43547 0.6681,-0.64032 0.5228,-0.47219 1.0871,-0.92376 1.7387,-1.20485 0.3827,-0.16509 0.7988,-0.22474 1.2074,-0.29042 0.2946,-0.0474 0.6267,-0.12034 0.9257,-0.0904 0.236,0.0235 0.4886,0.13064 0.6922,0.24711 0.7274,0.41599 1.1697,1.24097 1.2913,2.05365 0.031,0.20912 0.05,0.41816 0.075,0.62786 0.01,0.0503 0.015,0.18312 0.099,0.17201 0.055,-0.007 0.1311,-0.11792 0.169,-0.15592 l 0.314,-0.31392 c 0.048,-0.048 0.098,-0.11615 0.1609,-0.14401 0.1444,-0.0636 0.3014,-0.10939 0.4508,-0.15922 0.068,-0.0228 0.1571,-0.0405 0.2174,-0.0808 0.078,-0.052 0.1432,-0.13765 0.2093,-0.20366 0.1275,-0.12749 0.2561,-0.25346 0.3863,-0.37799 0.3374,-0.3227 0.71,-0.62359 1.1028,-0.87594 0.3446,-0.22144 0.7182,-0.39676 1.1108,-0.51404 0.3625,-0.10826 0.7526,-0.15721 1.127,-0.20639 0.2674,-0.0352 0.5672,-0.10375 0.8371,-0.0769 0.4943,0.0493 0.9824,0.34726 1.3018,0.71503 0.6471,0.74522 0.7116,1.85556 0.7756,2.79316 0.066,0.96118 0.064,1.92486 0.064,2.88975 l 0,3.04267 0,1.98822 0,0.53126 c 0,0.0583 0.019,0.15857 -0.013,0.20928 -0.034,0.0535 -0.094,0.0964 -0.1399,0.1382 -0.1367,0.12196 -0.2823,0.22684 -0.4428,0.31507 -0.7372,0.4048 -1.5494,0.28985 -2.3505,0.35973 m -16.3885,-12.24319 c 0.3773,-0.0701 0.7697,-0.0776 1.1511,-0.11405 0.2827,-0.027 0.5808,-0.0739 0.8613,-0.007 0.2983,0.0722 0.6161,0.28327 0.8452,0.48249 m 8.2427,2.02041 c 0,0.58857 0.017,1.17569 0.024,1.76281 0.02,1.63888 0,3.27918 0,4.91821 l 0,1.73868 0,0.45076 c 0,0.0551 -0.017,0.13886 0.019,0.18513 0.1,0.13307 0.2548,0.2439 0.3918,0.33542 0.4549,0.3038 0.9987,0.41343 1.5374,0.43701 0.3191,0.014 0.6416,-0.0101 0.9579,0.0325 m -11.1082,-9.8203 c 0,2.19781 0.017,4.39532 0.017,6.59248 l 0,1.74672 0,0.46687 c 0,0.0525 0.017,0.1395 -0.013,0.18506 -0.034,0.0522 -0.101,0.0987 -0.1481,0.13909 -0.1212,0.10393 -0.2497,0.20027 -0.3864,0.28278 -0.6909,0.41672 -1.5705,0.43507 -2.3505,0.36705 m 11.0841,-0.78079 c -0.48,0.48006 -1.0521,0.71536 -1.7226,0.77943 -0.4251,0.0406 -0.8571,-0.005 -1.2798,0.0496 m 11.2128,-0.82104 c 0.4899,0.48988 1.1018,0.72485 1.787,0.77202 0.2325,0.016 0.4671,0.0168 0.7003,0.0168 0.1598,0 0.3194,-0.0116 0.4749,0.0322"/>
      <path class="strokify"
         id="path class="strokify"4-60-0-7-5-5-2-0"
         d="m 4693.997,242.27198 0.2172,-0.46894 0.3748,-0.67652 c -0.1463,0 -0.3005,-0.014 -0.4459,0 -0.158,0.0168 -0.321,0.0766 -0.4767,0.11075 -0.1075,0.0233 -0.2267,0.0289 -0.3306,0.0654 -0.1295,0.0448 -0.2498,0.13475 -0.3766,0.19021 -0.2577,0.11261 -0.5258,0.19684 -0.7995,0.26006 -0.3812,0.0878 -0.7791,0.1297 -1.1687,0.15706 -0.179,0.0121 -0.3664,0.0448 -0.5457,0.0374 -1.1994,-0.0532 -2.3607,-0.61611 -3.1882,-1.47658 -0.4476,-0.46548 -0.7804,-1.02584 -1.0414,-1.61319 -0.4134,-0.92976 -0.6349,-1.974 -0.6598,-2.9905 -0.01,-0.41899 0.062,-0.85207 0.1063,-1.26844 0.069,-0.6487 0.1906,-1.28702 0.397,-1.90658 0.3892,-1.16732 1.1241,-2.29728 2.2105,-2.92234 0.6876,-0.39564 1.4325,-0.52572 2.214,-0.5599 0.9078,-0.0402 1.7956,0.22112 2.5447,0.73171 0.2081,0.14184 0.3988,0.30674 0.5839,0.47716 0.068,0.0626 0.1261,0.14548 0.2015,0.19899 0.066,0.0467 0.1624,0.0682 0.237,0.0987 0.1546,0.0635 0.3088,0.12867 0.4613,0.1974 0.097,0.0439 0.2482,0.13418 0.2875,0.24072 0.019,0.0514 0,0.12998 0,0.18452 l 0,0.41506 0,1.40692 0,4.76636 0,2.08343 c 0,0.17966 0.01,0.35829 0.01,0.53814 0,0.0588 -0.011,0.17499 0.025,0.22289 0.054,0.07 0.1419,0.12064 0.2128,0.17219 0.5783,0.42038 1.3556,0.23886 2.0141,0.17508 0.2718,-0.0261 0.5543,-0.028 0.8226,-0.0784 m -2.3755,-11.74688 c -0.01,0.13017 -0.044,0.2651 -0.072,0.39209 -0.046,0.21038 -0.089,0.42104 -0.1406,0.63039 -0.032,0.12905 -0.04,0.30619 -0.104,0.42282 -0.029,0.0532 -0.088,0.0962 -0.1296,0.13838 l -0.2613,0.26137 m 0.023,9.62506 -0.2383,0.36137"/>
      <path class="strokify"
         id="path class="strokify"4-679-5-1-5-6-2-0"
         d="m 4700.6785,229.3701 c 0.1343,-9.4e-4 0.2694,-0.0371 0.4031,-0.05 0.2512,-0.0245 0.5036,-0.0386 0.7549,-0.0629 0.2296,-0.0222 0.4635,-0.0598 0.6948,-0.0497 0.3033,0.0133 0.6054,0.11726 0.8578,0.28324 0.117,0.077 0.3042,0.17121 0.3809,0.29114 0.029,0.0458 0.01,0.11931 0.018,0.17155 0.026,0.20013 0.01,0.41578 0.01,0.61762 l 0,2.06729 0,4.09168 c 0,0.91502 -0.015,1.832 0.025,2.74496 0.025,0.57798 0.089,1.16532 0.279,1.71559 0.1222,0.35307 0.2998,0.68452 0.6134,0.90266 0.1093,0.076 0.2525,0.15217 0.386,0.17173 0.1867,0.0274 0.4069,-0.0332 0.5919,-0.0599 0.5172,-0.0745 1.0605,-0.15646 1.5526,-0.33644 0.5115,-0.18708 0.9684,-0.48207 1.3896,-0.82391"/>
      <g>
        <path class="strokify"
           d="m 4764.7703,219.75724 c 0.8431,-0.34594 1.6701,-0.74561 2.5436,-1.01182 0.6397,-0.19504 1.3194,-0.28469 1.9717,-0.43217 0.4428,-0.10093 0.8695,-0.20136 1.3266,-0.18545 0.1642,0 0.4069,0.0257 0.5463,0.12147 0.086,0.0599 0.068,0.2568 0.075,0.35107 0.024,0.33584 0.06,0.67323 0.06,1.0101 5e-4,1.35501 0,2.71019 0,4.06503 l 0,12.60896 0,3.37128 0,0.9006 c 0,0.0959 -0.033,0.26963 0.019,0.35296 0.13,0.20581 0.4177,0.38854 0.6134,0.52849 0.7801,0.55757 1.7176,0.56698 2.6411,0.56698 0.4464,0 0.8932,0.0171 1.3389,0.0171 0.3705,0 0.8116,-0.065 1.1683,0.0479 m -5.7812,-1.16836 c -0.4071,0.40719 -0.8502,0.74714 -1.3995,0.93619 -0.4609,0.15911 -0.9798,0.15398 -1.4606,0.15911 -0.6277,0 -1.2588,0.0171 -1.8864,0.0239 -0.4186,0.0171 -0.9091,-0.077 -1.3144,0.036"
           id="path class="strokify"4-672-5-9-7-4-7-0" />
        <path class="strokify"
           d="m 4733.4814,223.25156 c -0.072,-0.13555 -0.032,-0.29216 0,-0.4369 0.053,-0.28106 0.1097,-0.56068 0.1701,-0.84017 0.1079,-0.49963 0.2087,-1.05744 0.4229,-1.52352 0.3588,-0.78108 1.0447,-1.37227 1.8199,-1.72174 0.7631,-0.34401 1.5784,-0.49646 2.4085,-0.55334 0.5887,-0.0403 1.1741,-0.0551 1.7588,0.0505 1.7682,0.31949 3.3783,1.41138 4.063,3.10951 0.2094,0.51923 0.3174,1.07263 0.3986,1.62434 0.042,0.28847 0.1089,0.59305 0.1089,0.88499 0,0.30953 -0.069,0.63428 -0.1088,0.94101 -0.084,0.64211 -0.1841,1.28132 -0.4049,1.89319 -0.5252,1.45575 -1.4531,2.71949 -2.4753,3.86481 -1.0827,1.21289 -2.2558,2.32719 -3.4187,3.46165 -0.6352,0.61972 -1.2609,1.24066 -1.8503,1.90429 -0.9043,1.0183 -1.8339,2.10549 -2.3505,3.38312 -0.1641,0.40597 -0.2361,0.83995 -0.3296,1.26586 -0.065,0.29743 -0.1168,0.59732 -0.1746,0.89619 -0.027,0.13768 -0.09,0.33125 -0.072,0.4705 0.016,0.11954 0.1501,0.12323 0.2398,0.12323 l 0.7841,0 3.3383,0 4.7834,0 c 0.4144,0 0.83,0.007 1.2435,-0.0108 0.1228,-0.005 0.3668,0.04 0.4673,-0.0398 0.2873,-0.22796 0.4986,-0.63471 0.6576,-0.95768 0.3163,-0.64212 0.5072,-1.34698 0.6798,-2.03884 0.067,-0.26907 0.1059,-0.55384 0.1893,-0.81776"
           id="path class="strokify"4-22-9-2-1-0-5-9-3-1-8" />
        <path class="strokify"
           d="m 4755.1985,218.15266 c 0.2402,-0.0319 0.5148,0.0299 0.7542,0.0588 1.7259,0.20659 2.8592,1.61928 3.6297,3.06147 0.1629,0.30526 0.3211,0.617 0.4526,0.93741 0.1304,0.31732 0.2527,0.63544 0.3667,0.95884 0.5407,1.53447 0.7739,3.17937 0.8851,4.79447 0.045,0.64809 0.099,1.30017 0.1067,1.95006 0.011,0.88887 -0.086,1.78801 -0.1705,2.6719 -0.1575,1.64121 -0.4594,3.30146 -1.0127,4.85906 -0.5707,1.60692 -1.4632,3.21545 -2.9971,4.07113 -0.4165,0.23231 -0.8693,0.42376 -1.3467,0.48326 -0.6142,0.0767 -1.2278,0.0847 -1.8315,-0.0737 -0.76,-0.20012 -1.3769,-0.6747 -1.9197,-1.22463 -1.077,-1.09148 -1.707,-2.66204 -2.1151,-4.11748 -0.1835,-0.65477 -0.354,-1.31243 -0.4746,-1.98245 -0.1749,-0.97199 -0.2618,-1.95753 -0.3292,-2.94128 -0.035,-0.50329 -0.081,-1.01415 -0.075,-1.51913 0.01,-0.74277 0.067,-1.49122 0.1382,-2.23021 0.1566,-1.61699 0.429,-3.21575 0.9444,-4.76208 0.4033,-1.21008 0.9612,-2.41159 1.8018,-3.38308 0.4345,-0.50219 0.9559,-0.97747 1.5652,-1.25722 0.3084,-0.14152 0.6361,-0.2351 0.9697,-0.29071 0.2172,-0.0359 0.4396,-0.0349 0.6572,-0.0638"
           id="path class="strokify"4-3-4-2-1-4-8-1" />
        <path class="strokify"
           d="m 4791.9199,218.14371 c -0.3096,0.30872 -0.6835,0.5754 -1.0288,0.84316 -0.134,0.10394 -0.2949,0.29258 -0.456,0.34779 -0.1433,0.0488 -0.3277,0.0299 -0.4774,0.0399 -0.3782,0.0259 -0.7559,0.0468 -1.1347,0.0628 -0.584,0.0259 -1.1645,0.0558 -1.75,0.0418 -0.7494,-0.0179 -1.4992,-0.0867 -2.2485,-0.0957 -0.3395,0 -0.6791,-0.0478 -1.0182,-0.0628 -0.3317,-0.0139 -0.6651,0.0139 -0.997,-8e-4 -0.1324,-0.01 -0.3291,-0.0488 -0.456,0 -0.099,0.0369 -0.1953,0.1459 -0.2757,0.21227 -0.06,0.0488 -0.1535,0.0996 -0.1856,0.1724 -0.069,0.15585 -0.051,0.39333 -0.072,0.56204 -0.056,0.44884 -0.1039,0.89827 -0.1592,1.34701 -0.1796,1.45723 -0.3816,2.91845 -0.5174,4.38026 -0.044,0.46976 -0.052,0.94172 -0.097,1.41059 -0.012,0.12686 -0.01,0.25511 -0.021,0.38187 -0.01,0.0608 -0.028,0.14669 0.01,0.2013 0.053,0.0797 0.1688,0.0438 0.2482,0.0349 0.2148,-0.0259 0.4317,-0.0339 0.647,-0.0538 0.236,-0.0229 0.475,-0.0179 0.7106,-0.0458 0.2131,-0.0249 0.4239,-0.0897 0.6363,-0.12228 0.4675,-0.0718 0.9389,-0.11849 1.4106,-0.15067 0.6293,-0.0429 1.2521,-0.0847 1.8772,0.0269 1.5856,0.28272 3.004,1.38827 3.7984,2.77225 0.552,0.96186 0.8428,2.04279 0.9656,3.13938 0.031,0.27713 0.077,0.55865 0.083,0.83788 0,0.15706 -0.025,0.32089 -0.04,0.47724 -0.036,0.36852 -0.074,0.73614 -0.1262,1.10306 -0.1388,0.96265 -0.3752,1.91205 -0.8529,2.76817 -0.9411,1.68703 -2.6122,3.08995 -4.6015,3.23574 -0.6444,0.0468 -1.2894,0.0757 -1.9302,-0.0349 -0.9434,-0.16393 -1.772,-0.68472 -2.4925,-1.2922 -0.3303,-0.27843 -0.6311,-0.59673 -0.9651,-0.86878 m 0.6151,-11.83631 c -0.4273,0.46389 -0.7841,0.98796 -1.156,1.4955"
           id="path class="strokify"4-25-0-1-9-2-2-9" />
      </g>
    </g>
  </g>
</svg>
