<?xml version="1.0" encoding="UTF-8" standalone="no"?>
<!-- Created with Inkscape (http://www.inkscape.org/) -->

<svg
   xmlns:dc="http://purl.org/dc/elements/1.1/"
   xmlns:cc="http://creativecommons.org/ns#"
   xmlns:rdf="http://www.w3.org/1999/02/22-rdf-syntax-ns#"
   xmlns:svg="http://www.w3.org/2000/svg"
   xmlns="http://www.w3.org/2000/svg"
   xmlns:sodipodi="http://sodipodi.sourceforge.net/DTD/sodipodi-0.dtd"
   xmlns:inkscape="http://www.inkscape.org/namespaces/inkscape"
   width="128.12148"
   height="35.380997"
   id="svg6468"
   version="1.1"
   inkscape:version="0.48.4 r9939"
   sodipodi:docname="Nouveau document 12">
  <defs
     id="defs6470" />
  <sodipodi:namedview
     id="base"
     pagecolor="#ffffff"
     bordercolor="#666666"
     borderopacity="1.0"
     inkscape:pageopacity="0.0"
     inkscape:pageshadow="2"
     inkscape:zoom="0.35"
     inkscape:cx="-3.7739034"
     inkscape:cy="-219.45234"
     inkscape:document-units="px"
     inkscape:current-layer="layer1"
     showgrid="false"
     fit-margin-top="0"
     fit-margin-left="0"
     fit-margin-right="0"
     fit-margin-bottom="0"
     inkscape:window-width="486"
     inkscape:window-height="415"
     inkscape:window-x="65"
     inkscape:window-y="457"
     inkscape:window-maximized="0" />
  <metadata
     id="metadata6473">
    <rdf:RDF>
      <cc:Work
         rdf:about="">
        <dc:format>image/svg+xml</dc:format>
        <dc:type
           rdf:resource="http://purl.org/dc/dcmitype/StillImage" />
        <dc:title></dc:title>
      </cc:Work>
    </rdf:RDF>
  </metadata>
  <g
     inkscape:label="Calque 1"
     inkscape:groupmode="layer"
     id="layer1"
     transform="translate(-378.7739,-277.52885)">
    <g
       id="g6261"
       transform="translate(-8386.397,-2769.9264)">
      <g
         transform="matrix(0.87618269,0,0,0.87618269,927.94816,388.02483)"
         id="g5037"
         style="stroke-width:1.53754807;stroke-miterlimit:4;stroke-dasharray:none">
        <g
           id="g5019"
           style="stroke-width:1.53754807;stroke-miterlimit:4;stroke-dasharray:none">
          <g
             transform="matrix(0.55072227,0,0,0.55072227,6328.5211,2901.4758)"
             id="g4766-3-4-9-8-4-1"
             style="stroke-width:2.7918756;stroke-miterlimit:4;stroke-dasharray:none">
            <path
               inkscape:connector-curvature="0"
               style="fill:none;stroke:#000000;stroke-width:2.7918756;stroke-miterlimit:4;stroke-dasharray:none"
               d="m 4797.1226,245.93008 c 0.8418,-0.34541 1.6676,-0.74446 2.5397,-1.01026 0.6387,-0.19474 1.3174,-0.28425 1.9686,-0.4315 0.4421,-0.10077 0.8682,-0.20105 1.3246,-0.18516 0.1639,0 0.4062,0.0257 0.5454,0.12128 0.086,0.0598 0.068,0.2564 0.075,0.35052 0.024,0.33533 0.06,0.67219 0.06,1.00854 5e-4,1.35292 0,2.70599 0,4.05873 l 0,12.58944 0,3.36606 0,0.8992 c 0,0.0958 -0.033,0.26922 0.019,0.35242 0.1298,0.2055 0.417,0.38795 0.6124,0.52767 0.7789,0.55671 1.715,0.56611 2.6371,0.56611 0.4457,0 0.8918,0.0171 1.3368,0.0171 0.3699,0 0.8104,-0.0649 1.1665,0.0478 m -5.7723,-1.16656 c -0.4065,0.40657 -0.8489,0.74599 -1.3973,0.93475 -0.4602,0.15886 -0.9783,0.15374 -1.4583,0.15886 -0.6267,0 -1.2569,0.0171 -1.8835,0.0239 -0.418,0.0171 -0.9077,-0.0769 -1.3124,0.036"
               id="path4-672-9-1-1-0-6-7-0-4" />
            <path
               inkscape:connector-curvature="0"
               style="fill:none;stroke:#000000;stroke-width:2.7918756;stroke-miterlimit:4;stroke-dasharray:none"
               d="m 4814.8001,245.93008 c 0.8418,-0.34541 1.6676,-0.74446 2.5397,-1.01026 0.6387,-0.19474 1.3174,-0.28425 1.9686,-0.4315 0.4421,-0.10077 0.8682,-0.20105 1.3246,-0.18516 0.1639,0 0.4062,0.0257 0.5454,0.12128 0.086,0.0598 0.068,0.2564 0.075,0.35052 0.024,0.33533 0.06,0.67219 0.06,1.00854 5e-4,1.35292 0,2.70599 0,4.05873 l 0,12.58944 0,3.36606 0,0.8992 c 0,0.0958 -0.033,0.26922 0.019,0.35242 0.1298,0.2055 0.417,0.38795 0.6124,0.52767 0.7789,0.55671 1.715,0.56611 2.6371,0.56611 0.4457,0 0.8918,0.0171 1.3368,0.0171 0.3699,0 0.8104,-0.0649 1.1665,0.0478 m -5.7723,-1.16656 c -0.4065,0.40657 -0.8489,0.74599 -1.3973,0.93475 -0.4602,0.15886 -0.9783,0.15374 -1.4583,0.15886 -0.6267,0 -1.2569,0.0171 -1.8835,0.0239 -0.418,0.0171 -0.9077,-0.0769 -1.3124,0.036"
               id="path4-672-9-1-2-4-7-0-0-2-1" />
            <path
               inkscape:connector-curvature="0"
               style="fill:none;stroke:#000000;stroke-width:2.7918756;stroke-miterlimit:4;stroke-dasharray:none"
               d="m 4846.1463,244.3111 c 0.2401,-0.0319 0.5147,0.0299 0.7541,0.0588 1.7257,0.20655 2.8588,1.61906 3.6292,3.06105 0.1629,0.30522 0.3211,0.61691 0.4526,0.93728 0.1304,0.31728 0.2526,0.63535 0.3666,0.95871 0.5407,1.53426 0.7738,3.17893 0.885,4.79382 0.045,0.648 0.099,1.29999 0.1067,1.94979 0.011,0.88875 -0.086,1.78776 -0.1705,2.67153 -0.1575,1.641 -0.4593,3.30102 -1.0125,4.85841 -0.5707,1.6067 -1.4631,3.21501 -2.9968,4.07057 -0.4164,0.23228 -0.8692,0.42371 -1.3465,0.4832 -0.6141,0.0767 -1.2277,0.0847 -1.8312,-0.0737 -0.7599,-0.2001 -1.3767,-0.67461 -1.9194,-1.22447 -1.0769,-1.09133 -1.7068,-2.66168 -2.1149,-4.11691 -0.1834,-0.65468 -0.3539,-1.31226 -0.4745,-1.98219 -0.1749,-0.97186 -0.2618,-1.95726 -0.3292,-2.94088 -0.035,-0.50322 -0.081,-1.014 -0.075,-1.51892 0.01,-0.74267 0.067,-1.49101 0.1382,-2.2299 0.1566,-1.61677 0.429,-3.21532 0.9443,-4.76144 0.4033,-1.20992 0.9611,-2.41126 1.8016,-3.38261 0.4344,-0.50213 0.9558,-0.97734 1.565,-1.25706 0.3083,-0.1415 0.636,-0.23506 0.9695,-0.29066 0.2171,-0.0359 0.4395,-0.0349 0.6571,-0.0638"
               id="path4-3-5-5-95-9-0-1-8-1" />
            <path
               inkscape:connector-curvature="0"
               style="fill:none;stroke:#000000;stroke-width:2.7918756;stroke-miterlimit:4;stroke-dasharray:none"
               d="m 4862.3087,244.3111 c 0.2401,-0.0319 0.5147,0.0299 0.754,0.0588 1.7257,0.20656 2.8588,1.61906 3.6292,3.06105 0.1629,0.30522 0.3211,0.61692 0.4526,0.93728 0.1304,0.31728 0.2526,0.63536 0.3666,0.95871 0.5407,1.53426 0.7738,3.17894 0.885,4.79382 0.045,0.648 0.099,1.29999 0.1067,1.9498 0.011,0.88875 -0.086,1.78776 -0.1705,2.67153 -0.1575,1.64099 -0.4593,3.30101 -1.0125,4.8584 -0.5707,1.6067 -1.4631,3.21501 -2.9968,4.07057 -0.4164,0.23228 -0.8692,0.42371 -1.3464,0.4832 -0.6141,0.0767 -1.2277,0.0847 -1.8313,-0.0737 -0.7599,-0.2001 -1.3767,-0.67461 -1.9194,-1.22447 -1.0769,-1.09132 -1.7068,-2.66168 -2.1149,-4.11691 -0.1834,-0.65468 -0.3539,-1.31225 -0.4745,-1.98219 -0.1749,-0.97186 -0.2618,-1.95726 -0.3292,-2.94087 -0.035,-0.50323 -0.081,-1.01401 -0.075,-1.51893 0.01,-0.74267 0.067,-1.49101 0.1382,-2.2299 0.1566,-1.61677 0.429,-3.21532 0.9443,-4.76144 0.4033,-1.20991 0.9611,-2.41126 1.8016,-3.38261 0.4344,-0.50212 0.9558,-0.97734 1.565,-1.25706 0.3083,-0.14149 0.636,-0.23506 0.9696,-0.29066 0.2171,-0.0359 0.4395,-0.0349 0.6571,-0.0638"
               id="path4-3-5-5-6-9-8-6-6-1-2" />
            <path
               inkscape:connector-curvature="0"
               style="fill:none;stroke:#000000;stroke-width:2.7918756;stroke-miterlimit:4;stroke-dasharray:none"
               d="m 4893.086,245.93008 c 0.8418,-0.34541 1.6676,-0.74446 2.5397,-1.01026 0.6387,-0.19474 1.3174,-0.28425 1.9687,-0.43151 0.4421,-0.10077 0.8682,-0.20104 1.3245,-0.18515 0.1639,0 0.4062,0.0257 0.5454,0.12127 0.086,0.0598 0.068,0.25641 0.075,0.35053 0.024,0.33533 0.06,0.67219 0.06,1.00854 5e-4,1.35291 0,2.706 0,4.05873 l 0,12.58944 0,3.36606 0,0.8992 c 0,0.0958 -0.033,0.26922 0.019,0.35242 0.1298,0.2055 0.417,0.38794 0.6124,0.52767 0.7789,0.55671 1.715,0.56611 2.6371,0.56611 0.4457,0 0.8918,0.0171 1.3368,0.0171 0.3699,0 0.8104,-0.0649 1.1665,0.0478 m -5.7723,-1.16656 c -0.4065,0.40656 -0.8489,0.74599 -1.3972,0.93475 -0.4602,0.15886 -0.9783,0.15374 -1.4584,0.15886 -0.6267,0 -1.2569,0.0171 -1.8835,0.0239 -0.418,0.0171 -0.9077,-0.0769 -1.3124,0.0359"
               id="path4-672-9-1-2-5-26-5-2-3-1-7" />
            <path
               inkscape:connector-curvature="0"
               style="fill:none;stroke:#000000;stroke-width:2.7918756;stroke-miterlimit:4;stroke-dasharray:none"
               d="m 4921.0221,256.76333 -0.5536,-0.55354 c -0.055,-0.0558 -0.1447,-0.18723 -0.2236,-0.20307 -0.085,-0.017 -0.2479,0.0688 -0.3301,0.0967 -0.1475,0.0488 -0.3322,0.0718 -0.4682,0.14648 -0.144,0.0797 -0.2644,0.23716 -0.3939,0.34019 -0.5337,0.42349 -1.1522,0.73489 -1.7992,0.94265 -0.4924,0.15794 -0.9986,0.24214 -1.5116,0.29704 -0.3973,0.0429 -0.8026,0.10055 -1.2029,0.0827 -1.0264,-0.0448 -2.0584,-0.42339 -2.8956,-1.00842 -1.4116,-0.9864 -2.157,-2.71815 -2.4073,-4.37765 -0.053,-0.34896 -0.112,-0.71117 -0.1157,-1.06462 0,-0.21802 0.031,-0.44302 0.052,-0.65995 0.053,-0.55074 0.1222,-1.09741 0.2348,-1.63938 0.2554,-1.22843 0.7281,-2.46235 1.6195,-3.37461 0.6681,-0.68377 1.5403,-1.18997 2.4802,-1.3792 0.3267,-0.0658 0.6594,-0.0688 0.9901,-0.0907 0.5669,-0.0389 1.1385,-0.01 1.6927,0.13273 0.5873,0.14678 1.1293,0.40466 1.6286,0.74385 0.4842,0.32904 0.924,0.70251 1.3146,1.13946 1.0014,1.12022 1.5552,2.61611 1.8308,4.07412 0.3013,1.59464 0.4408,3.22635 0.2843,4.8437 -0.042,0.43406 -0.05,0.87957 -0.1324,1.30935 -0.015,0.0797 -0.078,0.14339 -0.093,0.2235 -0.079,0.42211 -0.099,0.8473 -0.1975,1.26691 -0.5264,2.22479 -1.5994,4.33639 -3.1061,6.05717 -0.9654,1.10259 -2.1271,2.08371 -3.4354,2.75442 -0.676,0.34648 -1.3976,0.61452 -2.1292,0.818 -0.6278,0.17448 -1.2723,0.30462 -1.916,0.40457 -0.216,0.0339 -0.4327,0.0598 -0.6494,0.0867 -0.097,0.012 -0.2048,0.01 -0.2981,0.0349"
               id="path4-002-3-3-4-3-0-7" />
            <path
               inkscape:connector-curvature="0"
               style="fill:none;stroke:#000000;stroke-width:2.7918756;stroke-miterlimit:4;stroke-dasharray:none"
               d="m 4947.1631,244.3111 c 0.2401,-0.0319 0.5147,0.0299 0.7541,0.0588 1.7257,0.20655 2.8588,1.61906 3.6292,3.06105 0.1629,0.30522 0.3211,0.61691 0.4526,0.93728 0.1304,0.31728 0.2526,0.63535 0.3666,0.95871 0.5407,1.53426 0.7738,3.17893 0.885,4.79382 0.045,0.648 0.099,1.29999 0.1067,1.94979 0.011,0.88875 -0.086,1.78776 -0.1705,2.67153 -0.1575,1.641 -0.4593,3.30102 -1.0125,4.85841 -0.5707,1.6067 -1.4631,3.21501 -2.9968,4.07057 -0.4164,0.23228 -0.8692,0.42371 -1.3465,0.4832 -0.6141,0.0767 -1.2277,0.0847 -1.8312,-0.0737 -0.7599,-0.2001 -1.3767,-0.67461 -1.9194,-1.22447 -1.0769,-1.09133 -1.7068,-2.66168 -2.1149,-4.11691 -0.1834,-0.65468 -0.3539,-1.31226 -0.4745,-1.98219 -0.1749,-0.97186 -0.2618,-1.95726 -0.3292,-2.94088 -0.035,-0.50322 -0.081,-1.014 -0.075,-1.51892 0.01,-0.74267 0.067,-1.49101 0.1382,-2.2299 0.1566,-1.61677 0.429,-3.21532 0.9443,-4.76144 0.4033,-1.20992 0.9611,-2.41126 1.8016,-3.38261 0.4344,-0.50213 0.9558,-0.97734 1.565,-1.25706 0.3083,-0.1415 0.636,-0.23506 0.9695,-0.29066 0.2171,-0.0359 0.4395,-0.0349 0.6571,-0.0638"
               id="path4-3-5-5-8-1-0-5-2-2-2" />
            <path
               inkscape:connector-curvature="0"
               style="fill:none;stroke:#000000;stroke-width:2.7918756;stroke-miterlimit:4;stroke-dasharray:none"
               d="m 4963.3255,244.3111 c 0.2401,-0.0319 0.5147,0.0299 0.754,0.0588 1.7257,0.20656 2.8588,1.61906 3.6292,3.06105 0.1629,0.30522 0.3211,0.61692 0.4526,0.93728 0.1304,0.31728 0.2526,0.63536 0.3666,0.95871 0.5407,1.53426 0.7738,3.17894 0.885,4.79382 0.045,0.648 0.099,1.29999 0.1067,1.9498 0.011,0.88875 -0.086,1.78776 -0.1705,2.67153 -0.1575,1.64099 -0.4593,3.30101 -1.0125,4.8584 -0.5707,1.6067 -1.4631,3.21501 -2.9968,4.07057 -0.4164,0.23228 -0.8692,0.42371 -1.3464,0.4832 -0.6141,0.0767 -1.2277,0.0847 -1.8313,-0.0737 -0.7599,-0.2001 -1.3767,-0.67461 -1.9194,-1.22447 -1.0769,-1.09132 -1.7068,-2.66168 -2.1149,-4.11691 -0.1834,-0.65468 -0.3539,-1.31225 -0.4745,-1.98219 -0.1749,-0.97186 -0.2618,-1.95726 -0.3292,-2.94087 -0.035,-0.50323 -0.081,-1.01401 -0.075,-1.51893 0.01,-0.74267 0.067,-1.49101 0.1382,-2.2299 0.1566,-1.61677 0.429,-3.21532 0.9443,-4.76144 0.4033,-1.20991 0.9611,-2.41126 1.8016,-3.38261 0.4344,-0.50212 0.9558,-0.97734 1.565,-1.25706 0.3083,-0.14149 0.636,-0.23506 0.9696,-0.29066 0.2171,-0.0359 0.4395,-0.0349 0.6571,-0.0638"
               id="path4-3-5-5-6-6-3-7-9-3-5-8" />
            <g
               id="g4731-4-2-8-4-1-6"
               transform="translate(0,-7.806996)"
               style="stroke-width:2.7918756;stroke-miterlimit:4;stroke-dasharray:none">
              <path
                 id="path4-03-4-2-7-9-0-8"
                 d="m 4931.4632,261.82116 0,1"
                 style="fill:none;stroke:#000000;stroke-width:2.7918756;stroke-miterlimit:4;stroke-dasharray:none"
                 inkscape:connector-curvature="0" />
              <path
                 id="path4-03-1-2-9-0-2-2-6"
                 d="m 4931.4632,267.01426 0,1"
                 style="fill:none;stroke:#000000;stroke-width:2.7918756;stroke-miterlimit:4;stroke-dasharray:none"
                 inkscape:connector-curvature="0" />
            </g>
            <g
               id="g4731-9-2-3-5-8-8-2"
               transform="translate(-98.015204,-7.806996)"
               style="stroke-width:2.7918756;stroke-miterlimit:4;stroke-dasharray:none">
              <path
                 id="path4-03-3-4-0-1-0-2-8"
                 d="m 4931.4632,261.82116 0,1"
                 style="fill:none;stroke:#000000;stroke-width:2.7918756;stroke-miterlimit:4;stroke-dasharray:none"
                 inkscape:connector-curvature="0" />
              <path
                 id="path4-03-1-1-9-9-0-9-7-4"
                 d="m 4931.4632,267.01426 0,1"
                 style="fill:none;stroke:#000000;stroke-width:2.7918756;stroke-miterlimit:4;stroke-dasharray:none"
                 inkscape:connector-curvature="0" />
            </g>
            <path
               inkscape:connector-curvature="0"
               style="fill:none;stroke:#000000;stroke-width:2.7918756;stroke-miterlimit:4;stroke-dasharray:none"
               d="m 4879.451,257.71429 c 0.2005,-0.0641 0.4072,-0.0529 0.6148,-0.0529 l 0.8462,0 2.0295,0 0.78,0 c 0.1305,0 0.2667,0.0112 0.3966,-9.9e-4 0.093,-0.009 0.1799,-0.0383 0.2711,-0.0518"
               id="path4-37-54-9-3-3-2-8" />
          </g>
        </g>
      </g>
      <g
         transform="matrix(0.87618269,0,0,0.87618269,926.74561,388.02483)"
         id="g5056"
         style="stroke-width:1.53754807;stroke-miterlimit:4;stroke-dasharray:none">
        <g
           id="g6170-0-8-9-4-0-6"
           transform="matrix(0.95516009,0,0,0.95516009,4344.4551,2621.2789)"
           style="stroke-width:1.60972822;stroke-miterlimit:4;stroke-dasharray:none">
          <g
             style="stroke-width:2.92294002;stroke-miterlimit:4;stroke-dasharray:none"
             transform="matrix(0.55072227,0,0,0.55072227,2170.4588,304.55759)"
             id="g5085-4-2-8-6-5-6">
            <path
               inkscape:connector-curvature="0"
               style="fill:none;stroke:#000000;stroke-width:2.92294002;stroke-miterlimit:4;stroke-dasharray:none"
               d="m 4814.706,309.25229 c 0.015,-0.0822 0.038,-0.20154 0.023,-0.28386 -0.013,-0.0763 -0.06,-0.1537 -0.089,-0.22542 -0.062,-0.15329 -0.1218,-0.30724 -0.1865,-0.4592 -0.2294,-0.53867 -0.4409,-1.08578 -0.6617,-1.62804 -0.8878,-2.181 -1.7837,-4.35925 -2.6583,-6.54559 -0.1993,-0.49852 -0.4325,-0.99152 -0.5965,-1.50282 -0.093,-0.28946 -0.141,-0.58568 -0.1906,-0.88498 -0.031,-0.1866 -0.064,-0.37286 -0.095,-0.55938 -0.01,-0.0537 -0.049,-0.16056 -0.018,-0.20873 0.06,-0.0927 0.1684,-0.17249 0.2464,-0.25047 0.1133,-0.11321 0.2213,-0.25231 0.3674,-0.32344 0.1864,-0.0909 0.3974,-0.11413 0.6011,-0.12815 0.4133,-0.0285 0.8464,0.0177 1.2524,-0.066 m -5.7024,0.0167 c 0.2996,0.0388 0.5996,0.0302 0.9017,0.0508 0.3621,0.0248 0.7256,0.0811 1.077,0.17358 0.2639,0.0695 0.524,0.16589 0.7681,0.28795 0.1544,0.0772 0.3002,0.18084 0.4592,0.24738 m 10.2108,-0.50929 c 0.1247,0.14611 0.2914,0.33697 0.3453,0.52599 0.053,0.18743 0.031,0.43231 0.031,0.62617 0,0.56431 -0.085,1.12168 -0.1719,1.67814 -0.054,0.34723 -0.099,0.69622 -0.1934,1.03528 -0.2651,0.95177 -0.7257,1.86373 -1.1772,2.73845 -0.6037,1.16978 -1.2639,2.31241 -1.9573,3.43143 -0.2903,0.46846 -0.5798,0.93708 -0.8747,1.40262 -0.093,0.14728 -0.1822,0.29731 -0.2786,0.4425 -0.038,0.0568 -0.07,0.1365 -0.1233,0.18017 -0.045,0.0369 -0.1133,0.0546 -0.1663,0.0774 l -0.3589,0.15279 c -0.1416,0.0608 -0.283,0.12298 -0.4258,0.18075 -0.1138,0.046 -0.1936,0.0909 -0.3172,0.0517"
               id="path4-251-9-1-0-3-6-7" />
            <path
               inkscape:connector-curvature="0"
               style="fill:none;stroke:#000000;stroke-width:2.92294002;stroke-miterlimit:4;stroke-dasharray:none"
               d="m 4841.7369,296.18621 c -0.1588,0.29782 -0.3154,0.59199 -0.4985,0.87673 -0.066,0.10282 -0.1307,0.20657 -0.1953,0.31042 -0.03,0.0486 -0.077,0.10067 -0.094,0.15512 -0.023,0.0747 0,0.17155 0,0.24832 0,0.20928 0.01,0.41875 0.01,0.6285 l 0,0.5664 c 0,0.0439 -0.02,0.16473 0.047,0.17361 0.044,0.009 0.1186,-0.0983 0.1474,-0.12701 0.1279,-0.12785 0.2516,-0.28343 0.3958,-0.39251 0.066,-0.0504 0.17,-0.07 0.2483,-0.0963 0.2122,-0.0719 0.459,-0.12066 0.6595,-0.21919 0.075,-0.0364 0.1325,-0.11963 0.194,-0.17529 0.1547,-0.13998 0.308,-0.28128 0.4655,-0.418 0.483,-0.41959 1.0335,-0.80239 1.6449,-1.00691 0.3284,-0.10992 0.6672,-0.15876 1.0088,-0.20788 0.2697,-0.0392 0.5575,-0.0887 0.8302,-0.0813 0.5369,0.014 1.1129,0.27699 1.5196,0.61459 0.7921,0.65773 1.0275,1.78903 1.096,2.76643 0.063,0.90633 0.053,1.8136 0.053,2.72348 l 0,3.41408 0,1.62944 0,0.45004 c 0,0.0551 -0.017,0.14419 0.01,0.19396 0.026,0.0523 0.089,0.094 0.1317,0.13233 0.1198,0.10628 0.2507,0.20116 0.3879,0.28353 0.4381,0.26289 0.915,0.31117 1.4123,0.34526 0.2418,0.0168 0.514,0.0346 0.7526,-7.5e-4 m -14.1296,-11.68538 c 0.4441,-0.0822 0.9012,-0.10534 1.3502,-0.14876 0.3538,-0.0346 0.7139,-0.085 1.0629,0.0131 0.2586,0.0728 0.4629,0.23039 0.6829,0.37579 m 0.078,1.62953 0,6.63411 0,1.76914 0,0.47329 c 0,0.0523 -0.017,0.14083 0.012,0.18613 0.083,0.12831 0.2677,0.24113 0.391,0.32928 0.6611,0.47245 1.4895,0.43902 2.2657,0.43902 m -2.6691,-0.77596 -0.5742,0.55865 -0.4345,0.46554 m 9.2722,-1.02419 -0.6902,0.68276 -0.3262,0.35693"
               id="path4-91-0-8-2-2-2-8" />
            <path
               inkscape:connector-curvature="0"
               style="fill:none;stroke:#000000;stroke-width:2.92294002;stroke-miterlimit:4;stroke-dasharray:none"
               d="m 4833.6093,300.93015 c -0.1583,0.15835 -0.3179,0.37077 -0.5231,0.46937 -0.2309,0.11096 -0.4954,0.10131 -0.745,0.10131 l -1.0383,0 -4.1056,0 -1.1571,0 -0.3409,0 c -0.048,0 -0.1132,0.0115 -0.1585,-0.006 -0.1058,-0.0404 -0.2136,-0.1998 -0.2933,-0.27948 -0.03,-0.0299 -0.077,-0.0634 -0.094,-0.10302 -0.017,-0.0384 0.01,-0.10272 0.014,-0.14267 0.017,-0.12198 0.039,-0.2434 0.061,-0.36459 0.031,-0.17651 0.055,-0.35667 0.098,-0.53103 0.075,-0.30777 0.1967,-0.61362 0.3224,-0.90356 0.2925,-0.6741 0.7074,-1.33353 1.2557,-1.82953 0.4748,-0.4296 1.0429,-0.77025 1.6564,-0.96016 0.7921,-0.24513 1.7021,-0.24513 2.4967,-0.0183 0.2258,0.0644 0.4507,0.16795 0.65,0.29134 0.2547,0.15765 0.4993,0.33068 0.7047,0.55109 0.5714,0.61347 0.8422,1.44521 1.0024,2.25095 0.07,0.35216 0.1159,0.71325 0.1541,1.07001 0.01,0.0977 0.019,0.1957 0.03,0.29327 0.01,0.0408 0,0.0913 0.029,0.12444 0.043,0.0489 0.1118,0.0851 0.1638,0.12417 0.1099,0.0823 0.2193,0.16527 0.325,0.25269 0.061,0.05 0.1383,0.14559 0.2141,0.16834 0.049,0.0148 0.115,0.004 0.1664,0.004 l 0.3487,0 c 0.2951,0 0.5935,0.0114 0.8877,-0.009 0.1752,-0.012 0.3485,-0.0631 0.5231,-0.0706 m -1.7199,5.88103 c -0.4942,0.49427 -1.0032,0.95847 -1.6327,1.27718 -0.6962,0.35239 -1.4487,0.51217 -2.2193,0.59468 -0.3067,0.0329 -0.6269,0.0834 -0.9352,0.0775 -0.2813,-0.006 -0.5749,-0.0606 -0.8481,-0.12545 -0.7949,-0.18872 -1.5255,-0.61198 -2.1318,-1.1526 -0.4374,-0.39001 -0.7893,-0.86161 -1.0793,-1.36881 -0.5533,-0.96782 -0.8197,-2.11636 -0.8469,-3.22584 -0.01,-0.31189 0.04,-0.62472 0.063,-0.93526 0.024,-0.3263 0.056,-0.66093 0.116,-0.98279 0.018,-0.10233 0.012,-0.27939 0.1146,-0.3329"
               id="path4-542-0-4-6-8-8-5-7-0" />
            <path
               inkscape:connector-curvature="0"
               style="fill:none;stroke:#000000;stroke-width:2.92294002;stroke-miterlimit:4;stroke-dasharray:none"
               d="m 4859.7173,289.12333 c 0.4187,0.0862 0.8743,0.0202 1.3002,0.0402 0.5196,0.0229 1.0378,0.12353 1.4801,0.41237 0.1508,0.0977 0.2805,0.22027 0.4074,0.34705 0.4811,-0.48115 1.0728,-0.7129 1.7465,-0.75899 0.3835,-0.0259 0.7726,0.0173 1.1513,-0.0473 m -2.8978,0.80668 0,12.81363 0,3.32875 0,0.86926 c 0,0.0819 0.031,0.25387 -0.019,0.32122 -0.1791,0.23921 -0.501,0.31948 -0.765,0.43191 -0.075,0.0315 -0.1717,0.0517 -0.2351,0.10338 -0.1731,0.13923 -0.3199,0.31445 -0.4934,0.4566 -0.3598,0.29506 -0.7645,0.53543 -1.1982,0.70472 -0.5802,0.22614 -1.2237,0.29708 -1.8406,0.25487 -0.3979,-0.0272 -0.7879,-0.056 -1.1748,-0.16327 -0.7532,-0.20877 -1.44,-0.65518 -1.9619,-1.23282 -0.9693,-1.07288 -1.4336,-2.4773 -1.6032,-3.89134 -0.039,-0.33628 -0.077,-0.67284 -0.1,-1.01042 -0.015,-0.16024 -0.037,-0.32478 -0.03,-0.48559 0.077,-1.76928 0.6276,-3.70755 1.9891,-4.92516 0.4327,-0.38725 0.9325,-0.68261 1.4646,-0.9109 0.4613,-0.19801 0.9945,-0.32136 1.496,-0.34334 0.2892,-0.0138 0.5895,0.0331 0.8772,0.0617 0.3551,0.0358 0.711,0.0819 1.0574,0.17029 0.2377,0.0617 0.4743,0.14354 0.6972,0.24624 0.1153,0.0531 0.2262,0.13354 0.3445,0.17591 0.1185,0.0416 0.2603,0.0516 0.3837,0.0761 0.1493,0.0302 0.3032,0.0905 0.4542,0.10632 0.2116,0.0229 0.4372,9e-4 0.6503,9e-4 m 0.015,10.16633 0.2661,0.26636 c 0.043,0.043 0.1031,0.0875 0.1323,0.14077 0.06,0.11061 0.067,0.27728 0.098,0.39946 0.078,0.3189 0.1671,0.64499 0.2087,0.97121"
               id="path4-39-46-6-7-3-6-3" />
            <path
               inkscape:connector-curvature="0"
               style="fill:none;stroke:#000000;stroke-width:2.92294002;stroke-miterlimit:4;stroke-dasharray:none"
               d="m 4867.7688,296.1859 c 0.7756,0.0986 1.6341,-0.12565 2.3727,0.2094 0.2828,0.12836 0.5204,0.3596 0.7368,0.57609 l 0.3644,-0.36437 c 0.048,-0.0476 0.1063,-0.13359 0.1701,-0.15711 0.039,-0.0149 0.096,-0.009 0.1377,-0.009 l 0.2915,0 0.9879,0 3.3524,0 c 0.4531,0 0.8932,0.009 1.3362,0.11847 0.1003,0.0243 0.2,0.0504 0.2995,0.0794 0.038,0.0112 0.095,0.0177 0.1255,0.0439 0.05,0.0439 0.077,0.17373 0.099,0.23609 0.064,0.18344 0.1306,0.3653 0.1886,0.5507 0.1839,0.58813 0.2854,1.19158 0.3865,1.79763 0.028,0.16618 0.036,0.33655 0.067,0.50206 m -7.8061,-2.80175 0,8.47015 0,2.2026 0,0.56676 c 0,0.0635 -0.021,0.17354 0.019,0.22676 0.065,0.0878 0.1599,0.16234 0.2404,0.23544 0.1812,0.16439 0.3875,0.31833 0.6154,0.41169 0.3766,0.15403 0.8477,0.13835 1.247,0.13835 0.1811,0 0.3622,0.009 0.5426,0.009 0.144,0 0.2894,-0.0121 0.4292,0.0243 m -3.0933,-0.83403 c -0.2545,0.25448 -0.5262,0.5113 -0.8665,0.6462 -0.3004,0.11893 -0.6374,0.13153 -0.9555,0.13928 -0.4431,0.0112 -0.8979,-0.0103 -1.3361,0.0485"
               id="path4-009-1-0-4-2-0-6" />
            <path
               inkscape:connector-curvature="0"
               style="fill:none;stroke:#000000;stroke-width:2.92294002;stroke-miterlimit:4;stroke-dasharray:none"
               d="m 4890.4883,300.93015 c -0.1583,0.15835 -0.3179,0.37077 -0.5231,0.46937 -0.2309,0.11096 -0.4954,0.10131 -0.745,0.10131 l -1.0383,0 -4.1056,0 -1.1571,0 -0.3409,0 c -0.048,0 -0.1132,0.0115 -0.1585,-0.006 -0.1058,-0.0404 -0.2136,-0.1998 -0.2933,-0.27948 -0.03,-0.0299 -0.077,-0.0634 -0.094,-0.10302 -0.017,-0.0384 0.01,-0.10272 0.014,-0.14267 0.017,-0.12198 0.039,-0.2434 0.061,-0.36459 0.031,-0.17651 0.055,-0.35667 0.098,-0.53103 0.075,-0.30777 0.1967,-0.61362 0.3224,-0.90356 0.2925,-0.6741 0.7074,-1.33353 1.2557,-1.82953 0.4748,-0.4296 1.0429,-0.77025 1.6564,-0.96016 0.7921,-0.24513 1.7021,-0.24513 2.4967,-0.0183 0.2258,0.0644 0.4507,0.16795 0.65,0.29134 0.2547,0.15765 0.4993,0.33068 0.7047,0.55109 0.5714,0.61347 0.8422,1.44521 1.0024,2.25095 0.07,0.35216 0.1159,0.71325 0.1541,1.07001 0.01,0.0977 0.019,0.1957 0.03,0.29327 0.01,0.0408 0,0.0913 0.029,0.12444 0.043,0.0489 0.1118,0.0851 0.1638,0.12417 0.1099,0.0823 0.2193,0.16527 0.325,0.25269 0.061,0.05 0.1383,0.14559 0.2141,0.16834 0.049,0.0148 0.115,0.004 0.1664,0.004 l 0.3487,0 c 0.2951,0 0.5935,0.0114 0.8877,-0.009 0.1752,-0.012 0.3485,-0.0631 0.5231,-0.0706 m -1.7199,5.88103 c -0.4942,0.49427 -1.0032,0.95847 -1.6327,1.27718 -0.6962,0.35239 -1.4487,0.51217 -2.2193,0.59468 -0.3067,0.0329 -0.6269,0.0834 -0.9352,0.0775 -0.2813,-0.006 -0.5749,-0.0606 -0.8481,-0.12545 -0.7949,-0.18872 -1.5255,-0.61198 -2.1318,-1.1526 -0.4374,-0.39001 -0.7893,-0.86161 -1.0793,-1.36881 -0.5533,-0.96782 -0.8197,-2.11636 -0.8469,-3.22584 -0.01,-0.31189 0.04,-0.62472 0.063,-0.93526 0.024,-0.3263 0.056,-0.66093 0.116,-0.98279 0.018,-0.10233 0.012,-0.27939 0.1146,-0.3329"
               id="path4-542-0-4-2-6-5-5-0-9-0" />
            <path
               inkscape:connector-curvature="0"
               style="fill:none;stroke:#000000;stroke-width:2.92294002;stroke-miterlimit:4;stroke-dasharray:none"
               d="m 4902.5748,289.12333 c 0.4187,0.0862 0.8743,0.0202 1.3002,0.0402 0.5196,0.0229 1.0378,0.12353 1.4801,0.41237 0.1508,0.0977 0.2805,0.22027 0.4074,0.34705 0.4811,-0.48115 1.0728,-0.7129 1.7465,-0.75899 0.3835,-0.0259 0.7726,0.0173 1.1513,-0.0473 m -2.8978,0.80668 0,12.81363 0,3.32875 0,0.86926 c 0,0.0819 0.031,0.25387 -0.019,0.32122 -0.1791,0.23921 -0.501,0.31948 -0.765,0.43191 -0.075,0.0315 -0.1717,0.0517 -0.2351,0.10338 -0.1731,0.13923 -0.3199,0.31445 -0.4934,0.4566 -0.3598,0.29506 -0.7645,0.53543 -1.1982,0.70472 -0.5802,0.22614 -1.2237,0.29708 -1.8406,0.25487 -0.3979,-0.0272 -0.7879,-0.056 -1.1748,-0.16327 -0.7532,-0.20877 -1.44,-0.65518 -1.9619,-1.23282 -0.9693,-1.07288 -1.4336,-2.4773 -1.6032,-3.89134 -0.039,-0.33628 -0.077,-0.67284 -0.1,-1.01042 -0.015,-0.16024 -0.037,-0.32478 -0.03,-0.48559 0.077,-1.76928 0.6276,-3.70755 1.9891,-4.92516 0.4327,-0.38725 0.9325,-0.68261 1.4646,-0.9109 0.4613,-0.19801 0.9945,-0.32136 1.496,-0.34334 0.2892,-0.0138 0.5895,0.0331 0.8772,0.0617 0.3551,0.0358 0.711,0.0819 1.0574,0.17029 0.2377,0.0617 0.4743,0.14354 0.6972,0.24624 0.1153,0.0531 0.2262,0.13354 0.3445,0.17591 0.1185,0.0416 0.2603,0.0516 0.3837,0.0761 0.1493,0.0302 0.3032,0.0905 0.4542,0.10632 0.2116,0.0229 0.4372,9e-4 0.6503,9e-4 m 0.015,10.16633 0.2661,0.26636 c 0.043,0.043 0.1031,0.0875 0.1323,0.14077 0.06,0.11061 0.067,0.27728 0.098,0.39946 0.078,0.3189 0.1671,0.64499 0.2087,0.97121"
               id="path4-39-4-0-7-2-0-9-3" />
            <path
               inkscape:connector-curvature="0"
               style="fill:none;stroke:#000000;stroke-width:2.92294002;stroke-miterlimit:4;stroke-dasharray:none"
               d="m 4911.5932,296.35047 c 0.1343,-9.4e-4 0.2694,-0.0371 0.4031,-0.05 0.2512,-0.0245 0.5036,-0.0386 0.7549,-0.0629 0.2296,-0.0222 0.4635,-0.0598 0.6948,-0.0497 0.3033,0.0133 0.6054,0.11726 0.8578,0.28324 0.117,0.077 0.3042,0.17121 0.3809,0.29114 0.029,0.0458 0.01,0.11931 0.018,0.17155 0.026,0.20013 0.01,0.41578 0.01,0.61762 l 0,2.06729 0,4.09168 c 0,0.91502 -0.015,1.832 0.025,2.74496 0.025,0.57798 0.089,1.16532 0.279,1.71559 0.1222,0.35307 0.2998,0.68452 0.6134,0.90266 0.1093,0.076 0.2525,0.15217 0.386,0.17173 0.1867,0.0274 0.4069,-0.0332 0.5919,-0.0599 0.5172,-0.0745 1.0605,-0.15646 1.5526,-0.33644 0.5115,-0.18708 0.9684,-0.48207 1.3896,-0.82391"
               id="path4-679-0-9-34-9-6-6-3-3" />
          </g>
          <g
             style="stroke-width:2.92294002;stroke-miterlimit:4;stroke-dasharray:none"
             transform="matrix(0.55072227,0,0,0.55072227,2170.4588,304.51822)"
             id="g5081-5-6-3-6-8-2">
            <path
               inkscape:connector-curvature="0"
               style="fill:none;stroke:#000000;stroke-width:2.92294002;stroke-miterlimit:4;stroke-dasharray:none"
               d="m 4950.5524,296.25771 c -0.1588,0.29782 -0.3154,0.59199 -0.4985,0.87673 -0.066,0.10282 -0.1307,0.20657 -0.1953,0.31042 -0.03,0.0486 -0.077,0.10067 -0.094,0.15512 -0.023,0.0747 0,0.17155 0,0.24832 0,0.20928 0.01,0.41875 0.01,0.6285 l 0,0.5664 c 0,0.0439 -0.02,0.16473 0.047,0.17361 0.044,0.009 0.1186,-0.0983 0.1474,-0.12701 0.1279,-0.12785 0.2516,-0.28343 0.3958,-0.39251 0.066,-0.0504 0.17,-0.07 0.2483,-0.0963 0.2122,-0.0719 0.459,-0.12066 0.6595,-0.21919 0.075,-0.0364 0.1325,-0.11963 0.194,-0.17529 0.1547,-0.13998 0.308,-0.28128 0.4655,-0.418 0.483,-0.41959 1.0335,-0.80239 1.6449,-1.00691 0.3284,-0.10992 0.6672,-0.15876 1.0088,-0.20788 0.2697,-0.0392 0.5575,-0.0887 0.8302,-0.0813 0.5369,0.014 1.1129,0.27699 1.5196,0.61459 0.7921,0.65773 1.0275,1.78903 1.096,2.76643 0.063,0.90633 0.053,1.8136 0.053,2.72348 l 0,3.41408 0,1.62944 0,0.45004 c 0,0.0551 -0.017,0.14419 0.01,0.19396 0.026,0.0523 0.089,0.094 0.1317,0.13233 0.1198,0.10628 0.2507,0.20116 0.3879,0.28353 0.4381,0.26289 0.915,0.31117 1.4123,0.34526 0.2418,0.0168 0.514,0.0346 0.7526,-7.5e-4 m -14.1296,-11.68538 c 0.4441,-0.0822 0.9012,-0.10534 1.3502,-0.14876 0.3538,-0.0346 0.7139,-0.085 1.0629,0.0131 0.2586,0.0728 0.4629,0.23039 0.6829,0.37579 m 0.078,1.62953 0,6.63411 0,1.76914 0,0.47329 c 0,0.0523 -0.017,0.14083 0.012,0.18613 0.083,0.12831 0.2677,0.24113 0.391,0.32928 0.6611,0.47245 1.4895,0.43902 2.2657,0.43902 m -2.6691,-0.77596 -0.5742,0.55865 -0.4345,0.46554 m 9.2722,-1.02419 -0.6902,0.68276 -0.3262,0.35693"
               id="path4-91-9-4-4-2-5-2-3" />
            <path
               inkscape:connector-curvature="0"
               style="fill:none;stroke:#000000;stroke-width:2.92294002;stroke-miterlimit:4;stroke-dasharray:none"
               d="m 4942.4248,301.00165 c -0.1583,0.15835 -0.3179,0.37077 -0.5231,0.46937 -0.2309,0.11096 -0.4954,0.10131 -0.745,0.10131 l -1.0383,0 -4.1056,0 -1.1571,0 -0.3409,0 c -0.048,0 -0.1132,0.0115 -0.1585,-0.006 -0.1058,-0.0404 -0.2136,-0.1998 -0.2933,-0.27948 -0.03,-0.0299 -0.077,-0.0634 -0.094,-0.10302 -0.017,-0.0384 0.01,-0.10272 0.014,-0.14267 0.017,-0.12198 0.039,-0.2434 0.061,-0.36459 0.031,-0.17651 0.055,-0.35667 0.098,-0.53103 0.075,-0.30777 0.1967,-0.61362 0.3224,-0.90356 0.2925,-0.6741 0.7074,-1.33353 1.2557,-1.82953 0.4748,-0.4296 1.0429,-0.77025 1.6564,-0.96016 0.7921,-0.24513 1.7021,-0.24513 2.4967,-0.0183 0.2258,0.0644 0.4507,0.16795 0.65,0.29134 0.2547,0.15765 0.4993,0.33068 0.7047,0.55109 0.5714,0.61347 0.8422,1.44521 1.0024,2.25095 0.07,0.35216 0.1159,0.71325 0.1541,1.07001 0.01,0.0977 0.019,0.1957 0.03,0.29327 0.01,0.0408 0,0.0913 0.029,0.12444 0.043,0.0489 0.1118,0.0851 0.1638,0.12417 0.1099,0.0823 0.2193,0.16527 0.325,0.25269 0.061,0.05 0.1383,0.14559 0.2141,0.16834 0.049,0.0148 0.115,0.004 0.1664,0.004 l 0.3487,0 c 0.2951,0 0.5935,0.0114 0.8877,-0.009 0.1752,-0.012 0.3485,-0.0631 0.5231,-0.0706 m -1.7199,5.88103 c -0.4942,0.49427 -1.0032,0.95847 -1.6327,1.27718 -0.6962,0.35239 -1.4487,0.51217 -2.2193,0.59468 -0.3067,0.0329 -0.6269,0.0834 -0.9352,0.0775 -0.2813,-0.006 -0.5749,-0.0606 -0.8481,-0.12545 -0.7949,-0.18872 -1.5255,-0.61198 -2.1318,-1.1526 -0.4374,-0.39001 -0.7893,-0.86161 -1.0793,-1.36881 -0.5533,-0.96782 -0.8197,-2.11636 -0.8469,-3.22584 -0.01,-0.31189 0.04,-0.62472 0.063,-0.93526 0.024,-0.3263 0.056,-0.66093 0.116,-0.98279 0.018,-0.10233 0.012,-0.27939 0.1146,-0.3329"
               id="path4-542-0-4-8-8-1-9-3-1-4" />
          </g>
          <g
             style="stroke-width:2.92294002;stroke-miterlimit:4;stroke-dasharray:none"
             transform="matrix(0.55072227,0,0,0.55072227,2170.4588,305.14765)"
             id="g5071-6-0-2-0-2-1">
            <path
               inkscape:connector-curvature="0"
               style="fill:none;stroke:#000000;stroke-width:2.92294002;stroke-miterlimit:4;stroke-dasharray:none"
               d="m 4974.481,295.11478 c -0.1588,0.29782 -0.3154,0.59199 -0.4985,0.87673 -0.066,0.10282 -0.1307,0.20657 -0.1953,0.31042 -0.03,0.0486 -0.077,0.10067 -0.094,0.15512 -0.023,0.0747 0,0.17155 0,0.24832 0,0.20928 0.01,0.41875 0.01,0.6285 l 0,0.5664 c 0,0.0439 -0.02,0.16473 0.047,0.17361 0.044,0.009 0.1186,-0.0983 0.1474,-0.12701 0.1279,-0.12785 0.2516,-0.28343 0.3958,-0.39251 0.066,-0.0504 0.17,-0.07 0.2483,-0.0963 0.2122,-0.0719 0.459,-0.12066 0.6595,-0.21919 0.075,-0.0364 0.1325,-0.11963 0.194,-0.17529 0.1547,-0.13998 0.308,-0.28128 0.4655,-0.418 0.483,-0.41959 1.0335,-0.80239 1.6449,-1.00691 0.3284,-0.10992 0.6672,-0.15876 1.0088,-0.20788 0.2697,-0.0392 0.5575,-0.0887 0.8302,-0.0813 0.5369,0.014 1.1129,0.27699 1.5196,0.61459 0.7921,0.65773 1.0275,1.78903 1.096,2.76643 0.063,0.90633 0.053,1.8136 0.053,2.72348 l 0,3.41408 0,1.62944 0,0.45004 c 0,0.0551 -0.017,0.14419 0.01,0.19396 0.026,0.0523 0.089,0.094 0.1317,0.13233 0.1198,0.10628 0.2507,0.20116 0.3879,0.28353 0.4381,0.26289 0.915,0.31117 1.4123,0.34526 0.2418,0.0168 0.514,0.0346 0.7526,-7.5e-4 m -14.1296,-11.68538 c 0.4441,-0.0822 0.9012,-0.10534 1.3502,-0.14876 0.3538,-0.0346 0.7139,-0.085 1.0629,0.0131 0.2586,0.0728 0.4629,0.23039 0.6829,0.37579 m 0.078,1.62953 0,6.63411 0,1.76914 0,0.47329 c 0,0.0523 -0.017,0.14083 0.012,0.18613 0.083,0.12831 0.2677,0.24113 0.391,0.32928 0.6611,0.47245 1.4895,0.43902 2.2657,0.43902 m -2.6691,-0.77596 -0.5742,0.55865 -0.4345,0.46554 m 9.2722,-1.02419 -0.6902,0.68276 -0.3262,0.35693"
               id="path4-91-9-3-27-6-7-6-6-7" />
            <path
               inkscape:connector-curvature="0"
               style="fill:none;stroke:#000000;stroke-width:2.92294002;stroke-miterlimit:4;stroke-dasharray:none"
               d="m 4992.3734,295.12201 c 0.1355,-0.0177 0.2831,0 0.4187,0.0121 0.244,0.0168 0.4843,0.0271 0.7268,0.0616 0.6762,0.0959 1.3345,0.31342 1.9196,0.66949 0.9839,0.59892 1.7433,1.58247 2.1447,2.65861 0.2746,0.73631 0.4251,1.47897 0.5032,2.25942 0.025,0.24725 0.062,0.50205 0.062,0.7505 0,0.27972 -0.041,0.56691 -0.069,0.84523 -0.098,0.9801 -0.3237,1.92361 -0.7569,2.81243 -0.5418,1.1116 -1.4465,2.11009 -2.6098,2.57695 -0.409,0.16408 -0.8341,0.28662 -1.2719,0.34374 -1.0119,0.13179 -2.0983,0.0948 -3.0573,-0.28569 -1.4885,-0.59062 -2.586,-1.93845 -3.1434,-3.4092 -0.242,-0.63841 -0.3767,-1.305 -0.4445,-1.98288 -0.028,-0.28131 -0.07,-0.57055 -0.07,-0.85317 0,-0.2827 0.048,-0.57223 0.077,-0.85325 0.1605,-1.49801 0.7023,-2.91155 1.7556,-4.01308 0.7124,-0.74508 1.6433,-1.27251 2.654,-1.47738 0.3862,-0.0784 0.774,-0.0644 1.1613,-0.11517"
               id="path4-13-1-7-9-1-5-7" />
            <path
               inkscape:connector-curvature="0"
               style="fill:none;stroke:#000000;stroke-width:2.92294002;stroke-miterlimit:4;stroke-dasharray:none"
               d="m 5011.0754,305.71241 c -0.1416,0.22582 -0.3126,0.44039 -0.4838,0.64438 -0.4309,0.51322 -0.9272,0.99328 -1.5279,1.30362 -0.426,0.22015 -0.8645,0.328 -1.336,0.3959 -0.3853,0.0557 -0.7977,0.1202 -1.1865,0.0827 -1.4039,-0.13413 -2.628,-0.97498 -3.4168,-2.1204 -0.8129,-1.18073 -1.2004,-2.63836 -1.2353,-4.06275 -0.011,-0.46453 0.055,-0.93706 0.1006,-1.39874 0.103,-1.02857 0.3319,-2.04284 0.7998,-2.97053 0.1905,-0.37759 0.4307,-0.73151 0.7049,-1.053 0.1687,-0.19786 0.364,-0.38326 0.5713,-0.54016 0.2263,-0.17119 0.4646,-0.32883 0.7229,-0.44755 0.8926,-0.41001 1.8603,-0.45385 2.8212,-0.35734 0.5831,0.0585 1.1698,0.22553 1.6661,0.54442 0.1562,0.10052 0.3639,0.22545 0.4745,0.37761 0.034,0.0474 0.045,0.11695 0.064,0.17156 0.047,0.13395 0.082,0.27181 0.1185,0.40862 0.098,0.36367 0.1735,0.7305 0.2427,1.1002 0.031,0.16237 0.082,0.33775 0.083,0.50291"
               id="path4-237-8-0-0-9-2-7" />
            <path
               inkscape:connector-curvature="0"
               style="fill:none;stroke:#000000;stroke-width:2.92294002;stroke-miterlimit:4;stroke-dasharray:none"
               d="m 5018.1113,287.88524 c 0,0.97344 0.01,1.94408 -0.088,2.9125 -0.031,0.32096 -0.07,0.64364 -0.1274,0.96123 -0.033,0.18388 -0.1025,0.38112 -0.1109,0.56711 -0.016,0.33807 0,0.68046 0,1.0189 l 0,1.99934 c 0,2.15958 0.01,4.31983 0.01,6.47864 l 0,3.78721 0,1.00928 c 0,0.10102 0.039,0.30769 -0.016,0.39409 -0.081,0.12775 -0.2366,0.24051 -0.3499,0.33913 -0.2008,0.17465 -0.4181,0.34757 -0.6633,0.45638 -0.3874,0.17207 -0.834,0.18447 -1.2496,0.21292 -0.2391,0.0163 -0.4814,0.0188 -0.7209,0.0292 -0.1269,0.006 -0.2641,-0.008 -0.3748,0.0677 m 0.01,-15.41798 c 0.8163,0 1.6514,-0.0452 2.4414,-0.27193 0.1856,-0.0533 0.3673,-0.11276 0.5479,-0.18033 0.059,-0.0216 0.1589,-0.0897 0.2211,-0.0771 0.055,0.0109 0.1066,0.0879 0.1442,0.12563 m 0.01,0.40372 3.0663,0 c 0.708,0 1.4163,0.0355 2.1147,-0.0961 m -5.181,14.4087 c 0.2985,0.29846 0.6286,0.61374 1.0189,0.78955 0.2636,0.11871 0.57,0.16169 0.8555,0.18927 0.3507,0.0339 0.7057,0.0344 1.0573,0.0585 0.1655,0.0113 0.3538,0.005 0.4999,0.097"
               id="path4-96-2-5-1-5-9-7-8-0" />
            <path
               inkscape:connector-curvature="0"
               style="fill:none;stroke:#000000;stroke-width:2.92294002;stroke-miterlimit:4;stroke-dasharray:none"
               d="m 5033.0905,295.11415 c 0.085,0.0569 0.2165,0.0551 0.3158,0.0551 0.1846,0 0.3679,0.009 0.5524,0.009 0.5375,0 1.1279,0.13068 1.5704,0.44657 0.086,0.0617 0.1654,0.12852 0.2447,0.1983 0.039,0.0345 0.094,0.0729 0.1181,0.12068 0.034,0.0672 0.01,0.20109 0.01,0.2762 l 0,0.67867 0,2.42272 0,3.76437 0,1.11272 0,0.32355 c 0,0.0448 0.011,0.10732 -0.01,0.15001 -0.033,0.0888 -0.1658,0.17849 -0.232,0.24463 l -0.2683,0.26835 c -0.043,0.0429 -0.087,0.10069 -0.142,0.12852 -0.1703,0.086 -0.3716,0.14002 -0.5524,0.20026 -0.077,0.0261 -0.1898,0.0467 -0.2526,0.0991 -0.1414,0.11871 -0.2549,0.27854 -0.387,0.4079 -0.3045,0.29815 -0.6185,0.58639 -0.9625,0.83933 -0.4239,0.31168 -0.9007,0.57191 -1.4046,0.72733 -0.3985,0.12284 -0.8108,0.17682 -1.2233,0.22763 -0.3012,0.0373 -0.6201,0.0897 -0.9234,0.0682 -0.2504,-0.0177 -0.5027,-0.097 -0.7339,-0.19036 -0.9981,-0.40276 -1.2564,-1.56732 -1.3823,-2.52369 -0.029,-0.21782 -0.055,-0.43573 -0.07,-0.65504 -0.067,-0.95356 -0.063,-1.90741 -0.063,-2.86471 l 0,-3.22767 0,-1.75199 0,-0.50513 c 0,-0.0617 0.019,-0.16149 -0.01,-0.21866 -0.02,-0.0495 -0.09,-0.0973 -0.1294,-0.13188 -0.1035,-0.0897 -0.207,-0.17532 -0.3236,-0.24771 -0.4278,-0.26518 -0.918,-0.35363 -1.4126,-0.38744 -0.1339,-0.009 -0.2687,0 -0.4026,-0.009 -0.16,-0.0112 -0.3213,0.009 -0.4813,-0.009 -0.058,-0.009 -0.1142,0 -0.1657,-0.0327 m 11.5219,0.80496 c 0.4893,-0.48934 1.0855,-0.71015 1.7677,-0.75685 0.3763,-0.0261 0.7544,0.0103 1.1286,-0.0401 m -11.4982,0.79701 c 0.1568,-0.15683 0.3277,-0.30403 0.5208,-0.41481 0.6858,-0.39341 1.4393,-0.31477 2.1939,-0.37436 m 5.8793,9.54114 c 0.058,0.0598 0.048,0.11927 0.048,0.19727 l 0,0.36297 c 0,0.36296 0.01,0.72678 0.01,1.08909 0,0.12395 0,0.24743 0.01,0.37091 0,0.0373 -0.01,0.0888 0.01,0.12394 0.018,0.042 0.093,0.0822 0.1293,0.10938 0.129,0.0975 0.2638,0.18027 0.4104,0.24827 0.3291,0.15234 0.6768,0.12283 1.026,0.0878 0.402,-0.0401 0.8055,-0.0956 1.2075,-0.12759 m -2.7858,-0.29992 c -0.1419,0.25574 -0.3145,0.49326 -0.4554,0.74966 -0.1049,0.1912 -0.1918,0.41705 -0.3339,0.58406"
               id="path4-40-2-7-1-2-5-8" />
            <path
               inkscape:connector-curvature="0"
               style="fill:none;stroke:#000000;stroke-width:2.92294002;stroke-miterlimit:4;stroke-dasharray:none"
               d="m 5042.2096,295.11447 c 0.7756,0.0986 1.6341,-0.12565 2.3727,0.2094 0.2828,0.12836 0.5204,0.3596 0.7368,0.57609 l 0.3644,-0.36437 c 0.048,-0.0476 0.1063,-0.13359 0.1701,-0.15711 0.039,-0.0149 0.096,-0.009 0.1377,-0.009 l 0.2915,0 0.9879,0 3.3524,0 c 0.4531,0 0.8932,0.009 1.3362,0.11847 0.1003,0.0243 0.2,0.0504 0.2995,0.0794 0.038,0.0112 0.095,0.0177 0.1255,0.0439 0.05,0.0439 0.077,0.17373 0.099,0.23609 0.064,0.18344 0.1306,0.3653 0.1886,0.5507 0.1839,0.58813 0.2854,1.19158 0.3865,1.79763 0.028,0.16618 0.036,0.33655 0.067,0.50206 m -7.8061,-2.80175 0,8.47015 0,2.2026 0,0.56676 c 0,0.0635 -0.021,0.17354 0.019,0.22676 0.065,0.0878 0.1599,0.16234 0.2404,0.23544 0.1812,0.16439 0.3875,0.31833 0.6154,0.41169 0.3766,0.15403 0.8477,0.13835 1.247,0.13835 0.1811,0 0.3622,0.009 0.5426,0.009 0.144,0 0.2894,-0.0121 0.4292,0.0243 m -3.0933,-0.83403 c -0.2545,0.25448 -0.5262,0.5113 -0.8665,0.6462 -0.3004,0.11893 -0.6374,0.13153 -0.9555,0.13928 -0.4431,0.0112 -0.8979,-0.0103 -1.3361,0.0485"
               id="path4-009-6-2-1-8-5-6-0" />
            <path
               inkscape:connector-curvature="0"
               style="fill:none;stroke:#000000;stroke-width:2.92294002;stroke-miterlimit:4;stroke-dasharray:none"
               d="m 5060.1241,295.11478 c -0.1588,0.29782 -0.3154,0.59199 -0.4985,0.87673 -0.066,0.10282 -0.1307,0.20657 -0.1953,0.31042 -0.03,0.0486 -0.077,0.10067 -0.094,0.15512 -0.023,0.0747 0,0.17155 0,0.24832 0,0.20928 0.01,0.41875 0.01,0.6285 l 0,0.5664 c 0,0.0439 -0.02,0.16473 0.047,0.17361 0.044,0.009 0.1186,-0.0983 0.1474,-0.12701 0.1279,-0.12785 0.2516,-0.28343 0.3958,-0.39251 0.066,-0.0504 0.17,-0.07 0.2483,-0.0963 0.2122,-0.0719 0.459,-0.12066 0.6595,-0.21919 0.075,-0.0364 0.1325,-0.11963 0.194,-0.17529 0.1547,-0.13998 0.308,-0.28128 0.4655,-0.418 0.483,-0.41959 1.0335,-0.80239 1.6449,-1.00691 0.3284,-0.10992 0.6672,-0.15876 1.0088,-0.20788 0.2697,-0.0392 0.5575,-0.0887 0.8302,-0.0813 0.5369,0.014 1.1129,0.27699 1.5196,0.61459 0.7921,0.65773 1.0275,1.78903 1.096,2.76643 0.063,0.90633 0.053,1.8136 0.053,2.72348 l 0,3.41408 0,1.62944 0,0.45004 c 0,0.0551 -0.017,0.14419 0.01,0.19396 0.026,0.0523 0.089,0.094 0.1317,0.13233 0.1198,0.10628 0.2507,0.20116 0.3879,0.28353 0.4381,0.26289 0.915,0.31117 1.4123,0.34526 0.2418,0.0168 0.514,0.0346 0.7526,-7.5e-4 m -14.1296,-11.68538 c 0.4441,-0.0822 0.9012,-0.10534 1.3502,-0.14876 0.3538,-0.0346 0.7139,-0.085 1.0629,0.0131 0.2586,0.0728 0.4629,0.23039 0.6829,0.37579 m 0.078,1.62953 0,6.63411 0,1.76914 0,0.47329 c 0,0.0523 -0.017,0.14083 0.012,0.18613 0.083,0.12831 0.2677,0.24113 0.391,0.32928 0.6611,0.47245 1.4895,0.43902 2.2657,0.43902 m -2.6691,-0.77596 -0.5742,0.55865 -0.4345,0.46554 m 9.2722,-1.02419 -0.6902,0.68276 -0.3262,0.35693"
               id="path4-91-9-3-8-7-3-4-2-2-8" />
            <path
               inkscape:connector-curvature="0"
               style="fill:none;stroke:#000000;stroke-width:2.92294002;stroke-miterlimit:4;stroke-dasharray:none"
               d="m 5082.0601,299.85872 c -0.1583,0.15835 -0.3179,0.37077 -0.5231,0.46937 -0.2309,0.11096 -0.4954,0.10131 -0.745,0.10131 l -1.0383,0 -4.1056,0 -1.1571,0 -0.3409,0 c -0.048,0 -0.1132,0.0115 -0.1585,-0.006 -0.1058,-0.0404 -0.2136,-0.1998 -0.2933,-0.27948 -0.03,-0.0299 -0.077,-0.0634 -0.094,-0.10302 -0.017,-0.0384 0.01,-0.10272 0.014,-0.14267 0.017,-0.12198 0.039,-0.2434 0.061,-0.36459 0.031,-0.17651 0.055,-0.35667 0.098,-0.53103 0.075,-0.30777 0.1967,-0.61362 0.3224,-0.90356 0.2925,-0.6741 0.7074,-1.33353 1.2557,-1.82953 0.4748,-0.4296 1.0429,-0.77025 1.6564,-0.96016 0.7921,-0.24513 1.7021,-0.24513 2.4967,-0.0183 0.2258,0.0644 0.4507,0.16795 0.65,0.29134 0.2547,0.15765 0.4993,0.33068 0.7047,0.55109 0.5714,0.61347 0.8422,1.44521 1.0024,2.25095 0.07,0.35216 0.1159,0.71325 0.1541,1.07001 0.01,0.0977 0.019,0.1957 0.03,0.29327 0.01,0.0408 0,0.0913 0.029,0.12444 0.043,0.0489 0.1118,0.0851 0.1638,0.12417 0.1099,0.0823 0.2193,0.16527 0.325,0.25269 0.061,0.05 0.1383,0.14559 0.2141,0.16834 0.049,0.0148 0.115,0.004 0.1664,0.004 l 0.3487,0 c 0.2951,0 0.5935,0.0114 0.8877,-0.009 0.1752,-0.012 0.3485,-0.0631 0.5231,-0.0706 m -1.7199,5.88103 c -0.4942,0.49427 -1.0032,0.95847 -1.6327,1.27718 -0.6962,0.35239 -1.4487,0.51217 -2.2193,0.59468 -0.3067,0.0329 -0.6269,0.0834 -0.9352,0.0775 -0.2813,-0.006 -0.5749,-0.0606 -0.8481,-0.12545 -0.7949,-0.18872 -1.5255,-0.61198 -2.1318,-1.1526 -0.4374,-0.39001 -0.7893,-0.86161 -1.0793,-1.36881 -0.5533,-0.96782 -0.8197,-2.11636 -0.8469,-3.22584 -0.01,-0.31189 0.04,-0.62472 0.063,-0.93526 0.024,-0.3263 0.056,-0.66093 0.116,-0.98279 0.018,-0.10233 0.012,-0.27939 0.1146,-0.3329"
               id="path4-542-0-4-8-9-7-2-5-8-5-6" />
          </g>
        </g>
      </g>
    </g>
  </g>
</svg>
