<?xml version="1.0" encoding="UTF-8" standalone="no"?>
<!-- Created with Inkscape (http://www.inkscape.org/) -->

<svg
   xmlns:dc="http://purl.org/dc/elements/1.1/"
   xmlns:cc="http://creativecommons.org/ns#"
   xmlns:rdf="http://www.w3.org/1999/02/22-rdf-syntax-ns#"
   xmlns:svg="http://www.w3.org/2000/svg"
   xmlns="http://www.w3.org/2000/svg"
   xmlns:sodipodi="http://sodipodi.sourceforge.net/DTD/sodipodi-0.dtd"
   xmlns:inkscape="http://www.inkscape.org/namespaces/inkscape"
   width="76.039505"
   height="31.808033"
   id="svg6468"
   version="1.1"
   inkscape:version="0.48.4 r9939"
   sodipodi:docname="credit.svg">
  <defs
     id="defs6470" />
  <sodipodi:namedview
     id="base"
     pagecolor="#ffffff"
     bordercolor="#666666"
     borderopacity="1.0"
     inkscape:pageopacity="0.0"
     inkscape:pageshadow="2"
     inkscape:zoom="0.35"
     inkscape:cx="287.31287"
     inkscape:cy="-145.87434"
     inkscape:document-units="px"
     inkscape:current-layer="layer1"
     showgrid="false"
     fit-margin-top="0"
     fit-margin-left="0"
     fit-margin-right="0"
     fit-margin-bottom="0"
     inkscape:window-width="486"
     inkscape:window-height="415"
     inkscape:window-x="119"
     inkscape:window-y="118"
     inkscape:window-maximized="0" />
  <metadata
     id="metadata6473">
    <rdf:RDF>
      <cc:Work
         rdf:about="">
        <dc:format>image/svg+xml</dc:format>
        <dc:type
           rdf:resource="http://purl.org/dc/dcmitype/StillImage" />
        <dc:title></dc:title>
      </cc:Work>
    </rdf:RDF>
  </metadata>
  <g
     inkscape:label="Calque 1"
     inkscape:groupmode="layer"
     id="layer1"
     transform="translate(-87.687122,-354.67982)">
    <g
       id="g5134"
       transform="translate(-8888.1512,-3282.2934)">
      <path
         sodipodi:nodetypes="cscccccccccccccccccsccccccscccccccc"
         id="path4-6-8-2-3-3-9-1-5-8-3-5-4-6-3-3-9-8-2"
         d="m 9016.5231,3661.0754 c 0.1351,0.032 0.2671,0.027 0.4059,0.027 0.2035,0 0.4145,-0.01 0.6169,0.017 0.1129,0.012 0.2406,0.036 0.3301,0.1098 0.048,0.04 0.091,0.089 0.1353,0.1327 0.017,0.017 0.039,0.049 0.065,0.053 0.062,0.01 0.1613,-0.047 0.2219,-0.065 0.166,-0.048 0.3332,-0.09 0.5032,-0.1205 0.3272,-0.059 0.6595,-0.093 0.9904,-0.1155 0.147,-0.01 0.2938,0.01 0.4383,-0.028 m -12.739,-0.01 c 0.6269,0.027 1.2243,0.1672 1.8238,0.3479 0.1586,0.048 0.3152,0.1036 0.4708,0.1605 0.063,0.023 0.1558,0.04 0.2098,0.081 0.039,0.029 0.05,0.1337 0.062,0.1794 0.042,0.1578 0.075,0.3212 0.1266,0.4763 0.045,0.1363 0.1297,0.26 0.2078,0.3788 0.1189,0.1809 0.2456,0.3562 0.3666,0.5357 0.5524,0.8196 1.1238,1.627 1.6846,2.4407 0.1627,0.2359 0.3284,0.4706 0.4873,0.7089 0.1466,0.2199 0.291,0.4516 0.467,0.6494 0.052,0.059 0.1368,0.085 0.1986,0.1335 0.1,0.079 0.1861,0.1825 0.276,0.2724 0.2046,-0.2046 0.435,-0.4005 0.6206,-0.6224 0.1216,-0.1453 0.2066,-0.3274 0.3179,-0.4816 0.3137,-0.4344 0.637,-0.8621 0.9549,-1.2934 0.4232,-0.5742 0.8485,-1.1467 1.2717,-1.7209 0.2515,-0.341 0.5401,-0.6756 0.7414,-1.0499 0.1435,-0.2667 0.171,-0.5747 0.2929,-0.8496 m -8.0687,0.2436 0.3247,-0.3247 c 0.055,-0.055 0.1086,-0.1254 0.1785,-0.1609 0.1267,-0.064 0.2892,-0.066 0.4276,-0.072 0.1796,-0.01 0.3613,-0.01 0.5411,-0.011 0.1023,-6e-4 0.207,0.01 0.3085,-0.01"
         style="fill:none;stroke:#000000;stroke-width:1.88399994;stroke-miterlimit:4;stroke-dasharray:none"
         inkscape:connector-curvature="0" />
      <g
         style="stroke-width:2.81958461;stroke-miterlimit:4;stroke-dasharray:none"
         transform="matrix(0.53197732,0,0,0.53197732,6454.8643,3088.3884)"
         id="g5977-5-0-6-2-5-8">
        <path
           inkscape:connector-curvature="0"
           style="fill:none;stroke:#000000;stroke-width:2.81958461;stroke-miterlimit:4;stroke-dasharray:none"
           d="m 4876.6859,1031.9429 c 0,0.9735 0.01,1.9441 -0.088,2.9125 -0.031,0.321 -0.07,0.6437 -0.1274,0.9613 -0.033,0.1838 -0.1025,0.3811 -0.1109,0.5671 -0.016,0.338 0,0.6804 0,1.0189 l 0,1.9993 c 0,2.1596 0.01,4.3198 0.01,6.4786 l 0,3.7873 0,1.0092 c 0,0.1011 0.039,0.3077 -0.016,0.3941 -0.081,0.1278 -0.2366,0.2405 -0.3499,0.3392 -0.2008,0.1746 -0.4181,0.3475 -0.6633,0.4563 -0.3874,0.1721 -0.834,0.1845 -1.2496,0.213 -0.2391,0.016 -0.4814,0.019 -0.7209,0.029 -0.1269,0.01 -0.2641,-0.01 -0.3748,0.068 m 0.01,-15.418 c 0.8163,0 1.6514,-0.045 2.4414,-0.272 0.1856,-0.053 0.3673,-0.1127 0.5479,-0.1803 0.059,-0.022 0.1589,-0.09 0.2211,-0.077 0.055,0.011 0.1066,0.088 0.1442,0.1256 m 0.01,0.4038 3.0663,0 c 0.708,0 1.4163,0.035 2.1147,-0.096 m -5.181,14.4087 c 0.2985,0.2984 0.6286,0.6137 1.0189,0.7895 0.2636,0.1187 0.57,0.1617 0.8555,0.1893 0.3507,0.034 0.7057,0.034 1.0573,0.059 0.1655,0.011 0.3538,0 0.4999,0.097"
           id="path4-96-2-5-2-1-5-6-0-9-3-6-2" />
        <path
           inkscape:connector-curvature="0"
           style="fill:none;stroke:#000000;stroke-width:2.81958461;stroke-miterlimit:4;stroke-dasharray:none"
           d="m 4742.6431,1039.1824 c -0.1454,0.2491 -0.2763,0.5069 -0.4212,0.7567 -0.066,0.1137 -0.1886,0.25 -0.2194,0.3783 -0.026,0.1105 0.01,0.2642 0.013,0.3783 0.01,0.2841 0,0.5691 0,0.8532 l 0,0.5796 c 0,0.091 -0.019,0.1803 0.048,0.2495 l 0.4346,-0.4346 c 0.063,-0.062 0.1297,-0.1568 0.2093,-0.1968 0.1842,-0.093 0.408,-0.1405 0.6038,-0.2057 0.075,-0.025 0.1791,-0.041 0.2414,-0.091 0.2386,-0.1899 0.4413,-0.4355 0.6681,-0.6403 0.5228,-0.4722 1.0871,-0.9238 1.7387,-1.2049 0.3827,-0.1651 0.7988,-0.2247 1.2074,-0.2904 0.2946,-0.047 0.6267,-0.1203 0.9257,-0.09 0.236,0.024 0.4886,0.1306 0.6922,0.2471 0.7274,0.416 1.1697,1.241 1.2913,2.0537 0.031,0.2091 0.05,0.4181 0.075,0.6278 0.01,0.05 0.015,0.1831 0.099,0.172 0.055,-0.01 0.1311,-0.1179 0.169,-0.1559 l 0.314,-0.3139 c 0.048,-0.048 0.098,-0.1162 0.1609,-0.144 0.1444,-0.064 0.3014,-0.1094 0.4508,-0.1592 0.068,-0.023 0.1571,-0.041 0.2174,-0.081 0.078,-0.052 0.1432,-0.1377 0.2093,-0.2037 0.1275,-0.1275 0.2561,-0.2535 0.3863,-0.378 0.3374,-0.3227 0.71,-0.6236 1.1028,-0.8759 0.3446,-0.2215 0.7182,-0.3968 1.1108,-0.5141 0.3625,-0.1082 0.7526,-0.1572 1.127,-0.2064 0.2674,-0.035 0.5672,-0.1037 0.8371,-0.077 0.4943,0.049 0.9824,0.3473 1.3018,0.7151 0.6471,0.7452 0.7116,1.8555 0.7756,2.7931 0.066,0.9612 0.064,1.9249 0.064,2.8898 l 0,3.0427 0,1.9882 0,0.5312 c 0,0.058 0.019,0.1586 -0.013,0.2093 -0.034,0.053 -0.094,0.096 -0.1399,0.1382 -0.1367,0.122 -0.2823,0.2269 -0.4428,0.3151 -0.7372,0.4048 -1.5494,0.2898 -2.3505,0.3597 m -16.3885,-12.2432 c 0.3773,-0.07 0.7697,-0.078 1.1511,-0.114 0.2827,-0.027 0.5808,-0.074 0.8613,-0.01 0.2983,0.072 0.6161,0.2832 0.8452,0.4825 m 8.2427,2.0204 c 0,0.5885 0.017,1.1757 0.024,1.7628 0.02,1.6389 0,3.2792 0,4.9182 l 0,1.7387 0,0.4507 c 0,0.055 -0.017,0.1389 0.019,0.1852 0.1,0.133 0.2548,0.2439 0.3918,0.3354 0.4549,0.3038 0.9987,0.4134 1.5374,0.437 0.3191,0.014 0.6416,-0.01 0.9579,0.033 m -11.1082,-9.8203 c 0,2.1978 0.017,4.3953 0.017,6.5925 l 0,1.7467 0,0.4669 c 0,0.053 0.017,0.1395 -0.013,0.185 -0.034,0.052 -0.101,0.099 -0.1481,0.1391 -0.1212,0.1039 -0.2497,0.2003 -0.3864,0.2828 -0.6909,0.4167 -1.5705,0.4351 -2.3505,0.367 m 11.0841,-0.7807 c -0.48,0.48 -1.0521,0.7153 -1.7226,0.7794 -0.4251,0.041 -0.8571,-0.01 -1.2798,0.05 m 11.2128,-0.8211 c 0.4899,0.4899 1.1018,0.7249 1.787,0.7721 0.2325,0.016 0.4671,0.017 0.7003,0.017 0.1598,0 0.3194,-0.012 0.4749,0.032"
           id="path4-88-9-0-5-7-1-6-0-1" />
        <path
           inkscape:connector-curvature="0"
           style="fill:none;stroke:#000000;stroke-width:2.81958461;stroke-miterlimit:4;stroke-dasharray:none"
           d="m 4772.1938,1052.2055 0.2172,-0.469 0.3748,-0.6765 c -0.1463,0 -0.3005,-0.014 -0.4459,0 -0.158,0.017 -0.321,0.077 -0.4767,0.1108 -0.1075,0.023 -0.2267,0.029 -0.3306,0.065 -0.1295,0.045 -0.2498,0.1347 -0.3766,0.1902 -0.2577,0.1126 -0.5258,0.1968 -0.7995,0.26 -0.3812,0.088 -0.7791,0.1297 -1.1687,0.1571 -0.179,0.012 -0.3664,0.045 -0.5457,0.037 -1.1994,-0.053 -2.3607,-0.6161 -3.1882,-1.4766 -0.4476,-0.4655 -0.7804,-1.0258 -1.0414,-1.6132 -0.4134,-0.9297 -0.6349,-1.974 -0.6598,-2.9905 -0.01,-0.419 0.062,-0.852 0.1063,-1.2684 0.069,-0.6487 0.1906,-1.287 0.397,-1.9066 0.3892,-1.1673 1.1241,-2.2973 2.2105,-2.9223 0.6876,-0.3957 1.4325,-0.5257 2.214,-0.5599 0.9078,-0.04 1.7956,0.2211 2.5447,0.7317 0.2081,0.1418 0.3988,0.3067 0.5839,0.4771 0.068,0.063 0.1261,0.1455 0.2015,0.199 0.066,0.047 0.1624,0.068 0.237,0.099 0.1546,0.063 0.3088,0.1287 0.4613,0.1974 0.097,0.044 0.2482,0.1342 0.2875,0.2408 0.019,0.051 0,0.1299 0,0.1845 l 0,0.415 0,1.407 0,4.7663 0,2.0834 c 0,0.1797 0.01,0.3583 0.01,0.5382 0,0.059 -0.011,0.175 0.025,0.2229 0.054,0.07 0.1419,0.1206 0.2128,0.1722 0.5783,0.4203 1.3556,0.2388 2.0141,0.175 0.2718,-0.026 0.5543,-0.028 0.8226,-0.078 m -2.3755,-11.7468 c -0.01,0.1301 -0.044,0.2651 -0.072,0.3921 -0.046,0.2103 -0.089,0.421 -0.1406,0.6303 -0.032,0.1291 -0.04,0.3062 -0.104,0.4229 -0.029,0.053 -0.088,0.096 -0.1296,0.1383 l -0.2613,0.2614 m 0.023,9.6251 -0.2383,0.3613"
           id="path4-60-1-46-6-3-6-4-9-6" />
        <path
           inkscape:connector-curvature="0"
           style="fill:none;stroke:#000000;stroke-width:2.81958461;stroke-miterlimit:4;stroke-dasharray:none"
           d="m 4778.8753,1039.3037 c 0.1343,-10e-4 0.2694,-0.037 0.4031,-0.05 0.2512,-0.024 0.5036,-0.039 0.7549,-0.063 0.2296,-0.022 0.4635,-0.06 0.6948,-0.05 0.3033,0.013 0.6054,0.1172 0.8578,0.2832 0.117,0.077 0.3042,0.1712 0.3809,0.2912 0.029,0.046 0.01,0.1193 0.018,0.1715 0.026,0.2001 0.01,0.4158 0.01,0.6176 l 0,2.0673 0,4.0917 c 0,0.915 -0.015,1.832 0.025,2.745 0.025,0.5779 0.089,1.1653 0.279,1.7155 0.1222,0.3531 0.2998,0.6846 0.6134,0.9027 0.1093,0.076 0.2525,0.1522 0.386,0.1717 0.1867,0.027 0.4069,-0.033 0.5919,-0.06 0.5172,-0.074 1.0605,-0.1564 1.5526,-0.3364 0.5115,-0.1871 0.9684,-0.4821 1.3896,-0.8239"
           id="path4-679-0-7-9-6-9-2-5-5" />
        <path
           inkscape:connector-curvature="0"
           style="fill:none;stroke:#000000;stroke-width:2.81958461;stroke-miterlimit:4;stroke-dasharray:none"
           d="m 4789.4415,1032.7211 c 0.7445,-0.011 1.5089,-0.2069 2.2096,0.1365 0.1239,0.063 0.2342,0.1354 0.3507,0.21 0.052,0.032 0.1491,0.084 0.1827,0.1439 0.021,0.032 0.01,0.084 0.01,0.1197 0,0.074 0.01,0.1575 0.01,0.2362 0,0.2835 0.01,0.5691 0.01,0.8537 l 0,3.1315 c 0,3.8475 0,7.6953 0,11.5429 4e-4,0.6447 0.031,1.3168 0.1964,1.9429 0.084,0.3328 0.2068,0.6709 0.4536,0.9208 0.1302,0.1323 0.3203,0.2646 0.5082,0.293 0.084,0.011 0.1712,-0.01 0.251,-0.021 0.1606,-0.021 0.3202,-0.042 0.4798,-0.073 0.3161,-0.053 0.6448,-0.105 0.9524,-0.1932 0.5177,-0.1502 1.0501,-0.4316 1.4477,-0.798"
           id="path4-4-1-7-6-4-0-8-0" />
        <path
           inkscape:connector-curvature="0"
           style="fill:none;stroke:#000000;stroke-width:2.81958461;stroke-miterlimit:4;stroke-dasharray:none"
           d="m 4800.0801,1039.3037 c 0.1343,-10e-4 0.2694,-0.037 0.4031,-0.05 0.2512,-0.024 0.5036,-0.039 0.7549,-0.063 0.2296,-0.022 0.4635,-0.06 0.6948,-0.05 0.3033,0.013 0.6054,0.1172 0.8578,0.2832 0.117,0.077 0.3042,0.1712 0.3809,0.2912 0.029,0.046 0.01,0.1193 0.018,0.1715 0.026,0.2001 0.01,0.4158 0.01,0.6176 l 0,2.0673 0,4.0917 c 0,0.915 -0.015,1.832 0.025,2.745 0.025,0.5779 0.089,1.1653 0.279,1.7155 0.1222,0.3531 0.2998,0.6846 0.6134,0.9027 0.1093,0.076 0.2525,0.1522 0.386,0.1717 0.1867,0.027 0.4069,-0.033 0.5919,-0.06 0.5172,-0.074 1.0605,-0.1564 1.5526,-0.3364 0.5115,-0.1871 0.9684,-0.4821 1.3896,-0.8239"
           id="path4-679-0-7-6-5-6-4-9-5-6" />
        <path
           inkscape:connector-curvature="0"
           style="fill:none;stroke:#000000;stroke-width:2.81958461;stroke-miterlimit:4;stroke-dasharray:none"
           d="m 4813.9681,1039.1394 c -0.1588,0.2978 -0.3154,0.592 -0.4985,0.8767 -0.066,0.1029 -0.1307,0.2066 -0.1953,0.3105 -0.03,0.049 -0.077,0.1006 -0.094,0.1551 -0.023,0.075 0,0.1715 0,0.2483 0,0.2093 0.01,0.4187 0.01,0.6285 l 0,0.5664 c 0,0.044 -0.02,0.1647 0.047,0.1736 0.044,0.01 0.1186,-0.098 0.1474,-0.127 0.1279,-0.1279 0.2516,-0.2834 0.3958,-0.3925 0.066,-0.05 0.17,-0.07 0.2483,-0.096 0.2122,-0.072 0.459,-0.1207 0.6595,-0.2192 0.075,-0.036 0.1325,-0.1196 0.194,-0.1753 0.1547,-0.14 0.308,-0.2813 0.4655,-0.418 0.483,-0.4196 1.0335,-0.8024 1.6449,-1.0069 0.3284,-0.1099 0.6672,-0.1588 1.0088,-0.2079 0.2697,-0.039 0.5575,-0.089 0.8302,-0.081 0.5369,0.014 1.1129,0.277 1.5196,0.6146 0.7921,0.6577 1.0275,1.789 1.096,2.7664 0.063,0.9064 0.053,1.8136 0.053,2.7235 l 0,3.4141 0,1.6294 0,0.4501 c 0,0.055 -0.017,0.1442 0.01,0.1939 0.026,0.052 0.089,0.094 0.1317,0.1324 0.1198,0.1062 0.2507,0.2011 0.3879,0.2835 0.4381,0.2629 0.915,0.3112 1.4123,0.3453 0.2418,0.017 0.514,0.035 0.7526,-8e-4 m -14.1296,-11.6854 c 0.4441,-0.082 0.9012,-0.1053 1.3502,-0.1487 0.3538,-0.035 0.7139,-0.085 1.0629,0.013 0.2586,0.073 0.4629,0.2304 0.6829,0.3758 m 0.078,1.6295 0,6.6341 0,1.7691 0,0.4733 c 0,0.052 -0.017,0.1409 0.012,0.1862 0.083,0.1283 0.2677,0.2411 0.391,0.3292 0.6611,0.4725 1.4895,0.4391 2.2657,0.4391 m -2.6691,-0.776 -0.5742,0.5586 -0.4345,0.4656 m 9.2722,-1.0242 -0.6902,0.6828 -0.3262,0.3569"
           id="path4-91-9-3-8-8-3-8-9-5-4-9-3" />
        <path
           inkscape:connector-curvature="0"
           style="fill:none;stroke:#000000;stroke-width:2.81958461;stroke-miterlimit:4;stroke-dasharray:none"
           d="m 4836.4174,1050.2615 c -0.2155,0 -0.4605,-0.033 -0.6728,0 -0.1454,0.024 -0.2952,0.095 -0.4358,0.1401 -0.085,0.027 -0.1882,0.04 -0.2676,0.082 -0.051,0.027 -0.094,0.08 -0.1376,0.118 -0.084,0.072 -0.1717,0.1401 -0.26,0.2071 -0.2159,0.164 -0.4529,0.3 -0.6957,0.4198 -0.5378,0.2656 -1.098,0.4077 -1.6896,0.4848 -0.253,0.033 -0.517,0.072 -0.7722,0.072 -0.4028,0 -0.8384,-0.1481 -1.1927,-0.3321 -0.6268,-0.3258 -1.1747,-0.8381 -1.5871,-1.4085 -0.8243,-1.1403 -1.2758,-2.529 -1.3104,-3.9373 -0.01,-0.2792 0.032,-0.5637 0.06,-0.841 0.054,-0.5408 0.1264,-1.0774 0.2585,-1.6055 0.1862,-0.745 0.4648,-1.4981 0.8923,-2.1407 0.7142,-1.0732 1.7942,-1.9727 3.0631,-2.2899 0.5223,-0.1307 1.048,-0.1633 1.5826,-0.1267 0.5681,0.039 1.1271,0.1767 1.6208,0.4705 0.2713,0.1614 0.4931,0.3654 0.734,0.5654 0.053,0.044 0.1225,0.05 0.1758,0.091 0.1027,0.079 0.1911,0.1881 0.2829,0.2799 l 0.237,0.237 c 0.036,0.036 0.091,0.076 0.1145,0.1223 0.016,0.032 0.01,0.079 0.01,0.1147 l 0,0.2447 0,0.8869 0,3.1957 0,3.6927 c 0,0.8155 0.013,1.6328 -0.023,2.4465 -0.07,1.5875 -0.1227,3.2209 -0.7042,4.7248 -0.2494,0.6451 -0.6025,1.2618 -1.1387,1.7103 -0.6128,0.5127 -1.3406,0.7367 -2.1254,0.7904 -0.7791,0.053 -1.544,-0.063 -2.2324,-0.4538 -0.4722,-0.2678 -0.8692,-0.6324 -1.2172,-1.0461 -0.1976,-0.2346 -0.3569,-0.5059 -0.5718,-0.7255 m 8.7004,-17.0798 c -0.079,0.2425 -0.1502,0.4865 -0.2113,0.734 -0.026,0.1069 -0.029,0.2651 -0.086,0.3594 -0.031,0.052 -0.088,0.095 -0.131,0.1376 l -0.26,0.2599"
           id="path4-7-8-6-0-0-0-3-6" />
        <path
           inkscape:connector-curvature="0"
           style="fill:none;stroke:#000000;stroke-width:2.81958461;stroke-miterlimit:4;stroke-dasharray:none"
           d="m 4840.5931,1032.7211 c 0.7445,-0.011 1.5089,-0.2069 2.2096,0.1365 0.1239,0.063 0.2342,0.1354 0.3507,0.21 0.053,0.032 0.1491,0.084 0.1827,0.1439 0.021,0.032 0.01,0.084 0.01,0.1197 0,0.074 0.01,0.1575 0.01,0.2362 0,0.2835 0.01,0.5691 0.01,0.8537 l 0,3.1315 c 0,3.8475 0,7.6953 0,11.5429 4e-4,0.6447 0.032,1.3168 0.1964,1.9429 0.084,0.3328 0.2068,0.6709 0.4536,0.9208 0.1302,0.1323 0.3203,0.2646 0.5082,0.293 0.084,0.011 0.1712,-0.01 0.251,-0.021 0.1606,-0.021 0.3202,-0.042 0.4798,-0.073 0.3161,-0.053 0.6448,-0.105 0.9524,-0.1932 0.5177,-0.1502 1.0501,-0.4316 1.4477,-0.798"
           id="path4-4-0-6-9-0-1-5-0" />
        <path
           inkscape:connector-curvature="0"
           style="fill:none;stroke:#000000;stroke-width:2.81958461;stroke-miterlimit:4;stroke-dasharray:none"
           d="m 4850.7317,1039.3037 c 0.1343,-10e-4 0.2694,-0.037 0.4031,-0.05 0.2512,-0.024 0.5036,-0.039 0.7549,-0.063 0.2296,-0.022 0.4635,-0.06 0.6948,-0.05 0.3033,0.013 0.6054,0.1172 0.8578,0.2832 0.117,0.077 0.3042,0.1712 0.3809,0.2912 0.029,0.046 0.01,0.1193 0.018,0.1715 0.026,0.2001 0.01,0.4158 0.01,0.6176 l 0,2.0673 0,4.0917 c 0,0.915 -0.015,1.832 0.025,2.745 0.025,0.5779 0.089,1.1653 0.279,1.7155 0.1222,0.3531 0.2998,0.6846 0.6134,0.9027 0.1093,0.076 0.2525,0.1522 0.386,0.1717 0.1867,0.027 0.4069,-0.033 0.5919,-0.06 0.5172,-0.074 1.0605,-0.1564 1.5526,-0.3364 0.5115,-0.1871 0.9684,-0.4821 1.3896,-0.8239"
           id="path4-679-0-7-6-0-3-1-0-9-6-1" />
        <path
           inkscape:connector-curvature="0"
           style="fill:none;stroke:#000000;stroke-width:2.81958461;stroke-miterlimit:4;stroke-dasharray:none"
           d="m 4861.7456,1048.5286 c 0.053,0.2876 0.067,0.5888 0.1064,0.8797 0.06,0.4477 0.1437,0.8904 0.2259,1.3344 0.037,0.1986 0.088,0.3933 0.1364,0.589 0.014,0.056 0.022,0.1779 0.065,0.2174 0.032,0.03 0.097,0.042 0.1375,0.056 0.1084,0.039 0.2173,0.078 0.328,0.1098 0.2978,0.087 0.5782,0.2177 0.8722,0.3145 0.4284,0.1409 0.8568,0.2041 1.3047,0.2347 0.5586,0.038 1.1247,0 1.6625,-0.1648 0.2623,-0.081 0.5124,-0.203 0.7529,-0.3339 0.4165,-0.2268 0.8128,-0.5275 1.0784,-0.9258 0.2035,-0.3052 0.2868,-0.6603 0.362,-1.0139 0.064,-0.3031 0.1289,-0.6085 0.1621,-0.917 0.018,-0.1662 -0.033,-0.3603 -0.07,-0.5218 -0.1605,-0.6996 -0.6252,-1.2332 -1.1816,-1.6616 -0.7203,-0.5547 -1.5626,-0.9182 -2.3931,-1.2726 -0.3779,-0.1612 -0.7636,-0.3046 -1.1257,-0.5004 -0.4048,-0.2189 -0.8138,-0.4754 -1.1073,-0.8372 -0.2103,-0.2592 -0.3517,-0.576 -0.4189,-0.9021 -0.033,-0.1589 -0.066,-0.337 -0.062,-0.4995 0.01,-0.2001 0.053,-0.4079 0.091,-0.6039 0.098,-0.5065 0.2113,-1.0153 0.5462,-1.4239 0.7289,-0.8893 1.9828,-1.1597 3.0755,-1.0161 0.4305,0.057 0.8445,0.1774 1.2227,0.3964 0.271,0.157 0.525,0.3672 0.6826,0.6421 0.075,0.131 0.1172,0.2748 0.1648,0.4174 0.075,0.2264 0.144,0.4552 0.2046,0.6859 0.034,0.1312 0.057,0.2634 0.111,0.3877"
           id="path4-1-4-5-6-4-3-4-4-0" />
      </g>
    </g>
  </g>
</svg>
