<?xml version="1.0" encoding="UTF-8" standalone="no"?>
<!-- Created with Inkscape (http://www.inkscape.org/) -->

<svg
   xmlns:dc="http://purl.org/dc/elements/1.1/"
   xmlns:cc="http://creativecommons.org/ns#"
   xmlns:rdf="http://www.w3.org/1999/02/22-rdf-syntax-ns#"
   xmlns:svg="http://www.w3.org/2000/svg"
   xmlns="http://www.w3.org/2000/svg"
   xmlns:sodipodi="http://sodipodi.sourceforge.net/DTD/sodipodi-0.dtd"
   xmlns:inkscape="http://www.inkscape.org/namespaces/inkscape"
   width="74.848183"
   height="31.411449"
   id="svg6468"
   version="1.1"
   inkscape:version="0.48.4 r9939"
   sodipodi:docname="heure.svg">
  <defs
     id="defs6470" />
  <sodipodi:namedview
     id="base"
     pagecolor="#ffffff"
     bordercolor="#666666"
     borderopacity="1.0"
     inkscape:pageopacity="0.0"
     inkscape:pageshadow="2"
     inkscape:zoom="0.35"
     inkscape:cx="-369.57615"
     inkscape:cy="-83.181137"
     inkscape:document-units="px"
     inkscape:current-layer="layer1"
     showgrid="false"
     fit-margin-top="0"
     fit-margin-left="0"
     fit-margin-right="0"
     fit-margin-bottom="0"
     inkscape:window-width="486"
     inkscape:window-height="415"
     inkscape:window-x="119"
     inkscape:window-y="118"
     inkscape:window-maximized="0" />
  <metadata
     id="metadata6473">
    <rdf:RDF>
      <cc:Work
         rdf:about="">
        <dc:format>image/svg+xml</dc:format>
        <dc:type
           rdf:resource="http://purl.org/dc/dcmitype/StillImage" />
        <dc:title></dc:title>
      </cc:Work>
    </rdf:RDF>
  </metadata>
  <g
     inkscape:label="Calque 1"
     inkscape:groupmode="layer"
     id="layer1"
     transform="translate(-744.57615,-417.7696)">
    <g
       id="g5149"
       transform="translate(-7835.4972,-3216.7252)">
      <path
         sodipodi:nodetypes="cscccccccccccccccccsccccccscccccccc"
         id="path4-6-8-2-3-3-9-1-5-8-3-3-4-9-4-2-4"
         d="m 8619.7901,3658.2183 c 0.135,0.032 0.2671,0.027 0.4059,0.027 0.2035,0 0.4145,-0.01 0.6169,0.017 0.1129,0.012 0.2406,0.036 0.3301,0.1098 0.048,0.04 0.091,0.089 0.1353,0.1327 0.017,0.017 0.039,0.049 0.065,0.053 0.062,0.01 0.1613,-0.047 0.2219,-0.065 0.166,-0.048 0.3332,-0.09 0.5032,-0.1205 0.3272,-0.059 0.6595,-0.093 0.9904,-0.1155 0.147,-0.01 0.2938,0.01 0.4383,-0.028 m -12.739,-0.01 c 0.6269,0.027 1.2243,0.1672 1.8238,0.3479 0.1586,0.048 0.3152,0.1036 0.4708,0.1605 0.063,0.023 0.1558,0.04 0.2098,0.081 0.039,0.029 0.05,0.1337 0.062,0.1794 0.042,0.1578 0.075,0.3212 0.1266,0.4763 0.045,0.1363 0.1297,0.26 0.2078,0.3788 0.1189,0.1809 0.2456,0.3562 0.3666,0.5357 0.5524,0.8196 1.1238,1.627 1.6846,2.4407 0.1627,0.2359 0.3284,0.4706 0.4873,0.7089 0.1466,0.2199 0.291,0.4516 0.467,0.6494 0.052,0.059 0.1368,0.085 0.1986,0.1335 0.1,0.079 0.1861,0.1825 0.276,0.2724 0.2046,-0.2046 0.435,-0.4005 0.6206,-0.6224 0.1216,-0.1453 0.2066,-0.3274 0.3179,-0.4816 0.3137,-0.4344 0.637,-0.8621 0.9549,-1.2934 0.4232,-0.5742 0.8485,-1.1467 1.2717,-1.7209 0.2515,-0.341 0.5401,-0.6756 0.7414,-1.0499 0.1435,-0.2667 0.171,-0.5747 0.2929,-0.8496 m -8.0687,0.2436 0.3247,-0.3247 c 0.055,-0.055 0.1086,-0.1254 0.1785,-0.1609 0.1267,-0.064 0.2892,-0.066 0.4276,-0.072 0.1796,-0.01 0.3613,-0.01 0.5411,-0.011 0.1023,-6e-4 0.207,0.01 0.3085,-0.01"
         style="fill:none;stroke:#000000;stroke-width:1.88399994;stroke-miterlimit:4;stroke-dasharray:none"
         inkscape:connector-curvature="0" />
      <g
         transform="translate(4294.1671,2596.1952)"
         id="g5990-3-4-3-4-8-4">
        <path
           inkscape:connector-curvature="0"
           style="fill:none;stroke:#000000;stroke-width:1.5;stroke-miterlimit:4;stroke-dasharray:none"
           d="m 4287.3827,1047.8663 0,-3.7012 0,-0.9648 0,-0.2473 c 0,-0.029 -0.01,-0.077 0.01,-0.1013 0.038,-0.05 0.092,-0.093 0.1365,-0.1379 0.086,-0.086 0.1694,-0.1729 0.2635,-0.248 0.059,-0.047 0.1109,-0.1031 0.1703,-0.15 0.1148,-0.091 0.242,-0.1679 0.377,-0.2246 0.2123,-0.089 0.4337,-0.1225 0.6608,-0.1442 0.8587,-0.082 1.71,0.2904 2.2398,0.9736 0.4605,0.594 0.6963,1.2984 0.785,2.0391 0.027,0.229 0.063,0.4665 0.06,0.6972 0,0.1063 -0.017,0.2145 -0.028,0.3203 -0.046,0.4578 -0.1563,0.9047 -0.3539,1.3216 -0.2871,0.6057 -0.848,1.1989 -1.5318,1.3231 -0.205,0.037 -0.4027,0.016 -0.6081,-0.01 -0.18,-0.022 -0.3614,-0.047 -0.5351,-0.1003 -0.2265,-0.07 -0.4493,-0.1916 -0.6446,-0.3243 -0.067,-0.045 -0.1311,-0.095 -0.1946,-0.1456 -0.022,-0.017 -0.041,-0.041 -0.065,-0.055 -0.029,-0.017 -0.069,-0.021 -0.1014,-0.03 -0.064,-0.018 -0.1276,-0.037 -0.1905,-0.058 -0.1115,-0.037 -0.2198,-0.03 -0.3365,-0.03 -0.021,0 -0.1008,-0.012 -0.111,0.01 -0.01,0.019 0,0.055 0,0.076 l 0,0.1864 0,0.6689 0,2.3837 0,0.5189 c 0,0.097 0.01,0.1957 -0.01,0.2919 0,0.053 0,0.1095 0,0.1622 -1e-4,0.026 0,0.059 -0.013,0.08 -0.049,0.057 -0.1366,0.1027 -0.2015,0.1392 -0.1412,0.08 -0.2918,0.1332 -0.454,0.1487 -0.2617,0.025 -0.5287,-0.036 -0.7905,-0.036 m 1.0378,-10.5643 0.052,0.1499 0.1166,0.369 0.052,0.1864 0.068,0.073 0.1419,0.1419"
           id="path4-94-8-8-3-0-0-2" />
        <path
           inkscape:connector-curvature="0"
           style="fill:none;stroke:#000000;stroke-width:1.5;stroke-miterlimit:4;stroke-dasharray:none"
           d="m 4298.2046,1048.5372 0.1097,-0.2369 0.1894,-0.3418 c -0.074,0 -0.1518,-0.01 -0.2253,0 -0.08,0.01 -0.1622,0.039 -0.2408,0.056 -0.054,0.012 -0.1146,0.015 -0.1671,0.033 -0.065,0.023 -0.1262,0.068 -0.1903,0.096 -0.1302,0.057 -0.2656,0.099 -0.4039,0.1314 -0.1926,0.044 -0.3936,0.065 -0.5905,0.079 -0.09,0.01 -0.1851,0.023 -0.2757,0.019 -0.606,-0.027 -1.1927,-0.3113 -1.6108,-0.746 -0.2262,-0.2352 -0.3943,-0.5183 -0.5262,-0.8151 -0.2089,-0.4697 -0.3208,-0.9973 -0.3334,-1.5109 -0.01,-0.2117 0.031,-0.4305 0.054,-0.6409 0.035,-0.3278 0.096,-0.6503 0.2005,-0.9633 0.1967,-0.5898 0.568,-1.1607 1.1169,-1.4765 0.3474,-0.1999 0.7238,-0.2656 1.1186,-0.2829 0.4587,-0.02 0.9072,0.1117 1.2857,0.3697 0.1052,0.072 0.2015,0.155 0.295,0.2411 0.034,0.032 0.064,0.074 0.1018,0.1005 0.033,0.024 0.082,0.034 0.1198,0.05 0.078,0.032 0.156,0.065 0.2331,0.1 0.049,0.022 0.1254,0.068 0.1452,0.1217 0.01,0.026 0,0.066 0,0.093 l 0,0.2097 0,0.7108 0,2.4082 0,1.0527 c 0,0.091 0.01,0.181 0.01,0.2719 0,0.03 -0.01,0.088 0.013,0.1126 0.027,0.035 0.072,0.061 0.1075,0.087 0.2922,0.2124 0.6849,0.1207 1.0176,0.088 0.1374,-0.013 0.2801,-0.014 0.4156,-0.04 m -1.2002,-5.9351 c -0.01,0.066 -0.022,0.134 -0.036,0.1981 -0.023,0.1063 -0.045,0.2128 -0.071,0.3185 -0.016,0.065 -0.02,0.1547 -0.052,0.2137 -0.015,0.027 -0.044,0.049 -0.065,0.07 l -0.132,0.132 m 0.012,4.8631 -0.1204,0.1826"
           id="path4-60-1-4-6-1-5-7-1-5" />
        <path
           inkscape:connector-curvature="0"
           style="fill:none;stroke:#000000;stroke-width:1.5;stroke-miterlimit:4;stroke-dasharray:none"
           d="m 4301.7429,1041.9354 c 0.3918,0.05 0.8256,-0.063 1.1988,0.1058 0.1428,0.065 0.2629,0.1816 0.3722,0.291 l 0.1841,-0.1841 c 0.024,-0.024 0.054,-0.068 0.086,-0.079 0.02,-0.01 0.048,0 0.07,0 l 0.1473,0 0.4992,0 1.6938,0 c 0.2289,0 0.4512,0 0.6751,0.06 0.051,0.012 0.101,0.025 0.1513,0.04 0.019,0.01 0.048,0.01 0.063,0.022 0.025,0.022 0.039,0.088 0.05,0.1192 0.032,0.093 0.066,0.1846 0.095,0.2783 0.093,0.2971 0.1442,0.602 0.1953,0.9082 0.014,0.084 0.018,0.1701 0.034,0.2537 m -3.944,-1.4156 0,4.2795 0,1.1129 0,0.2864 c 0,0.032 -0.011,0.088 0.01,0.1145 0.033,0.044 0.081,0.082 0.1215,0.119 0.092,0.083 0.1958,0.1608 0.3109,0.208 0.1903,0.078 0.4283,0.07 0.6301,0.07 0.092,0 0.183,0 0.2741,0 0.073,0 0.1462,-0.01 0.2169,0.012 m -1.5629,-0.4214 c -0.1286,0.1286 -0.2659,0.2584 -0.4378,0.3265 -0.1518,0.06 -0.3221,0.067 -0.4828,0.07 -0.2239,0.01 -0.4537,-0.01 -0.6751,0.024"
           id="path4-009-5-1-9-7-1-4-6-6" />
        <path
           inkscape:connector-curvature="0"
           style="fill:none;stroke:#000000;stroke-width:1.5;stroke-miterlimit:4;stroke-dasharray:none"
           d="m 4310.796,1038.2996 c 0,0.4918 0.01,0.9822 -0.044,1.4715 -0.016,0.1622 -0.035,0.3252 -0.064,0.4857 -0.017,0.093 -0.052,0.1925 -0.056,0.2865 -0.01,0.1708 0,0.3438 0,0.5148 l 0,1.0102 c 0,1.0911 0.01,2.1826 0.01,3.2733 l 0,1.9135 0,0.5099 c 0,0.051 0.02,0.1555 -0.01,0.1991 -0.041,0.065 -0.1195,0.1215 -0.1767,0.1714 -0.1015,0.088 -0.2113,0.1756 -0.3352,0.2306 -0.1957,0.087 -0.4213,0.093 -0.6313,0.1075 -0.1208,0.01 -0.2433,0.01 -0.3643,0.015 -0.064,0 -0.1334,0 -0.1893,0.034 m 0.01,-7.7899 c 0.4125,0 0.8344,-0.023 1.2335,-0.1374 0.094,-0.027 0.1856,-0.057 0.2769,-0.091 0.03,-0.011 0.08,-0.045 0.1117,-0.039 0.028,0.01 0.054,0.044 0.073,0.063 m 0.01,0.204 1.5492,0 c 0.3577,0 0.7156,0.018 1.0685,-0.049 m -2.6177,7.28 c 0.1508,0.1508 0.3176,0.3101 0.5148,0.3989 0.1332,0.06 0.288,0.082 0.4322,0.096 0.1772,0.017 0.3566,0.017 0.5342,0.03 0.084,0.01 0.1788,0 0.2526,0.049"
           id="path4-96-2-5-2-3-8-0-6-2-5-0" />
        <path
           inkscape:connector-curvature="0"
           style="fill:none;stroke:#000000;stroke-width:1.5;stroke-miterlimit:4;stroke-dasharray:none"
           d="m 4318.6681,1044.3366 c -0.08,0.08 -0.1607,0.1874 -0.2643,0.2372 -0.1167,0.056 -0.2503,0.051 -0.3764,0.051 l -0.5246,0 -2.0744,0 -0.5846,0 -0.1722,0 c -0.024,0 -0.057,0.01 -0.08,0 -0.054,-0.02 -0.108,-0.1009 -0.1482,-0.1412 -0.015,-0.015 -0.039,-0.032 -0.047,-0.052 -0.01,-0.019 0.01,-0.052 0.01,-0.072 0.01,-0.062 0.02,-0.123 0.031,-0.1842 0.016,-0.089 0.028,-0.1802 0.05,-0.2683 0.038,-0.1555 0.099,-0.31 0.1629,-0.4565 0.1478,-0.3406 0.3574,-0.6738 0.6344,-0.9244 0.2399,-0.2171 0.527,-0.3892 0.8369,-0.4851 0.4002,-0.1239 0.86,-0.1239 1.2615,-0.01 0.1141,0.033 0.2277,0.085 0.3284,0.1472 0.1287,0.08 0.2523,0.1671 0.356,0.2785 0.2887,0.3099 0.4256,0.7302 0.5065,1.1373 0.035,0.1779 0.059,0.3603 0.078,0.5406 0,0.049 0.01,0.099 0.015,0.1481 0.01,0.021 0,0.046 0.015,0.063 0.022,0.025 0.057,0.043 0.083,0.063 0.056,0.042 0.1108,0.084 0.1642,0.1276 0.031,0.025 0.07,0.074 0.1082,0.085 0.025,0.01 0.058,0 0.084,0 l 0.1762,0 c 0.1491,0 0.2998,0.01 0.4485,0 0.088,-0.01 0.176,-0.032 0.2643,-0.036 m -0.869,2.9714 c -0.2497,0.2497 -0.5069,0.4842 -0.8249,0.6453 -0.3518,0.178 -0.732,0.2587 -1.1213,0.3004 -0.155,0.017 -0.3168,0.042 -0.4725,0.039 -0.1422,0 -0.2905,-0.031 -0.4285,-0.063 -0.4017,-0.095 -0.7708,-0.3092 -1.0771,-0.5824 -0.221,-0.197 -0.3988,-0.4353 -0.5453,-0.6915 -0.2796,-0.489 -0.4142,-1.0693 -0.4279,-1.6299 -0.01,-0.1576 0.02,-0.3156 0.032,-0.4725 0.012,-0.1649 0.028,-0.334 0.059,-0.4966 0.01,-0.052 0.01,-0.1411 0.058,-0.1682"
           id="path4-542-0-4-8-9-0-5-2-2-5-9-8-1" />
        <path
           inkscape:connector-curvature="0"
           style="fill:none;stroke:#000000;stroke-width:1.5;stroke-miterlimit:4;stroke-dasharray:none"
           d="m 4322.9975,1041.9356 c -0.08,0.1505 -0.1593,0.2991 -0.2518,0.443 -0.033,0.052 -0.066,0.1043 -0.099,0.1568 -0.015,0.025 -0.039,0.051 -0.047,0.078 -0.012,0.038 0,0.087 0,0.1254 0,0.1058 0.01,0.2116 0.01,0.3176 l 0,0.2862 c 0,0.022 -0.01,0.083 0.024,0.088 0.022,0 0.06,-0.05 0.074,-0.064 0.065,-0.065 0.1271,-0.1432 0.2,-0.1983 0.033,-0.025 0.086,-0.035 0.1254,-0.049 0.1072,-0.036 0.2319,-0.061 0.3332,-0.1107 0.038,-0.018 0.067,-0.061 0.098,-0.089 0.078,-0.071 0.1557,-0.1421 0.2352,-0.2112 0.2441,-0.212 0.5222,-0.4054 0.8311,-0.5087 0.1659,-0.055 0.3371,-0.08 0.5097,-0.105 0.1363,-0.02 0.2817,-0.045 0.4195,-0.041 0.2712,0.01 0.5623,0.1399 0.7677,0.3105 0.4002,0.3323 0.5192,0.9039 0.5538,1.3977 0.032,0.458 0.027,0.9164 0.027,1.3761 l 0,1.7249 0,0.8233 0,0.2274 c 0,0.028 -0.01,0.073 0.01,0.098 0.013,0.026 0.045,0.048 0.067,0.067 0.061,0.054 0.1266,0.1017 0.196,0.1433 0.2213,0.1328 0.4623,0.1572 0.7135,0.1744 0.1222,0.01 0.2597,0.017 0.3803,-3e-4 m -7.139,-5.9041 c 0.2244,-0.041 0.4553,-0.053 0.6822,-0.075 0.1787,-0.017 0.3607,-0.043 0.537,0.01 0.1307,0.037 0.2339,0.1164 0.3451,0.1899 m 0.039,0.8233 0,3.3519 0,0.8938 0,0.2391 c 0,0.026 -0.01,0.071 0.01,0.094 0.042,0.065 0.1353,0.1218 0.1976,0.1664 0.334,0.2387 0.7525,0.2218 1.1447,0.2218 m -1.3485,-0.3921 -0.2902,0.2823 -0.2195,0.2352 m 4.6848,-0.5175 -0.3487,0.345 -0.1649,0.1803"
           id="path4-91-95-8-8-8-4-0-0-5" />
        <path
           inkscape:connector-curvature="0"
           style="fill:none;stroke:#000000;stroke-width:1.5;stroke-miterlimit:4;stroke-dasharray:none"
           d="m 4333.7164,1048.5372 0.1097,-0.2369 0.1894,-0.3418 c -0.074,0 -0.1518,-0.01 -0.2253,0 -0.08,0.01 -0.1622,0.039 -0.2409,0.056 -0.054,0.012 -0.1145,0.015 -0.167,0.033 -0.065,0.023 -0.1262,0.068 -0.1903,0.096 -0.1302,0.057 -0.2656,0.099 -0.4039,0.1314 -0.1926,0.044 -0.3936,0.065 -0.5905,0.079 -0.09,0.01 -0.1851,0.023 -0.2757,0.019 -0.606,-0.027 -1.1927,-0.3113 -1.6108,-0.746 -0.2262,-0.2352 -0.3943,-0.5183 -0.5262,-0.8151 -0.2089,-0.4697 -0.3208,-0.9973 -0.3334,-1.5109 -0.01,-0.2117 0.031,-0.4305 0.054,-0.6409 0.035,-0.3278 0.096,-0.6503 0.2006,-0.9633 0.1967,-0.5898 0.568,-1.1607 1.1169,-1.4765 0.3474,-0.1999 0.7237,-0.2656 1.1186,-0.2829 0.4587,-0.02 0.9072,0.1117 1.2857,0.3697 0.1051,0.072 0.2015,0.155 0.295,0.2411 0.034,0.032 0.064,0.074 0.1018,0.1005 0.033,0.024 0.082,0.034 0.1198,0.05 0.078,0.032 0.156,0.065 0.233,0.1 0.049,0.022 0.1254,0.068 0.1453,0.1217 0.01,0.026 0,0.066 0,0.093 l 0,0.2097 0,0.7108 0,2.4082 0,1.0527 c 0,0.091 0.01,0.181 0.01,0.2719 0,0.03 -0.01,0.088 0.013,0.1126 0.027,0.035 0.072,0.061 0.1075,0.087 0.2922,0.2124 0.6849,0.1207 1.0176,0.088 0.1373,-0.013 0.2801,-0.014 0.4156,-0.04 m -1.2002,-5.9351 c -0.01,0.066 -0.022,0.134 -0.036,0.1981 -0.023,0.1063 -0.045,0.2128 -0.071,0.3185 -0.016,0.065 -0.02,0.1547 -0.052,0.2137 -0.015,0.027 -0.044,0.049 -0.065,0.07 l -0.132,0.132 m 0.012,4.8631 -0.1204,0.1826"
           id="path4-60-1-4-7-1-8-6-7-5-7" />
        <path
           inkscape:connector-curvature="0"
           style="fill:none;stroke:#000000;stroke-width:1.5;stroke-miterlimit:4;stroke-dasharray:none"
           d="m 4336.585,1042.0186 c 0.068,-5e-4 0.1361,-0.019 0.2036,-0.025 0.127,-0.012 0.2545,-0.02 0.3815,-0.032 0.116,-0.011 0.2341,-0.03 0.351,-0.025 0.1532,0.01 0.3059,0.059 0.4334,0.1431 0.059,0.039 0.1537,0.087 0.1925,0.1471 0.015,0.023 0.01,0.06 0.01,0.087 0.013,0.1011 0.01,0.2101 0.01,0.3121 l 0,1.0445 0,2.0673 c 0,0.4623 -0.01,0.9256 0.013,1.3869 0.013,0.292 0.045,0.5887 0.141,0.8668 0.062,0.1784 0.1515,0.3458 0.3099,0.456 0.055,0.038 0.1276,0.077 0.195,0.087 0.094,0.014 0.2056,-0.017 0.2991,-0.03 0.2613,-0.038 0.5358,-0.079 0.7845,-0.1699 0.2584,-0.095 0.4892,-0.2436 0.702,-0.4163"
           id="path4-679-0-9-3-2-0-4-5-5-6-7" />
        <path
           inkscape:connector-curvature="0"
           style="fill:none;stroke:#000000;stroke-width:1.5;stroke-miterlimit:4;stroke-dasharray:none"
           d="m 4342.1847,1041.9354 c 0.3918,0.05 0.8256,-0.063 1.1988,0.1058 0.1428,0.065 0.2629,0.1816 0.3722,0.291 l 0.1841,-0.1841 c 0.024,-0.024 0.054,-0.068 0.086,-0.079 0.02,-0.01 0.048,0 0.069,0 l 0.1473,0 0.4992,0 1.6938,0 c 0.2289,0 0.4512,0 0.6751,0.06 0.051,0.012 0.101,0.025 0.1513,0.04 0.019,0.01 0.048,0.01 0.063,0.022 0.025,0.022 0.039,0.088 0.05,0.1192 0.032,0.093 0.066,0.1846 0.095,0.2783 0.093,0.2971 0.1442,0.602 0.1953,0.9082 0.014,0.084 0.018,0.1701 0.034,0.2537 m -3.944,-1.4156 0,4.2795 0,1.1129 0,0.2864 c 0,0.032 -0.011,0.088 0.01,0.1145 0.033,0.044 0.081,0.082 0.1215,0.119 0.091,0.083 0.1958,0.1608 0.3109,0.208 0.1903,0.078 0.4283,0.07 0.6301,0.07 0.091,0 0.183,0 0.2741,0 0.073,0 0.1462,-0.01 0.2169,0.012 m -1.5629,-0.4214 c -0.1286,0.1286 -0.2659,0.2584 -0.4378,0.3265 -0.1518,0.06 -0.3221,0.067 -0.4828,0.07 -0.2239,0.01 -0.4537,-0.01 -0.6751,0.024"
           id="path4-009-5-1-5-4-9-6-3-6-4" />
        <path
           inkscape:connector-curvature="0"
           style="fill:none;stroke:#000000;stroke-width:1.5;stroke-miterlimit:4;stroke-dasharray:none"
           d="m 4353.9388,1044.3366 c -0.08,0.08 -0.1606,0.1874 -0.2643,0.2372 -0.1167,0.056 -0.2503,0.051 -0.3764,0.051 l -0.5246,0 -2.0744,0 -0.5846,0 -0.1722,0 c -0.024,0 -0.057,0.01 -0.08,0 -0.053,-0.02 -0.1079,-0.1009 -0.1482,-0.1412 -0.015,-0.015 -0.039,-0.032 -0.047,-0.052 -0.01,-0.019 0.01,-0.052 0.01,-0.072 0.01,-0.062 0.02,-0.123 0.031,-0.1842 0.016,-0.089 0.028,-0.1802 0.05,-0.2683 0.038,-0.1555 0.099,-0.31 0.1629,-0.4565 0.1478,-0.3406 0.3574,-0.6738 0.6345,-0.9244 0.2399,-0.2171 0.5269,-0.3892 0.8369,-0.4851 0.4002,-0.1239 0.8599,-0.1239 1.2614,-0.01 0.1141,0.033 0.2277,0.085 0.3284,0.1472 0.1287,0.08 0.2523,0.1671 0.3561,0.2785 0.2887,0.3099 0.4255,0.7302 0.5064,1.1373 0.035,0.1779 0.059,0.3603 0.078,0.5406 0.01,0.049 0.01,0.099 0.015,0.1481 0.01,0.021 0,0.046 0.015,0.063 0.022,0.025 0.057,0.043 0.083,0.063 0.056,0.042 0.1108,0.084 0.1642,0.1276 0.031,0.025 0.07,0.074 0.1081,0.085 0.025,0.01 0.058,0 0.084,0 l 0.1762,0 c 0.1491,0 0.2999,0.01 0.4485,0 0.088,-0.01 0.1761,-0.032 0.2643,-0.036 m -0.869,2.9714 c -0.2497,0.2497 -0.5068,0.4842 -0.8249,0.6453 -0.3518,0.178 -0.732,0.2587 -1.1213,0.3004 -0.155,0.017 -0.3167,0.042 -0.4725,0.039 -0.1421,0 -0.2905,-0.031 -0.4285,-0.063 -0.4016,-0.095 -0.7708,-0.3092 -1.0771,-0.5824 -0.221,-0.197 -0.3988,-0.4353 -0.5453,-0.6915 -0.2796,-0.489 -0.4142,-1.0693 -0.4279,-1.6299 -0.01,-0.1576 0.02,-0.3156 0.032,-0.4725 0.012,-0.1649 0.028,-0.334 0.059,-0.4966 0.01,-0.052 0.01,-0.1411 0.058,-0.1682"
           id="path4-542-0-4-8-9-0-5-8-9-6-8-1-7-7" />
        <path
           inkscape:connector-curvature="0"
           style="fill:none;stroke:#000000;stroke-width:1.5;stroke-miterlimit:4;stroke-dasharray:none"
           d="m 4356.3683,1046.6795 c 0.027,0.1453 0.034,0.2974 0.054,0.4444 0.03,0.2262 0.073,0.4499 0.1141,0.6743 0.019,0.1003 0.044,0.1987 0.069,0.2975 0.01,0.028 0.011,0.09 0.033,0.1099 0.016,0.015 0.049,0.021 0.07,0.028 0.055,0.02 0.1098,0.039 0.1657,0.055 0.1505,0.044 0.2922,0.1099 0.4407,0.1588 0.2165,0.071 0.4329,0.1032 0.6592,0.1186 0.2822,0.019 0.5683,0 0.8399,-0.083 0.1326,-0.041 0.2589,-0.1026 0.3805,-0.1688 0.2104,-0.1145 0.4106,-0.2665 0.5448,-0.4677 0.1028,-0.1542 0.1449,-0.3336 0.1829,-0.5123 0.032,-0.1531 0.065,-0.3074 0.082,-0.4633 0.01,-0.084 -0.017,-0.182 -0.035,-0.2636 -0.081,-0.3535 -0.316,-0.6231 -0.5971,-0.8396 -0.3639,-0.2802 -0.7895,-0.4639 -1.2091,-0.6429 -0.1909,-0.082 -0.3858,-0.1539 -0.5687,-0.2528 -0.2045,-0.1106 -0.4112,-0.2402 -0.5595,-0.4231 -0.1062,-0.1309 -0.1777,-0.291 -0.2116,-0.4557 -0.017,-0.08 -0.033,-0.1703 -0.031,-0.2524 0.01,-0.1011 0.027,-0.2061 0.046,-0.3051 0.05,-0.2559 0.1068,-0.513 0.276,-0.7194 0.3682,-0.4494 1.0018,-0.586 1.5539,-0.5134 0.2175,0.029 0.4267,0.09 0.6177,0.2003 0.137,0.079 0.2653,0.1855 0.345,0.3244 0.038,0.066 0.059,0.1388 0.083,0.2109 0.038,0.1144 0.073,0.2299 0.1034,0.3465 0.017,0.066 0.029,0.1331 0.056,0.1959"
           id="path4-1-4-1-4-4-2-3-8" />
      </g>
    </g>
  </g>
</svg>
