<?xml version="1.0" standalone="no"?>
<!DOCTYPE svg PUBLIC "-//W3C//DTD SVG 1.1//EN" "http://www.w3.org/Graphics/SVG/1.1/DTD/svg11.dtd" >
<svg xmlns="http://www.w3.org/2000/svg" xmlns:xlink="http://www.w3.org/1999/xlink" version="1.1">
<metadata></metadata>
<defs>
<font id="libertin30" horiz-adv-x="0" >
<font-face units-per-em="2048" ascent="1760" descent="-288" />
<missing-glyph horiz-adv-x="256" />
<glyph />
<glyph horiz-adv-x="682" />
<glyph unicode=" "  horiz-adv-x="256" />
<glyph unicode="&#x09;" horiz-adv-x="256" />
<glyph unicode="&#xa0;" horiz-adv-x="256" />
<glyph unicode="!" horiz-adv-x="138" d="M60 697l1 34v154l2 291l-1 274q0 8 8 8t8 -7v-275l-2 -292v-153l-1 -34q0 -7 -8 -7q-7 0 -7 7zM61 365v1q0 7 7 7q8 0 8 -7v-1q0 -7 -8 -7q-7 0 -7 7z" />
<glyph unicode="&#x22;" horiz-adv-x="414" d="M64 1170q0 32 2 100v48.5v48.5q1 18 1 53q0 24 1 29q2 9 15 38q4 7 10 4q7 -4 4 -10q-14 -28 -15 -34v-27q0 -35 -1 -53q-1 -16 -1 -48.5v-48.5q-1 -35 -1 -100q0 -7 -7 -7q-8 0 -8 7zM317 1172q0 31 1.5 93t1.5 93v60q0 28 1 34q2 8 15 37q4 7 10 4q7 -4 4 -10 q-13 -24 -15 -34v-31q0 -10 -0.5 -30t-0.5 -30q0 -31 -1 -93t-1 -93q0 -7 -8 -7q-7 0 -7 7z" />
<glyph unicode="#" horiz-adv-x="719" d="M24 698q0 7 8 7h159v18q0 1 2 25t4 37q7 40 16 104q12 80 13 118h-143q-7 0 -7 7q0 8 7 8h158v19l7 68v1l43 264q2 8 8 6q8 -2 6 -8l-42 -264l-7 -68v-18h272q1 53 14 136q4 21 10.5 63t9.5 63q1 10 4.5 30.5t5.5 30.5q4 20 4 28q0 7 8 7q7 0 7 -7t-2 -18t-2 -13 q-1 -10 -4.5 -30t-5.5 -30q-4 -21 -10.5 -63t-9.5 -63q-13 -83 -14 -134h143q7 0 7 -8q0 -7 -7 -7h-159q-1 -52 -17.5 -152t-16.5 -150h143q8 0 8 -7q0 -8 -8 -8h-159q-1 -53 -14 -136q-4 -23 -11 -69t-11 -69q-2 -11 -5.5 -31t-4.5 -28q0 -3 -1.5 -10t-1.5 -10q0 -7 -8 -7 q-7 0 -7 7q0 5 3 23q2 11 5.5 30t4.5 28q3 23 11 69t11 69q13 83 14 134h-256q-4 -2 -8 0h-8q-1 -51 -12 -123q-4 -25 -12.5 -76t-12.5 -77q-2 -14 -8 -50q-4 -18 -4 -27q0 -7 -8 -7q-7 0 -7 8q0 6 2 15.5t2 12.5q6 36 8 50q4 26 12.5 77.5t12.5 76.5q11 72 12 120h-143 q-8 0 -8 8zM206 705h272q1 52 17.5 152t16.5 150h-256h-1l-5 1h-1l-1 -1h-7q-1 -40 -13 -120q-9 -64 -16 -104q0 -2 -6 -62v-16z" />
<glyph unicode="$" horiz-adv-x="707" d="M42 549q-2 7 5 9t9 -5q3 -9 6 -25.5t5 -22.5q13 -53 28 -96q2 -6 6 -17.5t6 -16.5q1 -2 1.5 -4.5t1.5 -4.5l1 -2l3 -1q2 -1 5 -2t5 -2q6 -2 21 -6t23 -7q62 -25 82 -31q49 -14 107 -14v505v12q0 3 2 5l9 10l18 17q-3 8 -6 11q-2 0 -8 3l-21 9q-1 0 -3 0.5t-4 1.5t-4 3 q-2 1 -10 18q-6 1 -17 3.5t-15 3.5q-20 3 -22 4q-12 4 -46 26q-92 57 -122 121q-11 23 -17 62q-5 26 -4 35q0 2 6 43q5 31 14 54q18 48 63 86q60 51 133 64q23 4 54 4v101q0 7 7 7q8 0 8 -7v-100q36 0 70 -3q29 -3 85 -17q3 -1 18 -5t23 -7l3 -1q3 -1 6.5 -2.5t6.5 -3.5 t8 -18q9 -23 14 -41q17 -50 31 -109q10 -36 11 -48q2 -6 -6 -8q-7 -2 -9 6q-1 4 -11 46q-13 53 -30 109q-6 18 -14 40q-1 3 -2.5 7t-1.5 5q-1 0 -11 4l-39 12q-47 12 -83 16q-35 3 -69 3v-442v-13q0 -3 -2 -5l-9 -10l-17 -17q5 -10 6 -11q3 -1 7 -3l21 -9l12 -6q6 -5 9 -15 l1 -2q6 -2 25.5 -4.5t30.5 -6.5q61 -25 113 -68q30 -24 46 -47q37 -51 48 -115q0 -1 2 -11t2 -16q0 -21 -9 -71q-16 -104 -72 -156q-25 -22 -55 -38q-54 -28 -118 -34q-6 0 -18 -1t-18 -1q-1 0 -2.5 0.5t-2.5 0.5v-4v-127q0 -7 -8 -7q-7 0 -7 7v127q-1 1 -1 3q-63 2 -111 15 q-21 6 -83 31q-7 3 -21.5 7t-20.5 6q-17 6 -20 9q-2 3 -7 17q-2 5 -6 16.5t-6 17.5q-15 44 -28 97q-2 7 -5.5 23t-5.5 24zM102 1151q0 -10 4 -32q5 -36 16 -58q30 -63 116 -115q34 -20 44 -24q3 -1 10 -2.5t9 -2.5q5 -1 15.5 -3t15.5 -3l18 18l7 7v11v440q-30 0 -51 -4 q-72 -12 -127 -60q-41 -36 -58 -80q-8 -22 -13 -51q-4 -21 -6 -41zM372 302l5 -1q6 0 17.5 0.5t17.5 1.5q62 6 112 32q31 16 52 36q52 50 68 147q8 46 8 69q0 4 -0.5 8t-1.5 9t-1 8q-9 59 -46 108q-16 21 -44 44q-48 40 -109 66q-7 3 -25.5 5t-27.5 5l-18 -18l-7 -7v-10 v-503z" />
<glyph unicode="%" horiz-adv-x="1110" d="M60 1109q3 114 79 208q61 74 122 82q9 1 40 -1q48 -5 77 -26q5 -4 32 -28l10 -10q2 -1 14 -3q4 -1 17.5 -2t20.5 -3q9 -3 16 -6q10 -4 32 -10q24 -7 90 -13q12 -1 39 1q52 3 95 13q47 13 51 13q10 1 40 5q1 0 5 1t7 1t8 -1q4 -2 5 -2q43 33 68 66q1 2 5 2.5t6 -1.5 q2 -1 2.5 -5t-1.5 -6q-19 -26 -74 -70q-1 -5 -9 -32q-1 -2 -2.5 -9.5t-3.5 -12.5q-4 -7 -12.5 -18t-9.5 -13q-7 -10 -21.5 -30.5t-21.5 -30.5q-21 -29 -63.5 -87.5t-63.5 -88.5q-54 -76 -162.5 -227.5t-162.5 -226.5q-18 -26 -54.5 -77t-55.5 -76q-44 -61 -55 -78 q-4 -6 -10 -2q-7 4 -3 10l17 25.5t21 29t18 23.5q18 25 54.5 76.5t55.5 77.5q55 75 163 226.5t162 226.5q21 30 63.5 89t63.5 88q7 10 21.5 30t21.5 30q1 2 10 13t11 16q1 3 2.5 10t2.5 9q5 18 8 31h-1q-2 0 -12 -2q-28 -4 -42 -5q-9 -1 -26 -6.5t-23 -6.5q-37 -9 -97 -13 q-26 -2 -41 -1q-62 6 -93 14q-22 6 -33 10l-15 5q-4 1 -36 6q-6 0 -10 1q0 -3 1 -9t1 -9v-10.5v-12v-9.5q3 -35 2 -44q-8 -113 -62 -202q-40 -65 -90 -92q-25 -14 -61 -17q-25 -2 -44 2q-48 11 -76 55q-18 30 -27 86q-6 32 -6 53zM75 1109q0 -17 6 -51q9 -56 25 -81 q22 -38 67 -48q12 -3 38 -1q34 3 56 15q44 23 84 87q52 83 60 195q0 6 -2 42v31q0 3 -1 9.5t-1 9.5v8q-2 2 -4 4.5t-3 3.5q-11 11 -31 27q-24 18 -70 23q-29 2 -36 1q-54 -7 -112 -77q-73 -89 -76 -198zM706 455q-5 42 8 92q21 84 78 150q39 45 78 61q22 9 45 12q6 1 36 -2 q21 -2 32 -6q48 -15 70 -61q10 -21 17 -83q1 -6 -2 -29q-2 -30 -7 -56q-25 -122 -90 -191q-48 -52 -101 -58q-36 -4 -55 -1q-17 3 -32 12q-18 10 -31 24q-16 18 -26.5 45t-12.5 41.5t-7 49.5zM721 457q4 -34 6.5 -48.5t12 -39.5t23.5 -40q12 -12 27 -21q12 -7 27 -10 q16 -3 51 1q49 7 92 53q63 67 86 184q7 30 8 54q2 19 1 27q-6 59 -15 77q-19 40 -61 54q-9 3 -30 5q-27 3 -32 2q-24 -3 -41 -11q-34 -15 -73 -57q-55 -63 -75 -143q-12 -50 -7 -87z" />
<glyph unicode="&#x26;" horiz-adv-x="1232" d="M46 590q0 13 4 37q16 107 57 170q55 86 188 170q45 28 52 31q6 3 13.5 4t8.5 2q3 2 11 10l18 18q-6 6 -8 10q-3 5 -3 11q-5 27 -6 30q-2 6 -7.5 16.5t-7.5 14.5q-18 37 -28 62q-17 47 -18 52q-5 18 -9 50q-4 35 -2 50q10 58 21 84q36 87 130 121q25 9 67 11q95 4 149 -46 q36 -35 50 -96q6 -30 6 -36q0 -3 -3 -23q-6 -34 -12 -51q-15 -43 -74 -108q-46 -51 -140 -114q-9 -6 -28 -10l-10 -2l-9 -9l-17 -17q9 -9 10 -11q4 -9 6 -24.5t6 -21.5q60 -98 110 -167q80 -114 122 -170q8 -12 12 -17l5 -6q1 0 11.5 -3.5t16.5 -8.5l8 8l9 9l8 8q3 3 6 4.5 t5 1.5l2 1q2 3 21 32l39 63q75 123 113 201q28 57 38 99q1 5 4 17t4 17q0 1 2 9q-11 11 -18 14q-11 5 -39 5q-35 0 -53 2q-8 2 -7 8q2 8 8 7q8 -1 52 -1q30 0 45 -7q9 -4 22 -17q1 0 4 1l3 1q9 4 27 10q32 9 65 11q15 1 26.5 0.5t25.5 0t25 2.5q6 2 8 -6q2 -7 -6 -9 q-12 -2 -27 -2.5t-26.5 0t-25.5 -0.5q-28 -1 -60 -11q-18 -6 -26 -9q-6 -2 -8 -3v-1q-1 -2 -1.5 -4t-0.5 -4q-1 -6 -4 -17.5t-5 -16.5q-11 -42 -39 -101q-51 -102 -113 -203q-7 -11 -20 -31.5t-19 -30.5q-3 -4 -10 -16.5t-12 -18.5q-3 -3 -6.5 -5t-5.5 -2l-3 -1l-27 -27v-38 v-12q4 -4 16 -9q12 -4 16 -8q6 -7 26 -34q73 -95 96 -116q48 -45 99 -49q3 0 17 2t42 10q34 10 56 29q27 22 46 58l8 16t11 19q4 6 10 2t2 -10q-3 -5 -9 -17l-9 -18q-19 -34 -49 -61q-24 -22 -62 -32q-27 -8 -44 -10q-17 -3 -20 -3q-56 4 -109 53q-17 16 -32 33.5t-37.5 48 t-27.5 36.5q-4 5 -12 16.5t-13 16.5l-2 1q-2 1 -4.5 1.5t-4.5 1.5q-12 6 -18 10l-7 -7l-20 -20l-11 -5q-4 -5 -10.5 -14.5t-9.5 -12.5q-34 -43 -61 -70q-69 -67 -129 -91q-41 -16 -107 -20q-83 -6 -158.5 19.5t-120.5 86.5q-34 47 -49 117q-2 8 -4 23.5t-2 17.5q-3 18 -3 39 zM61 589q0 -17 3 -37q6 -36 6 -38q15 -70 46 -112q42 -57 114 -81.5t152 -18.5q64 4 102 19q57 22 124 88q30 30 60 68q2 3 9 13t12 15q6 7 13 7q3 2 5.5 4.5t6.5 7t6 6.5q1 1 4 3.5t4.5 4.5t2.5 3v11v37q-1 2 -3 3q-2 2 -11.5 5t-14.5 6q-6 3 -9 10q-4 6 -12 16 q-31 41 -122 171q-51 71 -111 167q-6 10 -8.5 27.5t-4.5 20.5q0 1 -2 2.5l-4 3t-4 3.5h-13l-21 -20q-1 -1 -3 -3.5t-4.5 -5t-5.5 -4.5q-6 -4 -15 -5t-10 -1q-13 -6 -50 -30q-128 -81 -183 -167q-39 -62 -55 -164q-4 -24 -4 -35zM324 1325q-2 -14 2 -45q3 -25 9 -49 q3 -11 17 -50q8 -23 27 -61q2 -3 7.5 -14l8.5 -17q2 -5 3.5 -10.5t2 -12t1.5 -9.5q2 -8 2 -9t1.5 -2t3.5 -2.5t4 -3.5h12l20 19q11 11 13 12q3 2 8 3l6 1q13 3 22 8q94 63 138 112q56 63 71 103q5 16 11 48q0 3 1.5 10t1.5 10q-1 6 -3.5 18t-2.5 14q-13 57 -46 89 q-50 45 -137 42q-40 -2 -63 -10q-88 -30 -121 -112q-10 -24 -20 -82z" />
<glyph unicode="'" horiz-adv-x="141" d="M54 1170q0 32 1 95t1 94q0 9 0.5 28t0.5 29q0 28 1 34q3 16 15 37q4 7 10 4q7 -4 4 -10q-13 -24 -15 -34v-31v-57q0 -31 -1.5 -94t-1.5 -95q0 -7 -7 -7q-8 0 -8 7z" />
<glyph unicode="(" horiz-adv-x="427" d="M45 785q0 16 2 46q3 68 12 138q10 85 43 193q61 205 174 363q63 88 116 141q5 5 10 0q6 -6 0 -11q-54 -54 -114 -138q-111 -156 -172 -360q-31 -104 -42 -189q-9 -70 -12 -137q-2 -32 -2 -46q0 -13 5 -80q15 -234 105 -440q60 -138 150 -252q52 -66 83 -96q5 -5 0 -10 t-11 0q-32 31 -84 97q-88 111 -151 254q-90 204 -107 445q-5 68 -5 82z" />
<glyph unicode=")" horiz-adv-x="428" d="M24 1668q6 6 11 1q6 -5 24 -26q8 -9 16.5 -19t18.5 -22t16 -19q99 -118 169 -285q83 -194 98 -416q6 -102 6 -104q0 -12 -5 -80q-24 -351 -209 -624q-69 -102 -133 -166q-5 -5 -10 0q-6 6 0 11q63 63 131 164q183 272 207 616q4 54 4 80q0 16 -5 101q-15 218 -98 413 q-67 161 -166 280l-51 60q-18 20 -23 24q-6 6 -1 11z" />
<glyph unicode="*" horiz-adv-x="592" d="M77 1501q4 7 10 4q3 -2 7.5 -4.5t6.5 -3.5q9 -5 29 -13q28 -12 95 -30q21 -6 33 -7l10 -1q9 0 15 -2l2 -1q1 -1 2 -1q0 6 -0.5 19.5t-0.5 20.5q0 25 -1.5 75t-1.5 75q0 3 0.5 8t0.5 7q0 7 8 7q7 0 7 -7q0 -3 -0.5 -8t-0.5 -7q0 -25 1.5 -75t1.5 -75q0 -6 0.5 -20t0.5 -20 q1 1 3 1q5 2 16 2q3 0 5.5 0.5t6 1.5t5.5 1l48 12q82 22 113 45q6 4 10 -2t-2 -10q-30 -23 -117 -47q-8 -2 -24 -6.5t-24 -6.5q-10 -3 -20 -3q-11 0 -12 -1q-1 0 -4 -5l10 -10l3 -10q4 -5 11 -15t11 -15q23 -32 54 -70q37 -45 41 -49q6 -5 0 -11q-5 -5 -10 0q-6 6 -43 51 q-38 46 -55 70q-1 2 -9.5 13.5t-12.5 17.5l-3 10q-2 4 -9 9l-10 -10l-7 -13h-1l-29 -39l-88 -109q-6 -6 -11 -1q-6 5 -1 10l89 109l28 38l7 13l1 2l10 10l-5 5q-1 1 -4.5 1t-8.5 0.5t-8 0.5q-12 2 -34 8q-73 20 -98 30q-20 8 -30 13q-3 2 -7 4.5t-6 3.5q-7 4 -4 10z" />
<glyph unicode="+" horiz-adv-x="843" d="M68 746q0 8 7 8h340v340q0 8 7 8q8 0 8 -8v-340h338q8 0 8 -8q0 -7 -8 -7h-338v-338q0 -7 -8 -7q-7 0 -7 7v338h-340q-7 0 -7 7z" />
<glyph unicode="," horiz-adv-x="278" d="M53 75q-3 6 4 10q7 3 20 7.5t19 6.5q77 32 101 85q8 20 12 58q0 4 1 11.5t1.5 13t0.5 10.5q-1 12 -12 30q-9 16 -38.5 34.5t-39.5 28.5q-6 6 0 11q5 5 10 0q6 -6 37.5 -26t43.5 -40q12 -22 13 -37q1 -7 -2 -38q-4 -43 -13 -62q-25 -57 -109 -93q-7 -3 -20.5 -7.5 l-19.5 -6.5q-6 -3 -9 4z" />
<glyph unicode="-" horiz-adv-x="455" d="M34 802q-2 8 5 10q14 4 49 4h276h9.5h11.5h9q2 0 8.5 1.5t11.5 2.5q6 2 8 -6q2 -7 -6 -9q-2 0 -9 -1.5t-12 -2.5h-10.5h-11.5h-9h-276q-31 0 -44 -4q-8 -2 -10 5z" />
<glyph unicode="." horiz-adv-x="131" d="M58 365v1q0 7 8 7q7 0 7 -7v-1q0 -7 -7 -7q-8 0 -8 7z" />
<glyph unicode="/" horiz-adv-x="481" d="M4 273q1 5 4 13.5t4 10.5l16 47l48 144q25 72 73.5 216.5t72.5 216.5q27 80 81 240.5t81 240.5q8 24 24.5 72t24.5 72q2 6 10 32.5t14 39.5q4 7 10 4q7 -4 4 -10q-2 -5 -24 -70l-48 -144q-27 -80 -81 -240.5t-81 -240.5q-24 -72 -73 -217t-73 -217q-8 -24 -24.5 -71.5 t-24.5 -71.5l-16 -48q-3 -8 -7 -22q-2 -8 -9 -6q-8 2 -6 9z" />
<glyph unicode="0" horiz-adv-x="663" d="M37 846q0 35 6 105q11 121 45 222t85 160q37 42 75 60q19 9 47 14q6 1 17.5 2t13.5 1q5 1 36 -2q104 -12 175 -146q10 -17 21 -45q12 -30 17 -45q33 -96 42 -224q5 -75 5 -91q0 -43 -8 -125q-11 -124 -48 -227q-51 -143 -142 -193q-35 -19 -66 -23q-51 -7 -87 3 q-47 13 -93 59q-64 65 -100 194q-11 38 -22 93q-11 65 -16 137q-3 34 -3 71zM52 846q0 -34 3 -69q5 -73 16 -136q9 -45 21 -91q36 -127 97 -188q44 -44 85 -55q32 -8 83 -3q30 4 59 21q88 48 136 185q36 103 47 224q8 82 8 123q0 15 -5 90q-9 131 -41 221q-3 9 -17 44 q-9 21 -21 42q-68 128 -162 139q-30 2 -34 2q-28 -3 -30 -3q-22 -3 -43 -12q-33 -15 -70 -57q-49 -57 -82 -154q-32 -96 -44 -220q-6 -68 -6 -103z" />
<glyph unicode="1" horiz-adv-x="674" d="M94 1223q-3 6 4 10q94 39 105 42q16 5 46 11t36 7q36 8 56 7q19 0 27 -6q6 -4 6 -20q2 -28 2 -42v-167v-693v-11q4 -5 23 -20q30 -21 104 -21q9 0 27.5 -0.5t27.5 -0.5q44 0 51 -2t5 -10q-2 -7 -10 -5q-6 2 -46 2h-55q-78 0 -112 25q-15 10 -23 18q-28 -26 -54 -35 q-21 -7 -62 -7q-52 0 -78 -1q-48 0 -52 -1q-7 -2 -9 5t5 9q8 2 56 2q26 1 77 1q41 0 58 6q28 10 52 34v12v693v167q0 13 -2 41q0 7 -1 9q-4 3 -17 3q-17 1 -53 -7q-78 -17 -80 -18q-7 -2 -104 -41q-6 -3 -10 4z" />
<glyph unicode="2" horiz-adv-x="680" d="M58 345q0 4 0.5 8t2 8.5t1.5 6.5q1 7 3.5 20.5t3.5 20.5q9 43 15 57q11 27 31.5 57.5t33.5 46t42 49.5q27 30 83 86q118 116 152 154q81 92 109 170q10 27 18 83q4 28 4 41q0 12 -4 38q-8 46 -18 71q-21 53 -68 88t-107 46q-32 6 -77 3q-64 -5 -105 -24q-56 -25 -78 -74 q-6 -13 -18 -66q-2 -10 -7 -37q-2 -14 -1 -15q3 -7 -3 -10q-7 -3 -10 3q-4 7 -1 24q4 23 7 38q12 52 20 70q24 53 85 80q46 21 110 26q45 3 80 -3q63 -12 113.5 -49t73.5 -94q10 -24 18 -74q5 -32 5 -41q0 -11 -5 -43q-8 -58 -18 -86q-31 -85 -112 -175q-41 -45 -153 -155 q-65 -65 -82 -84q-81 -92 -104 -149q-5 -11 -14 -56q-2 -7 -4.5 -20.5t-3.5 -19.5q0 -3 -1.5 -9t-1.5 -8h3h398h17.5h20.5h17q15 0 17 1q12 10 27 40q15 29 30 89l3.5 17.5t4.5 19.5t10 5q7 -2 5 -9q-4 -17 -9 -36q-17 -64 -31 -93q-17 -34 -31 -45q-5 -4 -25 -4h-56h-398 q-16 0 -18 12z" />
<glyph unicode="3" horiz-adv-x="658" d="M48 379q-6 5 0 11q5 5 10 0q46 -44 67 -57q17 -10 38 -18q52 -20 107 -17q48 3 57 4q59 10 119 48q94 60 130 177q10 30 15 76q6 57 6 58q0 27 -9 67q-26 117 -113 160q-43 22 -78 30q-1 0 -9 0.5t-13 2.5q-4 2 -6 4l-78 -13l-32 -4l-19 -2q-8 0 -8 6q0 8 7 8l19 3l31 4 l78 13l2 4l1 2q7 14 8 17l9 24q4 11 6 14t21 18q25 20 43 38q45 45 63 87q4 9 13 49q8 37 8 42q0 3 -5 28q-8 33 -18 50q-20 37 -59.5 59.5t-84.5 27.5q-11 1 -50 -1q-55 -3 -93 -16q-51 -18 -74 -35q-29 -22 -46 -52q-4 -8 -19 -49q-1 -4 -21 -49q-4 -7 -10 -4q-7 3 -4 9 q2 5 10 23t11 27q18 49 19 50q20 34 51 57q26 19 79 37q39 14 96 17q40 2 52 1q49 -5 91.5 -29.5t64.5 -64.5q14 -27 20 -54q5 -23 5 -33q0 -8 -8 -45q-9 -40 -14 -51q-18 -43 -67 -92q-23 -23 -43 -39q-3 -2 -10 -7.5t-9 -7.5l-1 -2q0 -1 -1 -3.5t-2 -4.5q-2 -4 -5.5 -12 t-4.5 -12q-5 -15 -7 -19q-1 -2 -3 -4q1 0 8 -1t11 -2q36 -7 81 -30q94 -48 122 -171q9 -40 9 -71q0 -1 -6 -58q-5 -44 -16 -80q-37 -122 -136 -185q-64 -41 -125 -50q-10 -1 -58 -4q-60 -3 -114 18q-24 9 -41 19q-19 13 -68 59z" />
<glyph unicode="4" horiz-adv-x="687" d="M33 662q0 3 3 12q2 8 6 22l2 10q3 11 5 16q3 5 10 15q3 5 9.5 15.5t10.5 15.5l45 72q110 182 204 372q37 74 60 126q2 6 8.5 18.5t8.5 18.5q7 17 8 19q2 7 9 5q8 -2 6 -9q-1 -4 -10 -22q-3 -6 -8.5 -18t-7.5 -18q-27 -60 -60 -127q-88 -178 -205 -373q-7 -12 -22.5 -36.5 t-23.5 -36.5q-3 -5 -9.5 -15t-9.5 -15q-1 -2 -5 -7t-5 -7t-6 -22q-1 -4 -3 -11.5t-3 -11.5l-2 -8q0 -1 1 -5t2 -6l2 -6l2 -1h3h26h384v242q0 46 1 55q1 5 2.5 13.5t1.5 12.5q2 8 9 6q8 -2 6 -9q-1 -5 -3 -12.5t-2 -11.5q-1 -8 -1 -17t0.5 -20t0.5 -17v-242h163q8 0 8 -8 t-8 -8h-163v-263v-9q19 -19 41 -28q21 -9 53 -9q7 0 22 -0.5t22 -0.5q24 0 27 -1q6 -2 4 -10q-2 -7 -9 -5q-5 2 -22 2h-44q-35 0 -59 10q-25 11 -43 29q-6 -6 -14 -12q-21 -16 -40 -21q-19 -6 -67 -6q-6 0 -17 -0.5t-17 -0.5q-13 0 -15 -1q-6 -3 -10 4q-3 6 4 10q4 2 21 2 h34q44 0 63 6q15 5 35 19q14 12 16 14v8v263h-384q-18 0 -27 1q-12 0 -16 6q-2 3 -3 7l-1 5q-4 12 -4 15z" />
<glyph unicode="5" horiz-adv-x="694" d="M53 891q42 57 53 69v7v8.5t1 9.5q1 11 2.5 33.5t2.5 33.5q3 31 7 65t9 76t8 65q2 10 4.5 31.5t3.5 32.5q0 2 0.5 8t1 11.5t2.5 9.5q2 6 11 10l5 5q6 5 10 7h24q7 0 23 0.5t24 -0.5l48 -3q21 0 58 -2t48 -2q27 -1 82 1q9 1 26.5 2t26.5 1q2 0 10 0.5t11 1.5t19 15l48 39 q6 6 11 0q5 -5 0 -10q-17 -17 -49 -41q-19 -15 -24 -17q-9 -3 -25 -3q-9 -1 -26.5 -2t-26.5 -1q-54 -2 -83 -1q-13 0 -49.5 2t-56.5 2l-48 3q-7 0 -23 -0.5t-24 0.5q-3 0 -7.5 0.5t-7 0.5h-4.5q-1 0 -2.5 -1.5t-4 -3.5t-4.5 -4l-6 -6q0 -1 -3 -24q-2 -11 -4.5 -32t-3.5 -31 l-24 -207q-1 -11 -2.5 -33t-2.5 -33v-8t-1 -10v-4h1q2 1 3 1q5 0 15.5 0.5t15.5 1.5q18 1 33 3l30 5q20 3 67 7q59 4 90 -1q57 -10 106.5 -46.5t78.5 -87.5q36 -61 46 -151q0 -4 2 -18t2 -22q0 -10 -2 -24q-1 -6 -2 -16.5t-2 -19t-2 -16.5q-12 -81 -41 -133 q-36 -64 -95 -108t-128 -49q-58 -4 -93 2q-59 10 -121 63q-8 6 -22.5 20.5t-22.5 20.5q-6 6 -1 10q5 6 10 1q9 -7 25 -21.5t21 -19.5q59 -50 114 -59q33 -6 89 -2q65 5 121 46.5t90 102.5q29 51 39 128q1 9 3 26.5t3 25.5q2 16 2 21q0 7 -2 20.5t-2 18.5q-10 85 -44 145 q-28 48 -74.5 82.5t-99.5 44.5q-28 5 -87 1q-44 -4 -66 -7q-4 0 -14 -2t-16 -3q-12 -1 -34 -3q-5 0 -15 -1t-15 -1h-1q-3 -1 -4.5 -1t-6.5 1q-14 -16 -50 -65q-4 -6 -10 -2t-2 10z" />
<glyph unicode="6" horiz-adv-x="672" d="M47 727q-1 36 5 102q2 35 9 48q0 1 1 10q1 12 5 36q12 60 51 148q42 92 112.5 168t157.5 120q102 50 231 60q8 0 8 -7q0 -8 -7 -8q-125 -10 -225 -59q-85 -43 -153.5 -117t-110.5 -164q-36 -78 -49 -143q-4 -20 -5 -36q0 -2 -1 -5v-3q4 -5 13 -13t12 -11q1 -1 3 -3.5 t3 -3.5q1 0 4 1t6.5 2.5t5.5 2.5t4.5 1.5t4.5 1l4 1t3 1.5q4 2 12.5 9.5t11.5 10.5q6 5 36 22q48 26 120 33q34 4 52 3q41 -2 77 -15q62 -22 101 -64q65 -69 81 -188q5 -35 5 -44q0 -2 -3 -35q-3 -37 -10 -68q-15 -75 -46 -125q-44 -70 -120 -100q-26 -10 -71 -14 q-63 -4 -106 10q-57 17 -105 64q-69 65 -95 157.5t-32 213.5zM62 727q5 -119 30.5 -208t91.5 -152q48 -44 99 -60q44 -13 101 -10q43 4 67 13q72 28 112 93q30 48 45 121q5 23 9 67q0 4 1 10.5t1.5 12t0.5 10.5q0 15 -4 43q-14 109 -78 178q-36 39 -95 61q-36 12 -73 14 q-15 1 -49 -3q-73 -7 -115 -31q-26 -15 -34 -21q-2 -2 -10.5 -10t-14.5 -11q-5 -3 -20 -6q-1 0 -5 -2t-8.5 -3.5t-8.5 -1.5q-3 0 -6 2t-4.5 3.5t-2.5 3.5l-2 2l-19 19q-2 -8 -4 -34q-6 -66 -5 -100z" />
<glyph unicode="7" horiz-adv-x="735" d="M48 1191q6 23 19 59q26 74 53 107q-22 22 -28 33q-1 1 -7 27q-2 6 6 8q6 2 8 -6q4 -16 7 -22q6 -11 27 -32q14 1 127 1h348h13q5 3 28.5 16.5t34.5 21.5q7 4 11 -2t-2 -10q-20 -14 -57 -35q5 -5 6 -9q2 -9 -2 -21q-1 -8 -4 -22t-4 -21q0 -1 -1 -9t-2 -12q0 -2 -25 -63 q-8 -20 -23.5 -60t-23.5 -59q-68 -169 -200 -509q-8 -21 -22.5 -58.5t-26.5 -68.5t-23 -59q-7 -16 -19 -50q-8 -23 -11 -27t-7 -6.5t-9 -4.5t-6 -3q-18 -10 -28 -16q-3 -2 -9 -5t-8 -5q-4 -5 -10 1q-4 4 1 10q5 4 18 12q18 10 28 16q17 10 18 11q1 2 2.5 5.5t3 8.5t2.5 8 l20 50q15 36 41 105t31 82q132 340 200 509q8 20 23.5 59.5t23.5 58.5q1 4 10.5 27t13.5 35q2 5 4 19q1 8 3.5 23l3.5 21q0 2 1 5.5t1.5 6t0.5 3.5l-1 1q-1 1 -3 2.5t-3 2.5h-4.5h-5h-3.5h-348q-112 0 -126 -1q-29 -35 -53 -105q-14 -38 -19 -57q-2 -8 -9 -6t-5 9z" />
<glyph unicode="8" horiz-adv-x="681" d="M46 556q0 2 3 32q8 64 37 112q38 64 113 130q26 22 40 33q4 3 11 8.5t10 7.5q1 0 1.5 2.5t2 6.5t4.5 7q6 9 21 22l-1 4q-7 18 -9 19q-11 8 -36 24.5t-37 25.5q-112 86 -113 186q0 18 6 48q8 41 18 65q16 37 47 66t69 45q34 15 77 20q6 0 16.5 0.5t15.5 1.5q10 1 41 -1 q56 -3 101 -28q51 -28 81.5 -77t32.5 -108q0 -10 -2 -24q-4 -22 -7 -33q-12 -46 -56 -95q-31 -35 -84 -77q-11 -10 -25 -19q-2 -2 -5 -4t-5 -3.5t-3 -2.5t-3 -7t-4 -10q-1 -2 -16 -17l-2 -2q-1 -2 -3 -4q2 -3 7 -16l3 -7q2 -2 8 -5q4 -3 12.5 -8t10.5 -6q31 -19 67 -45 q117 -84 140 -186q6 -28 6 -43q0 -4 -3 -28q-3 -31 -9 -59q-17 -93 -75 -148q-77 -74 -203 -79q-141 -7 -228 83q-47 48 -64 119q-2 6 -7 46q-2 16 -2 28zM61 555q0 -8 2 -26q5 -41 6 -43q18 -69 61 -112q83 -84 216 -79q120 5 193 75q54 53 71 140q6 27 9 58q0 1 1.5 11 t1.5 15q0 14 -6 40q-20 97 -133 177q-30 22 -67 44l-24 15q-6 3 -10 7q-1 1 -6 11q-1 3 -3 8.5t-4 8.5q-3 0 -6 1h-3h-41q-15 0 -19 1l-20 -20l-1 -4q-1 -4 -2.5 -8t-5.5 -7q-4 -4 -12 -10t-10 -7q-31 -24 -40 -32q-71 -61 -110 -126q-27 -47 -35 -106q-3 -19 -3 -32z M108 1176q1 -92 107 -175q11 -8 36 -23.5t37 -24.5q5 -4 14 -27l2 -4h15h42q3 0 6 -1t4 -1l6 6l14 14q0 1 2 8t6 12l16 12q4 3 12.5 9.5t12.5 9.5q48 38 82 76q41 45 53 88q0 2 6 32q2 16 2 21q-2 54 -31 100t-76 72q-41 23 -94 26q-31 2 -39 1q-7 -1 -18 -1.5t-14 -0.5 q-40 -5 -73 -19q-35 -15 -64 -43t-44 -61q-8 -19 -16 -61q-6 -30 -6 -45z" />
<glyph unicode="9" horiz-adv-x="672" d="M33 1073q0 12 2 32q5 39 12 78q22 104 78 162q52 54 120 67q7 1 47 4q46 3 82 -6q39 -9 79 -36q36 -25 63 -55q65 -73 88 -195q23 -126 14 -230q-5 -53 -7 -62q-1 -5 -3 -9l-1 -1q-2 -9 -4 -29t-5 -31q-39 -163 -148 -288q-75 -85 -164 -131q-41 -22 -101 -39 q-38 -10 -91 -19q-9 -2 -31 -4q-2 0 -6 -0.5t-6 -1.5q-8 -2 -10 5q-2 8 5 10q6 2 16 2q20 2 30 4q60 10 89 18q52 14 99 38q85 44 159 128q107 122 144 281q1 2 9 56l-24 24l-7 7q-1 0 -5 -2t-6 -2q-4 -1 -11 -2.5t-10 -3.5t-8.5 -8t-8.5 -8q-35 -28 -87 -45q-28 -9 -73 -15 q-36 -4 -57 -3q-76 3 -140 48q-94 65 -116 211q-6 48 -6 51zM48 1073q0 -9 5 -49q21 -138 110 -200q60 -43 132 -46q18 -1 56 3q41 5 69 14q48 16 82 43l8 7q7 7 12 10t14 5l9 2q13 6 19 5q4 -1 15 -12l18 -18q0 2 6 59q9 101 -14 225q-23 120 -84 188q-26 29 -60 52 q-34 24 -74 34q-38 9 -77 6q-39 -2 -46 -4q-66 -14 -113 -63q-53 -54 -74 -155q-8 -42 -11 -76q-2 -22 -2 -30z" />
<glyph unicode=":" horiz-adv-x="50" />
<glyph unicode=";" horiz-adv-x="278" d="M54 75q-3 7 3 10q8 4 23.5 8.5t21.5 7.5q74 31 97 86q7 16 11 55q4 27 2 39q-2 11 -12 28q-9 15 -37.5 32.5t-39.5 28.5q-5 6 0 11t10 0q6 -5 37 -25.5t43 -39.5q12 -20 14 -33q3 -13 -2 -42q-5 -43 -12 -60q-25 -59 -106 -94q-8 -4 -22.5 -8.5t-20.5 -7.5t-10 4z" />
<glyph unicode="&#x3c;" horiz-adv-x="811" d="M50 761q0 7 8 7h30h7l1 2l2 4q2 3 5.5 9.5t5.5 9.5q5 9 9 12q6 4 40 15q7 3 34.5 13t42.5 15q63 22 177 64t155 57q86 30 128 46q53 20 56 21q6 3 10 -4q3 -6 -4 -10q-11 -6 -32 -13t-25 -8q-58 -22 -128 -46q-63 -22 -177 -64t-155 -57q-10 -3 -35.5 -13t-40.5 -15 l-18 -6t-21 -8l-1 -2l-2 -4q-2 -3 -5.5 -9.5t-5.5 -9.5l-1 -2l-2 -4l12 -21l6 -10l10 -4l565 -206l55 -20q7 -2 5 -10q-2 -6 -10 -4l-55 20l-566 206l-12 5q0 1 -2 2l-2 1l-7 13l-12 20q-2 0 -5 1h-2h-30q-8 0 -8 7z" />
<glyph unicode="=" horiz-adv-x="843" d="M68 620q0 7 7 7h693q8 0 8 -7q0 -8 -8 -8h-693q-7 0 -7 8zM68 870q0 8 7 8h693q8 0 8 -8q0 -7 -8 -7h-693q-7 0 -7 7z" />
<glyph unicode="&#x3e;" horiz-adv-x="811" d="M50 486q-2 7 6 9q10 2 27 9.5t24 9.5l99 36q50 18 150 54.5t149 54.5q21 8 63 23t63 23q4 1 17.5 6t20.5 7q13 4 18 7l4 8q8 14 13 22q-2 4 -2 5q-2 3 -5.5 9.5t-5.5 9.5q-3 6 -5 8q-5 3 -11.5 5t-15 4.5t-13.5 4.5q-12 5 -38 14.5t-38 13.5q-58 21 -173.5 63t-173.5 63 l-114 42q-40 13 -55 20q-6 3 -3 10q4 7 10 4q10 -5 29.5 -11.5t24.5 -8.5q19 -7 57 -20.5t57 -20.5q58 -21 173.5 -63.5t173.5 -63.5q13 -5 38 -14.5t37 -13.5q3 -1 18.5 -6t23.5 -9q6 -4 11 -13q2 -3 5.5 -9.5t5.5 -9.5q0 -1 0.5 -2.5t1.5 -2.5h7h29q8 0 8 -7q0 -8 -7 -8 h-30q-3 -1 -7 -1q-8 -12 -13 -22q-5 -9 -8 -12l-22 -9q-24 -8 -37 -13q-21 -7 -63.5 -23.5t-63.5 -23.5q-49 -18 -148.5 -54t-149.5 -54l-99 -36l-54 -19q-7 -2 -9 5z" />
<glyph unicode="?" horiz-adv-x="609" d="M30 1349q0 3 3 20q3 15 8 37q15 59 23 72q25 45 95 75q44 19 109 24q59 4 99 -5q104 -23 163 -119q27 -46 37 -109q4 -24 4 -40q0 -9 -8 -54q-7 -49 -20 -77q-14 -31 -49 -72q-20 -23 -86.5 -81.5t-92.5 -98.5q-17 -26 -27 -62q-5 -18 -8.5 -36.5t-5 -43t-2 -36t0 -44 t0.5 -38.5q0 -7 -8 -7q-7 0 -7 7q0 10 -0.5 39t0 43.5t1.5 38t4.5 43.5t9.5 39q13 40 29 65q28 42 94.5 100t86.5 81q31 36 46 70q13 31 20 72q7 42 7 52q0 12 -4 38q-8 57 -35 103q-56 91 -154 113q-34 8 -94 4q-59 -3 -104 -23q-65 -29 -87 -68q-8 -14 -22 -69l-9 -36 q-2 -12 -2 -15q0 -1 1 -2.5t2 -4t2 -4.5q3 -7 -3 -10q-7 -3 -10 3q-7 13 -7 16zM258 365v1q0 7 7 7q8 0 8 -7v-1q0 -7 -8 -7q-7 0 -7 7z" />
<glyph unicode="@" horiz-adv-x="1529" d="M60 721q0 14 2 40q2 24 8 80q29 248 183 413q149 159 372 209.5t426 -27.5q181 -68 290 -207q110 -139 127 -326q4 -34 4 -51q0 -4 -3 -37q-3 -41 -9 -79q-19 -111 -62 -185q-22 -39 -53 -71q-61 -64 -158 -92q-20 -6 -81 -15q-34 -5 -83 -5q-28 0 -38 12q-7 9 -11 20 q-7 19 -8 28q-1 7 2 23l6 42q1 8 2 25t2 26q2 16 3 25q1 4 1 11l-6 6h-1l-1 -1q-3 -1 -9.5 -4.5t-9.5 -4.5t-12.5 -6t-15.5 -7q-2 -1 -5.5 -2t-5.5 -2t-3 -2t-2 -2.5t-2.5 -4.5l-2.5 -5q-3 -4 -9.5 -13.5t-9.5 -14.5q-44 -60 -83 -91q-33 -26 -61 -33q-27 -7 -58 -12 q-23 -4 -37 -3q-36 4 -69.5 23t-53.5 49q-26 38 -34 92q-7 45 -8 55q0 10 2 26q1 8 2.5 23.5t2.5 23.5q16 126 81 223q62 93 145 139q35 20 73 32q92 30 164 -1q30 -13 51 -38q4 -4 8.5 -12.5t6.5 -10.5l8 -4q16 -9 20 -12t21 -20l4 -3q2 2 4 3l4 3q0 1 2 9l6 24q0 8 3 13 q1 2 12 13q3 4 10 11l11 11q6 6 11 0t0 -11l-21 -21l-10 -10q0 -1 -2 -9q-1 -4 -2.5 -11.5t-2.5 -11.5q0 -1 -0.5 -3.5t-1 -5.5t-2.5 -6q-1 -2 -3 -3.5t-4 -2.5l-2 -1l-1 -1q-3 -3 -5 -4q0 -6 -6 -60q-3 -33 -9 -68q-14 -77 -66 -239v-6t-0.5 -4.5t-0.5 -3.5q-1 -8 -3 -26 q-1 -8 -2 -25t-2 -26l-6 -42q0 -2 -1.5 -9t-1.5 -10q1 -6 8 -25q4 -12 8 -16q6 -7 27 -7q27 0 81 6q52 8 79 15q94 26 152 87q29 31 50 68q41 73 60 181q6 39 9 78q0 2 1.5 14.5t1.5 19.5q0 16 -4 50q-18 183 -124 318q-107 136 -284 203q-198 76 -417 26.5t-364 -205.5 q-151 -161 -180 -404q-3 -24 -7 -79q-2 -26 -2 -38q3 -131 47 -256.5t125 -222.5q35 -43 84 -83q152 -127 366 -148q43 -5 78 -5q17 0 53 2q138 7 236 48q31 13 82 43q42 24 60 39q4 5 10 -1q4 -4 -1 -10q-28 -22 -61 -41q-44 -26 -85 -43q-104 -43 -241 -50q-36 -2 -53 -2 q-37 0 -80 5q-216 21 -373 151q-50 42 -86 85q-83 99 -128 226.5t-48 261.5zM498 598q1 -9 8 -54q9 -52 32 -86q39 -58 111 -65q10 -1 34 3q38 6 56 11q23 6 55 30q41 32 81 89q3 5 9 13t9 13q1 1 2 4t3 6.5t5 5.5t6.5 4t7 3t4.5 2q4 2 12.5 6.5t14.5 6.5q12 6 20 9q3 3 9 3 q4 0 10 -4q46 144 61 226q6 33 9 67q0 3 2.5 25t3.5 33l-5 7q-13 13 -20 18q-1 1 -19 11q-9 5 -11 7q-5 5 -9.5 13.5t-5.5 9.5q-20 23 -46 34q-69 30 -154 1q-38 -13 -69 -31q-81 -46 -140 -135q-63 -94 -79 -215q-1 -8 -2.5 -24t-2.5 -24q-2 -16 -2 -23z" />
<glyph unicode="A" horiz-adv-x="1199" d="M3 311q-2 6 6 8q9 1 24 1q13 0 41 2q34 3 65 12q5 2 14 5t13 5q0 4 1 7.5t3 6.5l1 2q2 8 4.5 27.5t5.5 30.5q4 16 20 60q7 19 21.5 57t21.5 57q0 1 3.5 10t4.5 11.5t4 10.5t5 11.5t5.5 10t7 10t8.5 8t10 8.5q0 3 2 6l1 4q1 5 2.5 16.5t2.5 17.5q6 36 7 41q7 25 13 39 q4 11 12 32.5t12 31.5q84 222 125 333q33 89 41 113q2 6 6.5 17.5t6.5 17.5q5 14 7 17q2 2 6 4l3 2q3 1 8.5 4t7.5 5q15 9 47 27q0 3 0.5 8t0.5 6v28q0 18 0.5 54.5t0.5 54.5q0 7 8 7q7 0 7 -7q0 -18 -0.5 -54.5t-0.5 -54.5v-29q0 -3 -0.5 -7.5t-0.5 -5.5q1 0 3 -2 q19 -9 21 -16q5 -12 13 -34q7 -19 46 -128q16 -44 142 -406q4 -12 12 -34q0 -1 3 -9.5t4 -13.5q1 -8 3.5 -23t3.5 -22q0 -3 0.5 -6.5t1 -6t0.5 -3.5q1 -1 6 -3.5t8 -4.5q3 -3 8 -17q8 -22 23 -66t22 -65q3 -8 8.5 -22.5t9.5 -27t7 -24.5q3 -13 6 -38.5t5 -34.5l3 -18v-5 l10 -5q18 -10 27 -14q53 -24 115 -29q7 -1 20 -1.5t20 -0.5q15 0 21 -3q7 -4 4 -10q-4 -7 -10 -4q-2 1 -4 1t-6 0.5t-7 0.5q-7 1 -20 1.5t-20 0.5q-61 4 -120 30l-27 15l-3 2q-4 1 -6 2q-29 -29 -43 -36q-16 -7 -52 -12q-22 -3 -61.5 -3t-55.5 -1q-8 0 -8 7q0 8 6 8 q17 1 56.5 1t60.5 3q32 4 47 11q14 7 41 34v4q-1 3 -2 9.5t-1 9.5q-1 7 -4.5 32.5t-6.5 38.5q-4 17 -24 74q-15 44 -45 130q-1 2 -1.5 4.5t-1.5 4.5l-1 2q-6 2 -11 5l-19 -19q-11 -11 -13 -12q-3 -1 -13 -1h-445q-28 0 -42 2q-16 2 -24 4q-5 0 -8 2q-6 -5 -11 -10t-10 -15 t-6.5 -13.5t-7.5 -18t-6 -15.5q-7 -19 -21 -56.5t-21 -56.5q-20 -56 -20 -58q-2 -8 -5 -28t-6 -31l-3 -15q12 -14 49 -18q21 -2 63 -2.5t61 -1.5q7 0 7 -8q0 -7 -8 -7q-19 1 -61 1.5t-64 2.5q-41 5 -57 22q-3 -1 -13 -4.5t-16 -5.5q-39 -11 -67 -13t-43 -2h-7.5h-8h-6.5 q-6 -2 -8 6zM308 671l1 -1h2q2 0 22 -3q7 -1 40 -1h445h5l3 -1l8 8l21 21q-1 3 -1.5 9t-0.5 7q-1 8 -3.5 23t-3.5 22q-2 10 -6 20q-8 24 -12 35q-101 291 -143 405q-10 27 -46 127q-1 4 -5 16l-6 18q0 1 -15 9l-4 2q-9 -5 -24.5 -14.5t-21.5 -12.5q-3 -2 -8 -5t-8 -4l-5 -3 q-2 -2 -5 -12q-2 -6 -6.5 -18t-6.5 -18q-8 -24 -41 -113q-20 -55 -62 -166t-63 -167q-4 -10 -12 -31.5t-12 -32.5q-11 -30 -13 -36q0 -1 -6 -41q-1 -6 -3 -17.5t-3 -16.5q0 -2 -0.5 -4.5t-0.5 -3.5z" />
<glyph unicode="B" horiz-adv-x="1007" d="M17 1547q2 8 8 7q8 -1 79 -1q95 -2 142 -44l22 22q13 13 15 14t14 1h24q62 0 92 -2q163 -11 236 -103q17 -22 31 -49q13 -28 20 -67q7 -37 7 -52q0 -14 -7 -49q-14 -73 -45 -118q-12 -18 -21 -27q-3 -3 -7.5 -7t-5.5 -5q-2 -3 -5.5 -13.5t-4.5 -14.5q-1 -3 -3.5 -8.5 t-3.5 -8.5l-1 -2l3 -3q2 -2 6 -6.5t6 -6.5l2 -3q3 -1 9 -2t9 0l33 -6q47 -11 90 -30q113 -50 164 -154q17 -33 26 -80q7 -39 11 -64q3 -27 3 -29t-3 -29q-12 -79 -42 -134q-11 -20 -32 -45q-57 -66 -142 -90t-196 -29h-54q-77 0 -115 2q-42 2 -61 5q-27 4 -38 10 q-17 8 -36 26q-23 -21 -38 -28q-41 -20 -131 -20q-43 0 -51 -1q-6 -2 -8 6q-2 6 6 8q18 2 53 2q89 0 125 18q18 9 37 28v1130q-44 41 -136 43q-70 0 -79 1q-8 2 -7 8zM254 365q18 -18 35 -26q10 -4 34 -8q20 -3 59 -5q38 -2 114 -2h17h20h17q110 5 192 28t135 85 q17 20 30 44q28 54 40 129q0 1 1.5 11t1.5 15q0 4 -0.5 8.5t-1.5 10t-1 9.5q-5 38 -10 62q-8 42 -25 76q-50 99 -158 147q-51 22 -87 29l-10 2.5t-11.5 2.5t-10.5 1q-2 0 -8.5 0.5t-10.5 1.5q-3 1 -10 8q-2 2 -5.5 6.5t-5.5 6.5q-2 1 -4 3q-80 -16 -121 -20q-62 -6 -216 -6 v-619zM254 999q154 0 215 6q40 4 120 20l2 3q1 3 3 8t3 8t2.5 9t3.5 11.5t5 9.5l16 16q7 7 19 25q31 45 42 112q7 37 7 46q0 10 -7 50q-7 41 -18 63q-13 26 -30 46q-69 86 -226 97q-45 3 -90 3q-4 0 -12 -0.5t-12 -0.5h-7l-11 -11l-25 -25v-496z" />
<glyph unicode="C" horiz-adv-x="1102" d="M38 912q0 22 7 94q16 153 85 279q23 42 65 91q126 147 301 183q33 6 75 8q15 1 29 1q67 0 127 -12q81 -16 151 -47q5 -2 29 -14q18 -9 23 -21q1 -5 1 -8t-1 -7l-1 -4q-1 -6 -3.5 -18t-3.5 -18q-15 -70 -19 -84q-3 -11 -10 -31.5t-10 -29.5q-2 -7 -9 -5t-5 10 q3 12 10 32.5t9 28.5q5 17 19 82q1 6 3.5 18t3.5 18q0 2 1 5q1 4 1 5q-3 7 -16 14q-18 10 -28 14q-64 28 -148 45q-63 12 -125 12q-13 0 -27 -1q-41 -2 -73 -8q-169 -34 -292 -177q-39 -45 -64 -90q-67 -122 -83 -272q-7 -82 -7 -98q3 -154 68 -291q77 -162 201 -238 q53 -32 130 -54q60 -17 133 -17q23 0 48 2q103 7 203 52q104 47 218 170q5 5 10 0q6 -6 1 -11q-113 -124 -223 -173q-100 -46 -208 -53q-26 -2 -50 -2q-76 0 -136 17q-77 22 -133 56q-130 79 -208 244q-69 147 -69 303z" />
<glyph unicode="D" horiz-adv-x="1008" d="M18 1551q3 6 10 3q3 -1 14 -1h9.5h12h10.5q7 0 28.5 -1t32 -2t28 -3.5t32 -8t27.5 -13.5q15 -9 27 -21l3 -3q27 26 51 35q19 7 48 9q20 2 89 2h27q91 0 143 -12q70 -16 130.5 -57.5t101.5 -101.5q64 -93 93 -219q11 -47 20 -112q1 -10 2 -21.5t2 -25.5t2 -22q0 -6 1 -17 t1.5 -20t0.5 -17q0 -32 -6 -92q-29 -278 -201 -419q-103 -84 -230 -99q-36 -4 -108 -4h-21h-23t-21.5 0.5t-23.5 2.5t-20.5 5.5t-21.5 8.5q-16 8 -35 27l-3 -3l-3 -2q-20 -20 -48 -31q-26 -10 -54 -13.5t-65.5 -3.5t-52.5 -1q-8 0 -8 7q0 8 7 8q18 2 54 2t63.5 3t50.5 12 q24 9 42 27l9 9v16v1090v15l-7 7q-14 14 -23 19q-12 7 -25 12t-29.5 7t-27 3t-31.5 2t-29 1h-31q-14 0 -20 3q-7 4 -4 10zM260 382q0 -1 0.5 -4t0.5 -6v-7q19 -19 34 -26q34 -17 124 -17q63 0 107 5q122 15 222 96q167 137 195 409q6 60 6 89q0 8 -0.5 17t-1.5 20t-1 17 q-6 66 -6 68q-8 63 -20 111q-29 123 -91 213q-39 58 -97.5 98.5t-125.5 55.5q-50 11 -137 11h-28q-70 0 -89 -2q-27 -2 -43 -8q-24 -10 -48 -34v-7t-0.5 -5.5t-0.5 -3.5v-1090z" />
<glyph unicode="E" horiz-adv-x="1046" d="M13 1548q2 8 9 6q12 -2 21 -2h57q68 0 114 -25q18 -10 31 -23l4 -4q16 16 32 24q31 16 96 16h47q20 0 60 0.5t60 0.5q58 0 69 -1q50 -3 85 -11q5 -1 22 -5q5 0 11 -5t10 -21q4 -13 14 -39q18 -53 45 -168q2 -7 -6 -9q-7 -2 -9 5q-29 126 -44 168q-2 8 -14 38q-1 2 -2 5.5 t-2 6t-2 3.5q-2 0 -5 1q-14 4 -21 5q-35 8 -84 11q-11 1 -67 1h-120q-8 0 -23.5 -0.5t-23.5 -0.5q-63 0 -90 -14q-11 -6 -29 -24v-7t-0.5 -6t-0.5 -4v-468h380l2 6q4 12 5 19q7 33 12 70q2 13 8 47q3 20 8 28q4 6 10 2t2 -10q-2 -2 -6 -22q-3 -16 -7 -48q-4 -33 -12 -70 q-1 -4 -2.5 -11t-2.5 -10q0 -2 -1 -3.5t-1 -3.5l-1 -1q0 -3 3 -11t4 -12q8 -31 11 -59q1 -9 3.5 -28t3.5 -29q2 -22 7 -28q4 -7 -2 -11t-10 2q-8 10 -10 35q-1 9 -3.5 28t-3.5 30q-3 25 -11 57q0 2 -2.5 8t-3.5 10h-380v-605q0 -1 0.5 -3.5t0.5 -5v-6.5q21 -21 31 -26 q20 -10 59 -12q13 -1 78 -1h341q65 0 120 11q5 1 14.5 3.5t14.5 3.5q2 0 5 1q3 0 4 1q3 3 7 15q6 14 16 44q9 24 53 182q2 7 9 5t5 -9q-4 -15 -15 -56.5t-19.5 -70.5t-18.5 -56q-3 -9 -17 -44q-1 -1 -2 -5.5t-3 -8.5t-5 -7q-3 -2 -6 -3t-5.5 -1.5t-3.5 -0.5q-5 -1 -15 -3.5 t-15 -3.5q-67 -13 -123 -13q-57 0 -170.5 0.5t-170.5 0.5q-66 0 -79 1q-38 2 -64 14q-15 8 -34 25q-1 -1 -3 -2l-1 -1q-16 -16 -32 -24q-13 -7 -27 -12t-32 -7.5t-27 -3.5t-32 -1.5t-28 -0.5q-6 0 -23.5 0.5t-20.5 -1.5q-7 -2 -9 5t5 9q5 2 25 2h23q6 0 24 0.5t25 1t22.5 2 t24.5 3.5t21 6t22 10q18 10 29 21q6 6 7 8v14v1088v16l-7 7q-10 11 -28 21q-43 23 -108 23l-29 -1q-28 0 -28 1q-15 0 -24 2q-7 2 -5 9z" />
<glyph unicode="F" horiz-adv-x="930" d="M13 1551q2 8 8 6q15 -2 44.5 -2.5t36.5 -0.5q40 0 62 -8q20 -8 40 -26q3 -2 7.5 -7t6.5 -8q1 -1 2 -1q7 7 19 21q8 11 16 15q2 1 14 1h441q8 0 22.5 0.5t26.5 0.5t23 -1q23 -3 52 -11q4 -1 8 -2.5t8.5 -3.5t7.5 -3q1 0 3.5 -0.5t6 -2t5.5 -3.5q4 -4 9 -23 q3 -10 7.5 -29.5t6.5 -25.5q15 -57 28 -129q12 -64 13 -86q0 -8 -6 -8q-8 0 -8 6q-1 13 -14 86q-16 86 -27 128q-14 49 -15 53l-5 17q-4 2 -8 3q-14 5 -25 8q-27 8 -49 11q-10 1 -21.5 1t-26 -0.5t-22.5 -0.5h-441h-8q-2 -1 -11 -12q-3 -4 -11 -11.5t-11 -11.5q1 -4 0.5 -7 l-1 -6t-0.5 -4v-470h381q2 4 2 5q4 11 5 19q7 34 12 69q4 35 7 49q3 18 7 26q3 6 10 3t3 -11q-3 -5 -5 -21q-3 -16 -7 -48q-5 -40 -12 -71q-1 -4 -3.5 -11.5t-2.5 -8.5q0 -2 -1 -5q-1 -1 -1 -2t1 -2q1 -3 1 -5q1 -3 3 -9.5t3 -9.5q7 -25 10 -57q3 -19 7 -57q2 -19 8 -28 q4 -7 -2 -11q-7 -4 -11 2q-8 10 -10 35q-4 41 -7 58q-3 31 -10 55q-1 4 -5 17l-2 4h-381v-601l1 -6q1 -7 0 -11q33 -33 49 -40q17 -7 45 -9q13 -1 45.5 -1t50.5 -2q7 0 7 -8q0 -7 -8 -7q-16 1 -48 1.5t-48 1.5q-34 2 -51 10q-18 8 -50 40q-3 -4 -10 -10t-8 -7 q-19 -17 -42 -26q-22 -8 -86 -8q-4 0 -13.5 -0.5t-14.5 -0.5q-20 0 -23 -1q-7 -2 -9 5t6 9q7 2 26 2h28q60 0 81 8q16 6 37 23q18 15 21 21l-1 3v6.5v6.5v1086v5t0.5 5t0.5 4v2l-5 5q-5 5 -15 13q-20 18 -35 24q-23 8 -56 8h-26t-31 0.5t-26 2.5q-8 2 -6 8z" />
<glyph unicode="G" horiz-adv-x="1144" d="M33 925q9 138 36 225q31 101 94.5 186t151.5 144q86 58 194 78q29 5 83 9q22 1 43 1q126 0 248 -49q5 -2 93 -46q4 -2 13 -6t13 -6q14 -7 15 -8q6 -6 10 -22l14 -42q33 -104 46 -161q2 -7 -6 -9q-7 -2 -9 6q-14 61 -45 159q-3 7 -8 21.5t-7 21.5q-1 2 -2 6t-2 6.5t-1 3.5 q-6 2 -11 4l-13 6.5t-14 6.5q-71 36 -91 45q-120 48 -242 48q-22 0 -43 -1q-54 -4 -82 -9q-104 -19 -187 -75q-86 -57 -148.5 -141t-92.5 -182q-26 -85 -35 -222q-1 -26 2 -61q8 -81 32 -149q54 -150 161 -253q41 -39 99 -75q134 -81 286 -81h18q122 4 193 23q43 13 60 20 q38 16 39 16q18 4 54 14q10 2 15 4l1 1q2 0 4.5 0.5t5.5 0.5q3 -1 11 -8q1 -1 3 -2.5t3 -2.5v20v416v6q-7 9 -30 24q-37 22 -102 22h-31q-7 -2 -9 6q-2 7 6 9q5 1 11.5 1t13 -0.5t9.5 -0.5q67 0 109 -25q28 -15 36 -28q2 -3 2 -14v-416v-23q0 -12 -1 -15q1 -3 0.5 -5.5 t-1.5 -4.5v-2q0 -27 -1 -40q-2 -42 -3 -64q-2 -24 -8 -80q-16 -153 -63 -253q-38 -79 -97 -107q-30 -14 -77 -18q-10 -1 -19 -1q-42 0 -69 15q-22 11 -45.5 45.5t-27.5 38.5q-6 6 0 11t11 0q7 -8 29 -40t40 -41q27 -14 63 -14q8 0 17 1q44 4 71 17q56 27 90 100 q46 97 62 248q6 56 8 80q2 42 3 64q1 13 1 38q0 2 1 6v3q-1 2 -3 4t-4 3.5t-4.5 4l-4.5 4.5l-3 3q-2 -1 -4 -1q-5 -2 -15 -4q-32 -9 -55 -14q-6 -2 -19.5 -7.5t-17.5 -7.5q-31 -12 -61 -21q-72 -20 -196 -24h-18q-155 0 -294 84q-66 41 -103 76q-108 104 -164 259 q-25 69 -33 153q-2 26 -2 49v15z" />
<glyph unicode="H" horiz-adv-x="1317" d="M18 300q-2 7 5 9q11 3 30 3h43q107 2 149 51q-1 3 -1 7v585v5.5v4.5v3v368q0 14 -0.5 41t-0.5 40v25v9q-1 1 -7 5q-23 15 -26 17q-23 12 -45 15q-5 1 -54 -2q-6 0 -18 -0.5t-18 -1.5q-5 -1 -8 -1q-7 -2 -9 5q-2 8 5 10q3 1 11 1q6 0 18 0.5t18 1.5q49 3 56 2 q22 -2 51 -17l27 -18q10 -5 13 -12q1 -2 1 -13v-26q0 -13 0.5 -40t0.5 -41v-365h5.5h5.5h2h704h48q11 1 31 1q1 0 2 -0.5t2 -0.5q0 1 -1 3v434q0 29 1 45q1 9 13 15q1 1 11 8t17 11q27 14 60 16q18 0 46 -2q6 -1 18.5 -1t18.5 -1q9 0 11 -1q7 -2 5 -10q-2 -7 -10 -5 q-3 0 -8 1q-6 1 -17.5 1.5t-17.5 0.5q-32 2 -45 2q-31 -2 -54 -14q-13 -8 -27 -18q-1 -1 -4 -3l-2 -2q-1 -13 -1 -43v-434q2 -5 0 -10v-594v-8q42 -48 142 -50h46q25 0 33 -2t6 -9q-2 -8 -9 -6q-4 1 -30 1q-8 0 -23.5 0.5t-22.5 0.5q-104 2 -149 51q-22 -19 -25 -21 q-41 -26 -129 -30q-15 -1 -46 -1q-20 0 -24 -1q-8 -2 -10 5t5 9q10 3 29 3h22q23 -1 23 0q83 4 121 28q12 8 26 22v8v586h-3h-30q-8 -1 -16 -1t-18 0.5t-15 0.5h-704h-9q-2 -1 -4 -3v-583l1 -3v-5q19 -19 33 -27q40 -21 107 -23h25.5t30.5 -0.5t26 -2.5q8 -2 6 -8 q-2 -8 -8 -6q-15 2 -44 2h-36q-71 2 -114 25q-17 9 -34 26q-46 -50 -156 -52h-43q-23 0 -26 -1q-7 -2 -9 5z" />
<glyph unicode="I" horiz-adv-x="505" d="M18 307q0 8 6 8q18 2 55 2t64 3.5t51 12.5t41 26l9 9v16v1082v20l-4 4l-13 13q-28 28 -46 31q-12 2 -40 2q-21 0 -26 3q-6 3 -3 10q4 7 10 4q2 -1 19 -1q28 0 43 -3q21 -4 53 -36l13 -13h1q21 21 32 31q16 13 23 16q14 5 35.5 5t31.5 1q6 2 8 -6q2 -6 -6 -8 q-11 -2 -32.5 -2t-31.5 -4q-4 -1 -19 -14q-6 -5 -33 -32q1 -5 0 -13l-1 -8v-1082q0 -1 0.5 -4l1 -6t-0.5 -7q19 -19 30 -26q33 -20 120 -24q8 -1 25.5 -1h25.5q17 0 23 -2q7 -2 5 -10q-2 -7 -10 -5q-5 2 -19 2q-8 1 -25.5 1h-25.5q-89 4 -126 26q-14 8 -31 25l-3 -3l-2 -1 q-18 -18 -47 -30q-26 -10 -53.5 -14t-66.5 -4t-53 -1q-8 0 -8 7z" />
<glyph unicode="J" horiz-adv-x="884" d="M-5 612q-2 6 6 8q7 2 9 -6q20 -104 44 -186q10 -32 16 -47l2.5 -7.5t1.5 -5.5l6 -2q3 -1 9.5 -3t9.5 -3q4 -1 30.5 -8.5t40.5 -12.5q48 -18 99 -24q19 -2 59 -4q14 -1 27 -1q44 0 86 8q108 22 166 95q21 28 27 39q23 44 36 132q11 75 11 247v657q-19 16 -53 29 q-49 18 -103 21q-13 1 -46 1t-51 2q-6 0 -6 8q0 6 8 6q16 -1 48.5 -1t48.5 -1q60 -5 106 -22q32 -12 56 -30q16 16 26 23q36 23 111 29q9 1 33 1t36 2q7 2 9 -6q2 -7 -5 -9q-14 -3 -36.5 -2.5t-34.5 -0.5q-72 -6 -104 -27q-13 -7 -28 -23v-657q0 -173 -11 -249 q-13 -87 -38 -136q-11 -22 -28 -43q-62 -78 -175 -100q-39 -8 -87 -8q-15 0 -30 1q-40 2 -60 4q-48 6 -102 25q-10 4 -70 21q-14 4 -20 6q-5 0 -11 5q-3 3 -5 7t-3 8v4q-6 16 -16 48q-24 79 -45 188z" />
<glyph unicode="K" horiz-adv-x="1270" d="M18 305q-2 7 6 9q4 1 25 1q7 0 21.5 0.5t21.5 0.5q69 2 107 19q21 9 37 25l8 8v2q0 3 -0.5 6.5t-0.5 6.5v49v186q0 101 -0.5 303t-0.5 303v168q0 7 -0.5 22.5t-0.5 23.5v13v4l-3 1l-4 4q-13 10 -26 17q-23 12 -47 15q-5 1 -50 -2q-46 -3 -47 -3q-6 -1 -8 7q-2 6 6 8 q7 1 15 1.5t17.5 1t14.5 0.5q47 3 54 2q28 -3 53 -17q11 -5 27 -18q9 -4 12 -10q1 -2 1 -11v-13q0 -7 0.5 -22.5t0.5 -23.5v-168q0 -80 0.5 -240.5t0.5 -240.5q2 0 5 0.5t4 0.5q7 1 20 7q7 3 20 8.5t19 7.5q3 1 10 3.5t11 4.5l7 3q1 1 7 9l21 27q10 13 30 38t30 38 q3 4 9.5 12t9.5 12q1 1 5 7t8 10q6 5 27 12q27 10 50 19q-1 4 0 10.5t1 7.5q0 5 1.5 11t3.5 12t3 8q1 5 3.5 14.5t4.5 13.5q2 10 5 15q3 6 20 26q6 8 19 24t19 24l81 102q41 51 45 59q2 4 9 30q12 36 14 43l-1 1l-9 6q-9 5 -30 9q-20 3 -58 3.5t-51 1.5q-6 0 -6 8q0 7 8 7 q13 -1 51 -1.5t59 -3.5q21 -4 34 -11q5 -2 11 -7l2 -2q2 1 8.5 3t8.5 3q28 8 42 11q19 4 58 6h29q2 0 6.5 1t7.5 1q8 0 8 -7q0 -8 -6 -8q-2 0 -7 -1t-8 -1h-10h-10.5h-8.5q-38 -2 -57 -6q-26 -6 -39 -10q-1 0 -7.5 -2.5t-10.5 -3.5q-2 -8 -7 -23.5t-7 -21.5l-3 -12 q-3 -12 -7 -19q-7 -14 -46 -63q-14 -17 -41 -51t-41 -51q-6 -8 -18 -23.5t-19 -23.5q-17 -19 -19 -23q0 -1 -1.5 -5.5l-2.5 -7.5l-3.5 -14t-4.5 -14q-7 -23 -7 -27v-20q0 -1 2 -3t5 -5.5t5 -5.5l30 -36q32 -38 122 -148q18 -21 65.5 -79.5t73.5 -90.5q12 -15 36.5 -44.5 t36.5 -43.5q3 -4 8 -10t9 -11l8 -10q31 -41 43 -75q1 -3 9 -29q2 -6 2 -7q2 -2 9.5 -4t10.5 -3q5 -2 20 -7.5t23 -7.5q67 -20 104 -26q12 -2 34 -2.5t31 -1.5q3 0 7.5 -1.5t6.5 -1.5q8 -2 6 -8q-2 -8 -9 -6q-12 2 -13 2q-6 1 -29.5 2t-36.5 3q-44 7 -106 25q-9 3 -24.5 9 t-19.5 7q-20 7 -23 9q-7 5 -7 15q-3 10 -9 28q-15 37 -41 71q-4 5 -12.5 15t-12.5 15q-12 14 -36 43.5t-36 44.5q-73 87 -140 170q-6 8 -52 64t-70 85l-30 36q-1 2 -4.5 5t-5.5 6q-17 -7 -51 -19q-19 -7 -21 -9q-6 -6 -12 -15q-3 -4 -9.5 -12t-9.5 -12q-10 -13 -30 -38.5 t-30 -38.5q-3 -5 -10 -13t-11 -13q-4 -6 -9 -11l-12 -6q-3 -1 -10 -3.5t-10 -4.5q-7 -3 -20.5 -8.5t-19.5 -7.5q-1 0 -9 -3.5t-13 -4.5q-4 -1 -12 -1v-110v-186v-49q0 -1 0.5 -3.5t1 -6t0.5 -6.5q22 -22 27 -25q32 -21 104 -25q18 -1 53 -1q27 0 37 -3q7 -2 5 -9t-9 -5 q-3 1 -33 1q-18 0 -54 2q-73 4 -111 28q-11 7 -28 24l-5 -5q-18 -17 -40 -28q-41 -18 -114 -20q-8 0 -22 -0.5t-21 -0.5q-16 0 -23 -1q-6 -2 -8 6z" />
<glyph unicode="L" horiz-adv-x="892" d="M18 1554q3 6 11 2q1 -1 18 -1q8 0 22 -0.5t21 -0.5q94 0 138 -29q14 -9 26 -22q22 20 36 27q43 23 120 25h32t39 2q6 2 8 -6q2 -7 -6 -9q-15 -2 -40.5 -2h-31.5q-74 -2 -114 -23q-17 -9 -35 -27v-7t-0.5 -5.5t-0.5 -3.5v-1092v-14q4 -7 22 -16q23 -14 92 -18 q11 -1 40.5 -0.5t41.5 0.5q36 -1 219 -1q27 0 39 1q28 3 53 12q3 1 9.5 3.5t10.5 3.5l7 2q0 1 1 4t2 7t2 6q10 36 14 54q22 94 30 141q10 60 11 72q0 7 8 7q7 0 7 -8q-1 -13 -11 -73q-9 -51 -30 -143q-6 -27 -15 -54q-5 -21 -9 -24q-2 -2 -4.5 -3t-4.5 -1.5t-3 -0.5 q-3 -1 -9.5 -3.5t-10.5 -3.5q-31 -10 -56 -13q-14 -1 -41 -1q-183 0 -220 1q-12 0 -41 -0.5t-41 0.5q-71 4 -99 20q-12 6 -21 15q-26 -26 -51 -37q-33 -14 -121 -14q-41 0 -48 -2t-9 5q-2 8 5 10t52 2q86 0 115 12q21 9 49 37v15v1092q0 2 0.5 5.5t0.5 5.5v4q-5 7 -27 23 q-42 28 -130 28h-43q-19 0 -26 4q-6 3 -3 10z" />
<glyph unicode="M" horiz-adv-x="1451" d="M18 302q-2 8 5 10q8 3 17 3.5t20 -0.5t15 -1q36 0 69 9q8 2 24 8l6 3v12l3 45q1 15 1 187v766q0 19 1 22t17 19l35 35v5l-10 58q0 2 -0.5 6t-1 6.5t-0.5 3.5q-1 1 -12 10q-23 18 -42 24q-16 5 -50 7h-41t-42 1q-7 0 -7 8q0 7 8 7h40.5t41.5 -1q36 -2 54 -8q22 -7 47 -26 q13 -10 16 -15q2 -3 3 -7t1 -8v-5l10 -59v-4q4 -2 7 -4q4 -2 11.5 -6t11.5 -6q10 -5 13 -9q3 -5 9 -23q3 -7 8.5 -21t8.5 -21q17 -44 53 -130l165 -411q17 -42 50 -125.5t50 -125.5q5 -12 14 -33.5t11 -25.5q4 -11 8 -13l2 1q1 2 2 2q3 1 8 4t7 4t43 23q15 7 19 13 q7 10 17 36l26 61q14 33 42.5 98.5t42.5 98.5q28 65 83 196t83 196q34 78 50 117q3 7 9 19.5t8 18.5q8 19 9 21q3 4 7.5 6.5t9.5 4.5t6 3q8 5 24.5 13.5t24.5 12.5l8 4t8 5l3 1v1q1 1 1 2q1 3 1 7t1 7q8 49 10 56q0 1 0.5 5t1.5 7t3.5 7.5t5.5 6.5q36 26 91 28q5 0 38 -0.5 t35 2.5q7 2 9 -6q2 -7 -5 -9q-5 -3 -39 -2.5t-38 0.5q-51 -2 -83 -25l-1 -3q-1 -3 -1.5 -7.5t-1.5 -7.5q-2 -9 -5 -27.5t-5 -27.5q0 -3 -1 -7.5t-2 -6.5q1 -1 0 -4v-22v-230q0 -98 0.5 -294t0.5 -294v-164v-46l2 -5q1 -5 0 -9q4 -2 10.5 -7.5t10.5 -7.5q30 -19 68 -25 q28 -4 64 -4t45 -3q7 -2 5 -9t-10 -5q-9 3 -40 3q-44 0 -67 3q-36 5 -72 27q-8 5 -22 15l-2 -2l-2 -1q-10 -8 -22 -16q-38 -24 -84 -26q-15 -1 -43 -1q-17 0 -23 -2q-8 -2 -10 5q-2 8 5 10q5 2 27 2q30 0 44 1q42 2 76 24q2 1 20 14q3 2 6 5v2q0 3 -0.5 6t-0.5 6v46v164 q0 98 -0.5 294t-0.5 294v230q0 2 0.5 5t0.5 5q-2 -1 -6.5 -3.5t-6.5 -3.5q-16 -8 -48 -26l-19 -11q-2 -3 -8 -17q-3 -6 -8.5 -18.5t-7.5 -19.5q-16 -39 -50 -117q-28 -65 -83.5 -195.5t-83.5 -195.5l-84 -198l-26 -61q-13 -32 -18 -39q-3 -5 -25 -17q-8 -4 -23.5 -12.5 t-20.5 -11.5q-3 -2 -7.5 -3.5t-6.5 -3.5q-1 -2 -3 -3l-1 -149q0 -7 -8 -7q-7 0 -7 8l1 148q-6 3 -15 20q-4 10 -12 29.5t-12 29.5q-17 42 -50.5 125.5t-50.5 125.5l-165 411q-31 74 -53 131q-3 7 -8.5 21t-8.5 21q-1 1 -3.5 8.5t-4.5 10.5q-3 3 -7 5t-11.5 6t-11.5 6 q-1 0 -5 2l-34 -33q-12 -10 -14 -14v-17v-766q0 -172 -1 -188q-2 -30 -3 -46l1 -11q33 -17 69 -18q8 0 24.5 0.5t25.5 -0.5q17 -2 27 -6q5 -3 15 -10q6 -6 1 -11q-6 -6 -10 -1l-12 9q-4 2 -22 4q-8 0 -24.5 -0.5t-25.5 0.5q-41 1 -77 20q-3 -2 -7 -2q-8 -4 -26 -10 q-27 -8 -73 -8q-38 0 -48 -3q-7 -2 -9 5z" />
<glyph unicode="N" horiz-adv-x="1233" d="M9 306q0 7 7 7q3 0 10 1.5t11 1.5q97 2 121 8q16 4 53 20v6.5t0.5 5t0.5 3.5v46v169v690q0 27 1 40q0 15 5 26q1 2 14 15l22 22q-1 3 -1 8q-1 4 -3 11.5t-3 11.5q-16 58 -22 88q-2 6 6 8q6 2 8 -6q5 -25 22 -86l6 -24q2 -6 2 -7q1 -1 3.5 -2t6.5 -2.5t6 -2.5q5 -2 17 -7 t17 -7q2 -1 6 -2t8 -2.5t7 -3.5q4 -3 7 -7t6 -8.5t4 -6.5q15 -18 41 -56q23 -33 71 -100t72 -101l246 -345q62 -86 93 -130q4 -7 14 -20t15 -19q17 -22 18 -23q3 -2 10.5 -4.5t11.5 -4.5l42 -18q1 2 3 3.5t4 2.5l2 1l19 19q7 7 8 9q4 14 4 60q0 15 0.5 44.5t0.5 43.5v827 q-1 0 -3 2l-2 1l-7 3.5t-8 3.5q-28 10 -48 14q-21 4 -64 4.5t-63 3.5q-8 2 -6 9q2 8 8 6q19 -3 61.5 -3.5t65.5 -4.5q22 -4 52 -16q13 -5 16 -7l5 -3q2 2 4 3q6 3 16 7q15 6 51 15q30 6 76 6q35 0 44 2q7 2 9 -6q2 -7 -6 -9q-11 -2 -47 -2q-50 0 -73 -5q-32 -8 -48 -15 q-2 -1 -7.5 -3.5t-8.5 -3.5q-1 -1 -3 -2v-827v-89q0 -45 -5 -63q-1 -5 -11 -15l-20 -20l-7 -7q0 -1 1 -3t1 -3l6 -24q2 -8 7 -25t8.5 -31t5.5 -27q1 -6 -7 -8q-6 -2 -8 6q-1 12 -4.5 25.5t-9 30t-7.5 26.5q-1 4 -3 11.5t-3 11.5q0 1 -1 3t-1 3q-2 1 -45 19q-1 0 -10.5 3.5 t-14.5 7.5q-7 5 -22 26q-5 7 -14 20t-14 19q-31 44 -93 130q-41 58 -123 173.5t-123 172.5q-24 33 -72 100t-71 100q-26 38 -40 56q-2 3 -5.5 7t-5.5 7t-4 4t-4.5 2t-6 2.5t-6.5 2.5q-5 2 -17 7t-17 8q-1 0 -4 1l-6 2l-6 2l-22 -22l-4.5 -4.5t-4.5 -4t-2 -2.5q-1 -1 -3 -20 q-1 -13 -1 -39v-690v-169v-47q0 -3 -0.5 -8t-0.5 -6q1 0 3.5 -1t4.5 -2q17 -8 30 -12q21 -7 44.5 -9.5t55 -3t47.5 -1.5q7 0 7 -8q0 -7 -8 -7q-15 1 -46.5 1.5t-56.5 3t-47 10.5t-33 13q-5 0 -9 3q-36 -16 -57 -21q-28 -7 -123 -9q-3 0 -10 -1t-11 -1q-8 0 -8 7z" />
<glyph unicode="O" horiz-adv-x="1188" d="M38 932q0 15 2 39q4 58 8 87q21 154 96 276q49 77 124 135t162 85q53 17 98 22q8 1 24.5 2t24.5 2q6 1 12 1t13 -0.5t11 -0.5q46 -2 67 -5q138 -20 248 -114t165 -228q41 -99 52 -217q6 -55 6 -80v-6q-9 -192 -108.5 -358t-268.5 -234q-55 -21 -106 -28q-36 -5 -72 -5 q-49 0 -96 9q-143 26 -252 132q-43 42 -87 106q-100 143 -118 314q-4 45 -5 66zM53 933q0 -11 5 -66q19 -168 115 -306q48 -68 86 -105q106 -103 243 -127q46 -9 94 -9q35 0 71 5q53 7 102 27q164 66 261.5 228t105.5 350v6q0 23 -6 78q-11 114 -51 213q-53 130 -160 221.5 t-241 111.5q-22 3 -65 5q-19 2 -34 0q-8 -1 -24.5 -2t-24.5 -2q-45 -6 -96 -22q-85 -26 -158 -82t-120 -131q-72 -115 -93 -271q-4 -29 -8 -85q-2 -26 -2 -37z" />
<glyph unicode="P" horiz-adv-x="891" d="M18 307q-2 6 6 8q12 2 26 2.5t30.5 0.5h25.5q57 2 90 16q20 8 39 24l11 11v3q0 2 -0.5 5.5t-0.5 6.5v236q0 106 -0.5 318t-0.5 318v216q0 2 0.5 5.5t0.5 5v3.5q-3 5 -24 21q-40 30 -141 30q-46 0 -56 2q-8 2 -6 8q2 8 8 6q5 -1 54 -1q34 0 53 -1t48 -9t49 -23 q14 -10 22 -19q24 24 40 31q22 10 67 12q48 3 98 3q48 0 72.5 -0.5t70 -5t74.5 -13.5t63.5 -27.5t60.5 -45.5q37 -38 53 -87q6 -16 12 -52q5 -35 5 -45q0 -18 -9 -61q-15 -76 -58 -124q-60 -67 -177 -90q-52 -11 -172 -11h-192v-364v-236q0 -1 0.5 -3.5t0.5 -5.5v-7 q18 -18 29 -25q35 -21 119 -25h26t26 -1q17 0 24 -3t4 -9q-4 -7 -10 -4q-2 1 -18 1h-25.5t-26.5 1q-87 4 -126 27q-17 10 -30 24q-2 -2 -4.5 -4t-3.5 -3q-15 -14 -43 -26q-37 -16 -95 -18h-36.5t-44.5 -2q-6 -2 -8 6zM259 1256q0 -42 0.5 -127.5t0.5 -128.5h192 q120 0 170 10q112 23 168 86q40 44 55 115q8 40 8 60q0 7 -5 42q-6 32 -11 49q-15 46 -50 82q-30 31 -68 50t-88 26.5t-82.5 9t-91.5 1.5q-48 0 -96 -3q-43 -2 -63 -11q-16 -8 -38 -30v-6.5t-0.5 -5t-0.5 -3.5v-216z" />
<glyph unicode="Q" horiz-adv-x="1138" d="M38 896q0 9 5 74q9 96 24 152q55 219 198 333q75 60 151 83q51 17 123 20h23q79 0 147 -18q115 -32 209 -120q122 -113 171 -311q15 -57 22 -140q0 -5 2 -21t2 -25q0 -2 -6 -77q-9 -86 -22 -142q-27 -117 -91.5 -213t-161.5 -156q-58 -35 -131 -51q-17 -3 -44 -7 q-3 -1 -9 -1h-7l-9 -9l-23 -23q-2 -2 -5 -4l-3 -3l1 -1q0 -2 1 -2l8 -16l8 -16q1 -1 4.5 -2.5t8.5 -4t8 -3.5q24 -13 63 -28q42 -16 69 -22q5 -1 24 -4q12 0 20 1q2 0 40 6q83 14 131 47q20 14 47 41q5 5 10 0q6 -5 1 -10q-27 -27 -49 -43q-52 -36 -137 -50q-2 0 -17.5 -2.5 t-23.5 -3.5q-13 -2 -23 -1q-18 2 -26 4q-32 8 -71 23q-32 11 -65 29q-24 12 -25 13q-3 3 -11 19l-8 16l-2 4q-4 1 -10.5 2.5t-9.5 1.5q-23 4 -50 12q-136 37 -259 152q-101 95 -157 217q-59 129 -65 280zM53 897q6 -151 63 -274q56 -122 154 -213q122 -113 253 -149 q32 -8 49 -11l10 -2.5t9 -1.5q1 2 3 3.5t4 2.5l2 2l24 24q11 11 13 12q5 2 20 2q27 4 43 7q72 16 126 49q187 114 246 360q13 54 22 139q6 75 6 76q0 9 -2 24.5t-2 20.5q-6 74 -22 138q-49 193 -166 303q-92 85 -203 116q-67 18 -143 18h-22q-64 -3 -119 -20 q-77 -24 -147 -80q-138 -110 -193 -324q-14 -56 -23 -150q-5 -64 -5 -72z" />
<glyph unicode="R" horiz-adv-x="1186" d="M18 305q-2 7 5 9t32 2h48q98 2 141 52v13v1102q0 1 -0.5 3t-0.5 4.5v5.5q-33 31 -50 38q-17 6 -57 6h-21q-50 -2 -65 -6q-7 -2 -9 5t6 9q18 5 68 7h18q43 0 65 -8q21 -8 52 -37q4 5 9 10.5t11 12t9 9.5q1 1 4.5 5.5t7 8t7.5 5.5q6 3 22 3l36 3q77 5 122 5h14q1 0 27.5 -1 t40.5 -2q91 -8 158 -43q93 -49 132 -155q12 -35 18 -70q7 -42 7 -59q0 -4 -3 -28q-3 -27 -9 -54q-27 -118 -116 -192q-25 -22 -66 -41l-21 -9q-2 -1 -5 -2q-2 -1 -3 -2h-2l-4 -7q-2 -3 -5.5 -8.5t-5.5 -8.5t-6 -8.5t-6 -7.5q-4 -4 -4 -5l2 -8q1 -4 3.5 -13t3.5 -14l6 -9 q2 -3 8 -10t8 -11q9 -12 25 -35t20 -29q26 -36 77 -108t77 -107q6 -8 18.5 -25t18.5 -26q20 -26 28 -44q1 -3 10 -35q1 -3 4 -11.5t4 -12.5q3 -1 7 -2.5t6 -2.5q4 -1 13 -4.5t14 -5.5q47 -15 103 -28q22 -5 63 -9h13q13 0 20 -3q7 -4 4 -10q-3 -7 -9 -4q-3 1 -8 1.5t-10 0 t-11 0.5q-44 4 -66 9q-46 10 -103 29q-6 2 -16 5.5t-13 4.5q-4 2 -12 4l-27 -27q-14 -14 -18 -16q-11 -6 -37 -8q-19 -2 -58 -2q-23 0 -26 -1q-7 -2 -9 6q-2 7 6 9q4 1 29 1q39 0 57 2q23 2 32 6q2 1 14 13q4 5 13 14.5t14 13.5q-1 4 -3.5 12t-3.5 11q-7 26 -10 34 q-6 14 -26 42q-6 8 -18.5 25t-18.5 26q-26 35 -77 107t-77 107q-9 12 -25 35t-20 29q-3 3 -8 10t-8 11q-7 11 -8 14q-3 9 -7 27l-1 1q0 2 -1 3.5t-1 3.5q-37 12 -42 13q-15 3 -34 3.5t-35 0t-35 0.5h-199v-501q0 -1 0.5 -3.5t0.5 -5v-6.5q18 -18 32 -26q32 -19 117 -23 q9 -1 26 -1h26q19 0 24 -3q7 -4 4 -10q-4 -7 -10 -4q-2 1 -4.5 1t-7 0.5t-7.5 0.5q-8 1 -25 1h-26q-88 4 -124 25q-15 8 -33 26q-47 -49 -148 -51q-8 0 -24.5 -0.5t-24.5 -0.5q-24 0 -28 -1q-7 -2 -9 5zM259 897q22 0 62.5 0.5t74 0.5t63.5 -1q92 -3 106 -5q2 0 43 -13 q0 1 1.5 2t1.5 2q2 3 5.5 8t5.5 8t5.5 8.5t5.5 8.5q3 6 8 10q4 3 13 6l10.5 3.5t10.5 4.5q36 17 63 40q84 71 111 183q4 17 8 53q0 1 1.5 11t1.5 15q0 13 -7 57q-7 39 -17 67q-38 102 -124 147q-61 32 -154 41q-2 0 -67 3h-14q-43 0 -120 -5l-36 -3q-3 0 -6.5 -0.5t-6 -1 t-3.5 -0.5q-6 -4 -15 -15q-28 -31 -31 -35v-14v-586z" />
<glyph unicode="S" horiz-adv-x="774" d="M37 291q-5 5 0 11q8 8 17 14l7 6q1 2 2 10t3 13q8 26 30 45q1 0 4 4t6 6q-4 13 -6 26q-2 11 -6 35q-10 66 -11 99q-1 13 0 36t1 30q0 8 8 8q7 0 7 -8t-1 -30.5t0 -34.5q1 -31 11 -97q2 -11 6 -35q1 -4 2.5 -13t2.5 -13l7 -4q6 -3 28 -10q26 -9 35 -14q6 -3 35 -20.5 t45 -23.5q41 -16 111 -22q16 -1 32 -1q47 0 86 11q65 18 117 67q51 48 74 116q5 14 14 62q8 44 10 65q0 3 1.5 12.5t1.5 14.5t-5 35q-10 62 -37 102q-23 34 -59 64q-11 9 -23 17.5t-26.5 16.5t-24.5 13t-29 13t-26.5 11.5t-29.5 12t-27 10.5q-138 55 -209 108 q-89 67 -112 154q-8 30 -8 47q0 9 5 44q6 47 14 75q10 33 30 66q17 26 43 51q46 43 98 61q36 14 88 17q35 3 43 2q68 -3 129 -30q37 -16 68 -33q4 -2 9.5 -5.5t6.5 -4.5q9 -5 11 -7q5 -6 5 -16q3 -10 7 -37q11 -66 11 -146q0 -7 -7 -7q-8 0 -8 7q0 79 -11 144q-6 33 -6 35 t-0.5 5.5t-1.5 4.5q-1 0 -3 2q-3 1 -4 2q-2 1 -17 10q-35 20 -65 33q-59 25 -125 28q-6 0 -41 -2q-50 -3 -84 -16q-51 -19 -93 -58q-24 -23 -40 -47q-18 -31 -29 -64q-7 -23 -13 -71q-5 -35 -5 -42q0 -19 7 -44q21 -81 107 -146q74 -55 205 -106q5 -2 32 -12.5t35 -14 t30.5 -13.5t34.5 -17t29 -18t30 -22q40 -33 62 -67q29 -44 39 -107q5 -30 5 -38q0 -2 -3 -29q-2 -20 -10 -65q-9 -47 -15 -65q-26 -74 -78 -122q-56 -51 -122 -70q-44 -12 -93 -12q-15 0 -31 1q-73 6 -116 23q-18 7 -47 25t-34 20q-4 2 -34 12q-9 3 -27 11q-3 1 -7 3 q-1 0 -4 -3.5t-5 -5.5q-17 -15 -25 -39q0 -1 -2 -10.5t-5 -14.5q-1 -3 -3.5 -5t-4.5 -3t-3 -2q-6 -4 -16 -14q-5 -5 -10 0z" />
<glyph unicode="T" horiz-adv-x="1165" d="M8 1259q3 25 13 68q4 20 29 117q5 21 14 49q4 17 9 22t11 5q3 1 10 3.5t11 3.5q51 15 88 17q18 1 38 1t44.5 -0.5t37.5 -0.5h54h64h55q63 -2 98 -25q1 -1 7 -5t10 -8q18 16 38 25q11 5 21.5 7.5t26 4t21 1.5h26h21.5h133q9 0 26 0.5t31.5 0.5t26.5 -1q36 -2 87 -17 q4 -1 11 -3.5t10 -3.5q6 0 12 -5q3 -3 5 -7.5t3 -9.5v-5q2 -5 5 -15t5.5 -18t4.5 -15q19 -66 29 -118q2 -11 6 -33.5t7 -33.5q2 -7 -5 -9t-9 6q-3 11 -7 33t-7 33q-11 56 -29 118q-4 16 -14 48q-1 3 -2.5 8.5t-1.5 6.5l-6 2q-4 1 -11.5 3t-10.5 3q-51 15 -84 17q-14 1 -82 1 h-133q-79 0 -110 -13q-19 -9 -36 -24v-6.5t-0.5 -5t-0.5 -3.5v-1092q0 -1 0.5 -3.5t0.5 -5v-6.5q20 -20 29 -25q34 -21 117 -25q8 -1 25.5 -1h25.5q19 0 26 -2t5 -10q-2 -7 -10 -5q-6 2 -22 2q-8 1 -24.5 1h-25.5q-86 4 -124 27q-17 11 -30 24q-1 -1 -3 -2l-1 -1 q-16 -16 -32 -24q-41 -23 -138 -25q-47 0 -51 -1q-7 -2 -9 5t6 9t54 2q92 2 131 23q15 8 28 21l8 8v6q-1 5 -1 8v1092q0 2 0.5 5.5t0.5 5v3.5q-3 3 -19 15q-31 20 -90 22q-57 1 -172 1q-106 0 -119 -1q-33 -2 -84 -17l-21 -6l-6 -2q0 -1 -2 -6.5t-3 -8.5q-10 -32 -14 -48 q-20 -78 -28 -117q-13 -55 -14 -66q-2 -8 -8 -7q-8 2 -6 8z" />
<glyph unicode="U" horiz-adv-x="1261" d="M0 1552q0 7 8 7q15 -1 58.5 -1t75 -5t58.5 -20q13 -7 33 -27q5 5 11 9q19 18 44 27q37 14 104 16h31t38 2q6 2 8 -6q2 -7 -6 -9q-14 -2 -39.5 -2h-31.5q-65 -2 -99 -15q-22 -9 -40 -24q-10 -8 -12 -12q1 -2 1 -4v-566q0 -147 4 -188q16 -155 64 -232q56 -88 172 -141 q49 -23 123 -26q7 0 44 2q109 11 197 70q37 24 66 49l11 10q11 11 18 16q6 4 18 7q3 1 16 4.5t19 6.5l8 8l20 20l15 15v13v931v5q-3 6 -22 20q-35 26 -113 30h-18.5t-23.5 0.5t-20 2.5q-7 2 -5 9q2 8 9 6q1 0 58 -3q82 -4 121 -33l9 -7q9 -7 13 -11q14 14 27 23q38 25 92 28 q9 1 40 0.5t38 2.5q7 2 9 -6q2 -7 -5 -9q-9 -4 -41.5 -3t-39.5 0q-51 -3 -85 -25q-13 -9 -28 -24v-6v-931v-3.5v-5.5v-6q2 -4 3 -10t1 -10.5t-0.5 -10t-0.5 -6.5v-65q0 -3 -0.5 -9.5t-0.5 -11t1 -6.5q2 -2 8 -6q16 -12 24 -16q18 -10 46 -10q9 0 19 1q19 1 57 5q30 3 31 3 q8 0 8 -7t-7 -7q-5 0 -15 -2t-15 -2q-38 -4 -57 -5q-11 -1 -21 -1q-34 0 -54 11l-24 18l-2 1q-2 1 -3 2q-5 -9 -15.5 -25.5t-12.5 -20.5q-17 -32 -29 -47q-5 -6 -10 -1q-6 6 -1 11q5 6 27 45q6 10 17 28.5t14 23.5v28v65v19q-2 -2 -4 -3.5t-3 -2.5l-20 -20q-8 -8 -12 -10 q-8 -4 -37 -12q-12 -4 -14 -5q-9 -7 -29 -25q-33 -29 -67 -51q-93 -61 -204 -72q-38 -3 -46 -2q-76 3 -129 28q-119 54 -177 146q-52 82 -67 239q-5 52 -5 189v566v4q-21 21 -34 28q-25 14 -53.5 18.5t-72 4.5t-59.5 1q-7 0 -7 8z" />
<glyph unicode="V" horiz-adv-x="1177" d="M0 1554q2 8 9 6q10 -2 33 -2q7 0 14.5 -0.5t16.5 -1.5t14 -1q56 -6 110 -29q15 -6 31 -14l6 -3q1 -1 2 -1.5t2 -0.5q24 26 41 34q19 10 45 13q27 4 80 4q37 0 46 2q7 2 9 -6q2 -7 -5 -9q-11 -2 -50 -2q-52 0 -78 -4q-27 -4 -41 -11t-37 -32q1 -3 1 -12q1 -7 3.5 -21 t3.5 -21q1 -4 3.5 -21t4.5 -25q5 -21 30 -84q20 -53 92 -244t110 -296q52 -143 67 -181q5 -13 17 -43.5t18 -47.5q3 -9 9 -25.5t9 -24.5q8 -23 9 -25l2 -1q2 -1 4.5 -2.5t4.5 -2.5l2 -2q2 1 6 4t6 4q20 10 41 22l4 2t3.5 1.5t3.5 1.5l1 1q3 5 5 10.5t4.5 12.5t4.5 11 q5 11 14.5 32.5t13.5 32.5q13 29 38 88.5t37 89.5q83 196 247 588q5 12 15 34t17.5 40t12.5 34q2 8 4.5 25t3.5 22q1 6 3.5 18.5t3.5 18.5q2 6 2 9q-4 4 -11 7q-19 8 -34 11t-31 4t-36.5 1t-32.5 1q-27 0 -36 2q-8 2 -6 8q2 8 8 6q6 -1 16 -1h18q82 -2 103 -6q20 -3 38 -12 q10 -4 17 -14q2 -3 2 -6.5t-0.5 -6t-1.5 -4.5v-2q-1 -6 -3.5 -18t-3.5 -18q-1 -3 -3.5 -21.5t-5.5 -27.5q-5 -17 -12.5 -35t-18 -41t-14.5 -34q-82 -196 -248 -588q-12 -29 -37 -88t-37 -89q-4 -11 -13.5 -32.5t-14.5 -32.5q-2 -4 -7 -16.5t-8 -19.5q-1 -3 -4 -5.5t-5 -3.5 t-5 -2l-3 -1q-28 -16 -42 -23q-5 -5 -12 -7l-1 -81q0 -7 -7 -7q-8 0 -8 8l1 81l-2 1q-11 6 -15 11q-1 2 -11 28q-3 9 -9.5 25t-9.5 25q-5 15 -17 45.5t-17 45.5q-23 60 -67 180q-38 103 -109 291.5t-93 248.5q-3 10 -10 27t-12 31.5t-9 27.5q-3 14 -8 48q-1 7 -3 20.5 t-3 20.5q0 2 -0.5 6t-1.5 5l-3 2q-2 1 -4.5 2t-4.5 2q-24 12 -29 14q-54 22 -107 28q-5 0 -14 1t-16 1.5t-14 0.5q-22 0 -35 2q-8 2 -6 9z" />
<glyph unicode="W" horiz-adv-x="1568" d="M0 1552q2 8 8 6q17 -2 54 -2.5t57 -3.5q34 -6 63 -23q14 -8 25 -16l3 -1q3 -2 4 -3q40 37 94 45q16 2 45.5 2t39.5 1q8 0 8 -6q0 -8 -7 -8q-10 -1 -40 -1.5t-45 -2.5q-48 -6 -87 -42v-4.5v-4.5v-2q2 -28 2 -41q2 -71 6 -139q6 -90 17.5 -269.5t17.5 -269.5 q3 -40 8.5 -123.5t8.5 -126.5q2 -42 4 -60v-9q1 1 5 3q26 14 38 21q5 2 13 6.5t13 7.5l10 5q3 2 6 13q2 6 7 18.5t8 18.5l54 126q34 80 102 239.5t102 239.5l61 143l18 42q8 20 14 26q2 3 25 14q8 4 22 12t18 10q12 6 17 9q0 3 0.5 8.5t0.5 6.5v31v59q0 31 1 46q0 6 8 6 q7 0 7 -8q-1 -14 -1 -44v-59v-32q0 -3 -0.5 -7.5t-0.5 -5.5q2 -2 4 -3q3 -2 8 -10q5 -9 20 -47q6 -15 35.5 -89t45.5 -113q44 -106 220 -545q5 -15 16.5 -43t17.5 -43l11 -27q1 -2 2 -5t1.5 -5t1.5 -3q3 -2 7 -4t10 -5.5t10 -5.5q2 -1 5 -2q19 17 38 32q2 2 5 4t5 3.5l4 3 t2 2.5t0.5 4.5t1 8.5t0.5 8q1 9 2.5 27t2.5 27q3 32 8.5 95t8.5 93q9 91 26 274t26 275q6 66 9 132q0 9 1 28t1 29q0 13 1 21l-2 2q-2 1 -6.5 3t-6.5 3q-22 10 -44 11q-19 1 -57 1q-24 0 -33 6q-6 4 -2 10t10 2q3 -2 25 -2q21 0 59 -2q26 -2 48 -12q7 -3 14 -7l2 -2l2 -1 l12 6q13 5 37 13q18 5 75 5q30 0 33 2q7 3 10 -3q3 -7 -3 -10q-7 -4 -40 -4q-54 0 -71 -5l-36 -12q-3 -4 -11 -6q-1 -6 -1 -20q-1 -9 -1 -28t-1 -28q-3 -68 -9 -134q-9 -92 -26 -275t-26 -274q-3 -32 -8.5 -94.5t-8.5 -92.5q-1 -9 -2.5 -27t-2.5 -27v-6.5t-1 -11t-3 -9.5 q-4 -6 -19 -18q-7 -5 -20 -16t-19 -16q1 -5 1.5 -11.5t0.5 -8.5q1 -7 3 -22.5t3 -23.5q3 -22 3 -23q2 -7 -6 -9q-7 -2 -9 5q-1 5 -2 15t-1 11q-1 8 -3 22t-3 22q0 2 -0.5 10t-1.5 11l-2 1l-4 2q-4 2 -10 5.5t-10 5.5q-9 4 -12 9l-4.5 9t-2.5 6l-11 28q-5 15 -16.5 43 t-17.5 43q-206 515 -219 545q-17 40 -82 202q-10 28 -19 45q-2 4 -3 5q-2 0 -4 1q-6 -3 -16 -9q-2 -1 -41 -22q-20 -10 -21 -11q-6 -7 -11 -21q-3 -7 -9 -21.5t-9 -21.5l-61 -143q-34 -80 -102 -239.5t-102 -239.5l-54 -125q-2 -6 -8 -18.5t-8 -18.5q-1 -1 -1.5 -4.5t-2 -7 t-4.5 -6.5t-13 -8q-4 -2 -13 -7t-14 -7q-13 -7 -37 -21l-1 -2q-2 -1 -4.5 -2.5t-5.5 -2.5l-3 -23l-8 -51l-3 -25q-2 -8 -9 -6q-8 2 -6 9l4 24l7 51l3 26l-1 5q-1 6 -1 15q-1 9 -4 59q-3 41 -8.5 124.5t-8.5 126.5q-6 90 -17.5 269.5t-17.5 269.5q-4 68 -6 139q0 15 -2 41v10 q-1 1 -4 3q-2 2 -4 3l-24 15q-30 17 -58 21q-18 3 -55.5 4t-55.5 3q-8 2 -6 8z" />
<glyph unicode="X" horiz-adv-x="1270" d="M3 304q-2 8 5 10q3 1 52 4q64 5 109 18l30 9q10 2 11 3q0 1 2 6.5t3 8.5q5 16 15 50q3 11 9.5 22.5t11.5 18.5t15 20t13 17q36 49 104 141t81 110l30 42t30 41q17 25 30 40q3 3 8 7.5t6 5.5l45 44v9v24q-3 3 -7.5 8t-8 8.5t-7.5 6.5q-1 1 -4.5 2.5t-7.5 4t-7 6.5 q-16 18 -44 61q-7 11 -22 32.5t-23 32.5q-104 150 -155 226q-2 4 -15 21.5t-19 27.5q-15 24 -20 37q-3 9 -7 24.5t-5 20.5q0 1 -1 4t-1.5 5t-0.5 3q-2 2 -18 6q-38 14 -43 15q-96 30 -166 32q-7 0 -7 8q0 7 7 7q79 -4 171 -32q8 -2 44 -15q8 -2 16 -6l26 26q1 1 4 5t6.5 7 t7.5 5q9 4 43 7q17 1 50 1h28q6 2 8 -6q1 -6 -7 -8q-10 -1 -29 -1q-34 0 -50 -1q-28 -2 -36 -6q-4 -2 -15 -13l-26 -26q3 -9 3 -14q10 -37 12 -43q4 -11 18 -33q6 -8 17.5 -24.5t16.5 -25.5l156 -225l45 -66q39 -55 42 -59q1 -1 7.5 -4.5t10.5 -6.5q8 -6 21 -21q46 46 51 52 t14.5 21.5t14.5 22.5q15 20 44 59.5t44 59.5q19 26 58.5 79t59.5 80q7 9 22.5 29.5t26.5 36.5t19 31q7 12 14 38t11 35l-2 2q-1 1 -3.5 4t-4.5 5t-4 3q-7 6 -27 8q-18 2 -56 2q-25 0 -39 3q-8 2 -6 9t9 5t36 -2q39 0 58 -2q24 -2 34 -11l13 -13l3 -3q1 0 4 1t6.5 2.5 t5.5 2.5q25 7 48 11q39 8 92 11h18t21 2t9 -5t-5 -9q-9 -2 -25 -2.5t-17 -0.5q-42 -3 -91 -11q-15 -3 -45 -11l-18 -6q-3 -7 -10.5 -34.5t-15.5 -41.5q-9 -16 -19.5 -31.5t-27 -37t-22.5 -28.5q-20 -26 -59.5 -79t-58.5 -80q-15 -20 -44.5 -60t-43.5 -60q-4 -6 -13 -21.5 t-16 -23.5l-56 -56v-24v-8l7 -7q2 -2 5 -5.5t5.5 -5.5t4.5 -4q1 0 6.5 -3.5t9.5 -7.5q8 -8 16 -19t17 -24t13 -19l231 -321q42 -60 56 -95q1 -4 4 -10.5t5 -12t3 -10.5q0 -2 0.5 -4t0.5 -4l1 -2q1 -1 14 -6q8 -3 37 -13q64 -22 108 -28q16 -2 48 -4q12 0 20 -1q4 -1 19 -3 q8 -2 7 -8q-2 -9 -9 -7q-11 1 -18 3q-6 1 -20 1q-32 2 -50 4q-49 7 -110 29q-17 6 -37 14q-1 1 -8 3t-10 4q-8 6 -8 18q-5 18 -11 32q-16 38 -54 92q-198 276 -231 320q-40 56 -45 61q-1 1 -13 9q-7 5 -18 16l-4 4l-41 -42q-3 -3 -8 -7t-6 -5q-6 -6 -16 -20.5t-13 -18.5 q-10 -13 -30 -40.5t-30 -41.5q-36 -49 -104 -141t-81 -110q-39 -52 -46 -75q-8 -28 -16 -50l-1 -6q-1 -6 -3 -9q15 -15 18 -16q13 -7 30.5 -9t41 -2t36.5 -1q6 0 6 -8q0 -7 -8 -7q-19 2 -36.5 1t-39 1.5t-37.5 11.5q-13 7 -23 19q-2 -1 -5.5 -2t-4.5 -1q-5 -1 -15 -4t-15 -4 q-41 -11 -111 -19q-6 -1 -23.5 -1.5t-25.5 -2.5t-10 5z" />
<glyph unicode="Y" horiz-adv-x="1119" d="M21 1551q2 8 9 6q2 0 49 -3q46 -2 75 -11q34 -12 69 -27q3 -1 9.5 -4t9.5 -5q1 0 3 -2q1 -1 2 -1q2 1 5 5t4 5q2 2 7.5 8t9 10t9.5 8.5t12 6.5q17 7 45 7h36.5t35.5 1q8 0 8 -7q0 -8 -6 -8q-14 -1 -37 -1h-36q-28 0 -41 -6q-5 -2 -10 -6.5t-13 -13t-10 -10.5l-2 -2 q-1 -2 -3 -4l-4 -4q2 -7 5 -20t4 -20q4 -18 7 -27q7 -16 25 -48q8 -13 24 -40.5t24 -41.5q21 -37 71.5 -122.5t77.5 -132.5q20 -35 62 -105q2 -3 5.5 -9t4.5 -9q3 -5 5 -6l4 -2l16 8q26 12 38 18l20 10l1 2q1 2 2.5 4.5t2.5 4.5q3 5 7.5 14l6.5 13t46 86q22 41 66 122.5 t66 122.5l45 84q22 41 25 49q5 12 10.5 37t9.5 37l-6 8q-6 4 -19 6q-10 1 -21.5 1.5t-25.5 1t-22 0.5q-27 0 -36 2q-7 2 -5 9t9 5q5 -1 32 -1q8 0 22 -0.5t25.5 -1t22.5 -1.5q18 -2 27 -9q2 -1 3.5 -2.5t2.5 -3t2 -2.5l2 1l4 2q3 1 9.5 3t9.5 3q18 5 54 9q19 2 55 2 q24 0 29 2q6 3 9 -4q3 -6 -4 -10q-7 -3 -34 -3q-37 0 -54 -2q-34 -4 -51 -9q-3 -1 -8.5 -2.5t-8.5 -2.5q-1 -1 -8 -3q-3 -9 -9 -36t-12 -42q-10 -23 -26 -51q-8 -14 -23 -41.5t-22 -41.5l-132 -246l-45 -84q-3 -4 -8 -13.5t-7 -14.5l-3 -6q-3 -6 -6 -9q-4 -4 -13.5 -8 t-10.5 -4q-13 -6 -37 -18q-1 0 -6 -3.5t-9 -4.5v-54q-1 -8 -4 -20.5t-3 -14.5q-1 -4 -4 -19t-5 -23q-2 -7 -8.5 -17.5t-6.5 -11.5q-5 -11 -16 -31.5t-17 -30.5q-88 -164 -104 -194q-31 -60 -34 -67q-2 -4 -4.5 -13.5t-3.5 -12.5q-3 -11 -11 -33q0 -5 -2 -9q14 -14 22 -18 q17 -8 55 -8.5t48 -1.5q8 -2 7 -8q-2 -8 -8 -7q-1 0 -44 1t-65 11q-11 5 -26 20q-6 -2 -8 -2q-11 -4 -26 -7q-51 -15 -118 -20q-6 0 -18 -1t-18 -1q-12 0 -15 -2q-7 -3 -10 3t4 10q8 4 20 4q6 1 18 1t18 1q70 5 115 19q6 1 26 8l8 2v2q1 1 2 3t1 4q7 19 11 34q5 18 8 26 q2 6 34 69l105 195q6 11 17 31t16 31q2 3 7.5 12t6.5 14q2 7 4.5 22t3.5 18q1 5 3.5 16.5t3.5 16.5v16.5v19v16.5l-3 2q-5 2 -12 13q-1 3 -4.5 8.5t-5.5 8.5q-30 50 -62 106q-25 43 -75 127.5t-74 127.5l-48 81q-21 38 -26 50q-3 7 -8 30q-6 26 -9 40q-3 1 -5 3l-1 1 q-3 2 -9.5 4t-9.5 4q-31 14 -68 27q-23 8 -71 10l-20 1q-20 0 -31 2q-8 2 -6 9z" />
<glyph unicode="Z" horiz-adv-x="975" d="M42 1347q13 69 31 124q10 29 13 37q4 8 5 11q0 1 -1 2q-1 2 -4 5.5t-5 5.5q-14 22 -15 41q0 8 7 8t7 -7q0 -13 14 -33q1 -2 3 -5.5t4 -5.5h1q14 5 54 10q16 2 71 2h523q36 0 46 -9q5 -4 26 -25q1 -1 3 -3.5t3 -3.5l4 2q7 3 23 9q46 18 89 43q7 4 10 -2q3 -7 -3 -10 q-45 -26 -91 -45q-14 -6 -22 -9q-3 -2 -6 -3q-3 -9 -9 -38t-14 -44q-7 -14 -27 -40l-39 -54q-22 -30 -66 -91.5t-66 -92.5q-265 -369 -309 -428q-24 -33 -71 -99t-71 -99q-3 -4 -11 -15t-13 -18t-8 -15t-7 -25.5t-6 -23.5q-1 -3 -3.5 -12t-3.5 -14q-1 -2 -2 -6q-1 -1 -1 -2 v-1l1 -1q2 -1 3 -2l18 -18q1 -1 3 -3.5t3.5 -3.5t2.5 -2q10 -6 46 -8h88h408h75q20 1 60 7q24 4 35 6q5 1 10 1q1 1 2 3t2 5.5t2 4.5q14 32 19 49q23 74 33 128q3 17 7 44q3 25 4 28q2 7 9 5t5 -9q0 -1 -3 -26q-4 -30 -7 -45q-8 -46 -34 -129q-6 -20 -19 -50q-6 -18 -12 -21 t-15 -3l-36 -6q-40 -6 -61 -7q-13 -1 -76 -1h-408q-59 0 -89 1q-39 2 -52 10q-3 2 -13 12l-17 17q-8 4 -9 12q0 7 4 15q1 5 3.5 13t3.5 13q11 43 14 51q5 10 33 51q24 33 71 98.5t71 98.5q46 63 97.5 134.5t114.5 159t97 135.5q22 31 66 92.5t66 91.5q7 9 20 26.5t19 26.5 q20 30 25 38q7 13 13.5 42.5t9.5 37.5q-2 1 -3.5 2.5t-2.5 3.5l-1 1q-3 3 -7.5 8t-8.5 9t-8 7q-8 7 -37 7h-523q-47 0 -70 -3q-37 -4 -51 -10q-1 -3 -6 -13q-5 -12 -13 -36q-21 -70 -31 -121q-2 -8 -8 -6q-8 2 -6 8z" />
<glyph unicode="[" horiz-adv-x="455" d="M90 -41v1627q0 9 3 13l17 17q8 8 10 9q3 1 24 1h271q8 0 8 -8t-8 -8h-271q-3 0 -7 0.5t-6.5 0.5h-4.5l-5 -5l-16 -16v-4v-1627v-4l16 -16l5 -5h17h272q8 0 8 -8q0 -7 -8 -7h-272q-19 0 -22 1t-10 8l-19 19q-2 3 -2 12z" />
<glyph unicode="\" horiz-adv-x="467" d="M12 1643q-2 7 5 9t9 -5l10 -30l422 -1370l7 -24q2 -8 -5 -10t-9 5l-8 25l-422 1370z" />
<glyph unicode="]" horiz-adv-x="455" d="M32 -74q0 8 8 8h272h17l5 5l16 16v4v1627v4q-4 5 -15 16q-3 5 -5 5h-4t-6.5 -0.5t-7.5 -0.5h-272q-8 0 -8 8t8 8h272q20 0 23 -1q2 -1 4 -2.5t3 -2.5l2 -2l1 -2q2 -2 5.5 -5t6.5 -6t5 -6q3 -4 3 -13v-1627q0 -9 -2 -12t-18 -19q-7 -7 -10 -8t-23 -1h-272q-8 0 -8 7z" />
<glyph unicode="^" horiz-adv-x="717" d="M115 1011l18 43l183 439l4 10l4 4l11 6l17 10v2v1v15q0 7 8 7q7 0 7 -7v-15v-3l3 -2l17 -9l1 -1l7 -5q1 0 2 -2l1 -2l149 -358l37 -89l18 -43q3 -6 -4 -10q-6 -3 -9 4l-19 44l-37 89l-148 356l-6 4l-16 9h-1l-3 2l-17 -10l-9 -5l-3 -7l-183 -440l-18 -43q-4 -7 -10 -4 q-7 4 -4 10z" />
<glyph unicode="_" horiz-adv-x="892" d="M5 18q0 8 7 8h868q8 0 8 -8q0 -7 -8 -7h-868q-7 0 -7 7z" />
<glyph unicode="`" horiz-adv-x="510" d="M98 1624q0 8 8 8q22 0 62 -6q1 0 6 -0.5t10 -1.5t9 -3q4 -3 7.5 -7t6.5 -9t4 -6q13 -18 34 -44q18 -23 52 -67t40 -52q2 -2 13.5 -17t17.5 -23q4 -6 -2 -10t-10 2q-5 7 -15.5 19t-15.5 19q-6 8 -40 52t-52 67q-12 15 -34 45q-12 17 -14 18q-1 1 -20 3q-33 5 -59 5 q-8 0 -8 8z" />
<glyph unicode="a" horiz-adv-x="850" d="M25 703q0 19 7 79q9 76 26 126q46 136 147 194q57 33 148 37h16q84 0 154 -48q19 -13 39 -32q2 -2 4.5 -5t4.5 -4.5t3 -2.5q2 -2 14 -6q20 -8 30 -13q14 -7 17 -10l11 11l7 7q1 2 6 26q3 13 9 41q5 23 5 24q0 7 7 7q8 0 8 -8q0 -7 -5 -27q-2 -7 -5 -20.5t-4 -20.5 q-1 -2 -2 -8t-2.5 -11.5t-3.5 -9.5q-1 -2 -10 -11l-14 -14v-10v-564v-36v-10q2 -2 6 -4.5t6 -4.5q10 -7 21 -11t26.5 -4.5t24 0t28.5 2.5t26 3t24.5 2t28.5 3q7 2 9 -6q2 -7 -6 -9q-10 -2 -29 -3t-25 -2q-5 0 -25.5 -3t-30 -3t-26 0.5t-29.5 5t-25 13.5q-1 1 -4 2.5t-5 3.5 l-11 -16l-24 -43l-14 -31q-3 -6 -10 -3q-6 3 -3 10l14 30v1l18 33q-10 0 -15 -1t-15 -3.5t-15 -3.5q-4 -1 -11 -2t-10 -2q-4 -1 -12 -5.5t-12 -6.5q-21 -10 -53 -17q-31 -7 -77 -11q-29 -3 -37 -2q-123 6 -212 98q-41 42 -69 107q-44 99 -44 202zM82 508q28 -63 67 -103 q86 -89 202 -94q11 0 35 2q50 4 74 10q26 6 51 17q2 1 10.5 6t14.5 7q2 1 22 4q31 7 32 7q9 1 26 1l11 17v4v3.5v2.5v2v36v564v9q-1 4 -15 11q-5 2 -15 6.5t-15 6.5q-1 1 -7.5 3t-9.5 4t-7.5 7.5t-6.5 6.5q-20 18 -37 30q-67 46 -146 46h-15q-86 -3 -140 -35 q-97 -55 -141 -186q-19 -58 -25 -122q-7 -60 -7 -78q0 -100 42 -195z" />
<glyph unicode="b" horiz-adv-x="915" d="M5 1598q-2 6 6 8q10 2 28.5 2.5t19.5 0.5q19 1 36 1q37 0 60 -6q22 -6 32 -11q13 -6 14 -8q4 -5 4 -15q0 -1 1.5 -12t1.5 -17q2 -34 2 -102q0 -65 -0.5 -193t-0.5 -193v-136v-8l14 -14h1q2 1 5.5 4t5.5 5q17 14 38 27q2 2 5.5 4t6 3t2.5 2q5 9 13 27.5t12 25.5 q30 59 79 96q53 40 138 49q23 2 43 2q28 0 50 -4q93 -19 152 -92q76 -94 97 -243q6 -44 6 -68q0 -20 -10 -95q-22 -158 -114 -253q-64 -66 -152 -89q-24 -6 -68 -10q-36 -3 -44 -2q-74 5 -129 48q-81 63 -117 198q-18 65 -25 166q-4 72 -4 109q0 12 0.5 37.5t0.5 38.5l-3 4 q-1 1 -4.5 4t-6.5 5.5t-5 6.5q-2 3 -2 16v136q0 65 0.5 193t0.5 193q0 67 -2 101q0 5 -1.5 16.5t-1.5 12.5q0 2 -0.5 4t-0.5 3h-1q-2 1 -3.5 1.5t-3.5 1.5q-20 8 -30 11q-19 5 -53 5q-17 0 -38 -1h-21t-25 -2q-7 -2 -9 6zM229 806q0 -36 4 -108q7 -101 24 -164 q35 -130 112 -190q51 -40 121 -45q6 0 41 2q51 4 67 9q80 21 144 86q88 91 110 245q10 78 10 92q0 21 -6 65q-19 144 -94 236q-58 70 -142 87q-21 4 -48 4q-19 0 -42 -2q-80 -8 -129 -46q-46 -36 -76 -91q-4 -8 -12 -26t-13 -27q-4 -8 -19 -15q-13 -8 -37 -26q-2 -2 -5.5 -5 t-5.5 -4t-3 -2q0 -13 -0.5 -38t-0.5 -37z" />
<glyph unicode="c" horiz-adv-x="657" d="M38 698v7q0 26 6 83q12 110 52 191q17 35 46 69q18 22 37 35q30 22 47 30q56 26 132 25q25 0 52 -2q63 -7 109 -36q24 -15 32 -26q2 -2 3 -5t1.5 -5t0.5 -3q7 -20 8 -26q12 -44 16 -71q5 -25 5 -33q0 -7 -7 -7q-8 0 -8 7q0 3 -5 31q-6 34 -15 69q-3 11 -8 26q-1 2 -1.5 4 t-0.5 3l-1 2q-4 5 -28 22q-41 26 -103 33q-25 2 -48 2q-73 0 -127 -24q-21 -9 -45 -28q-21 -16 -35 -33q-26 -31 -44 -65q-40 -80 -50 -187q-6 -59 -6 -82v-6q3 -147 77 -254q38 -55 93.5 -90.5t118.5 -41.5q6 0 13 -1q25 0 61 6q44 6 82 25q47 24 95 81q18 21 30 40 q4 6 11 2q6 -4 2 -10q-11 -18 -31 -42q-52 -61 -100 -85q-36 -19 -87 -26q-33 -6 -59 -6q-10 0 -19 1q-67 7 -124.5 44t-97.5 94q-77 111 -80 263z" />
<glyph unicode="d" horiz-adv-x="842" d="M35 727q9 211 130 320q39 35 95 59q47 20 98 22q20 1 57 -3q35 -3 69 -12q25 -6 46 -16q3 -1 10.5 -5.5t10.5 -5.5t11.5 -2t12.5 -2l14 -3.5l14 -3.5h9.5h13h11.5v446q-12 12 -23 19q-37 23 -91 25q-9 0 -26 -0.5t-31.5 0t-26.5 3.5q-8 2 -6 9q2 8 9 6q11 -2 26 -2.5 t28 -0.5h28q58 -2 98 -27q11 -7 22 -18q44 40 111 45q9 1 34.5 1t38.5 2q6 2 8 -6q2 -6 -6 -8q-15 -2 -40.5 -2.5t-33.5 -1.5q-63 -5 -104 -44v-1083v-4q1 -3 1 -6.5t-1 -6.5l14 -14q9 -9 10 -11q3 -5 5 -16l2 -11q10 -39 13 -63q2 -6 -6 -8q-6 -2 -8 6q-2 12 -14 61 q-1 3 -1.5 8.5t-1.5 9.5t-2 6l-7 7l-12 12q-6 -6 -13.5 -10.5t-19.5 -8.5t-14 -5q-11 -4 -13 -6q-5 -4 -15.5 -14t-16.5 -15q-39 -30 -78 -46q-46 -18 -97 -18q-12 0 -24 1q-50 4 -76 11q-75 21 -129 81q-85 94 -104 252q-3 24 -7 65q-2 20 -2 32zM50 726q0 -8 2 -30 q2 -33 6 -64q19 -152 101 -244q51 -57 122 -77q20 -6 73 -10q12 -1 23 -1q48 0 91 17q39 14 75 44q5 4 15 14t16 15q4 3 10 5t7 2q4 2 13 5.5t13.5 5.5t10 5.5t9.5 8.5v16v622h-11h-13.5h-11.5q-6 1 -16.5 4t-12.5 3q-19 3 -26 5q-5 2 -14 7l-9 5q-22 9 -43 15q-26 8 -66 11 q-38 4 -55 3q-46 -1 -93 -21q-51 -22 -91 -57q-116 -104 -125 -309z" />
<glyph unicode="e" horiz-adv-x="784" d="M35 679q-1 12 1.5 34t2.5 26q5 53 7 63v6q1 5 2.5 10t5.5 8l2 6q0 4 1 11.5t2 11.5q4 22 7 34q7 30 20 58q33 74 82 118q51 46 107 63q40 13 82 13q40 0 80 -12q20 -5 42 -19q30 -19 46 -36q47 -50 66 -146q6 -35 9 -68q0 -3 1 -9.5t1 -9.5l1 -4q1 -1 4 -3t5 -3 q8 -6 20 -16l4.5 -4.5l4.5 -4.5l2 -1l3 1h6h22h55q4 0 15 1.5t18 2.5q8 0 8 -7t-7 -7q-5 0 -16.5 -2.5t-16.5 -2.5q-19 -1 -56 -1h-22q-10 0 -13 1q-4 1 -7 3.5t-5.5 5l-3.5 3.5q-3 2 -10 7.5t-10 8.5q-1 1 -3 2l-4 2q-18 -21 -30 -26q-15 -7 -50 -7h-419q-10 0 -13 1 q-4 2 -8.5 5.5t-8 8t-4.5 5.5q0 -3 -2 -11q-2 -9 -7 -61q0 -7 -2 -27t-2 -31q3 -114 52 -200q31 -53 67 -85q60 -54 131 -71q30 -7 52 -7q18 0 58 4q82 9 138 37q45 23 101 79q5 5 10 0t0 -10q-58 -58 -105 -82q-60 -31 -142 -39q-38 -4 -60 -4q-21 0 -55 8q-75 17 -138 74 q-40 36 -70 88q-51 87 -54 207zM69 825l4 -4q2 -2 4.5 -5t4.5 -5l4 -4t3 -2h8h419q31 0 43 6q8 4 29 25l-1 4q-1 3 -1 9v9q-2 24 -10 67q-19 93 -61 138q-16 17 -43 34q-17 10 -40 17q-38 11 -76 11q-39 0 -77 -12q-54 -17 -101 -59q-48 -43 -78 -112q-13 -29 -20 -56 q-1 -4 -2 -9.5t-2 -12.5t-2 -11t-2.5 -12t-1.5 -11v-3z" />
<glyph unicode="f" horiz-adv-x="574" d="M-18 43q-5 5 0 10t10 0q13 -13 20 -27q15 -28 27 -35q10 -5 27 -5q15 0 37 4q19 4 25 8q15 11 30 42q17 35 31 107q15 82 20 183q4 86 4 321v345v100h-115q-37 0 -49 -4q-8 -2 -10 5t5 9q15 5 54 5h115q0 97 5 164q6 77 16 126q22 112 68 173q32 43 69 60q26 11 91 16h11 q36 0 73 -17q34 -17 62 -50q5 -6 12 -15.5t13 -17t12 -13.5q5 -5 0 -10t-11 0q-2 2 -38 47q-26 31 -57 45q-33 16 -66 16h-10q-62 -4 -86 -15q-33 -15 -63 -55q-44 -58 -66 -168q-10 -50 -15 -124q-5 -67 -5 -162h138q99 0 124 5q7 2 9 -6q2 -7 -6 -9q-26 -5 -127 -5h-138 v-100v-345q0 -235 -4 -321q-5 -101 -20 -185q-15 -79 -32 -112q-17 -34 -35 -47q-8 -6 -31 -11q-23 -3 -39 -3q-23 0 -35 6q-15 8 -33 40q-10 18 -17 25z" />
<glyph unicode="g" horiz-adv-x="745" d="M28 675q0 20 4 56q8 70 17 106q21 86 59 142q83 123 205 153q38 10 83 10q11 0 23 -1q63 -5 109 -32q8 -4 49 -38l1 -1q2 -1 4.5 -2t5.5 -3q4 -3 7 -6t6.5 -7t5.5 -6l16 -15l2 -2l12 11l8 8q1 2 2 10t2 11q5 21 14 49q2 7 10 5q7 -2 5 -10q-11 -36 -14 -47q-4 -22 -6 -26 l-10 -10l-15 -15v-5v-524v-82q0 -53 -1 -79q-4 -78 -6 -110t-12.5 -93.5t-28.5 -107.5q-30 -76 -77 -115q-57 -47 -143 -54q-11 -1 -23 -1q-68 0 -127 32q-46 26 -82 70q-3 4 -16 21.5t-21 25.5q-6 5 0 11t11 0q7 -7 13.5 -15t13.5 -18t11 -15q35 -43 77 -67q51 -30 121 -30 q10 0 21 1q80 5 135 50q44 37 72 109q17 45 27 104t12.5 94t6.5 109q1 23 1 70q-4 0 -12 0.5t-14 0.5t-10 -1q-5 -1 -14.5 -4.5t-12.5 -4.5q-14 -4 -16 -5q-4 -4 -8 -7q-10 -8 -17 -13q-24 -17 -47 -29q-47 -24 -113 -32q-40 -5 -51 -5q-36 0 -82 23q-60 31 -106 94 q-84 116 -87 262zM43 675q3 -142 84 -253q43 -60 101 -90q39 -21 75 -21q7 0 49 5q62 8 108 31q29 14 45 26q6 4 16 14q3 3 11 8q6 4 18 6q24 9 30 10t12.5 1t14 -0.5t11.5 -0.5v75v524v4l-6 6l-15 16q-15 15 -18 17l-2 1q-2 1 -4.5 2.5t-5.5 3.5q-37 30 -47 36 q-46 27 -102 30q-10 1 -21 1q-41 0 -81 -10q-118 -29 -196 -146q-36 -55 -57 -138q-9 -34 -17 -104q-3 -27 -3 -54z" />
<glyph unicode="h" horiz-adv-x="949" d="M19 310q-1 6 7 8q15 2 42.5 2.5t39.5 1.5q56 6 94 43v19v1104q0 10 0.5 29t0.5 28v16q-1 6 2 12l9 9q5 3 14 8.5t11 6.5q28 16 76 16q10 0 21 -1q9 0 28 -2t28 -2q7 0 7 -7t-8 -7l-57 3q-11 1 -21 1q-43 0 -67 -14q-8 -4 -22 -14q-1 -1 -4 -2l-2 -2v-5v-16q0 -9 -0.5 -28 t-0.5 -29v-514h29q5 1 35 11q14 4 19 6q1 0 3.5 3t4.5 5q3 3 9 8t8 7q27 23 58 46q53 37 95 49q25 8 80 14q35 4 54 3q10 -1 23 -5q36 -10 57 -29q28 -26 44 -69q17 -47 23 -135q4 -54 4 -202v-166v-141v-11l6 -6q11 -10 23 -17q35 -23 102 -23q28 0 33 1q7 2 9 -6 q2 -7 -5 -9h-37q-72 0 -110 24q-6 3 -24 19l-2 2q-7 4 -9 9q-1 2 -1 17v141v166q0 146 -4 200q-6 87 -22 131q-17 46 -39 64q-20 17 -53 26q-14 4 -20 4q-17 1 -51 -3q-52 -6 -76 -13q-42 -12 -91 -47q-29 -21 -58 -46q-3 -2 -8 -6.5t-7 -7.5q-8 -8 -12 -10q-5 -2 -13 -4 l-9 -3q-31 -11 -36 -12h-32v-575v-18l7 -7q9 -9 25 -18q15 -8 34.5 -13t34 -5.5t39 -1.5t37.5 -2q7 0 7 -8q0 -7 -8 -7q-8 1 -45 1.5t-60.5 5t-45.5 17.5q-17 10 -29 21l-3 3q-42 -39 -100 -45q-14 -1 -42 -1t-41 -2q-6 -2 -8 6z" />
<glyph unicode="i" horiz-adv-x="511" d="M30 1070q0 8 7 8q5 0 23 2q8 1 22.5 2.5t21.5 1.5q40 3 41 3q28 -1 54 -18q23 -15 25 -19l2 -13v-37v-359q0 -134 1 -160q2 -58 16 -98q12 -33 33 -48q11 -8 20 -9q8 -1 32 3q53 7 89 20q44 17 79 46q4 5 10 -1q4 -4 -1 -10q-46 -37 -83 -50q-33 -12 -92 -20 q-34 -3 -37 -3q-11 1 -25 11q-26 18 -39 57q-15 46 -17 102q-1 27 -1 160v359v35v7q-1 2 -20 15q-21 13 -46 15q-5 0 -11.5 -0.5t-15 -1.5t-13.5 -1q-8 -1 -22.5 -2.5t-21.5 -1.5q-21 -3 -24 -3q-7 0 -7 8z" />
<glyph unicode="j" horiz-adv-x="425" d="M17 1145q2 7 10 5q7 -2 24 -2h42q57 -2 95 -24q15 -8 29 -22q31 29 62 38q20 6 60 8q17 1 49 1q16 0 20 2q6 4 10 -3q4 -6 -2 -10q-7 -4 -28 -4q-33 0 -48 -1q-34 -2 -56 -8q-33 -10 -60 -37v-1116q0 -42 -1 -63v-17q2 -6 -2 -12q-2 -4 -7 -6l-4 -3q-1 -1 -10.5 -7.5 t-14.5 -8.5q-24 -12 -51 -15q-19 -2 -53.5 1t-45.5 3q-7 0 -7 8t7 8q13 0 46.5 -3.5t50.5 -1.5q23 3 47 14q8 4 22 14q6 4 7 5v5v16q1 21 1 63v1116q-16 16 -29 23q-33 20 -87 22q-14 1 -42 1q-22 0 -29 2t-5 9z" />
<glyph unicode="k" horiz-adv-x="814" d="M19 305q-2 7 5 9t28 2q28 0 41 1q54 3 88 27q11 8 20 17v19v1108v56q0 2 -0.5 6.5t-0.5 7.5v3l1 2q-1 1 -7 5q-11 8 -26 15q-23 11 -66 11q-12 0 -27 -1q-5 0 -21 -0.5t-25 -1.5q-6 -2 -8 6q-2 6 6 8q7 1 15 1.5t17.5 1t14.5 0.5q13 1 25 1q48 0 76 -13q12 -6 27 -16 q5 -2 11 -10q2 -3 2 -12q0 -2 0.5 -6.5t0.5 -7.5v-56v-899h12q2 1 7.5 3t8.5 3q5 2 16.5 7t17.5 7l18 7l7 3q1 1 13 18q4 5 11.5 14.5t10.5 14.5q13 17 14 18q4 3 9 5.5t11 4t8 2.5q40 17 46 19q0 2 0.5 5t0.5 4q1 11 7 33q15 55 16 57q0 1 9 14q3 4 9 12.5t9 12.5 q10 14 30 40.5t30 39.5q6 8 17.5 23t19 24.5t16 23t14.5 25.5q4 10 9.5 30.5t9.5 30.5q-4 3 -7 8l-1 1q-4 4 -14 6q-11 3 -36 3t-38 2q-8 2 -6 9q2 8 9 6q10 -2 34.5 -2t39.5 -3q15 -4 21 -10q1 -1 3 -3.5t3.5 -4t2.5 -1.5q2 0 6 2t6 2q13 4 41 10q34 7 59 8q38 2 46 4 q7 2 9 -6q2 -7 -5 -9q-7 -1 -48 -4q-34 -2 -59 -7q-22 -5 -38 -10q-9 -4 -13 -5q-4 -8 -9.5 -30.5t-10.5 -33.5q-8 -16 -18.5 -32t-27.5 -37.5t-23 -28.5l-60 -81q-3 -4 -9 -11.5t-9 -11.5q-2 -2 -4.5 -6t-2.5 -5l-15 -57q-6 -20 -7 -30q-1 -4 -1 -10l3 -6q6 -12 9 -19 q20 -50 29 -75q34 -94 53 -140q4 -8 11.5 -23.5t10.5 -23.5q37 -79 78 -108q19 -13 52 -17q1 0 18.5 -1t27.5 -2q8 -2 7 -8q-2 -8 -9 -6q-7 1 -22.5 1t-23.5 1q-35 3 -58 20q-46 32 -84 114q-3 6 -10.5 22.5t-11.5 25.5q-22 53 -53 139q-13 35 -29 76q-2 6 -8 18q-1 -1 -1 0 q-7 -2 -14.5 -5t-16.5 -7t-14 -6q-3 -1 -12 -4.5t-12 -5.5q-2 -1 -11 -15q-4 -5 -11.5 -14.5t-10.5 -14.5q-11 -17 -15 -20q-1 -1 -11 -6l-19 -7q-5 -2 -16 -6.5t-17 -6.5q-1 0 -7.5 -3.5t-10.5 -4.5h-5h-6h-5v-194v-18l6 -6q8 -8 21 -16q30 -19 71 -22q1 0 18.5 -1t27.5 -2 q8 -2 7 -8q-2 -8 -8 -7q-8 1 -23 1.5t-23 1.5q-44 5 -77 24q-13 7 -25 19l-2 2q-9 -9 -19 -16q-39 -27 -95 -30q-14 -1 -42 -1q-21 0 -24 -1q-8 -2 -10 5z" />
<glyph unicode="l" horiz-adv-x="497" d="M21 1600q0 7 7 7q8 0 44 3.5t59.5 1t45.5 -13.5q12 -5 24 -14q12 -8 14 -12l1 -12q0 -2 0.5 -7t0.5 -8q0 -9 0.5 -28t0.5 -29v-205v-757q0 -82 12 -126q11 -40 28 -57q16 -16 29 -17q4 -1 15 1q22 2 31 4q34 5 61 13q55 17 92 51q5 5 11 -1q5 -6 0 -11q-41 -38 -98 -54 q-20 -6 -64 -12q-23 -4 -32 -5q-10 -2 -18 -1q-20 3 -38 21q-19 19 -31 64q-14 53 -14 129v758v205v56v16v5l-2 1q-2 2 -4.5 3t-3.5 2q-16 10 -22 13q-15 7 -34 10t-33 2.5t-38 -2t-36 -1.5q-8 0 -8 7z" />
<glyph unicode="m" horiz-adv-x="1437" d="M24 1067q-2 6 6 8q14 3 72 8q39 5 56 0q23 -5 48 -25q2 3 5.5 8t4.5 7q9 15 27 47q3 6 10 2q6 -3 2 -10q-5 -9 -14 -25.5t-12 -21.5l-13 -21q-1 -2 0 -10.5t1 -11.5v-53v-36q16 15 18 17q10 10 15 13q10 5 38 14q2 1 5 1.5t5 1.5t3 1q8 6 21 19.5t20 19.5q62 56 110 77 q20 9 77 18q45 7 59 6q25 -3 46 -16q34 -19 56 -55.5t28 -77.5q1 -6 2.5 -20t2.5 -20v-1l3 3l1 2l19 19q10 10 12 11q5 2 29 10q3 1 7 2.5t5 1.5l12 12q4 4 12 11.5t12 11.5q38 36 69 56q37 23 71 33q21 6 72 13q42 5 53 4q49 -4 86 -47q19 -23 30.5 -57.5t14 -56.5t5.5 -63 q4 -60 4 -181v-345v-10q41 -38 104 -43q28 -2 43 -2q25 0 32 -2t5 -9t-10 -5t-27 2q-29 0 -44 1q-66 5 -111 45l-4 -4q-12 -11 -29 -21q-22 -12 -45 -16.5t-59 -5t-45 -1.5q-8 0 -8 7q0 8 7 8q13 1 37 1.5t38.5 1.5t33.5 5.5t34 12.5q12 7 26 19l7 7v9v345q0 120 -4 179 q-3 41 -5.5 63t-12.5 54.5t-28 52.5q-31 36 -76 41q-11 1 -51 -4q-39 -5 -68 -13q-32 -9 -67 -31q-36 -22 -68 -53l-24 -24q-11 -11 -14 -13q-5 -4 -15 -6q-21 -7 -27 -10l-3 -2l-5 -5l-20 -20l-1 -2q-1 -2 -3 -4t-4 -3q0 -18 0.5 -53t0.5 -52v-39v-114v-153v-136v-7 q4 -5 22 -19q36 -24 92 -26h26.5t33.5 -2q8 -2 6 -9q-2 -8 -8 -6q-11 2 -32.5 2h-26.5q-60 2 -99 28q-14 10 -22 18q-43 -39 -106 -45q-13 -1 -39.5 -1t-39.5 -2q-6 -2 -8 6q-2 6 6 8q15 2 43 2.5t37 1.5q62 6 100 43v8v136l1 153q0 152 -1 152q0 18 -0.5 53t-0.5 52 q-3 2 -4.5 6t-1.5 7v3q-1 7 -2.5 19.5t-2.5 18.5q-13 88 -76 123q-22 13 -40 14q-10 1 -56 -6q-54 -9 -73 -17q-47 -20 -106 -74q-6 -5 -19.5 -19t-22.5 -21q-5 -4 -17 -7q-34 -10 -37 -12l-11 -11l-25 -25q0 -68 1 -203t0 -203v-138q0 -12 -2 -15l-10 -10q-16 -14 -25 -19 q-41 -25 -112 -25q-18 0 -39 2q-6 0 -6 8q0 6 8 6q19 -2 36 -2q65 0 105 24q12 7 23 17q1 1 4 3.5t4 3.5l-1 3v4v138q0 68 -0.5 203.5t-0.5 203.5q-3 4 -3 18v36v53q0 1 -1 8t0 12q-24 20 -46 26q-15 4 -51 0q-59 -5 -71 -7q-7 -2 -9 6z" />
<glyph unicode="n" horiz-adv-x="956" d="M19 1065q-2 7 6 9q15 2 87 10q21 2 37 2q22 0 35 -4q14 -3 40 -21l2 4q2 3 6.5 9.5t6.5 10.5q12 18 32 56q3 6 10 3q6 -3 3 -10q-20 -38 -32 -57q-2 -4 -6.5 -10.5t-6.5 -9.5q-1 -2 -2 -3.5t-2 -3.5l-1 -1v-14q0 -6 0.5 -20t0.5 -21v-33q21 21 26 25q6 5 18 8q5 2 20 6 t22 7l10 10q5 4 15.5 13.5t15.5 14.5q58 49 108 66q27 9 66 14q42 5 55 5q57 -2 103 -41q65 -54 73 -184q3 -44 3 -176v-354v-9l2 -2q3 -2 5 -4q8 -8 24 -18q28 -17 88 -21q32 -2 46 0q7 2 9 -6q2 -7 -6 -9q-18 -2 -51 0q-62 4 -94 23q-18 12 -26 19l-4 4l-39 -39l-21 -23 q-5 -6 -11 0t0 11l21 23l42 41v10v354q0 131 -3 175q-8 123 -68 173q-43 36 -93 38q-22 0 -52 -5q-44 -6 -64 -13q-50 -17 -104 -64q-5 -5 -14.5 -14t-14.5 -13q-8 -8 -15 -12q-9 -5 -43 -15l-14 -5q-4 -3 -25 -24q-2 -6 -7 -9v-567v-8q4 -5 23 -19q19 -13 46 -19.5t41.5 -7 t53.5 -0.5q8 0 8 -8q0 -7 -8 -7q-38 0 -54 0.5t-45.5 7.5t-50.5 22q-15 10 -22 17l-31 -31l-28 -30q-5 -5 -11 0t0 11l28 30l34 33v5l1 4v568q-3 2 -3.5 6t0.5 7v3v36q0 6 -0.5 20t-0.5 21q0 1 -0.5 5t-0.5 7q-24 17 -39 21q-10 3 -29 3q-15 0 -36 -2q-74 -8 -87 -10 q-6 -2 -8 6z" />
<glyph unicode="o" horiz-adv-x="808" d="M35 722q0 10 5 55q16 157 113 258q73 77 172 96q15 3 40.5 4.5t33.5 2.5q16 2 28 0q32 -2 47 -4q66 -9 124 -44q97 -59 139 -172q24 -62 32 -145q4 -30 4 -48q0 -20 -4 -54q-10 -101 -49 -181q-60 -124 -169 -167q-36 -15 -83 -22q-34 -4 -66 -4q-74 0 -131 23 q-70 27 -122.5 86t-80.5 134q-23 58 -29 127q-4 38 -4 55zM50 722q0 -15 4 -53q6 -66 28 -124q27 -72 77.5 -128.5t117.5 -82.5q57 -22 127 -22q30 0 63 4q41 6 78 21q103 42 161 160q39 78 48 175q4 36 4 53q0 15 -4 47q-8 79 -31 141q-40 108 -133 164q-53 33 -119 42 q-17 2 -45 4q-14 2 -25 0q-8 -1 -34 -2.5t-39 -4.5q-96 -20 -164 -91q-93 -97 -109 -250q-5 -45 -5 -53z" />
<glyph unicode="p" horiz-adv-x="819" d="M5 -169q0 7 8 7q12 0 45.5 -3t50.5 -1q26 3 53 17q21 13 23 15v6q0 13 1 20v36v463v10v1v606v9l-15 15l-9 9q-2 2 -2 4l-6 22l-14 46l-7 18q-2 8 5 10q8 2 10 -5l6 -19l14 -45l6 -22l7 -7l12 -12q2 3 7 7t6 5q21 21 33 31q4 3 10.5 9t10.5 9q23 18 49 29q34 14 83 19 q15 1 29 1q66 0 129 -27q75 -32 125 -97q81 -105 99 -256q7 -65 7 -87q0 -1 -3 -40q-10 -91 -45 -165q-29 -62 -80.5 -109.5t-113.5 -58.5q-12 -2 -29 -2q-21 0 -48 3q-48 6 -68 13q-38 12 -81 41q-9 6 -25 18q-2 1 -3.5 2.5t-2.5 3.5l-1 1q-3 1 -11 3q-13 3 -23 7 q-9 3 -39 3h-7v-3v-463v-11.5v-13.5v-12q-1 -6 -1 -20q2 -8 -3 -14q-7 -9 -27 -19q-29 -16 -59 -19q-19 -2 -53.5 1t-45.5 3q-7 0 -7 8zM201 409h7q31 0 43 -4q8 -3 24 -7l5 -1q5 -1 9 -3q3 -2 5.5 -5t3.5 -3q3 -2 10.5 -8.5t12.5 -9.5q43 -29 78 -39q22 -6 64 -12 q25 -3 45 -3q16 0 28 2q58 11 107 55.5t77 103.5q33 71 43 161l3 39q0 20 -7 85q-18 147 -96 247q-48 62 -120 93q-59 26 -121 26q-14 0 -28 -1q-52 -6 -80 -18q-25 -11 -44 -26q-4 -3 -10.5 -9.5t-10.5 -9.5q-11 -9 -32 -30l-4.5 -4.5t-4.5 -4t-4 -3.5t-3 -4v-8v-599z" />
<glyph unicode="q" horiz-adv-x="824" d="M37 749q0 23 3 45q6 63 27 123q28 81 84.5 141.5t134.5 68.5q3 0 32 -3q36 -3 62 -10q61 -14 125 -78q10 -10 24 -28q2 -2 3.5 -4.5t2.5 -4t1.5 -3t1.5 -1.5l5 -2.5t7.5 -3t6.5 -2.5q37 -17 44 -22q3 -2 14 -13l5 -5v17v83l-3 6q-2 3 -5.5 9.5t-5.5 9.5q-4 7 -8.5 15 t-10 18t-8.5 15q-9 16 -16 23q-5 5 0 11t11 0q3 -3 18 -27q3 -5 8.5 -15t10 -18t8.5 -15q2 -3 5.5 -9t5.5 -9q5 4 6 5q22 15 42 19q18 4 49 0q9 -1 28 -2.5t28 -2.5q3 0 11 -1.5t12 -1.5q7 0 7 -7t-8 -7q-10 0 -24 2q-9 1 -28 2.5t-28 2.5q-28 3 -44 0q-18 -4 -36 -17l-9 -6 q0 -1 -1 -2v-81l1 -8q1 -8 0 -14.5t-4 -11.5q1 -3 1 -6.5t-0.5 -7t-0.5 -4.5v-1004v-5q41 -38 104 -43q28 -2 42 -2q26 0 30 -1q7 -2 5 -9q-2 -8 -9 -6q-8 2 -26 2q-29 0 -44 1q-64 5 -109 45l-3 -3l-3 -2q-15 -13 -27 -19q-37 -20 -93 -22q-7 0 -27.5 -0.5t-30.5 -1.5 q-6 -2 -8 6q-2 6 6 8q9 1 19 1.5t22 1t18 0.5q53 2 87 20q12 7 25 18l7 7v4v442h-12q-2 -1 -8.5 -3t-8.5 -3l-27 -9q-4 -1 -17.5 -4t-19.5 -6q-2 -1 -11 -6t-14 -7q-19 -9 -41 -15q-25 -7 -62 -9q-13 -1 -26 -1q-84 0 -153 41q-40 24 -71 61q-73 85 -96 230q-8 48 -11 87 q-2 26 -2 43zM52 748q0 -12 2 -40q3 -48 10 -87q23 -141 93 -222q31 -36 68 -58q65 -39 147 -39q11 0 22 1q36 2 60 8q26 8 38 14q2 1 11 6t14 7q6 3 40 12q4 1 13 3.5t13 4.5q17 7 19 7h15v547v16l-13 13l-12 12q-2 2 -41 21q-19 8 -21 9q-5 3 -9 9l-4 7q-10 13 -23 26 q-63 63 -118 75q-30 6 -60 9q-3 0 -9.5 1t-11 1.5t-8.5 0.5q-72 -7 -125.5 -64t-80.5 -135q-20 -61 -26 -120q-3 -23 -3 -45z" />
<glyph unicode="r" horiz-adv-x="722" d="M20 306q-2 6 6 8q12 2 26.5 2t31.5 0.5t26 0.5q34 0 56 9q21 8 48 35v5v4l1 2v690q-24 24 -41 32q-25 11 -79 11.5t-65 1.5q-8 2 -7 8q2 8 8 6q26 -3 48 -1t50.5 0t50.5 -12q19 -9 42 -32l18 17q11 11 13 12q3 1 11 1h286q52 0 84 -8q3 -1 9.5 -2.5t9.5 -2.5q6 0 11 -4 q3 -3 8 -18q8 -22 12 -34q12 -36 24 -112q1 -5 2 -15.5t2 -15.5q2 -7 -6 -9q-7 -2 -9 6q-1 5 -2 15.5t-2 15.5q-11 67 -24 110q-2 5 -5.5 16.5t-5.5 17.5t-4 11q-1 0 -5 2q-6 2 -18 4q-30 7 -81 7h-286h-4l-2 1l-8 -8l-20 -21v-690v-10q2 -2 7 -6.5t7 -6.5q22 -20 35 -25 q19 -8 74 -8h34q21 0 28 -2q8 -2 6 -9t-9 -5q-3 1 -25 1q-5 0 -17 0.5t-17 0.5q-57 0 -79 9q-19 8 -41 26l-11 11q-27 -27 -50 -36q-25 -10 -62 -10h-42t-40 -2q-6 -2 -8 6z" />
<glyph unicode="s" horiz-adv-x="579" d="M44 537q-2 7 6 9q7 2 9 -6q2 -11 4 -31t3 -28q6 -45 15 -90q1 -6 2.5 -12.5t3.5 -14.5l3 -12l3 -11q1 -1 3 -1t3 -1q5 -2 22 -7q11 -3 30.5 -10.5t27.5 -10.5q40 -13 86 -16q14 -1 28 -1q43 0 81 12q21 6 49 22q47 26 70 60q14 20 23 65q10 49 11 61q1 10 -5 32 q-13 59 -77 107q-51 39 -158 85q-75 33 -77 34q-53 29 -76 58q-22 26 -30 63q-4 22 -4 36q0 15 6 41q15 71 38 99q36 43 94 61q40 12 82 12q19 0 37 -2q50 -7 85 -27t49 -46q2 -4 11 -30q10 -30 14 -46q4 -18 7 -25q3 -6 -4 -10q-6 -3 -9 4q-3 6 -8 27q-5 20 -14 46 q-4 15 -10 26q-14 24 -43 41q-31 18 -79 25q-18 2 -36 2q-38 -1 -76 -11q-54 -16 -88 -56q-22 -27 -35 -92q-6 -26 -6 -40q0 -9 4 -31q6 -32 27 -58t72 -54q14 -8 74 -33q114 -49 163 -87q68 -52 82 -115q5 -27 4 -38q-1 -13 -11 -62t-25 -71q-25 -36 -75 -64 q-25 -14 -52 -23q-40 -13 -86 -13q-14 0 -28 1q-48 3 -89 17q-5 2 -26.5 10t-32.5 11q-14 3 -22 7q-1 0 -3 0.5t-4.5 1.5t-4.5 3q-6 5 -6 19q-1 6 -4.5 19t-5.5 21q-9 47 -15 89q-1 10 -3 29.5t-4 29.5z" />
<glyph unicode="t" horiz-adv-x="496" d="M20 1106q0 7 8 7q74 0 125 14q5 1 14 4t14 5l3 2q2 1 5 2t7 0h1q1 3 2.5 8.5t1.5 7.5q1 3 6 49q5 50 5 151q0 8 7 8q8 0 8 -8q0 -101 -5 -152l-6 -51q0 -2 -3 -12.5t-3 -15.5v-12h152q84 0 109 5q7 2 9 -6q2 -7 -6 -9q-26 -5 -112 -5h-152v-26v-104v-337v-249 q0 -1 0.5 -4.5t1 -6.5t-0.5 -7q28 -28 48 -37q14 -7 42 -9q2 0 55 -3q22 -3 29 -7t3 -10t-11 -2q-3 2 -22 4q-1 0 -22.5 1t-32.5 2q-30 2 -47 10q-25 12 -50 37q-6 -6 -14 -12q-25 -20 -36 -25q-22 -10 -68 -12q-6 -1 -19 -1h-19q-11 0 -15 -3q-7 -4 -11 2q-4 7 2 11 q7 5 24 5q7 1 19 1h18q44 2 62 10q14 6 33 23q15 12 17 16v3.5t-0.5 7t-0.5 6.5v249v337v104v16.5v19v16.5l-2 1q-4 -2 -7 -3q-13 -5 -29 -10q-49 -14 -129 -14q-8 0 -8 8z" />
<glyph unicode="u" horiz-adv-x="970" d="M21 1125q3 6 10 3q2 -2 8 -2q4 0 14 0.5t16 -0.5h12t13 -1q59 -4 93 -25q8 -5 22 -17l4 -2q18 16 29 22q21 12 42 16.5t58 6t42 1.5q8 0 8 -6q0 -8 -7 -8q-11 -1 -35 -2t-37 -2t-31.5 -6t-32.5 -13q-15 -9 -29 -23v-11v-348q0 -121 4 -181q2 -26 4 -41q17 -127 83 -154 q22 -9 45 -11q12 -1 57 4q52 6 76 14q46 15 87 45q34 26 60 52q2 2 10.5 12t14.5 15q4 4 18 7q24 8 34 13l3 2l4 4l17 17q2 2 5.5 5t5.5 5t2 3v7v526v14q-2 3 -5 6l-15 12q-36 26 -96 26q-6 0 -18 0.5t-17 0.5q-16 0 -24 5q-6 4 -2 10t11 2q3 -2 15 -2h35q61 0 104 -30 q4 -2 9.5 -7.5t6.5 -5.5l3 -3q43 40 112 45q11 1 34.5 1t36.5 2q6 2 8 -6q2 -7 -6 -9q-14 -2 -38 -2t-34 -1q-65 -5 -105 -43v-15v-526v-9q2 -3 2 -14v-23q0 -12 0.5 -35t0.5 -34v-23v-5q4 -2 6 -4q13 -10 25 -15q19 -9 61 -5q50 6 76 8q8 0 8 -7q0 -8 -6 -8q-25 -2 -77 -8 q-13 -1 -25 -1q-28 0 -44 7q-6 3 -27 17q-1 0 -2 1q-4 -6 -12.5 -20t-12.5 -21q-18 -34 -22 -38q-6 -5 -10 -1q-6 6 -1 11q2 2 20 36q5 9 15.5 25.5t12.5 20.5v6v24q0 11 -0.5 34t-0.5 35v20l-4 -4l-17 -17q-9 -9 -11 -10q-5 -3 -11.5 -5t-13.5 -4.5t-11 -3.5q-12 -4 -14 -5 q-5 -4 -13 -13t-11 -12q-33 -33 -62 -54q-44 -33 -91 -47q-31 -9 -79 -15q-45 -5 -60 -4q-21 1 -48 12q-75 30 -93 166q-2 14 -4 42q-4 61 -4 182v348v10l-1 2q-1 1 -2.5 2t-2.5 2q-10 10 -19 15q-32 19 -87 23h-12t-13 1q-4 0 -14.5 -0.5t-16.5 0.5q-7 0 -13 3q-7 3 -3 11z " />
<glyph unicode="v" horiz-adv-x="878" d="M9 1117q2 8 8 7q2 0 54 -3q38 -3 66 -11q28 -7 47 -17q2 -1 23 -13q2 3 7 7t6 5q19 19 24 21q13 6 38 8q7 1 34 1t40 3q7 2 9 -6q2 -7 -5 -9q-15 -3 -42 -3t-34 -1q-24 -2 -34 -7q-3 -1 -20 -18q-2 -2 -5 -4.5t-5 -4.5t-3 -4q0 -2 2 -8q1 -5 2.5 -16t2.5 -17 q4 -26 12 -52q5 -15 35 -90q30 -77 88.5 -220t70.5 -172q22 -56 40 -97q2 -4 5.5 -14t5.5 -14q0 -1 2 -4.5t3 -5.5q1 0 2.5 0.5t4 1.5t4.5 2q16 6 25 10l22 9l8 4l1 1q1 2 2.5 4t2.5 4q3 4 8 13.5t8 13.5q47 73 53 83q66 108 116 205q52 100 70 163q8 31 12 61q10 66 10 99 q0 30 -2 36q-4 12 -19 29q-4 5 1 10t11 -1q19 -25 22 -34q2 -7 2 -40q0 -35 -10 -101q-6 -42 -12 -63q-17 -60 -71 -165q-51 -99 -118 -206q-45 -74 -52 -85q-3 -5 -8.5 -13.5t-8.5 -12.5l-3 -6q-3 -5 -6 -7q-2 -2 -4.5 -3t-4.5 -1.5t-3 -0.5l-21 -9q-4 -2 -13.5 -5.5 t-12.5 -5.5q-10 -5 -15 -5q0 -2 -1 -5t-1 -4q-2 -8 -8 -6q-8 2 -6 8q1 5 1 15q0 1 -1 3t-2 4.5t-2 4.5q-2 4 -5.5 13t-5.5 14q-3 6 -40 98q-12 29 -70.5 172t-88.5 220l-36 90q-4 12 -11 54q-1 5 -3 17t-3 17l-1 3q-1 3 -1 5q-6 2 -24 13q-21 11 -45 17q-37 9 -63 10 q-6 0 -17 0.5t-20 1t-17 1.5q-8 2 -7 8z" />
<glyph unicode="w" horiz-adv-x="1385" d="M9 1111q-2 7 5 9h35q68 0 109 -24q18 -12 26 -19q10 -10 11 -13v-14v-438q0 -50 1.5 -80.5t11 -73t27.5 -72.5q40 -66 123 -75q14 -2 58 5q23 2 54 11q27 8 58 27q37 23 113 99q4 4 9.5 6t10.5 3t6 2l8 8l18 18l4 4l3.5 3.5t3 2.5t1.5 2l-1 5v9q0 32 -2 48q-8 68 -8 152 v344q-34 32 -112 43q-20 2 -31 2q-16 0 -25 5q-7 4 -3 10t10 2q3 -2 18 -2q22 0 33 -2q80 -12 117 -44q8 8 26 22q18 15 19 15q21 9 81 9q22 0 32 2q7 2 9 -5t-5 -9q-8 -2 -36 -2q-54 0 -75 -9q-3 -1 -16 -12q-4 -4 -13 -12.5t-14 -12.5v-344q0 -83 8 -150q2 -17 2 -50l1 -2 v-5.5v-6.5q6 -4 10 -9t8 -17l3 -11q9 -24 20 -40q47 -76 134 -102q43 -12 96 -14h8q32 0 71 7q68 14 129 75q92 92 118 250q6 40 9 77q2 36 2 61q0 19 -1 32q-1 8 -2 24.5t-2 24.5q-14 137 -77 188q-9 7 -31 17q-6 3 -20 9q-6 4 -13 6h-10q-8 0 -8 7q0 8 7 8h3.5h5.5h6 q3 -1 6 -2.5l6 -3t4 -2.5q12 -6 19 -9q27 -12 34 -18q68 -54 83 -199q1 -8 2 -24.5t2 -24.5q1 -12 1 -31q0 -25 -2 -64q-3 -41 -9 -79q-28 -163 -123 -258q-63 -63 -136 -78q-39 -8 -75 -8h-8q-59 2 -99 14q-92 27 -143 110q-13 21 -21 41q-2 4 -4.5 13.5t-4.5 12.5l-2 1 q-2 1 -3 2q-2 -2 -5 -4.5t-4 -3.5l-19 -19q-9 -8 -11 -10q-5 -3 -13 -5.5t-9 -3.5q-76 -76 -116 -101q-34 -22 -61 -29q-32 -8 -57 -11q-54 -6 -62 -5q-41 4 -77 26t-57 57q-20 33 -29.5 77.5t-11 74t-1.5 81.5v438q0 3 0.5 6t0.5 4q0 2 -6 6q-8 7 -24 17q-37 22 -102 22 h-31q-7 -2 -9 6z" />
<glyph unicode="x" horiz-adv-x="953" d="M23 305q-2 6 6 8l12 3l68 6l47 9l29 9l2 4l7 20q0 2 3.5 14t6.5 18q7 14 33 50q18 26 52.5 72.5t48.5 65.5q17 22 38 52l13.5 18l16.5 22q2 3 16 13l31 31q-5 6 -7.5 14.5t-4 17t-2.5 10.5q-2 7 -23 37q-59 89 -67 100q-42 59 -58 88q-6 11 -19 59l-5 20q-3 0 -9 3 q-10 4 -32 12q-43 17 -88 23q-7 1 -29.5 2.5t-34.5 4.5q-8 2 -6 9t9 5q11 -2 32.5 -3.5t30.5 -2.5q42 -5 91 -24q5 -2 15.5 -6t16.5 -6q4 0 8 -2l19 19q10 10 17 14q18 9 48.5 9t44.5 1q7 2 9 -6q2 -7 -6 -9q-14 -3 -48.5 -2t-41.5 -6q-2 -1 -12 -11q-13 -13 -19 -20 q2 -5 3 -12l1 -8q14 -46 19 -56q14 -26 56 -87q31 -44 68 -100q21 -32 24 -41q1 -5 3 -12t3 -11.5t3 -9t5 -6.5l3 1h4h24q23 23 35 34q4 4 10.5 8t9.5 7q9 10 18 22t20 27.5t18 24.5q11 15 49.5 65t58.5 78q18 24 23 37q2 4 4.5 13.5t3.5 13.5t3.5 13t4.5 13l2 6 q-7 9 -16 13q-12 6 -37 5.5t-43 1.5q-8 2 -6 8q2 8 8 6q6 -1 40.5 -0.5t43.5 -7.5q11 -5 20 -16q6 2 8 3q8 3 24 7q32 9 86 13q39 3 41 3q7 2 9 -6q2 -7 -6 -9q-9 -2 -25 -2.5t-17 -0.5q-57 -4 -83 -12q-16 -4 -24 -7q-8 -2 -9 -3q0 -1 -2 -7q-2 -4 -4.5 -13t-3.5 -13 q-1 -3 -3.5 -12.5t-4.5 -15.5q-7 -17 -24 -40q-20 -28 -59.5 -79.5t-49.5 -64.5q-7 -8 -26 -34.5t-31 -40.5q-5 -5 -12.5 -10t-8.5 -5l-31 -31q4 -6 6.5 -13.5t4.5 -15.5l3 -12q2 -5 20 -30q15 -22 46 -65.5t47 -65.5q50 -71 58 -84t20 -56q2 -12 4 -16q0 -1 1 -2v-2 q1 -1 9 -3q5 -2 14 -5.5t13 -4.5q59 -22 115 -26q10 -1 31 -1q20 0 27 -4q6 -3 3 -10q-3 -6 -10 -3q-8 3 -20 3h-9.5h-12h-10.5q-55 4 -119 27q-22 7 -28 10q-1 1 -3 1l-4 1q-22 -24 -33 -31q-8 -5 -28 -7q-9 -1 -19 -1.5t-22 -1t-18 -0.5q-8 0 -8 7q0 8 6 8q10 1 29.5 1.5 t29.5 1.5q19 2 23 5q6 3 29 29v3q-4 13 -5 17q-10 39 -18 52q-21 32 -57 83q-15 22 -46 65.5t-47 65.5q-2 3 -7 9t-9 12t-6 12t-4.5 14.5t-4.5 14.5t-5 10h-24h-8q-22 -22 -34 -33q-3 -3 -8.5 -6.5t-6.5 -5.5q-3 -4 -29 -40q-6 -9 -19 -26t-19 -25q-68 -92 -101 -139 q-27 -40 -31 -47q-2 -5 -5 -15.5t-5 -15.5l-6 -20l-2 -3l4 -4q8 -8 19 -11q12 -4 38 -4.5t34 -1.5q8 -2 6 -8q-2 -8 -8 -6q-7 1 -36 0.5t-39 4.5q-11 3 -24 16l-2 1l-2 2l-30 -8l-48 -10h-1l-68 -6l-12 -2q-6 -2 -8 6z" />
<glyph unicode="y" horiz-adv-x="951" d="M12 1107q4 7 10 4t18 -3h31q69 0 112 -28q7 -5 19 -15l3 -3q22 20 48 32q25 10 75 14h30.5t28.5 2q7 2 9 -5t-6 -9q-9 -2 -19.5 -2.5t-23 -0.5h-18.5q-49 -4 -71 -13q-24 -10 -45 -31v-9v-374q0 -143 10 -204q16 -100 61 -134q15 -11 40 -20q14 -5 37 -5q20 0 48 4 q52 6 74 14q44 15 90 48q32 23 51 41l11 11t16 14q4 3 12.5 5t9.5 2q18 6 28 9l12 4q5 1 13 0.5t9 -0.5l5 5l3 3v7v564v14l-5 5q-11 11 -20 16q-39 24 -98 24q-6 0 -16.5 0.5t-15.5 0.5q-20 0 -28 3q-7 4 -4 10q4 7 10 4t22 -3h32q63 0 106 -27q8 -5 22 -17l2 -2 q21 21 50 33q24 9 73 13h30.5t28.5 2q7 2 9 -5t-6 -9q-9 -2 -19.5 -2.5t-23 -0.5h-18.5q-47 -4 -68 -12q-22 -8 -47 -32v-6.5t-0.5 -5t-0.5 -3.5v-564v-10v-2q0 -225 -2 -270q-5 -90 -8 -115q-15 -108 -54 -189q-53 -111 -127 -132q-23 -7 -53 -5q-29 2 -39 7q-12 6 -37 33 q-31 34 -37 41q-5 4 1 10q4 4 10 -1q6 -8 20.5 -22.5l17.5 -17.5q23 -25 31 -29q10 -4 34 -6q24 -1 48 5q67 20 118 124q37 76 52 185q5 38 9 112q1 21 1 254q-1 0 -1 -0.5t-1 -0.5q-3 -1 -26 -1q-1 0 -4 -1l-6 -2q-4 -2 -13.5 -5t-14.5 -4q-14 -4 -17 -6l-26 -23 q-23 -21 -53 -42q-54 -37 -94 -50q-29 -9 -76 -15q-27 -4 -48 -4q-27 0 -44 6q-27 9 -44 22q-50 37 -67 143q-10 63 -10 207v374v8l-6 6q-16 13 -17 14q-37 25 -104 25q-6 0 -16 0.5t-15 0.5q-20 0 -25 3q-6 3 -3 10z" />
<glyph unicode="z" horiz-adv-x="711" d="M23 347q8 13 20 27q25 30 44 44q3 3 29 14l9 3q0 1 1.5 8t2.5 10q2 7 5.5 21.5t5.5 21.5q3 16 7 21q2 4 43 59l86 118q38 53 115.5 159.5t116.5 159.5q7 10 16 47l1 6q1 7 3 11l-12 12l-5 5h-22h-57l-116 1h-64q-51 0 -51 -1q-21 0 -61 -8q-12 -2 -18 -4q-1 -1 -4 -2 q-3 -9 -9.5 -25.5t-8.5 -22.5q-20 -58 -32 -121q-2 -8 -9 -6q-8 2 -6 9q10 51 33 122q1 3 7.5 21t9.5 27q-3 2 -7 10q-18 24 -19 45q0 8 7 8q8 0 8 -7q2 -18 16 -38q2 -3 6 -7q3 0 5 1q12 4 18 5q35 7 64 8q0 1 115 1l116 -1h57q25 0 28 -1t10 -8l11 -12q4 2 9 3.5t6 1.5 q35 14 45 19q9 5 18 12.5t15 13t16.5 17t14.5 16.5q5 5 10 0q6 -5 0 -11q-3 -3 -14.5 -15.5t-17 -18t-16 -14t-20.5 -13.5q-12 -6 -46 -20q-2 -1 -5.5 -2t-6.5 -2l-3 -1q-1 -2 -2 -8.5t-2 -9.5q-10 -40 -19 -52q-39 -53 -116 -159t-116 -159l-86 -118q-30 -40 -43 -60 q-1 -1 -1.5 -3.5t-1 -6t-1.5 -6.5q-2 -7 -6 -21.5t-6 -21.5q0 -1 -0.5 -7t-2.5 -10l9 -9h12h37q41 -2 77 -13q24 -8 73.5 -34t78.5 -32q28 -6 44 -6q11 0 33 6q40 8 66 24q42 27 88 101q24 43 26 47q4 7 10 4q7 -3 4 -9q-3 -7 -28 -49q-48 -78 -92 -106q-26 -17 -71 -26 q-1 0 -14.5 -3.5t-21.5 -3.5q-19 0 -47 6q-32 7 -83 33.5t-71 33.5q-31 10 -73 12h-36q-16 0 -18 1q-7 2 -14 12q-6 -3 -8 -3q-19 -7 -25 -12q-20 -15 -41 -41q-14 -16 -19 -25q-4 -7 -10 -3q-7 4 -3 10z" />
<glyph unicode="{" horiz-adv-x="475" d="M40 776q0 7 7 7l94 2l2 4l1 3q4 15 6 19t7 7l5 3q14 12 20 19q28 30 41 79q13 47 17 136q1 21 1 191v84q0 113 11 178q11 69 43 112q28 38 79 60q12 5 43 14q1 0 8.5 2t12.5 2q7 0 7 -7q0 -8 -7 -8q-4 0 -18 -4q-22 -5 -40 -13q-50 -23 -74 -55q-28 -37 -39 -106 q-11 -63 -11 -175v-84q0 -171 -1 -192q-4 -89 -17 -139q-12 -46 -45 -84l-22 -22l-5 -5l-3 -2l-5 -15q-3 -7 -3 -9q0 -4 3 -11q4 -15 5 -16l4 -3q4 -3 6 -5q16 -14 23 -22q28 -34 42 -87q12 -46 16 -140q2 -51 2 -228q0 -141 11 -210q11 -72 39 -111q26 -34 74 -57 q26 -12 58 -17q8 -2 7 -8q-2 -8 -8 -6q-40 5 -63 17q-52 24 -80 62q-30 41 -42 118q-11 70 -11 212q0 177 -2 228q-4 92 -15 136q-13 48 -40 81q-9 11 -21 21l-5 3q-5 3 -7 7q-3 4 -7 21q0 1 -1 3q-1 3 -2 4l-93 -1q-8 0 -8 7z" />
<glyph unicode="|" horiz-adv-x="180" d="M83 -138v1772q0 8 7 8q8 0 8 -8v-1772q0 -8 -8 -8q-7 0 -7 8z" />
<glyph unicode="}" horiz-adv-x="476" d="M30 1691q0 7 8 7q25 0 67 -19q49 -24 76 -59q31 -40 43 -121q10 -74 10 -178v-87q0 -145 4 -198q6 -85 16 -118q12 -45 36 -73q12 -15 20 -21q1 -1 4 -3t5.5 -4.5t4.5 -5.5q3 -5 7 -19q2 -4 3 -8l68 1l26 1q8 0 8 -7q0 -8 -7 -8h-26l-69 -2l-2 -6q-4 -14 -7 -19 q-4 -6 -13 -12q-13 -12 -19 -18q-29 -33 -42 -83q-11 -43 -15 -135q-2 -47 -2 -212q0 -170 -11 -237q-11 -69 -39 -109q-25 -34 -66 -55q-35 -18 -79 -26q-6 -2 -8 6q-2 6 6 8q41 8 75 25q38 20 60 51q25 36 36 103q12 71 12 234q0 188 1 212q4 98 15 139q14 50 46 88 q9 11 20 20l11 9q1 1 5 16q1 2 2 6l1 3l-1 1q0 2 -1 4.5t-2 4.5q-4 15 -5 16q0 1 -12 10q-12 10 -22 22q-26 31 -39 78q-10 35 -16 121q-3 40 -3 200v87q0 96 -11 176q-11 75 -40 114q-23 31 -71 54q-38 18 -61 18q-7 0 -7 8z" />
<glyph unicode="~" horiz-adv-x="815" d="M27 715q14 44 56 91q30 34 64 56q29 19 60 28q24 6 36 8q20 3 23 3q5 -1 13.5 -2.5t10.5 -1.5q24 -4 36 -8q15 -5 32 -13.5t28.5 -15.5t29.5 -18.5t27 -16.5q48 -28 73 -35q34 -9 45 -9q8 0 38 7q27 6 49 16q45 21 85 73q12 17 26 43q1 3 4.5 9t4.5 9q2 8 9 6t5 -9 q-2 -8 -9 -22q-13 -26 -28 -45q-40 -53 -91 -78q-22 -10 -52 -17q-28 -7 -41 -7q-15 0 -49 9q-25 6 -77 38q-10 6 -34.5 21.5t-42.5 25t-36 15.5q-7 2 -34 7q-3 0 -10.5 2t-11.5 2l-21 -3q-24 -4 -35 -7q-21 -5 -54 -27q-35 -23 -62 -53q-38 -41 -52 -85q-2 -7 -10 -5 q-7 2 -5 9z" />
<glyph />
<glyph />
<glyph />
<glyph />
<glyph />
<glyph />
<glyph unicode="&#x85;" />
<glyph />
<glyph />
<glyph />
<glyph />
<glyph />
<glyph />
<glyph />
<glyph />
<glyph />
<glyph />
<glyph />
<glyph />
<glyph />
<glyph />
<glyph />
<glyph />
<glyph />
<glyph />
<glyph />
<glyph />
<glyph />
<glyph />
<glyph />
<glyph />
<glyph />
<glyph />
<glyph unicode="&#xa1;" horiz-adv-x="137" d="M60 -11l1 684l2 52q0 7 7 7t7 -8l-1 -52l-1 -683q0 -7 -8 -7q-7 0 -7 7z" />
<glyph unicode="&#xa2;" horiz-adv-x="693" d="M48 844q0 26 6 76q20 188 121 285q28 26 44 36q40 25 73 31q28 4 42 5q3 0 7 0.5t6 0.5v140q0 8 8 8q7 0 7 -8v-138h11q8 -1 23 -1.5t23 -0.5q54 -5 94 -40q28 -24 47 -66q22 -49 27 -55q5 -5 -1 -11q-5 -5 -11 1q-7 8 -12 17.5t-10 23.5t-7 18q-17 38 -43 61 q-36 31 -86 36q-8 1 -23 1t-22 1h-10v-780q0 -13 -1 -15t-13 -14q3 -3 15 -3q21 0 61 6q42 5 67 16q79 35 142 129q4 6 10 2t2 -10q-67 -99 -148 -134q-23 -10 -71 -18q-30 -4 -61 -6l-3 -5v-12v-127q0 -8 -7 -8q-8 0 -8 8v127v14q0 3 1 4h1q-10 4 -15 11q-3 0 -33 3 q-22 3 -26 4q-14 5 -25 11q-27 13 -57 38q-107 89 -136 247q-9 52 -9 91zM63 844q0 -44 9 -89q29 -155 130 -238q26 -21 55 -35q3 -1 7.5 -4t8 -4.5t6.5 -2.5q1 -1 24 -3q1 0 13.5 -1.5t18.5 -1.5l2 2l10 10v8v777h-12q-16 -1 -41 -5q-29 -5 -66 -29q-27 -18 -43 -34 q-96 -92 -116 -275q-6 -50 -6 -75z" />
<glyph unicode="&#xa3;" horiz-adv-x="771" d="M19 309q-5 5 1 10q14 11 25 25q3 4 8 13t8 14q8 12 29 26q17 12 46 23l15 6q1 1 3 1q1 1 3 13q2 8 7 31q3 14 5 19q3 7 10 16.5t9 13.5q15 26 29 65q28 81 37 196q4 63 5 97h-90q-46 0 -58 -4q-8 -2 -10 5t5 9q15 5 63 5h90v11l1 1v1v10q0 5 0.5 15.5t0.5 15.5 q3 67 10 120q19 163 106 255q39 41 80 54q15 5 66 12q45 7 67 2q43 -9 85 -48q5 -6 0 -11t-10 0q-37 34 -79 44q-19 4 -62 -2q-50 -7 -63 -11q-36 -12 -73 -50q-83 -88 -102 -246q-7 -53 -10 -120q0 -5 -0.5 -15t-0.5 -15v-9l3 -3l3.5 -3.5t4 -4.5t3.5 -3h14h158q61 0 90 5 q7 2 9 -6q2 -7 -6 -9q-26 -5 -93 -5h-158q-19 0 -23 3q-1 1 -3 2.5t-3 2.5q-1 -36 -5 -106q-9 -117 -38 -200q-13 -37 -30 -67q-3 -5 -10 -14.5t-9 -14.5q-1 -2 -3 -16q-4 -22 -7 -32q0 -1 -1 -5.5t-2 -7.5l3 1h5q17 0 26 -1q7 -1 21.5 -1.5t21.5 -0.5q30 -3 67 -15 q28 -10 75 -39.5t73 -37.5q27 -9 57 -9q12 0 40 4q130 18 186 101q4 6 11 2q6 -4 2 -11q-61 -89 -197 -107q-26 -4 -42 -4q-29 0 -61 10q-29 9 -76.5 39t-72.5 38q-31 11 -63 14q-7 1 -22 1.5t-22 0.5h-7h-9h-8q-10 0 -13 1q-4 2 -6 4l-1 -1l-15 -6q-30 -12 -43 -21 q-19 -14 -25 -23q-2 -3 -7 -12.5t-10 -15.5q-10 -12 -27 -26q-5 -5 -11 1z" />
<glyph unicode="&#xa4;" horiz-adv-x="689" d="M29 1162q-5 5 0 10q5 6 11 0q7 -7 27.5 -25.5t30.5 -29.5l16 -16l3 -4q1 1 2 1l15 6q21 7 23 8q5 3 16.5 11t18.5 12q59 33 122 37q21 3 28 2q77 -4 121 -25q23 -11 49 -30q3 -2 8 -6.5t7 -6.5q2 -1 7.5 -2t7.5 -2q3 -1 11 -5t13 -5l3 3l13 13q9 11 20 22t25 24t21 20 q5 5 10 0t0 -10q-59 -59 -64 -65l-15 -15l-3 -2q2 -4 2 -5q1 -3 2.5 -10t2.5 -11q1 -3 2 -9t2 -8q2 -4 7 -12.5t6 -10.5q12 -23 22 -54q33 -108 -5 -220q-6 -16 -29 -60q0 -1 -0.5 -3t-1 -5t-0.5 -5q-1 -4 -3 -11.5t-3 -11.5q0 -6 -1 -10q36 -36 55 -54q6 -5 16 -15 q8 -8 10 -12q1 -3 1 -24q-1 -13 -1 -41q0 -8 -8 -8q-7 0 -7 8q0 27 1 41v19q0 2 -6 6q-6 5 -17 16q-38 36 -55 53q-6 -2 -7 -2l-10.5 -3.5t-11.5 -4.5l-6 -2t-4 -1q-1 -1 -16 -13q-28 -20 -44 -27q-72 -33 -159 -25q-43 4 -70 13q-34 13 -55 26l-21 15q-2 1 -4 3l-3.5 3.5 t-2.5 1.5q-1 1 -14 5q-4 1 -10.5 3.5t-9.5 3.5q-4 2 -5 2l-1 -1q0 -2 -1 -2q-10 -10 -15 -16q-8 -9 -17.5 -18.5t-22 -21.5t-18.5 -18q-5 -5 -10 0q-6 6 0 11q50 50 56 57q5 6 16 17l3 3q-3 8 -5.5 22t-4.5 20q-1 3 -6 10t-7 11q-12 23 -21 48q-12 34 -17 81q-3 33 -3 35 q2 49 11 86q8 36 24 65q8 14 13 21q1 2 3.5 5.5t3.5 5.5q1 3 2 9.5t2 9.5q1 5 3.5 13t3.5 10l-4 4q-3 3 -8.5 9t-7.5 8q-10 10 -30 28.5t-28 26.5zM56 860q0 -6 1.5 -18t1.5 -15q6 -48 16 -77q11 -29 20 -46q1 -2 6.5 -9.5t7.5 -12.5q3 -9 5.5 -24t4.5 -20q2 0 4 -2l3 -1 q3 -1 9.5 -3.5t9.5 -3.5q10 -2 17 -6q3 -2 6.5 -5t4.5 -4q18 -13 20 -14q26 -16 52 -25q25 -8 66 -12q84 -8 151 23q23 11 43 26l6 5q6 6 10 8q1 1 14 5q7 2 21 8l8 3q0 1 2 9q1 4 2.5 12t2.5 12q3 14 4 15q26 51 28 58q37 108 5 212q-8 27 -21 51l-6 9q-6 9 -8 15 q-1 2 -1.5 5t-1 5.5t-1 5.5t-0.5 4l-6 21q0 2 -1 4q-18 6 -26 9q-9 2 -16 7q-4 2 -9.5 7t-7.5 6q-21 16 -46 28q-43 20 -116 24q-8 0 -26 -2q-60 -4 -115 -35q-5 -3 -16.5 -11.5t-18.5 -12.5q-2 -1 -26 -8q-2 -1 -6.5 -3t-7.5 -3q-2 0 -4 -1l-6 -24q-2 -14 -5 -20 q-1 -2 -9 -14l-5.5 -11t-5.5 -10q-15 -29 -23 -61q-10 -43 -11 -83z" />
<glyph unicode="&#xa5;" horiz-adv-x="845" d="M-4 1405q2 8 8 6q8 -1 23 -2t23 -2q34 -5 57 -13q22 -7 46 -18q12 -6 17 -8q3 4 8 7.5t6 4.5q19 19 21 20q11 6 45 9q5 0 15 0.5t15 0.5q13 0 16 2q6 3 10 -4q3 -6 -4 -10q-6 -3 -22 -3q-5 0 -15 -0.5t-15 -0.5q-30 -2 -37 -7q-6 -4 -19 -17l-4 -4l-3.5 -3.5l-3 -3 l-2.5 -2.5q0 -4 1 -7q1 -5 3 -13.5t3 -12.5q1 -5 3 -18t4 -19q4 -11 31 -69q29 -58 80.5 -165.5t71.5 -148.5q2 -4 7 -13.5t7 -14.5q2 -6 3 -16t2 -13q1 -4 2.5 -13t2.5 -13q2 -6 2 -7q4 -2 6 -5l3 -6q2 -2 5 -5.5t4 -4.5l9 8q7 7 9 8q5 2 10.5 2t8.5 -0.5t4 -0.5l7 7 q3 3 7.5 7t8 7.5t5.5 6.5q0 4 2 11q2 5 6 14l4 9q36 84 38 88q11 25 108 250q4 11 26 59q13 28 20 51q2 8 5 23t5 23q0 1 1 6t2 8q-4 4 -10 8q-12 6 -29 6h-23q-22 1 -33 3q-8 2 -6 8q2 8 9 6q10 -2 29.5 -2h23.5q22 0 36 -7q6 -3 14 -11q2 1 4 1q6 2 25 7q37 9 62 10 q4 0 16.5 0.5t18.5 1.5q6 2 8 -6q2 -6 -6 -8q-6 -1 -12 -1.5t-12.5 -1t-10.5 -0.5q-31 -2 -61 -9q-14 -3 -22 -7l-6 -2l-3 -14q-2 -8 -5 -23t-5 -23q-1 -6 -21 -53q-22 -48 -26 -59q-12 -28 -34 -78.5t-40 -92t-34 -78.5q-16 -39 -38 -89q-1 -3 -4.5 -10.5t-4.5 -11.5 q0 -8 -5 -15q-3 -5 -22 -23q-2 -2 -3 -4l8 -8l6 -6h17h50q118 0 141 1q3 0 16.5 2t21.5 2t8 -7q0 -8 -7 -8q-6 0 -19.5 -2t-19.5 -2q0 -2 -70 -1l-71 1h-50q-22 0 -24 1q-3 1 -9 8l-12 11q-5 -1 -8.5 -0.5t-6 1t-3.5 0.5q-3 -2 -5 -4l-11 -12v-195h227h44q6 0 19 1.5t20 2.5 q8 0 8 -6q0 -8 -6 -8q-5 0 -19 -2l-21 -3q-15 -1 -45 -1h-227v-194v-6q14 -14 27 -22q37 -23 121 -27q8 -1 25.5 -1h26.5q19 0 24 -3q7 -4 4 -10t-10 -3q-2 1 -19 1q-9 1 -25.5 1h-25.5q-89 4 -129 29q-10 6 -26 22q-17 -20 -49 -33q-26 -11 -54.5 -15t-68 -4t-53.5 -1 q-8 0 -8 7q0 8 6 8q18 1 56 1.5t65 4t51 13.5q32 14 47 33v5v194h-231q-57 0 -73 -5q-7 -2 -9 5q-2 8 5 10q19 6 77 6h231v195q-12 12 -14 15q-3 3 -3 5l-14 -14q-9 -9 -11 -10t-23 -1h-167q-55 0 -70 -5q-8 -2 -10 5t5 9q16 5 75 5h167h16l7 7l16 16q-1 3 -1 8 q-1 4 -2.5 12.5t-2.5 12.5q-5 24 -6 27q-6 17 -12 27q-17 35 -47.5 99t-56 116t-48.5 98q-27 57 -32 72q-3 11 -8 39q-1 5 -2.5 13.5t-2.5 12.5l-2 6q-3 1 -9 4t-9 4q-25 10 -46 17q-31 11 -54 13q-8 1 -23 2.5t-23 2.5q-8 2 -6 8z" />
<glyph unicode="&#xa6;" horiz-adv-x="175" d="M82 -70v626q0 8 8 8t8 -8v-626q0 -8 -8 -8t-8 8zM82 956v627q0 7 8 7t8 -7v-627q0 -8 -8 -8t-8 8z" />
<glyph unicode="&#xa7;" horiz-adv-x="757" d="M51 834v33q2 33 6 64q10 59 26 91q15 29 32 47l11.5 11.5l10.5 10.5l1 1q0 2 1.5 4.5t3.5 5.5q19 21 44 45q-1 2 -1.5 4.5t-1 4t-0.5 2.5l-1 2q-1 1 -6 6.5t-7 9.5q-10 16 -20 45q-10 31 -9 59q1 13 8 57q8 48 17 72q17 45 51 83t78 59q48 22 102.5 24t103.5 -18 q36 -15 67 -48q19 -21 27 -37q5 -10 15 -54q2 -8 7 -31q4 -22 -3 -34q-4 -6 -10 -2t-2 10q3 5 0 24l-6 30q-8 36 -15 51q-8 16 -24 32q-30 32 -62 45q-98 40 -194 -5q-41 -19 -73 -55t-48 -79q-8 -22 -16 -70q-8 -45 -8 -54q-1 -23 8 -55q6 -20 19 -40q2 -3 6 -8t6 -8 q3 -4 4.5 -7.5t2.5 -6.5v-3q2 0 8 -2q19 -5 25 -8q35 -18 107 -52q150 -72 238 -154q48 -45 74 -84q55 -87 54 -154q-4 -133 -55 -200q-11 -14 -35 -36q-1 -3 -4 -6l-23 -23l-18 -18l-3 -3l-3 -2l3 -6q1 -3 2 -6.5t1 -4.5q1 -2 5 -6t6 -7q27 -34 36 -77q4 -20 4 -32 q0 -10 -11 -65q-11 -56 -21 -79q-35 -83 -120 -129q-60 -34 -133.5 -29t-127.5 48q-30 23 -46 54q-4 7 -9 27q-10 38 -14 58q-4 22 -3 25q0 1 5 11q3 7 11 3q6 -3 2 -10q-3 -5 -3 -7t0.5 -4.5t1.5 -7t1 -7.5q8 -38 13 -57q1 -3 3.5 -12t4.5 -13q13 -26 42 -48 q50 -40 119.5 -44.5t125.5 26.5q80 43 113 121q12 28 21 76q10 52 10 63q0 9 -4 29q-7 37 -33 71q-1 1 -3.5 4t-4.5 6l-4 6t-5 13l-2 6q-11 2 -21.5 7t-23.5 13t-18 11q-20 11 -58.5 30t-55.5 28q-83 44 -98 53q-137 81 -195 192q-25 49 -32 94zM66 837q6 -44 31 -91 q54 -104 189 -185q21 -13 97 -52q19 -10 57 -29.5t57 -29.5q49 -27 59 -29q1 2 4 3l2 2l18 18l23 23q1 2 4 5q27 27 34 36q48 64 52 191q1 65 -51 145q-25 37 -72 81q-83 77 -235 151q-72 34 -107 52q-8 4 -22 7l-8 2l-44 -44v-2q-1 -2 -2 -5t-4 -6q-4 -4 -11.5 -11 t-10.5 -10q-19 -20 -30 -43q-14 -28 -24 -87q-4 -31 -6 -63v-29z" />
<glyph unicode="&#xa8;" horiz-adv-x="463" d="M56 1432q0 8 8 8q7 0 7 -8t-7 -8q-8 0 -8 8zM377 1432q0 8 7 8h1q7 0 7 -8t-7 -8h-1q-7 0 -7 8z" />
<glyph unicode="&#xa9;" horiz-adv-x="1151" d="M45 1005q19 91 64 166q53 89 136.5 154t181.5 91q51 13 97 17q8 1 23.5 1.5t23.5 1.5q7 1 44 -2q63 -5 121 -22q117 -35 209.5 -121t135.5 -201q32 -86 35 -183q3 -108 -34 -205q-36 -96 -106.5 -173t-163.5 -122q-78 -37 -164 -48q-95 -12 -191 8q-135 29 -242.5 124.5 t-150.5 226.5q-48 142 -19 287zM60 1002q-28 -142 18 -279q43 -127 147 -219.5t235 -121.5q94 -20 186 -8q84 11 160 47q90 43 158.5 118t103.5 168q36 95 33 199q-3 99 -34 179q-42 111 -132 194.5t-203 118.5q-52 16 -118 21q-37 3 -41 2q-10 -1 -28 -2t-20 -1 q-44 -4 -94 -17q-96 -25 -177 -88t-133 -150q-44 -71 -61 -161zM330 897q0 15 4 41q10 75 43 130q16 28 38 49q46 45 111 59q59 12 134 0q30 -5 74 -23q3 -1 9 -4t9 -4q3 0 8 -5l6 -12q2 -6 6 -20q6 -26 9 -40q1 -5 2.5 -16.5t2.5 -16.5q2 -7 -5 -9t-9 6q-2 7 -3.5 18.5 t-2.5 14.5q-1 6 -2.5 12.5t-3.5 14.5l-3 12q-1 3 -2.5 9.5t-2.5 9.5q-2 6 -2 7q-3 0 -5 1q-3 2 -9 4.5t-8 3.5q-38 16 -71 22q-75 13 -128 1q-57 -12 -103 -56q-23 -23 -36 -45q-31 -54 -41 -125q-4 -28 -4 -40t4 -40q8 -66 41 -123t87 -85q18 -9 44 -16q41 -10 77 -7 q51 4 84 17q35 15 69 47q4 4 11.5 12.5t12.5 13.5t10 0t1 -10q-4 -4 -12 -13t-13 -14q-36 -34 -73 -50q-35 -14 -89 -18q-43 -3 -82 7q-25 6 -47 18q-59 30 -93.5 89.5t-42.5 129.5q-4 26 -4 43z" />
<glyph unicode="&#xaa;" horiz-adv-x="477" d="M28 1137q0 8 5 28t7 26q10 26 36 47q39 32 122 56q70 21 83 23q27 5 65 5q-1 20 -5 55q-8 61 -27 89q-12 17 -23 27q-40 36 -118 29q-52 -5 -84 -27q-11 -8 -17 -17q-7 -10 -15 -38q0 -1 -1.5 -7t-3 -11t-5.5 -9q-5 -5 -10 -1q-5 6 -1 10q1 1 2 5t2.5 9.5t2.5 8.5 q10 34 16 42q8 12 21 20q35 25 92 30q85 8 129 -33q14 -12 25 -30q22 -34 30 -96q5 -33 5 -61q0 -1 1 -3v-131v-36q0 -1 0.5 -3.5t0.5 -4.5v-6q1 -5 2 -14t1 -10q5 -24 13 -43q8 -16 14 -19q10 -4 55 7q7 2 9 -5t-6 -9q-3 -1 -13 -4t-16.5 -4.5t-16 -1.5t-17.5 3 q-14 5 -22 27q-11 23 -15 46q-1 3 -1 10q-14 -17 -22 -20q-6 -3 -27 -8q-8 -2 -9 -3t-16 -13q-18 -15 -40 -26q-24 -13 -60 -18q-28 -4 -45 -3q-47 3 -76 37q-17 19 -24 53q-3 18 -3 22zM43 1137q0 -9 3 -19q7 -30 20 -46q24 -29 66 -32q14 -1 42 3q35 5 55 16q13 7 37 25 l6 6q7 6 11 8q2 1 4.5 2t5 1.5t3.5 0.5q4 1 13 3.5t13 4.5l19 19l4 4q3 1 3 2v5q-1 4 -1 7v36v124q-38 0 -63 -5q-18 -3 -81 -22q-79 -23 -118 -54q-23 -20 -31 -40q-1 -3 -6 -24q-5 -22 -5 -25z" />
<glyph unicode="&#xab;" horiz-adv-x="914" d="M70 714q0 7 8 7q6 0 18 0.5t18 0.5h12q1 1 1 3l1 4q10 27 13 31q2 3 18 15q2 2 16.5 13.5t21.5 18.5q80 68 177 176q34 38 52 60q20 25 20 26q2 3 4 10t3 10q3 8 8.5 24.5t7.5 24.5q2 7 9 5t5 -10t-7.5 -24.5t-8.5 -24.5q0 -1 -2.5 -9.5t-4.5 -13.5q-3 -6 -12 -15.5 t-11 -11.5q-34 -42 -52 -62q-94 -104 -179 -177q-7 -5 -19 -15.5t-19 -16.5q-2 -2 -5.5 -4.5t-6 -4.5t-3.5 -3t-11 -27q0 -5 -3 -9q4 -12 11 -25q4 -12 5 -13q3 -3 12 -8.5t12 -8.5q42 -34 62 -52q76 -69 153 -159q22 -24 43 -52q2 -3 7 -8.5t9 -11t7 -10.5q4 -6 6.5 -17.5 t3.5 -13.5t7 -19.5t7 -26.5q2 -6 -6 -8q-7 -2 -9 6q-1 9 -13 44q-7 24 -9 27q-1 2 -22 28q-29 37 -42 52q-77 90 -152 158q-18 16 -61 51q-23 16 -26 20q-2 3 -3.5 6t-2.5 6.5t-2 4.5q-1 2 -4.5 9.5t-5.5 12.5q-3 -1 -9 0h-2q-6 0 -18 -0.5t-19 -0.5q-8 0 -8 8zM434 713 q0 8 7 8l37 1l9 1l2 3l8 18q3 12 7 17q2 3 6 5l4 3q4 3 11 8.5t10 8.5q30 25 59 53q88 83 158 163q14 16 40 48q2 2 8 8.5t8 9.5q1 2 2.5 6t3 9.5t2.5 8.5q12 32 13 41q2 8 8 6q8 -2 6 -8q0 -1 -13 -43q-7 -24 -9 -27q-1 -2 -17 -21q-13 -16 -41 -48q-82 -93 -158 -164 q-23 -21 -61 -53q-4 -3 -10.5 -8.5t-9.5 -8.5q-4 -3 -8 -7q-2 -2 -6 -12l-7 -18l-2 -6q0 -2 3 -7t4 -7q1 -3 4.5 -12t5.5 -12t6 -5.5t9.5 -6t8.5 -6.5q41 -32 77 -65q69 -63 145 -155q6 -7 18 -21.5t18 -22.5q16 -19 22 -29q3 -6 9 -26q3 -7 7.5 -23t6.5 -23q2 -8 -5 -10 q-8 -2 -10 5q-3 8 -7.5 23t-6.5 23q-1 3 -3 12t-4 12q-2 5 -10.5 14.5t-10.5 11.5l-36 45q-71 85 -143 153q-31 29 -77 65q-23 17 -26 20q-4 5 -8 16l-4 10q0 1 -3 6t-4 8l-9 -1l-37 -1q-7 0 -7 7z" />
<glyph unicode="&#xac;" horiz-adv-x="992" d="M25 1041q0 7 7 7h903h15q3 0 5 -2l9 -9q3 -3 3 -4l1 -9v-1v-421q0 -8 -8 -8q-7 0 -7 8v421l-1 5l-5 5l-13 1h-902q-7 0 -7 7z" />
<glyph unicode="&#xad;" horiz-adv-x="33" />
<glyph unicode="&#xae;" horiz-adv-x="1151" d="M34.5 882.5q-3.5 154.5 71.5 284.5q51 90 136.5 156.5t184.5 92.5q51 13 97 17q8 1 23.5 1.5t23.5 1.5q7 1 44 -2q63 -5 121 -22q117 -35 209.5 -121t135.5 -201q32 -86 35 -183q3 -108 -34 -205q-36 -96 -106.5 -173t-163.5 -122q-78 -37 -164 -48q-112 -15 -224 16 q-85 25 -154 72q-93 64 -150 154q-82 127 -85.5 281.5zM50 883q4 -150 83 -273q57 -89 146 -150q70 -48 150 -71q103 -29 217 -15q84 11 160 47q90 43 158.5 118t103.5 168q36 95 33 199q-3 99 -34 179q-42 111 -132 194.5t-203 118.5q-52 16 -118 21q-37 3 -41 2 q-10 -1 -28 -2t-20 -1q-44 -4 -94 -17q-97 -25 -179.5 -89.5t-132.5 -151.5q-73 -127 -69 -277zM363 627q-4 7 2 11q8 5 23 5h17.5t20.5 2q4 1 13 10l20 20q0 2 1 4v2v435v2q-1 1 -1 2q-21 23 -30 26h-12q-3 0 -21 -1t-22 0q-8 2 -7 8q2 8 8 7q2 -2 20 -0.5t22 1.5 q13 0 16 -1q18 -7 34 -26q10 12 16 18l2 2q1 2 2 3.5t3 3t4 2.5q4 2 14 2q20 2 30 2q72 0 93 -6q52 -13 76 -56q9 -14 17 -48q5 -20 5 -30q0 -8 -5 -28q-9 -38 -25 -62q-11 -16 -30 -32q-1 0 -5.5 -4t-7.5 -6l-8 -4l-2 -2l-2.5 -5l-2.5 -5q-9 -13 -9 -14v-2q1 -2 2 -4.5 t1 -5.5q2 -10 12 -26q3 -5 9.5 -16t10.5 -17q19 -34 38 -64q14 -24 23.5 -37.5t27 -28.5t36.5 -20q12 -3 31 -1q9 0 9 -6q0 -8 -7 -8q-27 -2 -37 0q-23 5 -43 23t-28.5 31t-24.5 40q-31 49 -38 63q-10 18 -20 34q-12 21 -14 30q0 1 -1 4.5t-2 6.5q-3 1 -11 4t-11 4 q-7 1 -47 1h-73v-189q0 -2 -1 -3v-2l10 -10q21 -21 28 -22q9 -1 30 -1q17 0 23 -4q6 -3 3 -10t-11 -3q-3 2 -15 2q-21 0 -32 1q-6 1 -12.5 4.5t-9.5 6.5t-8.5 9t-6.5 7l-2 2q-2 1 -4 3l-18 -17q-11 -11 -20 -14q-5 -2 -21.5 -2h-18.5q-12 0 -15 -3q-7 -4 -11 2zM474 1120 q1 -2 1 -4v-231h74q42 0 48 -1q9 -1 23 -8q2 3 5 6.5t3 4.5q1 1 2 4t3 6t4 5q1 1 11 6q4 2 12 8q12 10 27 30q15 21 23 56q4 18 4 25q0 3 -5 26q-6 30 -15 45q-22 38 -66 49q-18 5 -90 5q-11 0 -29 -2l-7 -1l-8 -8q-18 -17 -20 -21z" />
<glyph unicode="&#xaf;" horiz-adv-x="570" d="M60 1382q-2 6 6 8q10 2 17 3h36h259q89 0 100 1q14 2 23 4q7 2 9 -6q2 -6 -6 -8q-3 0 -11 -2t-13 -3q-11 -1 -102 -1h-259h-34q-2 0 -5 -0.5t-6.5 -1.5t-5.5 -1q-6 -1 -8 7z" />
<glyph unicode="&#xb0;" horiz-adv-x="414" d="M35 1339.5q3 79.5 57 129.5q33 30 71 38q8 2 20.5 3t17.5 2q12 2 39 -3q44 -7 78 -37t49 -72q10 -27 12 -65q0 -9 -2 -25q-5 -45 -29.5 -82t-64.5 -56q-21 -10 -51 -14q-69 -8 -120 24q-14 9 -30 25q-50 53 -47 132.5zM50 1338.5q-3 -72.5 43 -121.5q10 -10 27 -22 q46 -30 110 -22q29 4 46 12q36 18 58.5 52t27.5 74q2 16 2 23q-2 36 -11 61q-14 38 -45 65t-71 34q-23 4 -34 3q-4 -1 -17.5 -2t-19.5 -3q-35 -7 -63 -34q-50 -47 -53 -119.5z" />
<glyph unicode="&#xb1;" horiz-adv-x="843" d="M68 368q0 7 7 7h693q8 0 8 -7q0 -8 -8 -8h-693q-7 0 -7 8zM68 916q0 8 7 8h340v340q0 7 7 7q8 0 8 -7v-340h338q8 0 8 -8q0 -7 -8 -7h-338v-337q0 -8 -8 -8q-7 0 -7 8v337h-340q-7 0 -7 7z" />
<glyph unicode="&#xb2;" horiz-adv-x="361" d="M-6 1518q3 4 7 21q10 38 15 47q10 19 37 35q28 15 78 19q41 2 53 1q72 -7 107 -57q17 -24 26 -66q0 -1 2 -10t2 -15q0 -3 -3 -21q-3 -22 -9 -41q-18 -65 -79 -123q-15 -14 -66.5 -55.5t-75.5 -67.5q-30 -33 -44 -63q-5 -11 -10 -30q-2 -7 -6 -23q-2 -6 -2 -7l2 -2 q3 -2 5 -4l5 -5h13h191q35 0 52 3q8 1 16 4l2 6q1 2 4.5 9.5t5.5 12.5q18 47 32 96q2 7 9 5t5 -9q-15 -55 -32 -97q-6 -16 -10 -24q-5 -10 -8 -12q-2 -1 -21 -5t-55 -4h-191q-16 0 -18 1q-3 1 -11 9l-2 2q-2 1 -3.5 2t-3.5 4t-2 6q-1 4 1 8l2 5q1 4 3 11.5t3 11.5 q8 27 10 33q14 30 47 67q24 27 75.5 67.5t67.5 55.5q58 53 75 116q6 26 8 39q0 2 1.5 9t1.5 10q0 7 -4 23q-7 38 -24 60q-32 45 -95 50q-11 1 -50 -1q-50 -4 -73 -17t-31 -28q-6 -13 -14 -45q-6 -20 -9 -25q-4 -6 -10 -2t-2 10z" />
<glyph unicode="&#xb3;" horiz-adv-x="365" d="M-7 1072q0 8 7 8q8 0 24 -11q14 -11 27 -18q35 -17 86 -19q91 -2 150 45q49 38 64 110q6 28 6 41q0 2 -0.5 5.5t-1.5 8t-1 6.5q-4 29 -19 54q-21 36 -61 50q-18 6 -26 8q-17 3 -21 7q-3 -1 -6 -1t-9 -1t-9 -1q-59 -8 -68 -8q-8 0 -8 7q0 8 8 8q6 0 67 8q3 1 8.5 1t8.5 1 q1 0 3 0.5t3 0.5t3 8q1 4 4 12.5t5 12.5l1 5q2 6 4 10q2 3 7 7t6 5q11 11 18 22q12 19 21 55q5 20 5 21q0 2 -1 4.5t-2 6t-2 6.5q-10 34 -32 51q-15 10 -35 15q-16 4 -63 2q-36 -1 -80 -21q-22 -9 -35 -29q-1 -2 -8 -20q-5 -12 -21 -34q-6 -6 -11 -1q-5 6 -1 10q10 11 19 31 q1 2 4 9.5t6 12.5q16 24 41 35q47 21 86 22q50 2 67 -2q27 -8 40 -18q26 -19 38 -58q5 -12 5 -22q0 -8 -5 -25q-9 -37 -23 -59q-8 -12 -21 -25q-2 -2 -6 -5t-5 -5q-1 -5 -3 -10t-5 -13t-4 -13v-1l-2 -4t-1 -3q2 -1 6 -1.5t6 -0.5q2 -1 28 -9q46 -17 69 -56q15 -25 21 -59 q3 -18 3 -23q0 -13 -7 -43q-15 -78 -69 -120q-64 -50 -159 -48q-53 2 -93 21q-5 2 -9.5 5.5t-10 7.5t-8.5 6q-10 7 -16 7q-7 0 -7 8z" />
<glyph unicode="&#xb4;" horiz-adv-x="463" d="M93 1408q5 6 14 16t13 16q68 82 102 124l42 51l3 5q3 5 6.5 9t7.5 6q5 3 25 3q34 2 52 2q8 0 8 -7t-8 -7l-51 -3q-3 0 -7.5 -0.5t-7.5 -1t-4 -0.5t-3 -2.5t-4.5 -6.5t-4.5 -6q-6 -7 -13 -15.5t-15.5 -19t-13.5 -16.5q-68 -84 -102 -125q-5 -6 -14.5 -16.5t-13.5 -15.5 q-6 -6 -10 -1q-6 6 -1 11z" />
<glyph unicode="&#xb5;" horiz-adv-x="820" d="M41 252v67q0 32 5 43q4 8 19 23q-1 5 -1 10q-4 21 -6 41q-2 16 -7 137q-1 21 -1 129v209q0 66 -1 98q-3 54 -3 57q0 8 7 8q8 0 8 -8t0.5 -17.5t1.5 -21t1 -17.5q1 -33 1 -99v-209q0 -108 1 -129q5 -120 7 -136q2 -27 5 -40l2 -10q0 -1 3 -2.5t7.5 -3.5t6.5 -4 q22 -12 34 -17q3 -1 11.5 -4t13.5 -5q4 -2 11 -9q3 -3 13 -9q20 -12 43 -17q20 -4 65 2q86 11 152 57q19 13 41 33l8.5 8.5t11.5 9.5q4 3 25 10q5 2 14.5 5.5t14.5 5.5l8 2q2 1 17 16l4.5 4.5t4.5 4t2 2.5l-1 4v7v579q0 8 8 8q7 0 7 -8v-579q0 -1 0.5 -3t0.5 -4.5v-5.5v-2 q0 -57 19 -107q13 -34 33 -45q7 -4 42 2q26 6 38 10q13 4 14 5q7 4 12.5 10t11 15t8.5 14.5t9 17.5l8 16q3 7 11 3q7 -3 3 -11q-2 -3 -8 -15l-9 -18t-9.5 -15.5t-13.5 -16.5t-15 -12q-3 -2 -6 -3t-6.5 -2t-5.5 -2q-26 -8 -39 -11q-37 -8 -52 0q-25 15 -40 52q-17 43 -20 97 l-1 -1l-19 -19l-10 -3q-5 -2 -14.5 -5.5t-14.5 -5.5q-3 -1 -8 -2.5t-8.5 -3t-5.5 -2.5q-3 -2 -10 -8.5t-9 -8.5q-28 -24 -43 -34q-72 -49 -158 -60q-45 -6 -70 -1q-30 5 -49 18q-1 1 -6 4.5t-8 5.5q-2 2 -4.5 5t-3.5 3q-3 2 -11.5 4.5t-11.5 3.5q-13 5 -36 18q-1 1 -7 3.5 t-9 4.5q-12 -12 -14 -16q-4 -10 -4 -37v-67q0 -27 5 -162q1 -12 2 -51.5t3 -60.5q0 -6 7.5 -23t7.5 -30q0 -7 -7 -7q-8 0 -8 7t-7 24t-8 28q-2 22 -3 60.5t-2 51.5q-5 135 -5 163z" />
<glyph unicode="&#xb6;" horiz-adv-x="734" d="M28 1150q-2 7 3 17q4 15 11 34q25 67 54 118q21 37 32 50l26 26l90 90q31 31 54 43q33 17 74 19q12 1 34 1q41 2 72 -7q17 -6 33 -18q3 -2 7 -6q1 1 2 1q2 2 5.5 5t5.5 4q18 13 39 19q27 6 66 8h30.5t29.5 1q7 2 9 -6q1 -6 -7 -8q-14 -2 -62 -2q-42 -2 -62 -7 q-16 -4 -34 -17q-8 -6 -10 -8l-3 -3v-1502v-90q0 -15 -1 -23v-9q3 -3 6 -5q9 -7 25 -14q23 -10 99 -10q35 0 40 -1q7 -2 5 -9q-2 -8 -9 -6q-5 1 -36 1q-1 0 -23.5 -0.5t-30 0t-23.5 3.5t-28 8t-27 16l-2 1q-3 1 -4 2q-29 -23 -64 -29q-19 -3 -54 -3q-38 0 -46 1 q-40 4 -76 32l-4 -2t-3 -2q-17 -12 -32 -17q-31 -10 -94 -10q-37 0 -41 -1q-7 -2 -9 6q-2 7 6 9q4 1 44 1q61 0 89 9q10 3 28 15q6 4 8 6v13q0 7 -0.5 21.5t-0.5 22.5v838v17l-11 11l-30 30q-12 12 -34.5 34t-40.5 40.5t-34 34.5q-6 7 -13 21q-3 6 -9.5 18.5t-9.5 18.5 q-18 36 -43 102q-12 30 -16 47zM43 1154q3 -13 15 -46q20 -53 43 -101q3 -6 9 -17.5t9 -17.5l11 -19l34 -34l40 -40l34 -34l31 -31l3 -3q4 -3 7 -6t4 -7q1 -3 1 -22v-838q0 -7 0.5 -21.5t0.5 -22.5v-14q32 -25 71 -30h44q40 0 51 2q33 6 60 28q-1 3 0 7l1 4v20v91v1501 l-10 8q-18 12 -28 15q-27 9 -68 7q-6 0 -17 -0.5t-16 -0.5q-39 -2 -68 -17q-22 -13 -50 -40l-91 -91q-17 -17 -24 -25q-16 -20 -31 -47q-27 -47 -53 -117q-9 -25 -11 -32z" />
<glyph unicode="&#xb7;" horiz-adv-x="160" d="M72 798q0 8 8 8t8 -8t-8 -8t-8 8z" />
<glyph unicode="&#xb8;" horiz-adv-x="652" d="M212 -30q2 7 9 5t22.5 -6.5t23.5 -6.5q85 -19 149 9q28 11 44 32q9 11 14 32q6 20 7 29q0 2 -1.5 6t-1.5 7q-6 26 -13 35q-26 36 -75 34q-16 -1 -47 -1q-17 0 -20 1l-4 2q-2 -2 -6 -4l-4 -1q-27 -19 -29 -21q-5 -5 -11 1q-5 5 0 11q6 5 18.5 13t13.5 9l4 2t3.5 2t3.5 2 l1 1q0 2 2 12q0 2 2 14t4 18t6.5 15t5.5 12q2 5 8 19.5t10 22.5q3 6 10 3q6 -3 3 -10q-2 -3 -18 -41q-8 -18 -10 -25q-4 -20 -6 -31q0 -7 -2 -12h1h14q32 0 47 1q55 3 87 -40q10 -13 16 -40q3 -12 3 -18q-1 -9 -8 -33q-6 -24 -16 -37q-16 -22 -49 -36q-68 -30 -159 -10 q-8 2 -23 7t-23 7t-6 9z" />
<glyph unicode="&#xb9;" horiz-adv-x="322" d="M-7 1529q-2 7 5 9t24.5 8t28.5 9q21 6 74 15q30 5 40 3q13 -5 15 -6q3 -2 4 -5.5t0 -5.5v-2q0 -4 0.5 -12.5t1.5 -12.5v-12.5v-14.5v-12v-399v-18v-3q4 -4 24 -14q20 -9 49 -11q6 0 30.5 0.5t33.5 -1.5q8 -2 6 -8q-2 -8 -8 -7q-11 2 -31.5 1t-32.5 0q-24 1 -52 13 q-22 9 -27 14q-10 -7 -25 -13q-22 -10 -52 -13q-15 -1 -48 -0.5t-46 -1.5q-6 -2 -8 6q-1 6 7 8q17 2 48 2t46 1q30 4 48 12q21 10 23 12v3v17v400v37q0 4 -0.5 12.5t-1.5 12.5v4q-1 0 -7 2q-7 1 -35 -3q-51 -8 -72 -14q-7 -2 -25 -8.5t-28 -9.5q-7 -2 -9 6z" />
<glyph unicode="&#xba;" horiz-adv-x="519" d="M40 1146q-1 12 7 60q13 91 72 144q41 36 93 44q7 1 20.5 1.5t19.5 1.5q14 2 49 -3q78 -13 126 -74q15 -19 28 -50q14 -32 20 -73q5 -32 5 -43q0 -14 -10 -71q-22 -113 -102 -152q-26 -13 -64 -18q-95 -12 -158 29q-49 32 -76.5 87.5t-29.5 116.5zM55 1146 q2 -58 28 -109.5t71 -81.5q60 -39 148 -27q35 5 59 17q76 37 95 140q9 52 9 69q0 14 -4 40q-6 36 -20 70q-12 29 -26 47q-45 57 -116 68q-34 5 -45 3q-7 -1 -20.5 -1.5t-19.5 -1.5q-48 -7 -85 -40q-54 -49 -68 -135q-7 -43 -6 -58z" />
<glyph unicode="&#xbb;" horiz-adv-x="912" d="M49 289l16 48q1 2 3.5 12.5t5.5 15.5q4 8 29 35q6 7 17 20t20 23.5t17 19.5q67 75 127 130q10 9 22 19.5t26.5 23t22.5 19.5q4 3 13 10t12 10v1q1 2 1.5 4t1.5 4l9 21l2 6q0 3 -6 15q-10 23 -11 24q-3 2 -10 7q-2 1 -10.5 7t-12.5 10q-14 10 -61 53q-89 84 -155 164 q-7 8 -20 24.5t-15 19.5q-17 19 -20 25t-5.5 16.5t-3.5 13.5q-1 2 -7 19.5t-7 26.5q-2 6 6 8q7 2 9 -6q1 -9 13 -44q8 -25 8 -26q3 -5 19 -24q11 -15 35 -43q75 -91 153 -163q30 -28 61 -52q3 -3 10.5 -8.5t11.5 -8.5q11 -8 13 -10q1 -1 12 -27q0 -1 3 -5.5t4 -7.5l45 1 q7 0 7 -7t-7 -7l-45 -2q0 -1 -2 -2l-1 -2q-2 -3 -4 -10t-4 -11q-3 -8 -5 -12q-4 -5 -9 -9t-11 -8t-8 -6q-50 -44 -70 -62q-59 -54 -126 -129q-18 -20 -54 -62l-27 -33q-1 -3 -2.5 -7t-3 -9.5t-2.5 -8.5l-15 -48q-2 -7 -9 -5q-8 2 -6 9zM411 1138q-2 7 5 9t9 -6q1 -3 14 -46 q8 -26 9 -28q3 -6 18 -23q28 -36 43 -53q85 -98 139 -147q46 -42 70 -60q3 -3 10 -8t10 -7q11 -7 13 -10q3 -4 5.5 -8.5t4 -9.5t2.5 -7q0 -1 3 -6.5t4 -8.5l44 1q7 0 7 -7t-7 -7l-44 -2l-2 -4q-1 -3 -3.5 -9t-3.5 -9q-4 -11 -7 -16q-2 -3 -13 -10q-8 -6 -20 -16 q-10 -8 -61 -54q-68 -62 -154 -160l-39 -45q-14 -16 -18 -23q-1 -2 -9 -28q-1 -3 -6 -17t-6 -20q-2 -8 -9 -6q-8 2 -6 9q1 5 12 39q9 29 11 31q1 2 20 24q7 7 19 22.5t19 23.5q82 94 156 161q20 18 62 54q19 16 20 17q8 6 10 8q3 6 5 11q1 3 3.5 9.5t3.5 9.5l2 4l1 2 q0 1 -1.5 3.5t-3.5 6t-3 5.5q-2 4 -4.5 12.5t-4.5 10.5q-1 1 -10 7l-21 15q-25 19 -71 61q-59 53 -140 149q-22 24 -43 52q-15 17 -20 26q-4 6 -6.5 18t-3.5 13q-9 27 -14 47z" />
<glyph unicode="&#xbc;" horiz-adv-x="1174" d="M59 1430q-2 7 5 9q8 2 25 8t27 9q14 4 42 9t31 6q28 5 40 3q14 -4 16 -5q3 -2 4 -5.5t1 -5.5v-2q1 -9 1 -24q1 -32 1 -94v-332q0 -4 -1 -16t0 -18q32 -26 78 -26h40q18 0 23 -3q6 -3 3 -10q-3 -6 -10 -2q-2 1 -16 1h-40q-51 0 -85 27q-2 -1 -7 -4t-8 -5q-28 -14 -57 -17 q-14 -2 -39.5 -2h-30.5q-24 0 -27 -1q-7 -2 -9 6q-2 7 6 9q4 1 30 1h31t38 2q26 3 52 16q2 1 6 3.5t7 4.5q-1 7 0 19t1 15v332q0 62 -1 93q0 16 -1 23v4q-1 1 -9 1q-12 2 -35 -3q-7 -1 -32.5 -6t-38.5 -8q-9 -2 -26.5 -8.5t-25.5 -8.5q-7 -2 -9 5zM120 201l841 1202l35 49 q4 6 11 2q6 -4 2 -10l-35 -50l-842 -1201q-4 -6 -10 -2t-2 10zM746 358.5q0 3.5 1 5.5l1 1q1 3 2.5 9.5t2.5 9.5q6 27 8 31q6 11 12 18l21 30q22 32 66 95.5t66 94.5q58 84 67 96q4 5 10 1q5 -4 1 -10q-10 -13 -21 -29t-24.5 -36t-20.5 -31q-22 -32 -65.5 -95t-65.5 -94 q-4 -5 -11 -15.5t-10 -15.5q-1 -1 -5.5 -7t-5.5 -9q-2 -4 -4.5 -14.5t-3.5 -13.5t-2.5 -9t-2.5 -9v-2h16h233v70q0 86 11 120q2 7 10 5q7 -2 5 -10q-11 -34 -11 -115v-70h108q8 0 8 -8q0 -7 -8 -7h-108v-169q1 -2 1 -4q21 -20 60 -20q35 0 40 -1q8 -2 6 -9t-9 -5q-3 1 -38 1 q-42 0 -67 20q-4 -4 -6 -5q-14 -11 -33 -14t-33.5 -1.5t-30.5 -0.5q-7 -2 -9 6q-2 6 6 8q12 2 32 1.5t34 2t25 10.5q3 2 8 7q-1 1 -1 3v170h-233l-3 -1h-6.5t-7.5 0.5t-7.5 2.5t-5.5 5t-2 6.5z" />
<glyph unicode="&#xbd;" horiz-adv-x="1180" d="M62 1428q-3 7 3 10q10 5 32 12q2 1 98 21q32 5 40 3q1 0 3.5 -0.5t5.5 -2t5 -3.5l4 -12q1 -8 1 -25v-89v-344q0 -3 0.5 -9.5t0.5 -10.5q0 -2 -1 -4v-2q1 -1 5 -3q9 -6 17 -10q26 -13 72 -13h26q16 0 21 -2q7 -4 4 -10q-4 -7 -10 -4q-6 2 -15 2h-26q-50 0 -78 14 q-10 4 -20 11l-1 1q-1 0 -2 1q-12 -8 -24 -13q-21 -10 -48 -13q-8 -1 -51 -1q-4 0 -13 -0.5t-14 -0.5q-14 0 -19 -1q-7 -2 -9 6q-2 7 6 9q4 1 22 1h27q34 0 50 2q23 3 44 12q12 4 21 12q0 2 1 4v3q0 3 -0.5 9t-0.5 10v344v89q0 16 -1 23v4q-4 0 -6 1q-10 2 -34 -2 q-84 -18 -97 -22q-22 -7 -29 -10t-10 3zM118 201l876 1251q4 6 10 2t2 -11l-876 -1250q-4 -6 -10 -2t-2 10zM773 633q3 4 7 22q11 39 14 45q9 19 36 34q23 13 67 19q119 16 171 -52q17 -23 27 -68q0 -2 1.5 -7t2 -10t0.5 -9q0 -8 -2 -20t-8 -36q-19 -73 -80 -129 q-17 -16 -68 -56.5t-74 -66.5q-33 -37 -43 -59q-5 -10 -11 -34q-1 -4 -3 -11t-3 -11q-2 -6 -2 -7l4 -4q8 -8 9 -8h9h103h113q16 0 36 5q2 0 4 0.5t3 1.5h2q1 1 3 7q1 2 4.5 9.5t5.5 12.5q4 11 11 31t9 27q10 29 11 37q2 7 9 5q8 -2 6 -9q-1 -3 -12 -37q-11 -36 -20 -59 q-6 -16 -10 -24q-5 -10 -8 -12q-4 -2 -9 -3l-6 -1q-26 -6 -39 -6h-113h-103q-12 0 -15 1q-4 1 -6.5 3.5t-4.5 5.5l-2 3l-1 1q-2 1 -3.5 2t-3 3t-1.5 5q-1 4 1 8l2 5l6 24q5 22 12 35q16 31 45 64q24 27 75.5 67.5t67.5 55.5q59 56 76 121q3 11 7 35q2 14 2 18q0 11 -3 23 q-7 37 -25 61q-46 61 -158 47q-39 -5 -60 -17q-22 -13 -30 -27q-3 -7 -13 -43q-5 -21 -10 -27q-4 -6 -10 -2t-2 11z" />
<glyph unicode="&#xbe;" horiz-adv-x="1182" d="M39 975q1 2 5 2.5t6 -1.5q33 -26 54 -33q40 -14 91 -12q24 2 39 4q67 12 107 55q34 35 46 86l6 33q2 14 2 18q-2 38 -19.5 69t-49.5 48q-19 10 -38 14t-23 7h-4l-21 -3q-59 -8 -68 -8q-7 0 -7 8t7 8q13 0 67 7q14 2 20 3h4l3 9l9 24q5 15 6 16q3 3 7.5 7t5.5 6 q16 18 19 24q7 10 18 49q1 3 2.5 8t2.5 8.5t1 6.5l-5 18q-10 36 -33 51q-14 10 -34 15q-16 4 -62 2q-37 -1 -71 -17q-31 -15 -42 -30q-3 -5 -13 -26t-20 -32q-5 -5 -10 0t0 10q8 8 16 27.5t14 28.5q13 19 49 36q36 16 77 18q45 2 65 -3q24 -5 40 -16q26 -18 39 -60 q5 -12 5 -21q0 -5 -6 -29q-10 -34 -20 -51q-9 -15 -21 -27q-2 -2 -5 -4.5t-5 -4.5t-3 -4v-2q-1 -2 -1.5 -4.5t-1.5 -4.5q-3 -9 -9 -25q0 -3 -3 -7q1 0 6 -1t9 -2q19 -4 41 -16q72 -38 77 -130q0 -9 -2 -21q-4 -22 -7 -33q-12 -55 -49 -94q-44 -47 -115 -59q-12 -2 -42 -4 q-55 -2 -96 13q-24 9 -59 36q-5 4 -1 10zM124 201l843 1203l34 48q4 6 10 2t2 -10l-34 -48l-842 -1203q-4 -6 -11 -2q-6 4 -2 10zM760 370q1 3 2.5 9t2.5 9q6 25 9 32q3 6 10 16l21 30q21 31 65 93.5t66 94.5q8 11 23 32.5t22 32.5q2 3 10 16t14 19t11 1q6 -5 1 -10 q-8 -10 -24 -34q-7 -11 -22 -32.5t-23 -32.5q-21 -32 -65 -95t-65 -94l-21 -30q-8 -10 -10 -14t-4 -14t-3 -14q-1 -3 -2.5 -9.5t-2.5 -9.5l-1 -1h18h232v113v26q1 19 8 42q6 19 7 23q2 8 9 6q8 -2 6 -9q-1 -6 -4.5 -14.5t-3.5 -9.5q-5 -17 -7 -39v-25v-113h108q7 0 7 -7 q0 -8 -7 -8h-108v-170v-3q17 -19 69 -19q30 0 37 -4q6 -3 3 -10q-3 -6 -10 -3q-2 1 -30 1q-56 0 -77 21q-10 -9 -21 -14q-12 -5 -28 -6.5t-28 -0.5t-26 0q-9 0 -9 6q0 8 7 8q8 1 25.5 1t30 1t22.5 5q7 3 20 14v3v170h-232h-5q-5 -1 -8.5 -1t-8.5 1.5t-8 5.5q-2 2 -2 14z" />
<glyph unicode="&#xbf;" horiz-adv-x="609" d="M38 121q0 9 8 57q12 74 49 123q27 36 102 101t102 110q9 15 16 31.5t11 37t6.5 34t3.5 39t1 35v39.5v36q0 7 8 7q7 0 7 -8t0.5 -36t0 -39.5t-1.5 -36t-3.5 -39.5t-7 -36t-11.5 -38.5t-17 -33.5q-29 -48 -104.5 -114t-100.5 -99q-35 -45 -46 -115q-8 -51 -8 -55 q0 -11 4 -35q6 -36 11 -51q24 -75 85 -123q56 -44 132 -49q17 -1 51 1q98 7 154 48q25 19 39 39q5 8 13 31q10 34 14 51l6 27q2 10 2 14t-6 12q-4 7 2 11q7 4 11 -2q7 -9 8 -19q1 -6 -2 -18q-1 -4 -3.5 -13.5t-3.5 -15.5q-5 -22 -14 -52q-9 -27 -14 -35q-11 -18 -43 -42 q-60 -44 -161 -51q-35 -2 -54 -1q-80 5 -141 52q-64 50 -89 130q-6 19 -12 53q-4 24 -4 38z" />
<glyph unicode="&#xc0;" horiz-adv-x="1199" d="M3 311q-2 6 6 8q9 1 24 1q13 0 41 2q34 3 65 12q5 2 14 5t13 5q0 4 1 7.5t3 6.5l1 2q2 8 4.5 27.5t5.5 30.5q4 16 20 60q7 19 21.5 57t21.5 57q0 1 3.5 10t4.5 11.5t4 10.5t5 11.5t5.5 10t7 10t8.5 8t10 8.5q0 3 2 6l1 4q1 5 2.5 16.5t2.5 17.5q6 36 7 41q7 25 13 39 q4 11 12 32.5t12 31.5q84 222 125 333q33 89 41 113q2 6 6.5 17.5t6.5 17.5q5 14 7 17q2 2 6 4l3 2q3 1 8.5 4t7.5 5q15 9 47 27q0 3 0.5 8t0.5 6v28q0 18 0.5 54.5t0.5 54.5q0 7 8 7q7 0 7 -7q0 -18 -0.5 -54.5t-0.5 -54.5v-29q0 -3 -0.5 -7.5t-0.5 -5.5q1 0 3 -2 q19 -9 21 -16q5 -12 13 -34q7 -19 46 -128q16 -44 142 -406q4 -12 12 -34q0 -1 3 -9.5t4 -13.5q1 -8 3.5 -23t3.5 -22q0 -3 0.5 -6.5t1 -6t0.5 -3.5q1 -1 6 -3.5t8 -4.5q3 -3 8 -17q8 -22 23 -66t22 -65q3 -8 8.5 -22.5t9.5 -27t7 -24.5q3 -13 6 -38.5t5 -34.5l3 -18v-5 l10 -5q18 -10 27 -14q53 -24 115 -29q7 -1 20 -1.5t20 -0.5q15 0 21 -3q7 -4 4 -10q-4 -7 -10 -4q-2 1 -4 1t-6 0.5t-7 0.5q-7 1 -20 1.5t-20 0.5q-61 4 -120 30l-27 15l-3 2q-4 1 -6 2q-29 -29 -43 -36q-16 -7 -52 -12q-22 -3 -61.5 -3t-55.5 -1q-8 0 -8 7q0 8 6 8 q17 1 56.5 1t60.5 3q32 4 47 11q14 7 41 34v4q-1 3 -2 9.5t-1 9.5q-1 7 -4.5 32.5t-6.5 38.5q-4 17 -24 74q-15 44 -45 130q-1 2 -1.5 4.5t-1.5 4.5l-1 2q-6 2 -11 5l-19 -19q-11 -11 -13 -12q-3 -1 -13 -1h-445q-28 0 -42 2q-16 2 -24 4q-5 0 -8 2q-6 -5 -11 -10t-10 -15 t-6.5 -13.5t-7.5 -18t-6 -15.5q-7 -19 -21 -56.5t-21 -56.5q-20 -56 -20 -58q-2 -8 -5 -28t-6 -31l-3 -15q12 -14 49 -18q21 -2 63 -2.5t61 -1.5q7 0 7 -8q0 -7 -8 -7q-19 1 -61 1.5t-64 2.5q-41 5 -57 22q-3 -1 -13 -4.5t-16 -5.5q-39 -11 -67 -13t-43 -2h-7.5h-8h-6.5 q-6 -2 -8 6zM308 671l1 -1h2q2 0 22 -3q7 -1 40 -1h445h5l3 -1l8 8l21 21q-1 3 -1.5 9t-0.5 7q-1 8 -3.5 23t-3.5 22q-2 10 -6 20q-8 24 -12 35q-101 291 -143 405q-10 27 -46 127q-1 4 -5 16l-6 18q0 1 -15 9l-4 2q-9 -5 -24.5 -14.5t-21.5 -12.5q-3 -2 -8 -5t-8 -4l-5 -3 q-2 -2 -5 -12q-2 -6 -6.5 -18t-6.5 -18q-8 -24 -41 -113q-20 -55 -62 -166t-63 -167q-4 -10 -12 -31.5t-12 -32.5q-11 -30 -13 -36q0 -1 -6 -41q-1 -6 -3 -17.5t-3 -16.5q0 -2 -0.5 -4.5t-0.5 -3.5zM503 1762q2 7 9 5q6 -2 41 -7q15 -2 47 -7.5t47 -8.5q39 -6 47 -8 q17 -6 38 -20q6 -4 2 -10q-4 -7 -10 -3q-21 13 -34 18q-8 2 -25 4.5t-21 3.5q-16 3 -47 8.5t-46 7.5q-41 6 -43 7q-7 2 -5 10z" />
<glyph unicode="&#xc1;" horiz-adv-x="1199" d="M3 311q-2 6 6 8q9 1 24 1q13 0 41 2q34 3 65 12q5 2 14 5t13 5q0 4 1 7.5t3 6.5l1 2q2 8 4.5 27.5t5.5 30.5q4 16 20 60q7 19 21.5 57t21.5 57q0 1 3.5 10t4.5 11.5t4 10.5t5 11.5t5.5 10t7 10t8.5 8t10 8.5q0 3 2 6l1 4q1 5 2.5 16.5t2.5 17.5q6 36 7 41q7 25 13 39 q4 11 12 32.5t12 31.5q84 222 125 333q33 89 41 113q2 6 6.5 17.5t6.5 17.5q5 14 7 17q2 2 6 4l3 2q3 1 8.5 4t7.5 5q15 9 47 27q0 3 0.5 8t0.5 6v28q0 18 0.5 54.5t0.5 54.5q0 7 8 7q7 0 7 -7q0 -18 -0.5 -54.5t-0.5 -54.5v-29q0 -3 -0.5 -7.5t-0.5 -5.5q1 0 3 -2 q19 -9 21 -16q5 -12 13 -34q7 -19 46 -128q16 -44 142 -406q4 -12 12 -34q0 -1 3 -9.5t4 -13.5q1 -8 3.5 -23t3.5 -22q0 -3 0.5 -6.5t1 -6t0.5 -3.5q1 -1 6 -3.5t8 -4.5q3 -3 8 -17q8 -22 23 -66t22 -65q3 -8 8.5 -22.5t9.5 -27t7 -24.5q3 -13 6 -38.5t5 -34.5l3 -18v-5 l10 -5q18 -10 27 -14q53 -24 115 -29q7 -1 20 -1.5t20 -0.5q15 0 21 -3q7 -4 4 -10q-4 -7 -10 -4q-2 1 -4 1t-6 0.5t-7 0.5q-7 1 -20 1.5t-20 0.5q-61 4 -120 30l-27 15l-3 2q-4 1 -6 2q-29 -29 -43 -36q-16 -7 -52 -12q-22 -3 -61.5 -3t-55.5 -1q-8 0 -8 7q0 8 6 8 q17 1 56.5 1t60.5 3q32 4 47 11q14 7 41 34v4q-1 3 -2 9.5t-1 9.5q-1 7 -4.5 32.5t-6.5 38.5q-4 17 -24 74q-15 44 -45 130q-1 2 -1.5 4.5t-1.5 4.5l-1 2q-6 2 -11 5l-19 -19q-11 -11 -13 -12q-3 -1 -13 -1h-445q-28 0 -42 2q-16 2 -24 4q-5 0 -8 2q-6 -5 -11 -10t-10 -15 t-6.5 -13.5t-7.5 -18t-6 -15.5q-7 -19 -21 -56.5t-21 -56.5q-20 -56 -20 -58q-2 -8 -5 -28t-6 -31l-3 -15q12 -14 49 -18q21 -2 63 -2.5t61 -1.5q7 0 7 -8q0 -7 -8 -7q-19 1 -61 1.5t-64 2.5q-41 5 -57 22q-3 -1 -13 -4.5t-16 -5.5q-39 -11 -67 -13t-43 -2h-7.5h-8h-6.5 q-6 -2 -8 6zM308 671l1 -1h2q2 0 22 -3q7 -1 40 -1h445h5l3 -1l8 8l21 21q-1 3 -1.5 9t-0.5 7q-1 8 -3.5 23t-3.5 22q-2 10 -6 20q-8 24 -12 35q-101 291 -143 405q-10 27 -46 127q-1 4 -5 16l-6 18q0 1 -15 9l-4 2q-9 -5 -24.5 -14.5t-21.5 -12.5q-3 -2 -8 -5t-8 -4l-5 -3 q-2 -2 -5 -12q-2 -6 -6.5 -18t-6.5 -18q-8 -24 -41 -113q-20 -55 -62 -166t-63 -167q-4 -10 -12 -31.5t-12 -32.5q-11 -30 -13 -36q0 -1 -6 -41q-1 -6 -3 -17.5t-3 -16.5q0 -2 -0.5 -4.5t-0.5 -3.5zM527 1704q-4 6 2 10q11 8 28 15q8 5 13 7q11 4 32 6.5t24 2.5q28 5 86 15 q33 5 40 7t9 -5q2 -8 -5 -10q-4 -1 -42 -7q-15 -3 -43.5 -7.5t-41.5 -6.5l-54 -9q-1 0 -5 -2.5t-7 -3.5q-12 -6 -26 -14q-6 -4 -10 2z" />
<glyph unicode="&#xc2;" horiz-adv-x="1199" d="M3 311q-2 6 6 8q9 1 24 1q13 0 41 2q34 3 65 12q5 2 14 5t13 5q0 4 1 7.5t3 6.5l1 2q2 8 4.5 27.5t5.5 30.5q4 16 20 60q7 19 21.5 57t21.5 57q0 1 3.5 10t4.5 11.5t4 10.5t5 11.5t5.5 10t7 10t8.5 8t10 8.5q0 3 2 6l1 4q1 5 2.5 16.5t2.5 17.5q6 36 7 41q7 25 13 39 q4 11 12 32.5t12 31.5q84 222 125 333q33 89 41 113q2 6 6.5 17.5t6.5 17.5q5 14 7 17q2 2 6 4l3 2q3 1 8.5 4t7.5 5q15 9 47 27q0 3 0.5 8t0.5 6v28q0 18 0.5 54.5t0.5 54.5q0 7 8 7q7 0 7 -7q0 -18 -0.5 -54.5t-0.5 -54.5v-29q0 -3 -0.5 -7.5t-0.5 -5.5q1 0 3 -2 q19 -9 21 -16q5 -12 13 -34q7 -19 46 -128q16 -44 142 -406q4 -12 12 -34q0 -1 3 -9.5t4 -13.5q1 -8 3.5 -23t3.5 -22q0 -3 0.5 -6.5t1 -6t0.5 -3.5q1 -1 6 -3.5t8 -4.5q3 -3 8 -17q8 -22 23 -66t22 -65q3 -8 8.5 -22.5t9.5 -27t7 -24.5q3 -13 6 -38.5t5 -34.5l3 -18v-5 l10 -5q18 -10 27 -14q53 -24 115 -29q7 -1 20 -1.5t20 -0.5q15 0 21 -3q7 -4 4 -10q-4 -7 -10 -4q-2 1 -4 1t-6 0.5t-7 0.5q-7 1 -20 1.5t-20 0.5q-61 4 -120 30l-27 15l-3 2q-4 1 -6 2q-29 -29 -43 -36q-16 -7 -52 -12q-22 -3 -61.5 -3t-55.5 -1q-8 0 -8 7q0 8 6 8 q17 1 56.5 1t60.5 3q32 4 47 11q14 7 41 34v4q-1 3 -2 9.5t-1 9.5q-1 7 -4.5 32.5t-6.5 38.5q-4 17 -24 74q-15 44 -45 130q-1 2 -1.5 4.5t-1.5 4.5l-1 2q-6 2 -11 5l-19 -19q-11 -11 -13 -12q-3 -1 -13 -1h-445q-28 0 -42 2q-16 2 -24 4q-5 0 -8 2q-6 -5 -11 -10t-10 -15 t-6.5 -13.5t-7.5 -18t-6 -15.5q-7 -19 -21 -56.5t-21 -56.5q-20 -56 -20 -58q-2 -8 -5 -28t-6 -31l-3 -15q12 -14 49 -18q21 -2 63 -2.5t61 -1.5q7 0 7 -8q0 -7 -8 -7q-19 1 -61 1.5t-64 2.5q-41 5 -57 22q-3 -1 -13 -4.5t-16 -5.5q-39 -11 -67 -13t-43 -2h-7.5h-8h-6.5 q-6 -2 -8 6zM308 671l1 -1h2q2 0 22 -3q7 -1 40 -1h445h5l3 -1l8 8l21 21q-1 3 -1.5 9t-0.5 7q-1 8 -3.5 23t-3.5 22q-2 10 -6 20q-8 24 -12 35q-101 291 -143 405q-10 27 -46 127q-1 4 -5 16l-6 18q0 1 -15 9l-4 2q-9 -5 -24.5 -14.5t-21.5 -12.5q-3 -2 -8 -5t-8 -4l-5 -3 q-2 -2 -5 -12q-2 -6 -6.5 -18t-6.5 -18q-8 -24 -41 -113q-20 -55 -62 -166t-63 -167q-4 -10 -12 -31.5t-12 -32.5q-11 -30 -13 -36q0 -1 -6 -41q-1 -6 -3 -17.5t-3 -16.5q0 -2 -0.5 -4.5t-0.5 -3.5zM406 1694q-4 6 2 10t17 11t15 10l8 7q9 7 15 9t16.5 4t12.5 2 q9 2 27.5 6.5t27.5 6.5q18 4 26 7q8 2 10 -5q2 -8 -4 -10q-3 -1 -29 -7q-9 -2 -27.5 -6.5t-27.5 -6.5q-4 -1 -9.5 -1.5t-9.5 -1.5t-7 -2t-21 -14q-6 -4 -17 -11t-15 -10q-6 -4 -10 2zM646 1761q2 7 9 5l23 -5l46 -11l28 -6l14 -4h1l1 -1l18 -12l36 -22q6 -4 2 -10 q-4 -7 -10 -3l-36 23l-17 11l-12 3l-29 6l-45 11l-23 6q-8 2 -6 9z" />
<glyph unicode="&#xc3;" horiz-adv-x="1199" d="M3 311q-2 6 6 8q9 1 24 1q13 0 41 2q34 3 65 12q5 2 14 5t13 5q0 4 1 7.5t3 6.5l1 2q2 8 4.5 27.5t5.5 30.5q4 16 20 60q7 19 21.5 57t21.5 57q0 1 3.5 10t4.5 11.5t4 10.5t5 11.5t5.5 10t7 10t8.5 8t10 8.5q0 3 2 6l1 4q1 5 2.5 16.5t2.5 17.5q6 36 7 41q7 25 13 39 q4 11 12 32.5t12 31.5q84 222 125 333q33 89 41 113q2 6 6.5 17.5t6.5 17.5q5 14 7 17q2 2 6 4l3 2q3 1 8.5 4t7.5 5q15 9 47 27q0 3 0.5 8t0.5 6v28q0 18 0.5 54.5t0.5 54.5q0 7 8 7q7 0 7 -7q0 -18 -0.5 -54.5t-0.5 -54.5v-29q0 -3 -0.5 -7.5t-0.5 -5.5q1 0 3 -2 q19 -9 21 -16q5 -12 13 -34q7 -19 46 -128q16 -44 142 -406q4 -12 12 -34q0 -1 3 -9.5t4 -13.5q1 -8 3.5 -23t3.5 -22q0 -3 0.5 -6.5t1 -6t0.5 -3.5q1 -1 6 -3.5t8 -4.5q3 -3 8 -17q8 -22 23 -66t22 -65q3 -8 8.5 -22.5t9.5 -27t7 -24.5q3 -13 6 -38.5t5 -34.5l3 -18v-5 l10 -5q18 -10 27 -14q53 -24 115 -29q7 -1 20 -1.5t20 -0.5q15 0 21 -3q7 -4 4 -10q-4 -7 -10 -4q-2 1 -4 1t-6 0.5t-7 0.5q-7 1 -20 1.5t-20 0.5q-61 4 -120 30l-27 15l-3 2q-4 1 -6 2q-29 -29 -43 -36q-16 -7 -52 -12q-22 -3 -61.5 -3t-55.5 -1q-8 0 -8 7q0 8 6 8 q17 1 56.5 1t60.5 3q32 4 47 11q14 7 41 34v4q-1 3 -2 9.5t-1 9.5q-1 7 -4.5 32.5t-6.5 38.5q-4 17 -24 74q-15 44 -45 130q-1 2 -1.5 4.5t-1.5 4.5l-1 2q-6 2 -11 5l-19 -19q-11 -11 -13 -12q-3 -1 -13 -1h-445q-28 0 -42 2q-16 2 -24 4q-5 0 -8 2q-6 -5 -11 -10t-10 -15 t-6.5 -13.5t-7.5 -18t-6 -15.5q-7 -19 -21 -56.5t-21 -56.5q-20 -56 -20 -58q-2 -8 -5 -28t-6 -31l-3 -15q12 -14 49 -18q21 -2 63 -2.5t61 -1.5q7 0 7 -8q0 -7 -8 -7q-19 1 -61 1.5t-64 2.5q-41 5 -57 22q-3 -1 -13 -4.5t-16 -5.5q-39 -11 -67 -13t-43 -2h-7.5h-8h-6.5 q-6 -2 -8 6zM308 671l1 -1h2q2 0 22 -3q7 -1 40 -1h445h5l3 -1l8 8l21 21q-1 3 -1.5 9t-0.5 7q-1 8 -3.5 23t-3.5 22q-2 10 -6 20q-8 24 -12 35q-101 291 -143 405q-10 27 -46 127q-1 4 -5 16l-6 18q0 1 -15 9l-4 2q-9 -5 -24.5 -14.5t-21.5 -12.5q-3 -2 -8 -5t-8 -4l-5 -3 q-2 -2 -5 -12q-2 -6 -6.5 -18t-6.5 -18q-8 -24 -41 -113q-20 -55 -62 -166t-63 -167q-4 -10 -12 -31.5t-12 -32.5q-11 -30 -13 -36q0 -1 -6 -41q-1 -6 -3 -17.5t-3 -16.5q0 -2 -0.5 -4.5t-0.5 -3.5zM378 1709l8 23v1l4 9l4 4l11 6h1l37 15q8 2 10 -5q2 -8 -4 -10l-37 -14 l-9 -4l-3 -7l-8 -22q-2 -7 -9 -5t-5 9zM550 1762q2 7 10 5q6 -2 19 -4.5t17 -3.5q12 -3 36 -8t36 -8q20 -5 50 -10q4 0 12 -2t12 -2q16 0 56 11q2 0 8.5 2t10.5 3q6 2 8 -6q2 -7 -6 -9q-2 0 -18 -5q-40 -11 -59 -11q-6 0 -15.5 2t-11.5 2q-34 6 -51 10q-12 2 -36 7.5 t-36 8.5l-17.5 3.5t-19.5 4.5t-5 10z" />
<glyph unicode="&#xc4;" horiz-adv-x="1199" d="M3 311q-2 6 6 8q9 1 24 1q13 0 41 2q34 3 65 12q5 2 14 5t13 5q0 4 1 7.5t3 6.5l1 2q2 8 4.5 27.5t5.5 30.5q1 3 22 64q17 47 41 110q0 1 3.5 10t4.5 11.5t4 10.5t5 11.5t5.5 10t7 10t8.5 8t10 8.5q0 3 2 6l1 4q1 6 2.5 17.5t2.5 17.5q5 34 7 40q7 25 13 39q4 10 12.5 32 t12.5 33q42 110 124 332q7 19 20.5 57t20.5 57q2 4 6.5 15.5t6.5 18.5q5 14 7 17q2 2 6 4l3 2q3 1 8.5 4t7.5 5q15 9 47 27q0 3 0.5 8t0.5 6v28q0 18 0.5 54.5t0.5 54.5q0 7 7 7q8 0 8 -7q0 -18 -0.5 -54.5t-0.5 -54.5v-29q0 -3 -0.5 -7.5t-0.5 -5.5q1 0 3 -2q19 -9 21 -16 q5 -12 13 -34q5 -12 46 -128q16 -44 142 -406q4 -12 12 -34q0 -1 3 -9.5t4 -13.5q1 -8 3.5 -23t3.5 -22q0 -3 0.5 -6.5t1 -6t0.5 -3.5q1 -1 6 -3.5t8 -4.5q3 -3 8 -17q8 -22 23 -66t22 -65q3 -8 8.5 -22.5t9.5 -27t7 -24.5q3 -13 6 -38.5t5 -34.5l3 -18v-5l10 -5 q18 -10 27 -14q53 -24 115 -29q7 -1 20 -1.5t20 -0.5q15 0 21 -3q7 -4 4 -10q-4 -7 -10 -4q-2 1 -4 1t-6 0.5t-7 0.5q-7 1 -20 1.5t-20 0.5q-61 4 -120 30l-27 15l-3 2q-4 1 -6 2q-29 -29 -43 -36q-16 -7 -52 -12q-22 -3 -61.5 -3t-55.5 -1q-8 0 -8 7q0 8 6 8q17 1 56.5 1 t60.5 3q32 4 47 11q14 7 41 34v4q-1 3 -2 9.5t-1 9.5q-1 7 -4.5 32.5t-6.5 38.5q-4 17 -24 74q-15 44 -45 130q-1 2 -1.5 4.5t-1.5 4.5l-1 2q-6 2 -11 5l-19 -19q-11 -11 -13 -12q-3 -1 -13 -1h-445q-28 0 -42 2q-16 2 -24 4q-5 0 -8 2q-6 -5 -11 -10t-10 -15t-6.5 -13.5 t-7.5 -18t-6 -15.5q-38 -100 -41 -109q-17 -44 -21 -62q-2 -8 -5 -28t-6 -31l-3 -15q12 -14 49 -18q21 -2 63 -2.5t61 -1.5q7 0 7 -8q0 -7 -8 -7q-17 1 -59.5 1t-65.5 3q-41 5 -57 22q-3 -1 -13 -4.5t-16 -5.5q-39 -11 -67 -13t-43 -2h-7.5h-8h-6.5q-6 -2 -8 6zM308 671 l1 -1h2q2 0 22 -3q7 -1 40 -1h445h5l3 -1l8 8l21 21q-1 3 -1.5 9t-0.5 7q-1 8 -3.5 23t-3.5 22q-2 10 -6 20q-8 24 -12 35q-101 291 -143 405q-10 27 -46 127q-1 4 -5 16l-6 18q0 1 -15 9l-4 2q-9 -5 -24.5 -14.5t-21.5 -12.5q-3 -2 -8 -5t-8 -4l-5 -3q-2 -2 -5 -12 q-4 -11 -12 -35l-42 -114q-82 -222 -124 -332q-3 -8 -12 -30t-13 -34q-11 -28 -13 -37q-1 -3 -6 -40q-1 -6 -3 -17.5t-3 -17.5q0 -2 -0.5 -4.5t-0.5 -3.5zM376 1658q0 8 8 8q7 0 7 -8t-7 -8q-8 0 -8 8zM820 1658q0 8 8 8t8 -8q0 -7 -8 -7t-8 7z" />
<glyph unicode="&#xc5;" horiz-adv-x="1339" d="M3 302q-3 7 3 10q7 4 23 4q9 1 26 1t25 1q34 3 73 14q5 2 16.5 6t16.5 6q0 2 1 5l1.5 4.5t1.5 2.5v2q4 16 10 48q3 22 9 40q3 9 31 76q9 20 25 59.5t24 56.5l42 99q21 49 22 50q7 13 22 27q2 2 5 4t5.5 3.5t2.5 2.5q2 7 4 18q2 8 4.5 23.5t3.5 23.5q2 17 5 25 q11 28 33 79t28 65q20 48 59.5 142t59.5 142q4 9 11.5 26.5t11.5 26.5q0 1 1.5 6.5t4 10.5t6.5 8t11 7t8 4q5 3 16.5 9t17.5 9q2 1 6.5 3.5t6.5 3.5h1l1 1v14q1 9 0 25t-1 22v17q0 1 1 3v1l-9 9q-3 3 -7 7.5t-7.5 8t-6.5 5.5l-10 2q-9 3 -18 7q-22 9 -44 33q-36 39 -38 99 q0 5 1 12t1 10q0 7 8 7q7 0 7 -8q0 -4 -1 -11t-1 -9q2 -55 34 -90q19 -21 38 -29q3 -1 8.5 -3t8.5 -3l5 -2q5 -1 9 -3q4 -4 23 -22l3 -2l3 -3l17 17q10 10 13 12q5 3 12.5 4.5t8.5 2.5q14 6 27 16q59 46 49 124q-2 6 6 8q6 2 8 -6q5 -40 -9 -77t-45 -61q-16 -13 -31 -18 q-3 -1 -9.5 -3t-8.5 -3q-1 -1 -2.5 -2t-2.5 -2t-2.5 -3t-2.5 -3l-20 -20q0 -2 -1 -4v-1v-17q0 -5 1 -21.5t0 -25.5v-14q11 -4 16 -11q3 -4 10 -25q3 -8 9 -24.5t9 -24.5q11 -29 40 -106t45 -120q9 -26 39.5 -105.5t45.5 -124.5q4 -12 9 -51q2 -16 3 -18q14 -2 19 -13 q2 -5 5 -14t4 -11q3 -10 11 -29.5t11 -29.5l66 -176q3 -9 17.5 -45.5t20.5 -57.5q1 -4 7 -42q2 -8 4 -24t4 -24q0 -2 0.5 -5.5t1.5 -5.5v-3q1 -1 5.5 -2.5t7.5 -3.5q6 -3 16.5 -8t15.5 -7q46 -20 95 -26q11 -1 34 -2t35 -2q3 0 18 -3q8 -2 7 -8q-2 -8 -9 -6q-14 2 -17 2 q-9 1 -32.5 1.5t-36.5 2.5q-50 6 -100 27l-33 15q-7 2 -12 6q-24 -26 -39 -33q-36 -17 -123 -19q-45 0 -48 -1q-8 -2 -10 5t5 9t53 2q83 2 116 17q11 4 37 31q-2 6 -2 14q-2 8 -3.5 24t-3.5 24q-4 28 -8 41q-5 17 -37 102q-6 16 -66 175q-3 10 -11 29.5t-11 29.5 q-5 13 -9 24l-2 1q-1 0 -4 1t-6 3l-17 -16l-2 -3q-2 -3 -4.5 -5.5t-5.5 -3.5q-2 -1 -13 -1h-358q-82 0 -92 1q-29 3 -34 6q-2 -1 -4 -2.5t-3.5 -2.5t-2.5 -2l-2 -1q-10 -9 -18 -23q-10 -18 -22 -48q-7 -17 -20.5 -50t-20.5 -49q-9 -20 -25 -59.5t-24 -56.5q-27 -61 -31 -74 q-4 -12 -8 -38q-6 -34 -10 -50q0 -2 -2 -7t-2 -6q1 -1 7 -5q17 -10 35 -13q33 -7 88 -7h29q20 0 24 -1q7 -2 5 -9q-2 -8 -9 -6q-5 1 -20 1q-5 0 -15 0.5t-14 0.5q-60 0 -90 6q-28 7 -41 15q-4 2 -9 7q-5 -2 -16.5 -6t-16.5 -6q-45 -13 -76 -15q-9 -1 -26.5 -1t-25.5 -1 q-5 -1 -7.5 -0.5t-5 0.5t-3.5 -1q-8 -4 -11 2zM404 823q4 -2 27 -4q10 -1 91 -1h358h6l4 3l5 5l19 19q-1 4 -2 10.5t-1 7.5q-5 39 -8 48q-15 42 -44.5 120t-41.5 110q-14 37 -42 113t-42 113q-3 8 -9.5 24.5t-9.5 24.5q-1 3 -2.5 8t-2.5 8.5t-2 4.5q-4 4 -12 7l-1 -1 q-2 -1 -6.5 -3.5t-6.5 -3.5q-5 -3 -16.5 -9t-17.5 -9l-9 -4.5t-9 -5.5q-1 -1 -8 -19q-4 -9 -11.5 -26.5t-10.5 -26.5q-20 -48 -59.5 -142.5t-59.5 -141.5q-7 -16 -28.5 -66.5t-32.5 -77.5q-2 -7 -4 -21l-9 -48q0 -1 -0.5 -7t-1.5 -9z" />
<glyph unicode="&#xc6;" horiz-adv-x="1648" d="M3 303q-3 6 4 10q6 3 21 3h12.5h14.5h12q45 0 86 12q8 2 24 8q1 0 4 2l4 1l1 1q0 2 0.5 4t0.5 4q2 8 7 31q2 16 5 23q5 12 20 43q8 16 24.5 46.5t24.5 45.5q35 67 107 201q35 65 41 77q6 13 13 26l3 5q2 5 5 8q1 1 11 6q2 1 7 4t8 4l2 7q1 5 3 14.5t3 14.5q1 2 2.5 11.5 t3.5 14.5q2 6 5 12t6.5 12.5t5.5 9.5q33 60 38 71q80 155 135 255q30 56 45 85q2 5 11.5 21t12.5 25q1 4 9 40q9 40 11 52l-2 2q-2 2 -8 6q-17 9 -38 14q-20 4 -56 4t-58 2q-8 2 -6 8q2 8 8 7q15 -2 54 -2.5t61 -4.5q23 -5 42 -15q4 -2 12 -8l1 -1q1 0 4 2t6.5 4t7.5 2h27 h42q25 0 28 -1q4 -2 9 -6l4 -5q15 -13 23 -22q41 34 95 40q7 1 84 1h154q9 0 26.5 0.5t32 0.5t26.5 -1q59 -4 97 -12q4 -1 11.5 -2.5t10.5 -2.5q6 0 12 -5q4 -5 9 -18q4 -10 16 -46q6 -19 15.5 -56.5t11.5 -43.5q3 -9 8 -30t8 -31q2 -8 -5 -10q-8 -2 -10 5q-4 12 -9 35.5 t-6 27.5q-18 66 -28 99q-13 41 -15 44q-1 2 -2 5t-2 5t-1 3q-3 0 -5 1q-4 1 -11.5 2.5t-11.5 2.5q-38 8 -94 12q-14 1 -84 1h-154q-66 0 -83 -2q-52 -6 -88 -38v-6.5t-0.5 -5t-0.5 -3.5v-489h295h75h18h1l1 -1q0 1 2 7q2 7 7 28q3 17 7.5 48.5t6.5 41.5q0 3 1 13t3 18t6 14 t11 2q6 -4 2 -11q-3 -4 -8 -39q-2 -10 -4.5 -28.5t-5 -33.5t-5.5 -28q-3 -17 -7 -29q0 -1 -1 -4.5t-2 -5.5q6 -20 9 -31q6 -23 12 -77q0 -5 2 -16.5t3 -17.5q2 -19 4 -21q4 -6 -2 -10t-10 2t-7 28q0 5 -2 16.5t-3 17.5q-7 58 -11 74q-2 9 -8 27l-2 1h-18h-75h-295v-583 q0 -1 0.5 -3.5t0.5 -5v-6.5q16 -16 29 -23q11 -6 23 -9.5t27.5 -5t24.5 -2t29.5 0t26.5 0.5h193h108q71 4 108 12q4 1 12.5 3.5t12.5 3.5l8 2l1 3q1 2 2 5t2 5q2 5 6 14t7 16.5t5 14.5q17 49 37 123q1 4 7 26.5t8 34.5q2 8 8 6q8 -2 7 -8q-1 -10 -4 -20.5t-6.5 -23 t-5.5 -19.5q-16 -63 -37 -123q-10 -30 -18 -47q-5 -15 -10 -19q-2 -2 -5 -3t-5.5 -1.5t-3.5 -0.5q-4 -1 -12.5 -3t-12.5 -3q-43 -9 -111 -13q-18 -1 -108 -1h-193q-3 0 -25.5 -0.5t-31 0t-26 2.5t-30.5 6t-26 11q-7 4 -29 23l-5 -5q-16 -16 -36 -26q-9 -5 -19 -8.5t-21 -6 t-18.5 -4t-21 -2.5t-19.5 -1.5t-21.5 -1t-19.5 -0.5q-5 0 -24 1t-21 -2q-8 -2 -10 5t5 9q4 3 26 2.5t24 -0.5q96 4 133 23q18 9 32 23q2 2 5 4.5t4 3.5v2q0 3 -0.5 6.5t-0.5 5.5v462h-407q-26 0 -34 8q-3 -1 -7 -3.5t-7 -3.5l-6 -3l-1 -2q-1 -2 -2.5 -4.5t-2.5 -4.5 q-2 -4 -13 -25q-13 -26 -41 -78q-36 -66 -106 -200q-8 -16 -24.5 -46.5t-24.5 -45.5q-17 -35 -20 -42q-1 -3 -2.5 -10.5t-2.5 -10.5q-5 -23 -7 -31q0 -1 -2 -9q9 -9 13 -11q13 -6 50 -6q42 0 83 -3q6 0 6 -8q0 -6 -8 -6q-13 1 -81 1q-40 0 -56 8q-11 6 -17 14l-6 -2 q-4 -2 -12.5 -5t-12.5 -4q-35 -11 -91 -11q-26 0 -38 -1q-3 0 -6.5 -0.5t-5.5 -0.5t-4 -1q-6 -3 -10 4zM478 865q3 -4 24 -4h407v610q0 2 0.5 5.5t0.5 5v3.5q-6 8 -25 25q-2 2 -6 5l-4 3q-2 0 -10 -0.5t-13 0.5h-12.5h-15h-13.5h-26l-2 -2q-2 -1 -5.5 -3t-7.5 -3 q-2 -8 -5.5 -26t-5.5 -27q0 -2 -3 -17.5t-6 -23.5q-3 -9 -24 -48q-7 -14 -22.5 -43t-23.5 -43q-55 -101 -134 -253q-12 -24 -38 -72q-16 -30 -17 -32q-1 -4 -2.5 -12.5t-2.5 -11.5q-1 -5 -3.5 -15t-3.5 -15q-1 -3 -1 -6z" />
<glyph unicode="&#xc7;" horiz-adv-x="1102" d="M38 908q0 44 7 104q20 179 107 310q57 86 143.5 148.5t184.5 86.5q36 9 98 11q138 6 263 -48q13 -6 96 -47q8 -4 26 -12q14 -7 15 -8q4 -5 8 -21q3 -7 7 -20.5t7 -20.5q23 -67 35 -114q11 -46 12 -51q2 -6 -6 -8q-6 -1 -8 7q-1 8 -6.5 25t-6.5 23q-17 63 -34 114 q-2 7 -7 20.5t-7 20.5l-5 15l-10 4l-13 6.5l-13 6.5q-64 32 -96 46q-123 53 -257 47q-53 -2 -94 -11q-95 -22 -179.5 -83.5t-140.5 -145.5q-84 -126 -104 -303q-7 -60 -7 -101q0 -20 4 -62q12 -119 61 -224q58 -123 144 -200q80 -69 184 -97q97 -25 203 -14q116 12 200 56 q113 59 204 163q6 6 11 1q6 -6 1 -10q-93 -105 -209 -167q-88 -46 -205 -58q-45 -3 -47 -3v-1q0 -7 -5 -35q-3 -18 -5 -25t-8 -19.5t-8 -18.5q-3 -10 -7 -34q0 -6 -1 -10h1h15q31 0 46 1q26 2 52 -10.5t39 -35.5q4 -7 12 -35q3 -12 3 -16q-1 -10 -8 -34t-17 -37 q-17 -22 -48 -36q-72 -34 -167 -8q-24 5 -40 13q-6 3 -3 10q3 6 10 3q6 -3 20 -6.5t17 -4.5q92 -24 157 7q30 14 43 31q8 11 14 33q7 23 7 29q0 3 -2 13q-5 20 -11 30q-10 18 -32.5 29.5t-44.5 9.5q-16 -1 -47 -1q-20 0 -22 1q0 1 -1 1t-2 1l-4 -2l-4 -2t-3 -1 q-13 -8 -27 -20q-5 -5 -11 1q-6 5 0 11q10 9 30 21l5 2.5l5 2.5l3 2l1 2q0 1 0.5 3.5t0.5 4.5q0 1 2 14t4 20q2 8 8.5 21t8.5 18t4 23q5 30 5 34q-80 0 -146 18q-109 28 -190 99q-90 79 -149 205q-49 106 -62 230q-4 40 -4 62z" />
<glyph unicode="&#xc8;" horiz-adv-x="1046" d="M13 1548q2 8 9 6q12 -2 21 -2h57q68 0 114 -25q18 -10 31 -23l4 -4q16 16 32 24q31 16 96 16h47q20 0 60 0.5t60 0.5q58 0 69 -1q50 -3 85 -11q5 -1 22 -5q5 0 11 -5t10 -21q4 -13 14 -39q18 -53 45 -168q2 -7 -6 -9q-7 -2 -9 5q-29 126 -44 168q-2 8 -14 38q-1 2 -2 5.5 t-2 6t-2 3.5q-2 0 -5 1q-14 4 -21 5q-35 8 -84 11q-11 1 -67 1h-120q-8 0 -23.5 -0.5t-23.5 -0.5q-63 0 -90 -14q-11 -6 -29 -24v-7t-0.5 -6t-0.5 -4v-468h380l2 6q4 12 5 19q7 33 12 70q2 13 8 47q3 20 8 28q4 6 10 2t2 -10q-2 -2 -6 -22q-3 -16 -7 -48q-4 -33 -12 -70 q-1 -4 -2.5 -11t-2.5 -10q0 -2 -1 -3.5t-1 -3.5l-1 -1q0 -3 3 -11t4 -12q8 -31 11 -59q1 -9 3.5 -28t3.5 -29q2 -22 7 -28q4 -7 -2 -11t-10 2q-8 10 -10 35q-1 9 -3.5 28t-3.5 30q-3 25 -11 57q0 2 -2.5 8t-3.5 10h-380v-605q0 -1 0.5 -3.5t0.5 -5v-6.5q21 -21 31 -26 q20 -10 59 -12q13 -1 78 -1h341q65 0 120 11q5 1 14.5 3.5t14.5 3.5q2 0 5 1q3 0 4 1q3 3 7 15q6 14 16 44q9 24 53 182q2 7 9 5t5 -9q-4 -15 -15 -56.5t-19.5 -70.5t-18.5 -56q-3 -9 -17 -44q-1 -1 -2 -5.5t-3 -8.5t-5 -7q-3 -2 -6 -3t-5.5 -1.5t-3.5 -0.5q-5 -1 -15 -3.5 t-15 -3.5q-67 -13 -123 -13q-57 0 -170.5 0.5t-170.5 0.5q-66 0 -79 1q-38 2 -64 14q-15 8 -34 25q-1 -1 -3 -2l-1 -1q-16 -16 -32 -24q-13 -7 -27 -12t-32 -7.5t-27 -3.5t-32 -1.5t-28 -0.5q-6 0 -23.5 0.5t-20.5 -1.5q-7 -2 -9 5t5 9q5 2 25 2h23q6 0 24 0.5t25 1t22.5 2 t24.5 3.5t21 6t22 10q18 10 29 21q6 6 7 8v14v1088v16l-7 7q-10 11 -28 21q-43 23 -108 23l-29 -1q-28 0 -28 1q-15 0 -24 2q-7 2 -5 9zM464 1762q2 7 9 5q8 -2 25 -4.5t21 -3.5q17 -3 49 -8.5t46 -7.5q40 -7 41 -7t39 -21q6 -3 3 -10q-3 -6 -10 -3q-4 2 -12 7t-14 8t-11 5 q-2 1 -39 6q-17 3 -48.5 8.5t-45.5 7.5q-39 5 -48 8q-7 2 -5 10z" />
<glyph unicode="&#xc9;" horiz-adv-x="1046" d="M13 1548q2 8 9 6q12 -2 21 -2h57q68 0 114 -25q18 -10 31 -23l4 -4q16 16 32 24q31 16 96 16h47q20 0 60 0.5t60 0.5q58 0 69 -1q50 -3 85 -11q5 -1 22 -5q5 0 11 -5t10 -21q4 -13 14 -39q18 -53 45 -168q2 -7 -6 -9q-7 -2 -9 5q-29 126 -44 168q-2 8 -14 38q-1 2 -2 5.5 t-2 6t-2 3.5q-2 0 -5 1q-14 4 -21 5q-35 8 -84 11q-11 1 -67 1h-120q-8 0 -23.5 -0.5t-23.5 -0.5q-63 0 -90 -14q-11 -6 -29 -24v-7t-0.5 -6t-0.5 -4v-468h380l2 6q4 12 5 19q7 33 12 70q2 13 8 47q3 20 8 28q4 6 10 2t2 -10q-2 -2 -6 -22q-3 -16 -7 -48q-4 -33 -12 -70 q-1 -4 -2.5 -11t-2.5 -10q0 -2 -1 -3.5t-1 -3.5l-1 -1q0 -3 3 -11t4 -12q8 -31 11 -59q1 -9 3.5 -28t3.5 -29q2 -22 7 -28q4 -7 -2 -11t-10 2q-8 10 -10 35q-1 9 -3.5 28t-3.5 30q-3 25 -11 57q0 2 -2.5 8t-3.5 10h-380v-605q0 -1 0.5 -3.5t0.5 -5v-6.5q21 -21 31 -26 q20 -10 59 -12q13 -1 78 -1h341q65 0 120 11q5 1 14.5 3.5t14.5 3.5q2 0 5 1q3 0 4 1q3 3 7 15q6 14 16 44q9 24 53 182q2 7 9 5t5 -9q-4 -15 -15 -56.5t-19.5 -70.5t-18.5 -56q-3 -9 -17 -44q-1 -1 -2 -5.5t-3 -8.5t-5 -7q-3 -2 -6 -3t-5.5 -1.5t-3.5 -0.5q-5 -1 -15 -3.5 t-15 -3.5q-67 -13 -123 -13q-57 0 -170.5 0.5t-170.5 0.5q-66 0 -79 1q-38 2 -64 14q-15 8 -34 25q-1 -1 -3 -2l-1 -1q-16 -16 -32 -24q-13 -7 -27 -12t-32 -7.5t-27 -3.5t-32 -1.5t-28 -0.5q-6 0 -23.5 0.5t-20.5 -1.5q-7 -2 -9 5t5 9q5 2 25 2h23q6 0 24 0.5t25 1t22.5 2 t24.5 3.5t21 6t22 10q18 10 29 21q6 6 7 8v14v1088v16l-7 7q-10 11 -28 21q-43 23 -108 23l-29 -1q-28 0 -28 1q-15 0 -24 2q-7 2 -5 9zM416 1706q-3 7 3 10q36 20 37 20q2 1 43 7q13 2 43.5 7.5t47.5 8.5q4 1 21 3.5t25 4.5t10 -5q2 -8 -5 -10q-9 -3 -48 -8q-30 -5 -92 -15 q-34 -5 -40 -7q-16 -6 -35 -18q-7 -4 -10 2z" />
<glyph unicode="&#xca;" horiz-adv-x="1046" d="M13 1548q2 8 9 6q12 -2 21 -2h57q68 0 114 -25q18 -10 31 -23l4 -4q16 16 32 24q31 16 96 16h47q20 0 60 0.5t60 0.5q58 0 69 -1q50 -3 85 -11q5 -1 22 -5q5 0 11 -5t10 -21q4 -13 14 -39q18 -53 45 -168q2 -7 -6 -9q-7 -2 -9 5q-29 126 -44 168q-2 8 -14 38q-1 2 -2 5.5 t-2 6t-2 3.5q-2 0 -5 1q-14 4 -21 5q-35 8 -84 11q-11 1 -67 1h-120q-8 0 -23.5 -0.5t-23.5 -0.5q-63 0 -90 -14q-11 -6 -29 -24v-7t-0.5 -6t-0.5 -4v-468h380l2 6q4 12 5 19q7 33 12 70q2 13 8 47q3 20 8 28q4 6 10 2t2 -10q-2 -2 -6 -22q-3 -16 -7 -48q-4 -33 -12 -70 q-1 -4 -2.5 -11t-2.5 -10q0 -2 -1 -3.5t-1 -3.5l-1 -1q0 -3 3 -11t4 -12q8 -31 11 -59q1 -9 3.5 -28t3.5 -29q2 -22 7 -28q4 -7 -2 -11t-10 2q-8 10 -10 35q-1 9 -3.5 28t-3.5 30q-3 25 -11 57q0 2 -2.5 8t-3.5 10h-380v-605q0 -1 0.5 -3.5t0.5 -5v-6.5q21 -21 31 -26 q20 -10 59 -12q13 -1 78 -1h341q65 0 120 11q5 1 14.5 3.5t14.5 3.5q2 0 5 1q3 0 4 1q3 3 7 15q6 14 16 44q9 24 53 182q2 7 9 5t5 -9q-4 -15 -15 -56.5t-19.5 -70.5t-18.5 -56q-3 -9 -17 -44q-1 -1 -2 -5.5t-3 -8.5t-5 -7q-3 -2 -6 -3t-5.5 -1.5t-3.5 -0.5q-5 -1 -15 -3.5 t-15 -3.5q-67 -13 -123 -13q-57 0 -170.5 0.5t-170.5 0.5q-66 0 -79 1q-38 2 -64 14q-15 8 -34 25q-1 -1 -3 -2l-1 -1q-16 -16 -32 -24q-13 -7 -27 -12t-32 -7.5t-27 -3.5t-32 -1.5t-28 -0.5q-6 0 -23.5 0.5t-20.5 -1.5q-7 -2 -9 5t5 9q5 2 25 2h23q6 0 24 0.5t25 1t22.5 2 t24.5 3.5t21 6t22 10q18 10 29 21q6 6 7 8v14v1088v16l-7 7q-10 11 -28 21q-43 23 -108 23l-29 -1q-28 0 -28 1q-15 0 -24 2q-7 2 -5 9zM348 1695q-4 6 2 10l33 22l19 13q1 1 3 1l14 3l27 6l42 10l27 6q7 2 9 -5t-6 -9l-26 -7l-42 -9l-28 -7l-12 -3l-19 -12l-32 -21 q-7 -4 -11 2zM589 1761q2 8 9 6l26 -7l56 -13l28 -6l1 -1h2l13 -9l25 -16l15 -9q6 -3 3 -10q-3 -6 -10 -3l-16 9l-25 16l-12 8l-27 6l-56 14l-26 6q-8 2 -6 9z" />
<glyph unicode="&#xcb;" horiz-adv-x="1046" d="M13 1548q2 8 9 6q12 -2 21 -2h57q68 0 114 -25q18 -10 31 -23l4 -4q16 16 32 24q31 16 96 16h47q20 0 60 0.5t60 0.5q58 0 69 -1q50 -3 85 -11q5 -1 22 -5q5 0 11 -5t10 -21q4 -13 14 -39q18 -53 45 -168q2 -7 -6 -9q-7 -2 -9 5q-29 126 -44 168q-2 8 -14 38q-1 2 -2 5.5 t-2 6t-2 3.5q-2 0 -5 1q-14 4 -21 5q-35 8 -84 11q-11 1 -67 1h-120q-8 0 -23.5 -0.5t-23.5 -0.5q-63 0 -90 -14q-11 -6 -29 -24v-7t-0.5 -6t-0.5 -4v-468h380l2 6q4 12 5 19q7 33 12 70q2 13 8 47q3 20 8 28q4 6 10 2t2 -10q-2 -2 -6 -22q-3 -16 -7 -48q-4 -33 -12 -70 q-1 -4 -2.5 -11t-2.5 -10q0 -2 -1 -3.5t-1 -3.5l-1 -1q0 -3 3 -11t4 -12q8 -31 11 -59q1 -9 3.5 -28t3.5 -29q2 -22 7 -28q4 -7 -2 -11t-10 2q-8 10 -10 35q-1 9 -3.5 28t-3.5 30q-3 25 -11 57q0 2 -2.5 8t-3.5 10h-380v-605q0 -1 0.5 -3.5t0.5 -5v-6.5q21 -21 31 -26 q20 -10 59 -12q13 -1 78 -1h341q65 0 120 11q5 1 14.5 3.5t14.5 3.5q2 0 5 1q3 0 4 1q3 3 7 15q6 14 16 44q9 24 53 182q2 7 9 5t5 -9q-4 -15 -15 -56.5t-19.5 -70.5t-18.5 -56q-3 -9 -17 -44q-1 -1 -2 -5.5t-3 -8.5t-5 -7q-3 -2 -6 -3t-5.5 -1.5t-3.5 -0.5q-5 -1 -15 -3.5 t-15 -3.5q-67 -13 -123 -13q-57 0 -170.5 0.5t-170.5 0.5q-66 0 -79 1q-38 2 -64 14q-15 8 -34 25q-1 -1 -3 -2l-1 -1q-16 -16 -32 -24q-13 -7 -27 -12t-32 -7.5t-27 -3.5t-32 -1.5t-28 -0.5q-6 0 -23.5 0.5t-20.5 -1.5q-7 -2 -9 5t5 9q5 2 25 2h23q6 0 24 0.5t25 1t22.5 2 t24.5 3.5t21 6t22 10q18 10 29 21q6 6 7 8v14v1088v16l-7 7q-10 11 -28 21q-43 23 -108 23l-29 -1q-28 0 -28 1q-15 0 -24 2q-7 2 -5 9zM307 1738q2 8 8 6q6 -1 18.5 -4.5t18.5 -3.5q5 0 17.5 3.5t18.5 4.5q7 2 9 -6q2 -6 -6 -8q-2 0 -16 -4.5t-23 -4.5t-23 4.5t-16 4.5 q-8 2 -6 8zM679 1741q2 8 9 6q40 -10 43 -10q5 0 11 1.5t13.5 3.5t12.5 3q7 2 9 -5t-5 -9q-33 -9 -41 -9q-3 0 -46 10q-8 2 -6 9z" />
<glyph unicode="&#xcc;" horiz-adv-x="506" d="M18 307q0 8 6 8q18 2 55 2t64 3.5t51 12.5t41 26l9 9v16v1082v20l-4 4l-13 13q-28 28 -46 31q-12 2 -40 2q-21 0 -26 3q-6 3 -3 10q4 7 10 4q2 -1 19 -1q28 0 43 -3q21 -4 53 -36l13 -13h1q21 21 32 31q16 13 23 16q14 5 35.5 5t31.5 1q6 2 8 -6q2 -6 -6 -8 q-11 -2 -32.5 -2t-31.5 -4q-4 -1 -19 -14q-6 -5 -33 -32q1 -5 0 -13l-1 -8v-1082q0 -1 0.5 -4l1 -6t-0.5 -7q19 -19 30 -26q33 -20 120 -24q8 -1 25.5 -1h25.5q17 0 23 -2q7 -2 5 -10q-2 -7 -10 -5q-5 2 -19 2q-8 1 -25.5 1h-25.5q-89 4 -126 26q-14 8 -31 25l-3 -3l-2 -1 q-18 -18 -47 -30q-26 -10 -53.5 -14t-66.5 -4t-53 -1q-8 0 -8 7zM166 1762q2 7 9 5q8 -2 25 -4.5t22 -3.5l93 -16l42 -7q1 0 39 -21q6 -3 3 -10q-3 -6 -10 -3q-4 2 -12 7t-14 8t-11 5q-1 0 -40 6l-93 16q-39 5 -48 8q-7 2 -5 10z" />
<glyph unicode="&#xcd;" horiz-adv-x="506" d="M18 307q0 8 6 8q18 2 55 2t64 3.5t51 12.5t41 26l9 9v16v1082v20l-4 4l-13 13q-28 28 -46 31q-12 2 -40 2q-21 0 -26 3q-6 3 -3 10q4 7 10 4q2 -1 19 -1q28 0 43 -3q21 -4 53 -36l13 -13h1q21 21 32 31q16 13 23 16q14 5 35.5 5t31.5 1q6 2 8 -6q2 -6 -6 -8 q-11 -2 -32.5 -2t-31.5 -4q-4 -1 -19 -14q-6 -5 -33 -32q1 -5 0 -13l-1 -8v-1082q0 -1 0.5 -4l1 -6t-0.5 -7q19 -19 30 -26q33 -20 120 -24q8 -1 25.5 -1h25.5q17 0 23 -2q7 -2 5 -10q-2 -7 -10 -5q-5 2 -19 2q-8 1 -25.5 1h-25.5q-89 4 -126 26q-14 8 -31 25l-3 -3l-2 -1 q-18 -18 -47 -30q-26 -10 -53.5 -14t-66.5 -4t-53 -1q-8 0 -8 7zM129 1704q-4 7 2 10q33 19 41 22q6 2 13.5 3.5t16 2t12.5 1.5q16 3 47 8.5t47 7.5q4 1 21 3.5t25 4.5q7 2 9 -5q2 -8 -5 -10q-10 -3 -47 -8q-16 -3 -47 -8.5t-47 -7.5q-39 -6 -40 -6q-9 -3 -38 -20 q-7 -4 -10 2z" />
<glyph unicode="&#xce;" horiz-adv-x="506" d="M18 307q0 8 6 8q18 2 55 2t64 3.5t51 12.5t41 26l9 9v16v1082v20l-4 4l-13 13q-28 28 -46 31q-12 2 -40 2q-21 0 -26 3q-6 3 -3 10q4 7 10 4q2 -1 19 -1q28 0 43 -3q21 -4 53 -36l13 -13h1q21 21 32 31q16 13 23 16q14 5 35.5 5t31.5 1q6 2 8 -6q2 -6 -6 -8 q-11 -2 -32.5 -2t-31.5 -4q-4 -1 -19 -14q-6 -5 -33 -32q1 -5 0 -13l-1 -8v-1082q0 -1 0.5 -4l1 -6t-0.5 -7q19 -19 30 -26q33 -20 120 -24q8 -1 25.5 -1h25.5q17 0 23 -2q7 -2 5 -10q-2 -7 -10 -5q-5 2 -19 2q-8 1 -25.5 1h-25.5q-89 4 -126 26q-14 8 -31 25l-3 -3l-2 -1 q-18 -18 -47 -30q-26 -10 -53.5 -14t-66.5 -4t-53 -1q-8 0 -8 7zM41 1695q-4 6 2 10l37 24l16 11h1q1 1 2 1l24 6l59 13l26 7q7 2 9 -6q2 -7 -5 -9l-27 -6l-58 -14l-24 -5l-15 -10l-36 -24q-7 -4 -11 2zM282 1761q2 8 9 6l26 -7l56 -13l28 -6q1 0 3 -1l19 -13l34 -21 q6 -4 2 -11q-4 -6 -11 -2l-33 21l-18 12l-27 6l-56 14l-26 6q-8 2 -6 9z" />
<glyph unicode="&#xcf;" horiz-adv-x="485" d="M7 1737q2 8 8 6q6 -1 18.5 -4.5t18.5 -3.5q4 0 9.5 1.5t12.5 3.5t12 3q7 2 9 -6q2 -7 -6 -9q-3 -1 -10.5 -3t-14.5 -3.5t-13 -1.5q-9 0 -22 4.5t-16 4.5q-8 2 -6 8zM8 307q0 8 7 8q18 2 54.5 2t63.5 3.5t51 12.5q26 10 42 26q2 2 4.5 5t3.5 4v16v1082v20l-4 4l-13 13 q-28 28 -45 31q-12 2 -41 2q-20 0 -25 3q-7 4 -4 10q4 7 10 4q2 -1 19 -1q28 0 43 -3q22 -4 54 -36l13 -13q21 21 32 31q16 13 23 16q14 5 35.5 5t31.5 1q7 2 9 -6q2 -6 -6 -8q-11 -2 -32.5 -2t-31.5 -4q-4 -1 -19 -14q-12 -10 -34 -32v-21v-1082q0 -1 0.5 -4l1 -6t-0.5 -7 q19 -19 30 -26q33 -20 119 -24q8 -1 25.5 -1h25.5q18 0 24 -2t4 -10q-2 -7 -10 -5q-5 2 -18 2q-8 1 -25 1h-26q-90 4 -127 26q-14 8 -31 25l-3 -3l-2 -1q-19 -19 -46 -30q-26 -10 -54 -14t-67 -4t-53 -1q-8 0 -8 7zM386 1738q2 8 9 6q3 -1 16.5 -5t19.5 -4q5 0 17 3.5 t18 4.5q7 2 9 -6q2 -6 -6 -8q-1 0 -14.5 -4.5t-22.5 -4.5q-8 0 -41 9q-7 2 -5 9z" />
<glyph unicode="&#xd0;" horiz-adv-x="1225" d="M18 305q-2 8 5 10q3 1 26 1q5 0 15.5 0.5t16.5 0.5q87 0 129 23q14 7 28 21l7 7l-1 6v8v507h-212q-7 0 -7 7q0 8 7 8h212v568q0 2 0.5 6t0.5 6v4q-4 6 -25 22q-24 18 -53.5 24t-78 6t-62.5 1q-7 0 -7 8q0 6 8 6q35 -3 67 -0.5t70 -5t65 -27.5q15 -10 23 -20q15 15 31 23 q27 13 74 19q43 4 97 4q14 0 44 1t54 0.5t45 -2.5q189 -19 315 -111q45 -33 82 -71q88 -91 135 -213t52 -256q1 -9 -2 -40q-4 -52 -7 -78q-24 -199 -135 -314q-142 -146 -408 -157q-18 -1 -104 -1q-14 0 -40.5 0.5t-48 1t-40.5 1.5q-81 5 -111 19q-13 7 -33 25q0 -1 -2 -2 l-2 -1q-15 -15 -30 -23q-46 -25 -137 -25h-32q-16 0 -22 -2q-7 -2 -9 5zM259 382q0 -1 0.5 -3.5t0.5 -5v-6.5q18 -18 32 -25q27 -14 106 -18q25 -2 71 -2h57h51q51 -1 51 0q262 11 399 152q107 112 130 306q3 26 7 78q2 32 2 38q-5 131 -51 250.5t-132 208.5q-33 35 -79 69 q-124 91 -309 108q-23 2 -141 2q-42 0 -95 -5q-49 -6 -70 -17q-13 -7 -29 -23v-7t-0.5 -6t-0.5 -4v-568h236q8 0 8 -8q0 -7 -8 -7h-236v-507z" />
<glyph unicode="&#xd1;" horiz-adv-x="1233" d="M9 306q0 7 7 7q3 0 10 1.5t11 1.5q97 2 121 8q16 4 53 20v6.5t0.5 5t0.5 3.5v46v169v690q0 27 1 40q0 15 5 26q1 2 14 15l22 22q-1 3 -1 8q-1 4 -3 11.5t-3 11.5q-16 58 -22 88q-2 6 6 8q6 2 8 -6q5 -25 22 -86l6 -24q2 -6 2 -7q1 -1 3.5 -2t6.5 -2.5t6 -2.5q5 -2 17 -7 t17 -7q2 -1 6 -2t8 -2.5t7 -3.5q4 -3 7 -7t6 -8.5t4 -6.5q15 -18 41 -56q23 -33 71 -100t72 -101l246 -345q62 -86 93 -130q4 -7 14 -20t15 -19q17 -22 18 -23q3 -2 10.5 -4.5t11.5 -4.5l42 -18q1 2 3 3.5t4 2.5l2 1l19 19q7 7 8 9q4 14 4 60q0 15 0.5 44.5t0.5 43.5v827 q-1 0 -3 2l-2 1l-7 3.5t-8 3.5q-28 10 -48 14q-21 4 -64 4.5t-63 3.5q-8 2 -6 9q2 8 8 6q19 -3 61.5 -3.5t65.5 -4.5q22 -4 52 -16q13 -5 16 -7l5 -3q2 2 4 3q6 3 16 7q15 6 51 15q30 6 76 6q35 0 44 2q7 2 9 -6q2 -7 -6 -9q-11 -2 -47 -2q-50 0 -73 -5q-32 -8 -48 -15 q-2 -1 -7.5 -3.5t-8.5 -3.5q-1 -1 -3 -2v-827v-89q0 -45 -5 -63q-1 -5 -11 -15l-20 -20l-7 -7q0 -1 1 -3t1 -3l6 -24q2 -8 7 -25t8.5 -31t5.5 -27q1 -6 -7 -8q-6 -2 -8 6q-1 12 -4.5 25.5t-9 30t-7.5 26.5q-1 4 -3 11.5t-3 11.5q0 1 -1 3t-1 3q-2 1 -45 19q-1 0 -10.5 3.5 t-14.5 7.5q-7 5 -22 26q-5 7 -14 20t-14 19q-31 44 -93 130q-41 58 -123 173.5t-123 172.5q-24 33 -72 100t-71 100q-26 38 -40 56q-2 3 -5.5 7t-5.5 7t-4 4t-4.5 2t-6 2.5t-6.5 2.5q-5 2 -17 7t-17 8q-1 0 -4 1l-6 2l-6 2l-22 -22l-4.5 -4.5t-4.5 -4t-2 -2.5q-1 -1 -3 -20 q-1 -13 -1 -39v-690v-169v-47q0 -3 -0.5 -8t-0.5 -6q1 0 3.5 -1t4.5 -2q17 -8 30 -12q21 -7 44.5 -9.5t55 -3t47.5 -1.5q7 0 7 -8q0 -7 -8 -7q-15 1 -46.5 1.5t-56.5 3t-47 10.5t-33 13q-5 0 -9 3q-36 -16 -57 -21q-28 -7 -123 -9q-3 0 -10 -1t-11 -1q-8 0 -8 7zM418 1710 q1 2 3 9t4 13t6 11q4 6 16 10q20 9 37 13q7 2 9 -5t-6 -9q-11 -3 -33 -13q-11 -4 -11 -5q-3 -3 -6 -14.5t-5 -15.5q-4 -7 -10 -4q-7 4 -4 10zM591 1762q2 7 9 5q6 -2 20 -4.5t18 -3.5q13 -2 37 -8t37 -9q8 -2 23.5 -5t23.5 -4q4 0 12 -2t12 -2q12 0 24.5 3t28.5 7.5t25 6.5 q7 2 9 -5t-6 -9q-7 -2 -24 -7t-30.5 -8t-26.5 -3q-6 0 -16 2t-11 2q-8 1 -23.5 4t-23.5 5q-12 3 -37 9t-37 8q-5 1 -18.5 3.5t-20.5 4.5t-5 10z" />
<glyph unicode="&#xd2;" horiz-adv-x="1188" d="M38 932q0 15 2 39q4 58 8 87q21 154 96 276q49 77 124 135t162 85q53 17 98 22q8 1 24.5 2t24.5 2q6 1 12 1t13 -0.5t11 -0.5q46 -2 67 -5q138 -20 248 -114t165 -228q41 -99 52 -217q7 -63 6 -86q-9 -192 -108.5 -358t-268.5 -234q-55 -21 -106 -28q-86 -11 -168 4 q-143 26 -252 132q-43 42 -87 106q-100 143 -118 314q-4 45 -5 66zM53 933q0 -11 5 -66q19 -168 115 -306q48 -68 86 -105q106 -103 243 -127q80 -15 165 -4q53 7 102 27q164 66 261.5 228t105.5 350q1 21 -6 84q-11 114 -51 213q-53 130 -160 221.5t-241 111.5q-22 3 -65 5 q-19 2 -34 0q-8 -1 -24.5 -2t-24.5 -2q-45 -6 -96 -22q-85 -26 -158 -82t-120 -131q-72 -115 -93 -271q-4 -29 -8 -85q-2 -26 -2 -37zM505 1762q2 7 10 5q11 -3 37 -7q15 -3 44 -7t43 -7l36 -6q17 -3 19 -4q11 -4 35 -18q6 -4 2 -11q-4 -6 -11 -2q-26 15 -31 17q-2 0 -17 3 l-35 6q-15 3 -44.5 7t-43.5 7q-35 6 -39 7q-7 2 -5 10z" />
<glyph unicode="&#xd3;" horiz-adv-x="1188" d="M38 932q0 15 2 39q4 58 8 87q21 154 96 276q49 77 124 135t162 85q53 17 98 22q8 1 24.5 2t24.5 2q6 1 12 1t13 -0.5t11 -0.5q46 -2 67 -5q138 -20 248 -114t165 -228q41 -99 52 -217q7 -63 6 -86q-9 -192 -108.5 -358t-268.5 -234q-55 -21 -106 -28q-86 -11 -168 4 q-143 26 -252 132q-43 42 -87 106q-100 143 -118 314q-4 45 -5 66zM53 933q0 -11 5 -66q19 -168 115 -306q48 -68 86 -105q106 -103 243 -127q80 -15 165 -4q53 7 102 27q164 66 261.5 228t105.5 350q1 21 -6 84q-11 114 -51 213q-53 130 -160 221.5t-241 111.5q-22 3 -65 5 q-19 2 -34 0q-8 -1 -24.5 -2t-24.5 -2q-45 -6 -96 -22q-85 -26 -158 -82t-120 -131q-72 -115 -93 -271q-4 -29 -8 -85q-2 -26 -2 -37zM407 1706q-4 6 2 10q5 4 14 8t10 5q12 6 15 7q12 3 42 8l93 15q4 1 20 3.5t24 4.5q7 2 9 -5q2 -8 -5 -10q-8 -2 -46 -8l-93 -15 q-28 -4 -40 -7q-7 -2 -13 -6q-16 -8 -22 -12t-10 2z" />
<glyph unicode="&#xd4;" horiz-adv-x="1188" d="M38 932q0 15 2 39q4 58 8 87q21 154 96 276q49 77 124 135t162 85q53 17 98 22q8 1 24.5 2t24.5 2q6 1 12 1t13 -0.5t11 -0.5q46 -2 67 -5q138 -20 248 -114t165 -228q41 -99 52 -217q7 -63 6 -86q-9 -192 -108.5 -358t-268.5 -234q-55 -21 -106 -28q-86 -11 -168 4 q-143 26 -252 132q-43 42 -87 106q-100 143 -118 314q-4 45 -5 66zM53 933q0 -11 5 -66q19 -168 115 -306q48 -68 86 -105q106 -103 243 -127q80 -15 165 -4q53 7 102 27q164 66 261.5 228t105.5 350q1 21 -6 84q-11 114 -51 213q-53 130 -160 221.5t-241 111.5q-22 3 -65 5 q-19 2 -34 0q-8 -1 -24.5 -2t-24.5 -2q-45 -6 -96 -22q-85 -26 -158 -82t-120 -131q-72 -115 -93 -271q-4 -29 -8 -85q-2 -26 -2 -37zM397 1695q-4 6 2 10l35 23l17 12h1l2 1l27 6l55 13l28 7q7 2 9 -6q2 -7 -6 -9l-27 -7l-55 -13l-26 -5l-17 -12l-35 -22q-6 -4 -10 2z M638 1761q2 7 9 5l64 -15l30 -7l16 -3q1 0 3 -1l18 -12l35 -22q6 -4 2 -11q-4 -6 -10 -2l-35 22l-17 11l-16 4l-29 6l-64 16q-8 2 -6 9z" />
<glyph unicode="&#xd5;" horiz-adv-x="1188" d="M38 932q0 15 2 39q4 58 8 87q21 154 96 276q49 77 124 135t162 85q53 17 98 22q8 1 24.5 2t24.5 2q6 1 12 1t13 -0.5t11 -0.5q46 -2 67 -5q138 -20 248 -114t165 -228q41 -99 52 -217q7 -63 6 -86q-9 -192 -108.5 -358t-268.5 -234q-55 -21 -106 -28q-86 -11 -168 4 q-143 26 -252 132q-43 42 -87 106q-100 143 -118 314q-4 45 -5 66zM53 933q0 -11 5 -66q19 -168 115 -306q48 -68 86 -105q106 -103 243 -127q80 -15 165 -4q53 7 102 27q164 66 261.5 228t105.5 350q1 21 -6 84q-11 114 -51 213q-53 130 -160 221.5t-241 111.5q-22 3 -65 5 q-19 2 -34 0q-8 -1 -24.5 -2t-24.5 -2q-45 -6 -96 -22q-85 -26 -158 -82t-120 -131q-72 -115 -93 -271q-4 -29 -8 -85q-2 -26 -2 -37zM357 1709q1 7 8 24q5 10 6 11q3 4 15 8q24 12 36 14q7 2 9 -6q2 -7 -6 -9q-8 -1 -33 -12q-8 -3 -10 -5q0 -1 -3 -7q-2 -5 -7 -22 q-2 -7 -9 -5q-8 2 -6 9zM530 1762q2 7 9 5q6 -2 19 -4.5t17 -3.5q11 -3 32.5 -8t32.5 -7q33 -7 55 -11q20 -4 27 -4q19 0 53 10q20 6 23 6q6 2 8 -6q2 -6 -6 -8q-3 -1 -10.5 -3t-10.5 -3q-36 -10 -57 -11q-6 0 -16.5 2t-12.5 2q-22 4 -56 11q-11 2 -32.5 7t-32.5 8 q-27 5 -37 8q-7 2 -5 10z" />
<glyph unicode="&#xd6;" horiz-adv-x="1188" d="M38 932q0 15 2 39q4 58 8 87q21 154 96 276q49 77 124 135t162 85q53 17 98 22q8 1 24.5 2t24.5 2q6 1 12 1t13 -0.5t11 -0.5q46 -2 67 -5q138 -20 248 -114t165 -228q41 -99 52 -217q7 -63 6 -86q-9 -192 -108.5 -358t-268.5 -234q-55 -21 -106 -28q-86 -11 -168 4 q-143 26 -252 132q-43 42 -87 106q-100 143 -118 314q-4 45 -5 66zM53 933q0 -11 5 -66q19 -168 115 -306q48 -68 86 -105q106 -103 243 -127q80 -15 165 -4q53 7 102 27q164 66 261.5 228t105.5 350q1 21 -6 84q-11 114 -51 213q-53 130 -160 221.5t-241 111.5q-22 3 -65 5 q-19 2 -34 0q-8 -1 -24.5 -2t-24.5 -2q-45 -6 -96 -22q-85 -26 -158 -82t-120 -131q-72 -115 -93 -271q-4 -29 -8 -85q-2 -26 -2 -37zM184 1658v1q0 7 8 7q7 0 7 -7v-1q0 -7 -7 -7q-8 0 -8 7z" />
<glyph unicode="&#xd7;" horiz-adv-x="721" d="M111 494q-5 6 0 11l239 239l-3 3l-69 69l-166 167q-5 5 0 10t10 0l166 -167l69 -69l3 -3l240 240q5 5 10 0t0 -10l-239 -240l239 -239q6 -5 0 -11q-5 -5 -10 0l-240 239l-238 -239q-6 -6 -11 0z" />
<glyph unicode="&#xd8;" horiz-adv-x="1163" d="M39 265l41 50l72 89l8 9l3 7q0 1 1 2l42 41v5v4.5v4v3.5v5q-8 8 -10 9l-4 1q-4 1 -8 2.5t-7 5.5q-6 6 -19 27q-14 21 -31 54q-55 105 -72 232q-7 53 -7 92q0 29 6 87q23 239 135 384q40 52 90 92q36 28 76 49q50 27 107 40q25 6 76 10q39 3 78 0q99 -7 176 -41 q64 -29 111 -66q6 -4 12 -9.5t12.5 -12.5t10.5 -10l2 -1q2 0 5 -1.5t6 -3.5q8 -5 15 -14q5 5 16.5 15.5t16.5 16.5l1 1q1 2 2 4.5t3 4.5q5 7 42.5 51.5t55.5 69.5q4 6 11 2q5 -4 1 -10q-30 -40 -98 -123l-1 -1l-2 -4t-3 -4q-6 -8 -19.5 -20.5t-17.5 -17.5v-2q1 -3 1.5 -7 t-0.5 -11q5 -7 9 -9l3 -1q3 0 6.5 -1.5t6.5 -5.5q7 -8 15 -22q15 -24 30 -53q46 -93 67 -209q11 -60 14 -135q1 -7 -2 -35q-1 -13 -3 -37.5t-3 -36.5q-17 -178 -90 -301q-28 -46 -70 -93q-30 -33 -61 -57q-41 -31 -85 -52q-70 -33 -173 -40q-42 -3 -73 -1q-135 9 -242 79 q-28 18 -56 41q-24 21 -25 22q-1 0 -3 0.5t-4.5 1.5t-5.5 3l-14 14q-2 1 -3 2l-37 -38l-3 -6l-1 -2l-8 -10l-72 -89l-41 -50q-6 -6 -11 -1q-6 6 -1 11zM63 907q0 -35 7 -89q18 -128 70 -228q9 -18 31 -52q15 -23 17 -25q1 -1 3 -1.5t5.5 -1.5t7.5 -3q2 -1 9 -8q2 2 5 4.5 t4 3.5q3 3 8.5 9t10 10.5t9.5 8.5q5 3 9.5 4.5t5.5 2.5q11 12 29 35.5t22 28.5q19 23 55.5 68.5t55.5 67.5q78 95 220 271t201 248l42 51q2 2 5.5 7t7.5 9.5t8 8.5q3 3 6.5 4.5t6.5 2.5h3l16 16l17 17l-1 3q-1 4 -1.5 8t0.5 9l-16 16l-14 7q-29 26 -35 31q-51 40 -108 65 q-73 32 -170 39q-38 3 -76 0q-49 -4 -73 -10q-61 -15 -105 -38q-30 -15 -72 -48q-47 -37 -88 -89q-109 -139 -132 -377q-6 -58 -6 -86zM221 464l1 -2l4 -4q9 -9 12 -11q1 0 3 -1t5 -2t6 -3q5 -4 14 -12t12 -11q26 -21 54 -39q105 -68 235 -77q29 -3 71 1q98 7 167 39 q49 24 82 50q39 31 60 55q44 49 68 91q71 119 88 295q1 12 3 37t3 37q2 22 2 32q-3 74 -14 133q-19 113 -65 206q-18 34 -29 50q-2 3 -6.5 10.5t-7.5 10.5l-1 1h-2.5t-4 1t-5.5 3q-2 1 -9 8q-2 -3 -7 -7t-6 -5l-18 -18q-3 -2 -5.5 -3.5t-4.5 -1.5t-4 -1h-1q-3 -3 -9.5 -11.5 t-9.5 -11.5q-7 -8 -21 -25.5t-21 -26.5q-59 -72 -201 -248t-220 -271q-19 -22 -55.5 -67.5t-55.5 -68.5q-50 -62 -52 -64q-3 -4 -6.5 -5.5t-7.5 -2.5l-3 -1l-27 -27l-4.5 -4.5t-4.5 -4t-2 -2.5v-5v-6.5v-6v-3.5z" />
<glyph unicode="&#xd9;" horiz-adv-x="1261" d="M0 1552q0 7 8 7q15 -1 58.5 -1t75 -5t58.5 -20q13 -7 33 -27q5 5 11 9q19 18 44 27q37 14 104 16h31t38 2q6 2 8 -6q2 -7 -6 -9q-14 -2 -39.5 -2h-31.5q-65 -2 -99 -15q-22 -9 -40 -24q-10 -8 -12 -12q1 -2 1 -4v-566q0 -147 4 -188q16 -155 64 -232q56 -88 172 -141 q49 -23 123 -26q7 0 44 2q109 11 197 70q37 24 66 49l11 10q11 11 18 16q6 4 18 7q3 1 16 4.5t19 6.5l8 8l20 20l15 15v13v931v5q-3 6 -22 20q-35 26 -113 30h-18.5t-23.5 0.5t-20 2.5q-7 2 -5 9q2 8 9 6q1 0 58 -3q82 -4 121 -33l9 -7q9 -7 13 -11q14 14 27 23q38 25 92 28 q9 1 40 0.5t38 2.5q7 2 9 -6q2 -7 -5 -9q-9 -4 -41.5 -3t-39.5 0q-51 -3 -85 -25q-13 -9 -28 -24v-6v-931v-3.5v-5.5v-6q2 -4 3 -10t1 -10.5t-0.5 -10t-0.5 -6.5v-65q0 -3 -0.5 -9.5t-0.5 -11t1 -6.5q2 -2 8 -6q16 -12 24 -16q23 -13 65 -9q19 1 57 5q30 3 31 3q8 0 8 -7 t-7 -7q-5 0 -15 -2t-15 -2q-38 -4 -57 -5q-49 -4 -75 10l-24 18l-2 1q-2 1 -3 2q-5 -9 -15.5 -25.5t-12.5 -20.5q-17 -32 -29 -47q-5 -6 -10 -1q-6 6 -1 11q5 6 27 45q6 10 17 28.5t14 23.5v28v65v19q-2 -2 -4 -3.5t-3 -2.5l-20 -20q-8 -8 -12 -10q-8 -4 -37 -12 q-12 -4 -14 -5q-9 -7 -29 -25q-33 -29 -67 -51q-93 -61 -204 -72q-38 -3 -46 -2q-76 3 -129 28q-119 54 -177 146q-52 82 -67 239q-5 52 -5 189v566v4q-21 21 -34 28q-25 14 -53.5 18.5t-72 4.5t-59.5 1q-7 0 -7 8zM539 1762q2 7 10 5t25 -4.5t21 -3.5q15 -2 46 -7.5 t47 -8.5q40 -7 41 -7q8 -2 20 -9.5t14 -8.5q6 -3 3 -10q-3 -6 -10 -3q-30 16 -32 17q-1 0 -38 6q-16 2 -47.5 7.5t-46.5 8.5q-39 5 -48 8q-7 2 -5 10z" />
<glyph unicode="&#xda;" horiz-adv-x="1261" d="M0 1552q0 7 8 7q15 -1 58.5 -1t75 -5t58.5 -20q13 -7 33 -27q5 5 11 9q19 18 44 27q37 14 104 16h31t38 2q6 2 8 -6q2 -7 -6 -9q-14 -2 -39.5 -2h-31.5q-65 -2 -99 -15q-22 -9 -40 -24q-10 -8 -12 -12q1 -2 1 -4v-566q0 -147 4 -188q16 -155 64 -232q56 -88 172 -141 q49 -23 123 -26q7 0 44 2q109 11 197 70q37 24 66 49l11 10q11 11 18 16q6 4 18 7q3 1 16 4.5t19 6.5l8 8l20 20l15 15v13v931v5q-3 6 -22 20q-35 26 -113 30h-18.5t-23.5 0.5t-20 2.5q-7 2 -5 9q2 8 9 6q1 0 58 -3q82 -4 121 -33l9 -7q9 -7 13 -11q14 14 27 23q38 25 92 28 q9 1 40 0.5t38 2.5q7 2 9 -6q2 -7 -5 -9q-9 -4 -41.5 -3t-39.5 0q-51 -3 -85 -25q-13 -9 -28 -24v-6v-931v-3.5v-5.5v-6q2 -4 3 -10t1 -10.5t-0.5 -10t-0.5 -6.5v-65q0 -3 -0.5 -9.5t-0.5 -11t1 -6.5q2 -2 8 -6q16 -12 24 -16q23 -13 65 -9q19 1 57 5q30 3 31 3q8 0 8 -7 t-7 -7q-5 0 -15 -2t-15 -2q-38 -4 -57 -5q-49 -4 -75 10l-24 18l-2 1q-2 1 -3 2q-5 -9 -15.5 -25.5t-12.5 -20.5q-17 -32 -29 -47q-5 -6 -10 -1q-6 6 -1 11q5 6 27 45q6 10 17 28.5t14 23.5v28v65v19q-2 -2 -4 -3.5t-3 -2.5l-20 -20q-8 -8 -12 -10q-8 -4 -37 -12 q-12 -4 -14 -5q-9 -7 -29 -25q-33 -29 -67 -51q-93 -61 -204 -72q-38 -3 -46 -2q-76 3 -129 28q-119 54 -177 146q-52 82 -67 239q-5 52 -5 189v566v4q-21 21 -34 28q-25 14 -53.5 18.5t-72 4.5t-59.5 1q-7 0 -7 8zM535 1704q-4 7 2 10q33 19 41 22l42 7q17 3 51 8.5t51 8.5 q28 4 38 7q7 2 9 -5q2 -8 -5 -10q-3 -1 -40 -7q-17 -3 -50.5 -8.5t-50.5 -8.5q-39 -6 -40 -6q-9 -3 -38 -20q-7 -4 -10 2z" />
<glyph unicode="&#xdb;" horiz-adv-x="1261" d="M0 1552q0 7 8 7q15 -1 58.5 -1t75 -5t58.5 -20q13 -7 33 -27q5 5 11 9q19 18 44 27q37 14 104 16h31t38 2q6 2 8 -6q2 -7 -6 -9q-14 -2 -39.5 -2h-31.5q-65 -2 -99 -15q-22 -9 -40 -24q-10 -8 -12 -12q1 -2 1 -4v-560v-30.5v-32v-29.5t0.5 -31.5t1.5 -29.5t2 -31.5 t2.5 -29t3.5 -31.5t5 -28.5t6 -30.5q22 -92 60 -141q29 -37 62 -63q43 -34 97 -59q52 -23 123 -26q7 0 44 2q109 11 197 70q32 21 66 50q24 21 29 25q6 4 18 7q3 1 16 4.5t19 6.5l8 8l20 20l15 15v13v931v5q-3 6 -22 20q-35 26 -114 30h-24q-24 1 -37 3q-7 2 -5 9q2 8 9 6 q1 0 58 -3q82 -4 121 -33l9 -7q9 -7 13 -11q16 16 26 23q31 22 86 27q13 1 42 1t43 3q7 2 9 -6q2 -7 -5 -9q-17 -3 -45 -3t-43 -1q-51 -5 -79 -25q-13 -9 -27 -23v-6v-931v-3.5v-5.5v-6q2 -4 3 -10t1 -10.5t-0.5 -10t-0.5 -6.5v-65q0 -3 -0.5 -9.5t-0.5 -11t1 -6.5 q2 -2 8 -6q16 -12 24 -16q23 -13 65 -9q19 1 57 5q30 3 31 3q8 0 8 -7t-7 -7q-6 0 -16.5 -2t-14.5 -2q-39 -4 -56 -5q-49 -4 -75 10l-24 18l-2 1q-2 1 -3 2q-5 -9 -15.5 -25.5t-12.5 -20.5q-17 -32 -29 -47q-5 -6 -10 -1q-6 6 -1 11q5 6 27 45q6 10 17 28.5t14 23.5v28v65 v19q-2 -2 -4 -3.5t-3 -2.5l-20 -20q-8 -8 -12 -10q-8 -4 -37 -12q-12 -4 -14 -5q-5 -3 -28 -24q-44 -36 -68 -52q-93 -61 -204 -72q-38 -3 -46 -2q-74 3 -128 27q-56 25 -101 61q-36 28 -64 66q-41 54 -63 146q-22 97 -22 308v560v4q-21 21 -34 28q-25 14 -53.5 18.5 t-72 4.5t-59.5 1q-7 0 -7 8zM464 1695q-4 6 2 10l33 22l20 13q1 0 1 0.5t1 0.5l25 6l58 13l27 7q7 2 9 -6q2 -7 -6 -9l-26 -6l-59 -14l-23 -5l-19 -13l-33 -21q-6 -4 -10 2zM706 1761q2 7 9 5q13 -3 36.5 -8.5t33.5 -7.5q4 -1 12 -2.5t15 -3t13 -4.5q3 -2 8 -5t7 -4 q26 -18 39 -25q6 -3 3 -10q-3 -6 -10 -3q-8 5 -22.5 14t-17.5 11q-2 1 -6 4t-6 4l-39 9q-13 3 -36 9t-34 8q-7 2 -5 9z" />
<glyph unicode="&#xdc;" horiz-adv-x="1258" d="M11 1549q2 8 8 6q8 -2 24.5 -2h20.5q79 -4 121 -24q25 -11 39 -27q28 26 63 38q18 6 51.5 9.5t42.5 5.5q6 2 8 -6q2 -6 -6 -8q-9 -2 -42 -5.5t-50 -9.5q-34 -12 -59 -37v-7t-0.5 -6t-0.5 -4v-573v-29.5v-32v-29t0.5 -31.5t1.5 -29t2 -31.5t2.5 -29t4 -31t5 -28.5t6.5 -30 q20 -83 51 -128q25 -38 63 -70q45 -38 107 -65q46 -21 119 -26q31 -1 62 0q63 4 96 10q46 8 96 31q128 56 177 225q27 95 31 248q1 36 1 217v401q0 9 -0.5 29t-0.5 29v15v1q-11 5 -20 8q-8 3 -65 13q-25 4 -29 5q-7 3 -4 9q4 7 10 4q3 -1 12 -1.5t14 -1.5q54 -10 67 -14 q9 -3 22 -9q2 1 5.5 2.5t4.5 1.5q15 7 34 12q21 6 77 10q49 2 56 4t9 -5t-6 -9q-14 -3 -57 -5q-52 -4 -76 -10q-20 -5 -31 -11q-6 -2 -8 -3v-1v-15q0 -9 0.5 -29t0.5 -29v-401q0 -145 -2 -217q-4 -159 -31 -252q-53 -177 -185 -235q-53 -23 -99 -31q-42 -8 -98 -11 q-32 -2 -65 0q-71 5 -123 28q-69 30 -110 66q-39 33 -66 73q-35 53 -54 133q-5 21 -9 41.5t-6.5 47t-4 40t-2 47t-0.5 40.5v47.5v41.5v573q0 2 0.5 6t0.5 6v4q-12 15 -38 28q-40 18 -116 22q-1 0 -18.5 0.5t-27.5 2.5q-8 2 -6 8z" />
<glyph unicode="&#xdd;" horiz-adv-x="1105" d="M0 1551q2 8 9 6q13 -3 39.5 -3t33.5 -1q30 -3 62 -14q36 -13 60 -24q3 -1 9.5 -4t9.5 -5l3 -1l9 9q29 30 38 33q18 7 46 7h36t35 1q8 0 8 -7q0 -8 -6 -8q-13 -1 -36.5 -1h-36.5q-26 0 -40 -6q-6 -2 -33 -29l-2 -2q-1 -2 -3.5 -4.5l-4.5 -4.5l9 -39q4 -20 7 -28 q4 -10 34 -63q9 -14 25 -42.5t25 -42.5q19 -32 56.5 -96t56.5 -96q12 -20 35.5 -60.5t35.5 -60.5q3 -6 11 -18t11 -18q1 -2 5 -9.5t6 -10.5q4 -6 13 -13l16 16q10 10 13 12q7 5 28 14l9 4l7 14q3 5 8.5 15t7.5 15q8 15 25 46t25 47q25 46 73 137t73 136q2 4 35 64 q16 30 20 45q8 32 12 49q0 1 1 6t2 8q-4 4 -10 8q-8 4 -31 6q-18 1 -54 1q-27 0 -35 2q-7 2 -5 9t9 5q5 -1 31 -1q37 0 55 -1q28 -3 37 -8q6 -3 13 -10q2 1 5 1q5 2 22 7q33 9 99 11h10h10.5h8.5q7 2 8 2q6 4 10 -3q4 -6 -2 -10q-8 -4 -15 -4h-30q-63 -2 -94 -11l-21 -6 l-6 -2q-2 -4 -4 -14q-2 -6 -5 -23t-6 -27q-5 -18 -22 -47q-7 -12 -19 -35t-16 -30q-24 -46 -72.5 -136.5t-73.5 -135.5q-9 -15 -25 -46t-25 -47q-3 -5 -8.5 -15t-7.5 -15q-7 -13 -9 -16t-13 -8q-4 -2 -13.5 -6.5t-13.5 -7.5q-3 -2 -10 -9l-20 -20v-508l1 -2v-5 q16 -16 30 -25q35 -21 120 -25q8 -1 25.5 -1h26.5q19 0 24 -3q6 -3 3 -10q-4 -7 -10 -4q-2 1 -4.5 1t-7 0.5t-7.5 0.5q-8 1 -25 1h-26q-88 4 -127 27q-16 11 -30 24q-45 -49 -147 -51q-8 0 -24.5 -0.5t-24.5 -0.5q-25 0 -29 -1q-7 -2 -9 5t6 9t32 2h48q98 2 141 52l-1 2v4 v508q-8 7 -17 19q-7 9 -12 20q-4 6 -11 18.5t-11 18.5q-12 20 -35.5 60t-35.5 60q-19 32 -56.5 96t-56.5 96q-9 14 -24.5 42.5t-24.5 42.5q-33 57 -36 66q-4 9 -8 29q-1 7 -4 20t-5 20l-4 3q-7 3 -19 9q-22 10 -58 23q-33 12 -60 13q-7 1 -33 1t-41 3q-8 2 -6 9zM447 1706 q-4 6 2 10q5 4 14 8t10 5t3 2t3.5 1.5t3.5 1.5l4 2q7 2 43 8q15 3 45.5 8t45.5 7q4 1 21 3.5t25 4.5t10 -5q2 -8 -5 -10q-9 -3 -48 -8q-15 -2 -45.5 -7t-45.5 -8q-35 -5 -41 -7q-7 -2 -13 -6q-12 -6 -21 -12q-7 -4 -11 2z" />
<glyph unicode="&#xde;" horiz-adv-x="899" d="M10 1551q3 7 9 4q3 -1 15 -1h9.5h11.5h10q8 0 29 -1t32.5 -2t29 -3.5t32.5 -8t28 -14.5q15 -10 25 -20q1 -1 4 -3q19 19 35 27q27 15 57.5 20t74 5t58.5 1q8 0 8 -6q0 -8 -6 -8q-15 -1 -59 -1.5t-72.5 -5t-53.5 -18.5q-15 -8 -34 -27v-6.5t-0.5 -5t-0.5 -3.5v-185 q31 0 139 9t179.5 1.5t135.5 -40.5q38 -19 66 -47q65 -63 85 -181q7 -42 7 -56q0 -11 -5 -41q-7 -49 -17 -82q-36 -118 -122 -175q-110 -72 -294 -65q-26 1 -78 7q-41 4 -96 4v-239q0 -1 0.5 -4t0.5 -6v-7q18 -19 26 -23q38 -23 123 -27q8 -1 25.5 -1h26.5q20 0 25 -3 q6 -3 3 -10q-4 -7 -10 -4q-2 1 -4.5 1t-7 0.5t-7.5 0.5q-9 1 -25.5 1h-25.5q-90 4 -130 29q-12 8 -27 22q-2 -2 -5 -4t-4 -3q-19 -18 -40 -26q-26 -11 -55 -14.5t-66.5 -4t-54.5 -1.5q-8 0 -8 7q0 8 6 8q18 1 56 1.5t65 4t51 13.5q24 11 37 23q1 1 4 3.5t4.5 4.5t2.5 3v3 q0 3 -0.5 6.5t-0.5 6.5v1090q0 2 0.5 5.5t0.5 5v3.5l-7 7q-11 11 -22 18q-12 7 -25.5 12t-30 7.5t-27.5 3.5t-32.5 2t-29.5 1q0 1 -14.5 0.5t-15.5 -0.5q-13 0 -20 3t-4 9zM252 638q54 0 97 -4q52 -6 78 -7q181 -7 285 62q82 54 116 168q8 27 16 79q5 32 5 39q0 11 -7 53 q-20 114 -80 173q-23 23 -63 44q-62 32 -130.5 39t-176.5 -1.5t-140 -8.5v-636z" />
<glyph unicode="&#xdf;" horiz-adv-x="900" d="M23 305q-2 7 5 9t28 2q27 0 40 1q67 5 109 45v16v198q0 92 -0.5 275t-0.5 274h-2q-4 -1 -11.5 -4.5t-10.5 -4.5q-29 -10 -52 -14q-8 -1 -51 -4q-4 0 -12.5 -1.5t-11.5 -1.5q-6 -2 -8 6q-2 6 6 8q2 0 11 1.5t14 2.5q32 2 49 4q27 5 49 13q10 4 24 9q6 2 7 2v7v31 q5 100 7 118q1 14 11 65q14 65 33 109q25 57 68 101.5t98 63.5q38 12 59 14q101 10 158 -16q85 -39 110 -148q7 -28 7 -40q0 -10 -8 -53q-17 -83 -57 -141q-36 -52 -109 -112q-14 -12 -15 -13t-9 -25q-5 -12 -5 -13q2 -12 6 -18q0 -1 2 -2l5 -2.5t5 -3.5q5 -4 15.5 -12 t15.5 -12q70 -58 113 -104q80 -85 114 -174q17 -44 24 -100q4 -24 4 -39q0 -12 -5 -54q-9 -73 -26 -119q-27 -75 -76 -120q-33 -31 -70 -41q-5 -1 -32 -4q-45 -3 -92 10q-32 10 -46 23q-16 15 -24 48l-3 12t-3.5 14.5t-2.5 12.5q0 2 -1.5 8.5t-2 12t-0.5 10.5t2.5 10t5 9.5 t3.5 5.5q2 7 9 5t5 -9q-2 -6 -6 -13t-4 -10q-1 -4 4 -27q2 -15 8 -37q7 -29 20 -41q15 -13 40 -20q41 -12 86 -9q22 2 31 4q32 8 63 37q48 45 72 114q16 46 25 115q5 45 5 52q0 12 -4 38q-7 55 -23 97q-32 84 -111 168q-41 45 -112 103l-30 24q-11 7 -15 12q-3 4 -8 19h-48 q-7 0 -7 7t7 7h48q4 10 5 12q0 1 3.5 12t7.5 16q3 4 9.5 9t7.5 6q73 62 107 110q39 55 55 134q7 40 7 51q0 6 -7 36q-23 103 -102 138q-53 24 -149 15q-25 -3 -56 -13q-51 -17 -92 -60.5t-65 -97.5q-20 -45 -32 -105q-10 -52 -11 -64q-2 -20 -7 -116v-31q1 -6 -1 -12v-1 q0 -93 0.5 -279.5t0.5 -279.5v-198v-16l6 -4q12 -8 23 -14q34 -19 68 -25q8 -2 23.5 -2.5t21.5 -1.5q8 -2 6 -8q-2 -8 -8 -7q-5 1 -21 2t-25 3q-42 8 -73 26q-3 2 -7.5 4.5t-8.5 5t-8 5.5q-2 2 -4 3q-47 -42 -115 -47q-14 -1 -42 -1q-20 0 -24 -1q-7 -2 -9 5z" />
<glyph unicode="&#xe0;" horiz-adv-x="812" d="M25 699q-1 17 7 83q7 68 22 114q22 71 64.5 128.5t104.5 87.5q48 23 130 27q91 5 170 -49q16 -11 34 -27q4 -3 9.5 -9t7.5 -8l14 -5q5 -2 15 -6.5t15 -6.5q12 -5 17 -10l11 11l7 7q2 3 3.5 13.5t2.5 14.5q5 18 10 44q0 3 2 10.5t2 10.5q0 7 8 7q7 0 7 -7q0 -5 -2 -13 t-2 -10q-7 -34 -10 -46q-1 -2 -1.5 -8.5t-2 -12.5t-4.5 -10q-1 -2 -10 -11l-14 -14v-10v-565v-12.5v-14.5v-11v-7q2 -2 6 -4.5t6 -3.5q10 -7 21 -11.5t26 -5t24 0t29 2.5t26 3t24.5 2t28.5 3q7 2 9 -6q2 -7 -6 -9q-10 -2 -29 -3t-25 -2q-27 -6 -69 -6t-68 20q-2 1 -8 5 l-11 -16l-20 -35l-15 -32q-4 -7 -10 -4t-3 10l15 32v1l14 25q-10 0 -15 -1t-16 -3.5t-13 -2.5q-3 -1 -11 -2.5t-11 -2.5t-11 -5.5t-13 -6.5q-21 -10 -53 -17q-30 -7 -77 -11q-29 -3 -37 -2q-60 3 -116 29t-97 70q-54 58 -82 138.5t-30 165.5zM40 700q5 -184 108 -294 q85 -90 203 -95q11 0 35 2q50 4 74 10q26 6 51 17q3 1 11 5.5t14 6.5q8 3 24 5q3 1 13 3.5t16 3.5q9 1 27 1l11 16v9v39v565v9q-2 5 -15 12q-5 2 -14.5 6t-14.5 6q-1 0 -7.5 2t-10.5 5t-7 6t-6 6.5t-5 5.5q-16 14 -32 26q-70 49 -161 46q-78 -4 -124 -26q-113 -55 -161 -207 q-16 -52 -22 -111q-7 -67 -7 -80zM242 1562q0 7 8 7q11 0 17 -3q4 -2 6.5 -6l5 -8t3.5 -5q9 -12 29 -36q112 -146 132 -170q5 -5 -1 -11q-5 -5 -11 1q-20 24 -132 170q-2 3 -13 16.5t-16 21.5q-2 2 -4 5t-3.5 5.5t-2.5 2.5l-4 1q-5 1 -7 1q-7 0 -7 8z" />
<glyph unicode="&#xe1;" horiz-adv-x="850" d="M25 699q-1 15 7 83q9 76 26 126q46 136 147 194q57 33 148 37q93 5 170 -48q19 -13 39 -32q2 -2 4.5 -5t4.5 -4.5t3 -2.5q2 -2 14 -6q20 -8 30 -13q14 -7 17 -10l11 11l7 7q1 2 6 26q3 13 9 41q5 23 5 24q0 7 7 7q8 0 8 -8q0 -7 -5 -27q-2 -7 -5 -20.5t-4 -20.5 q-1 -2 -2 -8t-2.5 -11.5t-3.5 -9.5q-1 -2 -10 -11l-14 -14v-10v-564v-36v-10q2 -2 6 -4.5t6 -4.5q10 -7 21 -11t26.5 -4.5t24 0t28.5 2.5t26 3t24.5 2t28.5 3q7 2 9 -6q2 -7 -6 -9q-10 -2 -29 -3t-25 -2q-5 0 -25.5 -3t-30 -3t-26 0.5t-29.5 5t-25 13.5q-1 1 -4 2.5t-5 3.5 l-11 -16l-24 -43l-14 -31q-3 -6 -10 -3q-6 3 -3 10l14 30v1l18 33q-10 0 -15 -1t-15 -3.5t-15 -3.5q-4 -1 -11 -2t-10 -2q-4 -1 -12 -5.5t-12 -6.5q-21 -10 -53 -17q-31 -7 -77 -11q-29 -3 -37 -2q-123 6 -212 98q-41 42 -69 107q-41 92 -44 198zM40 699q3 -103 42 -191 q28 -63 67 -103q86 -89 202 -94q11 0 35 2q50 4 74 10q26 6 51 17q2 1 10.5 6t14.5 7q2 1 22 4q31 7 32 7q9 1 26 1l11 17v4v3.5v2.5v2v36v564v9q-1 4 -15 11q-5 2 -15 6.5t-15 6.5q-1 1 -7.5 3t-9.5 4t-7.5 7.5t-6.5 6.5q-20 18 -37 30q-74 51 -161 46q-86 -3 -140 -35 q-97 -55 -141 -186q-19 -58 -25 -122q-8 -68 -7 -82zM297 1333q9 11 27 31q34 40 100 122q6 8 13.5 17t16 19t13.5 16q2 2 5.5 7t5.5 7q3 5 9 9t22 4q17 2 50 2q8 0 8 -7q0 -8 -8 -8q-33 0 -49 -2q-3 0 -6.5 -0.5t-6 -1t-3.5 -0.5q-2 -2 -4 -5t-5.5 -7.5t-5.5 -6.5 q-7 -8 -21.5 -26t-21.5 -26q-66 -82 -100 -122q-4 -5 -13.5 -16t-13.5 -16q-6 -6 -11 -1q-6 6 -1 11z" />
<glyph unicode="&#xe2;" horiz-adv-x="850" d="M25 699q-1 15 7 83q9 76 26 126q46 136 147 194q57 33 148 37q93 5 170 -48q19 -13 39 -32q2 -2 4.5 -5t4.5 -4.5t3 -2.5q2 -1 12 -5q6 -2 32 -14q14 -7 17 -10l11 11l7 7q1 2 6 26q3 13 9 41q5 23 5 24q0 7 7 7q8 0 8 -8q0 -7 -5 -27q-2 -7 -5 -20.5t-4 -20.5 q-1 -2 -2 -8t-2.5 -11.5t-3.5 -9.5q-1 -2 -10 -11l-14 -14v-10v-564v-36v-10q2 -2 6 -4.5t6 -4.5q10 -7 21 -11t26.5 -4.5t24 0t28.5 2.5t26 3t24.5 2t28.5 3q7 2 9 -6q2 -7 -6 -9q-10 -2 -29 -3t-25 -2q-5 0 -25.5 -3t-30 -3t-26 0.5t-29.5 5t-25 13.5q-1 1 -4 2.5t-5 3.5 l-11 -16l-24 -43l-14 -31q-3 -6 -10 -3q-6 3 -3 10l14 30v1l18 33q-10 0 -15 -1t-15 -3.5t-15 -3.5q-4 -1 -11 -2t-10 -2q-4 -1 -12 -5.5t-12 -6.5q-21 -10 -53 -17q-24 -6 -72 -10q-40 -3 -42 -3q-123 6 -212 98q-41 42 -69 107q-41 92 -44 198zM40 699q3 -103 42 -191 q28 -63 67 -103q86 -89 202 -94q5 0 11.5 0.5t15 1.5t13.5 1q46 4 69 9q26 6 51 17q2 1 10.5 6t14.5 7q2 1 22 4q31 7 32 7q9 1 26 1l11 17v4v3.5v2.5v2v36v564v9q-1 4 -15 11q-6 3 -17 7.5t-15 6.5q-12 4 -15 6q-3 3 -7.5 8t-6.5 6q-20 18 -37 30q-74 51 -161 46 q-86 -3 -140 -35q-97 -55 -141 -186q-19 -58 -25 -122q-8 -68 -7 -82zM139 1316q-5 5 1 11q59 52 123 121q34 37 35 38q19 22 20 23t11 6q4 2 12 4.5t12 4.5q2 6 6 6q6 0 8 -6q1 0 5 -1.5t6 -2.5q16 -6 21 -10q2 -1 19 -22q41 -49 103 -109q9 -9 28 -26.5t28 -26.5 q5 -5 0 -10q-5 -6 -11 0q-8 8 -17.5 17t-21 19.5t-17.5 16.5q-54 53 -104 110q-2 3 -5.5 7t-6 7t-4.5 5l-18 8q-8 1 -13 5l-8 -4t-9 -3.5t-7 -2.5l-8 -4q-4 -3 -10 -11t-8 -10q-11 -13 -35 -39q-64 -69 -124 -122q-5 -5 -11 1z" />
<glyph unicode="&#xe3;" horiz-adv-x="850" d="M25 699q-1 15 7 83q9 76 26 126q46 136 147 194q57 33 148 37q93 5 170 -48q19 -13 39 -32q2 -2 4.5 -5t4.5 -4.5t3 -2.5q2 -2 14 -6q20 -8 30 -13q14 -7 17 -10l11 11l7 7q1 2 6 26q3 13 9 41q5 23 5 24q0 7 7 7q8 0 8 -8q0 -7 -5 -27q-2 -7 -5 -20.5t-4 -20.5 q-1 -2 -2 -8t-2.5 -11.5t-3.5 -9.5q-1 -2 -10 -11l-14 -14v-10v-564v-36v-10q2 -2 6 -4.5t6 -4.5q10 -7 21 -11t26.5 -4.5t24 0t28.5 2.5t26 3t24.5 2t28.5 3q7 2 9 -6q2 -7 -6 -9q-10 -2 -29 -3t-25 -2q-5 0 -25.5 -3t-30 -3t-26 0.5t-29.5 5t-25 13.5q-1 1 -4 2.5t-5 3.5 l-11 -16l-24 -43l-14 -31q-3 -6 -10 -3q-6 3 -3 10l14 30v1l18 33q-10 0 -15 -1t-15 -3.5t-15 -3.5q-4 -1 -11 -2t-10 -2q-4 -1 -12 -5.5t-12 -6.5q-21 -10 -53 -17q-31 -7 -77 -11q-29 -3 -37 -2q-123 6 -212 98q-41 42 -69 107q-41 92 -44 198zM40 699q3 -103 42 -191 q28 -63 67 -103q86 -89 202 -94q11 0 35 2q50 4 74 10q26 6 51 17q2 1 10.5 6t14.5 7q2 1 22 4q31 7 32 7q9 1 26 1l11 17v4v3.5v2.5v2v36v564v9q-1 4 -15 11q-5 2 -15 6.5t-15 6.5q-1 1 -7.5 3t-9.5 4t-7.5 7.5t-6.5 6.5q-20 18 -37 30q-74 51 -161 46q-86 -3 -140 -35 q-97 -55 -141 -186q-19 -58 -25 -122q-8 -68 -7 -82zM113 1364q7 28 24 57q15 23 33 36q18 12 40 17q31 8 41 7q45 -2 109 -40.5t81 -44.5q24 -8 37 -8q11 0 35 6q29 7 42 17q16 11 31 37q16 28 21 50q2 8 9 6q8 -2 6 -9q-5 -23 -23 -55q-14 -25 -36 -41q-16 -11 -46 -19 q-24 -6 -39 -6q-16 0 -42 8q-24 8 -85.5 45t-100.5 39q-8 0 -36 -7q-20 -5 -35 -14q-16 -11 -29 -32q-16 -26 -22 -52q-2 -8 -9 -6q-8 2 -6 9z" />
<glyph unicode="&#xe4;" horiz-adv-x="850" d="M25 699q-1 15 7 83q9 76 26 126q46 136 147 194q57 33 148 37q93 5 170 -48q19 -13 39 -32q2 -2 4.5 -5t4.5 -4.5t3 -2.5q2 -2 14 -6q20 -8 30 -13q14 -7 17 -10l11 11l7 7q1 2 6 26q3 13 9 41q5 23 5 24q0 7 7 7q8 0 8 -8q0 -7 -5 -27q-2 -7 -5 -20.5t-4 -20.5 q-1 -2 -2 -8t-2.5 -11.5t-3.5 -9.5q-1 -2 -10 -11l-14 -14v-10v-564v-36v-10q2 -2 6 -4.5t6 -4.5q10 -7 21 -11t26.5 -4.5t24 0t28.5 2.5t26 3t24.5 2t28.5 3q7 2 9 -6q2 -7 -6 -9q-10 -2 -29 -3t-25 -2q-5 0 -25.5 -3t-30 -3t-26 0.5t-29.5 5t-25 13.5q-1 1 -4 2.5t-5 3.5 l-11 -16l-24 -43l-14 -31q-3 -6 -10 -3q-6 3 -3 10l14 30v1l18 33q-10 0 -15 -1t-15 -3.5t-15 -3.5q-4 -1 -11 -2t-10 -2q-4 -1 -12 -5.5t-12 -6.5q-21 -10 -53 -17q-31 -7 -77 -11q-29 -3 -37 -2q-123 6 -212 98q-41 42 -69 107q-41 92 -44 198zM40 699q3 -103 42 -191 q28 -63 67 -103q86 -89 202 -94q11 0 35 2q50 4 74 10q26 6 51 17q2 1 10.5 6t14.5 7q2 1 22 4q31 7 32 7q9 1 26 1l11 17v4v3.5v2.5v2v36v564v9q-1 4 -15 11q-5 2 -15 6.5t-15 6.5q-1 1 -7.5 3t-9.5 4t-7.5 7.5t-6.5 6.5q-20 18 -37 30q-74 51 -161 46q-86 -3 -140 -35 q-97 -55 -141 -186q-19 -58 -25 -122q-8 -68 -7 -82zM514 1427q0 7 8 7t8 -7t-8 -7t-8 7z" />
<glyph unicode="&#xe5;" horiz-adv-x="850" d="M25 699q-1 15 7 83q9 76 26 126q46 136 147 194q57 33 148 37q93 5 170 -48q19 -13 39 -32q2 -2 4.5 -5t4.5 -4.5t3 -2.5q2 -2 14 -6q20 -8 30 -13q14 -7 17 -10l11 11l7 7q1 2 6 26q3 13 9 41q5 23 5 24q0 7 7 7q8 0 8 -8q0 -7 -5 -27q-2 -7 -5 -20.5t-4 -20.5 q-1 -2 -2 -8t-2.5 -11.5t-3.5 -9.5q-1 -2 -10 -11l-14 -14v-10v-564v-36v-10q2 -2 6 -4.5t6 -4.5q10 -7 21 -11t26.5 -4.5t24 0t28.5 2.5t26 3t24.5 2t28.5 3q7 2 9 -6q2 -7 -6 -9q-10 -2 -29 -3t-25 -2q-5 0 -25.5 -3t-30 -3t-26 0.5t-29.5 5t-25 13.5q-1 1 -4 2.5t-5 3.5 l-11 -16l-24 -43l-14 -31q-3 -6 -10 -3q-6 3 -3 10l14 30v1l18 33q-10 0 -15 -1t-15 -3.5t-15 -3.5q-4 -1 -11 -2t-10 -2q-4 -1 -12 -5.5t-12 -6.5q-21 -10 -53 -17q-31 -7 -77 -11q-29 -3 -37 -2q-123 6 -212 98q-41 42 -69 107q-41 92 -44 198zM40 699q3 -103 42 -191 q28 -63 67 -103q86 -89 202 -94q11 0 35 2q50 4 74 10q26 6 51 17q2 1 10.5 6t14.5 7q2 1 22 4q31 7 32 7q9 1 26 1l11 17v4v3.5v2.5v2v36v564v9q-1 4 -15 11q-5 2 -15 6.5t-15 6.5q-1 1 -7.5 3t-9.5 4t-7.5 7.5t-6.5 6.5q-20 18 -37 30q-74 51 -161 46q-86 -3 -140 -35 q-97 -55 -141 -186q-19 -58 -25 -122q-8 -68 -7 -82zM228 1512q16 31 41 52q24 20 55 26q9 2 29 4q4 1 10 0t7 -1q21 -2 37 -7q24 -8 39 -20q32 -24 47 -59q17 -40 8.5 -85.5t-39.5 -76.5q-15 -15 -32 -25q-21 -12 -45 -15q-56 -7 -92 12q-43 23 -64 65q-31 64 -1 130z M241 1506q-27 -60 1 -117q18 -38 58 -59q32 -17 83 -10q22 3 40 13q15 9 28 22q28 28 36 68.5t-8 77.5q-13 31 -42 53q-17 13 -35 18q-17 5 -33 6q-5 1 -14 1q-18 -2 -28 -4q-27 -6 -48 -23q-27 -22 -38 -46z" />
<glyph unicode="&#xe6;" horiz-adv-x="1193" d="M40 493q0 10 8 47t20 57q39 64 141 104q63 25 148 39q90 15 196 15v24q0 11 2 16v9v28q0 26 2 78q2 29 2 32l-2 2q-2 1 -3 2t-11.5 9t-14.5 14q-3 4 -6 13q-6 16 -9 23q-17 37 -45 66q-87 84 -247 48q-67 -15 -99 -47q-11 -11 -20 -36q-7 -20 -16 -49q-1 -2 -2.5 -10 t-3.5 -13q-2 -7 -9 -5t-5 9q1 3 2.5 11.5t2.5 11.5q5 17 17 51q9 26 23 40q37 37 107 52q170 37 261 -52q27 -26 48 -71q1 -3 9 -23q1 -2 1.5 -4.5t1.5 -4.5l1 -2q2 -3 11.5 -10t11.5 -9q1 0 2 -1l2 -2q17 13 38 24l19 11l6 8q8 14 12 20q14 21 42 49q91 87 235 70 q103 -13 155 -79q17 -22 31 -70q8 -24 8 -36q0 -5 -1 -10.5t-3 -11.5l-3 -9q-5 -24 -13 -40q-17 -35 -56 -59q-46 -29 -142 -47q-84 -15 -199 -24q-10 -1 -21 -1.5t-24.5 -1t-20.5 -0.5h-18h-2q-3 -1 -5.5 -1t-5.5 1q-4 1 -6.5 4t-4.5 6l-3 3q-2 2 -8 7t-9 8v-31 q0 -15 -0.5 -66.5t1.5 -65.5q1 -10 2 -43.5t3 -51.5q0 -3 1 -10.5t1 -11.5v-5l1 -3q1 -1 11 -6q5 -3 14.5 -8.5t14.5 -7.5q15 -7 17 -10q6 -7 15 -19.5t12 -16.5q31 -36 76 -64q58 -36 131 -39q16 -1 66 6q72 10 118 39q33 20 63 54q4 4 11.5 14t12.5 15t11 0t0 -11 q-4 -4 -11.5 -14t-12.5 -15q-35 -37 -67 -56q-51 -31 -123 -41q-50 -7 -68 -6q-74 3 -138 41q-47 28 -80 67q-5 6 -14.5 19t-13.5 18l-12 6q-20 10 -30 16l-10 5q-9 -8 -27 -22q-9 -6 -14 -11q-2 -2 -4.5 -9t-4.5 -10q-16 -26 -26 -38q-60 -74 -155 -85q-130 -16 -207 29 q-48 27 -72 81q-9 21 -14 49q-6 33 -6 35zM55 493q0 -5 5 -33q5 -26 13 -45q19 -46 67 -74q73 -42 197 -27q89 11 145 80q16 20 25 36q1 1 4 9t7 12q2 3 16 13q10 7 28 23q-1 4 -1 8q0 8 -2 22q-2 18 -3 51t-2 44q-1 19 -1 40.5t0.5 47.5t0.5 40q-106 0 -195 -15 q-86 -14 -144 -38q-100 -40 -135 -98q-10 -17 -18 -53q-7 -35 -7 -43zM570 797l26 -26l9 -9h2q2 1 4 1h18l66 3q114 9 197 24q93 17 137 45q35 22 51 53q6 12 12 36q1 3 2.5 9.5t2.5 11t1 8.5q0 1 -8 30q-13 47 -28 66q-49 61 -144 73q-137 17 -224 -66q-17 -16 -39 -47 q-2 -3 -6.5 -9t-6.5 -9q-5 -9 -8 -12q-7 -6 -21 -13q-32 -19 -39 -25q1 -7 -0.5 -18t-1.5 -14q-2 -52 -2 -77v-28v-7z" />
<glyph unicode="&#xe7;" horiz-adv-x="657" d="M38 699q0 30 6 86q12 104 49 178q59 120 164 160q32 12 76 15q30 2 45 1q55 -4 82 -16q55 -25 85 -83q3 -6 13.5 -30.5t18.5 -34.5q5 -5 -1 -10q-5 -5 -11 1q-10 12 -20.5 38t-12.5 30q-28 53 -79 75q-27 11 -76 15q-14 1 -43 -1q-46 -4 -72 -14q-98 -36 -156 -152 q-37 -72 -47 -172q-6 -60 -6 -86q0 -6 0.5 -12.5t1.5 -15t1 -13.5q8 -90 42 -159q54 -111 146 -158q28 -14 56 -21q1 0 4.5 -0.5t6.5 -1.5l6 -2q1 0 6 -5h32q30 1 60 6q49 7 80 23q50 26 98 83q18 21 30 40q4 6 11 2q6 -4 2 -10q-9 -14 -32 -42q-50 -59 -103 -86 q-36 -18 -83 -25q-32 -4 -63 -6h-34l-8 -8q0 -1 -0.5 -3t-1 -5t-0.5 -5q0 -1 -2 -14t-4 -20t-7 -17.5t-6 -13.5t-3 -15q-1 -4 -2.5 -12t-2.5 -12v-3l-1 -3h8h39q2 0 13.5 1t17.5 0q46 -5 72 -41q8 -11 15 -38q3 -15 3 -19q-1 -9 -8 -33q-8 -28 -18 -40q-16 -20 -47 -33 q-64 -29 -146 -13q-12 2 -32.5 8.5t-26.5 8.5q-8 2 -6 9t9 5q10 -2 29.5 -8t29.5 -8q76 -15 137 11q26 12 41 29q9 11 16 35q7 23 7 30q0 2 -1.5 7t-1.5 8q-6 22 -12 32q-23 32 -62 35q-5 1 -15 0t-14 -1h-39q-13 0 -17 3q-36 -23 -39 -26q-5 -5 -11 1q-5 5 1 11q8 8 24 17 t19 11l1 6q1 4 2.5 12.5t2.5 12.5q0 1 0.5 4t1.5 6.5t2 6.5q1 4 6 14.5t6 15.5q1 4 2 9.5t2 12.5t2 11q0 1 0.5 6.5t2.5 9.5q3 6 7 9q-6 2 -10 3q-40 12 -59 22q-97 49 -153 165q-35 71 -43 163q-3 42 -3 43z" />
<glyph unicode="&#xe8;" horiz-adv-x="784" d="M35 679q-1 12 1.5 34t2.5 26q5 53 7 63v6q1 5 2.5 10t5.5 8l2 6q0 4 1 11.5t2 11.5q4 22 7 34q7 30 20 58q33 74 82 118q51 46 107 63q79 25 162 1q20 -5 42 -19q30 -19 46 -36q47 -50 66 -146q6 -35 9 -68q0 -3 1 -9.5t1 -9.5l1 -4q1 -1 4 -3t5 -3q8 -6 20 -16l4.5 -4.5 l4.5 -4.5l2 -1l3 1h6h22h55q4 0 15 1.5t18 2.5q8 0 8 -7t-7 -7q-5 0 -16.5 -2.5t-16.5 -2.5q-19 -1 -56 -1h-22q-10 0 -13 1q-4 1 -7 3.5t-5.5 5l-3.5 3.5q-3 2 -10 7.5t-10 8.5q-1 1 -3 2l-4 2q-18 -21 -30 -26q-15 -7 -50 -7h-419q-10 0 -13 1q-4 2 -8.5 5.5t-8 8 t-4.5 5.5q0 -3 -2 -11q-2 -9 -7 -61q0 -7 -2 -27t-2 -31q3 -114 52 -200q31 -53 67 -85q60 -54 131 -71q30 -7 52 -7q18 0 58 4q82 9 138 37q45 23 101 79q5 5 10 0t0 -10q-58 -58 -105 -82q-60 -31 -142 -39q-38 -4 -60 -4q-21 0 -55 8q-75 17 -138 74q-40 36 -70 88 q-51 87 -54 207zM69 825l4 -4q2 -2 4.5 -5t4.5 -5l4 -4t3 -2h8h419q31 0 43 6q8 4 29 25l-1 4q-1 3 -1 9v9q-2 24 -10 67q-19 93 -61 138q-16 17 -43 34q-17 10 -40 17q-78 22 -153 -1q-54 -17 -101 -59q-48 -43 -78 -112q-13 -29 -20 -56q-1 -4 -2 -9.5t-2 -12.5t-2 -11 t-2.5 -12t-1.5 -11v-3zM188 1568q0 7 8 7q10 0 50 -5h5.5t9 -1t8.5 -3t7.5 -6t6 -9t3.5 -6q8 -11 34 -44q6 -8 82 -106q2 -3 18.5 -23.5t24.5 -31.5q4 -6 -2 -10q-7 -4 -11 2q-7 10 -22.5 28.5t-19.5 24.5q-76 98 -82 106q-21 26 -34 44q-2 2 -4 5t-3.5 5.5t-3 4.5t-2.5 2 q-2 1 -17 3q-40 5 -49 5q-7 0 -7 8z" />
<glyph unicode="&#xe9;" horiz-adv-x="784" d="M35 679q-1 12 1.5 34t2.5 26q5 53 7 63v6q1 5 2.5 10t5.5 8l2 6q0 4 1 11.5t2 11.5q4 22 7 34q7 30 20 58q33 74 82 118q51 46 107 63q79 25 162 1q20 -5 42 -19q30 -19 46 -36q47 -50 66 -146q6 -35 9 -68q0 -3 1 -9.5t1 -9.5l1 -4q1 -1 4 -3t5 -3q8 -6 20 -16l4.5 -4.5 l4.5 -4.5l2 -1l3 1h6h22h55q4 0 15 1.5t18 2.5q8 0 8 -7t-7 -7q-5 0 -16.5 -2.5t-16.5 -2.5q-19 -1 -56 -1h-22q-10 0 -13 1q-4 1 -7 3.5t-5.5 5l-3.5 3.5q-3 2 -10 7.5t-10 8.5q-1 1 -3 2l-4 2q-18 -21 -30 -26q-15 -7 -50 -7h-419q-10 0 -13 1q-4 2 -8.5 5.5t-8 8 t-4.5 5.5q0 -3 -2 -11q-2 -9 -7 -61q0 -7 -2 -27t-2 -31q3 -114 52 -200q31 -53 67 -85q60 -54 131 -71q30 -7 52 -7q18 0 58 4q82 9 138 37q45 23 101 79q5 5 10 0t0 -10q-58 -58 -105 -82q-60 -31 -142 -39q-38 -4 -60 -4q-21 0 -55 8q-75 17 -138 74q-40 36 -70 88 q-51 87 -54 207zM69 825l4 -4q2 -2 4.5 -5t4.5 -5l4 -4t3 -2h8h419q31 0 43 6q8 4 29 25l-1 4q-1 3 -1 9v9q-2 24 -10 67q-19 93 -61 138q-16 17 -43 34q-17 10 -40 17q-78 22 -153 -1q-54 -17 -101 -59q-48 -43 -78 -112q-13 -29 -20 -56q-1 -4 -2 -9.5t-2 -12.5t-2 -11 t-2.5 -12t-1.5 -11v-3zM287 1342l51 61l82 100l37 45l11 14l6 6q3 3 5 3l7 1l16 2l55 2q8 0 8 -7q0 -8 -8 -8l-54 -2l-15 -2l-5 -1l-3 -4l-12 -14l-37 -45l-82 -100l-51 -60q-6 -5 -10 -1q-6 6 -1 10z" />
<glyph unicode="&#xea;" horiz-adv-x="784" d="M35 679q-1 12 1.5 34t2.5 26q4 42 7 63v6q1 5 2.5 10t5.5 8l2 6q0 4 1 11.5t2 11.5q4 22 7 34q7 30 20 58q33 74 82 118q50 45 105 62q80 26 164 2q20 -5 42 -19q30 -19 46 -36q45 -49 66 -147q5 -21 9 -67q0 -3 1 -9.5t1 -9.5l1 -4q1 -1 4 -3t5 -3q8 -6 20 -16l4.5 -4.5 l4.5 -4.5l2 -1l3 1h6h22h55q4 0 15 1.5t18 2.5q8 0 8 -7t-7 -7q-5 0 -16.5 -2.5t-16.5 -2.5q-19 -1 -56 -1h-22q-10 0 -13 1q-4 1 -7 3.5t-5.5 5l-3.5 3.5q-3 2 -10 7.5t-10 8.5q-1 1 -3 2l-4 2q-18 -21 -30 -26q-15 -7 -50 -7h-419q-10 0 -13 1q-4 2 -8.5 5.5t-8 8 t-4.5 5.5q-1 -2 -1.5 -5.5t-0.5 -5.5q-3 -18 -7 -61q0 -7 -2 -27t-2 -31q3 -114 52 -200q31 -53 67 -85q60 -54 131 -71q30 -7 52 -7q18 0 58 4q82 9 138 37q45 23 101 79q5 5 10 0t0 -10q-58 -58 -105 -82q-60 -31 -142 -39q-38 -4 -60 -4q-21 0 -55 8q-75 17 -138 74 q-40 36 -70 88q-51 87 -54 207zM69 825l4 -4q2 -2 4.5 -5t4.5 -5l4 -4t3 -2h8h419q31 0 43 6q8 4 29 25l-1 4q-1 3 -1 9v9q-2 26 -10 66q-20 95 -61 139q-16 17 -43 34q-19 11 -40 17q-81 23 -155 -1q-52 -17 -99 -59q-48 -43 -78 -112q-13 -29 -20 -56q-1 -4 -2 -9.5 t-2 -12.5t-2 -11t-2.5 -12t-1.5 -11v-3zM143 1316q-5 5 0 10l43 41l76 77l38 42l19 22q2 2 3 2l13 6l21 9q0 7 7 7q8 0 8 -8l4 -2q2 -1 7.5 -2.5t10 -3.5t8.5 -5q3 -2 19 -22q41 -49 102 -108l17.5 -17.5t21 -20.5t18.5 -16q6 -6 1 -11q-6 -6 -10 -1q-9 8 -19 17t-21.5 20.5 l-17.5 17.5q-54 53 -104 110q-2 3 -5.5 7t-5.5 7t-4 4q-1 1 -24 11q-3 0 -6 2l-22 -9l-11 -5l-18 -21l-39 -43l-77 -77l-43 -40q-5 -5 -10 0z" />
<glyph unicode="&#xeb;" horiz-adv-x="784" d="M35 679q-1 12 1.5 34t2.5 26q5 53 7 63v6q1 5 2.5 10t5.5 8l2 6q0 4 1 11.5t2 11.5q4 22 7 34q7 30 20 58q33 74 82 118q51 46 107 63q79 25 162 1q20 -5 42 -19q30 -19 46 -36q47 -50 66 -146q6 -35 9 -68q0 -3 1 -9.5t1 -9.5l1 -4q1 -1 4 -3t5 -3q8 -6 20 -16l4.5 -4.5 l4.5 -4.5l2 -1l3 1h6h22h55q4 0 15 1.5t18 2.5q8 0 8 -7t-7 -7q-5 0 -16.5 -2.5t-16.5 -2.5q-19 -1 -56 -1h-22q-10 0 -13 1q-4 1 -7 3.5t-5.5 5l-3.5 3.5q-3 2 -10 7.5t-10 8.5q-1 1 -3 2l-4 2q-18 -21 -30 -26q-15 -7 -50 -7h-419q-10 0 -13 1q-4 2 -8.5 5.5t-8 8 t-4.5 5.5q0 -3 -2 -11q-2 -9 -7 -61q0 -7 -2 -27t-2 -31q3 -114 52 -200q31 -53 67 -85q60 -54 131 -71q30 -7 52 -7q18 0 58 4q82 9 138 37q45 23 101 79q5 5 10 0t0 -10q-58 -58 -105 -82q-60 -31 -142 -39q-38 -4 -60 -4q-21 0 -55 8q-75 17 -138 74q-40 36 -70 88 q-51 87 -54 207zM69 825l4 -4q2 -2 4.5 -5t4.5 -5l4 -4t3 -2h8h419q31 0 43 6q8 4 29 25l-1 4q-1 3 -1 9v9q-2 24 -10 67q-19 93 -61 138q-16 17 -43 34q-17 10 -40 17q-78 22 -153 -1q-54 -17 -101 -59q-48 -43 -78 -112q-13 -29 -20 -56q-1 -4 -2 -9.5t-2 -12.5t-2 -11 t-2.5 -12t-1.5 -11v-3zM186 1427q0 7 7 7h1q7 0 7 -7t-7 -7h-1q-7 0 -7 7z" />
<glyph unicode="&#xec;" horiz-adv-x="462" d="M17 1070q0 7 7 7q4 0 13 1.5t10 1.5q8 1 24.5 2.5t24.5 2.5q50 6 80 -10q14 -6 24 -15q8 -4 11 -10q2 -4 2 -18v-448v-33v-35.5t0.5 -32t2.5 -35t5.5 -31t8.5 -32.5q16 -48 49 -58q5 -2 19 0q10 1 35 5q51 10 62 13q32 10 65 33q16 10 22 16q5 5 10 0t0 -10 q-16 -14 -24 -19q-35 -24 -68 -34q-13 -4 -64 -14q-23 -4 -37 -5q-17 -2 -24 0q-41 13 -59 68q-5 16 -9 34.5t-5.5 32.5t-2.5 36t-1 32.5v36v32.5v448v10q-3 3 -7 6q-14 10 -21 14q-24 13 -72 8q-8 -1 -25 -2.5t-25 -2.5q-14 -2 -23 -2q-8 0 -8 7zM23 1566q0 7 8 7 q14 0 38 -4q12 0 18 -4q4 -3 7 -7t6 -8.5t4 -5.5l39 -51q14 -18 42 -54.5t42 -54.5q3 -3 16 -19t19 -25q4 -6 -2 -10q-7 -4 -11 2q-5 7 -17 21t-17 21q-56 72 -84 109l-39 51q-12 16 -14 18q-2 0 -12 2q-30 5 -36 5q-7 0 -7 7z" />
<glyph unicode="&#xed;" horiz-adv-x="511" d="M30 1070q0 8 7 8q5 0 23 2q8 1 22.5 2.5t21.5 1.5q40 3 41 3q28 -1 54 -18q23 -15 25 -19l2 -13v-37v-359q0 -134 1 -160q2 -58 16 -98q12 -33 33 -48q11 -8 20 -9q8 -1 32 3q53 7 89 20q44 17 79 46q4 5 10 -1q4 -4 -1 -10q-46 -37 -83 -50q-33 -12 -92 -20 q-34 -3 -37 -3q-11 1 -25 11q-26 18 -39 57q-15 46 -17 102q-1 27 -1 160v359v35v7q-1 2 -20 15q-21 13 -46 15q-5 0 -11.5 -0.5t-15 -1.5t-13.5 -1q-8 -1 -22.5 -2.5t-21.5 -1.5q-21 -3 -24 -3q-7 0 -7 8zM125 1343q67 76 139 168q11 14 33 40q0 1 3 5.5t6 8t7 5.5 q6 3 22 3q8 0 8 -6q0 -8 -6 -8q-14 0 -16 -2q-1 0 -3 -2.5t-4.5 -6.5t-4.5 -6q-6 -6 -17 -19.5t-16 -20.5q-92 -114 -140 -169q-6 -5 -10 -1q-6 6 -1 11z" />
<glyph unicode="&#xee;" horiz-adv-x="534" d="M0 1316q-5 5 0 10q17 17 51 49q42 40 96 100q4 4 11 11.5t10 11.5q5 7 11 12q2 1 21 9q1 0 4.5 2.5t7.5 4t8 1.5t7.5 -1.5t6.5 -3.5t4 -2q16 -6 21 -10q4 -3 10 -12q4 -5 12.5 -14.5t9.5 -10.5q58 -63 75 -79q12 -11 36 -33.5t35 -34.5q5 -5 0 -10q-5 -6 -11 0 q-13 13 -38 36t-33 31q-15 15 -41 43t-34 36t-22 26q-2 2 -4.5 5.5t-3.5 4.5l-18 8q-3 1 -5.5 2.5t-4.5 2.5l-2 1l-14 -7q-3 -1 -10 -3t-9 -4q-1 0 -3 -3.5t-4 -5.5q-3 -4 -11 -12.5t-11 -12.5q-64 -68 -96 -100q-9 -9 -26.5 -24.5t-25.5 -23.5q-5 -5 -10 0zM52 1070 q0 8 7 8q5 0 23 2q8 1 22.5 2.5t21.5 1.5q40 3 42 3q28 -1 54 -18q21 -14 24 -19l2 -13v-37v-359q0 -107 2 -160q2 -58 16 -98q12 -33 33 -48q12 -8 19 -9q8 -1 32 3q53 7 89 20q44 17 79 46q5 5 11 -1q5 -4 -1 -10q-46 -37 -83 -50q-33 -12 -92 -20q-34 -3 -37 -3 q-12 1 -26 11q-25 17 -38 57q-15 46 -17 102q-2 54 -2 160v359v35v7q-1 2 -20 15q-21 13 -46 15q-5 0 -11.5 -0.5t-14.5 -1.5t-13 -1q-8 -1 -22.5 -2.5t-21.5 -1.5q-21 -3 -24 -3q-8 0 -8 8z" />
<glyph unicode="&#xef;" horiz-adv-x="482" d="M0 1070q0 8 8 8q5 0 23 2q8 1 22.5 2.5t21.5 1.5q40 3 41 3q28 -1 54 -18q23 -15 25 -19l2 -13v-37v-359q0 -134 1 -160q2 -58 16 -98q12 -33 33 -48q11 -8 20 -9q8 -1 32 3q53 7 89 20q44 17 79 46q5 5 10 -1q5 -4 -1 -10q-46 -37 -83 -50q-33 -12 -92 -20 q-34 -3 -37 -3q-11 1 -25 11q-26 18 -39 57q-15 46 -17 102q-1 27 -1 160v359v35v7q-1 2 -20 15q-21 13 -46 15q-5 0 -11.5 -0.5t-15 -1.5t-13.5 -1q-8 -1 -22.5 -2.5t-21.5 -1.5q-21 -3 -24 -3q-8 0 -8 8zM2 1427q0 7 8 7t8 -7t-8 -7t-8 7zM324 1427v1q0 7 7 7t7 -7v-1 q0 -7 -7 -7t-7 7z" />
<glyph unicode="&#xf0;" horiz-adv-x="738" d="M35 702q0 2 3 44q3 36 9 71q13 64 16 73q27 92 87 156q50 54 122.5 76.5t149.5 13.5q24 -3 54 -11q3 -1 11.5 -4.5t13.5 -4.5q6 -2 18 -4l18 -3q4 -1 14 -3t14 -3l4 -2l3 -1l5 5l13 13l-3 12q-2 6 -4.5 19t-3.5 20l-5 20q-8 18 -48 82q-46 73 -133 170q-4 4 -5.5 9t-2 10 t-1.5 6q-1 2 -8 9h-5h-4.5h-7h-6.5l-22 -23q-1 -1 -3 -1l-5 -3l-15 -10l-62 -41l-68 -46l-33 -22q-7 -4 -11 2q-4 7 2 11l33 22l68 45l63 42l15 10l1 1l5 2l19 19l-1 1q-10 10 -11 12q-2 4 -4 10t-3 7t-18 16q-68 60 -139 108q-6 4 -2 11q4 6 10 2q84 -59 141 -110l8 -7 q8 -7 12 -12q3 -4 4.5 -10t2.5 -7l9 -9l5 -5h17h4l3 2l4 4t5 4.5t5 5t4 4.5q0 3 3 7t9 7q17 12 51.5 35t51.5 34q54 35 59 39q6 4 10 -1q2 -2 1.5 -6t-2.5 -5q-11 -9 -34 -23.5t-25 -16.5q-17 -12 -51.5 -35t-51.5 -34l-6 -4q-1 -3 -4 -7q-3 -3 -8 -7.5t-7 -6.5l-1 -1 q-1 -1 -1 -2q5 -5 8 -11q3 -5 4.5 -12.5t2.5 -8.5q86 -97 134 -171q39 -62 49 -85q2 -3 5 -23q2 -6 5 -18.5t4 -19.5q2 -12 3 -15l4 -4t5 -6q23 -31 29 -44q2 -6 5 -16t4 -12q6 -18 22 -82q13 -57 20 -130q4 -42 4 -65q0 -19 -7 -84q-26 -246 -163 -336q-32 -20 -50 -27 q-46 -18 -133 -22q-35 -1 -73 12q-111 38 -175 158q-59 107 -62 241zM50 702q3 -128 60 -234q62 -115 167 -150q40 -13 68 -12q84 4 127 21q23 10 47 26q133 88 158 324q6 56 6 83q0 22 -4 64q-7 77 -19 127q-16 64 -22 82q-4 15 -9 27q-5 10 -27 39l-5 5l-10 -10 q-7 -7 -11 -8t-7 -0.5t-5 1.5l-3 1l-27 6q-8 1 -37 8q-5 1 -13.5 4.5t-12.5 4.5q-21 6 -51 10q-73 9 -142.5 -12.5t-116.5 -73.5q-56 -61 -84 -150q-1 -2 -15 -71q-6 -34 -9 -69q0 -5 -1 -14t-1.5 -16t-0.5 -13z" />
<glyph unicode="&#xf1;" horiz-adv-x="956" d="M19 1065q-2 7 6 9q15 2 87 10q50 5 72 -2q14 -3 40 -21l2 4q2 3 6.5 9.5t6.5 10.5q12 18 32 56q3 6 10 3q6 -3 3 -10q-20 -38 -32 -57q-2 -4 -6.5 -10.5t-6.5 -9.5q-1 -2 -2 -3.5t-2 -3.5l-1 -1v-14q0 -6 0.5 -20t0.5 -21v-33q21 21 26 25q6 5 18 8q5 2 20 6t22 7l10 10 q5 4 15.5 13.5t15.5 14.5q58 49 108 66q27 9 66 14q42 5 55 5q57 -2 103 -41q65 -54 73 -184q3 -44 3 -176v-354v-9l2 -2q3 -2 5 -4q8 -8 24 -18q28 -17 88 -21q32 -2 46 0q7 2 9 -6q2 -7 -6 -9q-18 -2 -51 0q-62 4 -94 23q-18 12 -26 19l-4 4l-39 -39l-21 -23q-5 -6 -11 0 t0 11l21 23l42 41v10v354q0 131 -3 175q-8 123 -68 173q-43 36 -93 38q-22 0 -52 -5q-44 -6 -64 -13q-50 -17 -104 -64q-5 -5 -14.5 -14t-14.5 -13q-8 -8 -15 -12q-9 -5 -43 -15l-14 -5q-4 -3 -25 -24q-2 -6 -7 -9v-567v-8q4 -5 23 -19q19 -13 46 -19.5t41.5 -7t53.5 -0.5 q8 0 8 -8q0 -7 -8 -7q-38 0 -54 0.5t-45.5 7.5t-50.5 22q-15 10 -22 17l-31 -31l-28 -30q-5 -5 -11 0t0 11l28 30l34 33v5l1 4v568q-3 2 -3.5 6t0.5 7v3v36q0 6 -0.5 20t-0.5 21q0 1 -0.5 5t-0.5 7q-24 17 -39 21q-18 5 -65 1q-74 -8 -87 -10q-6 -2 -8 6zM267 1366 q1 2 2.5 8.5t3.5 10.5q12 34 31 55q24 28 73 37q16 4 27 4q26 -1 59 -14q18 -7 74.5 -41.5t91.5 -36.5q9 -1 39 6q25 6 33 11q30 18 49 64q2 4 5 14t6 15q4 7 10 4q7 -4 4 -10q-2 -5 -6 -15.5t-5 -13.5q-23 -52 -55 -71q-11 -7 -37 -13q-30 -7 -44 -6q-40 3 -99.5 39 t-70.5 40q-28 12 -54 13q-7 0 -25 -4q-44 -8 -63 -31q-17 -20 -29 -51l-7 -21q-3 -6 -10 -3q-6 3 -3 10z" />
<glyph unicode="&#xf2;" horiz-adv-x="808" d="M35 722q0 10 5 55q16 157 113 258q73 77 172 96q15 3 40.5 4.5t33.5 2.5q16 2 28 0q32 -2 47 -4q66 -9 124 -44q97 -59 139 -172q24 -62 32 -145q4 -30 4 -48q0 -20 -4 -54q-10 -101 -49 -181q-60 -124 -169 -167q-36 -15 -83 -22q-115 -14 -197 19q-70 27 -122.5 86 t-80.5 134q-23 58 -29 127q-4 38 -4 55zM50 722q0 -15 4 -53q6 -66 28 -124q27 -72 77.5 -128.5t117.5 -82.5q82 -32 190 -18q41 6 78 21q103 42 161 160q39 78 48 175q4 36 4 53q0 15 -4 47q-8 79 -31 141q-40 108 -133 164q-53 33 -119 42q-17 2 -45 4q-14 2 -25 0 q-8 -1 -34 -2.5t-39 -4.5q-96 -20 -164 -91q-93 -97 -109 -250q-5 -45 -5 -53zM228 1568q0 8 8 8q23 0 65 -6h7.5t11 -1t9.5 -3t6 -7l1 -1q2 -2 5 -5.5t4 -5.5q8 -11 34 -44q14 -18 41.5 -54t41.5 -54q2 -3 18.5 -23.5t24.5 -31.5q4 -6 -2 -10t-10 2q-7 10 -22 28t-21 25 q-14 18 -41.5 54t-41.5 54q-21 26 -34 44l-9 12l-2 4q-1 0 -24 3q-35 5 -62 5q-8 0 -8 7z" />
<glyph unicode="&#xf3;" horiz-adv-x="808" d="M35 722q0 10 5 55q16 157 113 258q73 77 172 96q15 3 40.5 4.5t33.5 2.5q16 2 28 0q32 -2 47 -4q66 -9 124 -44q97 -59 139 -172q24 -62 32 -145q4 -30 4 -48q0 -20 -4 -54q-10 -101 -49 -181q-60 -124 -169 -167q-36 -15 -83 -22q-115 -14 -197 19q-70 27 -122.5 86 t-80.5 134q-23 58 -29 127q-4 38 -4 55zM50 722q0 -15 4 -53q6 -66 28 -124q27 -72 77.5 -128.5t117.5 -82.5q82 -32 190 -18q41 6 78 21q103 42 161 160q39 78 48 175q4 36 4 53q0 15 -4 47q-8 79 -31 141q-40 108 -133 164q-53 33 -119 42q-17 2 -45 4q-14 2 -25 0 q-8 -1 -34 -2.5t-39 -4.5q-96 -20 -164 -91q-93 -97 -109 -250q-5 -45 -5 -53zM316.5 1336q-0.5 4 1.5 6q6 8 18.5 22.5t13.5 15.5q15 19 46.5 57.5t47.5 57.5q7 9 21.5 26t21.5 26q1 1 7.5 9.5t11.5 12.5q6 4 20 4q22 2 34 2q7 0 7 -7q0 -8 -7 -8q-11 0 -33 -2 q-11 0 -12 -1q-2 -2 -8 -9.5t-8 -10.5q-7 -8 -21.5 -26t-21.5 -26q-15 -19 -46.5 -57.5t-47.5 -57.5q-4 -4 -15.5 -17.5t-17.5 -20.5q-4 -5 -10 -1q-2 1 -2.5 5z" />
<glyph unicode="&#xf4;" horiz-adv-x="808" d="M35 722q0 12 5 59q6 50 19 94q29 94 97 163q72 73 169 93q15 3 40.5 4.5t33.5 2.5q16 2 28 0q32 -2 47 -4q66 -9 124 -44q97 -59 139 -172q24 -62 32 -145q4 -30 4 -48q0 -11 -5 -59q-10 -96 -46 -171q-63 -129 -172 -172q-43 -16 -82 -22q-115 -14 -197 19 q-70 27 -122.5 86t-80.5 134q-23 58 -29 127q-4 38 -4 55zM50 722q0 -15 4 -53q6 -66 28 -124q27 -72 77.5 -128.5t117.5 -82.5q82 -32 190 -18q35 4 78 21q103 42 164 165q34 71 44 165q5 50 5 58q0 15 -4 47q-8 79 -31 141q-40 108 -133 164q-53 33 -119 42q-17 2 -45 4 q-14 2 -25 0q-8 -1 -34 -2.5t-39 -4.5q-93 -18 -161 -88q-65 -67 -93 -158q-13 -42 -19 -91q-5 -47 -5 -57zM187 1316q-5 5 0 10q10 10 30.5 29.5t30.5 29.5q17 17 48 49.5t41 43.5q3 4 9.5 10.5t9.5 10.5l3 5q3 4 6 6q1 0 22 9q1 0 4.5 2.5t8 4t8.5 1.5q4 -1 19 -8 q15 -6 19 -9q3 -2 6 -7l4 -5q4 -5 12.5 -15t13.5 -15q50 -55 98 -100q4 -3 19 -18.5t24 -22.5q6 -6 1 -11q-6 -6 -10 -1q-7 6 -15 13t-16.5 16t-13.5 13q-51 48 -98 101q-5 5 -13 15t-13 15q-2 2 -4.5 6t-3.5 4q-1 1 -4 2t-6.5 2.5t-6.5 2.5l-14 7l-2 -1l-5 -2.5t-6 -2.5 q-2 -1 -6.5 -2.5t-7.5 -3l-5 -2.5q-4 -4 -7 -8q-2 -2 -8.5 -10.5t-10.5 -12.5q-8 -8 -39.5 -42t-49.5 -51q-10 -10 -31 -29t-31 -29q-5 -5 -10 0z" />
<glyph unicode="&#xf5;" horiz-adv-x="808" d="M35 722q0 10 5 55q16 157 113 258q73 77 172 96q15 3 40.5 4.5t33.5 2.5q16 2 28 0q32 -2 47 -4q66 -9 124 -44q97 -59 139 -172q24 -62 32 -145q4 -30 4 -48q0 -20 -4 -54q-10 -101 -49 -181q-60 -124 -169 -167q-36 -15 -83 -22q-115 -14 -197 19q-70 27 -122.5 86 t-80.5 134q-23 58 -29 127q-4 38 -4 55zM50 722q0 -15 4 -53q6 -66 28 -124q27 -72 77.5 -128.5t117.5 -82.5q82 -32 190 -18q41 6 78 21q103 42 161 160q39 78 48 175q4 36 4 53q0 15 -4 47q-8 79 -31 141q-40 108 -133 164q-53 33 -119 42q-17 2 -45 4q-14 2 -25 0 q-8 -1 -34 -2.5t-39 -4.5q-96 -20 -164 -91q-93 -97 -109 -250q-5 -45 -5 -53zM148 1364q2 11 14 36q15 33 34 50q17 15 50 24q21 6 38 7q16 1 45 -8q28 -9 87 -45t95 -39q9 -1 39 6q25 5 39 15q16 12 29 33q17 29 24 55q2 8 9 6q8 -2 6 -9q-10 -32 -26 -59q-16 -25 -34 -38 t-44 -18q-28 -7 -44 -6q-42 4 -102 41t-83 44q-21 7 -40 7q-10 0 -34 -6q-28 -7 -45 -21q-16 -14 -30 -45q-7 -16 -12 -33q-2 -8 -9 -6q-8 2 -6 9z" />
<glyph unicode="&#xf6;" horiz-adv-x="808" d="M35 722q0 10 5 55q16 157 113 258q73 77 172 96q15 3 40.5 4.5t33.5 2.5q16 2 28 0q32 -2 47 -4q66 -9 124 -44q97 -59 139 -172q24 -62 32 -145q4 -30 4 -48q0 -20 -4 -54q-10 -101 -49 -181q-60 -124 -169 -167q-36 -15 -83 -22q-115 -14 -197 19q-70 27 -122.5 86 t-80.5 134q-23 58 -29 127q-4 38 -4 55zM50 722q0 -15 4 -53q6 -66 28 -124q27 -72 77.5 -128.5t117.5 -82.5q82 -32 190 -18q41 6 78 21q103 42 161 160q39 78 48 175q4 36 4 53q0 15 -4 47q-8 79 -31 141q-40 108 -133 164q-53 33 -119 42q-17 2 -45 4q-14 2 -25 0 q-8 -1 -34 -2.5t-39 -4.5q-96 -20 -164 -91q-93 -97 -109 -250q-5 -45 -5 -53zM240 1427v1q0 7 7 7t7 -7v-1q0 -7 -7 -7t-7 7zM560 1427q0 7 8 7t8 -7t-8 -7t-8 7z" />
<glyph unicode="&#xf7;" horiz-adv-x="843" d="M68 748q0 7 7 7h693q8 0 8 -7q0 -8 -8 -8h-693q-7 0 -7 8zM418 1012q0 8 7 8h1q7 0 7 -8t-7 -8h-1q-7 0 -7 8z" />
<glyph unicode="&#xf8;" horiz-adv-x="786" d="M37 289l49 60l23 28l38 38v9v21l-7 7h-3q-3 1 -7 3t-7 6q-5 7 -19 35q-26 52 -37 100q-13 52 -14 102q-1 22 6 85q21 198 134 293q48 41 111 56q33 8 87 8q63 0 109 -19q41 -16 79 -47q4 -4 14 -14.5t16 -14.5l1 -1q2 0 4.5 -1.5t5.5 -3.5q11 -8 15 -14l7 7l30 30 q11 11 32.5 39t34.5 42q5 5 10 0t0 -11q-12 -13 -33.5 -41t-32.5 -40q-6 -6 -16.5 -16t-13.5 -13l-11 -11v-5v-22v-2q1 -2 1 -4l6 -6h3q3 -1 7 -3t6 -5q5 -6 19 -43q21 -50 33 -118q9 -49 10 -85q0 -13 -2 -35q-4 -40 -7 -60q-23 -169 -102 -252q-22 -22 -52 -41 q-28 -18 -53 -26q-31 -10 -81 -14q-45 -3 -55 -2q-89 6 -164 68q-27 24 -28 25l-4 1q-4 2 -7 4l-15 15q-1 0 -2 1l-35 -35l-22 -28l-50 -60q-6 -5 -10 -1q-6 6 -1 11zM68 698q1 -39 14 -98q13 -53 36 -98q14 -28 17 -32l2 -1q2 -1 4.5 -2t5.5 -2q6 -4 8 -6l17 17q1 1 3 3.5 t4 4.5t5 4q6 4 15 6.5t10 3.5q7 7 18.5 22t15.5 20l69 84l168 204q11 14 42 52t48 58q4 5 10.5 7.5t12.5 4t8 2.5l10 10l5.5 5.5t6.5 6t5 5.5v1q-1 2 -1 4v22v5l-16 16l-2 1q-2 0 -4.5 1.5t-5.5 3.5q-6 5 -15.5 15t-14.5 14q-32 27 -75 45q-47 19 -103 19q-48 0 -84 -8 q-56 -13 -105 -54q-108 -91 -128 -282q-7 -63 -6 -84zM162 416l5 -5q10 -10 13 -12l2 -1q3 -1 5.5 -2t4.5 -3q6 -4 15 -13t13 -12q70 -59 156 -65q8 0 53 2q49 4 78 13q24 9 49 24q32 19 50 39q74 77 97 244q3 20 7 60q2 22 2 32q-1 36 -10 83q-12 70 -31 116q-15 34 -18 39 q-1 0 -11 4q-3 1 -7 5q-3 -3 -7.5 -7t-6.5 -6q-9 -9 -12 -11q-6 -4 -16 -7t-12 -5q-11 -12 -89 -109q-28 -34 -84.5 -102.5t-84.5 -102.5l-68 -83q-29 -37 -36 -44q-5 -5 -15 -8t-11 -4q-3 -2 -11 -10l-20 -20v-21v-8z" />
<glyph unicode="&#xf9;" horiz-adv-x="970" d="M21 1125q3 6 10 3q2 -2 8 -2q4 0 14 0.5t16 -0.5h12t13 -1q59 -4 93 -25q8 -5 22 -17l4 -2q18 16 29 22q21 12 42 16.5t58 6t42 1.5q8 0 8 -6q0 -8 -7 -8q-11 -1 -35 -2t-37 -2t-31.5 -6t-32.5 -13q-15 -9 -29 -23v-11v-348q0 -121 4 -181q2 -26 4 -40q9 -59 26 -99 t57 -56q22 -9 45 -11q12 -1 57 4q52 6 76 14q46 15 87 45q34 26 60 52q2 2 10.5 12t14.5 15q4 4 18 7q24 8 34 13l3 2l4 4l17 17q2 2 5.5 5t5.5 5t2 3v7v526v14q-2 3 -5 6l-15 12q-36 26 -96 26q-6 0 -18 0.5t-17 0.5q-16 0 -24 5q-6 4 -2 10t11 2q3 -2 15 -2h35 q61 0 104 -30q4 -2 9.5 -7.5t6.5 -5.5l3 -3q43 40 112 45q11 1 34.5 1t36.5 2q6 2 8 -6q2 -7 -6 -9q-14 -2 -38 -2t-34 -1q-65 -5 -105 -43v-15v-526v-9q2 -3 2 -14v-24q0 -11 0.5 -33t0.5 -33v-25v-5q4 -2 6 -4q13 -10 25 -15q19 -9 61 -5q50 6 76 8q8 0 8 -7q0 -8 -6 -8 q-25 -2 -77 -8q-47 -4 -69 6q-17 9 -28 17q0 1 -1 1q-4 -6 -12.5 -20t-12.5 -21q-18 -34 -22 -38q-6 -5 -10 -1q-6 6 -1 11q2 2 20 36q5 9 15.5 25.5t12.5 20.5v6v26q0 11 -0.5 33t-0.5 33v21l-4 -4l-17 -17q-9 -9 -11 -10q-5 -3 -11.5 -5t-13.5 -4.5t-11 -3.5 q-12 -4 -14 -5q-5 -4 -13 -13t-11 -12q-33 -33 -62 -54q-44 -33 -91 -47q-31 -9 -79 -15q-45 -5 -60 -4q-21 1 -48 12q-24 10 -41.5 28t-27.5 44t-15 45.5t-9 48.5q-2 14 -4 42q-4 61 -4 182v348v10l-1 2q-1 1 -2.5 2t-2.5 2q-10 10 -19 15q-32 19 -87 23h-12t-13 1 q-4 0 -14.5 -0.5t-16.5 0.5q-7 0 -13 3q-7 3 -3 11zM336 1561q2 8 9 6q5 -1 9 -4.5t6 -8.5l3 -4q5 -7 15.5 -21t16.5 -21q16 -20 48 -61.5t48 -62.5q26 -33 34 -44q4 -6 -2 -10t-10 2q-5 7 -17 21t-17 21q-16 20 -48 61.5t-48 62.5q-6 7 -16.5 21t-15.5 21l-9 12q-8 3 -6 9z " />
<glyph unicode="&#xfa;" horiz-adv-x="970" d="M21 1125q3 6 10 3q2 -2 8 -2q4 0 14 0.5t16 -0.5h12t13 -1q59 -4 93 -25q8 -5 22 -17l4 -2q18 16 29 22q21 12 42 16.5t58 6t42 1.5q8 0 8 -6q0 -8 -7 -8q-11 -1 -35 -2t-37 -2t-31.5 -6t-32.5 -13q-15 -9 -29 -23v-11v-348q0 -121 4 -181q2 -26 4 -40q9 -59 26 -99 t57 -56q22 -9 45 -11q12 -1 57 4q52 6 76 14q46 15 87 45q34 26 60 52q2 2 10.5 12t14.5 15q4 4 18 7q24 8 34 13l3 2l4 4l17 17q2 2 5.5 5t5.5 5t2 3v7v526v14q-2 3 -5 6l-15 12q-36 26 -96 26q-6 0 -18 0.5t-17 0.5q-16 0 -24 5q-6 4 -2 10t11 2q3 -2 15 -2h35 q61 0 104 -30q4 -2 9.5 -7.5t6.5 -5.5l3 -3q43 40 112 45q11 1 34.5 1t36.5 2q6 2 8 -6q2 -7 -6 -9q-14 -2 -38 -2t-34 -1q-65 -5 -105 -43v-15v-526v-9q2 -3 2 -14v-24q0 -11 0.5 -33t0.5 -33v-25v-5q4 -2 6 -4q13 -10 25 -15q19 -9 61 -5q50 6 76 8q8 0 8 -7q0 -8 -6 -8 q-25 -2 -77 -8q-47 -4 -69 6q-17 9 -28 17q0 1 -1 1q-4 -6 -12.5 -20t-12.5 -21q-18 -34 -22 -38q-6 -5 -10 -1q-6 6 -1 11q2 2 20 36q5 9 15.5 25.5t12.5 20.5v6v26q0 11 -0.5 33t-0.5 33v21l-4 -4l-17 -17q-9 -9 -11 -10q-5 -3 -11.5 -5t-13.5 -4.5t-11 -3.5 q-12 -4 -14 -5q-5 -4 -13 -13t-11 -12q-33 -33 -62 -54q-44 -33 -91 -47q-31 -9 -79 -15q-45 -5 -60 -4q-21 1 -48 12q-24 10 -41.5 28t-27.5 44t-15 45.5t-9 48.5q-2 14 -4 42q-4 61 -4 182v348v10l-1 2q-1 1 -2.5 2t-2.5 2q-10 10 -19 15q-32 19 -87 23h-12t-13 1 q-4 0 -14.5 -0.5t-16.5 0.5q-7 0 -13 3q-7 3 -3 11zM404 1343q60 69 129 155q7 8 20.5 25t20.5 26q2 2 5.5 6.5t5.5 6.5l1 1l6 7q7 4 25 4q34 2 52 2q7 0 7 -8q0 -7 -7 -7q-17 0 -51 -2q-14 0 -18 -2q-2 -2 -4 -5q-9 -12 -10 -13q-14 -16 -42 -50q-63 -79 -129 -156 q-5 -5 -10 -1q-6 6 -1 11z" />
<glyph unicode="&#xfb;" horiz-adv-x="970" d="M21 1125q3 6 10 3q2 -2 8 -2q4 0 14 0.5t16 -0.5h12t13 -1q59 -4 93 -25q8 -5 22 -17l4 -2q18 16 29 22q21 12 42 16.5t58 6t42 1.5q8 0 8 -6q0 -8 -7 -8q-11 -1 -35 -2t-37 -2t-31.5 -6t-32.5 -13q-15 -9 -29 -23v-11v-348q0 -121 4 -181q2 -26 4 -40q9 -59 26 -99 t57 -56q22 -9 45 -11q12 -1 57 4q52 6 76 14q46 15 87 45q34 26 60 52q2 2 10.5 12t14.5 15q4 4 18 7q24 8 34 13l3 2l4 4l17 17q2 2 5.5 5t5.5 5t2 3v7v526v14q-2 3 -5 6l-15 12q-36 26 -96 26q-6 0 -18 0.5t-17 0.5q-16 0 -24 5q-6 4 -2 10t11 2q3 -2 15 -2h35 q61 0 104 -30q4 -2 9.5 -7.5t6.5 -5.5l3 -3q43 40 112 45q11 1 34.5 1t36.5 2q6 2 8 -6q2 -7 -6 -9q-14 -2 -38 -2t-34 -1q-65 -5 -105 -43v-15v-526v-9q2 -3 2 -14v-24q0 -11 0.5 -33t0.5 -33v-25v-5q4 -2 6 -4q13 -10 25 -15q19 -9 61 -5q50 6 76 8q8 0 8 -7q0 -8 -6 -8 q-25 -2 -77 -8q-47 -4 -69 6q-17 9 -28 17q0 1 -1 1q-4 -6 -12.5 -20t-12.5 -21q-18 -34 -22 -38q-6 -5 -10 -1q-6 6 -1 11q2 2 20 36q5 9 15.5 25.5t12.5 20.5v6v26q0 11 -0.5 33t-0.5 33v21l-4 -4l-17 -17q-9 -9 -11 -10q-5 -3 -11.5 -5t-13.5 -4.5t-11 -3.5 q-12 -4 -14 -5q-5 -4 -13 -13t-11 -12q-33 -33 -62 -54q-44 -33 -91 -47q-31 -9 -79 -15q-45 -5 -60 -4q-21 1 -48 12q-24 10 -41.5 28t-27.5 44t-15 45.5t-9 48.5q-2 14 -4 42q-4 61 -4 182v348v10l-1 2q-1 1 -2.5 2t-2.5 2q-10 10 -19 15q-32 19 -87 23h-12t-13 1 q-4 0 -14.5 -0.5t-16.5 0.5q-7 0 -13 3q-7 3 -3 11zM269 1317q-4 6 1 10l53 50q30 30 88 92q16 16 23 25q10 13 14 16q2 1 21 9q1 0 4.5 2.5t7.5 4t8 1.5t8 -1.5t7.5 -4t4.5 -2.5l8 -3q8 -3 12 -6t8.5 -9.5t5.5 -7.5q14 -16 21 -25q25 -30 83 -86q14 -14 40 -38 q3 -3 9.5 -8.5t9.5 -8.5q6 -6 1 -11q-6 -6 -11 -1q-4 3 -19 18q-14 13 -40 39q-74 74 -84 86q-1 1 -9.5 10.5t-12.5 14.5q-2 3 -6 8t-6 7q-2 1 -7.5 3.5t-8.5 3.5l-14 7l-14 -7q-3 -1 -10 -3t-9 -4q-1 -1 -11 -13q-14 -18 -22 -26q-36 -40 -90 -92q-42 -42 -54 -51 q-6 -4 -10 1z" />
<glyph unicode="&#xfc;" horiz-adv-x="970" d="M21 1125q3 6 10 3q2 -2 8 -2q4 0 14 0.5t16 -0.5h12t13 -1q59 -4 93 -25q8 -5 22 -17l4 -2q18 16 29 22q21 12 42 16.5t58 6t42 1.5q8 0 8 -6q0 -8 -7 -8q-11 -1 -35 -2t-37 -2t-31.5 -6t-32.5 -13q-15 -9 -29 -23v-11v-348q0 -121 4 -181q2 -26 4 -40q9 -59 26 -99 t57 -56q22 -9 45 -11q12 -1 57 4q52 6 76 14q46 15 87 45q34 26 60 52q2 2 10.5 12t14.5 15q4 4 18 7q24 8 34 13l3 2l4 4l17 17q2 2 5.5 5t5.5 5t2 3v7v526v14q-2 3 -5 6l-15 12q-36 26 -96 26q-6 0 -18 0.5t-17 0.5q-16 0 -24 5q-6 4 -2 10t11 2q3 -2 15 -2h35 q61 0 104 -30q4 -2 9.5 -7.5t6.5 -5.5l3 -3q43 40 112 45q11 1 34.5 1t36.5 2q6 2 8 -6q2 -7 -6 -9q-14 -2 -38 -2t-34 -1q-65 -5 -105 -43v-15v-526v-9q2 -3 2 -14v-24q0 -11 0.5 -33t0.5 -33v-25v-5q4 -2 6 -4q13 -10 25 -15q19 -9 61 -5q50 6 76 8q8 0 8 -7q0 -8 -6 -8 q-25 -2 -77 -8q-47 -4 -69 6q-17 9 -28 17q0 1 -1 1q-4 -6 -12.5 -20t-12.5 -21q-18 -34 -22 -38q-6 -5 -10 -1q-6 6 -1 11q2 2 20 36q5 9 15.5 25.5t12.5 20.5v6v26q0 11 -0.5 33t-0.5 33v21l-4 -4l-17 -17q-9 -9 -11 -10q-5 -3 -11.5 -5t-13.5 -4.5t-11 -3.5 q-12 -4 -14 -5q-5 -4 -13 -13t-11 -12q-33 -33 -62 -54q-44 -33 -91 -47q-31 -9 -79 -15q-45 -5 -60 -4q-21 1 -48 12q-24 10 -41.5 28t-27.5 44t-15 45.5t-9 48.5q-2 14 -4 42q-4 61 -4 182v348v10l-1 2q-1 1 -2.5 2t-2.5 2q-10 10 -19 15q-32 19 -87 23h-12t-13 1 q-4 0 -14.5 -0.5t-16.5 0.5q-7 0 -13 3q-7 3 -3 11z" />
</font>
</defs>
</svg>
