<?xml version="1.0" encoding="UTF-8" standalone="no"?>
<!-- Created with Inkscape (http://www.inkscape.org/) -->

<svg
   xmlns:dc="http://purl.org/dc/elements/1.1/"
   xmlns:cc="http://creativecommons.org/ns#"
   xmlns:rdf="http://www.w3.org/1999/02/22-rdf-syntax-ns#"
   xmlns:svg="http://www.w3.org/2000/svg"
   xmlns="http://www.w3.org/2000/svg"
   xmlns:sodipodi="http://sodipodi.sourceforge.net/DTD/sodipodi-0.dtd"
   xmlns:inkscape="http://www.inkscape.org/namespaces/inkscape"
   width="411.7724"
   height="147.54056"
   id="svg3271"
   version="1.1"
   inkscape:version="0.48.4 r9939"
   sodipodi:docname="logo-overlayed-baseline-sans.svg">
  <defs
     id="defs3273" />
  <sodipodi:namedview
     id="base"
     pagecolor="#ffffff"
     bordercolor="#666666"
     borderopacity="1.0"
     inkscape:pageopacity="0.0"
     inkscape:pageshadow="2"
     inkscape:zoom="0.35"
     inkscape:cx="175.17192"
     inkscape:cy="-94.801155"
     inkscape:document-units="px"
     inkscape:current-layer="layer1"
     showgrid="false"
     inkscape:window-width="486"
     inkscape:window-height="415"
     inkscape:window-x="529"
     inkscape:window-y="181"
     inkscape:window-maximized="0"
     fit-margin-top="0"
     fit-margin-left="0"
     fit-margin-right="0"
     fit-margin-bottom="0" />
  <metadata
     id="metadata3276">
    <rdf:RDF>
      <cc:Work
         rdf:about="">
        <dc:format>image/svg+xml</dc:format>
        <dc:type
           rdf:resource="http://purl.org/dc/dcmitype/StillImage" />
        <dc:title></dc:title>
      </cc:Work>
    </rdf:RDF>
  </metadata>
  <g
     inkscape:label="Calque 1"
     inkscape:groupmode="layer"
     id="layer1"
     transform="translate(-199.82808,-290.02047)">
    <g
       transform="translate(97.695515,-402.60809)"
       id="g3220">
      <flowRoot
         transform="matrix(3.867517,0,0,3.867517,105.63853,385.29408)"
         style="font-size:40px;font-style:normal;font-weight:normal;line-height:125%;letter-spacing:0px;word-spacing:0px;fill:#000000;fill-opacity:1;stroke:none;font-family:Sans"
         id="flowRoot5577-4-7"
         xml:space="preserve"><flowRegion
           id="flowRegion5579-8-5"><rect
             style="stroke:none"
             y="105.86071"
             x="-1.0101526"
             height="77.276672"
             width="406.5864"
             id="rect5581-2-8" /></flowRegion><flowPara
           style="font-size:9.57299232px;font-style:normal;font-variant:normal;font-weight:normal;font-stretch:normal;letter-spacing:0.00253922px;word-spacing:0.00253922px;stroke:none;font-family:Linux Libertine Display;-inkscape-font-specification:Linux Libertine Display"
           id="flowPara5583-4-7">Multiple Art Days</flowPara></flowRoot>      <flowRoot
         transform="matrix(3.2449471,0,0,3.2449471,-189.06972,918.23772)"
         style="font-size:40px;font-style:normal;font-weight:normal;line-height:125%;letter-spacing:0px;word-spacing:0px;fill:#000000;fill-opacity:1;stroke:none;font-family:Sans"
         id="flowRoot5505-9-6"
         xml:space="preserve"><flowRegion
           id="flowRegion5507-5-4"><rect
             y="-76.307335"
             x="183.84776"
             height="96.974648"
             width="166.17009"
             id="rect5509-3-1" /></flowRegion><flowPara
           style="font-style:normal;font-variant:normal;font-weight:normal;font-stretch:normal;font-family:Libertinage;-inkscape-font-specification:Libertinage"
           id="flowPara5511-6-3">#1</flowPara></flowRoot>      <g
         id="g3138">
        <g
           id="flowRoot6887-9-9-4-1-4-4-5"
           style="font-size:40px;font-style:normal;font-weight:normal;line-height:125%;letter-spacing:0px;word-spacing:0px;fill:#000000;fill-opacity:1;stroke:none;font-family:Sans"
           transform="matrix(2.7025562,0,0,2.7025562,-15370.611,1098.0904)">
          <g
             transform="matrix(1.3811609,0,0,1.3811609,-2129.2149,-48.901147)"
             id="g6902-7-4-8-7-0-8-0">
            <path
               inkscape:connector-curvature="0"
               d="m 5709.8477,-50.309311 0,-17.929688 -9.0235,21.171875 c -0.1172,0.299479 -0.306,0.449219 -0.5664,0.449219 -0.2734,0 -0.4688,-0.14974 -0.5859,-0.449219 l -8.3594,-20.761718 0,17.597656 c 0,0.716148 0.091,1.282554 0.2734,1.699219 0.1823,0.416667 0.5404,0.625001 1.0743,0.625 l 1.0546,0 c 0.091,1e-6 0.1758,0.03255 0.2539,0.09766 0.091,0.05208 0.1368,0.130209 0.1368,0.234375 l 0.1562,0.703125 -0.078,0.117187 c -1.4063,-0.05208 -2.6302,-0.07813 -3.6719,-0.07813 l -3.6133,0.07813 -0.059,-0.07813 0,-0.742187 c 0,-0.221353 0.1303,-0.33203 0.3907,-0.332031 l 1.0547,0 c 0.9895,10e-7 1.5559,-0.774738 1.6992,-2.324219 l 0,-19.589844 c 0,-0.624976 -0.1042,-1.074195 -0.3125,-1.347656 -0.1953,-0.273413 -0.5925,-0.410132 -1.1914,-0.410156 l -1.1719,0 c -0.2604,-0.013 -0.3906,-0.104142 -0.3906,-0.273438 l 0,-0.742187 0.1172,-0.136719 5.8789,0 8.1836,20.390625 c 0.1432,0.338547 0.2538,0.507817 0.332,0.507812 0.091,5e-6 0.2148,-0.182286 0.3711,-0.546875 l 8.6914,-20.351562 4.9414,0 0.098,0.136719 0,0.703125 c -0.013,0.208358 -0.1562,0.312524 -0.4296,0.3125 l -1.0938,0 c -0.4167,2.4e-5 -0.7422,0.162784 -0.9766,0.488281 -0.2344,0.312524 -0.3515,0.7357 -0.3515,1.269531 l 0.02,19.511719 c 0.052,0.755211 0.2018,1.341148 0.4492,1.757812 0.2474,0.403647 0.6771,0.60547 1.2891,0.605469 l 1.0547,0 c 0.3125,10e-7 0.4687,0.110678 0.4687,0.332031 l 0,0.742188 -0.098,0.07813 c -1.9402,-0.05208 -3.431,-0.07813 -4.4727,-0.07813 l -4.2969,0.07813 -0.098,-0.07813 0.1172,-0.742188 c 0,-0.221353 0.1237,-0.33203 0.3711,-0.332031 l 1.0547,0 c 0.8723,10e-7 1.3085,-0.787759 1.3086,-2.363281"
               style="font-variant:normal;font-stretch:normal;font-family:Libertinage;-inkscape-font-specification:Libertinage"
               id="path6896-3-2-1-3-6-6-6" />
            <path
               inkscape:connector-curvature="0"
               d="m 5733.7148,-53.590561 -8.9453,0 c -0.4687,6e-6 -0.8073,0.0586 -1.0156,0.175781 -0.2083,0.104173 -0.3581,0.279954 -0.4492,0.527344 l -1.1719,3.125 c -0.1953,0.494794 -0.293,0.846356 -0.293,1.054687 0,0.28646 0.1758,0.475262 0.5274,0.566407 0.3515,0.07813 0.9114,0.117188 1.6797,0.117187 l 0.7031,0 c 0.2213,10e-7 0.332,0.110678 0.332,0.332031 l 0,0.742188 -0.078,0.07813 c -1.9401,-0.05208 -3.431,-0.07813 -4.4727,-0.07813 l -2.9101,0.09766 -0.6641,-0.09766 0,-0.742188 c 0,-0.221353 0.1042,-0.33203 0.3125,-0.332031 0.8464,10e-7 1.4779,-0.117186 1.8946,-0.351562 0.4296,-0.247395 0.7747,-0.709634 1.0351,-1.386719 l 8.418,-22.539063 c 0.2344,-0.611953 0.5599,-0.917942 0.9765,-0.917968 0.4037,2.6e-5 0.7162,0.312526 0.9375,0.9375 l 7.8711,22.441406 c 0.2604,0.74219 0.6185,1.23047 1.0743,1.464844 0.4687,0.234376 1.0807,0.351563 1.8359,0.351562 0.2213,10e-7 0.332,0.110678 0.332,0.332031 l 0,0.742188 -0.078,0.07813 c -2.0703,-0.05208 -3.6263,-0.07813 -4.668,-0.07813 l -4.9804,0.07813 -0.078,-0.07813 0,-0.742188 c 0,-0.221353 0.1042,-0.33203 0.3125,-0.332031 l 1.0743,0 c 1.302,10e-7 1.9531,-0.33854 1.9531,-1.015625 0,-0.156248 -0.059,-0.423174 -0.1758,-0.800781 l -1.2891,-3.75 m -0.5468,-1.5625 -3.1446,-8.945313 -1.2695,-3.476562 -1.2109,3.378906 -3.125,8.339844 c -0.052,0.130217 -0.078,0.240894 -0.078,0.332031 0,0.247404 0.3451,0.371102 1.0352,0.371094 l 7.793,0"
               style="font-variant:normal;font-stretch:normal;font-family:Libertinage;-inkscape-font-specification:Libertinage"
               id="path6898-7-7-3-8-1-9-5" />
            <path
               inkscape:connector-curvature="0"
               d="m 5747.6602,-72.63353 c 0,2.6e-5 1.5429,-0.02602 4.6289,-0.07813 0.065,2.6e-5 0.1367,2.6e-5 0.2148,0 1.4193,2.6e-5 2.7344,0.22789 3.9453,0.683594 1.224,0.442733 2.2721,1.067732 3.1445,1.875 0.8854,0.807314 1.6341,1.757834 2.2461,2.851562 0.625,1.09377 1.0873,2.291685 1.3868,3.59375 0.3124,1.302099 0.4687,2.669285 0.4687,4.101563 0,2.421885 -0.4622,4.589852 -1.3867,6.503906 -0.9115,1.901046 -2.2787,3.417972 -4.1016,4.550781 -1.8099,1.119793 -3.9388,1.686198 -6.3867,1.699219 l -4.1601,0.01953 -5.0391,0.07813 -0.059,-0.07813 0,-0.722656 c 0,-0.234374 0.098,-0.351561 0.293,-0.351562 l 1.1914,0 c 0.7422,10e-7 1.2695,-0.143228 1.582,-0.429688 0.3255,-0.286457 0.4883,-0.755206 0.4883,-1.40625 l 0,-10.390625 0,-9.6875 c 0,-0.624976 -0.1693,-1.067684 -0.5078,-1.328125 -0.3386,-0.273413 -0.8985,-0.410132 -1.6797,-0.410156 l -1.0547,0 c -0.2214,2.4e-5 -0.332,-0.110653 -0.332,-0.332031 l 0,-0.742188 0.078,-0.07813 c 2.3177,0.05211 3.9974,0.07815 5.0391,0.07813 m 4.2382,24.472656 c 1.0677,2e-6 2.0703,-0.227863 3.0078,-0.683593 0.9506,-0.468748 1.8099,-1.165362 2.5782,-2.089844 0.7812,-0.924474 1.3997,-2.161452 1.8554,-3.710938 0.4558,-1.54947 0.6836,-3.320301 0.6836,-5.3125 0,-1.653631 -0.1302,-3.131494 -0.3906,-4.433593 -0.2474,-1.315086 -0.5925,-2.402324 -1.0351,-3.261719 -0.4428,-0.859354 -0.9766,-1.568988 -1.6016,-2.128906 -0.612,-0.559873 -1.263,-0.957008 -1.9531,-1.191407 -0.6901,-0.23435 -1.4388,-0.351538 -2.2461,-0.351562 l -1.3867,0 c -0.7943,2.4e-5 -1.3412,0.09768 -1.6407,0.292969 -0.2864,0.195336 -0.4297,0.598981 -0.4297,1.210937 l 0,20.078125 c 0,0.572919 0.1498,0.983075 0.4493,1.230469 0.2994,0.234376 0.8398,0.351564 1.6211,0.351562 l 0.4882,0"
               style="font-variant:normal;font-stretch:normal;font-family:Libertinage;-inkscape-font-specification:Libertinage"
               id="path6900-3-9-5-3-7-9-3" />
          </g>
        </g>
        <path
           inkscape:connector-curvature="0"
           style="fill:none;stroke:#ffffff;stroke-width:1.5;stroke-miterlimit:4;stroke-dasharray:none"
           d="m 104.45452,695.5383 c 2.05772,0.0891 4.12869,0.027 6.1875,0.11081 1.31696,0.0567 2.62932,0.13242 3.90033,0.52754 1.22615,0.38105 2.34852,1.04885 3.33766,1.85963 0.32728,0.26754 0.79914,0.58564 1.01778,0.9521 0.20539,0.34539 0.19999,0.95509 0.26755,1.34993 l 0.51268,3.07524 0.2189,1.31236 c 0.027,0.16215 0.027,0.43727 0.12162,0.57186 0.14323,0.18918 0.50754,0.30404 0.71212,0.41485 0.57808,0.31349 1.15102,0.6378 1.72531,0.95804 0.24053,0.13244 0.5943,0.25945 0.75023,0.49458 0.29837,0.45025 0.4516,1.07237 0.65213,1.57343 0.42052,1.05102 0.84725,2.09907 1.2675,3.15009 1.30614,3.26497 2.62256,6.52641 3.93762,9.78786 4.1414,10.26971 8.27037,20.54455 12.38312,30.82589 2.51148,6.27858 5.04918,12.54689 7.56012,18.82573 0.59322,1.48344 1.20183,2.95849 1.83207,4.42518 0.18918,0.44131 0.56889,1.30695 1.16804,1.29344 0.17567,0 0.3762,-0.16756 0.52512,-0.24864 0.3597,-0.19999 0.72346,-0.3943 1.0875,-0.5851 1.09426,-0.57403 2.16502,-1.1948 3.26252,-1.76261 0.58214,-0.30079 1.30183,-0.56781 1.66695,-1.1348 0.5532,-0.85834 0.91211,-1.87639 1.31154,-2.81255 l 1.9499,-4.57516 c 2.10691,-4.93703 4.1995,-9.88054 6.31642,-14.81298 4.19652,-9.77731 8.33954,-19.57759 12.51526,-29.36354 1.24859,-2.92553 2.51933,-5.84213 3.75007,-8.7752 0.39943,-0.95238 0.81157,-1.89963 1.21588,-2.85013 0.18647,-0.43916 0.33268,-1.04372 0.62429,-1.42127 0.32295,-0.41754 1.12859,-0.66671 1.58829,-0.91535 1.21156,-0.65537 2.41392,-1.33317 3.63764,-1.96638 0.40322,-0.20809 0.80564,-0.42323 1.19993,-0.64726 0.13243,-0.0756 0.35188,-0.13783 0.45052,-0.25675 0.0892,-0.10812 0.0946,-0.32323 0.11621,-0.45673 0.0595,-0.35025 0.11621,-0.70158 0.18377,-1.05021 0.26756,-1.37993 0.41404,-2.79661 0.7451,-4.16248 0.11081,-0.45943 0.16486,-1.341 0.56916,-1.63666 1.8072,-1.32399 4.31733,-1.94639 6.52343,-2.00044 1.84774,-0.046 3.81033,0.22431 5.6251,-0.15134 m -13.7252,9.48786 c 0.2108,0.39782 0.0756,1.12723 0.0756,1.57505 l 0,3.7125 0,13.53792 c 0,14.7092 0.0379,29.42651 0.0379,44.13896 l 0,12.30041 c 0,1.13805 0.0379,2.27798 0.0379,3.41279 0,0.34917 0.15675,0.96022 0,1.27506 -0.1135,0.22702 -0.40538,0.39971 -0.59888,0.55484 -0.5043,0.4043 -1.02833,0.77644 -1.57506,1.12075 -1.8234,1.14885 -3.84654,1.82882 -6.00021,1.92286 -1.08156,0.046 -2.18177,0.027 -3.26253,0.0379 -0.62671,0 -1.27695,-0.073 -1.87503,0.15135 m -60.00215,-83.36522 -2.85012,2.85013 c -0.33322,0.33322 -1.01345,0.79292 -1.1775,1.23749 -0.14053,0.38512 -0.027,1.01482 -0.027,1.42506 l 0,3.18767 0,10.87535 0,43.389 c 0,4.68353 0.2108,9.43139 -0.1081,14.10032 -0.0784,1.13508 -0.0757,2.27745 -0.16756,3.41279 -0.027,0.28891 0.0622,0.95913 -0.12161,1.18534 -0.14324,0.17837 -0.48592,0.26485 -0.68996,0.35214 -0.61159,0.26215 -1.23561,0.49078 -1.87504,0.6751 -1.75423,0.50538 -3.50846,0.63727 -5.32511,0.63727 -1.19859,0 -2.59608,-0.17837 -3.75034,0.18647 m 48.11414,-11.73775 -0.0756,11.5129 m 41.43884,-3.63764 c 0.65429,0.40754 1.25101,0.90347 1.9126,1.30506 1.61478,0.98022 3.37279,1.70828 5.25026,1.98503 1.63423,0.24053 3.30117,0.23512 4.95,0.23512 1.04453,0 2.14097,-0.0946 3.1501,0.22432 m -93.00307,-1.68776 c 1.86071,0.9905 3.66575,1.48128 5.7751,1.57371 1.24885,0.054 2.50337,-0.0486 3.75033,0.0351 0.6397,0.0433 1.23561,0.0703 1.83747,0.3362 0.35593,0.15675 0.70726,0.47538 1.01238,0.71725"
           id="path4-2-5-0-4-1-4-9-4-0-8-5-9-6-1-0-8-2" />
        <path
           inkscape:connector-curvature="0"
           style="fill:none;stroke:#ffffff;stroke-width:1.5;stroke-miterlimit:4;stroke-dasharray:none"
           d="m 260.96495,695.38509 c -0.027,2.74904 -0.0756,5.49619 -0.0756,8.24605 0,0.7332 0,1.47046 -0.0298,2.20393 0,0.37943 -0.0919,0.88428 0,1.25237 0.0514,0.19998 0.31999,0.29268 0.48187,0.38917 0.41647,0.24863 1.17939,0.51078 1.36912,0.98021 0.34186,0.84536 0.59942,1.72774 0.91265,2.58419 1.17967,3.22468 2.31285,6.46505 3.49224,9.68974 3.73791,10.22025 7.24988,20.53672 10.81888,30.81752 0.30322,0.87427 0.60294,1.75017 0.91292,2.62202 0.18917,0.53186 0.44052,1.07373 0.5278,1.63397 0.17568,1.13831 0.32054,2.28284 0.50701,3.41981 0.0676,0.41619 0.0405,1.01237 0.21621,1.39344 0.15944,0.34592 0.89562,0.52808 1.18939,0.76455 0.27566,0.22161 0.357,0.74941 0.47159,1.07211 1.17237,3.29441 2.27421,6.61396 3.42117,9.91784 0.64321,1.85233 1.43803,3.70628 1.86774,5.62374 0.40159,1.79315 0.54834,3.65791 0.83968,5.47187 0.0756,0.46781 0.14594,0.9367 0.2108,1.40613 0.027,0.17027 0,0.44863 0.13242,0.58457 0.2108,0.24323 0.64889,0.407 0.92699,0.56591 0.67239,0.3835 1.34451,0.77078 2.05205,1.08616 2.87092,1.27939 5.78941,2.02881 8.92978,2.24366 1.01237,0.0702 2.02854,0.0838 3.0401,0.15135 0.49998,0.0351 0.97076,-0.027 1.44399,0.19458 m -24.5476,-29.03139 -1.82396,1.82395 c -0.22161,0.22161 -0.49889,0.62673 -0.79806,0.73725 -0.22431,0.0838 -0.56024,0.027 -0.79806,0.027 l -1.74802,0 -5.92779,0 -21.43154,0 -4.67407,0 c -1.04102,0 -2.1215,0.0433 -3.15388,-0.0919 -0.59024,-0.0784 -1.16994,-0.12701 -1.74801,-0.27998 -0.2135,-0.0567 -0.54376,-0.17026 -0.64132,-0.3889 -0.10538,-0.23782 0.0676,-0.6978 0.10537,-0.94941 0.12163,-0.86292 0.27324,-1.72234 0.40701,-2.58391 0.15946,-1.02454 0.23783,-2.1134 0.50079,-3.11578 0.25675,-0.97184 0.6651,-1.91097 1.01913,-2.85011 0.61105,-1.62018 1.21723,-3.24199 1.82422,-4.86379 3.1547,-8.4363 6.38425,-16.84801 9.47571,-25.30755 1.04535,-2.8612 2.10827,-5.71834 3.12956,-8.58791 0.32079,-0.90157 0.64456,-1.80315 0.98346,-2.69797 0.12702,-0.33295 0.2081,-0.81698 0.43565,-1.09399 0.12973,-0.15945 0.36971,-0.24863 0.54511,-0.34998 0.40484,-0.23242 0.81022,-0.46403 1.21615,-0.69483 1.27885,-0.72698 2.53634,-1.50776 3.8379,-2.19312 m -19.37977,82.38256 c -3.14333,-0.24864 -6.32073,-0.027 -9.46191,-0.33566 -1.49667,-0.14863 -3.16686,-0.34349 -4.17275,-1.60235 -0.23782,-0.29782 0.14323,-1.23939 0.22432,-1.59586 0.33701,-1.46721 0.43889,-2.98146 0.77427,-4.44597 0.35269,-1.5383 0.99644,-3.00551 1.53722,-4.48408 1.05426,-2.88335 2.15746,-5.74915 3.22983,-8.62575 0.83022,-2.22744 1.54207,-4.62975 3.68791,-5.96589 m 50.91913,22.91362 c -1.09453,1.09427 -2.0834,2.28312 -3.49603,2.96471 -1.14021,0.55024 -2.52203,0.69429 -3.76196,0.84157 -2.95255,0.35133 -5.93265,0.10274 -8.89168,0.33566 m -56.77124,-0.0379 c 0.60104,-0.0756 1.15264,0.027 1.748,0 1.06103,-0.0351 2.13557,-0.0919 3.192,-0.19459 1.68937,-0.16485 3.3836,-0.44456 5.01594,-0.92157 0.82914,-0.24323 1.61613,-0.58213 2.43203,-0.85778"
           id="path4-8-7-3-3-9-9-9-9-8-8-8-5-8-6-7-0-1-9" />
        <path
           inkscape:connector-curvature="0"
           style="fill:none;stroke:#ffffff;stroke-width:1.5;stroke-miterlimit:4;stroke-dasharray:none"
           d="m 311.39005,695.38644 c 0.38161,0.18647 0.87536,0.15135 1.29075,0.15135 0.80428,0 1.62801,-0.0514 2.43014,0 3.74087,0.25674 7.61499,0 10.97346,2.00907 0.70455,0.42376 1.3183,0.9386 1.89828,1.51884 0.20268,0.2027 0.47024,0.40349 0.62294,0.64538 0.19458,0.30782 0.0595,1.00913 0.0595,1.36695 l 0,3.45521 0,12.94795 0,48.44954 0,14.16274 0,3.7971 c 0,0.38268 0.14593,1.1529 -0.0595,1.48072 -0.18649,0.29728 -0.52592,0.54997 -0.77456,0.79753 -0.97049,0.96589 -2.14988,1.69693 -3.41738,2.20231 -4.13788,1.65018 -8.58494,0.98752 -12.90984,1.32885 m 17.16231,-89.9889 c 1.22858,-1.22805 2.43744,-2.24989 4.06302,-2.90634 1.07724,-0.43511 2.31312,-0.51889 3.45522,-0.63132 2.24853,-0.2216 4.49787,-0.15674 6.75855,-0.18377 4.25842,-0.0514 8.54035,-0.073 12.71986,0.86076 6.99529,1.56451 13.26792,5.98941 17.29206,11.8972 3.3663,4.94297 5.62996,10.58943 6.98989,16.40316 0.6578,2.81174 1.06237,5.61618 1.47316,8.46738 0.24863,1.72045 0.36647,3.46847 0.48565,5.20189 0.0946,1.36154 0.24594,2.73579 0.26215,4.10058 0.0297,2.27366 -0.28756,4.6138 -0.52429,6.8726 -1.23588,11.79503 -5.59403,23.74223 -15.00463,31.45505 -4.91027,4.02492 -10.84319,6.65748 -17.16231,7.41528 -2.69932,0.32377 -5.44619,0.31484 -8.16361,0.31484 -3.20388,0 -6.73639,0.16756 -9.68244,-1.30506 -1.14697,-0.57376 -2.06233,-1.40289 -2.96174,-2.30204"
           id="path4-0-4-5-7-6-4-2-8-2-2-8-8-3-9-8-7-8-9" />
      </g>
      <path
         id="path4-1-6-2-6-8-6-5-0-47-26-0-0-3-5-4-0-2-2"
         d="m 477.69921,729.46528 c 1.56336,-0.40441 3.18786,-0.64726 4.77151,-0.96409 1.72068,-0.34423 3.45066,-0.78304 5.18749,-1.03191 1.19901,-0.17187 2.43787,-0.24218 3.64591,-0.33075 1.06981,-0.0784 2.13545,-0.2152 3.2055,-0.29365 0.26131,-0.0186 0.52167,-0.0541 0.78301,-0.0734 0.11645,-0.009 0.21582,-0.0422 0.31809,0.0343 0.11607,0.0867 0.30124,0.24548 0.35235,0.38374 0.081,0.22014 0.0145,0.57339 0.0145,0.8075 l 0,1.81071 0,8.66209 0,35.65173 0,11.06013 0,2.78949 c 0,0.28433 -0.10175,0.80722 0.0995,1.0277 0.17146,0.18799 0.44289,0.55717 0.68365,0.64599 0.30758,0.11331 0.82193,0.0144 1.15008,0.0144 l 2.64268,0 11.91654,0 m -16.49229,-0.75855 c -0.21166,0.21166 -0.50065,0.63964 -0.78303,0.74385 -0.31367,0.11558 -0.83976,0.0145 -1.17451,0.0145 l -2.74058,0 -11.79418,0"
         style="fill:none;stroke:#ffffff;stroke-width:1.5;stroke-miterlimit:4;stroke-dasharray:none"
         inkscape:connector-curvature="0" />
      <path
         inkscape:connector-curvature="0"
         style="fill:none;stroke:#ffffff;stroke-width:1.5;stroke-miterlimit:4;stroke-dasharray:none"
         d="m 431.9262,721.81544 -2.71183,16.72963 -0.3928,4.30101 -0.0578,1.17012 0.0326,0.42377 0.44181,0.0507 1.23337,0 5.12326,0 20.84089,0 m -6.4515,-22.67514 c -0.0126,0.61783 -0.18595,1.25459 -0.2761,1.86586 -0.18817,1.27709 -0.39815,2.55104 -0.59613,3.82664 -0.41207,2.65776 -0.84786,5.31173 -1.25993,7.96951 -0.46299,2.98445 -0.93548,5.95562 -0.93548,8.9815 m -28.58902,0.0317 10.40464,0 m -0.8855,0.0316 c 0,2.6856 -0.39817,5.32092 -0.80897,7.96952 -0.34029,2.19413 -0.68405,4.38765 -1.04901,6.578 -0.21599,1.29504 -0.20524,2.61666 -0.32953,3.9215 -0.0351,0.36812 -0.0263,0.73687 -0.0263,1.10689 0,0.10531 -0.0372,0.30421 0.0326,0.39214 0.0772,0.0974 0.33174,0.0507 0.4418,0.0507 l 1.23337,0 5.12326,0 20.84089,0 m -7.337,-20.01866 c 0,6.72918 -2.21375,13.25594 -2.21375,19.98702 m -28.65227,0.0317 10.49949,0 m -0.94874,0.0317 c 0,2.73588 -0.39025,5.42844 -0.80896,8.12764 -0.5019,3.23777 -1.06229,6.46732 -1.53982,9.70888 -0.1556,1.05596 -0.33397,2.10971 -0.51045,3.16249 -0.0955,0.56862 -0.24698,1.16349 -0.27164,1.73939 m 21.28359,-22.73842 c 0,3.02747 -0.47215,5.99579 -0.93546,8.98151 -0.45129,2.91109 -0.93516,5.81742 -1.38644,8.72851 -0.19165,1.23431 -0.41429,2.46453 -0.59614,3.70013 -0.0661,0.44907 -0.19322,0.90606 -0.21284,1.35986"
         id="path4-5-2" />
    </g>
  </g>
</svg>
